M48
;Layer_Color=9474304
;FILE_FORMAT=2:5
INCH,LZ
T13F00S00C0.20000
%
G90
G05
T13
G00X0631098Y00075
M15
G01X0633007Y000809
G01X063476Y0009048
G01X0636287Y0010335
G01X0637528Y00119
G01X0638433Y0013681
G01X0638966Y0015606
G01X0639111Y00173
G01X0639111Y0549734
G01X0638912Y0551722
G01X0638321Y055363
G01X0637363Y0555382
G01X0636076Y055691
G01X063451Y0558151
G01X063273Y0559056
G01X0630805Y055959
G01X0629111Y0559734
G01X0037681Y0559734
G01X0035693Y0559534
G01X0033785Y0558944
G01X0032033Y0557986
G01X0030505Y0556699
G01X0029264Y0555134
G01X0028359Y0553353
G01X0027826Y0551428
G01X0027681Y0549734
G01X0027681Y00173
G01X002788Y0015312
G01X0028471Y0013404
G01X0029429Y0011652
G01X0030716Y0010124
G01X0032281Y0008883
G01X0034062Y0007978
G01X0035987Y0007445
G01X0037681Y00073
G01X0629111Y00073
G01X0631098Y00075
M16
M17
M30
