M48
;Layer_Color=9474304
;FILE_FORMAT=2:5
INCH,LZ
;TYPE=PLATED
T1F00S00C0.00787
T2F00S00C0.01200
T3F00S00C0.02362
T4F00S00C0.03346
T5F00S00C0.03543
T6F00S00C0.03937
T7F00S00C0.04000
T8F00S00C0.05118
T9F00S00C0.05906
T10F00S00C0.07087
T11F00S00C0.11811
T12F00S00C0.15748
%
T01
X0115085Y0221133
Y0225464
Y0229795
X0119416
X0123746
Y0225464
X0119416
Y0221133
X0123746
X0128077
Y0225464
Y0229795
X0212794
X0217124
Y0225464
X0212794
Y0221133
X0217124
X0221455
Y0225464
Y0229795
X0225786
Y0225464
Y0221133
X0173648Y0351704
X0169317
X0164987
Y0356035
X0169317
Y0360365
X0164987
Y0364696
X0169317
X0173648
Y0360365
Y0356035
X0150168Y0402204
Y0406535
Y0410865
X0145837
Y0406535
X0141506
Y0410865
Y0402204
X0145837
X0088648Y0358696
Y0354365
Y0350035
Y0345704
X0084317
X0079987
Y0350035
X0084317
Y0354365
X0079987
Y0358696
X0084317
X0141506Y0415196
X0145837
X0150168
X0095168Y0473704
Y0478035
Y0482365
Y0486696
X0090837
X0086506
Y0482365
Y0478035
X0090837
Y0482365
Y0473704
X0086506
X0386085Y0480133
Y0484464
Y0488794
X0390416
Y0484464
X0394746
Y0488794
X0399077
Y0484464
Y0480133
X0394746
X0390416
T02
X0490516Y00276
X0493516Y00323
X0509016Y00466
X0516316Y00537
X0521116Y00546
X0525416Y00547
X0531316Y00527
X0530316Y0061
X0524316Y00698
X0527316Y00798
X0532316
X0537316
Y00848
Y00898
Y00948
X0542316
X0547316
Y00898
Y00848
Y00798
X0542316
Y00848
Y00898
X0532316
Y00948
X0527316
Y00898
Y00848
X0532316
X0544316Y00698
X0564316
X0584316
X0614316Y00798
X0621081Y00757
X0575216Y00352
X0543716Y00351
X0535416Y00391
X0526416Y00369
X0531216Y00287
X0534916Y00251
X0548216Y00255
X0511716Y00609
X0504316Y00698
X0484516Y00537
X0481816Y00513
X0479616Y0054
X0473816Y00528
X0473716Y00753
X0471316Y00847
Y00869
X0462116Y00752
X0451716Y00739
X0455316Y00818
X0451081Y00627
X0444081Y00677
Y00487
X0434116Y00462
X0424516Y0027
X0401216Y00507
X0396916Y00588
X0408316Y00672
X0410216Y00747
X0390416Y00846
Y00892
X0393216
X0384116Y00947
X0380416Y00985
X0379216Y00814
X0382316Y00775
X0382816Y00694
X0371566Y00658
X0369266
X0356416Y00542
X0354116Y00387
X0354316Y00298
X0318016Y00378
X0322816Y00601
X0337516Y00604
X0346716Y00832
X0350316Y00861
X0354316Y0093
X0358816
X0341716Y00954
X0329516Y00951
X0325116Y00962
X0324116Y00935
X0321416Y00925
X0318316
X0315516
X0432616
Y00902
Y00878
X0457516Y00534
X0308016Y00602
X0289416Y00553
X0278516Y00604
X0263916Y00603
X0246316Y00565
X0244316Y00298
X0261081Y00257
X0298016Y00379
X0305416Y00951
X0308116Y00925
X0312216
X0245316Y00896
X0226016Y00954
X0228316Y00806
X0220116
X0224416Y00644
X0203116Y00635
X0203081Y00607
X0178916Y00712
X0196081Y00257
X0146081
X0126081
X0101081
X0076081
X0099081Y00777
Y00817
X0098081Y0086094
X0095081
X0121081Y00927
X0139081Y00937
X0137081Y00967
X0134081Y00847
X0046081Y00807
Y01027
Y01297
Y01517
X0066081Y01347
X0071081
X0081081
X0086081
X0095081
X0084081Y01197
X0081081
X0125081Y01187
Y01217
X0132081Y01277
X0141081Y01317
X0139081Y01137
X0140081Y00997
X0119081Y01067
X0148081Y01507
X0151081Y01707
X0096081Y01747
X0080531Y01737
X0164081Y01977
Y02007
X0194081Y01907
X0187081Y01767
X0196566Y0167216
X0198404Y0165377
X0200242Y0163539
X0202081Y01617
X0179081Y01607
X0177081Y01577
X0183816Y01012
X0187416
X0258081Y01067
X0262016Y0103
X0279081Y01099
X0282066
X0288081Y01137
X0287081Y01167
X0289081Y01197
X0286016Y01364
X0280616Y01491
X0274316Y01483
X0289616Y01622
X0304216Y01631
X0302016Y01653
X0303116Y01693
X0303216Y01596
X0303166Y01393
X0306081
X0302081Y01307
X0310081Y01267
Y0112968
X0311081Y01057
X0309716Y01746
X0289316Y01865
X0291716Y01919
X0293216Y01955
X0285216Y01996
X0264216Y01825
X0258081Y01837
X0256081Y01297
X0202081Y02297
X0199081
X0191081Y02497
X0181081
X0342616Y02448
X0339916Y0222
X0352516Y022365
X0360316Y02202
X0369116Y02259
X0369916Y02299
X0384516Y02288
X0384316Y02098
X0395516Y02162
X0371116Y02154
X0367816Y02128
X0365016Y02081
X0371516Y02043
X0371416Y02016
X0355516Y01986
X0354216Y01807
X0361416Y018035
X0363816
X0345616Y018015
Y017795
X0334716Y01778
X0330616Y01797
X0332316Y01728
X0329216Y01721
X0329916Y01649
X0326116Y0164
X0326416Y01557
X0327616Y01418
X0325016Y01389
X0318016Y01403
X0330334Y0132782
X0335716Y01282
X0333616Y01247
X0331816Y012
X0328416Y0121
X0318316Y0106
X0315081Y01057
X0344416Y01062
X0345016Y01104
X0347316
X0350116Y01072
X0357416Y01052
X0361616Y01074
X0362216Y01107
X0363816Y01052
X0368716Y01092
X0371116Y01068
X0377116Y01158
X0375616Y01183
X0373016Y01204
X0370516Y01226
X0372016Y01252
X0376516Y01248
Y01276
X0385916Y01254
X0388116Y01274
X0387916Y01305
X0390216Y01419
X0391266Y01471
X0393666
X0406016Y014755
X0408081Y01477
X0408016Y01358
X0412516Y0136
X0405316Y01306
X0427716Y01284
X0430016
X0430116Y01317
X0430816Y01356
Y01386
X0445401Y0138986
X0445516Y01363
X0446716Y01442
X0449116Y01422
X0447916Y01506
X0457316Y01518
Y01548
X0460316
Y01518
X0463316
X0466316
Y01548
X0463316
Y01488
X0466316
Y01458
X0463316
X0460316
X0457316
Y01488
X0460316
X0452116Y0159
X0449716Y01764
X0442316Y0169
X0435716Y01655
X0410416Y01666
X0407816Y016255
X0405516
X0393816Y01645
X0389516Y0166
X0386616Y01635
X0376716Y01639
X0376616Y01594
X0375816Y01561
X0373716Y01528
X0362316Y01526
Y01497
Y01468
Y01436
X0355516Y01421
X0349316Y0139
X0352216Y01356
X0354816Y01554
X0343916
X0345916Y01634
X0374216Y0167
X0374016Y01709
X0389916Y01864
X0407416Y01818
X040831Y0177715
X0405716Y017755
X0406716Y01949
X0412916Y01939
X0417316Y0198
X0423916Y019
X0438916Y01925
X0439616Y0201
X0462916Y02007
X0465416
Y01982
Y01957
X0467916
Y01982
Y02007
X0462916Y01982
Y01957
X0457316Y01928
Y01898
Y01868
X0460416Y02185
X0463416Y02514
X0374516Y02504
X0367516
X0341716Y02084
X0335216Y02068
X0329116Y01998
X0326116
X0317716
X0320316Y02069
X0327916Y02142
X0316516Y0191
X0313416Y0175
X0370916Y01416
X0373716Y01392
X0389716Y01146
X0386081Y01067
X0395116Y01032
X0399316Y01074
X0404116Y01026
X0421516Y01041
X0437716Y01046
Y01068
X0435816Y01158
X0441516Y01193
X0446116Y01258
X0452516Y01199
X0458716
X0464516
X0455716Y01135
X0445316Y01117
X0469916Y0111
X0473716Y01203
X0480916Y0129
Y01315
Y01345
Y01375
Y01403
X0471516Y01398
X0493916Y01532
X0496416
Y01557
Y01582
Y01607
X0498916
Y01582
Y01557
Y01532
X0493916Y01557
Y01582
Y01607
X0507216Y01433
X0510216
X0513216
X0522316Y01448
X0525316
X0528316
X0531316
X0534316
X0545316Y01488
Y01538
Y01588
Y01638
Y01688
X0550316
X0555316
X0560316
Y01638
Y01588
Y01538
Y01488
X0565316
Y01538
Y01588
Y01638
Y01688
X0555316Y01638
Y01588
X0550316
Y01638
Y01538
X0555316
Y01488
X0550316
X0552316Y01348
Y01298
Y01248
Y01198
Y01148
X0557316
Y01198
X0562316
X0567316
Y01248
Y01298
Y01348
X0562316
X0557316
Y01298
X0562316
Y01248
X0557316
X0547316
Y01198
Y01148
X0562316
X0567316
X0547316Y01298
Y01348
X0534316Y01218
X0531316
X0528316
X0525316
X0522316
X0513416Y01255
X0510416
X0507416
X0527316Y00998
X0532316
X0537316
X0542316
X0547316
X0484316
Y02198
X0525316Y02038
Y01988
X0530316
X0535316
X0540316
X0545316
Y02038
X0540316
X0535316
X0530316
Y01938
X0535316
X0540316
X0545316
Y01888
Y01838
X0540316
X0535316
X0530316
X0525316
Y01888
X0530316
X0535316
X0540316
X0525316Y01938
X0528316Y02348
Y02398
Y02448
Y02498
Y02548
X0533316
X0538316
X0543316
X0548316
Y02498
Y02448
Y02398
X0543316
X0538316
X0533316
Y02448
X0538316
Y02498
X0543316
Y02448
X0538316Y02348
X0533316
Y02498
X0547426Y02235
X0556926Y0218
X0567916Y02214
X0571116Y02112
X0582226Y02134
X0588016Y02262
X0583316Y02366
X0614316Y02298
X0621081Y02407
Y02057
X0614316Y01998
X0621081Y01107
X0568316Y02708
Y02758
Y02808
Y02858
Y02908
X0563316
Y02858
Y02808
X0558316
X0553316
Y02858
Y02908
X0558316
Y02858
Y02758
X0553316
Y02708
X0558316
X0563316
Y02758
X0548316
Y02808
Y02858
Y02908
X0546316Y03058
Y03108
X0551316
X0556316
X0561316
Y03158
Y03208
Y03258
X0566316
Y03208
Y03158
Y03108
Y03058
X0561316
X0556316
X0551316
Y03158
Y03208
X0556316
Y03258
X0551316
X0546316
Y03208
Y03158
X0556316
X0547316Y03398
Y03448
X0542316
X0537316
Y03498
Y03548
Y03598
X0542316
X0547316
Y03548
Y03498
X0542316
Y03548
X0532316
Y03598
X0527316
Y03548
Y03498
Y03448
X0532316
Y03498
Y03398
X0537316
X0542316
X0527316
X0526316Y03018
X0529316
X0532316
X0535316
X0523316
X0513316Y02928
X0510316
X0507316
X0507416Y0275
X0510416
X0513416
X0523316Y02778
X0526316
X0529316
X0532316
X0535316
X0548316Y02708
X0480016Y02678
X0480716Y02778
Y02805
Y02835
Y02865
Y02894
X0471716Y02703
X0484316Y03798
X0526316Y03868
Y03918
X0531316
X0536316
Y03968
Y04018
Y04068
X0541316
Y04018
Y03968
Y03918
X0546316
Y03968
Y03868
X0541316
X0536316
X0531316
Y03968
Y04018
Y04068
X0526316
Y04018
Y03968
X0614316Y03898
X0621081Y03957
Y03657
X0614316Y03598
X0467916Y03537
X0465416
Y03512
Y03487
X0467916
Y03512
X0462916
Y03537
Y03487
X0457316Y03458
Y03428
Y03398
X0433916Y03407
Y03707
X0415116Y03627
X0413416Y03584
X0397081Y03607
X0393081
Y03557
X0397081
Y03507
X0393081
Y03467
X0397081
X0397916Y03357
X0397616Y03282
X0393916Y03207
Y03157
Y03107
Y03057
X0396416Y03082
Y03132
Y03182
X0387916Y03037
X0387616Y03009
X0382916Y02992
X0380416
Y02967
Y02942
X0382916
Y02967
Y02917
X0380416
X0367916Y03097
X0364416
X0360916
X0358916Y03192
X0352416Y03287
X0357916Y03362
X0354416Y03487
X0359916Y03507
X0365416
X0370416
X0359416Y03602
X0355081Y03697
Y03727
X0328081Y03627
X0314716Y0353
X0323081Y03317
X0326081
X0331316Y03262
X0331216Y03219
X0350897Y02936
X0380916Y03302
X0383416
Y03327
Y03352
Y03377
X0380916
Y03352
Y03327
X0387916Y03412
X0438716Y0309
X0433916Y030225
Y030015
X0435316Y029855
X0444916Y03
X0447816Y02994
X0447916Y02964
X0449716Y0294
X0445516Y0291
Y02868
X0431216Y02836
X0435616Y02624
X0447316Y02634
X0449716Y02702
X0458616
X0465016
X0457416Y02598
X0457316Y02978
Y03008
Y03038
Y03068
X0460316
Y03038
X0463316
X0466316
Y03068
X0463316
Y03008
X0466316
Y02978
X0463316
X0460316
Y03008
X0452716Y03108
X0459616Y03792
X0464116Y04024
X0433916Y04007
X0297616Y04015
X0294416
X0294316Y04085
X0297716
X0287416Y04055
X0281216Y04065
Y04044
X0276716Y04054
X0274616
X0272416Y03972
X0278716Y03967
X0283216Y03968
X0291116Y03956
X0296616Y03929
X0299016Y03873
X0287916Y03867
Y03837
Y03807
Y03777
X0283916
Y03807
Y03837
Y03867
X0279916
Y03837
Y03807
Y03777
X0275916
Y03807
Y03837
Y03867
X0271916
Y03837
Y03807
Y03777
X0272316Y03658
X0274916Y03666
X0278516Y03676
X0269416Y03675
X0267916Y0366
X0268616Y03589
X0266416
X0264081Y03507
Y03407
X0263081Y03177
X0268081Y03137
X0294116Y03478
X0295716Y03501
X0292516
X0306216Y0375
X0257316Y03774
X0243916Y03732
X0241416Y03707
X0236416
X0233916Y03732
X0231416Y03707
X0238916Y03732
X0238116Y03601
X0236016
X0240316
X0245716Y03615
X0219081Y03737
Y03807
X0213081Y03767
Y03687
X0207081Y03727
Y03637
X0201081Y03687
X0196081Y03637
X0189081Y03607
Y03557
Y03507
X0196081Y03527
X0201081Y03577
X0187081Y03387
Y03327
X0180081
Y03387
X0173081
X0165081
Y03257
X0173081
X0180081
X0187081
Y03167
X0180081
Y03107
Y03057
X0187081
X0173081Y03167
X0165081
X0161081Y02797
X0171081
X0181081
X0191081
Y02697
X0181081
Y02597
X0191081
X0151081
Y02697
Y02797
X0146081Y02977
X0141981
X0142081Y03017
Y03057
Y03097
Y03137
Y03177
Y03217
Y03257
Y03297
Y03337
Y03377
X0146081
Y03337
Y03297
Y03257
Y03217
Y03177
Y03137
Y03097
Y03057
Y03018
X0156081Y03057
Y03167
Y03257
Y03387
X0093081Y03407
Y03307
X0087081Y03357
Y03257
X0081081Y03307
Y03407
X0075081Y03357
Y03257
X0069081Y03307
Y03407
Y03507
Y03607
Y03707
Y03807
Y03907
X0063081Y03857
Y03757
Y03657
Y03557
Y03457
Y03357
Y03257
X0057081Y03307
Y03407
Y03507
Y03607
Y03707
Y03807
Y03907
X0051081Y03857
Y03757
Y03657
Y03557
Y03457
Y03357
Y03257
X0045081Y03307
Y03407
Y03507
Y03607
Y03707
Y03807
Y03907
Y04007
Y04107
X0051081Y04057
Y03957
X0075081Y03857
Y03757
Y03657
X0081081Y03707
Y03807
Y03907
X0087081Y03857
Y03757
Y03657
X0093081Y03607
Y03507
Y03707
Y03807
Y03907
X0099081Y03857
Y03757
Y03657
X0105081Y03707
Y03807
Y03907
Y04007
Y04107
X0099081Y04057
Y03957
X0111081
Y04057
X0117081Y04107
X0123081Y04067
X0131081Y03967
X0109081Y03597
X0111081Y04157
X0105081Y04207
Y04287
Y04387
Y04487
Y04587
X0099081Y04637
Y04537
Y04437
Y04337
X0093081Y04287
Y04207
X0099081Y04157
X0081081Y04207
Y04287
X0087081Y04337
X0074081
X0069081Y04287
Y04207
X0057081
Y04287
X0051081Y04337
Y04437
Y04537
Y04637
X0045081Y04587
Y04487
Y04387
Y04287
Y04207
X0051081Y04157
X0063081Y04337
Y04637
X0057081Y04587
X0069081
X0075081Y04637
X0081081Y04587
X0087081Y04637
X0093081Y04587
X0111081Y04537
Y04437
Y04337
X0117081Y04287
Y04207
X0123081Y04157
X0129081Y04207
Y04287
Y04387
Y04487
X0123081Y04437
Y04337
X0117081Y04387
Y04487
Y04587
X0111081Y04637
X0123081
Y04537
X0136081
X0135081Y04437
Y04337
X0146081Y05407
X0050081Y05087
X0174081Y046733
X0177081
X0205081Y04707
X0241081
Y04607
Y04507
Y04407
X0246081Y04557
X0251081Y04517
X0256081Y04557
X0266081
X0261081Y04607
X0251081
X0261081Y04507
Y04407
X0266081Y04457
X0268116Y04132
X0271316Y04133
X0274916Y04134
X0278216
X0310716Y04128
X0311081Y04997
Y05087
Y05147
Y05217
X0301081
Y05147
Y05087
Y04997
X0291081
Y05087
Y05147
Y05217
Y05307
X0281081
Y05217
Y05147
Y05087
Y04997
X0271081
Y05087
Y05147
Y05217
Y05307
X0261081
Y05217
Y05147
Y05087
Y04997
X0243081
Y05087
Y05147
Y05217
Y05307
X0252081Y05197
Y05147
Y05107
X0231081Y05407
X0213916Y05282
X0191081Y05407
X0276081
X0301081Y05307
X0222081Y04387
X0218081Y04417
X0328816Y0454
X0331616
X0334216
X0337016
X0354081Y04787
X0388916Y04747
X0393916
X0398916
X0403916
Y04787
Y04827
Y04867
Y04907
Y04947
X0408916
Y04907
Y04867
Y04827
Y04787
Y04747
X0413916
Y04787
Y04827
X0420916Y04787
X0425916Y04827
Y04867
Y04907
Y04947
X0430916
Y04907
Y04867
Y04827
X0452616Y04811
X0454616Y04844
X0466416Y04937
Y04987
X0463316Y05038
X0460316
X0457316
X0453916Y05157
Y05207
Y05257
X0461416
Y05207
Y05157
X0446416
Y05207
Y05257
X0431416
Y05207
Y05157
X0423916
Y05257
X0413916
X0406416
Y05207
Y05157
Y05107
X0413081Y05147
X0415216Y05047
X0425716
X0413916Y04947
X0443716Y046785
X0440716Y04616
X0439116Y045
X0433916Y045055
X0435316Y045265
X0446116Y04536
Y0447
X0449116Y04472
X0457316Y04478
Y04508
Y04538
Y04568
X0460316
X0463316
X0466316
Y04538
Y04508
Y04478
X0463316
X0460316
Y04508
Y04538
X0463316
Y04508
X0451516Y04404
X0455316Y04284
X0458616Y04208
X0464516Y04209
X0433616Y04196
X0426081Y05407
X0376081
X0322081
X0318081Y05307
Y05147
Y05087
Y04997
X0315316Y04788
X0468916Y04937
X0471416
Y04962
Y04987
X0468916
Y04962
Y05157
Y05207
Y05257
X0476416
Y05207
Y05157
X0483916
Y05207
Y05257
X0491416
Y05207
Y05157
Y05107
X0498916
Y05157
Y05207
Y05257
X0506416
Y05207
Y05157
Y05107
X0511416Y05032
X0506416Y04957
X0527316Y04938
X0532316
X0537316
Y04988
Y05038
Y05088
Y05138
X0542316
X0547316
Y05088
Y05038
X0542316
Y05088
Y04988
X0547316
Y04938
X0542316
X0532316Y04988
Y05038
X0527316
Y05088
X0532316
Y05138
X0527316
X0523916Y05207
X0520016Y0528
X0506081Y05407
X0471081
X0541081
X0543916Y05207
X0563916
X0583916
X0581081Y05407
X0594316Y04998
X0614316
X0566316Y04798
X0561316
Y04748
Y04698
Y04648
Y04598
X0566316
Y04648
Y04698
Y04748
X0556316
Y04798
X0551316
X0546316
Y04748
X0551316
Y04698
Y04648
X0556316
Y04698
Y04598
X0551316
X0546316
Y04648
Y04698
X0535316Y04548
X0532316
X0529316
X0526316
X0523316
X0513416Y04457
X0510816
X0508116
X0508316Y04278
X0511016
X0513616
X0523316Y04298
X0526316
X0529316
X0532316
X0535316
X0547316Y04278
X0552316
Y04328
X0557294
X0562316
X0567316
Y04378
Y04428
X0562316
Y04378
X0557316
X0552316
Y04428
X0557316
X0547316
Y04378
Y04328
Y04228
X0552316
X0557316
X0562316
X0567316
Y04278
X0562316
X0557316
X0481606Y04323
Y04352
Y04381
X0481706Y0441
X0480116Y04189
X0471716Y04211
X0487816Y04874
X0527316Y04988
T03
X0261516Y01203
Y01253
Y01303
Y01353
Y01403
X0266516
Y01353
Y01303
Y01253
Y01203
T04
X0379016Y00361
X0398701
T05
X0588081Y00597
X0115081Y00317
X0581081Y03777
X0321081Y02737
T06
X0375079Y002547
X0402638
T07
X0502426Y00473
Y00573
X0502126Y00882
X0482126
X0587816Y00435
Y00335
X0416816Y00498
Y00598
Y00698
Y00798
Y00898
X0444716Y00937
X0343016Y0034
X0333016
X0323016
X0313016
X0303016
X0293016
X0283016
X0273016
X0239216Y0032032
X0229216
X0219216
X0209216
X0187316
X0177316
X0167316
X0157316
X0167081Y01517
Y01617
Y01717
Y01817
X0226081Y01597
Y01497
Y01397
Y01297
Y01197
X0305294Y0235267
X0315294
X0325294
X0335294
X0345294
X0355294
X0365294
X0375294
X0410216Y02112
X0420216
X0430216
X0417916Y01899
Y01799
Y01699
Y01599
Y01499
Y01399
X0416816Y01198
Y01098
Y00998
X0444716Y01037
X0482126Y01978
X0502126
Y02435
X0482126
Y03492
X0502126
Y03968
X0482126
X0390112Y0396669
X0380113
X0356481Y0396865
X0346481
X0179081Y04247
Y04447
X0482126Y05042
X0502126
T08
X0260081Y0196015
Y0235385
X0311317Y0438078
X0306396Y0526464
X0345766Y0536306
X0340845Y0438078
X0326081
T09
X0056081Y0206381
X0076081
Y0228153
X0056081
X0165081Y0250952
X0197518Y0254795
X021929
X0590916Y01523
X0610916
Y01323
X0590916
Y03015
X0610916
Y03215
X0590916
X021929Y0274795
X0197518
X0165081Y0273393
Y0310007
Y0332448
X0076081Y0308586
X0056081
Y0286814
X0076081
X0100195Y05077
Y05277
X0121967
Y05077
X0178916Y0522
X0198916
X0252081Y0526448
Y0504007
Y0467393
Y0444952
X0418116Y0489
X0438116
Y052
X0418116
X0590916Y04608
X0610916
Y04408
X0590916
T10
X0066081Y0207267
Y0227267
X0600916Y01523
Y01323
Y03015
Y03215
X0218404Y0264794
X0198404
X0066081Y02877
Y03077
X0101081Y05177
X0121081
X0600916Y04608
Y04408
T11
X0608711Y00377
X0058081
X033242Y0351409
X0058081Y0529334
X0608711
T12
X0154081Y05247
M30
