G75*
%MOIN*%
%OFA0B0*%
%FSLAX25Y25*%
%IPPOS*%
%LPD*%
%AMOC8*
5,1,8,0,0,1.08239X$1,22.5*
%
%ADD10C,0.00800*%
%ADD11C,0.00600*%
%ADD12C,0.00400*%
%ADD13C,0.00500*%
%ADD14C,0.00300*%
%ADD15C,0.02200*%
D10*
X0115565Y0020948D02*
X0117700Y0020948D01*
X0116632Y0020948D02*
X0116632Y0024151D01*
X0117700Y0023083D01*
X0168165Y0021848D02*
X0170300Y0021848D01*
X0169232Y0021848D02*
X0169232Y0025051D01*
X0170300Y0023983D01*
X0202065Y0020748D02*
X0204200Y0020748D01*
X0203132Y0020748D02*
X0203132Y0023951D01*
X0204200Y0022883D01*
X0338165Y0114848D02*
X0340300Y0114848D01*
X0339232Y0114848D02*
X0339232Y0118051D01*
X0340300Y0116983D01*
X0392532Y0024751D02*
X0392532Y0021548D01*
X0391465Y0021548D02*
X0393600Y0021548D01*
X0393600Y0023683D02*
X0392532Y0024751D01*
X0439365Y0052748D02*
X0441500Y0052748D01*
X0440432Y0052748D02*
X0440432Y0055951D01*
X0441500Y0054883D01*
X0305700Y0221648D02*
X0303565Y0221648D01*
X0304632Y0221648D02*
X0304632Y0224851D01*
X0305700Y0223783D01*
X0336165Y0229748D02*
X0338300Y0229748D01*
X0337232Y0229748D02*
X0337232Y0232951D01*
X0338300Y0231883D01*
X0262683Y0414648D02*
X0260548Y0414648D01*
X0261616Y0414648D02*
X0261616Y0417851D01*
X0262683Y0416783D01*
X0107069Y0449187D02*
X0107069Y0454109D01*
X0103643Y0454109D02*
X0096557Y0454109D01*
X0096557Y0449187D02*
X0103643Y0449187D01*
X0063861Y0136260D02*
X0058350Y0136260D01*
X0063861Y0136260D02*
X0063861Y0125236D01*
X0057956Y0125236D01*
X0052444Y0125236D02*
X0046539Y0125236D01*
X0046539Y0136260D01*
X0052050Y0136260D01*
D11*
X0077838Y0127229D02*
X0077838Y0124867D01*
X0082562Y0124867D02*
X0082562Y0127229D01*
X0092219Y0118010D02*
X0094581Y0118010D01*
X0094581Y0113286D02*
X0092219Y0113286D01*
X0111019Y0119486D02*
X0113381Y0119486D01*
X0113381Y0124210D02*
X0111019Y0124210D01*
X0111435Y0127795D02*
X0115765Y0127795D01*
X0115765Y0133701D02*
X0111435Y0133701D01*
X0120619Y0137986D02*
X0122981Y0137986D01*
X0122981Y0142710D02*
X0120619Y0142710D01*
X0120619Y0144986D02*
X0122981Y0144986D01*
X0122981Y0149710D02*
X0120619Y0149710D01*
X0120619Y0151986D02*
X0122981Y0151986D01*
X0122981Y0156710D02*
X0120619Y0156710D01*
X0120619Y0158986D02*
X0122981Y0158986D01*
X0122981Y0163710D02*
X0120619Y0163710D01*
X0120619Y0165986D02*
X0122981Y0165986D01*
X0122981Y0170710D02*
X0120619Y0170710D01*
X0113062Y0167329D02*
X0113062Y0164967D01*
X0108338Y0164967D02*
X0108338Y0167329D01*
X0085762Y0164029D02*
X0085762Y0161667D01*
X0081038Y0161667D02*
X0081038Y0164029D01*
X0079162Y0164029D02*
X0079162Y0161667D01*
X0074438Y0161667D02*
X0074438Y0164029D01*
X0072662Y0164029D02*
X0072662Y0161667D01*
X0067938Y0161667D02*
X0067938Y0164029D01*
X0068519Y0185486D02*
X0070881Y0185486D01*
X0070881Y0190210D02*
X0068519Y0190210D01*
X0057581Y0189310D02*
X0055219Y0189310D01*
X0055219Y0184586D02*
X0057581Y0184586D01*
X0052962Y0194867D02*
X0052962Y0197229D01*
X0048238Y0197229D02*
X0048238Y0194867D01*
X0081519Y0190210D02*
X0083881Y0190210D01*
X0083881Y0185486D02*
X0081519Y0185486D01*
X0087419Y0202186D02*
X0089781Y0202186D01*
X0089781Y0206910D02*
X0087419Y0206910D01*
X0103919Y0213086D02*
X0106281Y0213086D01*
X0106281Y0217810D02*
X0103919Y0217810D01*
X0116319Y0217810D02*
X0118681Y0217810D01*
X0118581Y0220686D02*
X0116219Y0220686D01*
X0116219Y0225410D02*
X0118581Y0225410D01*
X0123619Y0227486D02*
X0125981Y0227486D01*
X0129497Y0225327D02*
X0135107Y0225327D01*
X0138719Y0227786D02*
X0141081Y0227786D01*
X0141081Y0232510D02*
X0138719Y0232510D01*
X0142138Y0220629D02*
X0142138Y0218267D01*
X0146862Y0218267D02*
X0146862Y0220629D01*
X0149138Y0220629D02*
X0149138Y0218267D01*
X0153862Y0218267D02*
X0153862Y0220629D01*
X0135107Y0213169D02*
X0129497Y0213169D01*
X0132719Y0210510D02*
X0135081Y0210510D01*
X0135081Y0205786D02*
X0132719Y0205786D01*
X0118681Y0205786D02*
X0116319Y0205786D01*
X0116319Y0203510D02*
X0118681Y0203510D01*
X0118681Y0198786D02*
X0116319Y0198786D01*
X0116319Y0210510D02*
X0118681Y0210510D01*
X0118681Y0213086D02*
X0116319Y0213086D01*
X0123619Y0232210D02*
X0125981Y0232210D01*
X0189419Y0158110D02*
X0191781Y0158110D01*
X0191781Y0153386D02*
X0189419Y0153386D01*
X0184162Y0144529D02*
X0184162Y0142167D01*
X0179438Y0142167D02*
X0179438Y0144529D01*
X0202019Y0146210D02*
X0204381Y0146210D01*
X0204381Y0141486D02*
X0202019Y0141486D01*
X0202138Y0126329D02*
X0202138Y0123967D01*
X0206862Y0123967D02*
X0206862Y0126329D01*
X0209738Y0126329D02*
X0209738Y0123967D01*
X0214462Y0123967D02*
X0214462Y0126329D01*
X0215062Y0074229D02*
X0215062Y0071867D01*
X0217838Y0071867D02*
X0217838Y0074229D01*
X0222562Y0074229D02*
X0222562Y0071867D01*
X0225338Y0071867D02*
X0225338Y0074229D01*
X0230062Y0074229D02*
X0230062Y0071867D01*
X0232838Y0071867D02*
X0232838Y0074229D01*
X0237562Y0074229D02*
X0237562Y0071867D01*
X0240338Y0071867D02*
X0240338Y0074229D01*
X0245062Y0074229D02*
X0245062Y0071867D01*
X0247838Y0071867D02*
X0247838Y0074229D01*
X0252562Y0074229D02*
X0252562Y0071867D01*
X0255338Y0071867D02*
X0255338Y0074229D01*
X0260062Y0074229D02*
X0260062Y0071867D01*
X0262838Y0071867D02*
X0262838Y0074229D01*
X0267562Y0074229D02*
X0267562Y0071867D01*
X0270338Y0071867D02*
X0270338Y0074229D01*
X0275062Y0074229D02*
X0275062Y0071867D01*
X0277838Y0071867D02*
X0277838Y0074229D01*
X0282562Y0074229D02*
X0282562Y0071867D01*
X0285338Y0071867D02*
X0285338Y0074229D01*
X0290062Y0074229D02*
X0290062Y0071867D01*
X0292838Y0071867D02*
X0292838Y0074229D01*
X0297562Y0074229D02*
X0297562Y0071867D01*
X0295800Y0058648D02*
X0295800Y0055448D01*
X0293600Y0055448D01*
X0286800Y0055448D02*
X0284600Y0055448D01*
X0284600Y0058648D01*
X0280800Y0058648D02*
X0280800Y0055448D01*
X0278600Y0055448D01*
X0271800Y0055448D02*
X0269600Y0055448D01*
X0269600Y0058648D01*
X0265800Y0058648D02*
X0265800Y0055448D01*
X0263600Y0055448D01*
X0256800Y0055448D02*
X0254600Y0055448D01*
X0254600Y0058648D01*
X0250800Y0058648D02*
X0250800Y0055448D01*
X0248600Y0055448D01*
X0241800Y0055448D02*
X0239600Y0055448D01*
X0239600Y0058648D01*
X0235800Y0058648D02*
X0235800Y0055448D01*
X0233600Y0055448D01*
X0226800Y0055448D02*
X0224600Y0055448D01*
X0224600Y0058648D01*
X0220800Y0058648D02*
X0220800Y0055448D01*
X0218600Y0055448D01*
X0211800Y0055448D02*
X0209600Y0055448D01*
X0209600Y0058648D01*
X0205800Y0058648D02*
X0205800Y0055448D01*
X0203600Y0055448D01*
X0196800Y0055448D02*
X0194600Y0055448D01*
X0194600Y0058648D01*
X0190800Y0058648D02*
X0190800Y0055448D01*
X0188600Y0055448D01*
X0181800Y0055448D02*
X0179600Y0055448D01*
X0179600Y0058648D01*
X0167262Y0054629D02*
X0167262Y0052267D01*
X0162538Y0052267D02*
X0162538Y0054629D01*
X0159500Y0053248D02*
X0159500Y0050048D01*
X0157300Y0050048D01*
X0150500Y0050048D02*
X0148300Y0050048D01*
X0148300Y0053248D01*
X0145262Y0052267D02*
X0145262Y0054629D01*
X0140538Y0054629D02*
X0140538Y0052267D01*
X0130162Y0035229D02*
X0130162Y0032867D01*
X0125438Y0032867D02*
X0125438Y0035229D01*
X0115362Y0052267D02*
X0115362Y0054629D01*
X0110638Y0054629D02*
X0110638Y0052267D01*
X0107600Y0053248D02*
X0107600Y0050048D01*
X0105400Y0050048D01*
X0098600Y0050048D02*
X0096400Y0050048D01*
X0096400Y0053248D01*
X0093362Y0052267D02*
X0093362Y0054629D01*
X0088638Y0054629D02*
X0088638Y0052267D01*
X0085481Y0088586D02*
X0083119Y0088586D01*
X0083119Y0093310D02*
X0085481Y0093310D01*
X0123038Y0125967D02*
X0123038Y0128329D01*
X0127762Y0128329D02*
X0127762Y0125967D01*
X0180338Y0074229D02*
X0180338Y0071867D01*
X0185062Y0071867D02*
X0185062Y0074229D01*
X0187838Y0074229D02*
X0187838Y0071867D01*
X0192562Y0071867D02*
X0192562Y0074229D01*
X0195338Y0074229D02*
X0195338Y0071867D01*
X0200062Y0071867D02*
X0200062Y0074229D01*
X0202838Y0074229D02*
X0202838Y0071867D01*
X0207562Y0071867D02*
X0207562Y0074229D01*
X0210338Y0074229D02*
X0210338Y0071867D01*
X0210562Y0044229D02*
X0210562Y0041867D01*
X0212838Y0041867D02*
X0212838Y0044229D01*
X0217562Y0044229D02*
X0217562Y0041867D01*
X0220838Y0041867D02*
X0220838Y0044229D01*
X0225562Y0044229D02*
X0225562Y0041867D01*
X0227838Y0041867D02*
X0227838Y0044229D01*
X0232562Y0044229D02*
X0232562Y0041867D01*
X0235838Y0041867D02*
X0235838Y0044229D01*
X0240562Y0044229D02*
X0240562Y0041867D01*
X0242838Y0041867D02*
X0242838Y0044229D01*
X0247562Y0044229D02*
X0247562Y0041867D01*
X0250838Y0041867D02*
X0250838Y0044229D01*
X0255562Y0044229D02*
X0255562Y0041867D01*
X0257838Y0041867D02*
X0257838Y0044229D01*
X0262562Y0044229D02*
X0262562Y0041867D01*
X0265838Y0041867D02*
X0265838Y0044229D01*
X0270562Y0044229D02*
X0270562Y0041867D01*
X0272838Y0041867D02*
X0272838Y0044229D01*
X0277562Y0044229D02*
X0277562Y0041867D01*
X0280838Y0041867D02*
X0280838Y0044229D01*
X0285562Y0044229D02*
X0285562Y0041867D01*
X0287838Y0041867D02*
X0287838Y0044229D01*
X0292562Y0044229D02*
X0292562Y0041867D01*
X0277700Y0033048D02*
X0277700Y0028048D01*
X0275200Y0025548D01*
X0270200Y0025548D01*
X0267700Y0028048D01*
X0267700Y0033048D01*
X0270200Y0035548D01*
X0275200Y0035548D01*
X0277700Y0033048D01*
X0267700Y0033048D02*
X0265200Y0035548D01*
X0260200Y0035548D01*
X0257700Y0033048D01*
X0255200Y0035548D01*
X0250200Y0035548D01*
X0247700Y0033048D01*
X0245200Y0035548D01*
X0240200Y0035548D01*
X0237700Y0033048D01*
X0235200Y0035548D01*
X0230200Y0035548D01*
X0227700Y0033048D01*
X0225200Y0035548D01*
X0220200Y0035548D01*
X0217700Y0033048D01*
X0215200Y0035548D01*
X0210200Y0035548D01*
X0207700Y0033048D01*
X0205200Y0035548D01*
X0200200Y0035548D01*
X0197700Y0033048D01*
X0197700Y0028048D01*
X0200200Y0025548D01*
X0205200Y0025548D01*
X0207700Y0028048D01*
X0210200Y0025548D01*
X0215200Y0025548D01*
X0217700Y0028048D01*
X0217700Y0033048D01*
X0217700Y0028048D02*
X0220200Y0025548D01*
X0225200Y0025548D01*
X0227700Y0028048D01*
X0230200Y0025548D01*
X0235200Y0025548D01*
X0237700Y0028048D01*
X0240200Y0025548D01*
X0245200Y0025548D01*
X0247700Y0028048D01*
X0247700Y0033048D01*
X0247700Y0028048D02*
X0250200Y0025548D01*
X0255200Y0025548D01*
X0257700Y0028048D01*
X0260200Y0025548D01*
X0265200Y0025548D01*
X0267700Y0028048D01*
X0257700Y0028048D02*
X0257700Y0033048D01*
X0237700Y0033048D02*
X0237700Y0028048D01*
X0227700Y0028048D02*
X0227700Y0033048D01*
X0207700Y0033048D02*
X0207700Y0028048D01*
X0205838Y0041867D02*
X0205838Y0044229D01*
X0202562Y0044229D02*
X0202562Y0041867D01*
X0197838Y0041867D02*
X0197838Y0044229D01*
X0195562Y0044229D02*
X0195562Y0041867D01*
X0190838Y0041867D02*
X0190838Y0044229D01*
X0187562Y0044229D02*
X0187562Y0041867D01*
X0182838Y0041867D02*
X0182838Y0044229D01*
X0180562Y0044229D02*
X0180562Y0041867D01*
X0175838Y0041867D02*
X0175838Y0044229D01*
X0176538Y0028229D02*
X0176538Y0025867D01*
X0181262Y0025867D02*
X0181262Y0028229D01*
X0318719Y0136086D02*
X0321081Y0136086D01*
X0321081Y0140810D02*
X0318719Y0140810D01*
X0318719Y0151086D02*
X0321081Y0151086D01*
X0321081Y0155810D02*
X0318719Y0155810D01*
X0318719Y0166086D02*
X0321081Y0166086D01*
X0321081Y0170810D02*
X0318719Y0170810D01*
X0318419Y0181086D02*
X0320781Y0181086D01*
X0320781Y0185810D02*
X0318419Y0185810D01*
X0334000Y0189048D02*
X0337200Y0189048D01*
X0337200Y0186848D01*
X0337200Y0180048D02*
X0337200Y0177848D01*
X0334000Y0177848D01*
X0334000Y0174048D02*
X0337200Y0174048D01*
X0337200Y0171848D01*
X0337200Y0165048D02*
X0337200Y0162848D01*
X0334000Y0162848D01*
X0334000Y0159048D02*
X0337200Y0159048D01*
X0337200Y0156848D01*
X0337200Y0150048D02*
X0337200Y0147848D01*
X0334000Y0147848D01*
X0334000Y0144048D02*
X0337200Y0144048D01*
X0337200Y0141848D01*
X0337200Y0135048D02*
X0337200Y0132848D01*
X0334000Y0132848D01*
X0357419Y0144086D02*
X0359781Y0144086D01*
X0359781Y0148810D02*
X0357419Y0148810D01*
X0357419Y0154086D02*
X0359781Y0154086D01*
X0359781Y0158810D02*
X0357419Y0158810D01*
X0357419Y0164086D02*
X0359781Y0164086D01*
X0359781Y0168810D02*
X0357419Y0168810D01*
X0357419Y0174086D02*
X0359781Y0174086D01*
X0359781Y0178810D02*
X0357419Y0178810D01*
X0357529Y0118610D02*
X0359891Y0118610D01*
X0359891Y0113886D02*
X0357529Y0113886D01*
X0357529Y0110910D02*
X0359891Y0110910D01*
X0359891Y0106186D02*
X0357529Y0106186D01*
X0357629Y0103510D02*
X0359991Y0103510D01*
X0359991Y0098786D02*
X0357629Y0098786D01*
X0357529Y0095610D02*
X0359891Y0095610D01*
X0359891Y0090886D02*
X0357529Y0090886D01*
X0390610Y0070948D02*
X0402810Y0070948D01*
X0398291Y0073986D02*
X0395929Y0073986D01*
X0395929Y0078710D02*
X0398291Y0078710D01*
X0412048Y0058629D02*
X0412048Y0056267D01*
X0416772Y0056267D02*
X0416772Y0058629D01*
X0402810Y0051748D02*
X0390610Y0051748D01*
X0390329Y0047910D02*
X0392691Y0047910D01*
X0392691Y0043186D02*
X0390329Y0043186D01*
X0402729Y0043186D02*
X0405091Y0043186D01*
X0405091Y0047910D02*
X0402729Y0047910D01*
X0383562Y0029329D02*
X0383562Y0026967D01*
X0378838Y0026967D02*
X0378838Y0029329D01*
X0375962Y0029429D02*
X0375962Y0027067D01*
X0371238Y0027067D02*
X0371238Y0029429D01*
X0420619Y0092486D02*
X0422981Y0092486D01*
X0422981Y0097210D02*
X0420619Y0097210D01*
X0420619Y0180586D02*
X0422981Y0180586D01*
X0422981Y0185310D02*
X0420619Y0185310D01*
X0420619Y0224486D02*
X0422981Y0224486D01*
X0422981Y0229210D02*
X0420619Y0229210D01*
X0474548Y0228429D02*
X0474548Y0226067D01*
X0479272Y0226067D02*
X0479272Y0228429D01*
X0481248Y0228229D02*
X0481248Y0225867D01*
X0485972Y0225867D02*
X0485972Y0228229D01*
X0499629Y0210410D02*
X0501991Y0210410D01*
X0501991Y0205686D02*
X0499629Y0205686D01*
X0523619Y0220596D02*
X0525981Y0220596D01*
X0525981Y0225320D02*
X0523619Y0225320D01*
X0523719Y0227296D02*
X0526081Y0227296D01*
X0526081Y0232020D02*
X0523719Y0232020D01*
X0422981Y0332286D02*
X0420619Y0332286D01*
X0420619Y0337010D02*
X0422981Y0337010D01*
X0422881Y0381286D02*
X0420519Y0381286D01*
X0420519Y0386010D02*
X0422881Y0386010D01*
X0333881Y0453164D02*
X0331519Y0453164D01*
X0331519Y0457888D02*
X0333881Y0457888D01*
X0333881Y0460664D02*
X0331519Y0460664D01*
X0331519Y0465388D02*
X0333881Y0465388D01*
X0293881Y0465388D02*
X0291519Y0465388D01*
X0291519Y0460664D02*
X0293881Y0460664D01*
X0293881Y0457888D02*
X0291519Y0457888D01*
X0291519Y0453164D02*
X0293881Y0453164D01*
X0216762Y0503667D02*
X0216762Y0506029D01*
X0212038Y0506029D02*
X0212038Y0503667D01*
X0130781Y0415010D02*
X0128419Y0415010D01*
X0128419Y0410286D02*
X0130781Y0410286D01*
X0117881Y0410286D02*
X0115519Y0410286D01*
X0115519Y0415010D02*
X0117881Y0415010D01*
X0100281Y0455986D02*
X0097919Y0455986D01*
X0097919Y0460710D02*
X0100281Y0460710D01*
X0087362Y0482467D02*
X0087362Y0484829D01*
X0082638Y0484829D02*
X0082638Y0482467D01*
X0287638Y0248029D02*
X0287638Y0245667D01*
X0292362Y0245667D02*
X0292362Y0248029D01*
X0294838Y0248129D02*
X0294838Y0245767D01*
X0299562Y0245767D02*
X0299562Y0248129D01*
X0301838Y0248129D02*
X0301838Y0245767D01*
X0306562Y0245767D02*
X0306562Y0248129D01*
X0308938Y0248129D02*
X0308938Y0245767D01*
X0313662Y0245767D02*
X0313662Y0248129D01*
X0420119Y0489786D02*
X0422481Y0489786D01*
X0422481Y0494510D02*
X0420119Y0494510D01*
D12*
X0092152Y0037648D02*
X0089750Y0037648D01*
X0090551Y0037648D02*
X0090551Y0038849D01*
X0090951Y0039249D01*
X0091752Y0039249D01*
X0092152Y0038849D01*
X0092152Y0037648D01*
X0090551Y0038449D02*
X0089750Y0039249D01*
X0089750Y0040226D02*
X0089750Y0041828D01*
X0089750Y0041027D02*
X0092152Y0041027D01*
X0091351Y0040226D01*
X0090951Y0042804D02*
X0090951Y0044005D01*
X0090551Y0044406D01*
X0090150Y0044406D01*
X0089750Y0044005D01*
X0089750Y0043205D01*
X0090150Y0042804D01*
X0090951Y0042804D01*
X0091752Y0043605D01*
X0092152Y0044406D01*
X0091351Y0045383D02*
X0092152Y0046183D01*
X0089750Y0046183D01*
X0089750Y0045383D02*
X0089750Y0046984D01*
X0100020Y0043350D02*
X0100020Y0042950D01*
X0101622Y0041348D01*
X0101622Y0040948D01*
X0102599Y0041348D02*
X0102599Y0042950D01*
X0102999Y0043350D01*
X0104200Y0043350D01*
X0104200Y0040948D01*
X0102999Y0040948D01*
X0102599Y0041348D01*
X0101622Y0043350D02*
X0100020Y0043350D01*
X0112150Y0043305D02*
X0112150Y0044105D01*
X0112550Y0044506D01*
X0112951Y0044506D01*
X0113351Y0044105D01*
X0113351Y0042904D01*
X0112550Y0042904D01*
X0112150Y0043305D01*
X0113351Y0042904D02*
X0114152Y0043705D01*
X0114552Y0044506D01*
X0114152Y0045483D02*
X0114552Y0045883D01*
X0114552Y0046684D01*
X0114152Y0047084D01*
X0113751Y0047084D01*
X0112150Y0045483D01*
X0112150Y0047084D01*
X0112150Y0041928D02*
X0112150Y0040326D01*
X0112150Y0041127D02*
X0114552Y0041127D01*
X0113751Y0040326D01*
X0113351Y0039349D02*
X0112951Y0038949D01*
X0112951Y0037748D01*
X0112951Y0038549D02*
X0112150Y0039349D01*
X0113351Y0039349D02*
X0114152Y0039349D01*
X0114552Y0038949D01*
X0114552Y0037748D01*
X0112150Y0037748D01*
X0126150Y0041314D02*
X0126150Y0042114D01*
X0126550Y0042515D01*
X0126550Y0043492D02*
X0126150Y0043892D01*
X0126150Y0044693D01*
X0126550Y0045093D01*
X0126951Y0045093D01*
X0127351Y0044693D01*
X0127351Y0043492D01*
X0126550Y0043492D01*
X0127351Y0043492D02*
X0128152Y0044292D01*
X0128552Y0045093D01*
X0127751Y0046070D02*
X0128552Y0046870D01*
X0126150Y0046870D01*
X0126150Y0046070D02*
X0126150Y0047671D01*
X0128152Y0042515D02*
X0128552Y0042114D01*
X0128552Y0041314D01*
X0128152Y0040913D01*
X0126550Y0040913D01*
X0126150Y0041314D01*
X0141350Y0041515D02*
X0141350Y0039913D01*
X0141350Y0040714D02*
X0143752Y0040714D01*
X0142951Y0039913D01*
X0142551Y0038937D02*
X0142151Y0038536D01*
X0142151Y0037335D01*
X0142151Y0038136D02*
X0141350Y0038937D01*
X0142551Y0038937D02*
X0143352Y0038937D01*
X0143752Y0038536D01*
X0143752Y0037335D01*
X0141350Y0037335D01*
X0141750Y0042492D02*
X0141350Y0042892D01*
X0141350Y0043693D01*
X0141750Y0044093D01*
X0142551Y0044093D01*
X0142951Y0043693D01*
X0142951Y0043292D01*
X0142551Y0042492D01*
X0143752Y0042492D01*
X0143752Y0044093D01*
X0143352Y0045070D02*
X0142951Y0045070D01*
X0142551Y0045470D01*
X0142551Y0046271D01*
X0142151Y0046671D01*
X0141750Y0046671D01*
X0141350Y0046271D01*
X0141350Y0045470D01*
X0141750Y0045070D01*
X0142151Y0045070D01*
X0142551Y0045470D01*
X0142551Y0046271D02*
X0142951Y0046671D01*
X0143352Y0046671D01*
X0143752Y0046271D01*
X0143752Y0045470D01*
X0143352Y0045070D01*
X0151620Y0043150D02*
X0151620Y0042749D01*
X0152021Y0042349D01*
X0152821Y0042349D01*
X0153222Y0042749D01*
X0153222Y0043150D01*
X0152821Y0043550D01*
X0152021Y0043550D01*
X0151620Y0043150D01*
X0152021Y0042349D02*
X0151620Y0041949D01*
X0151620Y0041548D01*
X0152021Y0041148D01*
X0152821Y0041148D01*
X0153222Y0041548D01*
X0153222Y0041949D01*
X0152821Y0042349D01*
X0154199Y0041548D02*
X0154199Y0043150D01*
X0154599Y0043550D01*
X0155800Y0043550D01*
X0155800Y0041148D01*
X0154599Y0041148D01*
X0154199Y0041548D01*
X0163750Y0041228D02*
X0163750Y0039626D01*
X0163750Y0040427D02*
X0166152Y0040427D01*
X0165351Y0039626D01*
X0164951Y0038649D02*
X0164551Y0038249D01*
X0164551Y0037048D01*
X0164551Y0037849D02*
X0163750Y0038649D01*
X0164951Y0038649D02*
X0165752Y0038649D01*
X0166152Y0038249D01*
X0166152Y0037048D01*
X0163750Y0037048D01*
X0164150Y0042204D02*
X0163750Y0042605D01*
X0163750Y0043405D01*
X0164150Y0043806D01*
X0164951Y0043806D01*
X0165351Y0043405D01*
X0165351Y0043005D01*
X0164951Y0042204D01*
X0166152Y0042204D01*
X0166152Y0043806D01*
X0166152Y0044783D02*
X0166152Y0046384D01*
X0165752Y0046384D01*
X0164150Y0044783D01*
X0163750Y0044783D01*
X0163300Y0060913D02*
X0163300Y0062114D01*
X0163700Y0062515D01*
X0165302Y0062515D01*
X0165702Y0062114D01*
X0165702Y0060913D01*
X0163300Y0060913D01*
X0163300Y0063492D02*
X0163300Y0065093D01*
X0163300Y0064292D02*
X0165702Y0064292D01*
X0164901Y0063492D01*
X0166700Y0063492D02*
X0166700Y0065093D01*
X0166700Y0064292D02*
X0169102Y0064292D01*
X0168301Y0063492D01*
X0168702Y0062515D02*
X0169102Y0062114D01*
X0169102Y0060913D01*
X0166700Y0060913D01*
X0166700Y0062114D01*
X0167100Y0062515D01*
X0168702Y0062515D01*
X0170100Y0062114D02*
X0170500Y0062515D01*
X0172102Y0062515D01*
X0172502Y0062114D01*
X0172502Y0060913D01*
X0170100Y0060913D01*
X0170100Y0062114D01*
X0170100Y0063492D02*
X0170100Y0065093D01*
X0170100Y0064292D02*
X0172502Y0064292D01*
X0171701Y0063492D01*
X0173500Y0063492D02*
X0173500Y0065093D01*
X0173500Y0064292D02*
X0175902Y0064292D01*
X0175101Y0063492D01*
X0175502Y0062515D02*
X0175902Y0062114D01*
X0175902Y0060913D01*
X0173500Y0060913D01*
X0173500Y0062114D01*
X0173900Y0062515D01*
X0175502Y0062515D01*
X0175502Y0066070D02*
X0175101Y0066070D01*
X0174701Y0066470D01*
X0174701Y0067271D01*
X0174301Y0067671D01*
X0173900Y0067671D01*
X0173500Y0067271D01*
X0173500Y0066470D01*
X0173900Y0066070D01*
X0174301Y0066070D01*
X0174701Y0066470D01*
X0174701Y0067271D02*
X0175101Y0067671D01*
X0175502Y0067671D01*
X0175902Y0067271D01*
X0175902Y0066470D01*
X0175502Y0066070D01*
X0172502Y0066070D02*
X0172502Y0067671D01*
X0172102Y0067671D01*
X0170500Y0066070D01*
X0170100Y0066070D01*
X0168702Y0066870D02*
X0167901Y0066070D01*
X0167901Y0067271D01*
X0167501Y0067671D01*
X0167100Y0067671D01*
X0166700Y0067271D01*
X0166700Y0066470D01*
X0167100Y0066070D01*
X0167901Y0066070D01*
X0168702Y0066870D02*
X0169102Y0067671D01*
X0165702Y0067671D02*
X0165702Y0066070D01*
X0164501Y0066070D01*
X0164901Y0066870D01*
X0164901Y0067271D01*
X0164501Y0067671D01*
X0163700Y0067671D01*
X0163300Y0067271D01*
X0163300Y0066470D01*
X0163700Y0066070D01*
X0181250Y0079548D02*
X0181250Y0080349D01*
X0181650Y0080749D01*
X0181650Y0081726D02*
X0181250Y0081726D01*
X0181650Y0081726D02*
X0183252Y0083328D01*
X0183652Y0083328D01*
X0183652Y0081726D01*
X0183252Y0080749D02*
X0183652Y0080349D01*
X0183652Y0079548D01*
X0183252Y0079148D01*
X0181650Y0079148D01*
X0181250Y0079548D01*
X0181650Y0084304D02*
X0183252Y0085906D01*
X0181650Y0085906D01*
X0181250Y0085505D01*
X0181250Y0084705D01*
X0181650Y0084304D01*
X0183252Y0084304D01*
X0183652Y0084705D01*
X0183652Y0085505D01*
X0183252Y0085906D01*
X0190250Y0085505D02*
X0190250Y0084705D01*
X0190650Y0084304D01*
X0191451Y0084304D02*
X0191851Y0085105D01*
X0191851Y0085505D01*
X0191451Y0085906D01*
X0190650Y0085906D01*
X0190250Y0085505D01*
X0191451Y0084304D02*
X0192652Y0084304D01*
X0192652Y0085906D01*
X0192652Y0083328D02*
X0192252Y0082527D01*
X0191451Y0081726D01*
X0191451Y0082927D01*
X0191051Y0083328D01*
X0190650Y0083328D01*
X0190250Y0082927D01*
X0190250Y0082127D01*
X0190650Y0081726D01*
X0191451Y0081726D01*
X0191451Y0080749D02*
X0191051Y0080349D01*
X0191051Y0079148D01*
X0191051Y0079949D02*
X0190250Y0080749D01*
X0191451Y0080749D02*
X0192252Y0080749D01*
X0192652Y0080349D01*
X0192652Y0079148D01*
X0190250Y0079148D01*
X0196850Y0079548D02*
X0196850Y0080349D01*
X0197250Y0080749D01*
X0197250Y0081726D02*
X0196850Y0081726D01*
X0197250Y0081726D02*
X0198852Y0083328D01*
X0199252Y0083328D01*
X0199252Y0081726D01*
X0198852Y0080749D02*
X0199252Y0080349D01*
X0199252Y0079548D01*
X0198852Y0079148D01*
X0197250Y0079148D01*
X0196850Y0079548D01*
X0196850Y0084304D02*
X0196850Y0085906D01*
X0196850Y0085105D02*
X0199252Y0085105D01*
X0198451Y0084304D01*
X0204050Y0084805D02*
X0204050Y0085605D01*
X0204450Y0086006D01*
X0204851Y0086006D01*
X0205251Y0085605D01*
X0205251Y0084404D01*
X0204450Y0084404D01*
X0204050Y0084805D01*
X0205251Y0084404D02*
X0206052Y0085205D01*
X0206452Y0086006D01*
X0206452Y0083428D02*
X0206052Y0082627D01*
X0205251Y0081826D01*
X0205251Y0083027D01*
X0204851Y0083428D01*
X0204450Y0083428D01*
X0204050Y0083027D01*
X0204050Y0082227D01*
X0204450Y0081826D01*
X0205251Y0081826D01*
X0205251Y0080849D02*
X0204851Y0080449D01*
X0204851Y0079248D01*
X0204851Y0080049D02*
X0204050Y0080849D01*
X0205251Y0080849D02*
X0206052Y0080849D01*
X0206452Y0080449D01*
X0206452Y0079248D01*
X0204050Y0079248D01*
X0211350Y0079548D02*
X0211350Y0080349D01*
X0211750Y0080749D01*
X0211750Y0081726D02*
X0211350Y0081726D01*
X0211750Y0081726D02*
X0213352Y0083328D01*
X0213752Y0083328D01*
X0213752Y0081726D01*
X0213352Y0080749D02*
X0213752Y0080349D01*
X0213752Y0079548D01*
X0213352Y0079148D01*
X0211750Y0079148D01*
X0211350Y0079548D01*
X0211350Y0084304D02*
X0212951Y0085906D01*
X0213352Y0085906D01*
X0213752Y0085505D01*
X0213752Y0084705D01*
X0213352Y0084304D01*
X0211350Y0084304D02*
X0211350Y0085906D01*
X0218950Y0084304D02*
X0219350Y0084304D01*
X0220952Y0085906D01*
X0221352Y0085906D01*
X0221352Y0084304D01*
X0221352Y0083328D02*
X0220952Y0082527D01*
X0220151Y0081726D01*
X0220151Y0082927D01*
X0219751Y0083328D01*
X0219350Y0083328D01*
X0218950Y0082927D01*
X0218950Y0082127D01*
X0219350Y0081726D01*
X0220151Y0081726D01*
X0220151Y0080749D02*
X0219751Y0080349D01*
X0219751Y0079148D01*
X0219751Y0079949D02*
X0218950Y0080749D01*
X0220151Y0080749D02*
X0220952Y0080749D01*
X0221352Y0080349D01*
X0221352Y0079148D01*
X0218950Y0079148D01*
X0226350Y0079448D02*
X0226350Y0080249D01*
X0226750Y0080649D01*
X0226750Y0081626D02*
X0226350Y0081626D01*
X0226750Y0081626D02*
X0228352Y0083228D01*
X0228752Y0083228D01*
X0228752Y0081626D01*
X0228352Y0080649D02*
X0228752Y0080249D01*
X0228752Y0079448D01*
X0228352Y0079048D01*
X0226750Y0079048D01*
X0226350Y0079448D01*
X0226750Y0084204D02*
X0226350Y0084605D01*
X0226350Y0085405D01*
X0226750Y0085806D01*
X0227151Y0085806D01*
X0227551Y0085405D01*
X0227551Y0085005D01*
X0227551Y0085405D02*
X0227951Y0085806D01*
X0228352Y0085806D01*
X0228752Y0085405D01*
X0228752Y0084605D01*
X0228352Y0084204D01*
X0234250Y0084905D02*
X0234650Y0084504D01*
X0235051Y0084504D01*
X0235451Y0084905D01*
X0235451Y0085705D01*
X0235051Y0086106D01*
X0234650Y0086106D01*
X0234250Y0085705D01*
X0234250Y0084905D01*
X0235451Y0084905D02*
X0235851Y0084504D01*
X0236252Y0084504D01*
X0236652Y0084905D01*
X0236652Y0085705D01*
X0236252Y0086106D01*
X0235851Y0086106D01*
X0235451Y0085705D01*
X0235051Y0083528D02*
X0235451Y0083127D01*
X0235451Y0081926D01*
X0234650Y0081926D01*
X0234250Y0082327D01*
X0234250Y0083127D01*
X0234650Y0083528D01*
X0235051Y0083528D01*
X0236252Y0082727D02*
X0235451Y0081926D01*
X0235451Y0080949D02*
X0235051Y0080549D01*
X0235051Y0079348D01*
X0235051Y0080149D02*
X0234250Y0080949D01*
X0235451Y0080949D02*
X0236252Y0080949D01*
X0236652Y0080549D01*
X0236652Y0079348D01*
X0234250Y0079348D01*
X0236252Y0082727D02*
X0236652Y0083528D01*
X0241550Y0081826D02*
X0241950Y0081826D01*
X0243552Y0083428D01*
X0243952Y0083428D01*
X0243952Y0081826D01*
X0243552Y0080849D02*
X0243952Y0080449D01*
X0243952Y0079648D01*
X0243552Y0079248D01*
X0241950Y0079248D01*
X0241550Y0079648D01*
X0241550Y0080449D01*
X0241950Y0080849D01*
X0242751Y0084404D02*
X0242751Y0086006D01*
X0241550Y0085605D02*
X0243952Y0085605D01*
X0242751Y0084404D01*
X0248850Y0084905D02*
X0248850Y0085705D01*
X0249250Y0086106D01*
X0250852Y0086106D01*
X0251252Y0085705D01*
X0251252Y0084905D01*
X0250852Y0084504D01*
X0250451Y0084504D01*
X0250051Y0084905D01*
X0250051Y0086106D01*
X0248850Y0084905D02*
X0249250Y0084504D01*
X0249250Y0083528D02*
X0249651Y0083528D01*
X0250051Y0083127D01*
X0250051Y0081926D01*
X0249250Y0081926D01*
X0248850Y0082327D01*
X0248850Y0083127D01*
X0249250Y0083528D01*
X0250852Y0082727D02*
X0250051Y0081926D01*
X0250051Y0080949D02*
X0249651Y0080549D01*
X0249651Y0079348D01*
X0249651Y0080149D02*
X0248850Y0080949D01*
X0250051Y0080949D02*
X0250852Y0080949D01*
X0251252Y0080549D01*
X0251252Y0079348D01*
X0248850Y0079348D01*
X0250852Y0082727D02*
X0251252Y0083528D01*
X0257450Y0083426D02*
X0257850Y0083426D01*
X0259452Y0085028D01*
X0259852Y0085028D01*
X0259852Y0083426D01*
X0259452Y0082449D02*
X0259852Y0082049D01*
X0259852Y0081248D01*
X0259452Y0080848D01*
X0257850Y0080848D01*
X0257450Y0081248D01*
X0257450Y0082049D01*
X0257850Y0082449D01*
X0257850Y0086004D02*
X0257450Y0086405D01*
X0257450Y0087205D01*
X0257850Y0087606D01*
X0258651Y0087606D01*
X0259051Y0087205D01*
X0259051Y0086805D01*
X0258651Y0086004D01*
X0259852Y0086004D01*
X0259852Y0087606D01*
X0263950Y0085405D02*
X0263950Y0084605D01*
X0264350Y0084204D01*
X0265952Y0085806D01*
X0264350Y0085806D01*
X0263950Y0085405D01*
X0264350Y0084204D02*
X0265952Y0084204D01*
X0266352Y0084605D01*
X0266352Y0085405D01*
X0265952Y0085806D01*
X0265952Y0083228D02*
X0264350Y0081626D01*
X0263950Y0081626D01*
X0263950Y0080649D02*
X0264751Y0079849D01*
X0264751Y0080249D02*
X0264751Y0079048D01*
X0263950Y0079048D02*
X0266352Y0079048D01*
X0266352Y0080249D01*
X0265952Y0080649D01*
X0265151Y0080649D01*
X0264751Y0080249D01*
X0266352Y0081626D02*
X0266352Y0083228D01*
X0265952Y0083228D01*
X0272650Y0084605D02*
X0272650Y0085405D01*
X0273050Y0085806D01*
X0273451Y0085806D01*
X0273851Y0085405D01*
X0273851Y0084204D01*
X0273050Y0084204D01*
X0272650Y0084605D01*
X0273851Y0084204D02*
X0274652Y0085005D01*
X0275052Y0085806D01*
X0275052Y0083228D02*
X0274652Y0083228D01*
X0273050Y0081626D01*
X0272650Y0081626D01*
X0273050Y0080649D02*
X0272650Y0080249D01*
X0272650Y0079448D01*
X0273050Y0079048D01*
X0274652Y0079048D01*
X0275052Y0079448D01*
X0275052Y0080249D01*
X0274652Y0080649D01*
X0275052Y0081626D02*
X0275052Y0083228D01*
X0279450Y0084204D02*
X0279450Y0085806D01*
X0279450Y0085005D02*
X0281852Y0085005D01*
X0281051Y0084204D01*
X0281452Y0083228D02*
X0279850Y0081626D01*
X0279450Y0081626D01*
X0279450Y0080649D02*
X0280251Y0079849D01*
X0280251Y0080249D02*
X0280251Y0079048D01*
X0279450Y0079048D02*
X0281852Y0079048D01*
X0281852Y0080249D01*
X0281452Y0080649D01*
X0280651Y0080649D01*
X0280251Y0080249D01*
X0281852Y0081626D02*
X0281852Y0083228D01*
X0281452Y0083228D01*
X0286350Y0084204D02*
X0286750Y0084204D01*
X0288352Y0085806D01*
X0288752Y0085806D01*
X0288752Y0084204D01*
X0288752Y0083228D02*
X0288352Y0083228D01*
X0286750Y0081626D01*
X0286350Y0081626D01*
X0286750Y0080649D02*
X0286350Y0080249D01*
X0286350Y0079448D01*
X0286750Y0079048D01*
X0288352Y0079048D01*
X0288752Y0079448D01*
X0288752Y0080249D01*
X0288352Y0080649D01*
X0288752Y0081626D02*
X0288752Y0083228D01*
X0296450Y0084304D02*
X0298051Y0085906D01*
X0298452Y0085906D01*
X0298852Y0085505D01*
X0298852Y0084705D01*
X0298452Y0084304D01*
X0298452Y0083328D02*
X0296850Y0081726D01*
X0296450Y0081726D01*
X0296450Y0080749D02*
X0297251Y0079949D01*
X0297251Y0080349D02*
X0297251Y0079148D01*
X0296450Y0079148D02*
X0298852Y0079148D01*
X0298852Y0080349D01*
X0298452Y0080749D01*
X0297651Y0080749D01*
X0297251Y0080349D01*
X0298852Y0081726D02*
X0298852Y0083328D01*
X0298452Y0083328D01*
X0296450Y0084304D02*
X0296450Y0085906D01*
X0298500Y0063071D02*
X0300102Y0063071D01*
X0300502Y0062671D01*
X0300502Y0061870D01*
X0300102Y0061470D01*
X0299701Y0061470D01*
X0299301Y0061870D01*
X0299301Y0063071D01*
X0298500Y0063071D02*
X0298100Y0062671D01*
X0298100Y0061870D01*
X0298500Y0061470D01*
X0298100Y0060493D02*
X0298100Y0058892D01*
X0298100Y0059692D02*
X0300502Y0059692D01*
X0299701Y0058892D01*
X0300102Y0057915D02*
X0300502Y0057514D01*
X0300502Y0056313D01*
X0298100Y0056313D01*
X0298100Y0057514D01*
X0298500Y0057915D01*
X0300102Y0057915D01*
X0301500Y0057514D02*
X0301900Y0057915D01*
X0303502Y0057915D01*
X0303902Y0057514D01*
X0303902Y0056313D01*
X0301500Y0056313D01*
X0301500Y0057514D01*
X0301500Y0058892D02*
X0303101Y0060493D01*
X0303502Y0060493D01*
X0303902Y0060093D01*
X0303902Y0059292D01*
X0303502Y0058892D01*
X0304900Y0058892D02*
X0306501Y0060493D01*
X0306902Y0060493D01*
X0307302Y0060093D01*
X0307302Y0059292D01*
X0306902Y0058892D01*
X0306902Y0057915D02*
X0307302Y0057514D01*
X0307302Y0056313D01*
X0304900Y0056313D01*
X0304900Y0057514D01*
X0305300Y0057915D01*
X0306902Y0057915D01*
X0308300Y0057514D02*
X0308700Y0057915D01*
X0310302Y0057915D01*
X0310702Y0057514D01*
X0310702Y0056313D01*
X0308300Y0056313D01*
X0308300Y0057514D01*
X0308300Y0058892D02*
X0309901Y0060493D01*
X0310302Y0060493D01*
X0310702Y0060093D01*
X0310702Y0059292D01*
X0310302Y0058892D01*
X0308300Y0058892D02*
X0308300Y0060493D01*
X0308300Y0061470D02*
X0309901Y0063071D01*
X0310302Y0063071D01*
X0310702Y0062671D01*
X0310702Y0061870D01*
X0310302Y0061470D01*
X0308300Y0061470D02*
X0308300Y0063071D01*
X0307302Y0062270D02*
X0304900Y0062270D01*
X0304900Y0061470D02*
X0304900Y0063071D01*
X0303902Y0062671D02*
X0303502Y0063071D01*
X0301900Y0061470D01*
X0301500Y0061870D01*
X0301500Y0062671D01*
X0301900Y0063071D01*
X0303502Y0063071D01*
X0303902Y0062671D02*
X0303902Y0061870D01*
X0303502Y0061470D01*
X0301900Y0061470D01*
X0301500Y0060493D02*
X0301500Y0058892D01*
X0304900Y0058892D02*
X0304900Y0060493D01*
X0306501Y0061470D02*
X0307302Y0062270D01*
X0364987Y0093600D02*
X0366588Y0091998D01*
X0366588Y0091598D01*
X0367565Y0091598D02*
X0369167Y0091598D01*
X0369167Y0094000D01*
X0366588Y0094000D02*
X0364987Y0094000D01*
X0364987Y0093600D01*
X0365487Y0099598D02*
X0366288Y0099598D01*
X0366688Y0099998D01*
X0366688Y0100799D02*
X0365888Y0101199D01*
X0365487Y0101199D01*
X0365087Y0100799D01*
X0365087Y0099998D01*
X0365487Y0099598D01*
X0366688Y0100799D02*
X0366688Y0102000D01*
X0365087Y0102000D01*
X0367665Y0099598D02*
X0369267Y0099598D01*
X0369267Y0102000D01*
X0369167Y0106898D02*
X0367565Y0106898D01*
X0366588Y0107298D02*
X0366188Y0106898D01*
X0365387Y0106898D01*
X0364987Y0107298D01*
X0364987Y0107699D01*
X0365387Y0108099D01*
X0365788Y0108099D01*
X0365387Y0108099D02*
X0364987Y0108499D01*
X0364987Y0108900D01*
X0365387Y0109300D01*
X0366188Y0109300D01*
X0366588Y0108900D01*
X0369167Y0109300D02*
X0369167Y0106898D01*
X0364610Y0119698D02*
X0363809Y0119698D01*
X0363409Y0120098D01*
X0362432Y0120098D02*
X0362032Y0119698D01*
X0361231Y0119698D01*
X0360831Y0120098D01*
X0360831Y0120499D01*
X0361231Y0120899D01*
X0362432Y0120899D01*
X0362432Y0120098D01*
X0362432Y0120899D02*
X0361631Y0121700D01*
X0360831Y0122100D01*
X0359854Y0121700D02*
X0359854Y0121299D01*
X0359454Y0120899D01*
X0358252Y0120899D01*
X0358252Y0120098D02*
X0358252Y0121700D01*
X0358653Y0122100D01*
X0359454Y0122100D01*
X0359854Y0121700D01*
X0359854Y0120098D02*
X0359454Y0119698D01*
X0358653Y0119698D01*
X0358252Y0120098D01*
X0363409Y0121700D02*
X0363809Y0122100D01*
X0364610Y0122100D01*
X0365010Y0121700D01*
X0365010Y0120098D01*
X0364610Y0119698D01*
X0334300Y0128448D02*
X0333099Y0128448D01*
X0332699Y0128848D01*
X0332699Y0130450D01*
X0333099Y0130850D01*
X0334300Y0130850D01*
X0334300Y0128448D01*
X0331722Y0128848D02*
X0331321Y0128448D01*
X0330521Y0128448D01*
X0330120Y0128848D01*
X0330120Y0129249D01*
X0330521Y0129649D01*
X0330921Y0129649D01*
X0330521Y0129649D02*
X0330120Y0130049D01*
X0330120Y0130450D01*
X0330521Y0130850D01*
X0331321Y0130850D01*
X0331722Y0130450D01*
X0329144Y0130850D02*
X0327542Y0130850D01*
X0327542Y0130450D01*
X0329144Y0128848D01*
X0329144Y0128448D01*
X0313752Y0133535D02*
X0313752Y0134736D01*
X0313352Y0135137D01*
X0312551Y0135137D01*
X0312151Y0134736D01*
X0312151Y0133535D01*
X0312151Y0134336D02*
X0311350Y0135137D01*
X0311350Y0136113D02*
X0311350Y0137715D01*
X0311350Y0136914D02*
X0313752Y0136914D01*
X0312951Y0136113D01*
X0313752Y0133535D02*
X0311350Y0133535D01*
X0311350Y0138692D02*
X0311750Y0138692D01*
X0313352Y0140293D01*
X0313752Y0140293D01*
X0313752Y0138692D01*
X0313352Y0141270D02*
X0313752Y0141670D01*
X0313752Y0142471D01*
X0313352Y0142871D01*
X0311750Y0141270D01*
X0311350Y0141670D01*
X0311350Y0142471D01*
X0311750Y0142871D01*
X0313352Y0142871D01*
X0313352Y0141270D02*
X0311750Y0141270D01*
X0311350Y0148735D02*
X0313752Y0148735D01*
X0313752Y0149936D01*
X0313352Y0150337D01*
X0312551Y0150337D01*
X0312151Y0149936D01*
X0312151Y0148735D01*
X0312151Y0149536D02*
X0311350Y0150337D01*
X0311350Y0151313D02*
X0311350Y0152915D01*
X0311350Y0152114D02*
X0313752Y0152114D01*
X0312951Y0151313D01*
X0312551Y0153892D02*
X0312551Y0155093D01*
X0312151Y0155493D01*
X0311750Y0155493D01*
X0311350Y0155093D01*
X0311350Y0154292D01*
X0311750Y0153892D01*
X0312551Y0153892D01*
X0313352Y0154692D01*
X0313752Y0155493D01*
X0313352Y0156470D02*
X0312951Y0156470D01*
X0312551Y0156870D01*
X0312551Y0157671D01*
X0312151Y0158071D01*
X0311750Y0158071D01*
X0311350Y0157671D01*
X0311350Y0156870D01*
X0311750Y0156470D01*
X0312151Y0156470D01*
X0312551Y0156870D01*
X0312551Y0157671D02*
X0312951Y0158071D01*
X0313352Y0158071D01*
X0313752Y0157671D01*
X0313752Y0156870D01*
X0313352Y0156470D01*
X0319642Y0157948D02*
X0319642Y0158749D01*
X0320043Y0159149D01*
X0320443Y0159149D01*
X0321244Y0158749D01*
X0321244Y0159950D01*
X0319642Y0159950D01*
X0319642Y0157948D02*
X0320043Y0157548D01*
X0320843Y0157548D01*
X0321244Y0157948D01*
X0322220Y0157948D02*
X0322621Y0157548D01*
X0323421Y0157548D01*
X0323822Y0157948D01*
X0324799Y0157948D02*
X0324799Y0159550D01*
X0325199Y0159950D01*
X0326400Y0159950D01*
X0326400Y0157548D01*
X0325199Y0157548D01*
X0324799Y0157948D01*
X0323822Y0159550D02*
X0323421Y0159950D01*
X0322621Y0159950D01*
X0322220Y0159550D01*
X0322220Y0159149D01*
X0322621Y0158749D01*
X0322220Y0158349D01*
X0322220Y0157948D01*
X0322621Y0158749D02*
X0323021Y0158749D01*
X0313552Y0163535D02*
X0313552Y0164736D01*
X0313152Y0165137D01*
X0312351Y0165137D01*
X0311951Y0164736D01*
X0311951Y0163535D01*
X0311951Y0164336D02*
X0311150Y0165137D01*
X0311150Y0166113D02*
X0311150Y0167715D01*
X0311150Y0166914D02*
X0313552Y0166914D01*
X0312751Y0166113D01*
X0312351Y0168692D02*
X0312351Y0169893D01*
X0311951Y0170293D01*
X0311550Y0170293D01*
X0311150Y0169893D01*
X0311150Y0169092D01*
X0311550Y0168692D01*
X0312351Y0168692D01*
X0313152Y0169492D01*
X0313552Y0170293D01*
X0312351Y0171270D02*
X0312351Y0172471D01*
X0311951Y0172871D01*
X0311550Y0172871D01*
X0311150Y0172471D01*
X0311150Y0171670D01*
X0311550Y0171270D01*
X0312351Y0171270D01*
X0313152Y0172070D01*
X0313552Y0172871D01*
X0319342Y0173548D02*
X0319743Y0173148D01*
X0320543Y0173148D01*
X0320944Y0173548D01*
X0321920Y0173548D02*
X0322321Y0173148D01*
X0323121Y0173148D01*
X0323522Y0173548D01*
X0324499Y0173548D02*
X0324499Y0175150D01*
X0324899Y0175550D01*
X0326100Y0175550D01*
X0326100Y0173148D01*
X0324899Y0173148D01*
X0324499Y0173548D01*
X0323522Y0175150D02*
X0323121Y0175550D01*
X0322321Y0175550D01*
X0321920Y0175150D01*
X0321920Y0174749D01*
X0322321Y0174349D01*
X0321920Y0173949D01*
X0321920Y0173548D01*
X0322321Y0174349D02*
X0322721Y0174349D01*
X0320944Y0175150D02*
X0320543Y0175550D01*
X0319743Y0175550D01*
X0319342Y0175150D01*
X0319342Y0174749D01*
X0319743Y0174349D01*
X0319342Y0173949D01*
X0319342Y0173548D01*
X0319743Y0174349D02*
X0320143Y0174349D01*
X0313452Y0178935D02*
X0313452Y0180136D01*
X0313052Y0180537D01*
X0312251Y0180537D01*
X0311851Y0180136D01*
X0311851Y0178935D01*
X0311851Y0179736D02*
X0311050Y0180537D01*
X0311050Y0181513D02*
X0311050Y0183115D01*
X0311050Y0182314D02*
X0313452Y0182314D01*
X0312651Y0181513D01*
X0312251Y0184092D02*
X0312251Y0185293D01*
X0311851Y0185693D01*
X0311450Y0185693D01*
X0311050Y0185293D01*
X0311050Y0184492D01*
X0311450Y0184092D01*
X0312251Y0184092D01*
X0313052Y0184892D01*
X0313452Y0185693D01*
X0312251Y0186670D02*
X0312251Y0188271D01*
X0311050Y0187871D02*
X0313452Y0187871D01*
X0312251Y0186670D01*
X0311050Y0178935D02*
X0313452Y0178935D01*
X0313552Y0163535D02*
X0311150Y0163535D01*
X0327042Y0190748D02*
X0328644Y0190748D01*
X0327843Y0190748D02*
X0327843Y0193150D01*
X0328644Y0192349D01*
X0329620Y0192349D02*
X0330021Y0191949D01*
X0329620Y0191549D01*
X0329620Y0191148D01*
X0330021Y0190748D01*
X0330821Y0190748D01*
X0331222Y0191148D01*
X0332199Y0191148D02*
X0332199Y0192750D01*
X0332599Y0193150D01*
X0333800Y0193150D01*
X0333800Y0190748D01*
X0332599Y0190748D01*
X0332199Y0191148D01*
X0331222Y0192750D02*
X0330821Y0193150D01*
X0330021Y0193150D01*
X0329620Y0192750D01*
X0329620Y0192349D01*
X0330021Y0191949D02*
X0330421Y0191949D01*
X0354177Y0172300D02*
X0354177Y0171899D01*
X0354577Y0171499D01*
X0354177Y0171099D01*
X0354177Y0170698D01*
X0354577Y0170298D01*
X0355378Y0170298D01*
X0355778Y0170698D01*
X0356755Y0170698D02*
X0356755Y0171099D01*
X0357155Y0171499D01*
X0358356Y0171499D01*
X0358356Y0170698D01*
X0357956Y0170298D01*
X0357155Y0170298D01*
X0356755Y0170698D01*
X0358356Y0171499D02*
X0357556Y0172300D01*
X0356755Y0172700D01*
X0355778Y0172300D02*
X0355378Y0172700D01*
X0354577Y0172700D01*
X0354177Y0172300D01*
X0354577Y0171499D02*
X0354978Y0171499D01*
X0359333Y0170298D02*
X0360935Y0170298D01*
X0360134Y0170298D02*
X0360134Y0172700D01*
X0360935Y0171899D01*
X0361911Y0171499D02*
X0362312Y0171099D01*
X0363513Y0171099D01*
X0362712Y0171099D02*
X0361911Y0170298D01*
X0361911Y0171499D02*
X0361911Y0172300D01*
X0362312Y0172700D01*
X0363513Y0172700D01*
X0363513Y0170298D01*
X0362900Y0162800D02*
X0361699Y0162800D01*
X0361299Y0162400D01*
X0361299Y0161599D01*
X0361699Y0161199D01*
X0362900Y0161199D01*
X0363099Y0161099D02*
X0364300Y0161099D01*
X0363499Y0161099D02*
X0362699Y0160298D01*
X0362900Y0160398D02*
X0362900Y0162800D01*
X0363099Y0162700D02*
X0362699Y0162300D01*
X0362699Y0161499D01*
X0363099Y0161099D01*
X0362099Y0161199D02*
X0361299Y0160398D01*
X0360921Y0160298D02*
X0360921Y0162700D01*
X0361722Y0161899D01*
X0360322Y0161999D02*
X0359521Y0162800D01*
X0359521Y0160398D01*
X0359144Y0160698D02*
X0358743Y0160298D01*
X0357943Y0160298D01*
X0357542Y0160698D01*
X0357542Y0161099D01*
X0357943Y0161499D01*
X0359144Y0161499D01*
X0359144Y0160698D01*
X0358720Y0160398D02*
X0360322Y0160398D01*
X0360120Y0160298D02*
X0361722Y0160298D01*
X0364300Y0160298D02*
X0364300Y0162700D01*
X0363099Y0162700D01*
X0359144Y0161499D02*
X0358343Y0162300D01*
X0357542Y0162700D01*
X0356943Y0162400D02*
X0357744Y0161599D01*
X0356543Y0161599D01*
X0356142Y0161199D01*
X0356142Y0160798D01*
X0356543Y0160398D01*
X0357343Y0160398D01*
X0357744Y0160798D01*
X0357744Y0161599D01*
X0356943Y0162400D02*
X0356142Y0162800D01*
X0356565Y0162700D02*
X0354964Y0162700D01*
X0354964Y0162300D01*
X0356565Y0160698D01*
X0356565Y0160298D01*
X0355165Y0160798D02*
X0354765Y0160398D01*
X0353964Y0160398D01*
X0353564Y0160798D01*
X0353564Y0161599D01*
X0353964Y0161999D01*
X0354365Y0161999D01*
X0355165Y0161599D01*
X0355165Y0162800D01*
X0353564Y0162800D01*
X0354864Y0152700D02*
X0355665Y0152700D01*
X0356065Y0152300D01*
X0356065Y0151899D01*
X0355665Y0151499D01*
X0354464Y0151499D01*
X0354464Y0150698D02*
X0354464Y0152300D01*
X0354864Y0152700D01*
X0354464Y0150698D02*
X0354864Y0150298D01*
X0355665Y0150298D01*
X0356065Y0150698D01*
X0357042Y0150698D02*
X0357042Y0151099D01*
X0357443Y0151499D01*
X0358644Y0151499D01*
X0358644Y0150698D01*
X0358243Y0150298D01*
X0357443Y0150298D01*
X0357042Y0150698D01*
X0357843Y0152300D02*
X0358644Y0151499D01*
X0357843Y0152300D02*
X0357042Y0152700D01*
X0360421Y0152700D02*
X0360421Y0150298D01*
X0361222Y0150298D02*
X0359620Y0150298D01*
X0361222Y0151899D02*
X0360421Y0152700D01*
X0362199Y0152300D02*
X0362199Y0151499D01*
X0362599Y0151099D01*
X0363800Y0151099D01*
X0362999Y0151099D02*
X0362199Y0150298D01*
X0363800Y0150298D02*
X0363800Y0152700D01*
X0362599Y0152700D01*
X0362199Y0152300D01*
X0417564Y0101400D02*
X0417964Y0101800D01*
X0418765Y0101800D01*
X0419165Y0101400D01*
X0419165Y0100999D01*
X0418765Y0100599D01*
X0417564Y0100599D01*
X0417564Y0099798D02*
X0417564Y0101400D01*
X0417564Y0099798D02*
X0417964Y0099398D01*
X0418765Y0099398D01*
X0419165Y0099798D01*
X0420142Y0099798D02*
X0420543Y0099398D01*
X0421343Y0099398D01*
X0421744Y0099798D01*
X0422720Y0099398D02*
X0424322Y0099398D01*
X0423521Y0099398D02*
X0423521Y0101800D01*
X0424322Y0100999D01*
X0425299Y0101400D02*
X0425699Y0101800D01*
X0426500Y0101800D01*
X0426900Y0101400D01*
X0426900Y0099798D01*
X0426500Y0099398D01*
X0425699Y0099398D01*
X0425299Y0099798D01*
X0421744Y0101400D02*
X0421343Y0101800D01*
X0420543Y0101800D01*
X0420142Y0101400D01*
X0420142Y0100999D01*
X0420543Y0100599D01*
X0420142Y0100199D01*
X0420142Y0099798D01*
X0420543Y0100599D02*
X0420943Y0100599D01*
X0399545Y0082800D02*
X0399545Y0080398D01*
X0399545Y0081199D02*
X0398344Y0081199D01*
X0397943Y0081599D01*
X0397943Y0082400D01*
X0398344Y0082800D01*
X0399545Y0082800D01*
X0398744Y0081199D02*
X0397943Y0080398D01*
X0396967Y0080398D02*
X0395365Y0081999D01*
X0395365Y0082400D01*
X0395766Y0082800D01*
X0396566Y0082800D01*
X0396967Y0082400D01*
X0396967Y0080398D02*
X0395365Y0080398D01*
X0394388Y0080798D02*
X0393988Y0080398D01*
X0393187Y0080398D01*
X0392787Y0080798D01*
X0392787Y0082400D01*
X0393187Y0082800D01*
X0393988Y0082800D01*
X0394388Y0082400D01*
X0394388Y0081999D01*
X0393988Y0081599D01*
X0392787Y0081599D01*
X0383790Y0050450D02*
X0383790Y0048448D01*
X0383389Y0048048D01*
X0382589Y0048048D01*
X0382188Y0048448D01*
X0382188Y0050450D01*
X0381212Y0050450D02*
X0379610Y0050450D01*
X0379610Y0050050D01*
X0381212Y0048448D01*
X0381212Y0048048D01*
X0387487Y0042000D02*
X0388288Y0041600D01*
X0389088Y0040799D01*
X0387887Y0040799D01*
X0387487Y0040399D01*
X0387487Y0039998D01*
X0387887Y0039598D01*
X0388688Y0039598D01*
X0389088Y0039998D01*
X0389088Y0040799D01*
X0390065Y0041199D02*
X0390065Y0041600D01*
X0390466Y0042000D01*
X0391266Y0042000D01*
X0391667Y0041600D01*
X0392643Y0041600D02*
X0392643Y0040799D01*
X0393044Y0040399D01*
X0394245Y0040399D01*
X0393444Y0040399D02*
X0392643Y0039598D01*
X0391667Y0039598D02*
X0390065Y0041199D01*
X0390065Y0039598D02*
X0391667Y0039598D01*
X0392643Y0041600D02*
X0393044Y0042000D01*
X0394245Y0042000D01*
X0394245Y0039598D01*
X0400987Y0039998D02*
X0401387Y0039598D01*
X0402188Y0039598D01*
X0402588Y0039998D01*
X0402588Y0040399D01*
X0402188Y0040799D01*
X0401387Y0040799D01*
X0400987Y0040399D01*
X0400987Y0039998D01*
X0401387Y0040799D02*
X0400987Y0041199D01*
X0400987Y0041600D01*
X0401387Y0042000D01*
X0402188Y0042000D01*
X0402588Y0041600D01*
X0402588Y0041199D01*
X0402188Y0040799D01*
X0403565Y0041199D02*
X0403565Y0041600D01*
X0403966Y0042000D01*
X0404766Y0042000D01*
X0405167Y0041600D01*
X0406143Y0041600D02*
X0406544Y0042000D01*
X0407345Y0042000D01*
X0407745Y0041600D01*
X0407745Y0039998D01*
X0407345Y0039598D01*
X0406544Y0039598D01*
X0406143Y0039998D01*
X0405167Y0039598D02*
X0403565Y0041199D01*
X0403565Y0039598D02*
X0405167Y0039598D01*
X0418560Y0054013D02*
X0420962Y0054013D01*
X0420962Y0055214D01*
X0420562Y0055615D01*
X0419761Y0055615D01*
X0419361Y0055214D01*
X0419361Y0054013D01*
X0419361Y0054814D02*
X0418560Y0055615D01*
X0418560Y0056592D02*
X0420162Y0058193D01*
X0420562Y0058193D01*
X0420962Y0057793D01*
X0420962Y0056992D01*
X0420562Y0056592D01*
X0418560Y0056592D02*
X0418560Y0058193D01*
X0418961Y0059170D02*
X0418560Y0059570D01*
X0418560Y0060371D01*
X0418961Y0060771D01*
X0419761Y0060771D01*
X0420162Y0060371D01*
X0420162Y0059970D01*
X0419761Y0059170D01*
X0420962Y0059170D01*
X0420962Y0060771D01*
X0385800Y0021400D02*
X0386200Y0021000D01*
X0386200Y0019398D01*
X0385800Y0018998D01*
X0384999Y0018998D01*
X0384599Y0019398D01*
X0383622Y0019398D02*
X0383221Y0018998D01*
X0382421Y0018998D01*
X0382020Y0019398D01*
X0382020Y0019799D01*
X0382421Y0020199D01*
X0382821Y0020199D01*
X0382421Y0020199D02*
X0382020Y0020599D01*
X0382020Y0021000D01*
X0382421Y0021400D01*
X0383221Y0021400D01*
X0383622Y0021000D01*
X0384599Y0021000D02*
X0384999Y0021400D01*
X0385800Y0021400D01*
X0381044Y0020599D02*
X0380243Y0021400D01*
X0380243Y0018998D01*
X0381044Y0018998D02*
X0379442Y0018998D01*
X0376600Y0019298D02*
X0376200Y0018898D01*
X0375399Y0018898D01*
X0374999Y0019298D01*
X0374022Y0019298D02*
X0373621Y0018898D01*
X0372821Y0018898D01*
X0372420Y0019298D01*
X0372420Y0019699D01*
X0372821Y0020099D01*
X0373221Y0020099D01*
X0372821Y0020099D02*
X0372420Y0020499D01*
X0372420Y0020900D01*
X0372821Y0021300D01*
X0373621Y0021300D01*
X0374022Y0020900D01*
X0374999Y0020900D02*
X0375399Y0021300D01*
X0376200Y0021300D01*
X0376600Y0020900D01*
X0376600Y0019298D01*
X0371444Y0018898D02*
X0369842Y0020499D01*
X0369842Y0020900D01*
X0370243Y0021300D01*
X0371043Y0021300D01*
X0371444Y0020900D01*
X0371444Y0018898D02*
X0369842Y0018898D01*
X0212852Y0111913D02*
X0212852Y0113114D01*
X0212452Y0113515D01*
X0211651Y0113515D01*
X0211251Y0113114D01*
X0211251Y0111913D01*
X0210450Y0111913D02*
X0212852Y0111913D01*
X0211251Y0112714D02*
X0210450Y0113515D01*
X0210450Y0114492D02*
X0212051Y0116093D01*
X0212452Y0116093D01*
X0212852Y0115693D01*
X0212852Y0114892D01*
X0212452Y0114492D01*
X0210450Y0114492D02*
X0210450Y0116093D01*
X0210450Y0117070D02*
X0210850Y0117070D01*
X0212452Y0118671D01*
X0212852Y0118671D01*
X0212852Y0117070D01*
X0205052Y0117105D02*
X0205052Y0117905D01*
X0204652Y0118306D01*
X0203050Y0116704D01*
X0202650Y0117105D01*
X0202650Y0117905D01*
X0203050Y0118306D01*
X0204652Y0118306D01*
X0205052Y0117105D02*
X0204652Y0116704D01*
X0203050Y0116704D01*
X0203050Y0115728D02*
X0202650Y0115327D01*
X0202650Y0114527D01*
X0203050Y0114126D01*
X0203050Y0113149D02*
X0202650Y0112749D01*
X0202650Y0111948D01*
X0203050Y0111548D01*
X0204652Y0111548D01*
X0205052Y0111948D01*
X0205052Y0112749D01*
X0204652Y0113149D01*
X0204652Y0114126D02*
X0205052Y0114527D01*
X0205052Y0115327D01*
X0204652Y0115728D01*
X0204251Y0115728D01*
X0203851Y0115327D01*
X0203451Y0115728D01*
X0203050Y0115728D01*
X0203851Y0115327D02*
X0203851Y0114927D01*
X0204221Y0147298D02*
X0204221Y0149700D01*
X0205022Y0148899D01*
X0205999Y0148499D02*
X0206399Y0148099D01*
X0207600Y0148099D01*
X0206799Y0148099D02*
X0205999Y0147298D01*
X0205022Y0147298D02*
X0203420Y0147298D01*
X0202444Y0147698D02*
X0202043Y0147298D01*
X0201243Y0147298D01*
X0200842Y0147698D01*
X0200842Y0148499D01*
X0201243Y0148899D01*
X0201643Y0148899D01*
X0202444Y0148499D01*
X0202444Y0149700D01*
X0200842Y0149700D01*
X0205999Y0149300D02*
X0205999Y0148499D01*
X0205999Y0149300D02*
X0206399Y0149700D01*
X0207600Y0149700D01*
X0207600Y0147298D01*
X0198600Y0159198D02*
X0198600Y0161600D01*
X0197399Y0161600D01*
X0196999Y0161200D01*
X0196999Y0160399D01*
X0197399Y0159999D01*
X0198600Y0159999D01*
X0197799Y0159999D02*
X0196999Y0159198D01*
X0196022Y0159198D02*
X0194420Y0159198D01*
X0195221Y0159198D02*
X0195221Y0161600D01*
X0196022Y0160799D01*
X0193444Y0160399D02*
X0192243Y0160399D01*
X0191842Y0159999D01*
X0191842Y0159598D01*
X0192243Y0159198D01*
X0193043Y0159198D01*
X0193444Y0159598D01*
X0193444Y0160399D01*
X0192643Y0161200D01*
X0191842Y0161600D01*
X0182652Y0156571D02*
X0182652Y0155770D01*
X0182252Y0155370D01*
X0181851Y0155370D01*
X0181451Y0155770D01*
X0181451Y0156971D01*
X0180650Y0156971D02*
X0182252Y0156971D01*
X0182652Y0156571D01*
X0180650Y0156971D02*
X0180250Y0156571D01*
X0180250Y0155770D01*
X0180650Y0155370D01*
X0180250Y0154393D02*
X0180250Y0152792D01*
X0181851Y0154393D01*
X0182252Y0154393D01*
X0182652Y0153993D01*
X0182652Y0153192D01*
X0182252Y0152792D01*
X0182252Y0151815D02*
X0182652Y0151414D01*
X0182652Y0150614D01*
X0182252Y0150213D01*
X0180650Y0150213D01*
X0180250Y0150614D01*
X0180250Y0151414D01*
X0180650Y0151815D01*
X0152502Y0153213D02*
X0152502Y0154414D01*
X0152102Y0154815D01*
X0151301Y0154815D01*
X0150901Y0154414D01*
X0150901Y0153213D01*
X0150100Y0153213D02*
X0152502Y0153213D01*
X0150901Y0154014D02*
X0150100Y0154815D01*
X0150100Y0155792D02*
X0152502Y0155792D01*
X0150100Y0157393D01*
X0152502Y0157393D01*
X0151701Y0158370D02*
X0152502Y0159170D01*
X0150100Y0159170D01*
X0150100Y0158370D02*
X0150100Y0159971D01*
X0135335Y0160598D02*
X0134934Y0160198D01*
X0134134Y0160198D01*
X0133733Y0160598D01*
X0132756Y0160598D02*
X0132756Y0160198D01*
X0132756Y0160598D02*
X0131155Y0162200D01*
X0131155Y0162600D01*
X0132756Y0162600D01*
X0133733Y0162200D02*
X0134134Y0162600D01*
X0134934Y0162600D01*
X0135335Y0162200D01*
X0135335Y0160598D01*
X0130178Y0160598D02*
X0130178Y0160999D01*
X0129778Y0161399D01*
X0128977Y0161399D01*
X0128577Y0160999D01*
X0128577Y0160598D01*
X0128977Y0160198D01*
X0129778Y0160198D01*
X0130178Y0160598D01*
X0129778Y0161399D02*
X0130178Y0161799D01*
X0130178Y0162200D01*
X0129778Y0162600D01*
X0128977Y0162600D01*
X0128577Y0162200D01*
X0128577Y0161799D01*
X0128977Y0161399D01*
X0128677Y0167098D02*
X0128277Y0167498D01*
X0128277Y0167899D01*
X0128677Y0168299D01*
X0129878Y0168299D01*
X0129878Y0167498D01*
X0129478Y0167098D01*
X0128677Y0167098D01*
X0129878Y0168299D02*
X0129078Y0169100D01*
X0128277Y0169500D01*
X0130855Y0169100D02*
X0131255Y0169500D01*
X0132056Y0169500D01*
X0132456Y0169100D01*
X0133433Y0169100D02*
X0133834Y0169500D01*
X0134634Y0169500D01*
X0135035Y0169100D01*
X0135035Y0167498D01*
X0134634Y0167098D01*
X0133834Y0167098D01*
X0133433Y0167498D01*
X0132456Y0167498D02*
X0132056Y0167098D01*
X0131255Y0167098D01*
X0130855Y0167498D01*
X0130855Y0167899D01*
X0131255Y0168299D01*
X0131656Y0168299D01*
X0131255Y0168299D02*
X0130855Y0168699D01*
X0130855Y0169100D01*
X0131355Y0155200D02*
X0131355Y0154800D01*
X0132956Y0153198D01*
X0132956Y0152798D01*
X0133933Y0153198D02*
X0134334Y0152798D01*
X0135134Y0152798D01*
X0135535Y0153198D01*
X0135535Y0154800D01*
X0135134Y0155200D01*
X0134334Y0155200D01*
X0133933Y0154800D01*
X0132956Y0155200D02*
X0131355Y0155200D01*
X0130378Y0154800D02*
X0130378Y0154399D01*
X0129978Y0153999D01*
X0128777Y0153999D01*
X0128777Y0153198D02*
X0128777Y0154800D01*
X0129177Y0155200D01*
X0129978Y0155200D01*
X0130378Y0154800D01*
X0130378Y0153198D02*
X0129978Y0152798D01*
X0129177Y0152798D01*
X0128777Y0153198D01*
X0128877Y0148200D02*
X0130078Y0146999D01*
X0128477Y0146999D01*
X0128877Y0145798D02*
X0128877Y0148200D01*
X0131055Y0147800D02*
X0131455Y0148200D01*
X0132256Y0148200D01*
X0132656Y0147800D01*
X0132656Y0147399D01*
X0132256Y0146999D01*
X0131055Y0146999D01*
X0131055Y0146198D02*
X0131055Y0147800D01*
X0131055Y0146198D02*
X0131455Y0145798D01*
X0132256Y0145798D01*
X0132656Y0146198D01*
X0133633Y0146198D02*
X0134034Y0145798D01*
X0134834Y0145798D01*
X0135235Y0146198D01*
X0135235Y0147800D01*
X0134834Y0148200D01*
X0134034Y0148200D01*
X0133633Y0147800D01*
X0134434Y0141100D02*
X0135234Y0141100D01*
X0135635Y0140700D01*
X0135635Y0139098D01*
X0135234Y0138698D01*
X0134434Y0138698D01*
X0134033Y0139098D01*
X0133056Y0139098D02*
X0132656Y0138698D01*
X0131855Y0138698D01*
X0131455Y0139098D01*
X0131455Y0140700D01*
X0131855Y0141100D01*
X0132656Y0141100D01*
X0133056Y0140700D01*
X0133056Y0140299D01*
X0132656Y0139899D01*
X0131455Y0139899D01*
X0130478Y0139899D02*
X0129678Y0140299D01*
X0129277Y0140299D01*
X0128877Y0139899D01*
X0128877Y0139098D01*
X0129277Y0138698D01*
X0130078Y0138698D01*
X0130478Y0139098D01*
X0130478Y0139899D02*
X0130478Y0141100D01*
X0128877Y0141100D01*
X0134033Y0140700D02*
X0134434Y0141100D01*
X0131252Y0130771D02*
X0130852Y0130771D01*
X0129250Y0129170D01*
X0128850Y0129170D01*
X0129250Y0128193D02*
X0130852Y0128193D01*
X0131252Y0127793D01*
X0131252Y0126992D01*
X0130852Y0126592D01*
X0130451Y0126592D01*
X0130051Y0126992D01*
X0130051Y0128193D01*
X0129250Y0128193D02*
X0128850Y0127793D01*
X0128850Y0126992D01*
X0129250Y0126592D01*
X0129250Y0125615D02*
X0128850Y0125214D01*
X0128850Y0124414D01*
X0129250Y0124013D01*
X0130852Y0124013D01*
X0131252Y0124414D01*
X0131252Y0125214D01*
X0130852Y0125615D01*
X0131252Y0129170D02*
X0131252Y0130771D01*
X0113700Y0117300D02*
X0113700Y0115698D01*
X0113300Y0115298D01*
X0112499Y0115298D01*
X0112099Y0115698D01*
X0111122Y0115698D02*
X0110721Y0115298D01*
X0109921Y0115298D01*
X0109520Y0115698D01*
X0109520Y0117300D01*
X0109921Y0117700D01*
X0110721Y0117700D01*
X0111122Y0117300D01*
X0111122Y0116899D01*
X0110721Y0116499D01*
X0109520Y0116499D01*
X0108544Y0116099D02*
X0108143Y0116499D01*
X0107343Y0116499D01*
X0106942Y0116099D01*
X0106942Y0115698D01*
X0107343Y0115298D01*
X0108143Y0115298D01*
X0108544Y0115698D01*
X0108544Y0116099D01*
X0108143Y0116499D02*
X0108544Y0116899D01*
X0108544Y0117300D01*
X0108143Y0117700D01*
X0107343Y0117700D01*
X0106942Y0117300D01*
X0106942Y0116899D01*
X0107343Y0116499D01*
X0112099Y0117300D02*
X0112499Y0117700D01*
X0113300Y0117700D01*
X0113700Y0117300D01*
X0105102Y0126313D02*
X0105502Y0126714D01*
X0105502Y0127514D01*
X0105102Y0127915D01*
X0103500Y0127915D01*
X0103100Y0127514D01*
X0103100Y0126714D01*
X0103500Y0126313D01*
X0105102Y0126313D01*
X0103901Y0127114D02*
X0103100Y0127915D01*
X0103100Y0128892D02*
X0103100Y0130493D01*
X0103100Y0129692D02*
X0105502Y0129692D01*
X0104701Y0128892D01*
X0104701Y0131470D02*
X0105502Y0132270D01*
X0103100Y0132270D01*
X0103100Y0131470D02*
X0103100Y0133071D01*
X0097012Y0112100D02*
X0097413Y0111700D01*
X0097413Y0110098D01*
X0097012Y0109698D01*
X0096212Y0109698D01*
X0095811Y0110098D01*
X0094835Y0109698D02*
X0093233Y0109698D01*
X0094034Y0109698D02*
X0094034Y0112100D01*
X0094835Y0111299D01*
X0095811Y0111700D02*
X0096212Y0112100D01*
X0097012Y0112100D01*
X0092256Y0111700D02*
X0091856Y0112100D01*
X0091055Y0112100D01*
X0090655Y0111700D01*
X0092256Y0110098D01*
X0091856Y0109698D01*
X0091055Y0109698D01*
X0090655Y0110098D01*
X0090655Y0111700D01*
X0089678Y0111700D02*
X0089278Y0112100D01*
X0088477Y0112100D01*
X0088077Y0111700D01*
X0088077Y0111299D01*
X0088477Y0110899D01*
X0088077Y0110499D01*
X0088077Y0110098D01*
X0088477Y0109698D01*
X0089278Y0109698D01*
X0089678Y0110098D01*
X0088878Y0110899D02*
X0088477Y0110899D01*
X0092256Y0110098D02*
X0092256Y0111700D01*
X0076152Y0121348D02*
X0075752Y0120948D01*
X0074150Y0120948D01*
X0073750Y0121348D01*
X0073750Y0122149D01*
X0074150Y0122549D01*
X0073750Y0123526D02*
X0073750Y0125128D01*
X0073750Y0124327D02*
X0076152Y0124327D01*
X0075351Y0123526D01*
X0075752Y0122549D02*
X0076152Y0122149D01*
X0076152Y0121348D01*
X0076152Y0126104D02*
X0074951Y0126104D01*
X0075351Y0126905D01*
X0075351Y0127305D01*
X0074951Y0127706D01*
X0074150Y0127706D01*
X0073750Y0127305D01*
X0073750Y0126505D01*
X0074150Y0126104D01*
X0076152Y0126104D02*
X0076152Y0127706D01*
X0075351Y0128683D02*
X0076152Y0129483D01*
X0073750Y0129483D01*
X0073750Y0128683D02*
X0073750Y0130284D01*
X0068802Y0131292D02*
X0068802Y0132093D01*
X0068402Y0132493D01*
X0066800Y0130892D01*
X0066400Y0131292D01*
X0066400Y0132093D01*
X0066800Y0132493D01*
X0068402Y0132493D01*
X0068402Y0133470D02*
X0068802Y0133870D01*
X0068802Y0134671D01*
X0068402Y0135071D01*
X0066800Y0133470D01*
X0066400Y0133870D01*
X0066400Y0134671D01*
X0066800Y0135071D01*
X0068402Y0135071D01*
X0068402Y0133470D02*
X0066800Y0133470D01*
X0066800Y0130892D02*
X0068402Y0130892D01*
X0068802Y0131292D01*
X0068802Y0129114D02*
X0066400Y0129114D01*
X0066400Y0128313D02*
X0066400Y0129915D01*
X0068001Y0128313D02*
X0068802Y0129114D01*
X0068402Y0127337D02*
X0068802Y0126936D01*
X0068802Y0126136D01*
X0068402Y0125735D01*
X0066800Y0125735D01*
X0066400Y0126136D01*
X0066400Y0126936D01*
X0066800Y0127337D01*
X0058000Y0122150D02*
X0056399Y0119748D01*
X0055422Y0119748D02*
X0053820Y0119748D01*
X0054621Y0119748D02*
X0054621Y0122150D01*
X0055422Y0121349D01*
X0056399Y0122150D02*
X0058000Y0119748D01*
X0077400Y0135514D02*
X0077400Y0136314D01*
X0077800Y0136715D01*
X0077800Y0137692D02*
X0077400Y0138092D01*
X0077400Y0138893D01*
X0077800Y0139293D01*
X0079402Y0139293D01*
X0079802Y0138893D01*
X0079802Y0138092D01*
X0079402Y0137692D01*
X0079001Y0137692D01*
X0078601Y0138092D01*
X0078601Y0139293D01*
X0079001Y0140270D02*
X0078601Y0140670D01*
X0078601Y0141871D01*
X0077800Y0141871D02*
X0079402Y0141871D01*
X0079802Y0141471D01*
X0079802Y0140670D01*
X0079402Y0140270D01*
X0079001Y0140270D01*
X0077800Y0140270D02*
X0077400Y0140670D01*
X0077400Y0141471D01*
X0077800Y0141871D01*
X0079402Y0136715D02*
X0079802Y0136314D01*
X0079802Y0135514D01*
X0079402Y0135113D01*
X0077800Y0135113D01*
X0077400Y0135514D01*
X0077333Y0153348D02*
X0078935Y0153348D01*
X0078935Y0155750D01*
X0076356Y0154949D02*
X0075556Y0155750D01*
X0075556Y0153348D01*
X0076356Y0153348D02*
X0074755Y0153348D01*
X0073778Y0153748D02*
X0073378Y0153348D01*
X0072577Y0153348D01*
X0072177Y0153748D01*
X0072177Y0154549D01*
X0072577Y0154949D01*
X0072978Y0154949D01*
X0073778Y0154549D01*
X0073778Y0155750D01*
X0072177Y0155750D01*
X0066152Y0159013D02*
X0063750Y0159013D01*
X0063750Y0160615D01*
X0063750Y0161592D02*
X0063750Y0163193D01*
X0063750Y0162392D02*
X0066152Y0162392D01*
X0065351Y0161592D01*
X0065351Y0164170D02*
X0066152Y0164970D01*
X0063750Y0164970D01*
X0063750Y0164170D02*
X0063750Y0165771D01*
X0061235Y0158850D02*
X0061235Y0156448D01*
X0059633Y0156448D01*
X0058656Y0156448D02*
X0057055Y0156448D01*
X0057856Y0156448D02*
X0057856Y0158850D01*
X0058656Y0158049D01*
X0056078Y0157649D02*
X0055278Y0158450D01*
X0054477Y0158850D01*
X0054877Y0157649D02*
X0056078Y0157649D01*
X0056078Y0156848D01*
X0055678Y0156448D01*
X0054877Y0156448D01*
X0054477Y0156848D01*
X0054477Y0157249D01*
X0054877Y0157649D01*
X0054999Y0155550D02*
X0055800Y0155550D01*
X0056200Y0155150D01*
X0056200Y0153548D01*
X0055800Y0153148D01*
X0054999Y0153148D01*
X0054599Y0153548D01*
X0053622Y0153148D02*
X0052020Y0153148D01*
X0052821Y0153148D02*
X0052821Y0155550D01*
X0053622Y0154749D01*
X0054599Y0155150D02*
X0054999Y0155550D01*
X0051044Y0155150D02*
X0050643Y0155550D01*
X0049843Y0155550D01*
X0049442Y0155150D01*
X0051044Y0153548D01*
X0050643Y0153148D01*
X0049843Y0153148D01*
X0049442Y0153548D01*
X0049442Y0155150D01*
X0048465Y0155150D02*
X0048065Y0155550D01*
X0047264Y0155550D01*
X0046864Y0155150D01*
X0046864Y0154749D01*
X0048465Y0153148D01*
X0046864Y0153148D01*
X0051044Y0153548D02*
X0051044Y0155150D01*
X0054144Y0180398D02*
X0054144Y0180798D01*
X0052542Y0182400D01*
X0052542Y0182800D01*
X0054144Y0182800D01*
X0055120Y0182400D02*
X0055120Y0181999D01*
X0055521Y0181599D01*
X0056321Y0181599D01*
X0056722Y0181999D01*
X0056722Y0182400D01*
X0056321Y0182800D01*
X0055521Y0182800D01*
X0055120Y0182400D01*
X0055521Y0181599D02*
X0055120Y0181199D01*
X0055120Y0180798D01*
X0055521Y0180398D01*
X0056321Y0180398D01*
X0056722Y0180798D01*
X0056722Y0181199D01*
X0056321Y0181599D01*
X0057699Y0181599D02*
X0058099Y0181199D01*
X0059300Y0181199D01*
X0058499Y0181199D02*
X0057699Y0180398D01*
X0057699Y0181599D02*
X0057699Y0182400D01*
X0058099Y0182800D01*
X0059300Y0182800D01*
X0059300Y0180398D01*
X0066177Y0181398D02*
X0067778Y0181398D01*
X0066978Y0181398D02*
X0066978Y0183800D01*
X0067778Y0182999D01*
X0068755Y0183400D02*
X0070356Y0181798D01*
X0069956Y0181398D01*
X0069155Y0181398D01*
X0068755Y0181798D01*
X0068755Y0183400D01*
X0069155Y0183800D01*
X0069956Y0183800D01*
X0070356Y0183400D01*
X0070356Y0181798D01*
X0071333Y0181398D02*
X0072935Y0181398D01*
X0072134Y0181398D02*
X0072134Y0183800D01*
X0072935Y0182999D01*
X0073911Y0182599D02*
X0074312Y0182199D01*
X0075513Y0182199D01*
X0074712Y0182199D02*
X0073911Y0181398D01*
X0073911Y0182599D02*
X0073911Y0183400D01*
X0074312Y0183800D01*
X0075513Y0183800D01*
X0075513Y0181398D01*
X0080477Y0182398D02*
X0080877Y0181998D01*
X0081678Y0181998D01*
X0082078Y0182398D01*
X0082078Y0182799D01*
X0081678Y0183199D01*
X0080877Y0183199D01*
X0080477Y0182799D01*
X0080477Y0182398D01*
X0080877Y0183199D02*
X0080477Y0183599D01*
X0080477Y0184000D01*
X0080877Y0184400D01*
X0081678Y0184400D01*
X0082078Y0184000D01*
X0082078Y0183599D01*
X0081678Y0183199D01*
X0083055Y0183199D02*
X0084256Y0183199D01*
X0084656Y0183599D01*
X0084656Y0184000D01*
X0084256Y0184400D01*
X0083455Y0184400D01*
X0083055Y0184000D01*
X0083055Y0182398D01*
X0083455Y0181998D01*
X0084256Y0181998D01*
X0084656Y0182398D01*
X0085633Y0181998D02*
X0086434Y0182799D01*
X0086034Y0182799D02*
X0087235Y0182799D01*
X0087235Y0181998D02*
X0087235Y0184400D01*
X0086034Y0184400D01*
X0085633Y0184000D01*
X0085633Y0183199D01*
X0086034Y0182799D01*
X0084552Y0176206D02*
X0084151Y0176206D01*
X0083751Y0175805D01*
X0083751Y0175005D01*
X0084151Y0174604D01*
X0084552Y0174604D01*
X0084952Y0175005D01*
X0084952Y0175805D01*
X0084552Y0176206D01*
X0083751Y0175805D02*
X0083351Y0176206D01*
X0082950Y0176206D01*
X0082550Y0175805D01*
X0082550Y0175005D01*
X0082950Y0174604D01*
X0083351Y0174604D01*
X0083751Y0175005D01*
X0083351Y0173628D02*
X0082950Y0173628D01*
X0082550Y0173227D01*
X0082550Y0172427D01*
X0082950Y0172026D01*
X0083351Y0172026D01*
X0083751Y0172427D01*
X0083751Y0173227D01*
X0083351Y0173628D01*
X0083751Y0173227D02*
X0084151Y0173628D01*
X0084552Y0173628D01*
X0084952Y0173227D01*
X0084952Y0172427D01*
X0084552Y0172026D01*
X0084151Y0172026D01*
X0083751Y0172427D01*
X0082950Y0171049D02*
X0082550Y0170649D01*
X0082550Y0169848D01*
X0082950Y0169448D01*
X0084552Y0169448D01*
X0084952Y0169848D01*
X0084952Y0170649D01*
X0084552Y0171049D01*
X0078152Y0170449D02*
X0078152Y0169648D01*
X0077752Y0169248D01*
X0076150Y0169248D01*
X0075750Y0169648D01*
X0075750Y0170449D01*
X0076150Y0170849D01*
X0076150Y0171826D02*
X0076551Y0171826D01*
X0076951Y0172227D01*
X0076951Y0173027D01*
X0076551Y0173428D01*
X0076150Y0173428D01*
X0075750Y0173027D01*
X0075750Y0172227D01*
X0076150Y0171826D01*
X0076951Y0172227D02*
X0077351Y0171826D01*
X0077752Y0171826D01*
X0078152Y0172227D01*
X0078152Y0173027D01*
X0077752Y0173428D01*
X0077351Y0173428D01*
X0076951Y0173027D01*
X0076951Y0174404D02*
X0076951Y0176006D01*
X0075750Y0175605D02*
X0078152Y0175605D01*
X0076951Y0174404D01*
X0077752Y0170849D02*
X0078152Y0170449D01*
X0096935Y0162661D02*
X0098137Y0161460D01*
X0096535Y0161460D01*
X0096935Y0160259D02*
X0096935Y0162661D01*
X0099113Y0162261D02*
X0099514Y0162661D01*
X0100314Y0162661D01*
X0100715Y0162261D01*
X0101692Y0162661D02*
X0101692Y0160659D01*
X0102092Y0160259D01*
X0102893Y0160259D01*
X0103293Y0160659D01*
X0103293Y0162661D01*
X0100715Y0160259D02*
X0099113Y0161860D01*
X0099113Y0162261D01*
X0099113Y0160259D02*
X0100715Y0160259D01*
X0110650Y0172548D02*
X0110250Y0172948D01*
X0110250Y0173749D01*
X0110650Y0174149D01*
X0110650Y0175126D02*
X0111051Y0175126D01*
X0111451Y0175527D01*
X0111451Y0176327D01*
X0111051Y0176728D01*
X0110650Y0176728D01*
X0110250Y0176327D01*
X0110250Y0175527D01*
X0110650Y0175126D01*
X0111451Y0175527D02*
X0111851Y0175126D01*
X0112252Y0175126D01*
X0112652Y0175527D01*
X0112652Y0176327D01*
X0112252Y0176728D01*
X0111851Y0176728D01*
X0111451Y0176327D01*
X0111851Y0177704D02*
X0112652Y0178505D01*
X0110250Y0178505D01*
X0110250Y0177704D02*
X0110250Y0179306D01*
X0112252Y0174149D02*
X0112652Y0173749D01*
X0112652Y0172948D01*
X0112252Y0172548D01*
X0110650Y0172548D01*
X0111777Y0194798D02*
X0111377Y0195198D01*
X0111377Y0195599D01*
X0111777Y0195999D01*
X0112978Y0195999D01*
X0112978Y0195198D01*
X0112578Y0194798D01*
X0111777Y0194798D01*
X0112978Y0195999D02*
X0112178Y0196800D01*
X0111377Y0197200D01*
X0113955Y0197200D02*
X0113955Y0196800D01*
X0115556Y0195198D01*
X0115556Y0194798D01*
X0116533Y0194798D02*
X0118135Y0194798D01*
X0117334Y0194798D02*
X0117334Y0197200D01*
X0118135Y0196399D01*
X0119111Y0195999D02*
X0119512Y0195599D01*
X0120713Y0195599D01*
X0119912Y0195599D02*
X0119111Y0194798D01*
X0119111Y0195999D02*
X0119111Y0196800D01*
X0119512Y0197200D01*
X0120713Y0197200D01*
X0120713Y0194798D01*
X0115556Y0197200D02*
X0113955Y0197200D01*
X0110612Y0206598D02*
X0109812Y0206598D01*
X0109411Y0206998D01*
X0108435Y0206598D02*
X0106833Y0206598D01*
X0107634Y0206598D02*
X0107634Y0209000D01*
X0108435Y0208199D01*
X0109411Y0208600D02*
X0109812Y0209000D01*
X0110612Y0209000D01*
X0111013Y0208600D01*
X0111013Y0206998D01*
X0110612Y0206598D01*
X0105856Y0206998D02*
X0105456Y0206598D01*
X0104655Y0206598D01*
X0104255Y0206998D01*
X0104255Y0207799D01*
X0104655Y0208199D01*
X0105056Y0208199D01*
X0105856Y0207799D01*
X0105856Y0209000D01*
X0104255Y0209000D01*
X0103278Y0208600D02*
X0102878Y0209000D01*
X0102077Y0209000D01*
X0101677Y0208600D01*
X0101677Y0208199D01*
X0102077Y0207799D01*
X0101677Y0207399D01*
X0101677Y0206998D01*
X0102077Y0206598D01*
X0102878Y0206598D01*
X0103278Y0206998D01*
X0102478Y0207799D02*
X0102077Y0207799D01*
X0101478Y0218798D02*
X0101878Y0219198D01*
X0101478Y0218798D02*
X0100677Y0218798D01*
X0100277Y0219198D01*
X0100277Y0219999D01*
X0100677Y0220399D01*
X0101078Y0220399D01*
X0101878Y0219999D01*
X0101878Y0221200D01*
X0100277Y0221200D01*
X0102855Y0221200D02*
X0102855Y0220800D01*
X0104456Y0219198D01*
X0104456Y0218798D01*
X0105433Y0218798D02*
X0107035Y0218798D01*
X0106234Y0218798D02*
X0106234Y0221200D01*
X0107035Y0220399D01*
X0108011Y0219999D02*
X0108412Y0219599D01*
X0109613Y0219599D01*
X0108812Y0219599D02*
X0108011Y0218798D01*
X0108011Y0219999D02*
X0108011Y0220800D01*
X0108412Y0221200D01*
X0109613Y0221200D01*
X0109613Y0218798D01*
X0104456Y0221200D02*
X0102855Y0221200D01*
X0103364Y0226998D02*
X0104965Y0226998D01*
X0104165Y0226998D02*
X0104165Y0229400D01*
X0104965Y0228599D01*
X0105942Y0229000D02*
X0107544Y0227398D01*
X0107544Y0226998D01*
X0108520Y0226998D02*
X0110122Y0226998D01*
X0109321Y0226998D02*
X0109321Y0229400D01*
X0110122Y0228599D01*
X0111099Y0228199D02*
X0111499Y0227799D01*
X0112700Y0227799D01*
X0111899Y0227799D02*
X0111099Y0226998D01*
X0111099Y0228199D02*
X0111099Y0229000D01*
X0111499Y0229400D01*
X0112700Y0229400D01*
X0112700Y0226998D01*
X0112700Y0230598D02*
X0112700Y0233000D01*
X0111499Y0233000D01*
X0111099Y0232600D01*
X0111099Y0231799D01*
X0111499Y0231399D01*
X0112700Y0231399D01*
X0111899Y0231399D02*
X0111099Y0230598D01*
X0110122Y0230598D02*
X0108520Y0230598D01*
X0109321Y0230598D02*
X0109321Y0233000D01*
X0110122Y0232199D01*
X0107544Y0233000D02*
X0105942Y0233000D01*
X0105942Y0232600D01*
X0107544Y0230998D01*
X0107544Y0230598D01*
X0107544Y0229400D02*
X0105942Y0229400D01*
X0105942Y0229000D01*
X0103764Y0230598D02*
X0103764Y0233000D01*
X0104965Y0231799D01*
X0103364Y0231799D01*
X0115964Y0233598D02*
X0116364Y0233198D01*
X0117165Y0233198D01*
X0117565Y0233598D01*
X0116765Y0234399D02*
X0116364Y0234399D01*
X0115964Y0233999D01*
X0115964Y0233598D01*
X0116364Y0234399D02*
X0115964Y0234799D01*
X0115964Y0235200D01*
X0116364Y0235600D01*
X0117165Y0235600D01*
X0117565Y0235200D01*
X0118542Y0235200D02*
X0120144Y0233598D01*
X0120144Y0233198D01*
X0121120Y0233198D02*
X0122722Y0233198D01*
X0121921Y0233198D02*
X0121921Y0235600D01*
X0122722Y0234799D01*
X0123699Y0234399D02*
X0124099Y0233999D01*
X0125300Y0233999D01*
X0124499Y0233999D02*
X0123699Y0233198D01*
X0123699Y0234399D02*
X0123699Y0235200D01*
X0124099Y0235600D01*
X0125300Y0235600D01*
X0125300Y0233198D01*
X0120144Y0235600D02*
X0118542Y0235600D01*
X0118542Y0235200D01*
X0124500Y0212746D02*
X0124500Y0211145D01*
X0124500Y0211946D02*
X0126902Y0211946D01*
X0126101Y0211145D01*
X0126502Y0210168D02*
X0126902Y0209768D01*
X0126902Y0208967D01*
X0126502Y0208567D01*
X0124900Y0208567D01*
X0124500Y0208967D01*
X0124500Y0209768D01*
X0124900Y0210168D01*
X0124500Y0207649D02*
X0124500Y0206848D01*
X0124500Y0207248D02*
X0126902Y0207248D01*
X0126902Y0206848D02*
X0126902Y0207649D01*
X0129665Y0204300D02*
X0129665Y0201898D01*
X0130465Y0201898D02*
X0128864Y0201898D01*
X0130465Y0203499D02*
X0129665Y0204300D01*
X0131442Y0203900D02*
X0133044Y0202298D01*
X0132643Y0201898D01*
X0131843Y0201898D01*
X0131442Y0202298D01*
X0131442Y0203900D01*
X0131843Y0204300D01*
X0132643Y0204300D01*
X0133044Y0203900D01*
X0133044Y0202298D01*
X0134020Y0201898D02*
X0135622Y0201898D01*
X0134821Y0201898D02*
X0134821Y0204300D01*
X0135622Y0203499D01*
X0136599Y0203900D02*
X0136999Y0204300D01*
X0137800Y0204300D01*
X0138200Y0203900D01*
X0138200Y0202298D01*
X0137800Y0201898D01*
X0136999Y0201898D01*
X0136599Y0202298D01*
X0143350Y0203548D02*
X0145752Y0203548D01*
X0145752Y0204749D01*
X0145352Y0205149D01*
X0144551Y0205149D01*
X0144151Y0204749D01*
X0144151Y0203548D01*
X0144151Y0204349D02*
X0143350Y0205149D01*
X0143350Y0206126D02*
X0143350Y0207728D01*
X0143350Y0206927D02*
X0145752Y0206927D01*
X0144951Y0206126D01*
X0145752Y0208704D02*
X0145752Y0210306D01*
X0145352Y0210306D01*
X0143750Y0208704D01*
X0143350Y0208704D01*
X0143350Y0211283D02*
X0143750Y0211283D01*
X0145352Y0212884D01*
X0145752Y0212884D01*
X0145752Y0211283D01*
X0150350Y0211683D02*
X0150750Y0211283D01*
X0151151Y0211283D01*
X0151551Y0211683D01*
X0151551Y0212484D01*
X0151151Y0212884D01*
X0150750Y0212884D01*
X0150350Y0212484D01*
X0150350Y0211683D01*
X0151551Y0211683D02*
X0151951Y0211283D01*
X0152352Y0211283D01*
X0152752Y0211683D01*
X0152752Y0212484D01*
X0152352Y0212884D01*
X0151951Y0212884D01*
X0151551Y0212484D01*
X0152352Y0210306D02*
X0150750Y0208704D01*
X0150350Y0208704D01*
X0150350Y0207728D02*
X0150350Y0206126D01*
X0150350Y0206927D02*
X0152752Y0206927D01*
X0151951Y0206126D01*
X0151551Y0205149D02*
X0151151Y0204749D01*
X0151151Y0203548D01*
X0151151Y0204349D02*
X0150350Y0205149D01*
X0151551Y0205149D02*
X0152352Y0205149D01*
X0152752Y0204749D01*
X0152752Y0203548D01*
X0150350Y0203548D01*
X0152752Y0208704D02*
X0152752Y0210306D01*
X0152352Y0210306D01*
X0156619Y0197315D02*
X0156219Y0196914D01*
X0156219Y0196514D01*
X0156619Y0196114D01*
X0157420Y0196114D01*
X0157820Y0196514D01*
X0157820Y0196914D01*
X0157420Y0197315D01*
X0156619Y0197315D01*
X0156619Y0196114D02*
X0156219Y0195713D01*
X0156219Y0195313D01*
X0156619Y0194913D01*
X0157420Y0194913D01*
X0157820Y0195313D01*
X0157820Y0195713D01*
X0157420Y0196114D01*
X0158797Y0196514D02*
X0158797Y0196914D01*
X0159197Y0197315D01*
X0159998Y0197315D01*
X0160398Y0196914D01*
X0161375Y0197315D02*
X0161375Y0195313D01*
X0161775Y0194913D01*
X0162576Y0194913D01*
X0162976Y0195313D01*
X0162976Y0197315D01*
X0160398Y0194913D02*
X0158797Y0196514D01*
X0158797Y0194913D02*
X0160398Y0194913D01*
X0155700Y0231098D02*
X0155700Y0233500D01*
X0154499Y0233500D01*
X0154099Y0233100D01*
X0154099Y0232299D01*
X0154499Y0231899D01*
X0155700Y0231899D01*
X0154899Y0231899D02*
X0154099Y0231098D01*
X0153122Y0231098D02*
X0151520Y0231098D01*
X0152321Y0231098D02*
X0152321Y0233500D01*
X0153122Y0232699D01*
X0150544Y0233500D02*
X0148942Y0233500D01*
X0148942Y0233100D01*
X0150544Y0231498D01*
X0150544Y0231098D01*
X0147965Y0231098D02*
X0146364Y0232699D01*
X0146364Y0233100D01*
X0146764Y0233500D01*
X0147565Y0233500D01*
X0147965Y0233100D01*
X0147965Y0231098D02*
X0146364Y0231098D01*
X0146702Y0246502D02*
X0146702Y0247703D01*
X0146302Y0248104D01*
X0144700Y0248104D01*
X0144300Y0247703D01*
X0144300Y0246502D01*
X0146702Y0246502D01*
X0146302Y0249081D02*
X0146702Y0249481D01*
X0146702Y0250282D01*
X0146302Y0250682D01*
X0145901Y0250682D01*
X0145501Y0250282D01*
X0145101Y0250682D01*
X0144700Y0250682D01*
X0144300Y0250282D01*
X0144300Y0249481D01*
X0144700Y0249081D01*
X0145501Y0249881D02*
X0145501Y0250282D01*
X0145501Y0251659D02*
X0145501Y0253260D01*
X0144300Y0252860D02*
X0146702Y0252860D01*
X0145501Y0251659D01*
X0100158Y0273824D02*
X0098156Y0273824D01*
X0097756Y0274225D01*
X0097756Y0275025D01*
X0098156Y0275426D01*
X0100158Y0275426D01*
X0099758Y0276403D02*
X0100158Y0276803D01*
X0100158Y0277604D01*
X0099758Y0278004D01*
X0099357Y0278004D01*
X0097756Y0276403D01*
X0097756Y0278004D01*
X0098156Y0278981D02*
X0097756Y0279381D01*
X0097756Y0280182D01*
X0098156Y0280582D01*
X0098957Y0280582D01*
X0099357Y0280182D01*
X0099357Y0279782D01*
X0098957Y0278981D01*
X0100158Y0278981D01*
X0100158Y0280582D01*
X0107800Y0305748D02*
X0107800Y0306949D01*
X0108200Y0307349D01*
X0109802Y0307349D01*
X0110202Y0306949D01*
X0110202Y0305748D01*
X0107800Y0305748D01*
X0107800Y0308326D02*
X0109401Y0309928D01*
X0109802Y0309928D01*
X0110202Y0309527D01*
X0110202Y0308727D01*
X0109802Y0308326D01*
X0107800Y0308326D02*
X0107800Y0309928D01*
X0108200Y0310904D02*
X0108601Y0310904D01*
X0109001Y0311305D01*
X0109001Y0312105D01*
X0108601Y0312506D01*
X0108200Y0312506D01*
X0107800Y0312105D01*
X0107800Y0311305D01*
X0108200Y0310904D01*
X0109001Y0311305D02*
X0109401Y0310904D01*
X0109802Y0310904D01*
X0110202Y0311305D01*
X0110202Y0312105D01*
X0109802Y0312506D01*
X0109401Y0312506D01*
X0109001Y0312105D01*
X0142764Y0404662D02*
X0142364Y0405063D01*
X0142364Y0405864D01*
X0142764Y0406264D01*
X0144766Y0406264D01*
X0144365Y0407241D02*
X0144766Y0407641D01*
X0144766Y0408442D01*
X0144365Y0408842D01*
X0143965Y0408842D01*
X0143565Y0408442D01*
X0143164Y0408842D01*
X0142764Y0408842D01*
X0142364Y0408442D01*
X0142364Y0407641D01*
X0142764Y0407241D01*
X0143565Y0408041D02*
X0143565Y0408442D01*
X0142764Y0404662D02*
X0144766Y0404662D01*
X0132700Y0416498D02*
X0132700Y0418900D01*
X0131499Y0418900D01*
X0131099Y0418500D01*
X0131099Y0417699D01*
X0131499Y0417299D01*
X0132700Y0417299D01*
X0131899Y0417299D02*
X0131099Y0416498D01*
X0130122Y0416498D02*
X0128520Y0416498D01*
X0129321Y0416498D02*
X0129321Y0418900D01*
X0130122Y0418099D01*
X0127544Y0418500D02*
X0127143Y0418900D01*
X0126343Y0418900D01*
X0125942Y0418500D01*
X0125942Y0418099D01*
X0127544Y0416498D01*
X0125942Y0416498D01*
X0117400Y0417198D02*
X0117000Y0416798D01*
X0116199Y0416798D01*
X0115799Y0417198D01*
X0114822Y0417198D02*
X0114822Y0416798D01*
X0114822Y0417198D02*
X0113220Y0418800D01*
X0113220Y0419200D01*
X0114822Y0419200D01*
X0115799Y0418800D02*
X0116199Y0419200D01*
X0117000Y0419200D01*
X0117400Y0418800D01*
X0117400Y0417198D01*
X0102967Y0445048D02*
X0101766Y0445048D01*
X0101366Y0445448D01*
X0101366Y0447050D01*
X0101766Y0447450D01*
X0102967Y0447450D01*
X0102967Y0445048D01*
X0100389Y0445048D02*
X0098788Y0446649D01*
X0098788Y0447050D01*
X0099188Y0447450D01*
X0099989Y0447450D01*
X0100389Y0447050D01*
X0100389Y0445048D02*
X0098788Y0445048D01*
X0097811Y0445448D02*
X0097411Y0445048D01*
X0096610Y0445048D01*
X0096210Y0445448D01*
X0096210Y0447050D01*
X0096610Y0447450D01*
X0097411Y0447450D01*
X0097811Y0447050D01*
X0097811Y0446649D01*
X0097411Y0446249D01*
X0096210Y0446249D01*
X0090952Y0451435D02*
X0089350Y0451435D01*
X0088950Y0451836D01*
X0088950Y0452636D01*
X0089350Y0453037D01*
X0088950Y0454013D02*
X0088950Y0455615D01*
X0088950Y0454814D02*
X0091352Y0454814D01*
X0090551Y0454013D01*
X0090952Y0453037D02*
X0091352Y0452636D01*
X0091352Y0451836D01*
X0090952Y0451435D01*
X0090952Y0456592D02*
X0091352Y0456992D01*
X0091352Y0457793D01*
X0090952Y0458193D01*
X0089350Y0456592D01*
X0088950Y0456992D01*
X0088950Y0457793D01*
X0089350Y0458193D01*
X0090952Y0458193D01*
X0090151Y0459170D02*
X0090151Y0460771D01*
X0088950Y0460371D02*
X0091352Y0460371D01*
X0090151Y0459170D01*
X0089350Y0456592D02*
X0090952Y0456592D01*
X0087500Y0474298D02*
X0087500Y0476700D01*
X0086299Y0476700D01*
X0085899Y0476300D01*
X0085899Y0475499D01*
X0086299Y0475099D01*
X0087500Y0475099D01*
X0086699Y0475099D02*
X0085899Y0474298D01*
X0084922Y0474698D02*
X0084521Y0474298D01*
X0083721Y0474298D01*
X0083320Y0474698D01*
X0083320Y0476300D01*
X0083721Y0476700D01*
X0084521Y0476700D01*
X0084922Y0476300D01*
X0084922Y0475899D01*
X0084521Y0475499D01*
X0083320Y0475499D01*
X0082344Y0475499D02*
X0081143Y0475499D01*
X0080742Y0475099D01*
X0080742Y0474698D01*
X0081143Y0474298D01*
X0081943Y0474298D01*
X0082344Y0474698D01*
X0082344Y0475499D01*
X0081543Y0476300D01*
X0080742Y0476700D01*
X0122056Y0495825D02*
X0122056Y0496625D01*
X0122456Y0497026D01*
X0124458Y0497026D01*
X0124058Y0498003D02*
X0124458Y0498403D01*
X0124458Y0499204D01*
X0124058Y0499604D01*
X0123657Y0499604D01*
X0122056Y0498003D01*
X0122056Y0499604D01*
X0122456Y0500581D02*
X0122056Y0500981D01*
X0122056Y0501782D01*
X0122456Y0502182D01*
X0122857Y0502182D01*
X0123257Y0501782D01*
X0123257Y0500581D01*
X0122456Y0500581D01*
X0123257Y0500581D02*
X0124058Y0501382D01*
X0124458Y0502182D01*
X0124458Y0495424D02*
X0122456Y0495424D01*
X0122056Y0495825D01*
X0208150Y0500714D02*
X0208150Y0501514D01*
X0208550Y0501915D01*
X0208550Y0502892D02*
X0208150Y0503292D01*
X0208150Y0504093D01*
X0208550Y0504493D01*
X0208951Y0504493D01*
X0209351Y0504093D01*
X0209351Y0503692D01*
X0209351Y0504093D02*
X0209751Y0504493D01*
X0210152Y0504493D01*
X0210552Y0504093D01*
X0210552Y0503292D01*
X0210152Y0502892D01*
X0210152Y0501915D02*
X0210552Y0501514D01*
X0210552Y0500714D01*
X0210152Y0500313D01*
X0208550Y0500313D01*
X0208150Y0500714D01*
X0208150Y0505470D02*
X0208550Y0505470D01*
X0210152Y0507071D01*
X0210552Y0507071D01*
X0210552Y0505470D01*
X0276464Y0457178D02*
X0277265Y0456778D01*
X0278065Y0455977D01*
X0276864Y0455977D01*
X0276464Y0455577D01*
X0276464Y0455176D01*
X0276864Y0454776D01*
X0277665Y0454776D01*
X0278065Y0455176D01*
X0278065Y0455977D01*
X0279042Y0455577D02*
X0279042Y0455176D01*
X0279443Y0454776D01*
X0280243Y0454776D01*
X0280644Y0455176D01*
X0281620Y0454776D02*
X0283222Y0454776D01*
X0282421Y0454776D02*
X0282421Y0457178D01*
X0283222Y0456377D01*
X0284199Y0455977D02*
X0284599Y0455577D01*
X0285800Y0455577D01*
X0284999Y0455577D02*
X0284199Y0454776D01*
X0284199Y0455977D02*
X0284199Y0456778D01*
X0284599Y0457178D01*
X0285800Y0457178D01*
X0285800Y0454776D01*
X0280644Y0456778D02*
X0280243Y0457178D01*
X0279443Y0457178D01*
X0279042Y0456778D01*
X0279042Y0456377D01*
X0279443Y0455977D01*
X0279042Y0455577D01*
X0279443Y0455977D02*
X0279843Y0455977D01*
X0282722Y0447106D02*
X0282322Y0446705D01*
X0282322Y0445905D01*
X0282722Y0445504D01*
X0284324Y0447106D01*
X0282722Y0447106D01*
X0282722Y0445504D02*
X0284324Y0445504D01*
X0284724Y0445905D01*
X0284724Y0446705D01*
X0284324Y0447106D01*
X0282322Y0444528D02*
X0282322Y0442926D01*
X0282322Y0443727D02*
X0284724Y0443727D01*
X0283923Y0442926D01*
X0284324Y0441949D02*
X0282722Y0441949D01*
X0282322Y0441549D01*
X0282322Y0440748D01*
X0282722Y0440348D01*
X0284324Y0440348D01*
X0284724Y0440748D01*
X0284724Y0441549D01*
X0284324Y0441949D01*
X0283123Y0441149D02*
X0282322Y0441949D01*
X0298697Y0428552D02*
X0298697Y0428152D01*
X0299097Y0427751D01*
X0299898Y0427751D01*
X0300298Y0428152D01*
X0300298Y0428552D01*
X0299898Y0428952D01*
X0299097Y0428952D01*
X0298697Y0428552D01*
X0299097Y0427751D02*
X0298697Y0427351D01*
X0298697Y0426951D01*
X0299097Y0426550D01*
X0299898Y0426550D01*
X0300298Y0426951D01*
X0300298Y0427351D01*
X0299898Y0427751D01*
X0301275Y0427351D02*
X0301275Y0426951D01*
X0301675Y0426550D01*
X0302476Y0426550D01*
X0302876Y0426951D01*
X0303853Y0426951D02*
X0303853Y0428552D01*
X0304253Y0428952D01*
X0305454Y0428952D01*
X0305454Y0426550D01*
X0304253Y0426550D01*
X0303853Y0426951D01*
X0302876Y0428552D02*
X0302476Y0428952D01*
X0301675Y0428952D01*
X0301275Y0428552D01*
X0301275Y0428152D01*
X0301675Y0427751D01*
X0301275Y0427351D01*
X0301675Y0427751D02*
X0302075Y0427751D01*
X0318045Y0427202D02*
X0318445Y0427603D01*
X0319646Y0427603D01*
X0319646Y0426802D01*
X0319246Y0426402D01*
X0318445Y0426402D01*
X0318045Y0426802D01*
X0318045Y0427202D01*
X0318845Y0428403D02*
X0319646Y0427603D01*
X0320623Y0428003D02*
X0321023Y0427603D01*
X0320623Y0427202D01*
X0320623Y0426802D01*
X0321023Y0426402D01*
X0321824Y0426402D01*
X0322224Y0426802D01*
X0323201Y0426802D02*
X0323201Y0428403D01*
X0323601Y0428804D01*
X0324802Y0428804D01*
X0324802Y0426402D01*
X0323601Y0426402D01*
X0323201Y0426802D01*
X0322224Y0428403D02*
X0321824Y0428804D01*
X0321023Y0428804D01*
X0320623Y0428403D01*
X0320623Y0428003D01*
X0321023Y0427603D02*
X0321423Y0427603D01*
X0318845Y0428403D02*
X0318045Y0428804D01*
X0340922Y0441248D02*
X0341322Y0440848D01*
X0342924Y0440848D01*
X0343324Y0441248D01*
X0343324Y0442049D01*
X0342924Y0442449D01*
X0341322Y0442449D01*
X0340922Y0442049D01*
X0340922Y0441248D01*
X0341723Y0441649D02*
X0340922Y0442449D01*
X0341322Y0443426D02*
X0341723Y0443426D01*
X0342123Y0443827D01*
X0342123Y0444627D01*
X0341723Y0445028D01*
X0341322Y0445028D01*
X0340922Y0444627D01*
X0340922Y0443827D01*
X0341322Y0443426D01*
X0342123Y0443827D02*
X0342523Y0443426D01*
X0342924Y0443426D01*
X0343324Y0443827D01*
X0343324Y0444627D01*
X0342924Y0445028D01*
X0342523Y0445028D01*
X0342123Y0444627D01*
X0342355Y0457320D02*
X0343156Y0457320D01*
X0343556Y0457720D01*
X0344533Y0457320D02*
X0346135Y0457320D01*
X0345334Y0457320D02*
X0345334Y0459722D01*
X0346135Y0458921D01*
X0347111Y0458521D02*
X0347111Y0459322D01*
X0347512Y0459722D01*
X0348713Y0459722D01*
X0348713Y0457320D01*
X0348713Y0458121D02*
X0347512Y0458121D01*
X0347111Y0458521D01*
X0347912Y0458121D02*
X0347111Y0457320D01*
X0343556Y0459322D02*
X0343156Y0459722D01*
X0342355Y0459722D01*
X0341955Y0459322D01*
X0341955Y0458921D01*
X0342355Y0458521D01*
X0341955Y0458121D01*
X0341955Y0457720D01*
X0342355Y0457320D01*
X0342355Y0458521D02*
X0342756Y0458521D01*
X0340978Y0459322D02*
X0340578Y0459722D01*
X0339777Y0459722D01*
X0339377Y0459322D01*
X0339377Y0458921D01*
X0340978Y0457320D01*
X0339377Y0457320D01*
X0337613Y0466976D02*
X0337613Y0469378D01*
X0336412Y0469378D01*
X0336011Y0468978D01*
X0336011Y0468177D01*
X0336412Y0467777D01*
X0337613Y0467777D01*
X0336812Y0467777D02*
X0336011Y0466976D01*
X0335035Y0466976D02*
X0333433Y0466976D01*
X0334234Y0466976D02*
X0334234Y0469378D01*
X0335035Y0468577D01*
X0332456Y0468978D02*
X0332056Y0469378D01*
X0331255Y0469378D01*
X0330855Y0468978D01*
X0330855Y0468577D01*
X0331255Y0468177D01*
X0330855Y0467777D01*
X0330855Y0467376D01*
X0331255Y0466976D01*
X0332056Y0466976D01*
X0332456Y0467376D01*
X0331656Y0468177D02*
X0331255Y0468177D01*
X0329878Y0468577D02*
X0329078Y0469378D01*
X0329078Y0466976D01*
X0329878Y0466976D02*
X0328277Y0466976D01*
X0323600Y0461950D02*
X0322399Y0461950D01*
X0321999Y0461550D01*
X0321999Y0460749D01*
X0322399Y0460349D01*
X0323600Y0460349D01*
X0322799Y0460349D02*
X0321999Y0459548D01*
X0321022Y0459548D02*
X0319420Y0459548D01*
X0320221Y0459548D02*
X0320221Y0461950D01*
X0321022Y0461149D01*
X0318444Y0461550D02*
X0318043Y0461950D01*
X0317243Y0461950D01*
X0316842Y0461550D01*
X0316842Y0461149D01*
X0317243Y0460749D01*
X0316842Y0460349D01*
X0316842Y0459948D01*
X0317243Y0459548D01*
X0318043Y0459548D01*
X0318444Y0459948D01*
X0317643Y0460749D02*
X0317243Y0460749D01*
X0315865Y0460349D02*
X0315465Y0460749D01*
X0314664Y0460749D01*
X0314264Y0460349D01*
X0314264Y0459948D01*
X0314664Y0459548D01*
X0315465Y0459548D01*
X0315865Y0459948D01*
X0315865Y0460349D01*
X0315465Y0460749D02*
X0315865Y0461149D01*
X0315865Y0461550D01*
X0315465Y0461950D01*
X0314664Y0461950D01*
X0314264Y0461550D01*
X0314264Y0461149D01*
X0314664Y0460749D01*
X0311913Y0460048D02*
X0311512Y0459648D01*
X0310712Y0459648D01*
X0310311Y0460048D01*
X0309335Y0459648D02*
X0307733Y0459648D01*
X0308534Y0459648D02*
X0308534Y0462050D01*
X0309335Y0461249D01*
X0310311Y0461650D02*
X0310712Y0462050D01*
X0311512Y0462050D01*
X0311913Y0461650D01*
X0311913Y0460048D01*
X0306756Y0460048D02*
X0306356Y0459648D01*
X0305555Y0459648D01*
X0305155Y0460048D01*
X0305155Y0460449D01*
X0305555Y0460849D01*
X0305956Y0460849D01*
X0305555Y0460849D02*
X0305155Y0461249D01*
X0305155Y0461650D01*
X0305555Y0462050D01*
X0306356Y0462050D01*
X0306756Y0461650D01*
X0304178Y0461650D02*
X0304178Y0461249D01*
X0303778Y0460849D01*
X0302977Y0460849D01*
X0302577Y0460449D01*
X0302577Y0460048D01*
X0302977Y0459648D01*
X0303778Y0459648D01*
X0304178Y0460048D01*
X0304178Y0460449D01*
X0303778Y0460849D01*
X0302977Y0460849D02*
X0302577Y0461249D01*
X0302577Y0461650D01*
X0302977Y0462050D01*
X0303778Y0462050D01*
X0304178Y0461650D01*
X0297113Y0466676D02*
X0297113Y0469078D01*
X0295912Y0469078D01*
X0295511Y0468678D01*
X0295511Y0467877D01*
X0295912Y0467477D01*
X0297113Y0467477D01*
X0296312Y0467477D02*
X0295511Y0466676D01*
X0294535Y0466676D02*
X0292933Y0466676D01*
X0293734Y0466676D02*
X0293734Y0469078D01*
X0294535Y0468277D01*
X0291956Y0468678D02*
X0291556Y0469078D01*
X0290755Y0469078D01*
X0290355Y0468678D01*
X0290355Y0468277D01*
X0290755Y0467877D01*
X0290355Y0467477D01*
X0290355Y0467076D01*
X0290755Y0466676D01*
X0291556Y0466676D01*
X0291956Y0467076D01*
X0291156Y0467877D02*
X0290755Y0467877D01*
X0289378Y0467877D02*
X0288578Y0468277D01*
X0288177Y0468277D01*
X0287777Y0467877D01*
X0287777Y0467076D01*
X0288177Y0466676D01*
X0288978Y0466676D01*
X0289378Y0467076D01*
X0289378Y0467877D02*
X0289378Y0469078D01*
X0287777Y0469078D01*
X0303525Y0495598D02*
X0303125Y0495998D01*
X0303125Y0497600D01*
X0303525Y0498000D01*
X0304326Y0498000D01*
X0304726Y0497600D01*
X0304726Y0497199D01*
X0304326Y0496799D01*
X0303125Y0496799D01*
X0303525Y0495598D02*
X0304326Y0495598D01*
X0304726Y0495998D01*
X0305703Y0495598D02*
X0307305Y0495598D01*
X0306504Y0495598D02*
X0306504Y0498000D01*
X0307305Y0497199D01*
X0308281Y0495598D02*
X0309883Y0495598D01*
X0309082Y0495598D02*
X0309082Y0498000D01*
X0309883Y0497199D01*
X0310860Y0497600D02*
X0311260Y0498000D01*
X0312061Y0498000D01*
X0312461Y0497600D01*
X0312461Y0495998D01*
X0312061Y0495598D01*
X0311260Y0495598D01*
X0310860Y0495998D01*
X0321725Y0497298D02*
X0322125Y0496898D01*
X0322926Y0496898D01*
X0323326Y0497298D01*
X0323326Y0498099D01*
X0322125Y0498099D01*
X0321725Y0497699D01*
X0321725Y0497298D01*
X0323326Y0498099D02*
X0322526Y0498900D01*
X0321725Y0499300D01*
X0324303Y0498900D02*
X0324704Y0499300D01*
X0325504Y0499300D01*
X0325905Y0498900D01*
X0324303Y0498900D02*
X0324303Y0498499D01*
X0325905Y0496898D01*
X0324303Y0496898D01*
X0326881Y0496898D02*
X0328483Y0496898D01*
X0327682Y0496898D02*
X0327682Y0499300D01*
X0328483Y0498499D01*
X0329460Y0498099D02*
X0329860Y0497699D01*
X0331061Y0497699D01*
X0330260Y0497699D02*
X0329460Y0496898D01*
X0329460Y0498099D02*
X0329460Y0498900D01*
X0329860Y0499300D01*
X0331061Y0499300D01*
X0331061Y0496898D01*
X0323600Y0461950D02*
X0323600Y0459548D01*
X0297169Y0382033D02*
X0297169Y0380431D01*
X0297169Y0381232D02*
X0299571Y0381232D01*
X0298771Y0380431D01*
X0299171Y0379454D02*
X0299571Y0379054D01*
X0299571Y0377853D01*
X0297169Y0377853D01*
X0297169Y0379054D01*
X0297570Y0379454D01*
X0299171Y0379454D01*
X0417764Y0378400D02*
X0417764Y0377999D01*
X0418164Y0377599D01*
X0417764Y0377199D01*
X0417764Y0376798D01*
X0418164Y0376398D01*
X0418965Y0376398D01*
X0419365Y0376798D01*
X0418565Y0377599D02*
X0418164Y0377599D01*
X0417764Y0378400D02*
X0418164Y0378800D01*
X0418965Y0378800D01*
X0419365Y0378400D01*
X0420342Y0377599D02*
X0421944Y0377599D01*
X0420743Y0378800D01*
X0420743Y0376398D01*
X0422920Y0376398D02*
X0424522Y0376398D01*
X0423721Y0376398D02*
X0423721Y0378800D01*
X0424522Y0377999D01*
X0425499Y0378400D02*
X0425899Y0378800D01*
X0426700Y0378800D01*
X0427100Y0378400D01*
X0427100Y0376798D01*
X0426700Y0376398D01*
X0425899Y0376398D01*
X0425499Y0376798D01*
X0424421Y0329500D02*
X0424421Y0327098D01*
X0425222Y0327098D02*
X0423620Y0327098D01*
X0422644Y0328299D02*
X0421042Y0328299D01*
X0420065Y0329100D02*
X0419665Y0329500D01*
X0418864Y0329500D01*
X0418464Y0329100D01*
X0418464Y0328699D01*
X0420065Y0327098D01*
X0418464Y0327098D01*
X0421443Y0327098D02*
X0421443Y0329500D01*
X0422644Y0328299D01*
X0424421Y0329500D02*
X0425222Y0328699D01*
X0426199Y0329100D02*
X0426599Y0329500D01*
X0427400Y0329500D01*
X0427800Y0329100D01*
X0427800Y0327498D01*
X0427400Y0327098D01*
X0426599Y0327098D01*
X0426199Y0327498D01*
X0480820Y0235810D02*
X0480820Y0235410D01*
X0482422Y0233809D01*
X0482422Y0233408D01*
X0483399Y0233408D02*
X0484199Y0234209D01*
X0483799Y0234209D02*
X0485000Y0234209D01*
X0485000Y0233408D02*
X0485000Y0235810D01*
X0483799Y0235810D01*
X0483399Y0235410D01*
X0483399Y0234609D01*
X0483799Y0234209D01*
X0482422Y0235810D02*
X0480820Y0235810D01*
X0473062Y0229671D02*
X0473062Y0228070D01*
X0471861Y0228070D01*
X0472262Y0228870D01*
X0472262Y0229271D01*
X0471861Y0229671D01*
X0471061Y0229671D01*
X0470660Y0229271D01*
X0470660Y0228470D01*
X0471061Y0228070D01*
X0470660Y0227093D02*
X0470660Y0225492D01*
X0470660Y0226292D02*
X0473062Y0226292D01*
X0472262Y0225492D01*
X0472662Y0224515D02*
X0473062Y0224114D01*
X0473062Y0223314D01*
X0472662Y0222913D01*
X0471061Y0222913D01*
X0470660Y0223314D01*
X0470660Y0224114D01*
X0471061Y0224515D01*
X0501153Y0204000D02*
X0501153Y0201598D01*
X0501954Y0201598D02*
X0500352Y0201598D01*
X0501954Y0203199D02*
X0501153Y0204000D01*
X0503731Y0204000D02*
X0503731Y0201598D01*
X0502931Y0201598D02*
X0504532Y0201598D01*
X0505509Y0201598D02*
X0506310Y0202399D01*
X0505909Y0202399D02*
X0507110Y0202399D01*
X0507110Y0201598D02*
X0507110Y0204000D01*
X0505909Y0204000D01*
X0505509Y0203600D01*
X0505509Y0202799D01*
X0505909Y0202399D01*
X0504532Y0203199D02*
X0503731Y0204000D01*
X0521877Y0217008D02*
X0521877Y0219410D01*
X0523078Y0218209D01*
X0521477Y0218209D01*
X0524055Y0218610D02*
X0525656Y0217008D01*
X0524055Y0217008D01*
X0524055Y0218610D02*
X0524055Y0219010D01*
X0524455Y0219410D01*
X0525256Y0219410D01*
X0525656Y0219010D01*
X0526633Y0219010D02*
X0526633Y0218209D01*
X0527034Y0217809D01*
X0528235Y0217809D01*
X0528235Y0217008D02*
X0528235Y0219410D01*
X0527034Y0219410D01*
X0526633Y0219010D01*
X0527434Y0217809D02*
X0526633Y0217008D01*
X0526433Y0233708D02*
X0527234Y0234509D01*
X0526834Y0234509D02*
X0528035Y0234509D01*
X0528035Y0233708D02*
X0528035Y0236110D01*
X0526834Y0236110D01*
X0526433Y0235710D01*
X0526433Y0234909D01*
X0526834Y0234509D01*
X0525456Y0233708D02*
X0523855Y0235310D01*
X0523855Y0235710D01*
X0524255Y0236110D01*
X0525056Y0236110D01*
X0525456Y0235710D01*
X0525456Y0233708D02*
X0523855Y0233708D01*
X0522878Y0234109D02*
X0522478Y0233708D01*
X0521677Y0233708D01*
X0521277Y0234109D01*
X0521277Y0234509D01*
X0521677Y0234909D01*
X0522078Y0234909D01*
X0521677Y0234909D02*
X0521277Y0235310D01*
X0521277Y0235710D01*
X0521677Y0236110D01*
X0522478Y0236110D01*
X0522878Y0235710D01*
X0511081Y0235886D02*
X0511081Y0233885D01*
X0510681Y0233484D01*
X0509880Y0233484D01*
X0509480Y0233885D01*
X0509480Y0235886D01*
X0508503Y0235886D02*
X0508503Y0234685D01*
X0507702Y0235086D01*
X0507302Y0235086D01*
X0506902Y0234685D01*
X0506902Y0233885D01*
X0507302Y0233484D01*
X0508103Y0233484D01*
X0508503Y0233885D01*
X0508503Y0235886D02*
X0506902Y0235886D01*
X0427500Y0221300D02*
X0427500Y0219698D01*
X0427100Y0219298D01*
X0426299Y0219298D01*
X0425899Y0219698D01*
X0424922Y0219298D02*
X0423320Y0219298D01*
X0424121Y0219298D02*
X0424121Y0221700D01*
X0424922Y0220899D01*
X0425899Y0221300D02*
X0426299Y0221700D01*
X0427100Y0221700D01*
X0427500Y0221300D01*
X0422344Y0220499D02*
X0420742Y0220499D01*
X0419765Y0220899D02*
X0418965Y0221700D01*
X0418965Y0219298D01*
X0419765Y0219298D02*
X0418164Y0219298D01*
X0421143Y0219298D02*
X0421143Y0221700D01*
X0422344Y0220499D01*
X0421443Y0178200D02*
X0422644Y0176999D01*
X0421042Y0176999D01*
X0420065Y0176198D02*
X0418464Y0177800D01*
X0418464Y0176198D01*
X0418864Y0175798D01*
X0419665Y0175798D01*
X0420065Y0176198D01*
X0420065Y0177800D01*
X0419665Y0178200D01*
X0418864Y0178200D01*
X0418464Y0177800D01*
X0421443Y0178200D02*
X0421443Y0175798D01*
X0423620Y0175798D02*
X0425222Y0175798D01*
X0424421Y0175798D02*
X0424421Y0178200D01*
X0425222Y0177399D01*
X0426199Y0177800D02*
X0426599Y0178200D01*
X0427400Y0178200D01*
X0427800Y0177800D01*
X0427800Y0176198D01*
X0427400Y0175798D01*
X0426599Y0175798D01*
X0426199Y0176198D01*
X0313400Y0237898D02*
X0311799Y0237898D01*
X0310822Y0237898D02*
X0309220Y0239499D01*
X0309220Y0239900D01*
X0309621Y0240300D01*
X0310421Y0240300D01*
X0310822Y0239900D01*
X0310822Y0237898D02*
X0309220Y0237898D01*
X0306200Y0237998D02*
X0304599Y0237998D01*
X0303622Y0238398D02*
X0303221Y0237998D01*
X0302421Y0237998D01*
X0302020Y0238398D01*
X0302020Y0238799D01*
X0302421Y0239199D01*
X0303622Y0239199D01*
X0303622Y0238398D01*
X0303622Y0239199D02*
X0302821Y0240000D01*
X0302020Y0240400D01*
X0299200Y0240400D02*
X0299200Y0237998D01*
X0297599Y0237998D01*
X0296622Y0239199D02*
X0295020Y0239199D01*
X0295421Y0237998D02*
X0295421Y0240400D01*
X0296622Y0239199D01*
X0291435Y0238498D02*
X0291034Y0238098D01*
X0290234Y0238098D01*
X0289833Y0238498D01*
X0288856Y0238498D02*
X0288456Y0238098D01*
X0287655Y0238098D01*
X0287255Y0238498D01*
X0287255Y0238899D01*
X0287655Y0239299D01*
X0288856Y0239299D01*
X0288856Y0238498D01*
X0288856Y0239299D02*
X0288056Y0240100D01*
X0287255Y0240500D01*
X0286278Y0240100D02*
X0286278Y0239699D01*
X0285878Y0239299D01*
X0285077Y0239299D01*
X0284677Y0238899D01*
X0284677Y0238498D01*
X0285077Y0238098D01*
X0285878Y0238098D01*
X0286278Y0238498D01*
X0286278Y0238899D01*
X0285878Y0239299D01*
X0285077Y0239299D02*
X0284677Y0239699D01*
X0284677Y0240100D01*
X0285077Y0240500D01*
X0285878Y0240500D01*
X0286278Y0240100D01*
X0289833Y0240100D02*
X0290234Y0240500D01*
X0291034Y0240500D01*
X0291435Y0240100D01*
X0291435Y0238498D01*
X0306200Y0237998D02*
X0306200Y0240400D01*
X0313400Y0240300D02*
X0313400Y0237898D01*
X0092713Y0200000D02*
X0092713Y0198398D01*
X0092312Y0197998D01*
X0091512Y0197998D01*
X0091111Y0198398D01*
X0090135Y0197998D02*
X0088533Y0197998D01*
X0089334Y0197998D02*
X0089334Y0200400D01*
X0090135Y0199599D01*
X0091111Y0200000D02*
X0091512Y0200400D01*
X0092312Y0200400D01*
X0092713Y0200000D01*
X0087556Y0200400D02*
X0087556Y0199199D01*
X0086756Y0199599D01*
X0086355Y0199599D01*
X0085955Y0199199D01*
X0085955Y0198398D01*
X0086355Y0197998D01*
X0087156Y0197998D01*
X0087556Y0198398D01*
X0087556Y0200400D02*
X0085955Y0200400D01*
X0084978Y0200000D02*
X0084578Y0200400D01*
X0083777Y0200400D01*
X0083377Y0200000D01*
X0083377Y0199599D01*
X0084978Y0197998D01*
X0083377Y0197998D01*
X0051852Y0203314D02*
X0051452Y0202913D01*
X0049850Y0202913D01*
X0049450Y0203314D01*
X0049450Y0204114D01*
X0049850Y0204515D01*
X0049850Y0205492D02*
X0049450Y0205892D01*
X0049450Y0206693D01*
X0049850Y0207093D01*
X0051452Y0207093D01*
X0051852Y0206693D01*
X0051852Y0205892D01*
X0051452Y0205492D01*
X0051051Y0205492D01*
X0050651Y0205892D01*
X0050651Y0207093D01*
X0050651Y0208070D02*
X0050651Y0209271D01*
X0050251Y0209671D01*
X0049850Y0209671D01*
X0049450Y0209271D01*
X0049450Y0208470D01*
X0049850Y0208070D01*
X0050651Y0208070D01*
X0051452Y0208870D01*
X0051852Y0209671D01*
X0051452Y0204515D02*
X0051852Y0204114D01*
X0051852Y0203314D01*
X0080943Y0086400D02*
X0080542Y0086000D01*
X0080542Y0085599D01*
X0080943Y0085199D01*
X0080542Y0084799D01*
X0080542Y0084398D01*
X0080943Y0083998D01*
X0081743Y0083998D01*
X0082144Y0084398D01*
X0083120Y0084398D02*
X0083521Y0083998D01*
X0084321Y0083998D01*
X0084722Y0084398D01*
X0085699Y0084398D02*
X0086099Y0083998D01*
X0086900Y0083998D01*
X0087300Y0084398D01*
X0087300Y0086000D01*
X0086900Y0086400D01*
X0086099Y0086400D01*
X0085699Y0086000D01*
X0084722Y0086000D02*
X0084321Y0086400D01*
X0083521Y0086400D01*
X0083120Y0086000D01*
X0083120Y0085599D01*
X0083521Y0085199D01*
X0083120Y0084799D01*
X0083120Y0084398D01*
X0083521Y0085199D02*
X0083921Y0085199D01*
X0082144Y0086000D02*
X0081743Y0086400D01*
X0080943Y0086400D01*
X0080943Y0085199D02*
X0081343Y0085199D01*
X0183050Y0029705D02*
X0183050Y0028905D01*
X0183450Y0028504D01*
X0183450Y0027528D02*
X0183851Y0027528D01*
X0184251Y0027127D01*
X0184251Y0025926D01*
X0183450Y0025926D01*
X0183050Y0026327D01*
X0183050Y0027127D01*
X0183450Y0027528D01*
X0185052Y0026727D02*
X0185452Y0027528D01*
X0185052Y0026727D02*
X0184251Y0025926D01*
X0183450Y0024949D02*
X0183050Y0024549D01*
X0183050Y0023748D01*
X0183450Y0023348D01*
X0185052Y0023348D01*
X0185452Y0023748D01*
X0185452Y0024549D01*
X0185052Y0024949D01*
X0185052Y0028504D02*
X0185452Y0028905D01*
X0185452Y0029705D01*
X0185052Y0030106D01*
X0184651Y0030106D01*
X0184251Y0029705D01*
X0183851Y0030106D01*
X0183450Y0030106D01*
X0183050Y0029705D01*
X0184251Y0029705D02*
X0184251Y0029305D01*
X0417964Y0484798D02*
X0417964Y0487200D01*
X0419165Y0485999D01*
X0417564Y0485999D01*
X0420142Y0485999D02*
X0421744Y0485999D01*
X0420543Y0487200D01*
X0420543Y0484798D01*
X0422720Y0484798D02*
X0424322Y0484798D01*
X0423521Y0484798D02*
X0423521Y0487200D01*
X0424322Y0486399D01*
X0425299Y0486800D02*
X0425699Y0487200D01*
X0426500Y0487200D01*
X0426900Y0486800D01*
X0426900Y0485198D01*
X0426500Y0484798D01*
X0425699Y0484798D01*
X0425299Y0485198D01*
D13*
X0325354Y0435682D02*
X0317874Y0435682D01*
X0320024Y0435682D02*
X0320024Y0430170D01*
X0317874Y0430170D02*
X0325354Y0430170D01*
X0306248Y0430170D02*
X0298768Y0430170D01*
X0304098Y0430170D02*
X0304098Y0435682D01*
X0306248Y0435682D02*
X0298768Y0435682D01*
X0295468Y0383191D02*
X0278932Y0383191D01*
X0278932Y0376105D01*
X0295468Y0376105D01*
X0295468Y0383191D01*
X0140751Y0405741D02*
X0140751Y0407316D01*
X0139570Y0406528D01*
X0140751Y0405741D01*
X0140751Y0406087D02*
X0140232Y0406087D01*
X0140751Y0406585D02*
X0139656Y0406585D01*
X0140403Y0407084D02*
X0140751Y0407084D01*
X0133074Y0408300D02*
X0133074Y0408891D01*
X0117326Y0408891D01*
X0117326Y0408300D01*
X0117326Y0404757D02*
X0117326Y0403379D01*
X0117326Y0399639D02*
X0117326Y0398457D01*
X0117326Y0394717D02*
X0117326Y0393339D01*
X0117326Y0389796D02*
X0117326Y0389206D01*
X0133074Y0389206D01*
X0133074Y0389796D01*
X0133074Y0393339D02*
X0133074Y0394717D01*
X0133074Y0398457D02*
X0133074Y0399639D01*
X0133074Y0403379D02*
X0133074Y0404757D01*
X0120348Y0481759D02*
X0088852Y0481759D01*
X0088852Y0513255D01*
X0120348Y0513255D01*
X0120348Y0481759D01*
X0106211Y0322248D02*
X0101400Y0322248D01*
X0106211Y0322248D02*
X0106211Y0315248D01*
X0082589Y0315248D01*
X0082589Y0322248D01*
X0087400Y0322248D01*
X0082589Y0315248D02*
X0082589Y0296248D01*
X0087400Y0296248D01*
X0101400Y0296248D02*
X0106211Y0296248D01*
X0106211Y0315248D01*
X0077789Y0285896D02*
X0077789Y0254400D01*
X0046293Y0254400D01*
X0046293Y0285896D01*
X0077789Y0285896D01*
X0112900Y0266459D02*
X0142900Y0266459D01*
X0142900Y0236459D01*
X0112900Y0236459D01*
X0112900Y0266459D01*
X0155442Y0229009D02*
X0155442Y0199087D01*
X0204261Y0199087D01*
X0204261Y0229009D01*
X0155442Y0229009D01*
X0106312Y0137818D02*
X0105524Y0136637D01*
X0107099Y0136637D01*
X0106312Y0137818D01*
X0106026Y0137389D02*
X0106598Y0137389D01*
X0106930Y0136891D02*
X0105694Y0136891D01*
X0100989Y0120130D02*
X0101099Y0120074D01*
X0101186Y0119987D01*
X0101242Y0119877D01*
X0101261Y0119755D01*
X0101242Y0119633D01*
X0101186Y0119524D01*
X0101099Y0119437D01*
X0100989Y0119381D01*
X0100868Y0119361D01*
X0100746Y0119381D01*
X0100636Y0119437D01*
X0100549Y0119524D01*
X0100493Y0119633D01*
X0100474Y0119755D01*
X0100493Y0119877D01*
X0100549Y0119987D01*
X0100636Y0120074D01*
X0100746Y0120130D01*
X0100868Y0120149D01*
X0100989Y0120130D01*
X0101209Y0119941D02*
X0100526Y0119941D01*
X0100630Y0119443D02*
X0101105Y0119443D01*
X0381750Y0055049D02*
X0381750Y0052687D01*
X0382537Y0053474D01*
X0382537Y0053868D01*
X0382143Y0054261D01*
X0382143Y0053474D01*
X0382537Y0053474D02*
X0382931Y0053868D01*
X0381750Y0055049D01*
X0494436Y0212306D02*
X0494436Y0212896D01*
X0494436Y0212306D02*
X0510184Y0212306D01*
X0510184Y0212896D01*
X0510184Y0216439D02*
X0510184Y0217817D01*
X0510184Y0221557D02*
X0510184Y0222739D01*
X0510184Y0226479D02*
X0510184Y0227857D01*
X0510184Y0231400D02*
X0510184Y0231991D01*
X0494436Y0231991D01*
X0494436Y0231400D01*
X0494436Y0227857D02*
X0494436Y0226479D01*
X0494436Y0222739D02*
X0494436Y0221557D01*
X0494436Y0217817D02*
X0494436Y0216439D01*
X0516680Y0229628D02*
X0517861Y0228841D01*
X0517861Y0230416D01*
X0516680Y0229628D01*
X0516702Y0229614D02*
X0517861Y0229614D01*
X0517861Y0230112D02*
X0517406Y0230112D01*
X0517450Y0229115D02*
X0517861Y0229115D01*
D14*
X0295602Y0045700D02*
X0295285Y0046017D01*
X0294017Y0044749D01*
X0293700Y0045066D01*
X0293700Y0045700D01*
X0294017Y0046017D01*
X0295285Y0046017D01*
X0295602Y0045700D02*
X0295602Y0045066D01*
X0295285Y0044749D01*
X0294017Y0044749D01*
X0294017Y0043991D02*
X0293700Y0043675D01*
X0293700Y0043041D01*
X0294017Y0042724D01*
X0294334Y0042724D01*
X0294651Y0043041D01*
X0294651Y0043675D01*
X0294334Y0043991D01*
X0294017Y0043991D01*
X0294651Y0043675D02*
X0294968Y0043991D01*
X0295285Y0043991D01*
X0295602Y0043675D01*
X0295602Y0043041D01*
X0295285Y0042724D01*
X0294968Y0042724D01*
X0294651Y0043041D01*
X0294651Y0041966D02*
X0294334Y0041649D01*
X0294334Y0040698D01*
X0294334Y0041332D02*
X0293700Y0041966D01*
X0294651Y0041966D02*
X0295285Y0041966D01*
X0295602Y0041649D01*
X0295602Y0040698D01*
X0293700Y0040698D01*
X0285580Y0049348D02*
X0285580Y0051450D01*
X0284529Y0051450D01*
X0284178Y0051100D01*
X0284178Y0050399D01*
X0284529Y0050049D01*
X0285580Y0050049D01*
X0284879Y0050049D02*
X0284178Y0049348D01*
X0283370Y0049698D02*
X0283370Y0050049D01*
X0283019Y0050399D01*
X0282319Y0050399D01*
X0281969Y0050049D01*
X0281969Y0049698D01*
X0282319Y0049348D01*
X0283019Y0049348D01*
X0283370Y0049698D01*
X0283019Y0050399D02*
X0283370Y0050749D01*
X0283370Y0051100D01*
X0283019Y0051450D01*
X0282319Y0051450D01*
X0281969Y0051100D01*
X0281969Y0050749D01*
X0282319Y0050399D01*
X0281160Y0050749D02*
X0280459Y0051450D01*
X0280459Y0049348D01*
X0279759Y0049348D02*
X0281160Y0049348D01*
X0279785Y0045917D02*
X0280102Y0045600D01*
X0280102Y0044966D01*
X0279785Y0044649D01*
X0279468Y0044649D01*
X0279151Y0044966D01*
X0279151Y0045917D01*
X0278517Y0045917D02*
X0279785Y0045917D01*
X0278517Y0045917D02*
X0278200Y0045600D01*
X0278200Y0044966D01*
X0278517Y0044649D01*
X0279785Y0043891D02*
X0278517Y0042624D01*
X0278200Y0042624D01*
X0278200Y0041866D02*
X0278834Y0041232D01*
X0278834Y0041549D02*
X0278834Y0040598D01*
X0278200Y0040598D02*
X0280102Y0040598D01*
X0280102Y0041549D01*
X0279785Y0041866D01*
X0279151Y0041866D01*
X0278834Y0041549D01*
X0280102Y0042624D02*
X0280102Y0043891D01*
X0279785Y0043891D01*
X0270880Y0049448D02*
X0270880Y0051550D01*
X0269829Y0051550D01*
X0269478Y0051200D01*
X0269478Y0050499D01*
X0269829Y0050149D01*
X0270880Y0050149D01*
X0270179Y0050149D02*
X0269478Y0049448D01*
X0268670Y0049798D02*
X0268670Y0050149D01*
X0268319Y0050499D01*
X0267619Y0050499D01*
X0267269Y0050149D01*
X0267269Y0049798D01*
X0267619Y0049448D01*
X0268319Y0049448D01*
X0268670Y0049798D01*
X0268319Y0050499D02*
X0268670Y0050849D01*
X0268670Y0051200D01*
X0268319Y0051550D01*
X0267619Y0051550D01*
X0267269Y0051200D01*
X0267269Y0050849D01*
X0267619Y0050499D01*
X0266460Y0051200D02*
X0266110Y0051550D01*
X0265409Y0051550D01*
X0265059Y0051200D01*
X0265059Y0050849D01*
X0266460Y0049448D01*
X0265059Y0049448D01*
X0264785Y0046017D02*
X0264468Y0046017D01*
X0264151Y0045700D01*
X0264151Y0045066D01*
X0264468Y0044749D01*
X0264785Y0044749D01*
X0265102Y0045066D01*
X0265102Y0045700D01*
X0264785Y0046017D01*
X0264151Y0045700D02*
X0263834Y0046017D01*
X0263517Y0046017D01*
X0263200Y0045700D01*
X0263200Y0045066D01*
X0263517Y0044749D01*
X0263834Y0044749D01*
X0264151Y0045066D01*
X0264785Y0043991D02*
X0263517Y0042724D01*
X0263200Y0042724D01*
X0263200Y0041966D02*
X0263834Y0041332D01*
X0263834Y0041649D02*
X0263834Y0040698D01*
X0263200Y0040698D02*
X0265102Y0040698D01*
X0265102Y0041649D01*
X0264785Y0041966D01*
X0264151Y0041966D01*
X0263834Y0041649D01*
X0265102Y0042724D02*
X0265102Y0043991D01*
X0264785Y0043991D01*
X0255880Y0049548D02*
X0255880Y0051650D01*
X0254829Y0051650D01*
X0254478Y0051300D01*
X0254478Y0050599D01*
X0254829Y0050249D01*
X0255880Y0050249D01*
X0255179Y0050249D02*
X0254478Y0049548D01*
X0253670Y0049898D02*
X0253670Y0050249D01*
X0253319Y0050599D01*
X0252619Y0050599D01*
X0252269Y0050249D01*
X0252269Y0049898D01*
X0252619Y0049548D01*
X0253319Y0049548D01*
X0253670Y0049898D01*
X0253319Y0050599D02*
X0253670Y0050949D01*
X0253670Y0051300D01*
X0253319Y0051650D01*
X0252619Y0051650D01*
X0252269Y0051300D01*
X0252269Y0050949D01*
X0252619Y0050599D01*
X0251460Y0050599D02*
X0250759Y0050949D01*
X0250409Y0050949D01*
X0250059Y0050599D01*
X0250059Y0049898D01*
X0250409Y0049548D01*
X0251110Y0049548D01*
X0251460Y0049898D01*
X0251460Y0050599D02*
X0251460Y0051650D01*
X0250059Y0051650D01*
X0250102Y0046117D02*
X0249785Y0046117D01*
X0248517Y0044849D01*
X0248200Y0044849D01*
X0249785Y0044091D02*
X0248517Y0042824D01*
X0248200Y0042824D01*
X0248200Y0042066D02*
X0248834Y0041432D01*
X0248834Y0041749D02*
X0248834Y0040798D01*
X0248200Y0040798D02*
X0250102Y0040798D01*
X0250102Y0041749D01*
X0249785Y0042066D01*
X0249151Y0042066D01*
X0248834Y0041749D01*
X0250102Y0042824D02*
X0250102Y0044091D01*
X0249785Y0044091D01*
X0250102Y0044849D02*
X0250102Y0046117D01*
X0240980Y0049348D02*
X0240980Y0051450D01*
X0239929Y0051450D01*
X0239578Y0051100D01*
X0239578Y0050399D01*
X0239929Y0050049D01*
X0240980Y0050049D01*
X0240279Y0050049D02*
X0239578Y0049348D01*
X0238770Y0049698D02*
X0238770Y0050049D01*
X0238419Y0050399D01*
X0237719Y0050399D01*
X0237369Y0050049D01*
X0237369Y0049698D01*
X0237719Y0049348D01*
X0238419Y0049348D01*
X0238770Y0049698D01*
X0238419Y0050399D02*
X0238770Y0050749D01*
X0238770Y0051100D01*
X0238419Y0051450D01*
X0237719Y0051450D01*
X0237369Y0051100D01*
X0237369Y0050749D01*
X0237719Y0050399D01*
X0236560Y0050749D02*
X0236560Y0051100D01*
X0236210Y0051450D01*
X0235509Y0051450D01*
X0235159Y0051100D01*
X0235159Y0050749D01*
X0235509Y0050399D01*
X0236210Y0050399D01*
X0236560Y0050749D01*
X0236210Y0050399D02*
X0236560Y0050049D01*
X0236560Y0049698D01*
X0236210Y0049348D01*
X0235509Y0049348D01*
X0235159Y0049698D01*
X0235159Y0050049D01*
X0235509Y0050399D01*
X0235102Y0045717D02*
X0234785Y0045083D01*
X0234151Y0044449D01*
X0234151Y0045400D01*
X0233834Y0045717D01*
X0233517Y0045717D01*
X0233200Y0045400D01*
X0233200Y0044766D01*
X0233517Y0044449D01*
X0234151Y0044449D01*
X0234785Y0043691D02*
X0233517Y0042424D01*
X0233200Y0042424D01*
X0233200Y0041666D02*
X0233834Y0041032D01*
X0233834Y0041349D02*
X0233834Y0040398D01*
X0233200Y0040398D02*
X0235102Y0040398D01*
X0235102Y0041349D01*
X0234785Y0041666D01*
X0234151Y0041666D01*
X0233834Y0041349D01*
X0235102Y0042424D02*
X0235102Y0043691D01*
X0234785Y0043691D01*
X0226790Y0049248D02*
X0226790Y0051350D01*
X0225739Y0051350D01*
X0225388Y0051000D01*
X0225388Y0050299D01*
X0225739Y0049949D01*
X0226790Y0049949D01*
X0226089Y0049949D02*
X0225388Y0049248D01*
X0224580Y0049248D02*
X0223178Y0049248D01*
X0223879Y0049248D02*
X0223879Y0051350D01*
X0224580Y0050649D01*
X0222370Y0051000D02*
X0222020Y0051350D01*
X0221319Y0051350D01*
X0220969Y0051000D01*
X0222370Y0049598D01*
X0222020Y0049248D01*
X0221319Y0049248D01*
X0220969Y0049598D01*
X0220969Y0051000D01*
X0220160Y0051000D02*
X0219810Y0051350D01*
X0219109Y0051350D01*
X0218759Y0051000D01*
X0218759Y0050649D01*
X0220160Y0049248D01*
X0218759Y0049248D01*
X0222370Y0049598D02*
X0222370Y0051000D01*
X0220102Y0045617D02*
X0220102Y0044349D01*
X0219151Y0044349D01*
X0219468Y0044983D01*
X0219468Y0045300D01*
X0219151Y0045617D01*
X0218517Y0045617D01*
X0218200Y0045300D01*
X0218200Y0044666D01*
X0218517Y0044349D01*
X0219785Y0043591D02*
X0218517Y0042324D01*
X0218200Y0042324D01*
X0218200Y0041566D02*
X0218834Y0040932D01*
X0218834Y0041249D02*
X0218834Y0040298D01*
X0218200Y0040298D02*
X0220102Y0040298D01*
X0220102Y0041249D01*
X0219785Y0041566D01*
X0219151Y0041566D01*
X0218834Y0041249D01*
X0220102Y0042324D02*
X0220102Y0043591D01*
X0219785Y0043591D01*
X0211990Y0049448D02*
X0211990Y0051550D01*
X0210939Y0051550D01*
X0210588Y0051200D01*
X0210588Y0050499D01*
X0210939Y0050149D01*
X0211990Y0050149D01*
X0211289Y0050149D02*
X0210588Y0049448D01*
X0209780Y0049448D02*
X0208378Y0049448D01*
X0209079Y0049448D02*
X0209079Y0051550D01*
X0209780Y0050849D01*
X0207570Y0050499D02*
X0206169Y0050499D01*
X0205360Y0051200D02*
X0205010Y0051550D01*
X0204309Y0051550D01*
X0203959Y0051200D01*
X0203959Y0050849D01*
X0204309Y0050499D01*
X0203959Y0050149D01*
X0203959Y0049798D01*
X0204309Y0049448D01*
X0205010Y0049448D01*
X0205360Y0049798D01*
X0204659Y0050499D02*
X0204309Y0050499D01*
X0206519Y0051550D02*
X0207570Y0050499D01*
X0206519Y0049448D02*
X0206519Y0051550D01*
X0204151Y0045817D02*
X0204151Y0044549D01*
X0205102Y0045500D01*
X0203200Y0045500D01*
X0204785Y0043791D02*
X0203517Y0042524D01*
X0203200Y0042524D01*
X0203200Y0041766D02*
X0203834Y0041132D01*
X0203834Y0041449D02*
X0203834Y0040498D01*
X0203200Y0040498D02*
X0205102Y0040498D01*
X0205102Y0041449D01*
X0204785Y0041766D01*
X0204151Y0041766D01*
X0203834Y0041449D01*
X0205102Y0042524D02*
X0205102Y0043791D01*
X0204785Y0043791D01*
X0196490Y0049448D02*
X0196490Y0051550D01*
X0195439Y0051550D01*
X0195088Y0051200D01*
X0195088Y0050499D01*
X0195439Y0050149D01*
X0196490Y0050149D01*
X0195789Y0050149D02*
X0195088Y0049448D01*
X0194280Y0049448D02*
X0192878Y0049448D01*
X0193579Y0049448D02*
X0193579Y0051550D01*
X0194280Y0050849D01*
X0192070Y0050499D02*
X0190669Y0050499D01*
X0189860Y0050499D02*
X0188459Y0050499D01*
X0188809Y0051550D02*
X0189860Y0050499D01*
X0188809Y0049448D02*
X0188809Y0051550D01*
X0191019Y0051550D02*
X0192070Y0050499D01*
X0191019Y0049448D02*
X0191019Y0051550D01*
X0189785Y0045517D02*
X0189468Y0045517D01*
X0189151Y0045200D01*
X0188834Y0045517D01*
X0188517Y0045517D01*
X0188200Y0045200D01*
X0188200Y0044566D01*
X0188517Y0044249D01*
X0189151Y0044883D02*
X0189151Y0045200D01*
X0189785Y0045517D02*
X0190102Y0045200D01*
X0190102Y0044566D01*
X0189785Y0044249D01*
X0189785Y0043491D02*
X0188517Y0042224D01*
X0188200Y0042224D01*
X0188200Y0041466D02*
X0188834Y0040832D01*
X0188834Y0041149D02*
X0188834Y0040198D01*
X0188200Y0040198D02*
X0190102Y0040198D01*
X0190102Y0041149D01*
X0189785Y0041466D01*
X0189151Y0041466D01*
X0188834Y0041149D01*
X0190102Y0042224D02*
X0190102Y0043491D01*
X0189785Y0043491D01*
X0181190Y0049248D02*
X0181190Y0051350D01*
X0180139Y0051350D01*
X0179788Y0051000D01*
X0179788Y0050299D01*
X0180139Y0049949D01*
X0181190Y0049949D01*
X0180489Y0049949D02*
X0179788Y0049248D01*
X0178980Y0049248D02*
X0177578Y0049248D01*
X0178279Y0049248D02*
X0178279Y0051350D01*
X0178980Y0050649D01*
X0176770Y0050299D02*
X0175369Y0050299D01*
X0174560Y0050299D02*
X0173859Y0050649D01*
X0173509Y0050649D01*
X0173159Y0050299D01*
X0173159Y0049598D01*
X0173509Y0049248D01*
X0174210Y0049248D01*
X0174560Y0049598D01*
X0174560Y0050299D02*
X0174560Y0051350D01*
X0173159Y0051350D01*
X0175719Y0051350D02*
X0176770Y0050299D01*
X0175719Y0049248D02*
X0175719Y0051350D01*
D15*
X0084920Y0144248D02*
X0084680Y0144248D01*
X0067620Y0144248D02*
X0067380Y0144248D01*
X0051900Y0142268D02*
X0051900Y0142028D01*
M02*
