G75*
%MOIN*%
%OFA0B0*%
%FSLAX25Y25*%
%IPPOS*%
%LPD*%
%AMOC8*
5,1,8,0,0,1.08239X$1,22.5*
%
%ADD10R,0.04724X0.03150*%
%ADD11R,0.03150X0.04724*%
%ADD12R,0.05906X0.02165*%
%ADD13R,0.07087X0.06299*%
%ADD14R,0.07874X0.06299*%
%ADD15R,0.03937X0.05512*%
%ADD16R,0.02362X0.02362*%
%ADD17R,0.05512X0.02047*%
%ADD18R,0.01181X0.01969*%
%ADD19R,0.06299X0.07874*%
%ADD20R,0.06299X0.07087*%
%ADD21R,0.10236X0.04173*%
%ADD22R,0.22173X0.22441*%
%ADD23R,0.12087X0.05984*%
%ADD24R,0.02559X0.01969*%
%ADD25R,0.06299X0.11811*%
%ADD26R,0.22835X0.24409*%
%ADD27R,0.02480X0.03268*%
%ADD28R,0.11024X0.11024*%
%ADD29R,0.00866X0.02992*%
%ADD30R,0.02992X0.00866*%
%ADD31R,0.03937X0.07087*%
%ADD32R,0.04331X0.03937*%
%ADD33R,0.03937X0.04331*%
%ADD34R,0.05512X0.04724*%
%ADD35R,0.04134X0.08661*%
%ADD36R,0.03937X0.03150*%
%ADD37R,0.11811X0.06299*%
%ADD38R,0.24409X0.22835*%
%ADD39R,0.05512X0.03937*%
%ADD40R,0.04724X0.02362*%
%ADD41R,0.26378X0.26378*%
D10*
X0091000Y0049905D03*
X0091000Y0056991D03*
X0113000Y0056991D03*
X0113000Y0049905D03*
X0127800Y0037591D03*
X0127800Y0030505D03*
X0142900Y0049905D03*
X0142900Y0056991D03*
X0164900Y0056991D03*
X0164900Y0049905D03*
X0178200Y0046591D03*
X0185200Y0046591D03*
X0185200Y0039505D03*
X0178200Y0039505D03*
X0178900Y0030591D03*
X0178900Y0023505D03*
X0193200Y0039505D03*
X0200200Y0039505D03*
X0200200Y0046591D03*
X0193200Y0046591D03*
X0208200Y0046591D03*
X0215200Y0046591D03*
X0215200Y0039505D03*
X0208200Y0039505D03*
X0223200Y0039505D03*
X0223200Y0046591D03*
X0230200Y0046591D03*
X0230200Y0039505D03*
X0238200Y0039505D03*
X0245200Y0039505D03*
X0245200Y0046591D03*
X0238200Y0046591D03*
X0253200Y0046591D03*
X0260200Y0046591D03*
X0260200Y0039505D03*
X0253200Y0039505D03*
X0268200Y0039505D03*
X0268200Y0046591D03*
X0275200Y0046591D03*
X0275200Y0039505D03*
X0283200Y0039505D03*
X0290200Y0039505D03*
X0290200Y0046591D03*
X0283200Y0046591D03*
X0280200Y0069505D03*
X0272700Y0069505D03*
X0265200Y0069505D03*
X0257700Y0069505D03*
X0257700Y0076591D03*
X0265200Y0076591D03*
X0272700Y0076591D03*
X0280200Y0076591D03*
X0287700Y0076591D03*
X0295200Y0076591D03*
X0295200Y0069505D03*
X0287700Y0069505D03*
X0250200Y0069505D03*
X0242700Y0069505D03*
X0235200Y0069505D03*
X0235200Y0076591D03*
X0242700Y0076591D03*
X0250200Y0076591D03*
X0227700Y0076591D03*
X0220200Y0076591D03*
X0212700Y0076591D03*
X0212700Y0069505D03*
X0220200Y0069505D03*
X0227700Y0069505D03*
X0205200Y0069505D03*
X0197700Y0069505D03*
X0190200Y0069505D03*
X0190200Y0076591D03*
X0197700Y0076591D03*
X0205200Y0076591D03*
X0182700Y0076591D03*
X0182700Y0069505D03*
X0204500Y0121605D03*
X0204500Y0128691D03*
X0212100Y0128691D03*
X0212100Y0121605D03*
X0181800Y0139805D03*
X0181800Y0146891D03*
X0125400Y0130691D03*
X0125400Y0123605D03*
X0110700Y0162605D03*
X0110700Y0169691D03*
X0083400Y0166391D03*
X0076800Y0166391D03*
X0070300Y0166391D03*
X0070300Y0159305D03*
X0076800Y0159305D03*
X0083400Y0159305D03*
X0080200Y0129591D03*
X0080200Y0122505D03*
X0050600Y0192505D03*
X0050600Y0199591D03*
X0144500Y0215905D03*
X0151500Y0215905D03*
X0151500Y0222991D03*
X0144500Y0222991D03*
X0290000Y0243305D03*
X0290000Y0250391D03*
X0297200Y0250491D03*
X0297200Y0243405D03*
X0304200Y0243405D03*
X0304200Y0250491D03*
X0311300Y0250491D03*
X0311300Y0243405D03*
X0476910Y0230791D03*
X0483610Y0230591D03*
X0483610Y0223505D03*
X0476910Y0223705D03*
X0414410Y0060991D03*
X0414410Y0053905D03*
X0381200Y0031691D03*
X0381200Y0024605D03*
X0373600Y0024705D03*
X0373600Y0031791D03*
X0085000Y0480105D03*
X0085000Y0487191D03*
X0214400Y0501305D03*
X0214400Y0508391D03*
D11*
X0289157Y0463026D03*
X0296243Y0463026D03*
X0296243Y0455526D03*
X0289157Y0455526D03*
X0329157Y0455526D03*
X0336243Y0455526D03*
X0336243Y0463026D03*
X0329157Y0463026D03*
X0417757Y0492148D03*
X0424843Y0492148D03*
X0425243Y0383648D03*
X0418157Y0383648D03*
X0418257Y0334648D03*
X0425343Y0334648D03*
X0521357Y0229658D03*
X0528443Y0229658D03*
X0528343Y0222958D03*
X0521257Y0222958D03*
X0504354Y0208048D03*
X0497267Y0208048D03*
X0425343Y0226848D03*
X0418257Y0226848D03*
X0418257Y0182948D03*
X0425343Y0182948D03*
X0362143Y0176448D03*
X0355057Y0176448D03*
X0355057Y0166448D03*
X0362143Y0166448D03*
X0362143Y0156448D03*
X0355057Y0156448D03*
X0355057Y0146448D03*
X0362143Y0146448D03*
X0362254Y0116248D03*
X0355167Y0116248D03*
X0355167Y0108548D03*
X0362254Y0108548D03*
X0362354Y0101148D03*
X0355267Y0101148D03*
X0355167Y0093248D03*
X0362254Y0093248D03*
X0393567Y0076348D03*
X0400654Y0076348D03*
X0418257Y0094848D03*
X0425343Y0094848D03*
X0407454Y0045548D03*
X0400367Y0045548D03*
X0395054Y0045548D03*
X0387967Y0045548D03*
X0323443Y0138448D03*
X0316357Y0138448D03*
X0316357Y0153448D03*
X0323443Y0153448D03*
X0323443Y0168448D03*
X0316357Y0168448D03*
X0316057Y0183448D03*
X0323143Y0183448D03*
X0206743Y0143848D03*
X0199657Y0143848D03*
X0194143Y0155748D03*
X0187057Y0155748D03*
X0137443Y0208148D03*
X0130357Y0208148D03*
X0121043Y0208148D03*
X0121043Y0215448D03*
X0120943Y0223048D03*
X0121257Y0229848D03*
X0128343Y0229848D03*
X0136357Y0230148D03*
X0143443Y0230148D03*
X0113857Y0223048D03*
X0113957Y0215448D03*
X0108643Y0215448D03*
X0101557Y0215448D03*
X0113957Y0208148D03*
X0113957Y0201148D03*
X0121043Y0201148D03*
X0092143Y0204548D03*
X0085057Y0204548D03*
X0086243Y0187848D03*
X0079157Y0187848D03*
X0073243Y0187848D03*
X0066157Y0187848D03*
X0059943Y0186948D03*
X0052857Y0186948D03*
X0118257Y0168348D03*
X0118257Y0161348D03*
X0118257Y0154348D03*
X0125343Y0154348D03*
X0125343Y0161348D03*
X0125343Y0168348D03*
X0125343Y0147348D03*
X0125343Y0140348D03*
X0118257Y0140348D03*
X0118257Y0147348D03*
X0115743Y0121848D03*
X0108657Y0121848D03*
X0096943Y0115648D03*
X0089857Y0115648D03*
X0087843Y0090948D03*
X0080757Y0090948D03*
X0113157Y0412648D03*
X0120243Y0412648D03*
X0126057Y0412648D03*
X0133143Y0412648D03*
X0102643Y0458348D03*
X0095557Y0458348D03*
D12*
X0114570Y0406548D03*
X0114570Y0401548D03*
X0114570Y0396548D03*
X0114570Y0391548D03*
X0135830Y0391548D03*
X0135830Y0396548D03*
X0135830Y0401548D03*
X0135830Y0406548D03*
X0491680Y0229648D03*
X0491680Y0224648D03*
X0491680Y0219648D03*
X0491680Y0214648D03*
X0512940Y0214648D03*
X0512940Y0219648D03*
X0512940Y0224648D03*
X0512940Y0229648D03*
D13*
X0307000Y0443636D03*
X0307000Y0454660D03*
D14*
X0319000Y0454960D03*
X0319000Y0443936D03*
D15*
X0328960Y0447357D03*
X0336440Y0447357D03*
X0332700Y0438695D03*
X0296440Y0447357D03*
X0288960Y0447357D03*
X0292700Y0438695D03*
X0293940Y0062379D03*
X0286460Y0062379D03*
X0278940Y0062379D03*
X0271460Y0062379D03*
X0263940Y0062379D03*
X0256460Y0062379D03*
X0248940Y0062379D03*
X0241460Y0062379D03*
X0233940Y0062379D03*
X0226460Y0062379D03*
X0218940Y0062379D03*
X0211460Y0062379D03*
X0203940Y0062379D03*
X0196460Y0062379D03*
X0188940Y0062379D03*
X0181460Y0062379D03*
X0185200Y0053717D03*
X0200200Y0053717D03*
X0215200Y0053717D03*
X0230200Y0053717D03*
X0245200Y0053717D03*
X0260200Y0053717D03*
X0275200Y0053717D03*
X0290200Y0053717D03*
X0157640Y0056979D03*
X0150160Y0056979D03*
X0153900Y0048317D03*
X0105740Y0056979D03*
X0098260Y0056979D03*
X0102000Y0048317D03*
D16*
X0297587Y0432926D03*
X0307035Y0432926D03*
X0317087Y0432926D03*
X0326535Y0432926D03*
D17*
X0386868Y0068848D03*
X0386868Y0063848D03*
X0386868Y0058848D03*
X0386868Y0053848D03*
X0406553Y0053848D03*
X0406553Y0058848D03*
X0406553Y0063848D03*
X0406553Y0068848D03*
D18*
X0293893Y0378073D03*
X0292318Y0381223D03*
X0288775Y0381223D03*
X0285625Y0381223D03*
X0284050Y0378073D03*
X0287200Y0378073D03*
X0290350Y0378073D03*
X0282082Y0381223D03*
X0280507Y0378073D03*
D19*
X0321449Y0505098D03*
X0332473Y0505098D03*
D20*
X0313173Y0505098D03*
X0302149Y0505098D03*
D21*
X0102900Y0260459D03*
X0102900Y0242459D03*
D22*
X0128687Y0251459D03*
D23*
X0094400Y0294031D03*
X0094400Y0324465D03*
D24*
X0141939Y0161472D03*
X0141939Y0158323D03*
X0141939Y0155173D03*
X0141939Y0152024D03*
X0146861Y0152024D03*
X0146861Y0155173D03*
X0146861Y0158323D03*
X0146861Y0161472D03*
D25*
X0113596Y0469948D03*
X0095604Y0469948D03*
D26*
X0104600Y0498216D03*
D27*
X0104628Y0451648D03*
X0095572Y0451648D03*
D28*
X0100800Y0148448D03*
D29*
X0101587Y0156322D03*
X0100013Y0156322D03*
X0098438Y0156322D03*
X0096863Y0156322D03*
X0095288Y0156322D03*
X0103162Y0156322D03*
X0104737Y0156322D03*
X0106312Y0156322D03*
X0106312Y0140574D03*
X0104737Y0140574D03*
X0103162Y0140574D03*
X0101587Y0140574D03*
X0100013Y0140574D03*
X0098438Y0140574D03*
X0096863Y0140574D03*
X0095288Y0140574D03*
D30*
X0092926Y0142936D03*
X0092926Y0144511D03*
X0092926Y0146086D03*
X0092926Y0147661D03*
X0092926Y0149235D03*
X0092926Y0150810D03*
X0092926Y0152385D03*
X0092926Y0153960D03*
X0108674Y0153960D03*
X0108674Y0152385D03*
X0108674Y0150810D03*
X0108674Y0149235D03*
X0108674Y0147661D03*
X0108674Y0146086D03*
X0108674Y0144511D03*
X0108674Y0142936D03*
D31*
X0108679Y0130748D03*
X0118521Y0130748D03*
D32*
X0079546Y0147648D03*
X0072854Y0147648D03*
X0061946Y0147648D03*
X0055254Y0147648D03*
X0055246Y0142148D03*
X0048554Y0142148D03*
D33*
X0067500Y0140902D03*
X0067500Y0147594D03*
X0084800Y0147594D03*
X0084800Y0140902D03*
D34*
X0088269Y0129598D03*
X0088269Y0123298D03*
X0096931Y0123298D03*
X0096931Y0129598D03*
D35*
X0060613Y0130748D03*
X0049787Y0130748D03*
D36*
X0055200Y0136752D03*
D37*
X0163119Y0204993D03*
X0163119Y0223103D03*
X0089600Y0261152D03*
X0089600Y0279144D03*
D38*
X0061332Y0270148D03*
D39*
X0330269Y0187188D03*
X0330269Y0179708D03*
X0330269Y0172188D03*
X0330269Y0164708D03*
X0330269Y0157188D03*
X0330269Y0149708D03*
X0330269Y0142188D03*
X0330269Y0134708D03*
X0338931Y0138448D03*
X0338931Y0153448D03*
X0338931Y0168448D03*
X0338931Y0183448D03*
D40*
X0137442Y0215508D03*
X0137442Y0222988D03*
X0127158Y0222988D03*
X0127158Y0219248D03*
X0127158Y0215508D03*
D41*
X0189300Y0214048D03*
M02*
