%
M48
M72
T01C0.01200
T02C0.02362
T03C0.03346
T04C0.03937
T05C0.04000
T06C0.04724
T07C0.05118
T08C0.05906
T09C0.07087
T10C0.11811
T11C0.15748
%
T01
X53600Y57248
X53600Y77248
X76950Y70048
X79250Y70048
X95000Y71648
X94500Y63248
X106950Y69648
X109250Y69648
X108300Y73748
X109400Y62748
X124900Y63348
X128950Y69648
X131250Y69648
X146800Y69948
X147300Y63548
X159050Y69648
X161350Y69648
X176700Y66448
X192600Y65748
X193600Y56848
X208200Y56948
X219100Y51848
X237700Y56748
X252500Y56648
X267200Y56948
X286100Y50748
X283800Y35248
X284000Y26348
X247700Y34348
X227700Y34448
X174000Y26348
X179000Y84248
X189200Y108048
X209550Y106448
X211750Y106448
X216500Y110148
X215600Y113948
X219200Y116848
X236400Y112148
X235100Y91648
X237800Y89048
X241900Y89048
X245200Y89048
X248000Y89048
X251100Y89048
X253800Y90048
X254800Y92748
X259200Y91648
X271400Y91948
X280000Y82648
X276400Y79748
X284000Y89548
X288500Y89548
X287100Y101748
X291300Y103948
X293500Y101748
X298400Y105748
X300800Y103348
X292800Y108748
X302400Y113148
X300700Y116248
X297400Y116648
X301700Y121748
X306200Y121348
X306200Y124148
X315600Y121948
X317800Y123948
X317600Y127048
X319900Y138448
X322350Y145648
X322350Y147848
X323500Y161048
X319200Y162548
X316300Y160048
X306400Y160448
X303900Y163548
X303700Y167448
X306300Y155948
X305500Y152648
X303400Y149348
X303400Y138548
X303400Y135748
X292000Y140148
X292000Y143348
X292000Y146248
X292000Y149148
X284500Y151948
X273600Y151948
X275600Y159948
X275300Y174498
X275300Y176698
X283900Y177248
X286700Y174548
X291100Y176898
X293500Y176898
X285200Y195148
X294700Y204648
X297500Y209348
X300800Y211948
X298800Y222448
X299600Y226448
X290000Y216748
X282200Y220198
X269600Y218548
X271400Y204948
X264900Y203348
X258800Y196348
X255800Y196348
X247400Y196348
X246200Y187548
X243100Y171548
X239400Y171148
X232800Y165848
X231700Y161848
X233900Y159648
X232900Y156148
X219300Y158748
X205600Y139148
X208300Y133048
X232850Y135848
X235150Y135848
X247700Y136848
X256700Y133148
X265400Y124748
X263300Y121248
X261500Y116548
X258100Y117548
X274700Y108498
X277000Y108448
X279800Y103748
X274100Y102748
X274200Y127748
X286100Y132748
X256100Y152248
X255800Y160548
X259600Y161448
X258900Y168648
X262000Y169348
X264400Y174348
X260300Y176248
X250000Y203448
X257600Y210748
X272300Y241348
X279700Y247448
X283400Y247448
X285700Y259548
X288600Y259548
X291600Y259848
X291600Y262848
X291600Y265848
X294600Y265848
X297600Y265848
X300600Y265848
X303600Y265848
X303600Y262848
X303600Y259848
X306600Y259848
X309600Y259848
X312600Y259848
X315600Y259848
X318600Y262848
X318600Y265848
X318600Y268848
X318600Y271848
X318600Y274848
X318600Y277848
X315600Y279848
X312600Y279848
X309600Y279848
X306600Y279848
X303600Y279848
X303600Y276848
X303600Y273848
X300600Y274848
X297600Y274848
X289000Y274748
X285400Y274748
X282600Y274848
X279600Y274848
X276600Y274848
X273600Y274848
X270600Y274848
X267600Y274848
X264600Y274848
X261600Y274848
X262600Y266848
X262600Y263848
X262600Y260848
X265600Y258848
X268600Y258848
X271600Y260848
X271600Y263848
X273600Y265848
X276600Y265848
X279600Y265848
X282600Y265848
X282600Y262848
X282600Y259848
X297200Y246948
X304200Y246948
X314200Y225348
X325200Y212748
X314000Y206348
X301200Y200848
X301100Y198148
X319600Y182948
X337100Y178348
X337700Y174098
X335400Y174098
X340100Y163148
X337500Y159098
X335200Y159098
X335700Y144098
X338000Y144098
X337700Y132348
X342200Y132548
X335000Y127148
X319400Y111148
X315200Y103948
X324800Y99748
X329000Y103948
X333800Y99148
X323300Y91848
X320200Y92548
X313800Y91248
X309000Y95048
X310100Y79748
X323000Y77548
X325300Y86048
X334000Y76348
X326600Y55348
X330900Y47248
X312500Y65948
X351200Y100648
X362300Y89048
X362300Y86748
X362300Y84348
X374000Y86348
X381400Y70448
X391800Y71748
X403400Y71848
X409300Y50548
X411500Y47848
X414200Y50248
X403500Y49348
X387200Y49948
X368200Y67948
X363800Y42748
X354200Y23548
X420200Y24148
X423200Y28848
X438700Y43148
X446000Y50248
X450800Y51148
X455100Y51248
X461000Y49248
X460000Y57548
X454000Y66348
X457000Y76348
X462000Y76348
X467000Y76348
X472000Y76348
X477000Y76348
X477000Y81348
X472000Y81348
X467000Y81348
X462000Y81348
X457000Y81348
X457000Y86348
X462000Y86348
X467000Y86348
X472000Y86348
X477000Y86348
X477000Y91348
X472000Y91348
X467000Y91348
X462000Y91348
X457000Y91348
X457000Y96348
X462000Y96348
X467000Y96348
X472000Y96348
X477000Y96348
X477000Y111348
X482000Y111348
X487000Y111348
X492000Y111348
X497000Y111348
X497000Y116348
X492000Y116348
X487000Y116348
X482000Y116348
X477000Y116348
X477000Y121348
X482000Y121348
X487000Y121348
X492000Y121348
X497000Y121348
X497000Y126348
X492000Y126348
X487000Y126348
X482000Y126348
X477000Y126348
X477000Y131348
X482000Y131348
X487000Y131348
X492000Y131348
X497000Y131348
X495000Y145348
X490000Y145348
X485000Y145348
X480000Y145348
X475000Y145348
X475000Y150348
X480000Y150348
X485000Y150348
X490000Y150348
X495000Y150348
X495000Y155348
X490000Y155348
X485000Y155348
X480000Y155348
X475000Y155348
X475000Y160348
X480000Y160348
X485000Y160348
X490000Y160348
X495000Y160348
X495000Y165348
X490000Y165348
X485000Y165348
X480000Y165348
X475000Y165348
X475000Y180348
X470000Y180348
X465000Y180348
X460000Y180348
X455000Y180348
X455000Y185348
X460000Y185348
X465000Y185348
X470000Y185348
X475000Y185348
X475000Y190348
X470000Y190348
X465000Y190348
X460000Y190348
X455000Y190348
X455000Y195348
X460000Y195348
X465000Y195348
X470000Y195348
X475000Y195348
X475000Y200348
X470000Y200348
X465000Y200348
X460000Y200348
X455000Y200348
X477110Y220048
X486610Y214548
X497600Y217948
X500800Y207748
X511910Y209948
X517700Y222748
X513000Y233148
X544000Y226348
X544000Y196348
X478000Y236348
X473000Y236348
X468000Y236348
X468000Y231348
X463000Y231348
X458000Y231348
X458000Y236348
X463000Y236348
X463000Y241348
X458000Y241348
X458000Y246348
X463000Y246348
X468000Y246348
X468000Y241348
X473000Y241348
X478000Y241348
X478000Y246348
X473000Y246348
X473000Y251348
X468000Y251348
X463000Y251348
X458000Y251348
X443100Y271548
X440100Y271548
X437100Y271548
X453000Y274348
X456000Y274348
X459000Y274348
X462000Y274348
X465000Y274348
X478000Y272348
X478000Y267348
X483000Y267348
X488000Y267348
X493000Y267348
X498000Y267348
X498000Y272348
X493000Y272348
X488000Y272348
X483000Y272348
X483000Y277348
X478000Y277348
X478000Y282348
X483000Y282348
X488000Y282348
X488000Y277348
X493000Y277348
X498000Y277348
X498000Y282348
X493000Y282348
X493000Y287348
X498000Y287348
X488000Y287348
X483000Y287348
X478000Y287348
X465000Y298348
X462000Y298348
X459000Y298348
X456000Y298348
X453000Y298348
X443000Y289348
X440000Y289348
X437000Y289348
X414000Y266348
X410400Y274348
X410400Y277048
X410400Y280048
X410400Y283048
X410400Y285948
X396000Y294348
X393000Y294348
X390000Y294348
X387000Y294348
X387000Y297348
X390000Y297348
X393000Y297348
X396000Y297348
X396000Y300348
X393000Y300348
X390000Y300348
X387000Y300348
X387000Y303348
X390000Y303348
X393000Y303348
X396000Y303348
X382400Y307348
X377500Y295948
X374600Y296548
X377600Y292948
X379400Y290548
X375200Y287548
X375200Y283348
X365000Y295098
X363600Y296698
X363600Y298798
X368400Y305548
X363600Y337248
X387000Y336348
X387000Y339348
X387000Y342348
X360100Y362948
X355100Y364148
X363600Y367248
X344800Y359248
X343100Y354948
X326100Y357248
X323600Y357248
X323600Y352248
X326100Y352248
X326100Y347248
X323600Y347248
X323600Y342248
X326100Y342248
X317600Y337748
X313100Y334248
X313100Y331748
X313100Y329248
X313100Y326748
X310600Y326748
X310600Y329248
X310600Y331748
X310600Y334248
X300100Y347248
X295100Y347248
X289600Y347248
X284100Y345248
X289100Y356748
X286000Y372748
X283900Y374948
X290100Y374348
X294600Y373748
X301800Y372448
X308200Y378348
X312500Y378948
X312300Y383248
X308000Y383348
X295700Y385348
X291500Y387948
X285700Y389248
X281800Y384748
X279400Y386348
X247200Y366048
X235900Y371548
X235300Y361848
X244400Y349548
X238500Y340648
X236000Y338048
X243900Y333348
X254750Y326348
X254750Y323648
X261000Y322748
X263600Y335448
X282100Y325248
X287600Y332748
X288600Y315748
X290600Y306248
X294100Y306248
X297600Y306248
X310100Y295748
X310100Y293248
X310100Y290748
X310100Y288248
X312600Y288248
X312600Y290748
X312600Y293248
X312600Y295748
X317300Y297448
X317600Y300248
X323600Y302248
X326100Y304748
X323600Y307248
X326100Y309748
X323600Y312248
X326100Y314748
X323600Y317248
X327300Y324748
X327600Y332248
X322900Y373248
X322300Y381848
X322200Y387448
X318300Y391448
X322600Y395748
X337900Y380998
X363600Y397248
X363300Y416148
X381200Y436948
X378800Y443748
X375800Y443548
X375800Y450148
X368800Y446548
X365000Y449198
X363600Y447098
X370400Y458148
X373400Y464398
X374000Y476348
X384300Y480948
X387000Y500348
X390000Y500348
X393000Y500348
X391100Y512248
X391100Y517248
X391100Y522248
X398600Y522248
X398600Y517248
X398600Y512248
X406100Y512248
X406100Y517248
X406100Y522248
X413600Y522248
X413600Y517248
X413600Y512248
X421100Y512248
X421100Y507248
X428600Y507248
X428600Y512248
X428600Y517248
X428600Y522248
X421100Y522248
X421100Y517248
X436100Y517248
X436100Y512248
X436100Y507248
X441100Y499748
X436100Y492248
X457000Y490348
X462000Y490348
X467000Y490348
X472000Y490348
X477000Y490348
X477000Y495348
X472000Y495348
X467000Y495348
X462000Y495348
X457000Y495348
X457000Y500348
X462000Y500348
X467000Y500348
X472000Y500348
X477000Y500348
X477000Y505348
X472000Y505348
X467000Y505348
X462000Y505348
X457000Y505348
X457000Y510348
X462000Y510348
X467000Y510348
X472000Y510348
X477000Y510348
X473600Y517248
X453600Y517248
X436100Y522248
X414000Y479348
X396000Y453348
X396000Y450348
X396000Y447348
X396000Y444348
X393000Y444348
X390000Y444348
X387000Y444348
X387000Y447348
X390000Y447348
X393000Y447348
X393000Y450348
X390000Y450348
X387000Y450348
X387000Y453348
X390000Y453348
X393000Y453348
X411390Y437548
X411290Y434648
X411290Y431748
X411290Y428848
X414000Y416348
X401400Y417648
X394200Y417448
X388300Y417348
X385000Y424948
X394000Y396348
X394000Y376348
X414000Y376348
X456000Y383348
X461000Y383348
X466000Y383348
X471000Y383348
X476000Y383348
X476000Y388348
X471000Y388348
X466000Y388348
X461000Y388348
X456000Y388348
X456000Y393348
X461000Y393348
X466000Y393348
X471000Y393348
X476000Y393348
X471000Y398348
X466000Y398348
X461000Y398348
X456000Y398348
X456000Y403348
X461000Y403348
X466000Y403348
X471000Y403348
X477000Y419348
X482000Y419348
X487000Y419348
X492000Y419348
X497000Y419348
X497000Y424348
X492000Y424348
X487000Y424348
X482000Y424348
X477000Y424348
X477000Y429348
X482000Y429348
X487000Y429348
X492000Y429348
X497000Y429348
X497000Y434348
X492000Y434348
X487000Y434348
X482000Y434348
X477000Y434348
X477000Y439348
X482000Y439348
X487000Y439348
X492000Y439348
X497000Y439348
X496000Y456348
X491000Y456348
X486000Y456348
X481000Y456348
X476000Y456348
X476000Y461348
X481000Y461348
X486000Y461348
X491000Y461348
X496000Y461348
X496000Y466348
X491000Y466348
X486000Y466348
X481000Y466348
X476000Y466348
X476000Y471348
X481000Y471348
X486000Y471348
X491000Y471348
X496000Y471348
X496000Y476348
X491000Y476348
X486000Y476348
X481000Y476348
X476000Y476348
X465000Y451348
X462000Y451348
X459000Y451348
X456000Y451348
X453000Y451348
X443100Y442248
X440500Y442248
X437800Y442248
X438000Y424348
X440700Y424348
X443300Y424348
X453000Y426348
X456000Y426348
X459000Y426348
X462000Y426348
X465000Y426348
X524000Y496348
X544000Y496348
X513600Y517248
X493600Y517248
X383600Y517248
X383600Y512248
X376100Y512248
X376100Y517248
X376100Y522248
X368600Y522248
X368600Y517248
X368600Y512248
X361100Y512248
X361100Y517248
X361100Y522248
X353600Y522248
X353600Y517248
X353600Y512248
X346600Y512248
X346600Y517248
X346600Y522248
X339600Y522248
X339600Y517248
X339600Y512248
X354000Y496348
X347600Y483548
X340000Y483548
X341300Y455548
X323200Y438248
X320900Y438248
X318600Y438248
X316300Y438248
X301500Y463048
X273600Y464748
X273600Y457248
X263600Y457248
X256100Y457248
X248600Y457248
X241100Y457248
X233600Y457248
X233600Y467248
X233600Y477248
X233600Y487248
X241100Y487248
X248600Y487248
X256100Y487248
X263600Y487248
X273600Y487248
X273600Y477248
X253600Y477248
X253600Y467248
X256100Y497248
X248600Y497248
X241100Y497248
X241100Y507248
X248600Y507248
X256100Y507248
X263600Y507248
X263600Y497248
X263600Y517248
X256100Y517248
X268600Y524748
X278600Y524748
X288600Y524748
X298600Y524748
X308600Y524748
X318600Y524748
X383600Y522248
X238600Y522248
X233600Y524748
X223600Y524748
X213600Y524748
X203600Y524748
X193600Y524748
X183600Y524748
X173600Y524748
X163600Y524748
X153600Y524748
X143600Y524748
X114800Y509048
X114800Y506548
X112300Y506548
X109800Y506548
X107300Y506548
X104800Y506548
X102300Y506548
X100000Y506548
X100000Y509048
X102300Y509048
X104800Y509048
X107300Y509048
X109800Y509048
X112300Y509048
X104100Y490748
X104100Y487748
X101100Y487748
X98100Y487748
X95100Y487748
X95100Y490748
X98100Y490748
X101100Y490748
X90200Y494348
X90200Y497448
X90200Y500248
X86800Y500248
X86800Y497448
X86800Y494448
X82200Y494448
X82200Y497448
X82200Y500248
X77200Y500248
X77200Y497448
X77300Y494648
X78100Y511448
X75500Y511448
X80700Y511448
X83200Y511448
X83600Y524748
X81000Y524748
X78500Y524748
X86200Y524748
X89000Y524748
X123000Y474548
X123000Y469548
X123000Y464548
X123000Y459548
X123000Y454548
X128000Y454548
X133000Y454548
X138000Y454548
X143000Y454548
X143000Y459548
X138000Y459548
X133000Y459548
X128000Y459548
X128000Y464548
X133000Y464548
X138000Y464548
X143000Y464548
X143000Y469548
X138000Y469548
X133000Y469548
X128000Y469548
X128000Y474548
X133000Y474548
X138000Y474548
X143000Y474548
X149000Y474548
X149000Y469548
X149000Y464548
X149000Y459548
X149000Y454548
X154000Y454548
X159000Y454548
X159000Y459548
X154000Y459548
X154000Y464548
X159000Y464548
X159000Y469548
X154000Y469548
X154000Y474548
X159000Y474548
X128200Y445848
X126000Y445848
X123800Y445848
X111100Y449748
X108600Y444748
X101100Y444748
X101100Y437248
X91100Y437248
X91100Y444748
X81100Y449748
X71100Y449748
X61100Y449748
X51100Y444748
X51100Y437248
X51100Y429748
X53300Y420748
X61100Y429748
X67800Y420748
X71100Y429748
X81100Y429748
X84700Y420748
X91100Y429748
X103600Y427248
X110100Y420748
X110089Y418537
X110100Y416348
X107000Y409548
X104800Y409548
X102600Y409548
X91100Y401948
X91100Y399848
X91100Y397748
X86100Y397248
X90600Y392248
X78600Y382248
X71100Y382248
X69900Y375248
X69900Y370248
X69900Y365248
X69900Y360248
X69900Y355248
X64900Y355248
X59900Y355248
X54900Y355248
X54900Y360248
X59900Y360248
X64900Y360248
X64900Y365248
X59900Y365248
X54900Y365248
X54900Y370248
X59900Y370248
X64900Y370248
X64900Y375248
X59900Y375248
X54900Y375248
X48600Y374748
X48600Y367248
X48600Y359748
X55900Y347148
X55900Y344948
X67600Y341748
X67600Y339248
X67600Y336748
X67600Y334248
X67600Y331748
X80100Y331748
X80100Y334248
X80100Y336748
X80100Y339248
X80100Y341748
X89600Y344748
X100600Y341148
X103600Y341148
X103600Y337148
X100600Y337148
X100600Y333148
X103600Y333148
X103600Y329148
X100600Y329148
X89500Y332548
X93600Y356248
X93600Y366248
X93600Y371248
X93600Y376148
X74900Y375248
X74900Y370248
X74900Y365248
X74900Y360248
X74900Y355248
X63600Y382248
X56100Y382248
X48600Y382248
X48600Y389748
X56100Y389748
X56100Y397248
X48600Y397248
X48600Y404748
X56100Y404748
X56100Y412248
X48600Y412248
X63600Y412248
X63600Y404748
X71100Y404748
X78600Y404748
X78600Y412248
X71100Y412248
X86100Y404748
X119900Y366548
X118100Y361148
X120300Y356148
X130600Y366548
X161100Y367248
X163600Y369748
X166100Y367248
X168600Y369748
X171100Y367248
X173600Y369748
X175400Y358048
X170000Y356648
X167800Y356648
X165700Y356648
X187000Y373948
X190100Y381048
X201600Y380248
X201600Y377248
X201600Y374248
X205600Y374248
X205600Y377248
X205600Y380248
X205600Y383248
X201600Y383248
X209600Y383248
X209600Y380248
X209600Y377248
X209600Y374248
X213600Y374248
X213600Y377248
X213600Y380248
X213600Y383248
X217600Y383248
X217600Y380248
X217600Y377248
X217600Y374248
X208200Y364148
X204600Y363148
X202000Y362348
X199100Y364048
X197600Y362548
X198300Y355448
X196100Y355448
X194700Y348248
X194500Y339548
X211300Y340648
X212900Y338048
X223800Y344348
X225400Y346648
X222200Y346648
X225900Y317398
X228300Y317498
X199300Y320448
X193600Y317248
X214300Y257948
X198600Y222248
X198600Y217248
X198600Y212248
X198600Y207248
X198600Y202248
X193600Y202248
X188600Y202248
X183600Y202248
X178600Y202248
X178600Y207248
X183600Y207248
X188600Y207248
X193600Y207248
X193600Y212248
X188600Y212248
X183600Y212248
X178600Y212248
X183600Y217248
X188600Y217248
X193600Y217248
X193600Y222248
X188600Y222248
X177500Y222248
X173600Y235748
X145300Y208148
X143100Y208148
X140900Y208148
X131900Y229848
X131900Y231848
X111800Y247948
X109300Y247948
X106800Y247948
X104300Y247948
X101800Y247948
X101800Y250448
X104300Y250448
X106800Y250448
X109300Y250448
X111800Y250448
X114900Y258048
X94100Y269248
X94100Y271748
X94100Y274248
X85100Y273748
X85100Y271248
X85100Y268748
X76500Y271548
X79700Y283948
X85100Y255748
X87600Y255748
X87600Y236748
X90100Y236748
X92600Y236748
X85100Y236748
X107400Y202348
X100000Y201048
X104000Y186548
X125400Y182248
X130000Y170248
X135900Y161448
X138200Y154748
X138000Y148548
X141700Y148648
X140200Y128548
X125100Y119248
X120100Y119248
X118100Y114848
X115800Y114848
X120100Y124248
X114800Y138948
X114800Y141248
X113500Y152348
X113200Y156448
X110900Y156448
X104600Y152248
X104600Y147248
X96600Y147248
X96600Y152248
X89500Y143848
X88600Y139248
X86600Y136748
X83600Y136748
X81100Y137748
X81100Y140748
X80600Y143748
X77600Y143748
X74600Y143748
X71600Y143748
X71600Y140748
X71600Y137748
X69100Y136748
X66100Y136748
X65100Y133248
X62100Y138248
X63600Y140748
X63600Y143748
X60600Y143748
X59600Y141248
X59100Y138248
X51100Y138248
X47600Y138248
X48100Y146248
X51100Y146248
X51100Y149248
X52600Y151748
X55600Y151748
X58600Y151748
X61600Y151748
X64600Y151748
X67600Y151748
X70600Y151748
X73600Y151748
X76600Y151748
X79600Y151748
X82600Y151748
X85200Y151748
X92100Y139748
X84000Y112148
X92500Y89548
X100900Y86748
X125000Y87948
X135000Y111548
X149100Y84248
X190000Y163348
X193900Y179048
X178100Y176448
X177100Y185948
X172200Y185948
X213600Y197248
X222900Y192048
X221400Y188448
X219000Y183048
X336400Y191448
X342600Y190448
X347000Y194548
X351100Y197548
X353600Y186548
X363600Y197248
X387000Y189348
X387000Y186348
X387000Y183348
X379400Y172948
X372000Y165548
X365400Y162048
X381800Y155548
X387000Y151348
X387000Y148348
X387000Y145348
X387000Y142348
X390000Y142348
X393000Y142348
X396000Y142348
X396000Y145348
X393000Y145348
X390000Y145348
X390000Y148348
X393000Y148348
X396000Y148348
X396000Y151348
X393000Y151348
X390000Y151348
X378800Y138748
X376400Y140748
X375200Y135648
X375200Y132848
X375800Y122348
X371200Y115848
X365500Y112348
X374000Y106348
X382200Y116448
X388400Y116448
X394200Y116448
X403400Y116848
X410600Y125548
X410600Y128048
X410600Y131048
X410600Y134048
X410600Y136848
X401200Y136348
X423600Y149748
X426100Y149748
X428600Y149748
X428600Y152248
X426100Y152248
X423600Y152248
X423600Y154748
X426100Y154748
X428600Y154748
X428600Y157248
X426100Y157248
X423600Y157248
X436900Y139848
X439900Y139848
X442900Y139848
X452000Y141348
X455000Y141348
X458000Y141348
X461000Y141348
X464000Y141348
X464000Y118348
X461000Y118348
X458000Y118348
X455000Y118348
X452000Y118348
X443100Y122048
X440100Y122048
X437100Y122048
X414000Y96348
X394000Y106348
X359700Y124948
X357400Y124948
X359800Y128248
X360500Y132148
X360500Y135148
X377600Y147148
X394000Y216348
X414000Y216348
X394000Y246348
X387100Y256348
X388300Y266748
X394700Y266748
X401400Y266848
X379400Y266748
X377000Y259948
X367700Y258248
X357500Y272848
X284600Y291748
X228700Y383848
X226300Y389448
X220800Y392148
X224100Y398048
X227300Y398048
X227400Y405048
X224000Y405048
X217100Y402048
X210900Y403048
X210900Y400948
X206400Y401948
X204300Y401948
X202100Y393748
X208400Y393248
X212900Y393348
X207900Y409948
X204600Y409948
X201000Y409848
X197800Y409748
X180900Y405548
X180800Y402848
X240400Y409348
X233600Y497248
X233600Y507248
X233600Y517248
X111100Y457248
X117700Y317648
X119800Y317648
X121900Y317648
X48700Y188048
X48700Y185748
X64300Y174048
X69300Y173948
X68600Y170848
X71000Y170848
X54600Y123748
X51600Y123748
X48600Y123748
X57000Y105748
X59400Y105748
X434000Y66348
X441400Y57448
X456100Y33448
X465100Y35648
X473800Y33548
X480900Y27148
X464600Y21648
X460900Y25248
X474000Y66348
X494000Y66348
X514000Y66348
X544000Y76348
X508400Y31348
X478000Y251348
X476000Y302348
X481000Y302348
X486000Y302348
X491000Y302348
X496000Y302348
X496000Y307348
X491000Y307348
X486000Y307348
X481000Y307348
X476000Y307348
X476000Y312348
X481000Y312348
X486000Y312348
X491000Y312348
X496000Y312348
X496000Y317348
X491000Y317348
X486000Y317348
X481000Y317348
X476000Y317348
X476000Y322348
X481000Y322348
X486000Y322348
X491000Y322348
X496000Y322348
X477000Y336348
X472000Y336348
X467000Y336348
X462000Y336348
X457000Y336348
X457000Y341348
X462000Y341348
X467000Y341348
X472000Y341348
X477000Y341348
X477000Y346348
X472000Y346348
X467000Y346348
X462000Y346348
X457000Y346348
X457000Y351348
X462000Y351348
X467000Y351348
X472000Y351348
X477000Y351348
X477000Y356348
X472000Y356348
X467000Y356348
X462000Y356348
X457000Y356348
X544000Y356348
X544000Y386348
T02
X194100Y148648
X194100Y143648
X194100Y138648
X194100Y133648
X194100Y128648
X189100Y128648
X189100Y133648
X189100Y138648
X189100Y143648
X189100Y148648
X78300Y199548
X73300Y199548
X68300Y199548
X63300Y199548
X58300Y199548
X58300Y204548
X63300Y204548
X68300Y204548
X73300Y204548
X78300Y204548
T03
X308700Y32648
X328385Y32648
T04
X332322Y22018
X304763Y22018
T05
X272700Y30548
X262700Y30548
X252700Y30548
X242700Y30548
X232700Y30548
X222700Y30548
X212700Y30548
X202700Y30548
X168900Y30548
X158900Y30548
X148900Y30548
X138900Y30548
X117000Y30548
X107000Y30548
X97000Y30548
X87000Y30548
X64400Y81848
X64400Y91848
X77800Y100048
X87800Y100048
X114100Y99148
X124100Y99148
X154800Y116548
X154800Y126548
X154800Y136548
X154800Y146548
X172900Y146848
X172900Y136848
X172900Y126848
X172900Y116848
X172900Y106848
X234700Y231448
X244700Y231448
X254700Y231448
X264700Y231448
X274700Y231448
X284700Y231448
X294700Y231448
X304700Y231448
X345700Y231648
X345700Y221648
X345700Y211648
X347600Y186448
X347600Y176448
X347600Y166448
X347600Y156448
X347600Y146448
X347600Y136448
X346500Y116348
X346500Y106348
X346500Y96348
X346500Y86348
X346500Y76348
X346500Y66348
X346500Y56348
X346500Y46348
X374810Y44748
X374810Y54748
X374810Y64748
X374810Y74748
X411810Y84748
X431810Y84748
X432110Y53848
X432110Y43848
X401910Y31648
X391910Y31648
X521550Y57548
X431810Y194348
X411810Y194348
X411810Y240048
X431810Y240048
X530650Y211298
X431810Y345748
X411810Y345748
X366350Y348648
X411810Y393348
X431810Y393348
X510600Y370348
X431810Y500748
X411810Y500748
X269500Y416148
X269500Y406148
X269500Y396148
X269500Y386148
X269500Y376148
X269500Y366148
X269500Y356148
X269500Y346148
X128981Y381481
X125508Y361784
X193500Y508348
X203500Y508348
T06
X245429Y518391
X275429Y507368
T07
X292224Y507318
X331594Y517161
X326673Y418932
X311909Y418932
X297146Y418932
X209700Y216148
X198819Y188167
X170981Y160329
X94700Y216148
T08
X76200Y226448
X56200Y226448
X56200Y246448
X76200Y246448
X113684Y276876
X136125Y276876
X172739Y276876
X195180Y276876
X76400Y295748
X76400Y315748
X56400Y315748
X56400Y295748
X56400Y465548
X56400Y485548
X76400Y485548
X76400Y465548
X108600Y518548
X128600Y518548
X183785Y471364
X206226Y471364
X242840Y471364
X265281Y471364
X520600Y457348
X520600Y437348
X540600Y437348
X540600Y457348
X540600Y318048
X540600Y298048
X520600Y298048
X520600Y318048
X520600Y148848
X520600Y128848
X540600Y128848
X540600Y148848
T09
X530600Y148848
X530600Y128848
X530600Y298048
X530600Y318048
X530600Y437348
X530600Y457348
X66400Y465548
X66400Y485548
X66400Y315748
X66400Y295748
X66200Y246448
X66200Y226448
T10
X59348Y32996
X539663Y32996
X539663Y513311
X59348Y513311
T11
X64800Y59148
M30
