G75*
%MOIN*%
%OFA0B0*%
%FSLAX25Y25*%
%IPPOS*%
%LPD*%
%AMOC8*
5,1,8,0,0,1.08239X$1,22.5*
%
%ADD10C,0.16548*%
%ADD11R,0.05524X0.03950*%
%ADD12R,0.08477X0.08477*%
%ADD13C,0.08477*%
%ADD14C,0.06509*%
%ADD15C,0.06737*%
%ADD16OC8,0.08400*%
%ADD17R,0.03950X0.05524*%
%ADD18OC8,0.06800*%
%ADD19R,0.06706X0.02965*%
%ADD20C,0.09400*%
%ADD21OC8,0.07887*%
%ADD22C,0.10800*%
%ADD23C,0.02160*%
%ADD24R,0.07887X0.07099*%
%ADD25R,0.08674X0.07099*%
%ADD26R,0.04737X0.06312*%
%ADD27R,0.03162X0.03162*%
%ADD28R,0.06312X0.02847*%
%ADD29C,0.11430*%
%ADD30OC8,0.10800*%
%ADD31R,0.01981X0.02769*%
%ADD32C,0.00500*%
%ADD33R,0.07099X0.08674*%
%ADD34R,0.07099X0.07887*%
%ADD35C,0.23800*%
%ADD36R,0.11036X0.04973*%
%ADD37R,0.22973X0.23241*%
%ADD38R,0.12887X0.06784*%
%ADD39R,0.03359X0.02769*%
%ADD40C,0.05162*%
%ADD41R,0.07099X0.12611*%
%ADD42R,0.23635X0.25209*%
%ADD43R,0.03280X0.04068*%
%ADD44C,0.09658*%
%ADD45C,0.09658*%
%ADD46R,0.11824X0.11824*%
%ADD47R,0.01666X0.03792*%
%ADD48R,0.03792X0.01666*%
%ADD49R,0.04737X0.07887*%
%ADD50R,0.05131X0.04737*%
%ADD51R,0.04737X0.05131*%
%ADD52R,0.06312X0.05524*%
%ADD53R,0.04934X0.09461*%
%ADD54R,0.04737X0.03950*%
%ADD55R,0.12611X0.07099*%
%ADD56R,0.25209X0.23635*%
%ADD57R,0.06312X0.04737*%
%ADD58R,0.05524X0.03162*%
%ADD59R,0.27178X0.27178*%
%ADD60C,0.09461*%
D10*
X0064800Y0059148D03*
D11*
X0091000Y0056991D03*
X0091000Y0049905D03*
X0113000Y0049905D03*
X0113000Y0056991D03*
X0127800Y0037591D03*
X0127800Y0030505D03*
X0142900Y0049905D03*
X0142900Y0056991D03*
X0164900Y0056991D03*
X0164900Y0049905D03*
X0178200Y0046591D03*
X0185200Y0046591D03*
X0185200Y0039505D03*
X0178200Y0039505D03*
X0178900Y0030591D03*
X0178900Y0023505D03*
X0193200Y0039505D03*
X0200200Y0039505D03*
X0200200Y0046591D03*
X0193200Y0046591D03*
X0208200Y0046591D03*
X0215200Y0046591D03*
X0215200Y0039505D03*
X0208200Y0039505D03*
X0223200Y0039505D03*
X0223200Y0046591D03*
X0230200Y0046591D03*
X0230200Y0039505D03*
X0238200Y0039505D03*
X0245200Y0039505D03*
X0245200Y0046591D03*
X0238200Y0046591D03*
X0253200Y0046591D03*
X0260200Y0046591D03*
X0260200Y0039505D03*
X0253200Y0039505D03*
X0268200Y0039505D03*
X0268200Y0046591D03*
X0275200Y0046591D03*
X0275200Y0039505D03*
X0283200Y0039505D03*
X0290200Y0039505D03*
X0290200Y0046591D03*
X0283200Y0046591D03*
X0280200Y0069505D03*
X0272700Y0069505D03*
X0265200Y0069505D03*
X0257700Y0069505D03*
X0257700Y0076591D03*
X0265200Y0076591D03*
X0272700Y0076591D03*
X0280200Y0076591D03*
X0287700Y0076591D03*
X0295200Y0076591D03*
X0295200Y0069505D03*
X0287700Y0069505D03*
X0250200Y0069505D03*
X0242700Y0069505D03*
X0235200Y0069505D03*
X0235200Y0076591D03*
X0242700Y0076591D03*
X0250200Y0076591D03*
X0227700Y0076591D03*
X0220200Y0076591D03*
X0212700Y0076591D03*
X0212700Y0069505D03*
X0220200Y0069505D03*
X0227700Y0069505D03*
X0205200Y0069505D03*
X0197700Y0069505D03*
X0190200Y0069505D03*
X0190200Y0076591D03*
X0197700Y0076591D03*
X0205200Y0076591D03*
X0182700Y0076591D03*
X0182700Y0069505D03*
X0204500Y0121605D03*
X0204500Y0128691D03*
X0212100Y0128691D03*
X0212100Y0121605D03*
X0181800Y0139805D03*
X0181800Y0146891D03*
X0125400Y0130691D03*
X0125400Y0123605D03*
X0110700Y0162605D03*
X0110700Y0169691D03*
X0083400Y0166391D03*
X0076800Y0166391D03*
X0070300Y0166391D03*
X0070300Y0159305D03*
X0076800Y0159305D03*
X0083400Y0159305D03*
X0080200Y0129591D03*
X0080200Y0122505D03*
X0050600Y0192505D03*
X0050600Y0199591D03*
X0144500Y0215905D03*
X0151500Y0215905D03*
X0151500Y0222991D03*
X0144500Y0222991D03*
X0290000Y0243305D03*
X0290000Y0250391D03*
X0297200Y0250491D03*
X0297200Y0243405D03*
X0304200Y0243405D03*
X0304200Y0250491D03*
X0311300Y0250491D03*
X0311300Y0243405D03*
X0476910Y0230791D03*
X0483610Y0230591D03*
X0483610Y0223505D03*
X0476910Y0223705D03*
X0414410Y0060991D03*
X0414410Y0053905D03*
X0381200Y0031691D03*
X0381200Y0024605D03*
X0373600Y0024705D03*
X0373600Y0031791D03*
X0085000Y0480105D03*
X0085000Y0487191D03*
X0214400Y0501305D03*
X0214400Y0508391D03*
D12*
G36*
X0192826Y0188167D02*
X0198819Y0194160D01*
X0204812Y0188167D01*
X0198819Y0182174D01*
X0192826Y0188167D01*
G37*
D13*
X0170981Y0160329D03*
D14*
X0308700Y0032648D03*
X0328385Y0032648D03*
D15*
X0332322Y0022018D03*
X0304763Y0022018D03*
D16*
X0272700Y0030548D03*
X0262700Y0030548D03*
X0252700Y0030548D03*
X0242700Y0030548D03*
X0232700Y0030548D03*
X0222700Y0030548D03*
X0212700Y0030548D03*
X0202700Y0030548D03*
X0172900Y0106848D03*
X0172900Y0116848D03*
X0172900Y0126848D03*
X0172900Y0136848D03*
X0172900Y0146848D03*
X0124100Y0099148D03*
X0114100Y0099148D03*
X0087800Y0100048D03*
X0077800Y0100048D03*
X0064400Y0091848D03*
X0064400Y0081848D03*
X0234700Y0231448D03*
X0244700Y0231448D03*
X0254700Y0231448D03*
X0264700Y0231448D03*
X0274700Y0231448D03*
X0284700Y0231448D03*
X0294700Y0231448D03*
X0304700Y0231448D03*
X0345700Y0231648D03*
X0345700Y0221648D03*
X0345700Y0211648D03*
X0346500Y0116348D03*
X0346500Y0106348D03*
X0346500Y0096348D03*
X0346500Y0086348D03*
X0346500Y0076348D03*
X0346500Y0066348D03*
X0346500Y0056348D03*
X0346500Y0046348D03*
X0391910Y0031648D03*
X0401910Y0031648D03*
X0432110Y0043848D03*
X0432110Y0053848D03*
X0269500Y0346148D03*
X0269500Y0356148D03*
X0269500Y0366148D03*
X0269500Y0376148D03*
X0269500Y0386148D03*
X0269500Y0396148D03*
X0269500Y0406148D03*
X0269500Y0416148D03*
X0203500Y0508348D03*
X0193500Y0508348D03*
D17*
X0102643Y0458348D03*
X0095557Y0458348D03*
X0113157Y0412648D03*
X0120243Y0412648D03*
X0126057Y0412648D03*
X0133143Y0412648D03*
X0289157Y0455526D03*
X0296243Y0455526D03*
X0296243Y0463026D03*
X0289157Y0463026D03*
X0329157Y0463026D03*
X0336243Y0463026D03*
X0336243Y0455526D03*
X0329157Y0455526D03*
X0417757Y0492148D03*
X0424843Y0492148D03*
X0425243Y0383648D03*
X0418157Y0383648D03*
X0418257Y0334648D03*
X0425343Y0334648D03*
X0521357Y0229658D03*
X0528443Y0229658D03*
X0528343Y0222958D03*
X0521257Y0222958D03*
X0504354Y0208048D03*
X0497267Y0208048D03*
X0425343Y0226848D03*
X0418257Y0226848D03*
X0418257Y0182948D03*
X0425343Y0182948D03*
X0362143Y0176448D03*
X0355057Y0176448D03*
X0355057Y0166448D03*
X0362143Y0166448D03*
X0362143Y0156448D03*
X0355057Y0156448D03*
X0355057Y0146448D03*
X0362143Y0146448D03*
X0362254Y0116248D03*
X0355167Y0116248D03*
X0355167Y0108548D03*
X0362254Y0108548D03*
X0362354Y0101148D03*
X0355267Y0101148D03*
X0355167Y0093248D03*
X0362254Y0093248D03*
X0393567Y0076348D03*
X0400654Y0076348D03*
X0418257Y0094848D03*
X0425343Y0094848D03*
X0407454Y0045548D03*
X0400367Y0045548D03*
X0395054Y0045548D03*
X0387967Y0045548D03*
X0323443Y0138448D03*
X0316357Y0138448D03*
X0316357Y0153448D03*
X0323443Y0153448D03*
X0323443Y0168448D03*
X0316357Y0168448D03*
X0316057Y0183448D03*
X0323143Y0183448D03*
X0206743Y0143848D03*
X0199657Y0143848D03*
X0194143Y0155748D03*
X0187057Y0155748D03*
X0137443Y0208148D03*
X0130357Y0208148D03*
X0121043Y0208148D03*
X0121043Y0215448D03*
X0120943Y0223048D03*
X0121257Y0229848D03*
X0128343Y0229848D03*
X0136357Y0230148D03*
X0143443Y0230148D03*
X0113857Y0223048D03*
X0113957Y0215448D03*
X0108643Y0215448D03*
X0101557Y0215448D03*
X0113957Y0208148D03*
X0113957Y0201148D03*
X0121043Y0201148D03*
X0092143Y0204548D03*
X0085057Y0204548D03*
X0086243Y0187848D03*
X0079157Y0187848D03*
X0073243Y0187848D03*
X0066157Y0187848D03*
X0059943Y0186948D03*
X0052857Y0186948D03*
X0118257Y0168348D03*
X0118257Y0161348D03*
X0118257Y0154348D03*
X0125343Y0154348D03*
X0125343Y0161348D03*
X0125343Y0168348D03*
X0125343Y0147348D03*
X0125343Y0140348D03*
X0118257Y0140348D03*
X0118257Y0147348D03*
X0115743Y0121848D03*
X0108657Y0121848D03*
X0096943Y0115648D03*
X0089857Y0115648D03*
X0087843Y0090948D03*
X0080757Y0090948D03*
D18*
X0087000Y0030548D03*
X0097000Y0030548D03*
X0107000Y0030548D03*
X0117000Y0030548D03*
X0138900Y0030548D03*
X0148900Y0030548D03*
X0158900Y0030548D03*
X0168900Y0030548D03*
X0154800Y0116548D03*
X0154800Y0126548D03*
X0154800Y0136548D03*
X0154800Y0146548D03*
X0347600Y0146448D03*
X0347600Y0136448D03*
X0347600Y0156448D03*
X0347600Y0166448D03*
X0347600Y0176448D03*
X0347600Y0186448D03*
X0374810Y0074748D03*
X0374810Y0064748D03*
X0374810Y0054748D03*
X0374810Y0044748D03*
X0521550Y0057548D03*
X0530650Y0211298D03*
X0510600Y0370348D03*
X0366350Y0348648D03*
D19*
X0491680Y0229648D03*
X0491680Y0224648D03*
X0491680Y0219648D03*
X0491680Y0214648D03*
X0512940Y0214648D03*
X0512940Y0219648D03*
X0512940Y0224648D03*
X0512940Y0229648D03*
X0135830Y0391548D03*
X0135830Y0396548D03*
X0135830Y0401548D03*
X0135830Y0406548D03*
X0114570Y0406548D03*
X0114570Y0401548D03*
X0114570Y0396548D03*
X0114570Y0391548D03*
D20*
X0297146Y0418932D03*
X0311909Y0418932D03*
X0326673Y0418932D03*
X0292224Y0507318D03*
X0331594Y0517161D03*
D21*
X0275429Y0507368D03*
X0245429Y0518391D03*
D22*
X0128981Y0381481D03*
X0431810Y0393348D03*
X0431810Y0345748D03*
X0431810Y0240048D03*
X0431810Y0194348D03*
X0431810Y0084748D03*
X0431810Y0500748D03*
D23*
X0124077Y0358921D02*
X0122997Y0357841D01*
X0120943Y0360773D01*
X0121565Y0364295D01*
X0124497Y0366349D01*
X0128019Y0365727D01*
X0130073Y0362795D01*
X0129451Y0359273D01*
X0126519Y0357219D01*
X0122997Y0357841D01*
X0123939Y0359320D01*
X0122655Y0361152D01*
X0123044Y0363353D01*
X0124876Y0364637D01*
X0127077Y0364248D01*
X0128361Y0362416D01*
X0127972Y0360215D01*
X0126140Y0358931D01*
X0123939Y0359320D01*
X0124881Y0360799D01*
X0124367Y0361532D01*
X0124523Y0362411D01*
X0125256Y0362925D01*
X0126135Y0362769D01*
X0126649Y0362036D01*
X0126493Y0361157D01*
X0125760Y0360643D01*
X0124881Y0360799D01*
D24*
X0307000Y0443636D03*
X0307000Y0454660D03*
D25*
X0319000Y0454960D03*
X0319000Y0443936D03*
D26*
X0328960Y0447357D03*
X0336440Y0447357D03*
X0332700Y0438695D03*
X0296440Y0447357D03*
X0288960Y0447357D03*
X0292700Y0438695D03*
X0293940Y0062379D03*
X0286460Y0062379D03*
X0278940Y0062379D03*
X0271460Y0062379D03*
X0263940Y0062379D03*
X0256460Y0062379D03*
X0248940Y0062379D03*
X0241460Y0062379D03*
X0233940Y0062379D03*
X0226460Y0062379D03*
X0218940Y0062379D03*
X0211460Y0062379D03*
X0203940Y0062379D03*
X0196460Y0062379D03*
X0188940Y0062379D03*
X0181460Y0062379D03*
X0185200Y0053717D03*
X0200200Y0053717D03*
X0215200Y0053717D03*
X0230200Y0053717D03*
X0245200Y0053717D03*
X0260200Y0053717D03*
X0275200Y0053717D03*
X0290200Y0053717D03*
X0157640Y0056979D03*
X0150160Y0056979D03*
X0153900Y0048317D03*
X0105740Y0056979D03*
X0098260Y0056979D03*
X0102000Y0048317D03*
D27*
X0297587Y0432926D03*
X0307035Y0432926D03*
X0317087Y0432926D03*
X0326535Y0432926D03*
D28*
X0386868Y0068848D03*
X0386868Y0063848D03*
X0386868Y0058848D03*
X0386868Y0053848D03*
X0406553Y0053848D03*
X0406553Y0058848D03*
X0406553Y0063848D03*
X0406553Y0068848D03*
D29*
X0530600Y0128848D03*
X0530600Y0148848D03*
X0530600Y0298048D03*
X0530600Y0318048D03*
X0530600Y0437348D03*
X0530600Y0457348D03*
X0066400Y0465548D03*
X0066400Y0485548D03*
X0066400Y0315748D03*
X0066400Y0295748D03*
X0066200Y0246448D03*
X0066200Y0226448D03*
D30*
X0411810Y0240048D03*
X0411810Y0194348D03*
X0411810Y0084748D03*
X0411810Y0345748D03*
X0411810Y0393348D03*
X0411810Y0500748D03*
D31*
X0292318Y0381223D03*
X0293893Y0378073D03*
X0290350Y0378073D03*
X0287200Y0378073D03*
X0284050Y0378073D03*
X0285625Y0381223D03*
X0288775Y0381223D03*
X0282082Y0381223D03*
X0280507Y0378073D03*
D32*
X0251731Y0401638D02*
X0252125Y0402200D01*
X0252415Y0402822D01*
X0252593Y0403485D01*
X0252652Y0404169D01*
X0252593Y0404852D01*
X0252415Y0405515D01*
X0252125Y0406137D01*
X0251731Y0406699D01*
X0251246Y0407184D01*
X0250684Y0407578D01*
X0250062Y0407868D01*
X0249399Y0408046D01*
X0248715Y0408106D01*
X0248032Y0408046D01*
X0247369Y0407868D01*
X0246747Y0407578D01*
X0246185Y0407184D01*
X0245699Y0406699D01*
X0245306Y0406137D01*
X0245016Y0405515D01*
X0244838Y0404852D01*
X0244778Y0404169D01*
X0244838Y0403485D01*
X0245016Y0402822D01*
X0245306Y0402200D01*
X0245699Y0401638D01*
X0246185Y0401153D01*
X0246747Y0400759D01*
X0247369Y0400469D01*
X0248032Y0400291D01*
X0248715Y0400231D01*
X0249399Y0400291D01*
X0250062Y0400469D01*
X0250684Y0400759D01*
X0251246Y0401153D01*
X0251731Y0401638D01*
X0251694Y0401600D02*
X0245737Y0401600D01*
X0245377Y0402099D02*
X0252054Y0402099D01*
X0252310Y0402597D02*
X0245121Y0402597D01*
X0244942Y0403096D02*
X0252488Y0403096D01*
X0252602Y0403594D02*
X0244829Y0403594D01*
X0244785Y0404093D02*
X0252646Y0404093D01*
X0252615Y0404591D02*
X0244815Y0404591D01*
X0244902Y0405090D02*
X0252529Y0405090D01*
X0252381Y0405588D02*
X0245050Y0405588D01*
X0245282Y0406087D02*
X0252148Y0406087D01*
X0251811Y0406585D02*
X0245620Y0406585D01*
X0246084Y0407084D02*
X0251347Y0407084D01*
X0250675Y0407582D02*
X0246756Y0407582D01*
X0248434Y0408081D02*
X0248997Y0408081D01*
X0251173Y0401102D02*
X0246257Y0401102D01*
X0247081Y0400603D02*
X0250350Y0400603D01*
X0151846Y0507803D02*
X0151284Y0507409D01*
X0150662Y0507119D01*
X0149999Y0506941D01*
X0149315Y0506881D01*
X0148632Y0506941D01*
X0147969Y0507119D01*
X0147347Y0507409D01*
X0146785Y0507803D01*
X0146299Y0508288D01*
X0145906Y0508850D01*
X0145616Y0509472D01*
X0145438Y0510135D01*
X0145378Y0510819D01*
X0145438Y0511502D01*
X0145616Y0512165D01*
X0145906Y0512787D01*
X0146299Y0513349D01*
X0146785Y0513834D01*
X0147347Y0514228D01*
X0147969Y0514518D01*
X0148632Y0514696D01*
X0149315Y0514756D01*
X0149999Y0514696D01*
X0150662Y0514518D01*
X0151284Y0514228D01*
X0151846Y0513834D01*
X0152331Y0513349D01*
X0152725Y0512787D01*
X0153015Y0512165D01*
X0153193Y0511502D01*
X0153252Y0510819D01*
X0153193Y0510135D01*
X0153015Y0509472D01*
X0152725Y0508850D01*
X0152331Y0508288D01*
X0151846Y0507803D01*
X0151818Y0507783D02*
X0146812Y0507783D01*
X0146306Y0508282D02*
X0152325Y0508282D01*
X0152676Y0508780D02*
X0145955Y0508780D01*
X0145706Y0509279D02*
X0152925Y0509279D01*
X0153097Y0509777D02*
X0145534Y0509777D01*
X0145426Y0510276D02*
X0153205Y0510276D01*
X0153248Y0510774D02*
X0145382Y0510774D01*
X0145418Y0511273D02*
X0153213Y0511273D01*
X0153120Y0511771D02*
X0145510Y0511771D01*
X0145665Y0512270D02*
X0152966Y0512270D01*
X0152734Y0512768D02*
X0145897Y0512768D01*
X0146242Y0513267D02*
X0152389Y0513267D01*
X0151915Y0513765D02*
X0146716Y0513765D01*
X0147424Y0514264D02*
X0151207Y0514264D01*
X0151017Y0507285D02*
X0147613Y0507285D01*
X0514813Y0521748D02*
X0514873Y0522432D01*
X0515050Y0523095D01*
X0515340Y0523717D01*
X0515734Y0524279D01*
X0516219Y0524764D01*
X0516781Y0525158D01*
X0517403Y0525448D01*
X0518066Y0525625D01*
X0518750Y0525685D01*
X0519434Y0525625D01*
X0520097Y0525448D01*
X0520719Y0525158D01*
X0521281Y0524764D01*
X0521766Y0524279D01*
X0522160Y0523717D01*
X0522450Y0523095D01*
X0522627Y0522432D01*
X0522687Y0521748D01*
X0522627Y0521064D01*
X0522450Y0520402D01*
X0522160Y0519780D01*
X0521766Y0519217D01*
X0521281Y0518732D01*
X0520719Y0518338D01*
X0520097Y0518048D01*
X0519434Y0517871D01*
X0518750Y0517811D01*
X0518066Y0517871D01*
X0517403Y0518048D01*
X0516781Y0518338D01*
X0516219Y0518732D01*
X0515734Y0519217D01*
X0515340Y0519780D01*
X0515050Y0520402D01*
X0514873Y0521064D01*
X0514813Y0521748D01*
X0514814Y0521741D02*
X0522686Y0521741D01*
X0522643Y0521243D02*
X0514857Y0521243D01*
X0514959Y0520744D02*
X0522541Y0520744D01*
X0522377Y0520246D02*
X0515123Y0520246D01*
X0515363Y0519747D02*
X0522137Y0519747D01*
X0521788Y0519249D02*
X0515712Y0519249D01*
X0516201Y0518750D02*
X0521299Y0518750D01*
X0520533Y0518252D02*
X0516967Y0518252D01*
X0514856Y0522240D02*
X0522644Y0522240D01*
X0522545Y0522739D02*
X0514955Y0522739D01*
X0515117Y0523237D02*
X0522383Y0523237D01*
X0522146Y0523736D02*
X0515354Y0523736D01*
X0515703Y0524234D02*
X0521797Y0524234D01*
X0521312Y0524733D02*
X0516188Y0524733D01*
X0516939Y0525231D02*
X0520561Y0525231D01*
X0316347Y0056998D02*
X0316969Y0056708D01*
X0317531Y0056314D01*
X0318016Y0055829D01*
X0318410Y0055267D01*
X0318700Y0054645D01*
X0318877Y0053982D01*
X0318937Y0053298D01*
X0318877Y0052614D01*
X0318700Y0051952D01*
X0318410Y0051330D01*
X0318016Y0050767D01*
X0317531Y0050282D01*
X0316969Y0049888D01*
X0316347Y0049598D01*
X0315684Y0049421D01*
X0315000Y0049361D01*
X0314316Y0049421D01*
X0313653Y0049598D01*
X0313031Y0049888D01*
X0312469Y0050282D01*
X0311984Y0050767D01*
X0311590Y0051330D01*
X0311300Y0051952D01*
X0311123Y0052614D01*
X0311063Y0053298D01*
X0311123Y0053982D01*
X0311300Y0054645D01*
X0311590Y0055267D01*
X0311984Y0055829D01*
X0312469Y0056314D01*
X0313031Y0056708D01*
X0313653Y0056998D01*
X0314316Y0057175D01*
X0315000Y0057235D01*
X0315684Y0057175D01*
X0316347Y0056998D01*
X0315856Y0057129D02*
X0314144Y0057129D01*
X0312921Y0056630D02*
X0317079Y0056630D01*
X0317713Y0056132D02*
X0312287Y0056132D01*
X0311847Y0055633D02*
X0318153Y0055633D01*
X0318471Y0055135D02*
X0311529Y0055135D01*
X0311298Y0054636D02*
X0318702Y0054636D01*
X0318835Y0054138D02*
X0311165Y0054138D01*
X0311093Y0053639D02*
X0318907Y0053639D01*
X0318923Y0053141D02*
X0311077Y0053141D01*
X0311120Y0052642D02*
X0318880Y0052642D01*
X0318751Y0052144D02*
X0311249Y0052144D01*
X0311443Y0051645D02*
X0318557Y0051645D01*
X0318282Y0051147D02*
X0311718Y0051147D01*
X0312103Y0050648D02*
X0317897Y0050648D01*
X0317342Y0050150D02*
X0312658Y0050150D01*
X0313540Y0049651D02*
X0316460Y0049651D01*
D33*
X0321449Y0505098D03*
X0332473Y0505098D03*
D34*
X0313173Y0505098D03*
X0302149Y0505098D03*
D35*
X0059348Y0032996D03*
X0539663Y0032996D03*
X0539663Y0513311D03*
X0059348Y0513311D03*
D36*
X0102900Y0260459D03*
X0102900Y0242459D03*
D37*
X0128687Y0251459D03*
D38*
X0094400Y0294031D03*
X0094400Y0324465D03*
D39*
X0141939Y0161472D03*
X0141939Y0158323D03*
X0141939Y0155173D03*
X0141939Y0152024D03*
X0146861Y0152024D03*
X0146861Y0155173D03*
X0146861Y0158323D03*
X0146861Y0161472D03*
D40*
X0189100Y0148648D03*
X0189100Y0143648D03*
X0189100Y0138648D03*
X0189100Y0133648D03*
X0189100Y0128648D03*
X0194100Y0128648D03*
X0194100Y0133648D03*
X0194100Y0138648D03*
X0194100Y0143648D03*
X0194100Y0148648D03*
X0078300Y0199548D03*
X0073300Y0199548D03*
X0068300Y0199548D03*
X0063300Y0199548D03*
X0058300Y0199548D03*
X0058300Y0204548D03*
X0063300Y0204548D03*
X0068300Y0204548D03*
X0073300Y0204548D03*
X0078300Y0204548D03*
D41*
X0095604Y0469948D03*
X0113596Y0469948D03*
D42*
X0104600Y0498216D03*
D43*
X0104628Y0451648D03*
X0095572Y0451648D03*
D44*
X0183785Y0466935D02*
X0183785Y0475793D01*
X0206226Y0475793D02*
X0206226Y0466935D01*
X0242840Y0466935D02*
X0242840Y0475793D01*
X0265281Y0475793D02*
X0265281Y0466935D01*
X0195180Y0281306D02*
X0195180Y0272447D01*
X0172739Y0272447D02*
X0172739Y0281306D01*
X0136125Y0281306D02*
X0136125Y0272447D01*
X0113684Y0272447D02*
X0113684Y0281306D01*
D45*
X0076400Y0295748D03*
X0076400Y0315748D03*
X0056400Y0315748D03*
X0056400Y0295748D03*
X0056200Y0246448D03*
X0056200Y0226448D03*
X0076200Y0226448D03*
X0076200Y0246448D03*
X0076400Y0465548D03*
X0076400Y0485548D03*
X0056400Y0485548D03*
X0056400Y0465548D03*
X0108600Y0518548D03*
X0128600Y0518548D03*
X0520600Y0457348D03*
X0520600Y0437348D03*
X0540600Y0437348D03*
X0540600Y0457348D03*
X0540600Y0318048D03*
X0540600Y0298048D03*
X0520600Y0298048D03*
X0520600Y0318048D03*
X0520600Y0148848D03*
X0520600Y0128848D03*
X0540600Y0128848D03*
X0540600Y0148848D03*
D46*
X0100800Y0148448D03*
D47*
X0101587Y0156322D03*
X0100013Y0156322D03*
X0098438Y0156322D03*
X0096863Y0156322D03*
X0095288Y0156322D03*
X0103162Y0156322D03*
X0104737Y0156322D03*
X0106312Y0156322D03*
X0106312Y0140574D03*
X0104737Y0140574D03*
X0103162Y0140574D03*
X0101587Y0140574D03*
X0100013Y0140574D03*
X0098438Y0140574D03*
X0096863Y0140574D03*
X0095288Y0140574D03*
D48*
X0092926Y0142936D03*
X0092926Y0144511D03*
X0092926Y0146086D03*
X0092926Y0147661D03*
X0092926Y0149235D03*
X0092926Y0150810D03*
X0092926Y0152385D03*
X0092926Y0153960D03*
X0108674Y0153960D03*
X0108674Y0152385D03*
X0108674Y0150810D03*
X0108674Y0149235D03*
X0108674Y0147661D03*
X0108674Y0146086D03*
X0108674Y0144511D03*
X0108674Y0142936D03*
D49*
X0108679Y0130748D03*
X0118521Y0130748D03*
D50*
X0079546Y0147648D03*
X0072854Y0147648D03*
X0061946Y0147648D03*
X0055254Y0147648D03*
X0055246Y0142148D03*
X0048554Y0142148D03*
D51*
X0067500Y0140902D03*
X0067500Y0147594D03*
X0084800Y0147594D03*
X0084800Y0140902D03*
D52*
X0088269Y0129598D03*
X0088269Y0123298D03*
X0096931Y0123298D03*
X0096931Y0129598D03*
D53*
X0060613Y0130748D03*
X0049787Y0130748D03*
D54*
X0055200Y0136752D03*
D55*
X0163119Y0204993D03*
X0163119Y0223103D03*
X0089600Y0261152D03*
X0089600Y0279144D03*
D56*
X0061332Y0270148D03*
D57*
X0330269Y0187188D03*
X0330269Y0179708D03*
X0330269Y0172188D03*
X0330269Y0164708D03*
X0330269Y0157188D03*
X0330269Y0149708D03*
X0330269Y0142188D03*
X0330269Y0134708D03*
X0338931Y0138448D03*
X0338931Y0153448D03*
X0338931Y0168448D03*
X0338931Y0183448D03*
D58*
X0137442Y0215508D03*
X0137442Y0222988D03*
X0127158Y0222988D03*
X0127158Y0219248D03*
X0127158Y0215508D03*
D59*
X0189300Y0214048D03*
D60*
X0209700Y0216148D03*
X0094700Y0216148D03*
M02*
