G04 ================== begin FILE IDENTIFICATION RECORD ==================*
G04 Layout Name:  pc-1160-p ganges rtc card pcb.brd*
G04 Film Name:    SST*
G04 File Format:  Gerber RS274X*
G04 File Origin:  Cadence Allegro 17.4-S029*
G04 Origin Date:  Tue Aug  8 14:46:01 2023*
G04 *
G04 Layer:  MANUFACTURING/PHOTOPLOT_OUTLINE*
G04 Layer:  BOARD GEOMETRY/DESIGN_OUTLINE*
G04 Layer:  REF DES/SILKSCREEN_TOP*
G04 Layer:  PACKAGE GEOMETRY/SILKSCREEN_TOP*
G04 Layer:  BOARD GEOMETRY/SILKSCREEN_TOP*
G04 Layer:  BOARD GEOMETRY/OUTLINE*
G04 *
G04 Offset:    (0.00 0.00)*
G04 Mirror:    No*
G04 Mode:      Positive*
G04 Rotation:  0*
G04 FullContactRelief:  No*
G04 UndefLineWidth:     10.00*
G04 ================== end FILE IDENTIFICATION RECORD ====================*
%FSLAX25Y25*MOIN*%
%IR0*IPPOS*OFA0.00000B0.00000*MIA0B0*SFA1.00000B1.00000*%
%ADD10C,.012*%
%ADD11C,.01*%
G75*
%LPD*%
G75*
G36*
G01X-92885Y-57874D02*
G03I-2784J0D01*
G37*
G36*
G01X-34786Y59614D02*
G03I-1803J0D01*
G37*
G36*
G01X7214Y-31886D02*
G03I-1803J0D01*
G37*
G54D10*
G01X-194192Y-47183D02*
X-193900Y-47683D01*
X-193550Y-48016D01*
X-193142Y-48183D01*
X-192675Y-48016D01*
X-192325Y-47683D01*
X-191975Y-47183D01*
X-191858Y-46516D01*
Y-43183D01*
G01X-189808Y-47183D02*
X-189458Y-47766D01*
X-188992Y-48100D01*
X-188467Y-48183D01*
X-188000Y-48100D01*
X-187533Y-47683D01*
X-187242Y-47183D01*
X-187183Y-46683D01*
X-187300Y-46100D01*
X-187708Y-45683D01*
X-188117Y-45516D01*
X-188642D01*
G01X-188117D02*
X-187767Y-45266D01*
X-187475Y-44850D01*
X-187358Y-44350D01*
X-187475Y-43850D01*
X-187767Y-43433D01*
X-188292Y-43183D01*
X-188817Y-43266D01*
X-189342Y-43600D01*
G01X-137417Y7000D02*
Y12000D01*
X-136017D01*
X-135550Y11750D01*
X-135200Y11167D01*
X-135083Y10500D01*
X-135200Y9833D01*
X-135492Y9333D01*
X-136017Y9083D01*
X-137417D01*
G01X-130467Y11583D02*
X-130817Y11833D01*
X-131225Y12000D01*
X-131692D01*
X-132217Y11750D01*
X-132625Y11333D01*
X-132917Y10833D01*
X-133150Y10000D01*
X-133208Y9250D01*
X-133092Y8500D01*
X-132917Y8000D01*
X-132567Y7500D01*
X-132158Y7167D01*
X-131750Y7000D01*
X-131342D01*
X-130933Y7167D01*
X-130583Y7417D01*
X-130292Y7750D01*
G01X-128008Y8667D02*
X-126492D01*
G01X-122750Y7000D02*
Y12000D01*
X-123450Y11000D01*
G01Y7000D02*
X-122050D01*
G01X-118250D02*
Y12000D01*
X-118950Y11000D01*
G01Y7000D02*
X-117550D01*
G01X-114858Y9083D02*
X-114450Y9667D01*
X-114100Y10000D01*
X-113633Y10167D01*
X-113225Y10000D01*
X-112933Y9667D01*
X-112700Y9167D01*
X-112642Y8583D01*
X-112700Y8083D01*
X-112933Y7583D01*
X-113283Y7167D01*
X-113692Y7000D01*
X-114158Y7167D01*
X-114567Y7667D01*
X-114800Y8417D01*
X-114858Y9250D01*
X-114742Y10333D01*
X-114567Y10917D01*
X-114275Y11500D01*
X-113867Y11917D01*
X-113458Y12000D01*
X-113050Y11833D01*
X-112758Y11417D01*
G01X-109250Y12000D02*
X-109717Y11833D01*
X-110067Y11417D01*
X-110300Y10917D01*
X-110475Y10250D01*
X-110533Y9500D01*
X-110475Y8750D01*
X-110300Y8083D01*
X-110067Y7583D01*
X-109717Y7167D01*
X-109250Y7000D01*
X-108783Y7167D01*
X-108433Y7583D01*
X-108200Y8083D01*
X-108025Y8750D01*
X-107967Y9500D01*
X-108025Y10250D01*
X-108200Y10917D01*
X-108433Y11417D01*
X-108783Y11833D01*
X-109250Y12000D01*
G01X-105508Y8667D02*
X-103992D01*
G01X-101417Y7000D02*
Y12000D01*
X-100017D01*
X-99550Y11750D01*
X-99200Y11167D01*
X-99083Y10500D01*
X-99200Y9833D01*
X-99492Y9333D01*
X-100017Y9083D01*
X-101417D01*
G01X-104283Y-44803D02*
X-103991Y-45303D01*
X-103641Y-45636D01*
X-103233Y-45803D01*
X-102766Y-45636D01*
X-102416Y-45303D01*
X-102066Y-44803D01*
X-101949Y-44136D01*
Y-40803D01*
G01X-97916Y-45803D02*
Y-40803D01*
X-100074Y-44386D01*
X-97158D01*
G01X-59744Y-48167D02*
X-59452Y-48667D01*
X-59102Y-49000D01*
X-58694Y-49167D01*
X-58227Y-49000D01*
X-57877Y-48667D01*
X-57527Y-48167D01*
X-57410Y-47500D01*
Y-44167D01*
G01X-55360Y-48417D02*
X-55010Y-48834D01*
X-54602Y-49084D01*
X-54077Y-49167D01*
X-53552Y-49000D01*
X-53144Y-48667D01*
X-52852Y-48084D01*
X-52794Y-47417D01*
X-52910Y-46750D01*
X-53202Y-46334D01*
X-53610Y-46000D01*
X-54019Y-45917D01*
X-54427Y-46000D01*
X-54952Y-46334D01*
X-54777Y-44167D01*
X-53202D01*
G01X-57157Y13232D02*
X-56865Y12732D01*
X-56515Y12399D01*
X-56107Y12232D01*
X-55640Y12399D01*
X-55290Y12732D01*
X-54940Y13232D01*
X-54823Y13899D01*
Y17232D01*
G01X-51490Y12232D02*
Y17232D01*
X-52190Y16232D01*
G01Y12232D02*
X-50790D01*
G01X12923Y-8834D02*
X13215Y-9334D01*
X13565Y-9667D01*
X13973Y-9834D01*
X14440Y-9667D01*
X14790Y-9334D01*
X15140Y-8834D01*
X15257Y-8167D01*
Y-4834D01*
G01X17482Y-5667D02*
X17832Y-5167D01*
X18240Y-4917D01*
X18707Y-4834D01*
X19290Y-5001D01*
X19698Y-5417D01*
X19815Y-5917D01*
X19757Y-6417D01*
X19523Y-6834D01*
X18357Y-7667D01*
X17832Y-8251D01*
X17482Y-9084D01*
X17365Y-9834D01*
X19815D01*
G01X16215Y17394D02*
X16448Y17644D01*
X16623Y18060D01*
X16740Y18644D01*
X16623Y19144D01*
X16390Y19477D01*
X15981Y19727D01*
X14406D01*
Y14727D01*
X16331D01*
X16740Y15060D01*
X16973Y15560D01*
X17090Y16144D01*
X16973Y16727D01*
X16623Y17227D01*
X16215Y17394D01*
X14406D01*
G01X20248Y19727D02*
Y14727D01*
G01X18906Y19727D02*
X21590D01*
G01X24748Y14727D02*
Y19727D01*
X24048Y18727D01*
G01Y14727D02*
X25448D01*
G54D11*
G01X-124684Y-51574D02*
X-193582D01*
Y-94094D01*
X-124684D01*
X-110235D01*
Y-51574D01*
X-124684D01*
G01X-196850Y-73622D02*
Y21654D01*
X-69685D01*
Y109448D01*
X31102D01*
Y-73622D01*
X-196850D01*
G01X-104764Y-89480D02*
Y-53480D01*
X-68764D01*
Y-89480D01*
X-99264D01*
X-104764D01*
G01X-94489Y16870D02*
X-58489D01*
Y-19130D01*
X-94489D01*
Y11370D01*
Y16870D01*
G01X6811Y-51574D02*
X-62087D01*
Y-94094D01*
X6811D01*
X21260D01*
Y-51574D01*
X6811D01*
G01X-68898Y65354D02*
G03X15465Y51574I43307J0D01*
G01X29528D01*
Y79134D01*
X15575D01*
X15492Y79051D01*
G03X-68898Y65354I-41083J-13697D01*
G01X5905Y-46063D02*
X29528D01*
Y-12598D01*
X5905D01*
X4921D01*
Y-46063D01*
X5905D01*
G01X14764Y-12598D02*
Y-14566D01*
X6890D01*
Y-44094D01*
X14764D01*
Y-46063D01*
G01X17553Y-43216D02*
X18053Y-43596D01*
X18303Y-44040D01*
X18386Y-44546D01*
X18219Y-45179D01*
X17803Y-45623D01*
X17303Y-45749D01*
X16803Y-45686D01*
X16386Y-45433D01*
X15553Y-44166D01*
X14969Y-43596D01*
X14136Y-43216D01*
X13386Y-43090D01*
Y-45749D01*
G01X14173Y-14497D02*
X19173D01*
X18173Y-13738D01*
G01X14173D02*
Y-15257D01*
G01X29899Y66049D02*
X28379D01*
G01X29203Y64966D02*
Y67133D01*
M02*
