G04*
G04 #@! TF.GenerationSoftware,Altium Limited,Altium Designer,22.3.1 (43)*
G04*
G04 Layer_Color=255*
%FSLAX25Y25*%
%MOIN*%
G70*
G04*
G04 #@! TF.SameCoordinates,3C66329E-7EC6-4DA4-B4DD-612C795C30B2*
G04*
G04*
G04 #@! TF.FilePolarity,Positive*
G04*
G01*
G75*
%ADD10C,0.00787*%
%ADD53C,0.03937*%
%ADD102O,0.11874X0.05937*%
%ADD103O,0.05937X0.11874*%
%ADD104C,0.23000*%
%ADD105C,0.06024*%
%ADD106R,0.06024X0.06024*%
%ADD107C,0.05906*%
%ADD108R,0.05906X0.05906*%
%ADD109O,0.06299X0.03150*%
%ADD110C,0.05709*%
%ADD111P,0.06494X8X22.5*%
%ADD112R,0.06221X0.06221*%
%ADD113C,0.06221*%
%ADD114C,0.10000*%
%ADD115R,0.05906X0.05906*%
D10*
X208000Y458000D02*
Y530500D01*
X226519Y522261D02*
X239496D01*
X226500Y522279D02*
Y530500D01*
X208000D02*
X226500D01*
X59055Y492126D02*
Y551181D01*
X102362Y0D02*
Y59055D01*
X200787D01*
Y0D02*
Y59055D01*
Y-0D02*
X456693Y0D01*
X173228Y551181D02*
X456693D01*
X137795Y492126D02*
Y519685D01*
X173228D01*
Y551181D01*
X59055Y492126D02*
X137795Y492126D01*
X224472Y337700D02*
X240220D01*
X224472Y272500D02*
X240220D01*
Y337700D01*
X224472Y272500D02*
Y337700D01*
Y85345D02*
Y148500D01*
X240220Y85345D02*
Y148500D01*
X224472Y85345D02*
X240220D01*
X224472Y148500D02*
X240220D01*
X239496Y458000D02*
Y522261D01*
X208000Y458000D02*
X239496D01*
X0Y0D02*
X102362D01*
X0Y551181D02*
X59055D01*
X456693Y0D02*
Y551181D01*
X0Y0D02*
Y551181D01*
D53*
X444882Y519685D02*
D03*
X11811D02*
D03*
Y31496D02*
D03*
D102*
X443860Y60500D02*
D03*
Y70500D02*
D03*
Y80500D02*
D03*
Y90500D02*
D03*
Y115000D02*
D03*
Y105000D02*
D03*
Y130311D02*
D03*
Y140311D02*
D03*
Y46000D02*
D03*
Y36000D02*
D03*
X444000Y359090D02*
D03*
Y349091D02*
D03*
Y339090D02*
D03*
Y329090D02*
D03*
Y319091D02*
D03*
Y309090D02*
D03*
Y299091D02*
D03*
Y289090D02*
D03*
Y254500D02*
D03*
Y244500D02*
D03*
Y234500D02*
D03*
Y224500D02*
D03*
Y214500D02*
D03*
Y204500D02*
D03*
Y194500D02*
D03*
Y264500D02*
D03*
Y480000D02*
D03*
Y490000D02*
D03*
Y500000D02*
D03*
Y510000D02*
D03*
D103*
X343000Y164500D02*
D03*
X353000D02*
D03*
X363000D02*
D03*
X373000D02*
D03*
X383000D02*
D03*
X393000D02*
D03*
X346500Y12500D02*
D03*
X356500D02*
D03*
X366500D02*
D03*
X376500D02*
D03*
X386500D02*
D03*
X396500D02*
D03*
X406500D02*
D03*
X416500D02*
D03*
X244500D02*
D03*
X254500D02*
D03*
X264500D02*
D03*
X274500D02*
D03*
X87500D02*
D03*
X77500D02*
D03*
X195500Y195000D02*
D03*
X205500D02*
D03*
X215500D02*
D03*
X225500D02*
D03*
X235500D02*
D03*
X245500D02*
D03*
X255500D02*
D03*
X185500D02*
D03*
X49000Y12500D02*
D03*
X39000D02*
D03*
X326000D02*
D03*
X316000D02*
D03*
X306000D02*
D03*
X296000D02*
D03*
D104*
X440945Y537402D02*
D03*
Y387795D02*
D03*
X214567Y163386D02*
D03*
X15748Y275590D02*
D03*
X242126Y387795D02*
D03*
Y537402D02*
D03*
X15748D02*
D03*
X214567Y13780D02*
D03*
X15748D02*
D03*
X440945Y163386D02*
D03*
Y13780D02*
D03*
D105*
X421500Y546300D02*
D03*
Y538400D02*
D03*
Y530500D02*
D03*
Y522600D02*
D03*
Y514700D02*
D03*
Y506800D02*
D03*
Y498900D02*
D03*
Y491000D02*
D03*
Y483100D02*
D03*
Y475200D02*
D03*
X334900D02*
D03*
Y483100D02*
D03*
Y491000D02*
D03*
Y498900D02*
D03*
Y506800D02*
D03*
Y514700D02*
D03*
Y522600D02*
D03*
Y530500D02*
D03*
Y538400D02*
D03*
D106*
Y546300D02*
D03*
D107*
X178492Y275323D02*
D03*
Y267449D02*
D03*
X170618Y275323D02*
D03*
Y267449D02*
D03*
X162744Y275323D02*
D03*
Y267449D02*
D03*
X154870Y275323D02*
D03*
Y267449D02*
D03*
X146996Y275323D02*
D03*
Y267449D02*
D03*
X139122Y275323D02*
D03*
Y267449D02*
D03*
X131248Y275323D02*
D03*
Y267449D02*
D03*
X123374Y275323D02*
D03*
Y267449D02*
D03*
X115500Y275323D02*
D03*
Y267449D02*
D03*
X107626Y275323D02*
D03*
Y267449D02*
D03*
X99752Y275323D02*
D03*
Y267449D02*
D03*
X91878Y275323D02*
D03*
Y267449D02*
D03*
X84004Y275323D02*
D03*
Y267449D02*
D03*
X76130Y275323D02*
D03*
Y267449D02*
D03*
X68256Y275323D02*
D03*
Y267449D02*
D03*
X60382Y275323D02*
D03*
Y267449D02*
D03*
X52508Y275323D02*
D03*
X32823Y295008D02*
D03*
X24949D02*
D03*
X32823Y302882D02*
D03*
X24949D02*
D03*
X32823Y310756D02*
D03*
X24949D02*
D03*
X32823Y318630D02*
D03*
X24949D02*
D03*
X32823Y326504D02*
D03*
X24949D02*
D03*
X32823Y334378D02*
D03*
X24949D02*
D03*
X32823Y342252D02*
D03*
X24949D02*
D03*
X32823Y350126D02*
D03*
X24949D02*
D03*
X32823Y358000D02*
D03*
X24949D02*
D03*
X32823Y365874D02*
D03*
X24949D02*
D03*
X32823Y373748D02*
D03*
X24949D02*
D03*
X32823Y381622D02*
D03*
X24949D02*
D03*
X32823Y389496D02*
D03*
X24949D02*
D03*
X32823Y397370D02*
D03*
X24949D02*
D03*
X32823Y405244D02*
D03*
X24949D02*
D03*
X32823Y413118D02*
D03*
X24949D02*
D03*
X32823Y420992D02*
D03*
X52508Y448551D02*
D03*
X60382Y440677D02*
D03*
Y448551D02*
D03*
X68256Y440677D02*
D03*
Y448551D02*
D03*
X76130Y440677D02*
D03*
Y448551D02*
D03*
X84004Y440677D02*
D03*
Y448551D02*
D03*
X91878Y440677D02*
D03*
Y448551D02*
D03*
X99752Y440677D02*
D03*
Y448551D02*
D03*
X107626Y440677D02*
D03*
Y448551D02*
D03*
X115500Y440677D02*
D03*
Y448551D02*
D03*
X123374Y440677D02*
D03*
Y448551D02*
D03*
X131248Y440677D02*
D03*
Y448551D02*
D03*
X139122Y440677D02*
D03*
Y448551D02*
D03*
X146996Y440677D02*
D03*
Y448551D02*
D03*
X154870Y440677D02*
D03*
Y448551D02*
D03*
X162744Y440677D02*
D03*
Y448551D02*
D03*
X170618Y440677D02*
D03*
Y448551D02*
D03*
X178492Y440677D02*
D03*
Y448551D02*
D03*
X205937Y295008D02*
D03*
X198063D02*
D03*
X205937Y302882D02*
D03*
X198063D02*
D03*
X205937Y310756D02*
D03*
X198063D02*
D03*
X205937Y318630D02*
D03*
X198063D02*
D03*
X205937Y326504D02*
D03*
X198063D02*
D03*
X205937Y334378D02*
D03*
X198063D02*
D03*
X205937Y342252D02*
D03*
X198063D02*
D03*
X205937Y350126D02*
D03*
X198063D02*
D03*
X205937Y358000D02*
D03*
X198063D02*
D03*
X205937Y365874D02*
D03*
X198063D02*
D03*
X205937Y373748D02*
D03*
X198063D02*
D03*
X205937Y381622D02*
D03*
X198063D02*
D03*
X205937Y389496D02*
D03*
X198063D02*
D03*
X205937Y397370D02*
D03*
X198063D02*
D03*
X205937Y405244D02*
D03*
X198063D02*
D03*
X205937Y413118D02*
D03*
X198063D02*
D03*
X205937Y420992D02*
D03*
D108*
X52508Y267449D02*
D03*
Y440677D02*
D03*
D109*
X8500Y465220D02*
D03*
Y492779D02*
D03*
D110*
X19130Y469158D02*
D03*
Y488842D02*
D03*
D111*
X278500Y393500D02*
D03*
X408500Y182000D02*
D03*
X211500Y136000D02*
D03*
X171500Y211500D02*
D03*
D112*
X316500Y434000D02*
D03*
D113*
X346500D02*
D03*
X316500Y424000D02*
D03*
X346500D02*
D03*
X316500Y414000D02*
D03*
X346500D02*
D03*
X316500Y404000D02*
D03*
X346500D02*
D03*
D114*
X101000Y194000D02*
D03*
X121000D02*
D03*
X120500Y172000D02*
D03*
X100500D02*
D03*
D115*
X24949Y420992D02*
D03*
X198063D02*
D03*
M02*
