M48
;Layer_Color=9474304
;FILE_FORMAT=2:5
INCH,LZ
;TYPE=PLATED
T1F00S00C0.01181
T2F00S00C0.01968
T4F00S00C0.03346
T5F00S00C0.03543
T6F00S00C0.03937
T7F00S00C0.04000
T8F00S00C0.04016
T9F00S00C0.06299
T10F00S00C0.11811
%
T01
X0029189Y002786
X0074189
X0066689Y001286
X0096689
X0209189Y002786
X0224189
X0231689Y001286
X0269189Y002786
X0284189
X0287952Y001853
X0299189Y002786
X0329189
X0351689Y001286
X0381689
X0411689
X0426689
X0434189Y002786
X0449189
X0434189Y005786
Y008786
X0419189
X0411689Y010286
X0396689
X0381689
X0366689
X037012Y012
X0374Y0122153
X0366689Y013286
X0381689
X0389189Y014786
X0374189
X0409054Y01525
X0426689Y016286
X0434189Y017786
X0449189
Y014786
X0434189
X0426689Y013286
X0413Y01205
X0411689Y007286
X0396689
X0381689
X0366689
Y004286
X0396689
X0404189Y017786
X0359189Y014786
X0344189
X0321689Y016286
Y013286
X031404Y0134659
X0313361Y0128361
X0312Y012
X0312276Y0112244
X0332Y01075
X0336Y01045
X0339261Y010143
X03465Y0099303
X0348Y0087
X0359189Y008786
X03445Y0073
X0344189Y005786
X03345Y0057248
X0336689Y004286
X0350251Y0043011
X0359189Y005786
X0316Y00615
X0306
X0291689Y007286
X0276689
X0261689
X02645Y0062
X0254522Y0061748
X0236983Y0075483
X0209189Y005786
X0216689Y010286
Y013286
X0209189Y014786
Y017786
X0224189
X0239189
X0254189
X0269189
X0276689Y016286
X0261689
Y013286
X0254189Y011786
X0261689Y010286
X0276689
X0279Y0114484
X028583Y0130984
X0302787Y0144406
X0329189Y008786
X0321689Y007286
X03255Y00335
X02965
X0281489Y0038428
X0231689Y016286
X0186689
X01735Y0165
Y01825
X0179189Y017786
X0194189
X0149189
X0134189
X0111689Y016286
X0096689
X0081689
X0066689
X0074189Y017786
X0089189
Y014786
X0104189
X0096689Y013286
X0081689
X0066689
X0074189Y014786
X0059189
Y017786
Y011786
X0066689Y010286
X0071973Y0106944
X0081689Y010286
X00895Y0104
X0096689Y010286
X0111689
X0104189Y008786
X0089189
X0081689Y007286
X0074189Y005786
X0059189
X0081689Y004286
X0096689
X01225Y00715
X0125
X0156689Y007286
X0171689
X0186689
X0184Y010847
X01825Y0122
X0185818
X01645Y0111941
X0171689Y010286
X0149189Y008786
X0134189Y011786
X0141689Y013286
X0156689
X0126689
X0051689
X0044189Y014786
X0029189
X0014189
X0021689Y016286
X0006689
X0014189Y017786
X0029189
X0044189
X0051689Y016286
X0044189Y011786
X0014189
X0021689Y013286
X0006689
Y010286
X0021689
X0014189Y008786
X0021689Y007286
X0006689
X0014189Y005786
X0029189
X0036689Y004286
X0021689
X0006689
Y019286
X0021689
X0029189Y020786
X0044189
X0051689Y022286
X0044189Y023786
X0029189
X0014189
X0021689Y025286
X0006689
Y022286
X0021689
X0014189Y020786
X0051689Y019286
X0029189Y026786
X0014189Y029786
X0006689Y031286
X0014189Y032786
X0074189
X0089189Y029786
X0104189
X0111689Y031286
X01155Y03115
X0117Y03315
X0114Y0338
X0149189Y032786
X0165Y03285
X0171689Y031286
X01525Y03135
X0134189Y029786
X01195Y02905
Y0281429
X0141689Y025286
X0183306Y0247185
X019Y02475
X01955Y02485
X02015Y025
X01815Y02805
Y029
X01865Y03015
X0179189Y020786
X0164189
X0134189
X0074189
X0059189
X0066689Y022286
X0081Y0217665
Y02385
X0089189Y023786
X0081689Y025286
X0066689
Y019286
X0081689
X0209189Y020786
X0254189
X0261689Y019286
X0263Y0227
X02635Y02305
X02615Y0238745
X02645Y02455
X02675Y02465
X02735Y0243
X0286Y02505
X0287654Y0260271
X028304Y0261587
X0283Y02675
X0282162Y0270229
X02875Y028
X02975Y0276
X03125Y02775
X0312Y02725
X0318Y02775
X0323
X03245Y02705
X0332Y026
X03355Y0257883
X0339Y02555
X0318Y0256
X031568Y02585
X0314462Y0261081
X0308Y0261
X03065Y02585
X0304Y0256
Y0250788
X0307Y02535
X03145
X03195Y0250788
X0314387Y0236727
X0306627Y0238127
X03005Y0231
X02835Y02325
X0276689Y022286
X02815Y02115
X02965Y01965
X0321689Y022286
X03355Y02355
X0339Y02335
X0332Y0239
X0359189Y023786
X0365Y02275
X0351689Y022286
X0358Y0196
X03645Y0249
X0336689Y028286
X0317665Y0282515
X03125Y0286
X0317679Y0291933
X0320189Y0319711
X03265Y0323
X0364Y03265
Y03355
X0284189Y032786
X0287Y0319
X02865Y0303492
X0278Y02925
X0261689Y028286
X0246689
X0254189Y029786
X0261689Y031286
X0246689
X0254189Y032786
X0216689Y031286
X0217262Y0295673
X02215Y0248
X0237
X0252
X0241693Y0228264
X0368Y02305
X03675Y0237
X0367Y0241
X0366Y02445
X0366689Y025286
X0389189Y029786
X0426689Y031286
Y028286
X0441689
X0434189Y026786
Y023786
X0426689Y022286
X0434189Y020786
X0426689Y019286
X0396689
X0381689
X0404189Y020786
X0426689Y034286
Y037286
X0441689
Y040286
X0449189Y041786
X0434189
X0441689Y043286
X0426689
X0434189Y044786
X0449189
X0441689Y046286
X0396689
X0397941Y0446805
X03855Y04425
X038791Y0438134
Y0429472
X0385911Y0420822
X0387Y04165
X0404189Y041786
X0419953Y04045
X0411689Y037286
X0396689
X0366689
X0374189Y038786
X03655Y03445
X0367Y0450536
X0367344Y0454157
X0366736Y0456946
X03675Y045973
X0366Y04625
X03795Y0463
X0380502Y0458516
X0379119Y0455263
X0385224Y0456232
X0373744Y047466
X0375482Y0476924
X03775Y0479
X0379077Y0481379
X0381689Y049286
X0396689
X0411689
X0407Y0476
X0404189Y047786
X0366689Y049286
X0359189Y047786
X0344189
X03235Y04755
X0323955Y04865
Y049124
X0324Y0496
X03105Y04905
X0313Y04705
X0317Y04665
X0310521Y0455783
X03005Y04595
X0292Y0457616
X0278Y0452
X0276Y04405
X0278042Y0418933
X0281608
X0285
X02885
X0299012Y04295
X0321689Y043286
X0336689
X0337433Y0406
X0334804Y0403901
X0332625Y040652
X033Y0408
X03265Y04075
X0321689Y040286
X0351689
X0359189Y038786
X0344189
X0314189Y035786
X0299189
X0284189
Y038786
X0269189
X0276689Y040286
X0261689
X0246689
X0224189Y038786
Y035786
X0239189
X0254189
X0306689Y034286
X0321689
X0305062Y0473277
X02855Y049
X0201689Y049286
X0194189Y047786
X0201689Y046286
X0147Y0462
X01235Y04655
X01085
X01115Y047
X0096689Y046286
Y043286
X0104189Y041786
X0089189
X0074189
X0059189
X0068191Y0429552
X0066689Y040286
X0081689
X0089189Y038786
X0104189
X01155Y0399
X0127335Y0402802
X0147Y0401
X01545Y04065
X0158Y04165
X01605Y0418
X01625Y0421
X0156689Y043286
X0147Y0427
X0134189Y041786
X01155Y04285
X0134189Y038786
X01405Y03885
X0164189Y038786
X0156689Y037286
X0164189Y035786
X0172Y0353
X0174389Y0347436
X0177334Y0350126
X01795Y0346
X0156689Y034286
X0141689
X0134189Y035786
X0104189
X0089189
X0074189
X0059189
X0066689Y034286
X0081689
X0096689
X0074189Y038786
X0059189
X0066689Y046286
X0074189Y047786
X0141689Y049286
X01615Y0481
X017326Y049474
X01815Y0402
X018Y03985
X0186689Y040286
X0188Y0379
X01905Y0375
X0044189Y038786
X0051689Y040286
X0044189Y041786
Y044786
X0029189
X0014189
X0021689Y046286
X0036689
X0051689
X0046102Y0480279
X003622
X0036689Y049286
X00275Y04875
X0021689Y049286
X0014189Y047786
X0051689Y049286
X0006689Y043286
X0014189Y041786
X0006689Y040286
X0014189Y038786
X0006689Y037286
X0014189Y035786
X0006689Y034286
X0051689
X0049204Y0349512
X0044189Y035786
Y050786
X0029189
X0014189
X0021689Y052286
X0036689
X0051689
X0044189Y053786
X0029189
X0006689Y052286
X0149189Y050786
X017374Y051024
X01765Y0512
X01785Y0522564
X0179189Y053786
X0194189
X0201689Y052286
X0194189Y050786
X0209189Y053786
X0224189
X0246689Y052286
X0269189Y053786
X0299189
X0313303Y0536309
X0329189Y053786
X0344189
X0359189
X0351689Y052286
X0341Y0525
X0341073Y0514669
X0321248Y0516
X0321689Y052286
X0321103Y0526382
X0312303Y0517479
X0311Y050924
X031121Y050342
X0323955Y050176
X0359189Y050786
X0286Y05055
X0291689Y052286
X0381689
X0396689
X0411689
X0426689
X0441689
X0374189Y053786
T02
X0405748Y007325
X04255Y00535
X0405748Y0121962
X03195Y01825
X0231191Y0034788
X0205495Y0085005
X01665Y0081
X0068772Y0076254
X01615Y01845
X01585Y01955
X0158089Y0200911
X0082Y0313
X00615Y03195
X0341441Y0217
X0358941
X0375441
X0389941
X0403312Y02555
X0414898Y0256719
X0411214Y0266401
X0395Y027302
X0372314Y0290441
Y0308441
Y0325941
Y0343941
X0381087Y036715
X0391408Y038615
X0399091Y0433803
X0352291Y0394543
X0267104Y0377479
X0267066Y0350395
X025Y0458
X0191391Y047532
X017376Y0477
T04
X001913Y0469158
Y0488842
T05
X0052508Y0267449
Y0275323
X0032823Y0295008
X0024949
Y0302882
X0032823
Y0310756
X0024949
Y031863
X0032823
Y0326504
X0024949
Y0334378
X0032823
X0060382Y0275323
Y0267449
X0068256
X007613
X0084004
X0091878
X0099752
X0107626
Y0275323
X0099752
X0091878
X0084004
X007613
X0068256
X01155
X0123374
Y0267449
X01155
X0131248
X0139122
X0146996
X015487
Y0275323
X0146996
X0139122
X0131248
X0162744
X0170618
X0178492
Y0267449
X0170618
X0162744
X0198063Y0295008
X0205937
Y0302882
X0198063
Y0310756
X0205937
Y031863
X0198063
Y0326504
X0205937
Y0334378
X0198063
Y0342252
X0205937
Y0350126
X0198063
Y0358
X0205937
Y0365874
X0198063
Y0373748
X0205937
Y0381622
X0198063
Y0389496
X0205937
Y039737
X0198063
Y0405244
X0205937
Y0413118
X0198063
Y0420992
X0205937
X0178492Y0440677
X0170618
X0162744
Y0448551
X0170618
X0178492
X015487
X0146996
X0139122
X0131248
Y0440677
X0139122
X0146996
X015487
X0123374
X01155
Y0448551
X0123374
X0107626
X0099752
X0091878
X0084004
X007613
X0068256
Y0440677
X007613
X0084004
X0091878
X0099752
X0107626
X0060382
Y0448551
X0052508
Y0440677
X0032823Y0420992
Y0413118
X0024949
Y0420992
Y0405244
Y039737
Y0389496
Y0381622
Y0373748
Y0365874
X0032823
Y0373748
Y0381622
Y0389496
Y039737
Y0405244
Y0358
Y0350126
X0024949
Y0358
Y0342252
X0032823
T06
X0039Y00125
X0049
X00775
X00875
X02445
X02545
X02645
X02745
X0296
X0306
X0316
X0326
X03465
X03565
X03665
X03765
X03865
X03965
X04065
X04165
X044386Y0036
Y0046
Y00605
Y00705
Y00805
Y00905
Y0105
Y0115
Y0130311
Y0140311
X0393Y01645
X0383
X0373
X0363
X0353
X0343
X02055Y0195
X01955
X01855
X02155
X02255
X02355
X02455
X02555
X0444Y01945
Y02045
Y02145
Y02245
Y02345
Y02445
Y02545
Y02645
Y028909
Y0299091
Y030909
Y0319091
Y032909
Y033909
Y0349091
Y035909
Y048
Y049
X03465Y0434
Y0424
Y0414
Y0404
X03165
Y0414
Y0424
Y0434
X0444Y05
Y051
T07
X04085Y0182
X02115Y0136
X01715Y02115
X02785Y03935
T08
X04215Y04752
Y04831
Y0491
X03349
Y04831
Y04752
Y04989
Y05068
Y05147
Y05226
Y05305
Y05384
Y05463
X04215
Y05384
Y05305
Y05226
Y05147
Y05068
Y04989
T09
X01005Y0172
X01205
X0121Y0194
X0101
T10
X0015748Y001378
X0214567
X0440945
Y0163386
X0214567
X0015748Y027559
X0440945Y0387795
X0242126
X0015748Y0537402
X0242126
X0440945
M30
