G04*
G04 #@! TF.GenerationSoftware,Altium Limited,Altium Designer,22.3.1 (43)*
G04*
G04 Layer_Color=16711935*
%FSLAX25Y25*%
%MOIN*%
G70*
G04*
G04 #@! TF.SameCoordinates,3C66329E-7EC6-4DA4-B4DD-612C795C30B2*
G04*
G04*
G04 #@! TF.FilePolarity,Positive*
G04*
G01*
G75*
%ADD10C,0.00787*%
D10*
X208000Y458000D02*
Y530500D01*
X226519Y522261D02*
X239496D01*
X226500Y522279D02*
Y530500D01*
X208000D02*
X226500D01*
X59055Y492126D02*
Y551181D01*
X102362Y0D02*
Y59055D01*
X200787D01*
Y0D02*
Y59055D01*
Y-0D02*
X456693Y0D01*
X173228Y551181D02*
X456693D01*
X137795Y492126D02*
Y519685D01*
X173228D01*
Y551181D01*
X59055Y492126D02*
X137795Y492126D01*
X224472Y337700D02*
X240220D01*
X224472Y272500D02*
X240220D01*
Y337700D01*
X224472Y272500D02*
Y337700D01*
Y85345D02*
Y148500D01*
X240220Y85345D02*
Y148500D01*
X224472Y85345D02*
X240220D01*
X224472Y148500D02*
X240220D01*
X239496Y458000D02*
Y522261D01*
X208000Y458000D02*
X239496D01*
X0Y0D02*
X102362D01*
X0Y551181D02*
X59055D01*
X456693Y0D02*
Y551181D01*
X0Y0D02*
Y551181D01*
X208000Y458000D02*
Y530500D01*
X226519Y522261D02*
X239496D01*
X226500Y522279D02*
Y530500D01*
X208000D02*
X226500D01*
X59055Y492126D02*
Y551181D01*
X102362Y0D02*
Y59055D01*
X200787D01*
Y0D02*
Y59055D01*
Y-0D02*
X456693Y0D01*
X173228Y551181D02*
X456693D01*
X137795Y492126D02*
Y519685D01*
X173228D01*
Y551181D01*
X59055Y492126D02*
X137795Y492126D01*
X224472Y337700D02*
X240220D01*
X224472Y272500D02*
X240220D01*
Y337700D01*
X224472Y272500D02*
Y337700D01*
Y85345D02*
Y148500D01*
X240220Y85345D02*
Y148500D01*
X224472Y85345D02*
X240220D01*
X224472Y148500D02*
X240220D01*
X239496Y458000D02*
Y522261D01*
X208000Y458000D02*
X239496D01*
X0Y0D02*
X102362D01*
X0Y551181D02*
X59055D01*
X456693Y0D02*
Y551181D01*
X0Y0D02*
Y551181D01*
M02*
