G04*
G04 #@! TF.GenerationSoftware,Altium Limited,Altium Designer,22.3.1 (43)*
G04*
G04 Layer_Color=2752767*
%FSLAX25Y25*%
%MOIN*%
G70*
G04*
G04 #@! TF.SameCoordinates,3C66329E-7EC6-4DA4-B4DD-612C795C30B2*
G04*
G04*
G04 #@! TF.FilePolarity,Positive*
G04*
G01*
G75*
%ADD10C,0.00787*%
%ADD119C,0.00200*%
%ADD120C,0.00267*%
%ADD121C,0.00133*%
D10*
X208000Y458000D02*
Y530500D01*
X226519Y522261D02*
X239496D01*
X226500Y522279D02*
Y530500D01*
X208000D02*
X226500D01*
X59055Y492126D02*
Y551181D01*
X102362Y0D02*
Y59055D01*
X200787D01*
Y0D02*
Y59055D01*
Y-0D02*
X456693Y0D01*
X173228Y551181D02*
X456693D01*
X137795Y492126D02*
Y519685D01*
X173228D01*
Y551181D01*
X59055Y492126D02*
X137795Y492126D01*
X224472Y337700D02*
X240220D01*
X224472Y272500D02*
X240220D01*
Y337700D01*
X224472Y272500D02*
Y337700D01*
Y85345D02*
Y148500D01*
X240220Y85345D02*
Y148500D01*
X224472Y85345D02*
X240220D01*
X224472Y148500D02*
X240220D01*
X239496Y458000D02*
Y522261D01*
X208000Y458000D02*
X239496D01*
X0Y0D02*
X102362D01*
X0Y551181D02*
X59055D01*
X456693Y0D02*
Y551181D01*
X0Y0D02*
Y551181D01*
D119*
X443060Y59700D02*
Y61300D01*
X444660D01*
Y59700D01*
X443060D01*
Y69700D02*
Y71300D01*
X444660D01*
Y69700D01*
X443060D01*
Y79700D02*
Y81300D01*
X444660D01*
Y79700D01*
X443060D01*
Y89700D02*
Y91300D01*
X444660D01*
Y89700D01*
X443060D01*
X342200Y163700D02*
Y165300D01*
X343800D01*
Y163700D01*
X342200D01*
X352200D02*
Y165300D01*
X353800D01*
Y163700D01*
X352200D01*
X362200D02*
Y165300D01*
X363800D01*
Y163700D01*
X362200D01*
X372200D02*
Y165300D01*
X373800D01*
Y163700D01*
X372200D01*
X382200D02*
Y165300D01*
X383800D01*
Y163700D01*
X382200D01*
X392200D02*
Y165300D01*
X393800D01*
Y163700D01*
X392200D01*
X443060Y114200D02*
Y115800D01*
X444660D01*
Y114200D01*
X443060D01*
Y104200D02*
Y105800D01*
X444660D01*
Y104200D01*
X443060D01*
Y129511D02*
Y131111D01*
X444660D01*
Y129511D01*
X443060D01*
Y139511D02*
Y141111D01*
X444660D01*
Y139511D01*
X443060D01*
Y45200D02*
Y46800D01*
X444660D01*
Y45200D01*
X443060D01*
Y35200D02*
Y36800D01*
X444660D01*
Y35200D01*
X443060D01*
X345700Y11700D02*
Y13300D01*
X347300D01*
Y11700D01*
X345700D01*
X355700D02*
Y13300D01*
X357300D01*
Y11700D01*
X355700D01*
X365700D02*
Y13300D01*
X367300D01*
Y11700D01*
X365700D01*
X375700D02*
Y13300D01*
X377300D01*
Y11700D01*
X375700D01*
X385700D02*
Y13300D01*
X387300D01*
Y11700D01*
X385700D01*
X395700D02*
Y13300D01*
X397300D01*
Y11700D01*
X395700D01*
X405700D02*
Y13300D01*
X407300D01*
Y11700D01*
X405700D01*
X415700D02*
Y13300D01*
X417300D01*
Y11700D01*
X415700D01*
X421500Y545500D02*
X420700Y547100D01*
X422300D01*
X421500Y545500D01*
Y537600D02*
X420700Y539200D01*
X422300D01*
X421500Y537600D01*
Y529700D02*
X420700Y531300D01*
X422300D01*
X421500Y529700D01*
Y521800D02*
X420700Y523400D01*
X422300D01*
X421500Y521800D01*
Y513900D02*
X420700Y515500D01*
X422300D01*
X421500Y513900D01*
Y506000D02*
X420700Y507600D01*
X422300D01*
X421500Y506000D01*
Y498100D02*
X420700Y499700D01*
X422300D01*
X421500Y498100D01*
Y490200D02*
X420700Y491800D01*
X422300D01*
X421500Y490200D01*
Y482300D02*
X420700Y483900D01*
X422300D01*
X421500Y482300D01*
Y474400D02*
X420700Y476000D01*
X422300D01*
X421500Y474400D01*
X334900D02*
X334100Y476000D01*
X335700D01*
X334900Y474400D01*
Y482300D02*
X334100Y483900D01*
X335700D01*
X334900Y482300D01*
Y490200D02*
X334100Y491800D01*
X335700D01*
X334900Y490200D01*
Y498100D02*
X334100Y499700D01*
X335700D01*
X334900Y498100D01*
Y506000D02*
X334100Y507600D01*
X335700D01*
X334900Y506000D01*
Y513900D02*
X334100Y515500D01*
X335700D01*
X334900Y513900D01*
Y521800D02*
X334100Y523400D01*
X335700D01*
X334900Y521800D01*
Y529700D02*
X334100Y531300D01*
X335700D01*
X334900Y529700D01*
Y537600D02*
X334100Y539200D01*
X335700D01*
X334900Y537600D01*
Y545500D02*
X334100Y547100D01*
X335700D01*
X334900Y545500D01*
X178492Y274523D02*
X178892Y274923D01*
X179292D01*
X178892Y275323D01*
X179292Y275723D01*
X178892D01*
X178492Y276123D01*
X178092Y275723D01*
X177692D01*
X178092Y275323D01*
X177692Y274923D01*
X178092D01*
X178492Y274523D01*
Y266649D02*
X178892Y267049D01*
X179292D01*
X178892Y267449D01*
X179292Y267849D01*
X178892D01*
X178492Y268249D01*
X178092Y267849D01*
X177692D01*
X178092Y267449D01*
X177692Y267049D01*
X178092D01*
X178492Y266649D01*
X170618Y274523D02*
X171018Y274923D01*
X171418D01*
X171018Y275323D01*
X171418Y275723D01*
X171018D01*
X170618Y276123D01*
X170218Y275723D01*
X169818D01*
X170218Y275323D01*
X169818Y274923D01*
X170218D01*
X170618Y274523D01*
Y266649D02*
X171018Y267049D01*
X171418D01*
X171018Y267449D01*
X171418Y267849D01*
X171018D01*
X170618Y268249D01*
X170218Y267849D01*
X169818D01*
X170218Y267449D01*
X169818Y267049D01*
X170218D01*
X170618Y266649D01*
X162744Y274523D02*
X163144Y274923D01*
X163544D01*
X163144Y275323D01*
X163544Y275723D01*
X163144D01*
X162744Y276123D01*
X162344Y275723D01*
X161944D01*
X162344Y275323D01*
X161944Y274923D01*
X162344D01*
X162744Y274523D01*
Y266649D02*
X163144Y267049D01*
X163544D01*
X163144Y267449D01*
X163544Y267849D01*
X163144D01*
X162744Y268249D01*
X162344Y267849D01*
X161944D01*
X162344Y267449D01*
X161944Y267049D01*
X162344D01*
X162744Y266649D01*
X154870Y274523D02*
X155270Y274923D01*
X155670D01*
X155270Y275323D01*
X155670Y275723D01*
X155270D01*
X154870Y276123D01*
X154470Y275723D01*
X154070D01*
X154470Y275323D01*
X154070Y274923D01*
X154470D01*
X154870Y274523D01*
Y266649D02*
X155270Y267049D01*
X155670D01*
X155270Y267449D01*
X155670Y267849D01*
X155270D01*
X154870Y268249D01*
X154470Y267849D01*
X154070D01*
X154470Y267449D01*
X154070Y267049D01*
X154470D01*
X154870Y266649D01*
X146996Y274523D02*
X147396Y274923D01*
X147796D01*
X147396Y275323D01*
X147796Y275723D01*
X147396D01*
X146996Y276123D01*
X146596Y275723D01*
X146196D01*
X146596Y275323D01*
X146196Y274923D01*
X146596D01*
X146996Y274523D01*
Y266649D02*
X147396Y267049D01*
X147796D01*
X147396Y267449D01*
X147796Y267849D01*
X147396D01*
X146996Y268249D01*
X146596Y267849D01*
X146196D01*
X146596Y267449D01*
X146196Y267049D01*
X146596D01*
X146996Y266649D01*
X139122Y274523D02*
X139522Y274923D01*
X139922D01*
X139522Y275323D01*
X139922Y275723D01*
X139522D01*
X139122Y276123D01*
X138722Y275723D01*
X138322D01*
X138722Y275323D01*
X138322Y274923D01*
X138722D01*
X139122Y274523D01*
Y266649D02*
X139522Y267049D01*
X139922D01*
X139522Y267449D01*
X139922Y267849D01*
X139522D01*
X139122Y268249D01*
X138722Y267849D01*
X138322D01*
X138722Y267449D01*
X138322Y267049D01*
X138722D01*
X139122Y266649D01*
X131248Y274523D02*
X131648Y274923D01*
X132048D01*
X131648Y275323D01*
X132048Y275723D01*
X131648D01*
X131248Y276123D01*
X130848Y275723D01*
X130448D01*
X130848Y275323D01*
X130448Y274923D01*
X130848D01*
X131248Y274523D01*
Y266649D02*
X131648Y267049D01*
X132048D01*
X131648Y267449D01*
X132048Y267849D01*
X131648D01*
X131248Y268249D01*
X130848Y267849D01*
X130448D01*
X130848Y267449D01*
X130448Y267049D01*
X130848D01*
X131248Y266649D01*
X123374Y274523D02*
X123774Y274923D01*
X124174D01*
X123774Y275323D01*
X124174Y275723D01*
X123774D01*
X123374Y276123D01*
X122974Y275723D01*
X122574D01*
X122974Y275323D01*
X122574Y274923D01*
X122974D01*
X123374Y274523D01*
Y266649D02*
X123774Y267049D01*
X124174D01*
X123774Y267449D01*
X124174Y267849D01*
X123774D01*
X123374Y268249D01*
X122974Y267849D01*
X122574D01*
X122974Y267449D01*
X122574Y267049D01*
X122974D01*
X123374Y266649D01*
X115500Y274523D02*
X115900Y274923D01*
X116300D01*
X115900Y275323D01*
X116300Y275723D01*
X115900D01*
X115500Y276123D01*
X115100Y275723D01*
X114700D01*
X115100Y275323D01*
X114700Y274923D01*
X115100D01*
X115500Y274523D01*
Y266649D02*
X115900Y267049D01*
X116300D01*
X115900Y267449D01*
X116300Y267849D01*
X115900D01*
X115500Y268249D01*
X115100Y267849D01*
X114700D01*
X115100Y267449D01*
X114700Y267049D01*
X115100D01*
X115500Y266649D01*
X107626Y274523D02*
X108026Y274923D01*
X108426D01*
X108026Y275323D01*
X108426Y275723D01*
X108026D01*
X107626Y276123D01*
X107226Y275723D01*
X106826D01*
X107226Y275323D01*
X106826Y274923D01*
X107226D01*
X107626Y274523D01*
Y266649D02*
X108026Y267049D01*
X108426D01*
X108026Y267449D01*
X108426Y267849D01*
X108026D01*
X107626Y268249D01*
X107226Y267849D01*
X106826D01*
X107226Y267449D01*
X106826Y267049D01*
X107226D01*
X107626Y266649D01*
X99752Y274523D02*
X100152Y274923D01*
X100552D01*
X100152Y275323D01*
X100552Y275723D01*
X100152D01*
X99752Y276123D01*
X99352Y275723D01*
X98952D01*
X99352Y275323D01*
X98952Y274923D01*
X99352D01*
X99752Y274523D01*
Y266649D02*
X100152Y267049D01*
X100552D01*
X100152Y267449D01*
X100552Y267849D01*
X100152D01*
X99752Y268249D01*
X99352Y267849D01*
X98952D01*
X99352Y267449D01*
X98952Y267049D01*
X99352D01*
X99752Y266649D01*
X91878Y274523D02*
X92278Y274923D01*
X92678D01*
X92278Y275323D01*
X92678Y275723D01*
X92278D01*
X91878Y276123D01*
X91478Y275723D01*
X91078D01*
X91478Y275323D01*
X91078Y274923D01*
X91478D01*
X91878Y274523D01*
Y266649D02*
X92278Y267049D01*
X92678D01*
X92278Y267449D01*
X92678Y267849D01*
X92278D01*
X91878Y268249D01*
X91478Y267849D01*
X91078D01*
X91478Y267449D01*
X91078Y267049D01*
X91478D01*
X91878Y266649D01*
X84004Y274523D02*
X84404Y274923D01*
X84804D01*
X84404Y275323D01*
X84804Y275723D01*
X84404D01*
X84004Y276123D01*
X83604Y275723D01*
X83204D01*
X83604Y275323D01*
X83204Y274923D01*
X83604D01*
X84004Y274523D01*
Y266649D02*
X84404Y267049D01*
X84804D01*
X84404Y267449D01*
X84804Y267849D01*
X84404D01*
X84004Y268249D01*
X83604Y267849D01*
X83204D01*
X83604Y267449D01*
X83204Y267049D01*
X83604D01*
X84004Y266649D01*
X76130Y274523D02*
X76530Y274923D01*
X76930D01*
X76530Y275323D01*
X76930Y275723D01*
X76530D01*
X76130Y276123D01*
X75730Y275723D01*
X75330D01*
X75730Y275323D01*
X75330Y274923D01*
X75730D01*
X76130Y274523D01*
Y266649D02*
X76530Y267049D01*
X76930D01*
X76530Y267449D01*
X76930Y267849D01*
X76530D01*
X76130Y268249D01*
X75730Y267849D01*
X75330D01*
X75730Y267449D01*
X75330Y267049D01*
X75730D01*
X76130Y266649D01*
X68256Y274523D02*
X68656Y274923D01*
X69056D01*
X68656Y275323D01*
X69056Y275723D01*
X68656D01*
X68256Y276123D01*
X67856Y275723D01*
X67456D01*
X67856Y275323D01*
X67456Y274923D01*
X67856D01*
X68256Y274523D01*
Y266649D02*
X68656Y267049D01*
X69056D01*
X68656Y267449D01*
X69056Y267849D01*
X68656D01*
X68256Y268249D01*
X67856Y267849D01*
X67456D01*
X67856Y267449D01*
X67456Y267049D01*
X67856D01*
X68256Y266649D01*
X60382Y274523D02*
X60782Y274923D01*
X61182D01*
X60782Y275323D01*
X61182Y275723D01*
X60782D01*
X60382Y276123D01*
X59982Y275723D01*
X59582D01*
X59982Y275323D01*
X59582Y274923D01*
X59982D01*
X60382Y274523D01*
Y266649D02*
X60782Y267049D01*
X61182D01*
X60782Y267449D01*
X61182Y267849D01*
X60782D01*
X60382Y268249D01*
X59982Y267849D01*
X59582D01*
X59982Y267449D01*
X59582Y267049D01*
X59982D01*
X60382Y266649D01*
X52508Y274523D02*
X52908Y274923D01*
X53308D01*
X52908Y275323D01*
X53308Y275723D01*
X52908D01*
X52508Y276123D01*
X52108Y275723D01*
X51708D01*
X52108Y275323D01*
X51708Y274923D01*
X52108D01*
X52508Y274523D01*
Y266649D02*
X52908Y267049D01*
X53308D01*
X52908Y267449D01*
X53308Y267849D01*
X52908D01*
X52508Y268249D01*
X52108Y267849D01*
X51708D01*
X52108Y267449D01*
X51708Y267049D01*
X52108D01*
X52508Y266649D01*
X243700Y11700D02*
Y13300D01*
X245300D01*
Y11700D01*
X243700D01*
X253700D02*
Y13300D01*
X255300D01*
Y11700D01*
X253700D01*
X263700D02*
Y13300D01*
X265300D01*
Y11700D01*
X263700D01*
X273700D02*
Y13300D01*
X275300D01*
Y11700D01*
X273700D01*
X86700D02*
Y13300D01*
X88300D01*
Y11700D01*
X86700D01*
X76700D02*
Y13300D01*
X78300D01*
Y11700D01*
X76700D01*
X443200Y358291D02*
Y359891D01*
X444800D01*
Y358291D01*
X443200D01*
Y348290D02*
Y349890D01*
X444800D01*
Y348290D01*
X443200D01*
Y338291D02*
Y339891D01*
X444800D01*
Y338291D01*
X443200D01*
Y328291D02*
Y329890D01*
X444800D01*
Y328291D01*
X443200D01*
Y318290D02*
Y319890D01*
X444800D01*
Y318290D01*
X443200D01*
Y308291D02*
Y309891D01*
X444800D01*
Y308291D01*
X443200D01*
Y298290D02*
Y299890D01*
X444800D01*
Y298290D01*
X443200D01*
Y288291D02*
Y289891D01*
X444800D01*
Y288291D01*
X443200D01*
X7700Y464421D02*
X8100Y465220D01*
X7700Y466020D01*
X8500Y465621D01*
X9300Y466020D01*
X8900Y465220D01*
X9300Y464421D01*
X8500Y464820D01*
X7700Y464421D01*
Y491980D02*
X8100Y492779D01*
X7700Y493579D01*
X8500Y493180D01*
X9300Y493579D01*
X8900Y492779D01*
X9300Y491980D01*
X8500Y492380D01*
X7700Y491980D01*
X18730Y468757D02*
Y468358D01*
X19530D01*
Y468757D01*
X19930D01*
Y469558D01*
X19530D01*
Y469957D01*
X18730D01*
Y469558D01*
X18330D01*
Y468757D01*
X18730D01*
Y488443D02*
Y488042D01*
X19530D01*
Y488443D01*
X19930D01*
Y489243D01*
X19530D01*
Y489642D01*
X18730D01*
Y489243D01*
X18330D01*
Y488443D01*
X18730D01*
X277700Y392700D02*
X278100D01*
X278500Y393100D01*
X278900Y392700D01*
X279300D01*
Y393100D01*
X278900Y393500D01*
X279300Y393900D01*
Y394300D01*
X278900D01*
X278500Y393900D01*
X278100Y394300D01*
X277700D01*
Y393900D01*
X278100Y393500D01*
X277700Y393100D01*
Y392700D01*
X315700Y433200D02*
Y434800D01*
X317300D01*
Y433200D01*
X315700D01*
X345700D02*
Y434800D01*
X347300D01*
Y433200D01*
X345700D01*
X315700Y423200D02*
Y424800D01*
X317300D01*
Y423200D01*
X315700D01*
X345700D02*
Y424800D01*
X347300D01*
Y423200D01*
X345700D01*
X315700Y413200D02*
Y414800D01*
X317300D01*
Y413200D01*
X315700D01*
X345700D02*
Y414800D01*
X347300D01*
Y413200D01*
X345700D01*
X315700Y403200D02*
Y404800D01*
X317300D01*
Y403200D01*
X315700D01*
X345700D02*
Y404800D01*
X347300D01*
Y403200D01*
X345700D01*
X100200Y194000D02*
X101000Y194800D01*
X101800Y194000D01*
X101000Y193200D01*
X100200Y194000D01*
X120200D02*
X121000Y194800D01*
X121800Y194000D01*
X121000Y193200D01*
X120200Y194000D01*
X119700Y172000D02*
X120500Y172800D01*
X121300Y172000D01*
X120500Y171200D01*
X119700Y172000D01*
X99700D02*
X100500Y172800D01*
X101300Y172000D01*
X100500Y171200D01*
X99700Y172000D01*
X443200Y253700D02*
Y255300D01*
X444800D01*
Y253700D01*
X443200D01*
Y243700D02*
Y245300D01*
X444800D01*
Y243700D01*
X443200D01*
Y233700D02*
Y235300D01*
X444800D01*
Y233700D01*
X443200D01*
Y223700D02*
Y225300D01*
X444800D01*
Y223700D01*
X443200D01*
Y213700D02*
Y215300D01*
X444800D01*
Y213700D01*
X443200D01*
Y203700D02*
Y205300D01*
X444800D01*
Y203700D01*
X443200D01*
Y193700D02*
Y195300D01*
X444800D01*
Y193700D01*
X443200D01*
Y263700D02*
Y265300D01*
X444800D01*
Y263700D01*
X443200D01*
X194700Y194200D02*
Y195800D01*
X196300D01*
Y194200D01*
X194700D01*
X204700D02*
Y195800D01*
X206300D01*
Y194200D01*
X204700D01*
X214700D02*
Y195800D01*
X216300D01*
Y194200D01*
X214700D01*
X224700D02*
Y195800D01*
X226300D01*
Y194200D01*
X224700D01*
X234700D02*
Y195800D01*
X236300D01*
Y194200D01*
X234700D01*
X244700D02*
Y195800D01*
X246300D01*
Y194200D01*
X244700D01*
X254700D02*
Y195800D01*
X256300D01*
Y194200D01*
X254700D01*
X184700D02*
Y195800D01*
X186300D01*
Y194200D01*
X184700D01*
X48200Y11700D02*
Y13300D01*
X49800D01*
Y11700D01*
X48200D01*
X38200D02*
Y13300D01*
X39800D01*
Y11700D01*
X38200D01*
X443200Y479200D02*
Y480800D01*
X444800D01*
Y479200D01*
X443200D01*
Y489200D02*
Y490800D01*
X444800D01*
Y489200D01*
X443200D01*
Y499200D02*
Y500800D01*
X444800D01*
Y499200D01*
X443200D01*
Y509200D02*
Y510800D01*
X444800D01*
Y509200D01*
X443200D01*
X32823Y294208D02*
X33223Y294608D01*
X33623D01*
X33223Y295008D01*
X33623Y295408D01*
X33223D01*
X32823Y295808D01*
X32423Y295408D01*
X32023D01*
X32423Y295008D01*
X32023Y294608D01*
X32423D01*
X32823Y294208D01*
X24949D02*
X25349Y294608D01*
X25749D01*
X25349Y295008D01*
X25749Y295408D01*
X25349D01*
X24949Y295808D01*
X24549Y295408D01*
X24149D01*
X24549Y295008D01*
X24149Y294608D01*
X24549D01*
X24949Y294208D01*
X32823Y302082D02*
X33223Y302482D01*
X33623D01*
X33223Y302882D01*
X33623Y303282D01*
X33223D01*
X32823Y303682D01*
X32423Y303282D01*
X32023D01*
X32423Y302882D01*
X32023Y302482D01*
X32423D01*
X32823Y302082D01*
X24949D02*
X25349Y302482D01*
X25749D01*
X25349Y302882D01*
X25749Y303282D01*
X25349D01*
X24949Y303682D01*
X24549Y303282D01*
X24149D01*
X24549Y302882D01*
X24149Y302482D01*
X24549D01*
X24949Y302082D01*
X32823Y309956D02*
X33223Y310356D01*
X33623D01*
X33223Y310756D01*
X33623Y311156D01*
X33223D01*
X32823Y311556D01*
X32423Y311156D01*
X32023D01*
X32423Y310756D01*
X32023Y310356D01*
X32423D01*
X32823Y309956D01*
X24949D02*
X25349Y310356D01*
X25749D01*
X25349Y310756D01*
X25749Y311156D01*
X25349D01*
X24949Y311556D01*
X24549Y311156D01*
X24149D01*
X24549Y310756D01*
X24149Y310356D01*
X24549D01*
X24949Y309956D01*
X32823Y317830D02*
X33223Y318230D01*
X33623D01*
X33223Y318630D01*
X33623Y319030D01*
X33223D01*
X32823Y319430D01*
X32423Y319030D01*
X32023D01*
X32423Y318630D01*
X32023Y318230D01*
X32423D01*
X32823Y317830D01*
X24949D02*
X25349Y318230D01*
X25749D01*
X25349Y318630D01*
X25749Y319030D01*
X25349D01*
X24949Y319430D01*
X24549Y319030D01*
X24149D01*
X24549Y318630D01*
X24149Y318230D01*
X24549D01*
X24949Y317830D01*
X32823Y325704D02*
X33223Y326104D01*
X33623D01*
X33223Y326504D01*
X33623Y326904D01*
X33223D01*
X32823Y327304D01*
X32423Y326904D01*
X32023D01*
X32423Y326504D01*
X32023Y326104D01*
X32423D01*
X32823Y325704D01*
X24949D02*
X25349Y326104D01*
X25749D01*
X25349Y326504D01*
X25749Y326904D01*
X25349D01*
X24949Y327304D01*
X24549Y326904D01*
X24149D01*
X24549Y326504D01*
X24149Y326104D01*
X24549D01*
X24949Y325704D01*
X32823Y333578D02*
X33223Y333978D01*
X33623D01*
X33223Y334378D01*
X33623Y334778D01*
X33223D01*
X32823Y335178D01*
X32423Y334778D01*
X32023D01*
X32423Y334378D01*
X32023Y333978D01*
X32423D01*
X32823Y333578D01*
X24949D02*
X25349Y333978D01*
X25749D01*
X25349Y334378D01*
X25749Y334778D01*
X25349D01*
X24949Y335178D01*
X24549Y334778D01*
X24149D01*
X24549Y334378D01*
X24149Y333978D01*
X24549D01*
X24949Y333578D01*
X32823Y341452D02*
X33223Y341852D01*
X33623D01*
X33223Y342252D01*
X33623Y342652D01*
X33223D01*
X32823Y343052D01*
X32423Y342652D01*
X32023D01*
X32423Y342252D01*
X32023Y341852D01*
X32423D01*
X32823Y341452D01*
X24949D02*
X25349Y341852D01*
X25749D01*
X25349Y342252D01*
X25749Y342652D01*
X25349D01*
X24949Y343052D01*
X24549Y342652D01*
X24149D01*
X24549Y342252D01*
X24149Y341852D01*
X24549D01*
X24949Y341452D01*
X32823Y349326D02*
X33223Y349726D01*
X33623D01*
X33223Y350126D01*
X33623Y350526D01*
X33223D01*
X32823Y350926D01*
X32423Y350526D01*
X32023D01*
X32423Y350126D01*
X32023Y349726D01*
X32423D01*
X32823Y349326D01*
X24949D02*
X25349Y349726D01*
X25749D01*
X25349Y350126D01*
X25749Y350526D01*
X25349D01*
X24949Y350926D01*
X24549Y350526D01*
X24149D01*
X24549Y350126D01*
X24149Y349726D01*
X24549D01*
X24949Y349326D01*
X32823Y357200D02*
X33223Y357600D01*
X33623D01*
X33223Y358000D01*
X33623Y358400D01*
X33223D01*
X32823Y358800D01*
X32423Y358400D01*
X32023D01*
X32423Y358000D01*
X32023Y357600D01*
X32423D01*
X32823Y357200D01*
X24949D02*
X25349Y357600D01*
X25749D01*
X25349Y358000D01*
X25749Y358400D01*
X25349D01*
X24949Y358800D01*
X24549Y358400D01*
X24149D01*
X24549Y358000D01*
X24149Y357600D01*
X24549D01*
X24949Y357200D01*
X32823Y365074D02*
X33223Y365474D01*
X33623D01*
X33223Y365874D01*
X33623Y366274D01*
X33223D01*
X32823Y366674D01*
X32423Y366274D01*
X32023D01*
X32423Y365874D01*
X32023Y365474D01*
X32423D01*
X32823Y365074D01*
X24949D02*
X25349Y365474D01*
X25749D01*
X25349Y365874D01*
X25749Y366274D01*
X25349D01*
X24949Y366674D01*
X24549Y366274D01*
X24149D01*
X24549Y365874D01*
X24149Y365474D01*
X24549D01*
X24949Y365074D01*
X32823Y372948D02*
X33223Y373348D01*
X33623D01*
X33223Y373748D01*
X33623Y374148D01*
X33223D01*
X32823Y374548D01*
X32423Y374148D01*
X32023D01*
X32423Y373748D01*
X32023Y373348D01*
X32423D01*
X32823Y372948D01*
X24949D02*
X25349Y373348D01*
X25749D01*
X25349Y373748D01*
X25749Y374148D01*
X25349D01*
X24949Y374548D01*
X24549Y374148D01*
X24149D01*
X24549Y373748D01*
X24149Y373348D01*
X24549D01*
X24949Y372948D01*
X32823Y380822D02*
X33223Y381222D01*
X33623D01*
X33223Y381622D01*
X33623Y382022D01*
X33223D01*
X32823Y382422D01*
X32423Y382022D01*
X32023D01*
X32423Y381622D01*
X32023Y381222D01*
X32423D01*
X32823Y380822D01*
X24949D02*
X25349Y381222D01*
X25749D01*
X25349Y381622D01*
X25749Y382022D01*
X25349D01*
X24949Y382422D01*
X24549Y382022D01*
X24149D01*
X24549Y381622D01*
X24149Y381222D01*
X24549D01*
X24949Y380822D01*
X32823Y388696D02*
X33223Y389096D01*
X33623D01*
X33223Y389496D01*
X33623Y389896D01*
X33223D01*
X32823Y390296D01*
X32423Y389896D01*
X32023D01*
X32423Y389496D01*
X32023Y389096D01*
X32423D01*
X32823Y388696D01*
X24949D02*
X25349Y389096D01*
X25749D01*
X25349Y389496D01*
X25749Y389896D01*
X25349D01*
X24949Y390296D01*
X24549Y389896D01*
X24149D01*
X24549Y389496D01*
X24149Y389096D01*
X24549D01*
X24949Y388696D01*
X32823Y396570D02*
X33223Y396970D01*
X33623D01*
X33223Y397370D01*
X33623Y397770D01*
X33223D01*
X32823Y398170D01*
X32423Y397770D01*
X32023D01*
X32423Y397370D01*
X32023Y396970D01*
X32423D01*
X32823Y396570D01*
X24949D02*
X25349Y396970D01*
X25749D01*
X25349Y397370D01*
X25749Y397770D01*
X25349D01*
X24949Y398170D01*
X24549Y397770D01*
X24149D01*
X24549Y397370D01*
X24149Y396970D01*
X24549D01*
X24949Y396570D01*
X32823Y404444D02*
X33223Y404844D01*
X33623D01*
X33223Y405244D01*
X33623Y405644D01*
X33223D01*
X32823Y406044D01*
X32423Y405644D01*
X32023D01*
X32423Y405244D01*
X32023Y404844D01*
X32423D01*
X32823Y404444D01*
X24949D02*
X25349Y404844D01*
X25749D01*
X25349Y405244D01*
X25749Y405644D01*
X25349D01*
X24949Y406044D01*
X24549Y405644D01*
X24149D01*
X24549Y405244D01*
X24149Y404844D01*
X24549D01*
X24949Y404444D01*
X32823Y412318D02*
X33223Y412718D01*
X33623D01*
X33223Y413118D01*
X33623Y413518D01*
X33223D01*
X32823Y413918D01*
X32423Y413518D01*
X32023D01*
X32423Y413118D01*
X32023Y412718D01*
X32423D01*
X32823Y412318D01*
X24949D02*
X25349Y412718D01*
X25749D01*
X25349Y413118D01*
X25749Y413518D01*
X25349D01*
X24949Y413918D01*
X24549Y413518D01*
X24149D01*
X24549Y413118D01*
X24149Y412718D01*
X24549D01*
X24949Y412318D01*
X32823Y420192D02*
X33223Y420592D01*
X33623D01*
X33223Y420992D01*
X33623Y421392D01*
X33223D01*
X32823Y421792D01*
X32423Y421392D01*
X32023D01*
X32423Y420992D01*
X32023Y420592D01*
X32423D01*
X32823Y420192D01*
X24949D02*
X25349Y420592D01*
X25749D01*
X25349Y420992D01*
X25749Y421392D01*
X25349D01*
X24949Y421792D01*
X24549Y421392D01*
X24149D01*
X24549Y420992D01*
X24149Y420592D01*
X24549D01*
X24949Y420192D01*
X52508Y439877D02*
X52908Y440277D01*
X53308D01*
X52908Y440677D01*
X53308Y441077D01*
X52908D01*
X52508Y441477D01*
X52108Y441077D01*
X51708D01*
X52108Y440677D01*
X51708Y440277D01*
X52108D01*
X52508Y439877D01*
Y447751D02*
X52908Y448151D01*
X53308D01*
X52908Y448551D01*
X53308Y448951D01*
X52908D01*
X52508Y449351D01*
X52108Y448951D01*
X51708D01*
X52108Y448551D01*
X51708Y448151D01*
X52108D01*
X52508Y447751D01*
X60382Y439877D02*
X60782Y440277D01*
X61182D01*
X60782Y440677D01*
X61182Y441077D01*
X60782D01*
X60382Y441477D01*
X59982Y441077D01*
X59582D01*
X59982Y440677D01*
X59582Y440277D01*
X59982D01*
X60382Y439877D01*
Y447751D02*
X60782Y448151D01*
X61182D01*
X60782Y448551D01*
X61182Y448951D01*
X60782D01*
X60382Y449351D01*
X59982Y448951D01*
X59582D01*
X59982Y448551D01*
X59582Y448151D01*
X59982D01*
X60382Y447751D01*
X68256Y439877D02*
X68656Y440277D01*
X69056D01*
X68656Y440677D01*
X69056Y441077D01*
X68656D01*
X68256Y441477D01*
X67856Y441077D01*
X67456D01*
X67856Y440677D01*
X67456Y440277D01*
X67856D01*
X68256Y439877D01*
Y447751D02*
X68656Y448151D01*
X69056D01*
X68656Y448551D01*
X69056Y448951D01*
X68656D01*
X68256Y449351D01*
X67856Y448951D01*
X67456D01*
X67856Y448551D01*
X67456Y448151D01*
X67856D01*
X68256Y447751D01*
X76130Y439877D02*
X76530Y440277D01*
X76930D01*
X76530Y440677D01*
X76930Y441077D01*
X76530D01*
X76130Y441477D01*
X75730Y441077D01*
X75330D01*
X75730Y440677D01*
X75330Y440277D01*
X75730D01*
X76130Y439877D01*
Y447751D02*
X76530Y448151D01*
X76930D01*
X76530Y448551D01*
X76930Y448951D01*
X76530D01*
X76130Y449351D01*
X75730Y448951D01*
X75330D01*
X75730Y448551D01*
X75330Y448151D01*
X75730D01*
X76130Y447751D01*
X84004Y439877D02*
X84404Y440277D01*
X84804D01*
X84404Y440677D01*
X84804Y441077D01*
X84404D01*
X84004Y441477D01*
X83604Y441077D01*
X83204D01*
X83604Y440677D01*
X83204Y440277D01*
X83604D01*
X84004Y439877D01*
Y447751D02*
X84404Y448151D01*
X84804D01*
X84404Y448551D01*
X84804Y448951D01*
X84404D01*
X84004Y449351D01*
X83604Y448951D01*
X83204D01*
X83604Y448551D01*
X83204Y448151D01*
X83604D01*
X84004Y447751D01*
X91878Y439877D02*
X92278Y440277D01*
X92678D01*
X92278Y440677D01*
X92678Y441077D01*
X92278D01*
X91878Y441477D01*
X91478Y441077D01*
X91078D01*
X91478Y440677D01*
X91078Y440277D01*
X91478D01*
X91878Y439877D01*
Y447751D02*
X92278Y448151D01*
X92678D01*
X92278Y448551D01*
X92678Y448951D01*
X92278D01*
X91878Y449351D01*
X91478Y448951D01*
X91078D01*
X91478Y448551D01*
X91078Y448151D01*
X91478D01*
X91878Y447751D01*
X99752Y439877D02*
X100152Y440277D01*
X100552D01*
X100152Y440677D01*
X100552Y441077D01*
X100152D01*
X99752Y441477D01*
X99352Y441077D01*
X98952D01*
X99352Y440677D01*
X98952Y440277D01*
X99352D01*
X99752Y439877D01*
Y447751D02*
X100152Y448151D01*
X100552D01*
X100152Y448551D01*
X100552Y448951D01*
X100152D01*
X99752Y449351D01*
X99352Y448951D01*
X98952D01*
X99352Y448551D01*
X98952Y448151D01*
X99352D01*
X99752Y447751D01*
X107626Y439877D02*
X108026Y440277D01*
X108426D01*
X108026Y440677D01*
X108426Y441077D01*
X108026D01*
X107626Y441477D01*
X107226Y441077D01*
X106826D01*
X107226Y440677D01*
X106826Y440277D01*
X107226D01*
X107626Y439877D01*
Y447751D02*
X108026Y448151D01*
X108426D01*
X108026Y448551D01*
X108426Y448951D01*
X108026D01*
X107626Y449351D01*
X107226Y448951D01*
X106826D01*
X107226Y448551D01*
X106826Y448151D01*
X107226D01*
X107626Y447751D01*
X115500Y439877D02*
X115900Y440277D01*
X116300D01*
X115900Y440677D01*
X116300Y441077D01*
X115900D01*
X115500Y441477D01*
X115100Y441077D01*
X114700D01*
X115100Y440677D01*
X114700Y440277D01*
X115100D01*
X115500Y439877D01*
Y447751D02*
X115900Y448151D01*
X116300D01*
X115900Y448551D01*
X116300Y448951D01*
X115900D01*
X115500Y449351D01*
X115100Y448951D01*
X114700D01*
X115100Y448551D01*
X114700Y448151D01*
X115100D01*
X115500Y447751D01*
X123374Y439877D02*
X123774Y440277D01*
X124174D01*
X123774Y440677D01*
X124174Y441077D01*
X123774D01*
X123374Y441477D01*
X122974Y441077D01*
X122574D01*
X122974Y440677D01*
X122574Y440277D01*
X122974D01*
X123374Y439877D01*
Y447751D02*
X123774Y448151D01*
X124174D01*
X123774Y448551D01*
X124174Y448951D01*
X123774D01*
X123374Y449351D01*
X122974Y448951D01*
X122574D01*
X122974Y448551D01*
X122574Y448151D01*
X122974D01*
X123374Y447751D01*
X131248Y439877D02*
X131648Y440277D01*
X132048D01*
X131648Y440677D01*
X132048Y441077D01*
X131648D01*
X131248Y441477D01*
X130848Y441077D01*
X130448D01*
X130848Y440677D01*
X130448Y440277D01*
X130848D01*
X131248Y439877D01*
Y447751D02*
X131648Y448151D01*
X132048D01*
X131648Y448551D01*
X132048Y448951D01*
X131648D01*
X131248Y449351D01*
X130848Y448951D01*
X130448D01*
X130848Y448551D01*
X130448Y448151D01*
X130848D01*
X131248Y447751D01*
X139122Y439877D02*
X139522Y440277D01*
X139922D01*
X139522Y440677D01*
X139922Y441077D01*
X139522D01*
X139122Y441477D01*
X138722Y441077D01*
X138322D01*
X138722Y440677D01*
X138322Y440277D01*
X138722D01*
X139122Y439877D01*
Y447751D02*
X139522Y448151D01*
X139922D01*
X139522Y448551D01*
X139922Y448951D01*
X139522D01*
X139122Y449351D01*
X138722Y448951D01*
X138322D01*
X138722Y448551D01*
X138322Y448151D01*
X138722D01*
X139122Y447751D01*
X146996Y439877D02*
X147396Y440277D01*
X147796D01*
X147396Y440677D01*
X147796Y441077D01*
X147396D01*
X146996Y441477D01*
X146596Y441077D01*
X146196D01*
X146596Y440677D01*
X146196Y440277D01*
X146596D01*
X146996Y439877D01*
Y447751D02*
X147396Y448151D01*
X147796D01*
X147396Y448551D01*
X147796Y448951D01*
X147396D01*
X146996Y449351D01*
X146596Y448951D01*
X146196D01*
X146596Y448551D01*
X146196Y448151D01*
X146596D01*
X146996Y447751D01*
X154870Y439877D02*
X155270Y440277D01*
X155670D01*
X155270Y440677D01*
X155670Y441077D01*
X155270D01*
X154870Y441477D01*
X154470Y441077D01*
X154070D01*
X154470Y440677D01*
X154070Y440277D01*
X154470D01*
X154870Y439877D01*
Y447751D02*
X155270Y448151D01*
X155670D01*
X155270Y448551D01*
X155670Y448951D01*
X155270D01*
X154870Y449351D01*
X154470Y448951D01*
X154070D01*
X154470Y448551D01*
X154070Y448151D01*
X154470D01*
X154870Y447751D01*
X162744Y439877D02*
X163144Y440277D01*
X163544D01*
X163144Y440677D01*
X163544Y441077D01*
X163144D01*
X162744Y441477D01*
X162344Y441077D01*
X161944D01*
X162344Y440677D01*
X161944Y440277D01*
X162344D01*
X162744Y439877D01*
Y447751D02*
X163144Y448151D01*
X163544D01*
X163144Y448551D01*
X163544Y448951D01*
X163144D01*
X162744Y449351D01*
X162344Y448951D01*
X161944D01*
X162344Y448551D01*
X161944Y448151D01*
X162344D01*
X162744Y447751D01*
X170618Y439877D02*
X171018Y440277D01*
X171418D01*
X171018Y440677D01*
X171418Y441077D01*
X171018D01*
X170618Y441477D01*
X170218Y441077D01*
X169818D01*
X170218Y440677D01*
X169818Y440277D01*
X170218D01*
X170618Y439877D01*
Y447751D02*
X171018Y448151D01*
X171418D01*
X171018Y448551D01*
X171418Y448951D01*
X171018D01*
X170618Y449351D01*
X170218Y448951D01*
X169818D01*
X170218Y448551D01*
X169818Y448151D01*
X170218D01*
X170618Y447751D01*
X178492Y439877D02*
X178892Y440277D01*
X179292D01*
X178892Y440677D01*
X179292Y441077D01*
X178892D01*
X178492Y441477D01*
X178092Y441077D01*
X177692D01*
X178092Y440677D01*
X177692Y440277D01*
X178092D01*
X178492Y439877D01*
Y447751D02*
X178892Y448151D01*
X179292D01*
X178892Y448551D01*
X179292Y448951D01*
X178892D01*
X178492Y449351D01*
X178092Y448951D01*
X177692D01*
X178092Y448551D01*
X177692Y448151D01*
X178092D01*
X178492Y447751D01*
X205937Y294208D02*
X206337Y294608D01*
X206737D01*
X206337Y295008D01*
X206737Y295408D01*
X206337D01*
X205937Y295808D01*
X205537Y295408D01*
X205137D01*
X205537Y295008D01*
X205137Y294608D01*
X205537D01*
X205937Y294208D01*
X198063D02*
X198463Y294608D01*
X198863D01*
X198463Y295008D01*
X198863Y295408D01*
X198463D01*
X198063Y295808D01*
X197663Y295408D01*
X197263D01*
X197663Y295008D01*
X197263Y294608D01*
X197663D01*
X198063Y294208D01*
X205937Y302082D02*
X206337Y302482D01*
X206737D01*
X206337Y302882D01*
X206737Y303282D01*
X206337D01*
X205937Y303682D01*
X205537Y303282D01*
X205137D01*
X205537Y302882D01*
X205137Y302482D01*
X205537D01*
X205937Y302082D01*
X198063D02*
X198463Y302482D01*
X198863D01*
X198463Y302882D01*
X198863Y303282D01*
X198463D01*
X198063Y303682D01*
X197663Y303282D01*
X197263D01*
X197663Y302882D01*
X197263Y302482D01*
X197663D01*
X198063Y302082D01*
X205937Y309956D02*
X206337Y310356D01*
X206737D01*
X206337Y310756D01*
X206737Y311156D01*
X206337D01*
X205937Y311556D01*
X205537Y311156D01*
X205137D01*
X205537Y310756D01*
X205137Y310356D01*
X205537D01*
X205937Y309956D01*
X198063D02*
X198463Y310356D01*
X198863D01*
X198463Y310756D01*
X198863Y311156D01*
X198463D01*
X198063Y311556D01*
X197663Y311156D01*
X197263D01*
X197663Y310756D01*
X197263Y310356D01*
X197663D01*
X198063Y309956D01*
X205937Y317830D02*
X206337Y318230D01*
X206737D01*
X206337Y318630D01*
X206737Y319030D01*
X206337D01*
X205937Y319430D01*
X205537Y319030D01*
X205137D01*
X205537Y318630D01*
X205137Y318230D01*
X205537D01*
X205937Y317830D01*
X198063D02*
X198463Y318230D01*
X198863D01*
X198463Y318630D01*
X198863Y319030D01*
X198463D01*
X198063Y319430D01*
X197663Y319030D01*
X197263D01*
X197663Y318630D01*
X197263Y318230D01*
X197663D01*
X198063Y317830D01*
X205937Y325704D02*
X206337Y326104D01*
X206737D01*
X206337Y326504D01*
X206737Y326904D01*
X206337D01*
X205937Y327304D01*
X205537Y326904D01*
X205137D01*
X205537Y326504D01*
X205137Y326104D01*
X205537D01*
X205937Y325704D01*
X198063D02*
X198463Y326104D01*
X198863D01*
X198463Y326504D01*
X198863Y326904D01*
X198463D01*
X198063Y327304D01*
X197663Y326904D01*
X197263D01*
X197663Y326504D01*
X197263Y326104D01*
X197663D01*
X198063Y325704D01*
X205937Y333578D02*
X206337Y333978D01*
X206737D01*
X206337Y334378D01*
X206737Y334778D01*
X206337D01*
X205937Y335178D01*
X205537Y334778D01*
X205137D01*
X205537Y334378D01*
X205137Y333978D01*
X205537D01*
X205937Y333578D01*
X198063D02*
X198463Y333978D01*
X198863D01*
X198463Y334378D01*
X198863Y334778D01*
X198463D01*
X198063Y335178D01*
X197663Y334778D01*
X197263D01*
X197663Y334378D01*
X197263Y333978D01*
X197663D01*
X198063Y333578D01*
X205937Y341452D02*
X206337Y341852D01*
X206737D01*
X206337Y342252D01*
X206737Y342652D01*
X206337D01*
X205937Y343052D01*
X205537Y342652D01*
X205137D01*
X205537Y342252D01*
X205137Y341852D01*
X205537D01*
X205937Y341452D01*
X198063D02*
X198463Y341852D01*
X198863D01*
X198463Y342252D01*
X198863Y342652D01*
X198463D01*
X198063Y343052D01*
X197663Y342652D01*
X197263D01*
X197663Y342252D01*
X197263Y341852D01*
X197663D01*
X198063Y341452D01*
X205937Y349326D02*
X206337Y349726D01*
X206737D01*
X206337Y350126D01*
X206737Y350526D01*
X206337D01*
X205937Y350926D01*
X205537Y350526D01*
X205137D01*
X205537Y350126D01*
X205137Y349726D01*
X205537D01*
X205937Y349326D01*
X198063D02*
X198463Y349726D01*
X198863D01*
X198463Y350126D01*
X198863Y350526D01*
X198463D01*
X198063Y350926D01*
X197663Y350526D01*
X197263D01*
X197663Y350126D01*
X197263Y349726D01*
X197663D01*
X198063Y349326D01*
X205937Y357200D02*
X206337Y357600D01*
X206737D01*
X206337Y358000D01*
X206737Y358400D01*
X206337D01*
X205937Y358800D01*
X205537Y358400D01*
X205137D01*
X205537Y358000D01*
X205137Y357600D01*
X205537D01*
X205937Y357200D01*
X198063D02*
X198463Y357600D01*
X198863D01*
X198463Y358000D01*
X198863Y358400D01*
X198463D01*
X198063Y358800D01*
X197663Y358400D01*
X197263D01*
X197663Y358000D01*
X197263Y357600D01*
X197663D01*
X198063Y357200D01*
X205937Y365074D02*
X206337Y365474D01*
X206737D01*
X206337Y365874D01*
X206737Y366274D01*
X206337D01*
X205937Y366674D01*
X205537Y366274D01*
X205137D01*
X205537Y365874D01*
X205137Y365474D01*
X205537D01*
X205937Y365074D01*
X198063D02*
X198463Y365474D01*
X198863D01*
X198463Y365874D01*
X198863Y366274D01*
X198463D01*
X198063Y366674D01*
X197663Y366274D01*
X197263D01*
X197663Y365874D01*
X197263Y365474D01*
X197663D01*
X198063Y365074D01*
X205937Y372948D02*
X206337Y373348D01*
X206737D01*
X206337Y373748D01*
X206737Y374148D01*
X206337D01*
X205937Y374548D01*
X205537Y374148D01*
X205137D01*
X205537Y373748D01*
X205137Y373348D01*
X205537D01*
X205937Y372948D01*
X198063D02*
X198463Y373348D01*
X198863D01*
X198463Y373748D01*
X198863Y374148D01*
X198463D01*
X198063Y374548D01*
X197663Y374148D01*
X197263D01*
X197663Y373748D01*
X197263Y373348D01*
X197663D01*
X198063Y372948D01*
X205937Y380822D02*
X206337Y381222D01*
X206737D01*
X206337Y381622D01*
X206737Y382022D01*
X206337D01*
X205937Y382422D01*
X205537Y382022D01*
X205137D01*
X205537Y381622D01*
X205137Y381222D01*
X205537D01*
X205937Y380822D01*
X198063D02*
X198463Y381222D01*
X198863D01*
X198463Y381622D01*
X198863Y382022D01*
X198463D01*
X198063Y382422D01*
X197663Y382022D01*
X197263D01*
X197663Y381622D01*
X197263Y381222D01*
X197663D01*
X198063Y380822D01*
X205937Y388696D02*
X206337Y389096D01*
X206737D01*
X206337Y389496D01*
X206737Y389896D01*
X206337D01*
X205937Y390296D01*
X205537Y389896D01*
X205137D01*
X205537Y389496D01*
X205137Y389096D01*
X205537D01*
X205937Y388696D01*
X198063D02*
X198463Y389096D01*
X198863D01*
X198463Y389496D01*
X198863Y389896D01*
X198463D01*
X198063Y390296D01*
X197663Y389896D01*
X197263D01*
X197663Y389496D01*
X197263Y389096D01*
X197663D01*
X198063Y388696D01*
X205937Y396570D02*
X206337Y396970D01*
X206737D01*
X206337Y397370D01*
X206737Y397770D01*
X206337D01*
X205937Y398170D01*
X205537Y397770D01*
X205137D01*
X205537Y397370D01*
X205137Y396970D01*
X205537D01*
X205937Y396570D01*
X198063D02*
X198463Y396970D01*
X198863D01*
X198463Y397370D01*
X198863Y397770D01*
X198463D01*
X198063Y398170D01*
X197663Y397770D01*
X197263D01*
X197663Y397370D01*
X197263Y396970D01*
X197663D01*
X198063Y396570D01*
X205937Y404444D02*
X206337Y404844D01*
X206737D01*
X206337Y405244D01*
X206737Y405644D01*
X206337D01*
X205937Y406044D01*
X205537Y405644D01*
X205137D01*
X205537Y405244D01*
X205137Y404844D01*
X205537D01*
X205937Y404444D01*
X198063D02*
X198463Y404844D01*
X198863D01*
X198463Y405244D01*
X198863Y405644D01*
X198463D01*
X198063Y406044D01*
X197663Y405644D01*
X197263D01*
X197663Y405244D01*
X197263Y404844D01*
X197663D01*
X198063Y404444D01*
X205937Y412318D02*
X206337Y412718D01*
X206737D01*
X206337Y413118D01*
X206737Y413518D01*
X206337D01*
X205937Y413918D01*
X205537Y413518D01*
X205137D01*
X205537Y413118D01*
X205137Y412718D01*
X205537D01*
X205937Y412318D01*
X198063D02*
X198463Y412718D01*
X198863D01*
X198463Y413118D01*
X198863Y413518D01*
X198463D01*
X198063Y413918D01*
X197663Y413518D01*
X197263D01*
X197663Y413118D01*
X197263Y412718D01*
X197663D01*
X198063Y412318D01*
X205937Y420192D02*
X206337Y420592D01*
X206737D01*
X206337Y420992D01*
X206737Y421392D01*
X206337D01*
X205937Y421792D01*
X205537Y421392D01*
X205137D01*
X205537Y420992D01*
X205137Y420592D01*
X205537D01*
X205937Y420192D01*
X198063D02*
X198463Y420592D01*
X198863D01*
X198463Y420992D01*
X198863Y421392D01*
X198463D01*
X198063Y421792D01*
X197663Y421392D01*
X197263D01*
X197663Y420992D01*
X197263Y420592D01*
X197663D01*
X198063Y420192D01*
X407700Y181200D02*
X408100D01*
X408500Y181600D01*
X408900Y181200D01*
X409300D01*
Y181600D01*
X408900Y182000D01*
X409300Y182400D01*
Y182800D01*
X408900D01*
X408500Y182400D01*
X408100Y182800D01*
X407700D01*
Y182400D01*
X408100Y182000D01*
X407700Y181600D01*
Y181200D01*
X210700Y135200D02*
X211100D01*
X211500Y135600D01*
X211900Y135200D01*
X212300D01*
Y135600D01*
X211900Y136000D01*
X212300Y136400D01*
Y136800D01*
X211900D01*
X211500Y136400D01*
X211100Y136800D01*
X210700D01*
Y136400D01*
X211100Y136000D01*
X210700Y135600D01*
Y135200D01*
X170700Y210700D02*
X171100D01*
X171500Y211100D01*
X171900Y210700D01*
X172300D01*
Y211100D01*
X171900Y211500D01*
X172300Y211900D01*
Y212300D01*
X171900D01*
X171500Y211900D01*
X171100Y212300D01*
X170700D01*
Y211900D01*
X171100Y211500D01*
X170700Y211100D01*
Y210700D01*
X325200Y11700D02*
Y13300D01*
X326800D01*
Y11700D01*
X325200D01*
X315200D02*
Y13300D01*
X316800D01*
Y11700D01*
X315200D01*
X305200D02*
Y13300D01*
X306800D01*
Y11700D01*
X305200D01*
X295200D02*
Y13300D01*
X296800D01*
Y11700D01*
X295200D01*
X440889Y522060D02*
Y523660D01*
X442489D01*
Y522060D01*
X440889D01*
X441289Y522460D02*
Y523260D01*
X442089D01*
Y522460D01*
X441289D01*
X440889Y462060D02*
Y463660D01*
X442489D01*
Y462060D01*
X440889D01*
X441289Y462460D02*
Y463260D01*
X442089D01*
Y462460D01*
X441289D01*
X448389Y447060D02*
Y448660D01*
X449989D01*
Y447060D01*
X448389D01*
X448789Y447460D02*
Y448260D01*
X449589D01*
Y447460D01*
X448789D01*
X440889Y432060D02*
Y433660D01*
X442489D01*
Y432060D01*
X440889D01*
X441289Y432460D02*
Y433260D01*
X442089D01*
Y432460D01*
X441289D01*
X448389Y417060D02*
Y418660D01*
X449989D01*
Y417060D01*
X448389D01*
X448789Y417460D02*
Y418260D01*
X449589D01*
Y417460D01*
X448789D01*
X440889Y402060D02*
Y403660D01*
X442489D01*
Y402060D01*
X440889D01*
X441289Y402460D02*
Y403260D01*
X442089D01*
Y402460D01*
X441289D01*
X440889Y372060D02*
Y373660D01*
X442489D01*
Y372060D01*
X440889D01*
X441289Y372460D02*
Y373260D01*
X442089D01*
Y372460D01*
X441289D01*
X440889Y282060D02*
Y283660D01*
X442489D01*
Y282060D01*
X440889D01*
X441289Y282460D02*
Y283260D01*
X442089D01*
Y282460D01*
X441289D01*
X448389Y177060D02*
Y178660D01*
X449989D01*
Y177060D01*
X448389D01*
X448789Y177460D02*
Y178260D01*
X449589D01*
Y177460D01*
X448789D01*
X448389Y147060D02*
Y148660D01*
X449989D01*
Y147060D01*
X448389D01*
X448789Y147460D02*
Y148260D01*
X449589D01*
Y147460D01*
X448789D01*
X448389Y27060D02*
Y28660D01*
X449989D01*
Y27060D01*
X448389D01*
X448789Y27460D02*
Y28260D01*
X449589D01*
Y27460D01*
X448789D01*
X425889Y522060D02*
Y523660D01*
X427489D01*
Y522060D01*
X425889D01*
X426289Y522460D02*
Y523260D01*
X427089D01*
Y522460D01*
X426289D01*
X433389Y447060D02*
Y448660D01*
X434989D01*
Y447060D01*
X433389D01*
X433789Y447460D02*
Y448260D01*
X434589D01*
Y447460D01*
X433789D01*
X425889Y432060D02*
Y433660D01*
X427489D01*
Y432060D01*
X425889D01*
X426289Y432460D02*
Y433260D01*
X427089D01*
Y432460D01*
X426289D01*
X433389Y417060D02*
Y418660D01*
X434989D01*
Y417060D01*
X433389D01*
X433789Y417460D02*
Y418260D01*
X434589D01*
Y417460D01*
X433789D01*
X425889Y372060D02*
Y373660D01*
X427489D01*
Y372060D01*
X425889D01*
X426289Y372460D02*
Y373260D01*
X427089D01*
Y372460D01*
X426289D01*
X425889Y342060D02*
Y343660D01*
X427489D01*
Y342060D01*
X425889D01*
X426289Y342460D02*
Y343260D01*
X427089D01*
Y342460D01*
X426289D01*
X425889Y312060D02*
Y313660D01*
X427489D01*
Y312060D01*
X425889D01*
X426289Y312460D02*
Y313260D01*
X427089D01*
Y312460D01*
X426289D01*
X425889Y282060D02*
Y283660D01*
X427489D01*
Y282060D01*
X425889D01*
X426289Y282460D02*
Y283260D01*
X427089D01*
Y282460D01*
X426289D01*
X433389Y267060D02*
Y268660D01*
X434989D01*
Y267060D01*
X433389D01*
X433789Y267460D02*
Y268260D01*
X434589D01*
Y267460D01*
X433789D01*
X433389Y237060D02*
Y238660D01*
X434989D01*
Y237060D01*
X433389D01*
X433789Y237460D02*
Y238260D01*
X434589D01*
Y237460D01*
X433789D01*
X425889Y222060D02*
Y223660D01*
X427489D01*
Y222060D01*
X425889D01*
X426289Y222460D02*
Y223260D01*
X427089D01*
Y222460D01*
X426289D01*
X433389Y207060D02*
Y208660D01*
X434989D01*
Y207060D01*
X433389D01*
X433789Y207460D02*
Y208260D01*
X434589D01*
Y207460D01*
X433789D01*
X425889Y192060D02*
Y193660D01*
X427489D01*
Y192060D01*
X425889D01*
X426289Y192460D02*
Y193260D01*
X427089D01*
Y192460D01*
X426289D01*
X433389Y177060D02*
Y178660D01*
X434989D01*
Y177060D01*
X433389D01*
X433789Y177460D02*
Y178260D01*
X434589D01*
Y177460D01*
X433789D01*
X425889Y162060D02*
Y163660D01*
X427489D01*
Y162060D01*
X425889D01*
X426289Y162460D02*
Y163260D01*
X427089D01*
Y162460D01*
X426289D01*
X433389Y147060D02*
Y148660D01*
X434989D01*
Y147060D01*
X433389D01*
X433789Y147460D02*
Y148260D01*
X434589D01*
Y147460D01*
X433789D01*
X425889Y132060D02*
Y133660D01*
X427489D01*
Y132060D01*
X425889D01*
X426289Y132460D02*
Y133260D01*
X427089D01*
Y132460D01*
X426289D01*
X433389Y87060D02*
Y88660D01*
X434989D01*
Y87060D01*
X433389D01*
X433789Y87460D02*
Y88260D01*
X434589D01*
Y87460D01*
X433789D01*
X433389Y57060D02*
Y58660D01*
X434989D01*
Y57060D01*
X433389D01*
X433789Y57460D02*
Y58260D01*
X434589D01*
Y57460D01*
X433789D01*
X433389Y27060D02*
Y28660D01*
X434989D01*
Y27060D01*
X433389D01*
X433789Y27460D02*
Y28260D01*
X434589D01*
Y27460D01*
X433789D01*
X425889Y12060D02*
Y13660D01*
X427489D01*
Y12060D01*
X425889D01*
X426289Y12460D02*
Y13260D01*
X427089D01*
Y12460D01*
X426289D01*
X410889Y522060D02*
Y523660D01*
X412489D01*
Y522060D01*
X410889D01*
X411289Y522460D02*
Y523260D01*
X412089D01*
Y522460D01*
X411289D01*
X410889Y492060D02*
Y493660D01*
X412489D01*
Y492060D01*
X410889D01*
X411289Y492460D02*
Y493260D01*
X412089D01*
Y492460D01*
X411289D01*
X410889Y372060D02*
Y373660D01*
X412489D01*
Y372060D01*
X410889D01*
X411289Y372460D02*
Y373260D01*
X412089D01*
Y372460D01*
X411289D01*
X410889Y102060D02*
Y103660D01*
X412489D01*
Y102060D01*
X410889D01*
X411289Y102460D02*
Y103260D01*
X412089D01*
Y102460D01*
X411289D01*
X418389Y87060D02*
Y88660D01*
X419989D01*
Y87060D01*
X418389D01*
X418789Y87460D02*
Y88260D01*
X419589D01*
Y87460D01*
X418789D01*
X410889Y72060D02*
Y73660D01*
X412489D01*
Y72060D01*
X410889D01*
X411289Y72460D02*
Y73260D01*
X412089D01*
Y72460D01*
X411289D01*
X410889Y12060D02*
Y13660D01*
X412489D01*
Y12060D01*
X410889D01*
X411289Y12460D02*
Y13260D01*
X412089D01*
Y12460D01*
X411289D01*
X395889Y522060D02*
Y523660D01*
X397489D01*
Y522060D01*
X395889D01*
X396289Y522460D02*
Y523260D01*
X397089D01*
Y522460D01*
X396289D01*
X395889Y492060D02*
Y493660D01*
X397489D01*
Y492060D01*
X395889D01*
X396289Y492460D02*
Y493260D01*
X397089D01*
Y492460D01*
X396289D01*
X403389Y477060D02*
Y478660D01*
X404989D01*
Y477060D01*
X403389D01*
X403789Y477460D02*
Y478260D01*
X404589D01*
Y477460D01*
X403789D01*
X395889Y462060D02*
Y463660D01*
X397489D01*
Y462060D01*
X395889D01*
X396289Y462460D02*
Y463260D01*
X397089D01*
Y462460D01*
X396289D01*
X403389Y417060D02*
Y418660D01*
X404989D01*
Y417060D01*
X403389D01*
X403789Y417460D02*
Y418260D01*
X404589D01*
Y417460D01*
X403789D01*
X395889Y372060D02*
Y373660D01*
X397489D01*
Y372060D01*
X395889D01*
X396289Y372460D02*
Y373260D01*
X397089D01*
Y372460D01*
X396289D01*
X403389Y207060D02*
Y208660D01*
X404989D01*
Y207060D01*
X403389D01*
X403789Y207460D02*
Y208260D01*
X404589D01*
Y207460D01*
X403789D01*
X395889Y192060D02*
Y193660D01*
X397489D01*
Y192060D01*
X395889D01*
X396289Y192460D02*
Y193260D01*
X397089D01*
Y192460D01*
X396289D01*
X403389Y177060D02*
Y178660D01*
X404989D01*
Y177060D01*
X403389D01*
X403789Y177460D02*
Y178260D01*
X404589D01*
Y177460D01*
X403789D01*
X395889Y102060D02*
Y103660D01*
X397489D01*
Y102060D01*
X395889D01*
X396289Y102460D02*
Y103260D01*
X397089D01*
Y102460D01*
X396289D01*
X395889Y72060D02*
Y73660D01*
X397489D01*
Y72060D01*
X395889D01*
X396289Y72460D02*
Y73260D01*
X397089D01*
Y72460D01*
X396289D01*
X395889Y42060D02*
Y43660D01*
X397489D01*
Y42060D01*
X395889D01*
X396289Y42460D02*
Y43260D01*
X397089D01*
Y42460D01*
X396289D01*
X380889Y522060D02*
Y523660D01*
X382489D01*
Y522060D01*
X380889D01*
X381289Y522460D02*
Y523260D01*
X382089D01*
Y522460D01*
X381289D01*
X380889Y492060D02*
Y493660D01*
X382489D01*
Y492060D01*
X380889D01*
X381289Y492460D02*
Y493260D01*
X382089D01*
Y492460D01*
X381289D01*
X388389Y297060D02*
Y298660D01*
X389989D01*
Y297060D01*
X388389D01*
X388789Y297460D02*
Y298260D01*
X389589D01*
Y297460D01*
X388789D01*
X380889Y192060D02*
Y193660D01*
X382489D01*
Y192060D01*
X380889D01*
X381289Y192460D02*
Y193260D01*
X382089D01*
Y192460D01*
X381289D01*
X388389Y147060D02*
Y148660D01*
X389989D01*
Y147060D01*
X388389D01*
X388789Y147460D02*
Y148260D01*
X389589D01*
Y147460D01*
X388789D01*
X380889Y132060D02*
Y133660D01*
X382489D01*
Y132060D01*
X380889D01*
X381289Y132460D02*
Y133260D01*
X382089D01*
Y132460D01*
X381289D01*
X380889Y102060D02*
Y103660D01*
X382489D01*
Y102060D01*
X380889D01*
X381289Y102460D02*
Y103260D01*
X382089D01*
Y102460D01*
X381289D01*
X380889Y72060D02*
Y73660D01*
X382489D01*
Y72060D01*
X380889D01*
X381289Y72460D02*
Y73260D01*
X382089D01*
Y72460D01*
X381289D01*
X380889Y12060D02*
Y13660D01*
X382489D01*
Y12060D01*
X380889D01*
X381289Y12460D02*
Y13260D01*
X382089D01*
Y12460D01*
X381289D01*
X373389Y537060D02*
Y538660D01*
X374989D01*
Y537060D01*
X373389D01*
X373789Y537460D02*
Y538260D01*
X374589D01*
Y537460D01*
X373789D01*
X365889Y492060D02*
Y493660D01*
X367489D01*
Y492060D01*
X365889D01*
X366289Y492460D02*
Y493260D01*
X367089D01*
Y492460D01*
X366289D01*
X373389Y387060D02*
Y388660D01*
X374989D01*
Y387060D01*
X373389D01*
X373789Y387460D02*
Y388260D01*
X374589D01*
Y387460D01*
X373789D01*
X365889Y372060D02*
Y373660D01*
X367489D01*
Y372060D01*
X365889D01*
X366289Y372460D02*
Y373260D01*
X367089D01*
Y372460D01*
X366289D01*
X365889Y252060D02*
Y253660D01*
X367489D01*
Y252060D01*
X365889D01*
X366289Y252460D02*
Y253260D01*
X367089D01*
Y252460D01*
X366289D01*
X373389Y147060D02*
Y148660D01*
X374989D01*
Y147060D01*
X373389D01*
X373789Y147460D02*
Y148260D01*
X374589D01*
Y147460D01*
X373789D01*
X365889Y132060D02*
Y133660D01*
X367489D01*
Y132060D01*
X365889D01*
X366289Y132460D02*
Y133260D01*
X367089D01*
Y132460D01*
X366289D01*
X365889Y102060D02*
Y103660D01*
X367489D01*
Y102060D01*
X365889D01*
X366289Y102460D02*
Y103260D01*
X367089D01*
Y102460D01*
X366289D01*
X365889Y72060D02*
Y73660D01*
X367489D01*
Y72060D01*
X365889D01*
X366289Y72460D02*
Y73260D01*
X367089D01*
Y72460D01*
X366289D01*
X365889Y42060D02*
Y43660D01*
X367489D01*
Y42060D01*
X365889D01*
X366289Y42460D02*
Y43260D01*
X367089D01*
Y42460D01*
X366289D01*
X358389Y537060D02*
Y538660D01*
X359989D01*
Y537060D01*
X358389D01*
X358789Y537460D02*
Y538260D01*
X359589D01*
Y537460D01*
X358789D01*
X350889Y522060D02*
Y523660D01*
X352489D01*
Y522060D01*
X350889D01*
X351289Y522460D02*
Y523260D01*
X352089D01*
Y522460D01*
X351289D01*
X358389Y507060D02*
Y508660D01*
X359989D01*
Y507060D01*
X358389D01*
X358789Y507460D02*
Y508260D01*
X359589D01*
Y507460D01*
X358789D01*
X358389Y477060D02*
Y478660D01*
X359989D01*
Y477060D01*
X358389D01*
X358789Y477460D02*
Y478260D01*
X359589D01*
Y477460D01*
X358789D01*
X350889Y402060D02*
Y403660D01*
X352489D01*
Y402060D01*
X350889D01*
X351289Y402460D02*
Y403260D01*
X352089D01*
Y402460D01*
X351289D01*
X358389Y387060D02*
Y388660D01*
X359989D01*
Y387060D01*
X358389D01*
X358789Y387460D02*
Y388260D01*
X359589D01*
Y387460D01*
X358789D01*
X358389Y237060D02*
Y238660D01*
X359989D01*
Y237060D01*
X358389D01*
X358789Y237460D02*
Y238260D01*
X359589D01*
Y237460D01*
X358789D01*
X350889Y222060D02*
Y223660D01*
X352489D01*
Y222060D01*
X350889D01*
X351289Y222460D02*
Y223260D01*
X352089D01*
Y222460D01*
X351289D01*
X358389Y147060D02*
Y148660D01*
X359989D01*
Y147060D01*
X358389D01*
X358789Y147460D02*
Y148260D01*
X359589D01*
Y147460D01*
X358789D01*
X358389Y87060D02*
Y88660D01*
X359989D01*
Y87060D01*
X358389D01*
X358789Y87460D02*
Y88260D01*
X359589D01*
Y87460D01*
X358789D01*
X358389Y57060D02*
Y58660D01*
X359989D01*
Y57060D01*
X358389D01*
X358789Y57460D02*
Y58260D01*
X359589D01*
Y57460D01*
X358789D01*
X350889Y12060D02*
Y13660D01*
X352489D01*
Y12060D01*
X350889D01*
X351289Y12460D02*
Y13260D01*
X352089D01*
Y12460D01*
X351289D01*
X343389Y537060D02*
Y538660D01*
X344989D01*
Y537060D01*
X343389D01*
X343789Y537460D02*
Y538260D01*
X344589D01*
Y537460D01*
X343789D01*
X343389Y477060D02*
Y478660D01*
X344989D01*
Y477060D01*
X343389D01*
X343789Y477460D02*
Y478260D01*
X344589D01*
Y477460D01*
X343789D01*
X335889Y432060D02*
Y433660D01*
X337489D01*
Y432060D01*
X335889D01*
X336289Y432460D02*
Y433260D01*
X337089D01*
Y432460D01*
X336289D01*
X343389Y387060D02*
Y388660D01*
X344989D01*
Y387060D01*
X343389D01*
X343789Y387460D02*
Y388260D01*
X344589D01*
Y387460D01*
X343789D01*
X335889Y282060D02*
Y283660D01*
X337489D01*
Y282060D01*
X335889D01*
X336289Y282460D02*
Y283260D01*
X337089D01*
Y282460D01*
X336289D01*
X343389Y147060D02*
Y148660D01*
X344989D01*
Y147060D01*
X343389D01*
X343789Y147460D02*
Y148260D01*
X344589D01*
Y147460D01*
X343789D01*
X343389Y57060D02*
Y58660D01*
X344989D01*
Y57060D01*
X343389D01*
X343789Y57460D02*
Y58260D01*
X344589D01*
Y57460D01*
X343789D01*
X335889Y42060D02*
Y43660D01*
X337489D01*
Y42060D01*
X335889D01*
X336289Y42460D02*
Y43260D01*
X337089D01*
Y42460D01*
X336289D01*
X328389Y537060D02*
Y538660D01*
X329989D01*
Y537060D01*
X328389D01*
X328789Y537460D02*
Y538260D01*
X329589D01*
Y537460D01*
X328789D01*
X320889Y522060D02*
Y523660D01*
X322489D01*
Y522060D01*
X320889D01*
X321289Y522460D02*
Y523260D01*
X322089D01*
Y522460D01*
X321289D01*
X320889Y432060D02*
Y433660D01*
X322489D01*
Y432060D01*
X320889D01*
X321289Y432460D02*
Y433260D01*
X322089D01*
Y432460D01*
X321289D01*
X320889Y402060D02*
Y403660D01*
X322489D01*
Y402060D01*
X320889D01*
X321289Y402460D02*
Y403260D01*
X322089D01*
Y402460D01*
X321289D01*
X320889Y342060D02*
Y343660D01*
X322489D01*
Y342060D01*
X320889D01*
X321289Y342460D02*
Y343260D01*
X322089D01*
Y342460D01*
X321289D01*
X320889Y222060D02*
Y223660D01*
X322489D01*
Y222060D01*
X320889D01*
X321289Y222460D02*
Y223260D01*
X322089D01*
Y222460D01*
X321289D01*
X320889Y162060D02*
Y163660D01*
X322489D01*
Y162060D01*
X320889D01*
X321289Y162460D02*
Y163260D01*
X322089D01*
Y162460D01*
X321289D01*
X320889Y132060D02*
Y133660D01*
X322489D01*
Y132060D01*
X320889D01*
X321289Y132460D02*
Y133260D01*
X322089D01*
Y132460D01*
X321289D01*
X328389Y87060D02*
Y88660D01*
X329989D01*
Y87060D01*
X328389D01*
X328789Y87460D02*
Y88260D01*
X329589D01*
Y87460D01*
X328789D01*
X320889Y72060D02*
Y73660D01*
X322489D01*
Y72060D01*
X320889D01*
X321289Y72460D02*
Y73260D01*
X322089D01*
Y72460D01*
X321289D01*
X328389Y27060D02*
Y28660D01*
X329989D01*
Y27060D01*
X328389D01*
X328789Y27460D02*
Y28260D01*
X329589D01*
Y27460D01*
X328789D01*
X313389Y357060D02*
Y358660D01*
X314989D01*
Y357060D01*
X313389D01*
X313789Y357460D02*
Y358260D01*
X314589D01*
Y357460D01*
X313789D01*
X305889Y342060D02*
Y343660D01*
X307489D01*
Y342060D01*
X305889D01*
X306289Y342460D02*
Y343260D01*
X307089D01*
Y342460D01*
X306289D01*
X298389Y537060D02*
Y538660D01*
X299989D01*
Y537060D01*
X298389D01*
X298789Y537460D02*
Y538260D01*
X299589D01*
Y537460D01*
X298789D01*
X290889Y522060D02*
Y523660D01*
X292489D01*
Y522060D01*
X290889D01*
X291289Y522460D02*
Y523260D01*
X292089D01*
Y522460D01*
X291289D01*
X298389Y357060D02*
Y358660D01*
X299989D01*
Y357060D01*
X298389D01*
X298789Y357460D02*
Y358260D01*
X299589D01*
Y357460D01*
X298789D01*
X290889Y72060D02*
Y73660D01*
X292489D01*
Y72060D01*
X290889D01*
X291289Y72460D02*
Y73260D01*
X292089D01*
Y72460D01*
X291289D01*
X298389Y27060D02*
Y28660D01*
X299989D01*
Y27060D01*
X298389D01*
X298789Y27460D02*
Y28260D01*
X299589D01*
Y27460D01*
X298789D01*
X275889Y402060D02*
Y403660D01*
X277489D01*
Y402060D01*
X275889D01*
X276289Y402460D02*
Y403260D01*
X277089D01*
Y402460D01*
X276289D01*
X283389Y387060D02*
Y388660D01*
X284989D01*
Y387060D01*
X283389D01*
X283789Y387460D02*
Y388260D01*
X284589D01*
Y387460D01*
X283789D01*
X283389Y357060D02*
Y358660D01*
X284989D01*
Y357060D01*
X283389D01*
X283789Y357460D02*
Y358260D01*
X284589D01*
Y357460D01*
X283789D01*
X283389Y327060D02*
Y328660D01*
X284989D01*
Y327060D01*
X283389D01*
X283789Y327460D02*
Y328260D01*
X284589D01*
Y327460D01*
X283789D01*
X275889Y222060D02*
Y223660D01*
X277489D01*
Y222060D01*
X275889D01*
X276289Y222460D02*
Y223260D01*
X277089D01*
Y222460D01*
X276289D01*
X275889Y162060D02*
Y163660D01*
X277489D01*
Y162060D01*
X275889D01*
X276289Y162460D02*
Y163260D01*
X277089D01*
Y162460D01*
X276289D01*
X275889Y102060D02*
Y103660D01*
X277489D01*
Y102060D01*
X275889D01*
X276289Y102460D02*
Y103260D01*
X277089D01*
Y102460D01*
X276289D01*
X275889Y72060D02*
Y73660D01*
X277489D01*
Y72060D01*
X275889D01*
X276289Y72460D02*
Y73260D01*
X277089D01*
Y72460D01*
X276289D01*
X283389Y27060D02*
Y28660D01*
X284989D01*
Y27060D01*
X283389D01*
X283789Y27460D02*
Y28260D01*
X284589D01*
Y27460D01*
X283789D01*
X268389Y537060D02*
Y538660D01*
X269989D01*
Y537060D01*
X268389D01*
X268789Y537460D02*
Y538260D01*
X269589D01*
Y537460D01*
X268789D01*
X260889Y402060D02*
Y403660D01*
X262489D01*
Y402060D01*
X260889D01*
X261289Y402460D02*
Y403260D01*
X262089D01*
Y402460D01*
X261289D01*
X268389Y387060D02*
Y388660D01*
X269989D01*
Y387060D01*
X268389D01*
X268789Y387460D02*
Y388260D01*
X269589D01*
Y387460D01*
X268789D01*
X260889Y312060D02*
Y313660D01*
X262489D01*
Y312060D01*
X260889D01*
X261289Y312460D02*
Y313260D01*
X262089D01*
Y312460D01*
X261289D01*
X260889Y282060D02*
Y283660D01*
X262489D01*
Y282060D01*
X260889D01*
X261289Y282460D02*
Y283260D01*
X262089D01*
Y282460D01*
X261289D01*
X260889Y192060D02*
Y193660D01*
X262489D01*
Y192060D01*
X260889D01*
X261289Y192460D02*
Y193260D01*
X262089D01*
Y192460D01*
X261289D01*
X268389Y177060D02*
Y178660D01*
X269989D01*
Y177060D01*
X268389D01*
X268789Y177460D02*
Y178260D01*
X269589D01*
Y177460D01*
X268789D01*
X260889Y162060D02*
Y163660D01*
X262489D01*
Y162060D01*
X260889D01*
X261289Y162460D02*
Y163260D01*
X262089D01*
Y162460D01*
X261289D01*
X260889Y132060D02*
Y133660D01*
X262489D01*
Y132060D01*
X260889D01*
X261289Y132460D02*
Y133260D01*
X262089D01*
Y132460D01*
X261289D01*
X260889Y102060D02*
Y103660D01*
X262489D01*
Y102060D01*
X260889D01*
X261289Y102460D02*
Y103260D01*
X262089D01*
Y102460D01*
X261289D01*
X260889Y72060D02*
Y73660D01*
X262489D01*
Y72060D01*
X260889D01*
X261289Y72460D02*
Y73260D01*
X262089D01*
Y72460D01*
X261289D01*
X268389Y27060D02*
Y28660D01*
X269989D01*
Y27060D01*
X268389D01*
X268789Y27460D02*
Y28260D01*
X269589D01*
Y27460D01*
X268789D01*
X245889Y522060D02*
Y523660D01*
X247489D01*
Y522060D01*
X245889D01*
X246289Y522460D02*
Y523260D01*
X247089D01*
Y522460D01*
X246289D01*
X245889Y402060D02*
Y403660D01*
X247489D01*
Y402060D01*
X245889D01*
X246289Y402460D02*
Y403260D01*
X247089D01*
Y402460D01*
X246289D01*
X253389Y357060D02*
Y358660D01*
X254989D01*
Y357060D01*
X253389D01*
X253789Y357460D02*
Y358260D01*
X254589D01*
Y357460D01*
X253789D01*
X253389Y327060D02*
Y328660D01*
X254989D01*
Y327060D01*
X253389D01*
X253789Y327460D02*
Y328260D01*
X254589D01*
Y327460D01*
X253789D01*
X245889Y312060D02*
Y313660D01*
X247489D01*
Y312060D01*
X245889D01*
X246289Y312460D02*
Y313260D01*
X247089D01*
Y312460D01*
X246289D01*
X253389Y297060D02*
Y298660D01*
X254989D01*
Y297060D01*
X253389D01*
X253789Y297460D02*
Y298260D01*
X254589D01*
Y297460D01*
X253789D01*
X245889Y282060D02*
Y283660D01*
X247489D01*
Y282060D01*
X245889D01*
X246289Y282460D02*
Y283260D01*
X247089D01*
Y282460D01*
X246289D01*
X253389Y207060D02*
Y208660D01*
X254989D01*
Y207060D01*
X253389D01*
X253789Y207460D02*
Y208260D01*
X254589D01*
Y207460D01*
X253789D01*
X253389Y177060D02*
Y178660D01*
X254989D01*
Y177060D01*
X253389D01*
X253789Y177460D02*
Y178260D01*
X254589D01*
Y177460D01*
X253789D01*
X253389Y117060D02*
Y118660D01*
X254989D01*
Y117060D01*
X253389D01*
X253789Y117460D02*
Y118260D01*
X254589D01*
Y117460D01*
X253789D01*
X238389Y357060D02*
Y358660D01*
X239989D01*
Y357060D01*
X238389D01*
X238789Y357460D02*
Y358260D01*
X239589D01*
Y357460D01*
X238789D01*
X238389Y177060D02*
Y178660D01*
X239989D01*
Y177060D01*
X238389D01*
X238789Y177460D02*
Y178260D01*
X239589D01*
Y177460D01*
X238789D01*
X230889Y162060D02*
Y163660D01*
X232489D01*
Y162060D01*
X230889D01*
X231289Y162460D02*
Y163260D01*
X232089D01*
Y162460D01*
X231289D01*
X230889Y12060D02*
Y13660D01*
X232489D01*
Y12060D01*
X230889D01*
X231289Y12460D02*
Y13260D01*
X232089D01*
Y12460D01*
X231289D01*
X223389Y537060D02*
Y538660D01*
X224989D01*
Y537060D01*
X223389D01*
X223789Y537460D02*
Y538260D01*
X224589D01*
Y537460D01*
X223789D01*
X223389Y387060D02*
Y388660D01*
X224989D01*
Y387060D01*
X223389D01*
X223789Y387460D02*
Y388260D01*
X224589D01*
Y387460D01*
X223789D01*
X223389Y357060D02*
Y358660D01*
X224989D01*
Y357060D01*
X223389D01*
X223789Y357460D02*
Y358260D01*
X224589D01*
Y357460D01*
X223789D01*
X215889Y312060D02*
Y313660D01*
X217489D01*
Y312060D01*
X215889D01*
X216289Y312460D02*
Y313260D01*
X217089D01*
Y312460D01*
X216289D01*
X223389Y177060D02*
Y178660D01*
X224989D01*
Y177060D01*
X223389D01*
X223789Y177460D02*
Y178260D01*
X224589D01*
Y177460D01*
X223789D01*
X215889Y132060D02*
Y133660D01*
X217489D01*
Y132060D01*
X215889D01*
X216289Y132460D02*
Y133260D01*
X217089D01*
Y132460D01*
X216289D01*
X215889Y102060D02*
Y103660D01*
X217489D01*
Y102060D01*
X215889D01*
X216289Y102460D02*
Y103260D01*
X217089D01*
Y102460D01*
X216289D01*
X223389Y27060D02*
Y28660D01*
X224989D01*
Y27060D01*
X223389D01*
X223789Y27460D02*
Y28260D01*
X224589D01*
Y27460D01*
X223789D01*
X208389Y537060D02*
Y538660D01*
X209989D01*
Y537060D01*
X208389D01*
X208789Y537460D02*
Y538260D01*
X209589D01*
Y537460D01*
X208789D01*
X200889Y522060D02*
Y523660D01*
X202489D01*
Y522060D01*
X200889D01*
X201289Y522460D02*
Y523260D01*
X202089D01*
Y522460D01*
X201289D01*
X200889Y492060D02*
Y493660D01*
X202489D01*
Y492060D01*
X200889D01*
X201289Y492460D02*
Y493260D01*
X202089D01*
Y492460D01*
X201289D01*
X200889Y462060D02*
Y463660D01*
X202489D01*
Y462060D01*
X200889D01*
X201289Y462460D02*
Y463260D01*
X202089D01*
Y462460D01*
X201289D01*
X208389Y207060D02*
Y208660D01*
X209989D01*
Y207060D01*
X208389D01*
X208789Y207460D02*
Y208260D01*
X209589D01*
Y207460D01*
X208789D01*
X208389Y177060D02*
Y178660D01*
X209989D01*
Y177060D01*
X208389D01*
X208789Y177460D02*
Y178260D01*
X209589D01*
Y177460D01*
X208789D01*
X208389Y147060D02*
Y148660D01*
X209989D01*
Y147060D01*
X208389D01*
X208789Y147460D02*
Y148260D01*
X209589D01*
Y147460D01*
X208789D01*
X208389Y57060D02*
Y58660D01*
X209989D01*
Y57060D01*
X208389D01*
X208789Y57460D02*
Y58260D01*
X209589D01*
Y57460D01*
X208789D01*
X208389Y27060D02*
Y28660D01*
X209989D01*
Y27060D01*
X208389D01*
X208789Y27460D02*
Y28260D01*
X209589D01*
Y27460D01*
X208789D01*
X193389Y537060D02*
Y538660D01*
X194989D01*
Y537060D01*
X193389D01*
X193789Y537460D02*
Y538260D01*
X194589D01*
Y537460D01*
X193789D01*
X193389Y507060D02*
Y508660D01*
X194989D01*
Y507060D01*
X193389D01*
X193789Y507460D02*
Y508260D01*
X194589D01*
Y507460D01*
X193789D01*
X193389Y477060D02*
Y478660D01*
X194989D01*
Y477060D01*
X193389D01*
X193789Y477460D02*
Y478260D01*
X194589D01*
Y477460D01*
X193789D01*
X185889Y402060D02*
Y403660D01*
X187489D01*
Y402060D01*
X185889D01*
X186289Y402460D02*
Y403260D01*
X187089D01*
Y402460D01*
X186289D01*
X193389Y177060D02*
Y178660D01*
X194989D01*
Y177060D01*
X193389D01*
X193789Y177460D02*
Y178260D01*
X194589D01*
Y177460D01*
X193789D01*
X185889Y162060D02*
Y163660D01*
X187489D01*
Y162060D01*
X185889D01*
X186289Y162460D02*
Y163260D01*
X187089D01*
Y162460D01*
X186289D01*
X185889Y72060D02*
Y73660D01*
X187489D01*
Y72060D01*
X185889D01*
X186289Y72460D02*
Y73260D01*
X187089D01*
Y72460D01*
X186289D01*
X178389Y537060D02*
Y538660D01*
X179989D01*
Y537060D01*
X178389D01*
X178789Y537460D02*
Y538260D01*
X179589D01*
Y537460D01*
X178789D01*
X170889Y312060D02*
Y313660D01*
X172489D01*
Y312060D01*
X170889D01*
X171289Y312460D02*
Y313260D01*
X172089D01*
Y312460D01*
X171289D01*
X178389Y207060D02*
Y208660D01*
X179989D01*
Y207060D01*
X178389D01*
X178789Y207460D02*
Y208260D01*
X179589D01*
Y207460D01*
X178789D01*
X178389Y177060D02*
Y178660D01*
X179989D01*
Y177060D01*
X178389D01*
X178789Y177460D02*
Y178260D01*
X179589D01*
Y177460D01*
X178789D01*
X170889Y102060D02*
Y103660D01*
X172489D01*
Y102060D01*
X170889D01*
X171289Y102460D02*
Y103260D01*
X172089D01*
Y102460D01*
X171289D01*
X170889Y72060D02*
Y73660D01*
X172489D01*
Y72060D01*
X170889D01*
X171289Y72460D02*
Y73260D01*
X172089D01*
Y72460D01*
X171289D01*
X155889Y432060D02*
Y433660D01*
X157489D01*
Y432060D01*
X155889D01*
X156289Y432460D02*
Y433260D01*
X157089D01*
Y432460D01*
X156289D01*
X163389Y387060D02*
Y388660D01*
X164989D01*
Y387060D01*
X163389D01*
X163789Y387460D02*
Y388260D01*
X164589D01*
Y387460D01*
X163789D01*
X155889Y372060D02*
Y373660D01*
X157489D01*
Y372060D01*
X155889D01*
X156289Y372460D02*
Y373260D01*
X157089D01*
Y372460D01*
X156289D01*
X163389Y357060D02*
Y358660D01*
X164989D01*
Y357060D01*
X163389D01*
X163789Y357460D02*
Y358260D01*
X164589D01*
Y357460D01*
X163789D01*
X155889Y342060D02*
Y343660D01*
X157489D01*
Y342060D01*
X155889D01*
X156289Y342460D02*
Y343260D01*
X157089D01*
Y342460D01*
X156289D01*
X163389Y207060D02*
Y208660D01*
X164989D01*
Y207060D01*
X163389D01*
X163789Y207460D02*
Y208260D01*
X164589D01*
Y207460D01*
X163789D01*
X155889Y132060D02*
Y133660D01*
X157489D01*
Y132060D01*
X155889D01*
X156289Y132460D02*
Y133260D01*
X157089D01*
Y132460D01*
X156289D01*
X155889Y72060D02*
Y73660D01*
X157489D01*
Y72060D01*
X155889D01*
X156289Y72460D02*
Y73260D01*
X157089D01*
Y72460D01*
X156289D01*
X148389Y507060D02*
Y508660D01*
X149989D01*
Y507060D01*
X148389D01*
X148789Y507460D02*
Y508260D01*
X149589D01*
Y507460D01*
X148789D01*
X140889Y492060D02*
Y493660D01*
X142489D01*
Y492060D01*
X140889D01*
X141289Y492460D02*
Y493260D01*
X142089D01*
Y492460D01*
X141289D01*
X140889Y342060D02*
Y343660D01*
X142489D01*
Y342060D01*
X140889D01*
X141289Y342460D02*
Y343260D01*
X142089D01*
Y342460D01*
X141289D01*
X148389Y327060D02*
Y328660D01*
X149989D01*
Y327060D01*
X148389D01*
X148789Y327460D02*
Y328260D01*
X149589D01*
Y327460D01*
X148789D01*
X140889Y252060D02*
Y253660D01*
X142489D01*
Y252060D01*
X140889D01*
X141289Y252460D02*
Y253260D01*
X142089D01*
Y252460D01*
X141289D01*
X148389Y177060D02*
Y178660D01*
X149989D01*
Y177060D01*
X148389D01*
X148789Y177460D02*
Y178260D01*
X149589D01*
Y177460D01*
X148789D01*
X140889Y132060D02*
Y133660D01*
X142489D01*
Y132060D01*
X140889D01*
X141289Y132460D02*
Y133260D01*
X142089D01*
Y132460D01*
X141289D01*
X148389Y87060D02*
Y88660D01*
X149989D01*
Y87060D01*
X148389D01*
X148789Y87460D02*
Y88260D01*
X149589D01*
Y87460D01*
X148789D01*
X133389Y417060D02*
Y418660D01*
X134989D01*
Y417060D01*
X133389D01*
X133789Y417460D02*
Y418260D01*
X134589D01*
Y417460D01*
X133789D01*
X133389Y387060D02*
Y388660D01*
X134989D01*
Y387060D01*
X133389D01*
X133789Y387460D02*
Y388260D01*
X134589D01*
Y387460D01*
X133789D01*
X133389Y357060D02*
Y358660D01*
X134989D01*
Y357060D01*
X133389D01*
X133789Y357460D02*
Y358260D01*
X134589D01*
Y357460D01*
X133789D01*
X133389Y297060D02*
Y298660D01*
X134989D01*
Y297060D01*
X133389D01*
X133789Y297460D02*
Y298260D01*
X134589D01*
Y297460D01*
X133789D01*
X133389Y207060D02*
Y208660D01*
X134989D01*
Y207060D01*
X133389D01*
X133789Y207460D02*
Y208260D01*
X134589D01*
Y207460D01*
X133789D01*
X133389Y177060D02*
Y178660D01*
X134989D01*
Y177060D01*
X133389D01*
X133789Y177460D02*
Y178260D01*
X134589D01*
Y177460D01*
X133789D01*
X125889Y132060D02*
Y133660D01*
X127489D01*
Y132060D01*
X125889D01*
X126289Y132460D02*
Y133260D01*
X127089D01*
Y132460D01*
X126289D01*
X133389Y117060D02*
Y118660D01*
X134989D01*
Y117060D01*
X133389D01*
X133789Y117460D02*
Y118260D01*
X134589D01*
Y117460D01*
X133789D01*
X110889Y312060D02*
Y313660D01*
X112489D01*
Y312060D01*
X110889D01*
X111289Y312460D02*
Y313260D01*
X112089D01*
Y312460D01*
X111289D01*
X110889Y162060D02*
Y163660D01*
X112489D01*
Y162060D01*
X110889D01*
X111289Y162460D02*
Y163260D01*
X112089D01*
Y162460D01*
X111289D01*
X110889Y102060D02*
Y103660D01*
X112489D01*
Y102060D01*
X110889D01*
X111289Y102460D02*
Y103260D01*
X112089D01*
Y102460D01*
X111289D01*
X95889Y462060D02*
Y463660D01*
X97489D01*
Y462060D01*
X95889D01*
X96289Y462460D02*
Y463260D01*
X97089D01*
Y462460D01*
X96289D01*
X95889Y432060D02*
Y433660D01*
X97489D01*
Y432060D01*
X95889D01*
X96289Y432460D02*
Y433260D01*
X97089D01*
Y432460D01*
X96289D01*
X103389Y417060D02*
Y418660D01*
X104989D01*
Y417060D01*
X103389D01*
X103789Y417460D02*
Y418260D01*
X104589D01*
Y417460D01*
X103789D01*
X103389Y387060D02*
Y388660D01*
X104989D01*
Y387060D01*
X103389D01*
X103789Y387460D02*
Y388260D01*
X104589D01*
Y387460D01*
X103789D01*
X103389Y357060D02*
Y358660D01*
X104989D01*
Y357060D01*
X103389D01*
X103789Y357460D02*
Y358260D01*
X104589D01*
Y357460D01*
X103789D01*
X95889Y342060D02*
Y343660D01*
X97489D01*
Y342060D01*
X95889D01*
X96289Y342460D02*
Y343260D01*
X97089D01*
Y342460D01*
X96289D01*
X103389Y297060D02*
Y298660D01*
X104989D01*
Y297060D01*
X103389D01*
X103789Y297460D02*
Y298260D01*
X104589D01*
Y297460D01*
X103789D01*
X95889Y162060D02*
Y163660D01*
X97489D01*
Y162060D01*
X95889D01*
X96289Y162460D02*
Y163260D01*
X97089D01*
Y162460D01*
X96289D01*
X103389Y147060D02*
Y148660D01*
X104989D01*
Y147060D01*
X103389D01*
X103789Y147460D02*
Y148260D01*
X104589D01*
Y147460D01*
X103789D01*
X95889Y132060D02*
Y133660D01*
X97489D01*
Y132060D01*
X95889D01*
X96289Y132460D02*
Y133260D01*
X97089D01*
Y132460D01*
X96289D01*
X95889Y102060D02*
Y103660D01*
X97489D01*
Y102060D01*
X95889D01*
X96289Y102460D02*
Y103260D01*
X97089D01*
Y102460D01*
X96289D01*
X103389Y87060D02*
Y88660D01*
X104989D01*
Y87060D01*
X103389D01*
X103789Y87460D02*
Y88260D01*
X104589D01*
Y87460D01*
X103789D01*
X95889Y42060D02*
Y43660D01*
X97489D01*
Y42060D01*
X95889D01*
X96289Y42460D02*
Y43260D01*
X97089D01*
Y42460D01*
X96289D01*
X95889Y12060D02*
Y13660D01*
X97489D01*
Y12060D01*
X95889D01*
X96289Y12460D02*
Y13260D01*
X97089D01*
Y12460D01*
X96289D01*
X88389Y417060D02*
Y418660D01*
X89989D01*
Y417060D01*
X88389D01*
X88789Y417460D02*
Y418260D01*
X89589D01*
Y417460D01*
X88789D01*
X80889Y402060D02*
Y403660D01*
X82489D01*
Y402060D01*
X80889D01*
X81289Y402460D02*
Y403260D01*
X82089D01*
Y402460D01*
X81289D01*
X88389Y387060D02*
Y388660D01*
X89989D01*
Y387060D01*
X88389D01*
X88789Y387460D02*
Y388260D01*
X89589D01*
Y387460D01*
X88789D01*
X88389Y357060D02*
Y358660D01*
X89989D01*
Y357060D01*
X88389D01*
X88789Y357460D02*
Y358260D01*
X89589D01*
Y357460D01*
X88789D01*
X80889Y342060D02*
Y343660D01*
X82489D01*
Y342060D01*
X80889D01*
X81289Y342460D02*
Y343260D01*
X82089D01*
Y342460D01*
X81289D01*
X88389Y297060D02*
Y298660D01*
X89989D01*
Y297060D01*
X88389D01*
X88789Y297460D02*
Y298260D01*
X89589D01*
Y297460D01*
X88789D01*
X80889Y252060D02*
Y253660D01*
X82489D01*
Y252060D01*
X80889D01*
X81289Y252460D02*
Y253260D01*
X82089D01*
Y252460D01*
X81289D01*
X88389Y237060D02*
Y238660D01*
X89989D01*
Y237060D01*
X88389D01*
X88789Y237460D02*
Y238260D01*
X89589D01*
Y237460D01*
X88789D01*
X80889Y192060D02*
Y193660D01*
X82489D01*
Y192060D01*
X80889D01*
X81289Y192460D02*
Y193260D01*
X82089D01*
Y192460D01*
X81289D01*
X88389Y177060D02*
Y178660D01*
X89989D01*
Y177060D01*
X88389D01*
X88789Y177460D02*
Y178260D01*
X89589D01*
Y177460D01*
X88789D01*
X80889Y162060D02*
Y163660D01*
X82489D01*
Y162060D01*
X80889D01*
X81289Y162460D02*
Y163260D01*
X82089D01*
Y162460D01*
X81289D01*
X88389Y147060D02*
Y148660D01*
X89989D01*
Y147060D01*
X88389D01*
X88789Y147460D02*
Y148260D01*
X89589D01*
Y147460D01*
X88789D01*
X80889Y132060D02*
Y133660D01*
X82489D01*
Y132060D01*
X80889D01*
X81289Y132460D02*
Y133260D01*
X82089D01*
Y132460D01*
X81289D01*
X80889Y102060D02*
Y103660D01*
X82489D01*
Y102060D01*
X80889D01*
X81289Y102460D02*
Y103260D01*
X82089D01*
Y102460D01*
X81289D01*
X88389Y87060D02*
Y88660D01*
X89989D01*
Y87060D01*
X88389D01*
X88789Y87460D02*
Y88260D01*
X89589D01*
Y87460D01*
X88789D01*
X80889Y72060D02*
Y73660D01*
X82489D01*
Y72060D01*
X80889D01*
X81289Y72460D02*
Y73260D01*
X82089D01*
Y72460D01*
X81289D01*
X80889Y42060D02*
Y43660D01*
X82489D01*
Y42060D01*
X80889D01*
X81289Y42460D02*
Y43260D01*
X82089D01*
Y42460D01*
X81289D01*
X73389Y477060D02*
Y478660D01*
X74989D01*
Y477060D01*
X73389D01*
X73789Y477460D02*
Y478260D01*
X74589D01*
Y477460D01*
X73789D01*
X65889Y462060D02*
Y463660D01*
X67489D01*
Y462060D01*
X65889D01*
X66289Y462460D02*
Y463260D01*
X67089D01*
Y462460D01*
X66289D01*
X73389Y417060D02*
Y418660D01*
X74989D01*
Y417060D01*
X73389D01*
X73789Y417460D02*
Y418260D01*
X74589D01*
Y417460D01*
X73789D01*
X65889Y402060D02*
Y403660D01*
X67489D01*
Y402060D01*
X65889D01*
X66289Y402460D02*
Y403260D01*
X67089D01*
Y402460D01*
X66289D01*
X73389Y387060D02*
Y388660D01*
X74989D01*
Y387060D01*
X73389D01*
X73789Y387460D02*
Y388260D01*
X74589D01*
Y387460D01*
X73789D01*
X73389Y357060D02*
Y358660D01*
X74989D01*
Y357060D01*
X73389D01*
X73789Y357460D02*
Y358260D01*
X74589D01*
Y357460D01*
X73789D01*
X65889Y342060D02*
Y343660D01*
X67489D01*
Y342060D01*
X65889D01*
X66289Y342460D02*
Y343260D01*
X67089D01*
Y342460D01*
X66289D01*
X73389Y327060D02*
Y328660D01*
X74989D01*
Y327060D01*
X73389D01*
X73789Y327460D02*
Y328260D01*
X74589D01*
Y327460D01*
X73789D01*
X65889Y252060D02*
Y253660D01*
X67489D01*
Y252060D01*
X65889D01*
X66289Y252460D02*
Y253260D01*
X67089D01*
Y252460D01*
X66289D01*
X65889Y222060D02*
Y223660D01*
X67489D01*
Y222060D01*
X65889D01*
X66289Y222460D02*
Y223260D01*
X67089D01*
Y222460D01*
X66289D01*
X73389Y207060D02*
Y208660D01*
X74989D01*
Y207060D01*
X73389D01*
X73789Y207460D02*
Y208260D01*
X74589D01*
Y207460D01*
X73789D01*
X65889Y192060D02*
Y193660D01*
X67489D01*
Y192060D01*
X65889D01*
X66289Y192460D02*
Y193260D01*
X67089D01*
Y192460D01*
X66289D01*
X73389Y177060D02*
Y178660D01*
X74989D01*
Y177060D01*
X73389D01*
X73789Y177460D02*
Y178260D01*
X74589D01*
Y177460D01*
X73789D01*
X65889Y162060D02*
Y163660D01*
X67489D01*
Y162060D01*
X65889D01*
X66289Y162460D02*
Y163260D01*
X67089D01*
Y162460D01*
X66289D01*
X73389Y147060D02*
Y148660D01*
X74989D01*
Y147060D01*
X73389D01*
X73789Y147460D02*
Y148260D01*
X74589D01*
Y147460D01*
X73789D01*
X65889Y132060D02*
Y133660D01*
X67489D01*
Y132060D01*
X65889D01*
X66289Y132460D02*
Y133260D01*
X67089D01*
Y132460D01*
X66289D01*
X65889Y102060D02*
Y103660D01*
X67489D01*
Y102060D01*
X65889D01*
X66289Y102460D02*
Y103260D01*
X67089D01*
Y102460D01*
X66289D01*
X73389Y57060D02*
Y58660D01*
X74989D01*
Y57060D01*
X73389D01*
X73789Y57460D02*
Y58260D01*
X74589D01*
Y57460D01*
X73789D01*
X73389Y27060D02*
Y28660D01*
X74989D01*
Y27060D01*
X73389D01*
X73789Y27460D02*
Y28260D01*
X74589D01*
Y27460D01*
X73789D01*
X65889Y12060D02*
Y13660D01*
X67489D01*
Y12060D01*
X65889D01*
X66289Y12460D02*
Y13260D01*
X67089D01*
Y12460D01*
X66289D01*
X50889Y522060D02*
Y523660D01*
X52489D01*
Y522060D01*
X50889D01*
X51289Y522460D02*
Y523260D01*
X52089D01*
Y522460D01*
X51289D01*
X50889Y492060D02*
Y493660D01*
X52489D01*
Y492060D01*
X50889D01*
X51289Y492460D02*
Y493260D01*
X52089D01*
Y492460D01*
X51289D01*
X50889Y462060D02*
Y463660D01*
X52489D01*
Y462060D01*
X50889D01*
X51289Y462460D02*
Y463260D01*
X52089D01*
Y462460D01*
X51289D01*
X58389Y417060D02*
Y418660D01*
X59989D01*
Y417060D01*
X58389D01*
X58789Y417460D02*
Y418260D01*
X59589D01*
Y417460D01*
X58789D01*
X50889Y402060D02*
Y403660D01*
X52489D01*
Y402060D01*
X50889D01*
X51289Y402460D02*
Y403260D01*
X52089D01*
Y402460D01*
X51289D01*
X58389Y387060D02*
Y388660D01*
X59989D01*
Y387060D01*
X58389D01*
X58789Y387460D02*
Y388260D01*
X59589D01*
Y387460D01*
X58789D01*
X58389Y357060D02*
Y358660D01*
X59989D01*
Y357060D01*
X58389D01*
X58789Y357460D02*
Y358260D01*
X59589D01*
Y357460D01*
X58789D01*
X50889Y342060D02*
Y343660D01*
X52489D01*
Y342060D01*
X50889D01*
X51289Y342460D02*
Y343260D01*
X52089D01*
Y342460D01*
X51289D01*
X50889Y222060D02*
Y223660D01*
X52489D01*
Y222060D01*
X50889D01*
X51289Y222460D02*
Y223260D01*
X52089D01*
Y222460D01*
X51289D01*
X58389Y207060D02*
Y208660D01*
X59989D01*
Y207060D01*
X58389D01*
X58789Y207460D02*
Y208260D01*
X59589D01*
Y207460D01*
X58789D01*
X50889Y192060D02*
Y193660D01*
X52489D01*
Y192060D01*
X50889D01*
X51289Y192460D02*
Y193260D01*
X52089D01*
Y192460D01*
X51289D01*
X58389Y177060D02*
Y178660D01*
X59989D01*
Y177060D01*
X58389D01*
X58789Y177460D02*
Y178260D01*
X59589D01*
Y177460D01*
X58789D01*
X50889Y162060D02*
Y163660D01*
X52489D01*
Y162060D01*
X50889D01*
X51289Y162460D02*
Y163260D01*
X52089D01*
Y162460D01*
X51289D01*
X58389Y147060D02*
Y148660D01*
X59989D01*
Y147060D01*
X58389D01*
X58789Y147460D02*
Y148260D01*
X59589D01*
Y147460D01*
X58789D01*
X50889Y132060D02*
Y133660D01*
X52489D01*
Y132060D01*
X50889D01*
X51289Y132460D02*
Y133260D01*
X52089D01*
Y132460D01*
X51289D01*
X58389Y117060D02*
Y118660D01*
X59989D01*
Y117060D01*
X58389D01*
X58789Y117460D02*
Y118260D01*
X59589D01*
Y117460D01*
X58789D01*
X58389Y57060D02*
Y58660D01*
X59989D01*
Y57060D01*
X58389D01*
X58789Y57460D02*
Y58260D01*
X59589D01*
Y57460D01*
X58789D01*
X43389Y537060D02*
Y538660D01*
X44989D01*
Y537060D01*
X43389D01*
X43789Y537460D02*
Y538260D01*
X44589D01*
Y537460D01*
X43789D01*
X35889Y522060D02*
Y523660D01*
X37489D01*
Y522060D01*
X35889D01*
X36289Y522460D02*
Y523260D01*
X37089D01*
Y522460D01*
X36289D01*
X43389Y507060D02*
Y508660D01*
X44989D01*
Y507060D01*
X43389D01*
X43789Y507460D02*
Y508260D01*
X44589D01*
Y507460D01*
X43789D01*
X35889Y492060D02*
Y493660D01*
X37489D01*
Y492060D01*
X35889D01*
X36289Y492460D02*
Y493260D01*
X37089D01*
Y492460D01*
X36289D01*
X35889Y462060D02*
Y463660D01*
X37489D01*
Y462060D01*
X35889D01*
X36289Y462460D02*
Y463260D01*
X37089D01*
Y462460D01*
X36289D01*
X43389Y447060D02*
Y448660D01*
X44989D01*
Y447060D01*
X43389D01*
X43789Y447460D02*
Y448260D01*
X44589D01*
Y447460D01*
X43789D01*
X43389Y417060D02*
Y418660D01*
X44989D01*
Y417060D01*
X43389D01*
X43789Y417460D02*
Y418260D01*
X44589D01*
Y417460D01*
X43789D01*
X43389Y387060D02*
Y388660D01*
X44989D01*
Y387060D01*
X43389D01*
X43789Y387460D02*
Y388260D01*
X44589D01*
Y387460D01*
X43789D01*
X43389Y357060D02*
Y358660D01*
X44989D01*
Y357060D01*
X43389D01*
X43789Y357460D02*
Y358260D01*
X44589D01*
Y357460D01*
X43789D01*
X43389Y237060D02*
Y238660D01*
X44989D01*
Y237060D01*
X43389D01*
X43789Y237460D02*
Y238260D01*
X44589D01*
Y237460D01*
X43789D01*
X43389Y207060D02*
Y208660D01*
X44989D01*
Y207060D01*
X43389D01*
X43789Y207460D02*
Y208260D01*
X44589D01*
Y207460D01*
X43789D01*
X43389Y177060D02*
Y178660D01*
X44989D01*
Y177060D01*
X43389D01*
X43789Y177460D02*
Y178260D01*
X44589D01*
Y177460D01*
X43789D01*
X43389Y147060D02*
Y148660D01*
X44989D01*
Y147060D01*
X43389D01*
X43789Y147460D02*
Y148260D01*
X44589D01*
Y147460D01*
X43789D01*
X43389Y117060D02*
Y118660D01*
X44989D01*
Y117060D01*
X43389D01*
X43789Y117460D02*
Y118260D01*
X44589D01*
Y117460D01*
X43789D01*
X35889Y42060D02*
Y43660D01*
X37489D01*
Y42060D01*
X35889D01*
X36289Y42460D02*
Y43260D01*
X37089D01*
Y42460D01*
X36289D01*
X28389Y537060D02*
Y538660D01*
X29989D01*
Y537060D01*
X28389D01*
X28789Y537460D02*
Y538260D01*
X29589D01*
Y537460D01*
X28789D01*
X20889Y522060D02*
Y523660D01*
X22489D01*
Y522060D01*
X20889D01*
X21289Y522460D02*
Y523260D01*
X22089D01*
Y522460D01*
X21289D01*
X28389Y507060D02*
Y508660D01*
X29989D01*
Y507060D01*
X28389D01*
X28789Y507460D02*
Y508260D01*
X29589D01*
Y507460D01*
X28789D01*
X20889Y492060D02*
Y493660D01*
X22489D01*
Y492060D01*
X20889D01*
X21289Y492460D02*
Y493260D01*
X22089D01*
Y492460D01*
X21289D01*
X20889Y462060D02*
Y463660D01*
X22489D01*
Y462060D01*
X20889D01*
X21289Y462460D02*
Y463260D01*
X22089D01*
Y462460D01*
X21289D01*
X28389Y447060D02*
Y448660D01*
X29989D01*
Y447060D01*
X28389D01*
X28789Y447460D02*
Y448260D01*
X29589D01*
Y447460D01*
X28789D01*
X28389Y267060D02*
Y268660D01*
X29989D01*
Y267060D01*
X28389D01*
X28789Y267460D02*
Y268260D01*
X29589D01*
Y267460D01*
X28789D01*
X20889Y252060D02*
Y253660D01*
X22489D01*
Y252060D01*
X20889D01*
X21289Y252460D02*
Y253260D01*
X22089D01*
Y252460D01*
X21289D01*
X28389Y237060D02*
Y238660D01*
X29989D01*
Y237060D01*
X28389D01*
X28789Y237460D02*
Y238260D01*
X29589D01*
Y237460D01*
X28789D01*
X20889Y222060D02*
Y223660D01*
X22489D01*
Y222060D01*
X20889D01*
X21289Y222460D02*
Y223260D01*
X22089D01*
Y222460D01*
X21289D01*
X28389Y207060D02*
Y208660D01*
X29989D01*
Y207060D01*
X28389D01*
X28789Y207460D02*
Y208260D01*
X29589D01*
Y207460D01*
X28789D01*
X20889Y192060D02*
Y193660D01*
X22489D01*
Y192060D01*
X20889D01*
X21289Y192460D02*
Y193260D01*
X22089D01*
Y192460D01*
X21289D01*
X28389Y177060D02*
Y178660D01*
X29989D01*
Y177060D01*
X28389D01*
X28789Y177460D02*
Y178260D01*
X29589D01*
Y177460D01*
X28789D01*
X20889Y162060D02*
Y163660D01*
X22489D01*
Y162060D01*
X20889D01*
X21289Y162460D02*
Y163260D01*
X22089D01*
Y162460D01*
X21289D01*
X28389Y147060D02*
Y148660D01*
X29989D01*
Y147060D01*
X28389D01*
X28789Y147460D02*
Y148260D01*
X29589D01*
Y147460D01*
X28789D01*
X20889Y132060D02*
Y133660D01*
X22489D01*
Y132060D01*
X20889D01*
X21289Y132460D02*
Y133260D01*
X22089D01*
Y132460D01*
X21289D01*
X20889Y102060D02*
Y103660D01*
X22489D01*
Y102060D01*
X20889D01*
X21289Y102460D02*
Y103260D01*
X22089D01*
Y102460D01*
X21289D01*
X20889Y72060D02*
Y73660D01*
X22489D01*
Y72060D01*
X20889D01*
X21289Y72460D02*
Y73260D01*
X22089D01*
Y72460D01*
X21289D01*
X28389Y57060D02*
Y58660D01*
X29989D01*
Y57060D01*
X28389D01*
X28789Y57460D02*
Y58260D01*
X29589D01*
Y57460D01*
X28789D01*
X20889Y42060D02*
Y43660D01*
X22489D01*
Y42060D01*
X20889D01*
X21289Y42460D02*
Y43260D01*
X22089D01*
Y42460D01*
X21289D01*
X28389Y27060D02*
Y28660D01*
X29989D01*
Y27060D01*
X28389D01*
X28789Y27460D02*
Y28260D01*
X29589D01*
Y27460D01*
X28789D01*
X5889Y522060D02*
Y523660D01*
X7489D01*
Y522060D01*
X5889D01*
X6289Y522460D02*
Y523260D01*
X7089D01*
Y522460D01*
X6289D01*
X13389Y507060D02*
Y508660D01*
X14989D01*
Y507060D01*
X13389D01*
X13789Y507460D02*
Y508260D01*
X14589D01*
Y507460D01*
X13789D01*
X13389Y477060D02*
Y478660D01*
X14989D01*
Y477060D01*
X13389D01*
X13789Y477460D02*
Y478260D01*
X14589D01*
Y477460D01*
X13789D01*
X13389Y447060D02*
Y448660D01*
X14989D01*
Y447060D01*
X13389D01*
X13789Y447460D02*
Y448260D01*
X14589D01*
Y447460D01*
X13789D01*
X5889Y432060D02*
Y433660D01*
X7489D01*
Y432060D01*
X5889D01*
X6289Y432460D02*
Y433260D01*
X7089D01*
Y432460D01*
X6289D01*
X13389Y417060D02*
Y418660D01*
X14989D01*
Y417060D01*
X13389D01*
X13789Y417460D02*
Y418260D01*
X14589D01*
Y417460D01*
X13789D01*
X5889Y402060D02*
Y403660D01*
X7489D01*
Y402060D01*
X5889D01*
X6289Y402460D02*
Y403260D01*
X7089D01*
Y402460D01*
X6289D01*
X13389Y387060D02*
Y388660D01*
X14989D01*
Y387060D01*
X13389D01*
X13789Y387460D02*
Y388260D01*
X14589D01*
Y387460D01*
X13789D01*
X5889Y372060D02*
Y373660D01*
X7489D01*
Y372060D01*
X5889D01*
X6289Y372460D02*
Y373260D01*
X7089D01*
Y372460D01*
X6289D01*
X13389Y357060D02*
Y358660D01*
X14989D01*
Y357060D01*
X13389D01*
X13789Y357460D02*
Y358260D01*
X14589D01*
Y357460D01*
X13789D01*
X5889Y342060D02*
Y343660D01*
X7489D01*
Y342060D01*
X5889D01*
X6289Y342460D02*
Y343260D01*
X7089D01*
Y342460D01*
X6289D01*
X13389Y327060D02*
Y328660D01*
X14989D01*
Y327060D01*
X13389D01*
X13789Y327460D02*
Y328260D01*
X14589D01*
Y327460D01*
X13789D01*
X5889Y312060D02*
Y313660D01*
X7489D01*
Y312060D01*
X5889D01*
X6289Y312460D02*
Y313260D01*
X7089D01*
Y312460D01*
X6289D01*
X13389Y297060D02*
Y298660D01*
X14989D01*
Y297060D01*
X13389D01*
X13789Y297460D02*
Y298260D01*
X14589D01*
Y297460D01*
X13789D01*
X5889Y252060D02*
Y253660D01*
X7489D01*
Y252060D01*
X5889D01*
X6289Y252460D02*
Y253260D01*
X7089D01*
Y252460D01*
X6289D01*
X13389Y237060D02*
Y238660D01*
X14989D01*
Y237060D01*
X13389D01*
X13789Y237460D02*
Y238260D01*
X14589D01*
Y237460D01*
X13789D01*
X5889Y222060D02*
Y223660D01*
X7489D01*
Y222060D01*
X5889D01*
X6289Y222460D02*
Y223260D01*
X7089D01*
Y222460D01*
X6289D01*
X13389Y207060D02*
Y208660D01*
X14989D01*
Y207060D01*
X13389D01*
X13789Y207460D02*
Y208260D01*
X14589D01*
Y207460D01*
X13789D01*
X5889Y192060D02*
Y193660D01*
X7489D01*
Y192060D01*
X5889D01*
X6289Y192460D02*
Y193260D01*
X7089D01*
Y192460D01*
X6289D01*
X13389Y177060D02*
Y178660D01*
X14989D01*
Y177060D01*
X13389D01*
X13789Y177460D02*
Y178260D01*
X14589D01*
Y177460D01*
X13789D01*
X5889Y162060D02*
Y163660D01*
X7489D01*
Y162060D01*
X5889D01*
X6289Y162460D02*
Y163260D01*
X7089D01*
Y162460D01*
X6289D01*
X13389Y147060D02*
Y148660D01*
X14989D01*
Y147060D01*
X13389D01*
X13789Y147460D02*
Y148260D01*
X14589D01*
Y147460D01*
X13789D01*
X5889Y132060D02*
Y133660D01*
X7489D01*
Y132060D01*
X5889D01*
X6289Y132460D02*
Y133260D01*
X7089D01*
Y132460D01*
X6289D01*
X13389Y117060D02*
Y118660D01*
X14989D01*
Y117060D01*
X13389D01*
X13789Y117460D02*
Y118260D01*
X14589D01*
Y117460D01*
X13789D01*
X5889Y102060D02*
Y103660D01*
X7489D01*
Y102060D01*
X5889D01*
X6289Y102460D02*
Y103260D01*
X7089D01*
Y102460D01*
X6289D01*
X13389Y87060D02*
Y88660D01*
X14989D01*
Y87060D01*
X13389D01*
X13789Y87460D02*
Y88260D01*
X14589D01*
Y87460D01*
X13789D01*
X5889Y72060D02*
Y73660D01*
X7489D01*
Y72060D01*
X5889D01*
X6289Y72460D02*
Y73260D01*
X7089D01*
Y72460D01*
X6289D01*
X13389Y57060D02*
Y58660D01*
X14989D01*
Y57060D01*
X13389D01*
X13789Y57460D02*
Y58260D01*
X14589D01*
Y57460D01*
X13789D01*
X5889Y42060D02*
Y43660D01*
X7489D01*
Y42060D01*
X5889D01*
X6289Y42460D02*
Y43260D01*
X7089D01*
Y42460D01*
X6289D01*
X366200Y449736D02*
Y451336D01*
X367800D01*
Y449736D01*
X366200D01*
X366600Y450136D02*
Y450936D01*
X367400D01*
Y450136D01*
X366600D01*
X412200Y119700D02*
Y121300D01*
X413800D01*
Y119700D01*
X412200D01*
X412600Y120100D02*
Y120900D01*
X413400D01*
Y120100D01*
X412600D01*
X110700Y469200D02*
Y470800D01*
X112300D01*
Y469200D01*
X110700D01*
X111100Y469600D02*
Y470400D01*
X111900D01*
Y469600D01*
X111100D01*
X175700Y511200D02*
Y512800D01*
X177300D01*
Y511200D01*
X175700D01*
X176100Y511600D02*
Y512400D01*
X176900D01*
Y511600D01*
X176100D01*
X323700Y269700D02*
Y271300D01*
X325300D01*
Y269700D01*
X323700D01*
X324100Y270100D02*
Y270900D01*
X324900D01*
Y270100D01*
X324100D01*
X172700Y181700D02*
Y183300D01*
X174300D01*
Y181700D01*
X172700D01*
X173100Y182100D02*
Y182900D01*
X173900D01*
Y182100D01*
X173100D01*
X172700Y164200D02*
Y165800D01*
X174300D01*
Y164200D01*
X172700D01*
X173100Y164600D02*
Y165400D01*
X173900D01*
Y164600D01*
X173100D01*
X285200Y249700D02*
Y251300D01*
X286800D01*
Y249700D01*
X285200D01*
X285600Y250100D02*
Y250900D01*
X286400D01*
Y250100D01*
X285600D01*
X282700Y231700D02*
Y233300D01*
X284300D01*
Y231700D01*
X282700D01*
X283100Y232100D02*
Y232900D01*
X283900D01*
Y232100D01*
X283100D01*
X299700Y230200D02*
Y231800D01*
X301300D01*
Y230200D01*
X299700D01*
X300100Y230600D02*
Y231400D01*
X300900D01*
Y230600D01*
X300100D01*
X236200Y247200D02*
Y248800D01*
X237800D01*
Y247200D01*
X236200D01*
X236600Y247600D02*
Y248400D01*
X237400D01*
Y247600D01*
X236600D01*
X251200Y247200D02*
Y248800D01*
X252800D01*
Y247200D01*
X251200D01*
X251600Y247600D02*
Y248400D01*
X252400D01*
Y247600D01*
X251600D01*
X220700Y247200D02*
Y248800D01*
X222300D01*
Y247200D01*
X220700D01*
X221100Y247600D02*
Y248400D01*
X221900D01*
Y247600D01*
X221100D01*
X280700Y210700D02*
Y212300D01*
X282300D01*
Y210700D01*
X280700D01*
X281100Y211100D02*
Y211900D01*
X281900D01*
Y211100D01*
X281100D01*
X295700Y195700D02*
Y197300D01*
X297300D01*
Y195700D01*
X295700D01*
X296100Y196100D02*
Y196900D01*
X296900D01*
Y196100D01*
X296100D01*
X322700Y474700D02*
Y476300D01*
X324300D01*
Y474700D01*
X322700D01*
X323100Y475100D02*
Y475900D01*
X323900D01*
Y475100D01*
X323100D01*
X316200Y465700D02*
Y467300D01*
X317800D01*
Y465700D01*
X316200D01*
X316600Y466100D02*
Y466900D01*
X317400D01*
Y466100D01*
X316600D01*
X160700Y480200D02*
Y481800D01*
X162300D01*
Y480200D01*
X160700D01*
X161100Y480600D02*
Y481400D01*
X161900D01*
Y480600D01*
X161100D01*
X146200Y461200D02*
Y462800D01*
X147800D01*
Y461200D01*
X146200D01*
X146600Y461600D02*
Y462400D01*
X147400D01*
Y461600D01*
X146600D01*
X146200Y400200D02*
Y401800D01*
X147800D01*
Y400200D01*
X146200D01*
X146600Y400600D02*
Y401400D01*
X147400D01*
Y400600D01*
X146600D01*
X146200Y426200D02*
Y427800D01*
X147800D01*
Y426200D01*
X146200D01*
X146600Y426600D02*
Y427400D01*
X147400D01*
Y426600D01*
X146600D01*
X114700Y398200D02*
Y399800D01*
X116300D01*
Y398200D01*
X114700D01*
X115100Y398600D02*
Y399400D01*
X115900D01*
Y398600D01*
X115100D01*
X114700Y427700D02*
Y429300D01*
X116300D01*
Y427700D01*
X114700D01*
X115100Y428100D02*
Y428900D01*
X115900D01*
Y428100D01*
X115100D01*
X48404Y348712D02*
Y350312D01*
X50004D01*
Y348712D01*
X48404D01*
X48804Y349112D02*
Y349912D01*
X49604D01*
Y349112D01*
X48804D01*
X286700Y279200D02*
Y280800D01*
X288300D01*
Y279200D01*
X286700D01*
X287100Y279600D02*
Y280400D01*
X287900D01*
Y279600D01*
X287100D01*
X296700Y275200D02*
Y276800D01*
X298300D01*
Y275200D01*
X296700D01*
X297100Y275600D02*
Y276400D01*
X297900D01*
Y275600D01*
X297100D01*
X277200Y291700D02*
Y293300D01*
X278800D01*
Y291700D01*
X277200D01*
X277600Y292100D02*
Y292900D01*
X278400D01*
Y292100D01*
X277600D01*
X311200Y119200D02*
Y120800D01*
X312800D01*
Y119200D01*
X311200D01*
X311600Y119600D02*
Y120400D01*
X312400D01*
Y119600D01*
X311600D01*
X240893Y227464D02*
Y229064D01*
X242493D01*
Y227464D01*
X240893D01*
X241293Y227864D02*
Y228664D01*
X242093D01*
Y227864D01*
X241293D01*
X80200Y216865D02*
Y218465D01*
X81800D01*
Y216865D01*
X80200D01*
X80600Y217265D02*
Y218065D01*
X81400D01*
Y217265D01*
X80600D01*
X313240Y133859D02*
Y135459D01*
X314840D01*
Y133859D01*
X313240D01*
X313640Y134259D02*
Y135059D01*
X314440D01*
Y134259D01*
X313640D01*
X182506Y246385D02*
Y247985D01*
X184106D01*
Y246385D01*
X182506D01*
X182906Y246785D02*
Y247585D01*
X183706D01*
Y246785D01*
X182906D01*
X301987Y143606D02*
Y145206D01*
X303587D01*
Y143606D01*
X301987D01*
X302387Y144006D02*
Y144806D01*
X303187D01*
Y144006D01*
X302387D01*
X311476Y111444D02*
Y113044D01*
X313076D01*
Y111444D01*
X311476D01*
X311876Y111844D02*
Y112644D01*
X312676D01*
Y111844D01*
X311876D01*
X285031Y130184D02*
Y131784D01*
X286631D01*
Y130184D01*
X285031D01*
X285431Y130584D02*
Y131384D01*
X286230D01*
Y130584D01*
X285431D01*
X262200Y226200D02*
Y227800D01*
X263800D01*
Y226200D01*
X262200D01*
X262600Y226600D02*
Y227400D01*
X263400D01*
Y226600D01*
X262600D01*
X262700Y229700D02*
Y231300D01*
X264300D01*
Y229700D01*
X262700D01*
X263100Y230100D02*
Y230900D01*
X263900D01*
Y230100D01*
X263100D01*
X343700Y72200D02*
Y73800D01*
X345300D01*
Y72200D01*
X343700D01*
X344100Y72600D02*
Y73400D01*
X344900D01*
Y72600D01*
X344100D01*
X347200Y86200D02*
Y87800D01*
X348800D01*
Y86200D01*
X347200D01*
X347600Y86600D02*
Y87400D01*
X348400D01*
Y86600D01*
X347600D01*
X345700Y98503D02*
Y100103D01*
X347300D01*
Y98503D01*
X345700D01*
X346100Y98903D02*
Y99703D01*
X346900D01*
Y98903D01*
X346100D01*
X335200Y103700D02*
Y105300D01*
X336800D01*
Y103700D01*
X335200D01*
X335600Y104100D02*
Y104900D01*
X336400D01*
Y104100D01*
X335600D01*
X331200Y106700D02*
Y108300D01*
X332800D01*
Y106700D01*
X331200D01*
X331600Y107100D02*
Y107900D01*
X332400D01*
Y107100D01*
X331600D01*
X338461Y100630D02*
Y102230D01*
X340061D01*
Y100630D01*
X338461D01*
X338861Y101030D02*
Y101830D01*
X339661D01*
Y101030D01*
X338861D01*
X373200Y121353D02*
Y122953D01*
X374800D01*
Y121353D01*
X373200D01*
X373600Y121753D02*
Y122553D01*
X374400D01*
Y121753D01*
X373600D01*
X369320Y119200D02*
Y120800D01*
X370920D01*
Y119200D01*
X369320D01*
X369720Y119600D02*
Y120400D01*
X370520D01*
Y119600D01*
X369720D01*
X312561Y127561D02*
Y129161D01*
X314161D01*
Y127561D01*
X312561D01*
X312961Y127961D02*
Y128761D01*
X313761D01*
Y127961D01*
X312961D01*
X263700Y244700D02*
Y246300D01*
X265300D01*
Y244700D01*
X263700D01*
X264100Y245100D02*
Y245900D01*
X264900D01*
Y245100D01*
X264100D01*
X266700Y245700D02*
Y247300D01*
X268300D01*
Y245700D01*
X266700D01*
X267100Y246100D02*
Y246900D01*
X267900D01*
Y246100D01*
X267100D01*
X305827Y237327D02*
Y238927D01*
X307427D01*
Y237327D01*
X305827D01*
X306227Y237727D02*
Y238527D01*
X307027D01*
Y237727D01*
X306227D01*
X185700Y300700D02*
Y302300D01*
X187300D01*
Y300700D01*
X185700D01*
X186100Y301100D02*
Y301900D01*
X186900D01*
Y301100D01*
X186100D01*
X180700Y289200D02*
Y290800D01*
X182300D01*
Y289200D01*
X180700D01*
X181100Y289600D02*
Y290400D01*
X181900D01*
Y289600D01*
X181100D01*
X151700Y312700D02*
Y314300D01*
X153300D01*
Y312700D01*
X151700D01*
X152100Y313100D02*
Y313900D01*
X152900D01*
Y313100D01*
X152100D01*
X200700Y249200D02*
Y250800D01*
X202300D01*
Y249200D01*
X200700D01*
X201100Y249600D02*
Y250400D01*
X201900D01*
Y249600D01*
X201100D01*
X194700Y247700D02*
Y249300D01*
X196300D01*
Y247700D01*
X194700D01*
X195100Y248100D02*
Y248900D01*
X195900D01*
Y248100D01*
X195100D01*
X189200Y246700D02*
Y248300D01*
X190800D01*
Y246700D01*
X189200D01*
X189600Y247100D02*
Y247900D01*
X190400D01*
Y247100D01*
X189600D01*
X272700Y242200D02*
Y243800D01*
X274300D01*
Y242200D01*
X272700D01*
X273100Y242600D02*
Y243400D01*
X273900D01*
Y242600D01*
X273100D01*
X316879Y291133D02*
Y292733D01*
X318479D01*
Y291133D01*
X316879D01*
X317279Y291533D02*
Y292333D01*
X318079D01*
Y291533D01*
X317279D01*
X177700Y521764D02*
Y523364D01*
X179300D01*
Y521764D01*
X177700D01*
X178100Y522164D02*
Y522964D01*
X178900D01*
Y522164D01*
X178100D01*
X67391Y428752D02*
Y430352D01*
X68991D01*
Y428752D01*
X67391D01*
X67791Y429152D02*
Y429952D01*
X68591D01*
Y429152D01*
X67791D01*
X309721Y454983D02*
Y456583D01*
X311321D01*
Y454983D01*
X309721D01*
X310121Y455383D02*
Y456183D01*
X310921D01*
Y455383D01*
X310121D01*
X323200Y495200D02*
Y496800D01*
X324800D01*
Y495200D01*
X323200D01*
X323600Y495600D02*
Y496400D01*
X324400D01*
Y495600D01*
X323600D01*
X187200Y378200D02*
Y379800D01*
X188800D01*
Y378200D01*
X187200D01*
X187600Y378600D02*
Y379400D01*
X188400D01*
Y378600D01*
X187600D01*
X171200Y352200D02*
Y353800D01*
X172800D01*
Y352200D01*
X171200D01*
X171600Y352600D02*
Y353400D01*
X172400D01*
Y352600D01*
X171600D01*
X176534Y349326D02*
Y350926D01*
X178134D01*
Y349326D01*
X176534D01*
X176934Y349726D02*
Y350526D01*
X177734D01*
Y349726D01*
X176934D01*
X173589Y346637D02*
Y348236D01*
X175189D01*
Y346637D01*
X173589D01*
X173989Y347037D02*
Y347836D01*
X174789D01*
Y347037D01*
X173989D01*
X153700Y405700D02*
Y407300D01*
X155300D01*
Y405700D01*
X153700D01*
X154100Y406100D02*
Y406900D01*
X154900D01*
Y406100D01*
X154100D01*
X178700Y345200D02*
Y346800D01*
X180300D01*
Y345200D01*
X178700D01*
X179100Y345600D02*
Y346400D01*
X179900D01*
Y345600D01*
X179100D01*
X157200Y415700D02*
Y417300D01*
X158800D01*
Y415700D01*
X157200D01*
X157600Y416100D02*
Y416900D01*
X158400D01*
Y416100D01*
X157600D01*
X139700Y387700D02*
Y389300D01*
X141300D01*
Y387700D01*
X139700D01*
X140100Y388100D02*
Y388900D01*
X140900D01*
Y388100D01*
X140100D01*
X164200Y327700D02*
Y329300D01*
X165800D01*
Y327700D01*
X164200D01*
X164600Y328100D02*
Y328900D01*
X165400D01*
Y328100D01*
X164600D01*
X311700Y276700D02*
Y278300D01*
X313300D01*
Y276700D01*
X311700D01*
X312100Y277100D02*
Y277900D01*
X312900D01*
Y277100D01*
X312100D01*
X311700Y285200D02*
Y286800D01*
X313300D01*
Y285200D01*
X311700D01*
X312100Y285600D02*
Y286400D01*
X312900D01*
Y285600D01*
X312100D01*
X316864Y281715D02*
Y283315D01*
X318464D01*
Y281715D01*
X316864D01*
X317265Y282115D02*
Y282915D01*
X318064D01*
Y282115D01*
X317265D01*
X299700Y458700D02*
Y460300D01*
X301300D01*
Y458700D01*
X299700D01*
X300100Y459100D02*
Y459900D01*
X300900D01*
Y459100D01*
X300100D01*
X122700Y464700D02*
Y466300D01*
X124300D01*
Y464700D01*
X122700D01*
X123100Y465100D02*
Y465900D01*
X123900D01*
Y465100D01*
X123100D01*
X107700Y464700D02*
Y466300D01*
X109300D01*
Y464700D01*
X107700D01*
X108100Y465100D02*
Y465900D01*
X108900D01*
Y465100D01*
X108100D01*
X311200Y271700D02*
Y273300D01*
X312800D01*
Y271700D01*
X311200D01*
X311600Y272100D02*
Y272900D01*
X312400D01*
Y272100D01*
X311600D01*
X126535Y402002D02*
Y403602D01*
X128135D01*
Y402002D01*
X126535D01*
X126935Y402402D02*
Y403202D01*
X127735D01*
Y402402D01*
X126935D01*
X189700Y374200D02*
Y375800D01*
X191300D01*
Y374200D01*
X189700D01*
X190100Y374600D02*
Y375400D01*
X190900D01*
Y374600D01*
X190100D01*
X180700Y401200D02*
Y402800D01*
X182300D01*
Y401200D01*
X180700D01*
X181100Y401600D02*
Y402400D01*
X181900D01*
Y401600D01*
X181100D01*
X161700Y420200D02*
Y421800D01*
X163300D01*
Y420200D01*
X161700D01*
X162100Y420600D02*
Y421400D01*
X162900D01*
Y420600D01*
X162100D01*
X365200Y461700D02*
Y463300D01*
X366800D01*
Y461700D01*
X365200D01*
X365600Y462100D02*
Y462900D01*
X366400D01*
Y462100D01*
X365600D01*
X236183Y74683D02*
Y76283D01*
X237783D01*
Y74683D01*
X236183D01*
X236583Y75083D02*
Y75883D01*
X237383D01*
Y75083D01*
X236583D01*
X287152Y17730D02*
Y19331D01*
X288752D01*
Y17730D01*
X287152D01*
X287552Y18131D02*
Y18930D01*
X288352D01*
Y18131D01*
X287552D01*
X408253Y151700D02*
Y153300D01*
X409854D01*
Y151700D01*
X408253D01*
X408653Y152100D02*
Y152900D01*
X409453D01*
Y152100D01*
X408653D01*
X281362Y269428D02*
Y271028D01*
X282962D01*
Y269428D01*
X281362D01*
X281762Y269829D02*
Y270628D01*
X282562D01*
Y269829D01*
X281762D01*
X336633Y405200D02*
Y406800D01*
X338233D01*
Y405200D01*
X336633D01*
X337033Y405600D02*
Y406400D01*
X337833D01*
Y405600D01*
X337033D01*
X329200Y407200D02*
Y408800D01*
X330800D01*
Y407200D01*
X329200D01*
X329600Y407600D02*
Y408400D01*
X330400D01*
Y407600D01*
X329600D01*
X325700Y406700D02*
Y408300D01*
X327300D01*
Y406700D01*
X325700D01*
X326100Y407100D02*
Y407900D01*
X326900D01*
Y407100D01*
X326100D01*
X387109Y428672D02*
Y430272D01*
X388709D01*
Y428672D01*
X387109D01*
X387509Y429072D02*
Y429872D01*
X388310D01*
Y429072D01*
X387509D01*
X298212Y428700D02*
Y430300D01*
X299812D01*
Y428700D01*
X298212D01*
X298612Y429100D02*
Y429900D01*
X299412D01*
Y429100D01*
X298612D01*
X287700Y418133D02*
Y419733D01*
X289300D01*
Y418133D01*
X287700D01*
X288100Y418533D02*
Y419333D01*
X288900D01*
Y418533D01*
X288100D01*
X284200Y418133D02*
Y419733D01*
X285800D01*
Y418133D01*
X284200D01*
X284600Y418533D02*
Y419333D01*
X285400D01*
Y418533D01*
X284600D01*
X280808Y418133D02*
Y419733D01*
X282408D01*
Y418133D01*
X280808D01*
X281208Y418533D02*
Y419333D01*
X282008D01*
Y418533D01*
X281208D01*
X277242Y418133D02*
Y419733D01*
X278842D01*
Y418133D01*
X277242D01*
X277642Y418533D02*
Y419333D01*
X278442D01*
Y418533D01*
X277642D01*
X374682Y476124D02*
Y477724D01*
X376282D01*
Y476124D01*
X374682D01*
X375082Y476524D02*
Y477324D01*
X375882D01*
Y476524D01*
X375082D01*
X372944Y473860D02*
Y475460D01*
X374544D01*
Y473860D01*
X372944D01*
X373344Y474260D02*
Y475060D01*
X374144D01*
Y474260D01*
X373344D01*
X376700Y478200D02*
Y479800D01*
X378300D01*
Y478200D01*
X376700D01*
X377100Y478600D02*
Y479400D01*
X377900D01*
Y478600D01*
X377100D01*
X378277Y480579D02*
Y482179D01*
X379877D01*
Y480579D01*
X378277D01*
X378677Y480979D02*
Y481779D01*
X379477D01*
Y480979D01*
X378677D01*
X366544Y453357D02*
Y454957D01*
X368144D01*
Y453357D01*
X366544D01*
X366944Y453757D02*
Y454557D01*
X367744D01*
Y453757D01*
X366944D01*
X365936Y456146D02*
Y457746D01*
X367536D01*
Y456146D01*
X365936D01*
X366336Y456546D02*
Y457346D01*
X367136D01*
Y456546D01*
X366336D01*
X366700Y458930D02*
Y460530D01*
X368300D01*
Y458930D01*
X366700D01*
X367100Y459330D02*
Y460130D01*
X367900D01*
Y459330D01*
X367100D01*
X379702Y457716D02*
Y459316D01*
X381302D01*
Y457716D01*
X379702D01*
X380102Y458116D02*
Y458916D01*
X380902D01*
Y458116D01*
X380102D01*
X384424Y455432D02*
Y457032D01*
X386024D01*
Y455432D01*
X384424D01*
X384824Y455832D02*
Y456632D01*
X385624D01*
Y455832D01*
X384824D01*
X323155Y485700D02*
Y487300D01*
X324755D01*
Y485700D01*
X323155D01*
X323555Y486100D02*
Y486900D01*
X324355D01*
Y486100D01*
X323555D01*
X323155Y490440D02*
Y492040D01*
X324755D01*
Y490440D01*
X323155D01*
X323555Y490840D02*
Y491640D01*
X324355D01*
Y490840D01*
X323555D01*
X323155Y500960D02*
Y502560D01*
X324755D01*
Y500960D01*
X323155D01*
X323555Y501360D02*
Y502160D01*
X324355D01*
Y501360D01*
X323555D01*
X313662Y260281D02*
Y261881D01*
X315262D01*
Y260281D01*
X313662D01*
X314062Y260681D02*
Y261481D01*
X314862D01*
Y260681D01*
X314062D01*
X314880Y257700D02*
Y259300D01*
X316480D01*
Y257700D01*
X314880D01*
X315280Y258100D02*
Y258900D01*
X316080D01*
Y258100D01*
X315280D01*
X216462Y294873D02*
Y296473D01*
X218062D01*
Y294873D01*
X216462D01*
X216862Y295273D02*
Y296073D01*
X217662D01*
Y295273D01*
X216862D01*
X282240Y260787D02*
Y262387D01*
X283840D01*
Y260787D01*
X282240D01*
X282640Y261187D02*
Y261987D01*
X283440D01*
Y261187D01*
X282640D01*
X260700Y237945D02*
Y239545D01*
X262300D01*
Y237945D01*
X260700D01*
X261100Y238345D02*
Y239145D01*
X261900D01*
Y238345D01*
X261100D01*
X80200Y237700D02*
Y239300D01*
X81800D01*
Y237700D01*
X80200D01*
X80600Y238100D02*
Y238900D01*
X81400D01*
Y238100D01*
X80600D01*
X349451Y42211D02*
Y43811D01*
X351051D01*
Y42211D01*
X349451D01*
X349851Y42611D02*
Y43411D01*
X350651D01*
Y42611D01*
X349851D01*
X333700Y56448D02*
Y58048D01*
X335300D01*
Y56448D01*
X333700D01*
X334100Y56848D02*
Y57648D01*
X334900D01*
Y56848D01*
X334100D01*
X180700Y279700D02*
Y281300D01*
X182300D01*
Y279700D01*
X180700D01*
X181100Y280100D02*
Y280900D01*
X181900D01*
Y280100D01*
X181100D01*
X116200Y330700D02*
Y332300D01*
X117800D01*
Y330700D01*
X116200D01*
X116600Y331100D02*
Y331900D01*
X117400D01*
Y331100D01*
X116600D01*
X113200Y337200D02*
Y338800D01*
X114800D01*
Y337200D01*
X113200D01*
X113600Y337600D02*
Y338400D01*
X114400D01*
Y337600D01*
X113600D01*
X159700Y417200D02*
Y418800D01*
X161300D01*
Y417200D01*
X159700D01*
X160100Y417600D02*
Y418400D01*
X160900D01*
Y417600D01*
X160100D01*
X291200Y456816D02*
Y458416D01*
X292800D01*
Y456816D01*
X291200D01*
X291600Y457216D02*
Y458016D01*
X292400D01*
Y457216D01*
X291600D01*
X312200Y469700D02*
Y471300D01*
X313800D01*
Y469700D01*
X312200D01*
X312600Y470100D02*
Y470900D01*
X313400D01*
Y470100D01*
X312600D01*
X179200Y397700D02*
Y399300D01*
X180800D01*
Y397700D01*
X179200D01*
X179600Y398100D02*
Y398900D01*
X180400D01*
Y398100D01*
X179600D01*
X309700Y489700D02*
Y491300D01*
X311300D01*
Y489700D01*
X309700D01*
X310100Y490100D02*
Y490900D01*
X310900D01*
Y490100D01*
X310100D01*
X313587Y235927D02*
Y237527D01*
X315187D01*
Y235927D01*
X313587D01*
X313987Y236327D02*
Y237127D01*
X314787D01*
Y236327D01*
X313987D01*
X364200Y226700D02*
Y228300D01*
X365800D01*
Y226700D01*
X364200D01*
X364600Y227100D02*
Y227900D01*
X365400D01*
Y227100D01*
X364600D01*
X367200Y229700D02*
Y231300D01*
X368800D01*
Y229700D01*
X367200D01*
X367600Y230100D02*
Y230900D01*
X368400D01*
Y230100D01*
X367600D01*
X334700Y257083D02*
Y258683D01*
X336300D01*
Y257083D01*
X334700D01*
X335100Y257483D02*
Y258283D01*
X335900D01*
Y257483D01*
X335100D01*
X331200Y259200D02*
Y260800D01*
X332800D01*
Y259200D01*
X331200D01*
X331600Y259600D02*
Y260400D01*
X332400D01*
Y259600D01*
X331600D01*
X318700Y249988D02*
Y251588D01*
X320300D01*
Y249988D01*
X318700D01*
X319100Y250388D02*
Y251188D01*
X319900D01*
Y250388D01*
X319100D01*
X303200Y249988D02*
Y251588D01*
X304800D01*
Y249988D01*
X303200D01*
X303600Y250388D02*
Y251188D01*
X304400D01*
Y250388D01*
X303600D01*
X366700Y236200D02*
Y237800D01*
X368300D01*
Y236200D01*
X366700D01*
X367100Y236600D02*
Y237400D01*
X367900D01*
Y236600D01*
X367100D01*
X313700Y252700D02*
Y254300D01*
X315300D01*
Y252700D01*
X313700D01*
X314100Y253100D02*
Y253900D01*
X314900D01*
Y253100D01*
X314100D01*
X306200Y252700D02*
Y254300D01*
X307800D01*
Y252700D01*
X306200D01*
X306600Y253100D02*
Y253900D01*
X307400D01*
Y253100D01*
X306600D01*
X305700Y257700D02*
Y259300D01*
X307300D01*
Y257700D01*
X305700D01*
X306100Y258100D02*
Y258900D01*
X306900D01*
Y258100D01*
X306100D01*
X366200Y240200D02*
Y241800D01*
X367800D01*
Y240200D01*
X366200D01*
X366600Y240600D02*
Y241400D01*
X367400D01*
Y240600D01*
X366600D01*
X317200Y255200D02*
Y256800D01*
X318800D01*
Y255200D01*
X317200D01*
X317600Y255600D02*
Y256400D01*
X318400D01*
Y255600D01*
X317600D01*
X303200Y255200D02*
Y256800D01*
X304800D01*
Y255200D01*
X303200D01*
X303600Y255600D02*
Y256400D01*
X304400D01*
Y255600D01*
X303600D01*
X365200Y243700D02*
Y245300D01*
X366800D01*
Y243700D01*
X365200D01*
X365600Y244100D02*
Y244900D01*
X366400D01*
Y244100D01*
X365600D01*
X363700Y248200D02*
Y249800D01*
X365300D01*
Y248200D01*
X363700D01*
X364100Y248600D02*
Y249400D01*
X364900D01*
Y248600D01*
X364100D01*
X307200Y260200D02*
Y261800D01*
X308800D01*
Y260200D01*
X307200D01*
X307600Y260600D02*
Y261400D01*
X308400D01*
Y260600D01*
X307600D01*
X286854Y259471D02*
Y261071D01*
X288454D01*
Y259471D01*
X286854D01*
X287254Y259871D02*
Y260671D01*
X288054D01*
Y259871D01*
X287254D01*
X338200Y254700D02*
Y256300D01*
X339800D01*
Y254700D01*
X338200D01*
X338600Y255100D02*
Y255900D01*
X339400D01*
Y255100D01*
X338600D01*
X338200Y232700D02*
Y234300D01*
X339800D01*
Y232700D01*
X338200D01*
X338600Y233100D02*
Y233900D01*
X339400D01*
Y233100D01*
X338600D01*
X334700Y234700D02*
Y236300D01*
X336300D01*
Y234700D01*
X334700D01*
X335100Y235100D02*
Y235900D01*
X335900D01*
Y235100D01*
X335100D01*
X334004Y403101D02*
Y404701D01*
X335604D01*
Y403101D01*
X334004D01*
X334404Y403501D02*
Y404301D01*
X335204D01*
Y403501D01*
X334404D01*
X319389Y318912D02*
Y320512D01*
X320989D01*
Y318912D01*
X319389D01*
X319789Y319311D02*
Y320111D01*
X320589D01*
Y319311D01*
X319789D01*
X331825Y405720D02*
Y407320D01*
X333425D01*
Y405720D01*
X331825D01*
X332225Y406120D02*
Y406920D01*
X333025D01*
Y406120D01*
X332225D01*
X331200Y238200D02*
Y239800D01*
X332800D01*
Y238200D01*
X331200D01*
X331600Y238600D02*
Y239400D01*
X332400D01*
Y238600D01*
X331600D01*
X118700Y280628D02*
Y282228D01*
X120300D01*
Y280628D01*
X118700D01*
X119100Y281029D02*
Y281828D01*
X119900D01*
Y281029D01*
X119100D01*
X118700Y289700D02*
Y291300D01*
X120300D01*
Y289700D01*
X118700D01*
X119100Y290100D02*
Y290900D01*
X119900D01*
Y290100D01*
X119100D01*
X114700Y310700D02*
Y312300D01*
X116300D01*
Y310700D01*
X114700D01*
X115100Y311100D02*
Y311900D01*
X115900D01*
Y311100D01*
X115100D01*
X325700Y322200D02*
Y323800D01*
X327300D01*
Y322200D01*
X325700D01*
X326100Y322600D02*
Y323400D01*
X326900D01*
Y322600D01*
X326100D01*
X322200Y276700D02*
Y278300D01*
X323800D01*
Y276700D01*
X322200D01*
X322600Y277100D02*
Y277900D01*
X323400D01*
Y277100D01*
X322600D01*
X317200Y276700D02*
Y278300D01*
X318800D01*
Y276700D01*
X317200D01*
X317600Y277100D02*
Y277900D01*
X318400D01*
Y277100D01*
X317600D01*
X315200Y60700D02*
Y62300D01*
X316800D01*
Y60700D01*
X315200D01*
X315600Y61100D02*
Y61900D01*
X316400D01*
Y61100D01*
X315600D01*
X172940Y509440D02*
Y511040D01*
X174540D01*
Y509440D01*
X172940D01*
X173340Y509840D02*
Y510640D01*
X174140D01*
Y509840D01*
X173340D01*
X310200Y508440D02*
Y510040D01*
X311800D01*
Y508440D01*
X310200D01*
X310600Y508840D02*
Y509640D01*
X311400D01*
Y508840D01*
X310600D01*
X172460Y493940D02*
Y495540D01*
X174060D01*
Y493940D01*
X172460D01*
X172860Y494340D02*
Y495140D01*
X173660D01*
Y494340D01*
X172860D01*
X378319Y454462D02*
Y456063D01*
X379919D01*
Y454462D01*
X378319D01*
X378719Y454862D02*
Y455662D01*
X379519D01*
Y454862D01*
X378719D01*
X304262Y472477D02*
Y474077D01*
X305862D01*
Y472477D01*
X304262D01*
X304662Y472877D02*
Y473677D01*
X305462D01*
Y472877D01*
X304662D01*
X275200Y439700D02*
Y441300D01*
X276800D01*
Y439700D01*
X275200D01*
X275600Y440100D02*
Y440900D01*
X276400D01*
Y440100D01*
X275600D01*
X277200Y451200D02*
Y452800D01*
X278800D01*
Y451200D01*
X277200D01*
X277600Y451600D02*
Y452400D01*
X278400D01*
Y451600D01*
X277600D01*
X406200Y475200D02*
Y476800D01*
X407800D01*
Y475200D01*
X406200D01*
X406600Y475600D02*
Y476400D01*
X407400D01*
Y475600D01*
X406600D01*
X310410Y502620D02*
Y504220D01*
X312010D01*
Y502620D01*
X310410D01*
X310810Y503020D02*
Y503820D01*
X311610D01*
Y503020D01*
X310810D01*
X419153Y403700D02*
Y405300D01*
X420753D01*
Y403700D01*
X419153D01*
X419553Y404100D02*
Y404900D01*
X420353D01*
Y404100D01*
X419553D01*
X386200Y415700D02*
Y417300D01*
X387800D01*
Y415700D01*
X386200D01*
X386600Y416100D02*
Y416900D01*
X387400D01*
Y416100D01*
X386600D01*
X385111Y420022D02*
Y421622D01*
X386711D01*
Y420022D01*
X385111D01*
X385511Y420422D02*
Y421222D01*
X386311D01*
Y420422D01*
X385511D01*
X340273Y513869D02*
Y515469D01*
X341873D01*
Y513869D01*
X340273D01*
X340673Y514269D02*
Y515069D01*
X341473D01*
Y514269D01*
X340673D01*
X340200Y524200D02*
Y525800D01*
X341800D01*
Y524200D01*
X340200D01*
X340600Y524600D02*
Y525400D01*
X341400D01*
Y524600D01*
X340600D01*
X312503Y535509D02*
Y537109D01*
X314103D01*
Y535509D01*
X312503D01*
X312903Y535909D02*
Y536709D01*
X313703D01*
Y535909D01*
X312903D01*
X320303Y525582D02*
Y527182D01*
X321903D01*
Y525582D01*
X320303D01*
X320703Y525982D02*
Y526782D01*
X321503D01*
Y525982D01*
X320703D01*
X311503Y516678D02*
Y518279D01*
X313103D01*
Y516678D01*
X311503D01*
X311903Y517078D02*
Y517878D01*
X312703D01*
Y517078D01*
X311903D01*
X363200Y325700D02*
Y327300D01*
X364800D01*
Y325700D01*
X363200D01*
X363600Y326100D02*
Y326900D01*
X364400D01*
Y326100D01*
X363600D01*
X363200Y334700D02*
Y336300D01*
X364800D01*
Y334700D01*
X363200D01*
X363600Y335100D02*
Y335900D01*
X364400D01*
Y335100D01*
X363600D01*
X364700Y343700D02*
Y345300D01*
X366300D01*
Y343700D01*
X364700D01*
X365100Y344100D02*
Y344900D01*
X365900D01*
Y344100D01*
X365100D01*
X284700Y489200D02*
Y490800D01*
X286300D01*
Y489200D01*
X284700D01*
X285100Y489600D02*
Y490400D01*
X285900D01*
Y489600D01*
X285100D01*
X285700Y302692D02*
Y304292D01*
X287300D01*
Y302692D01*
X285700D01*
X286100Y303092D02*
Y303892D01*
X286900D01*
Y303092D01*
X286100D01*
X286200Y318200D02*
Y319800D01*
X287800D01*
Y318200D01*
X286200D01*
X286600Y318600D02*
Y319400D01*
X287400D01*
Y318600D01*
X286600D01*
X357200Y195200D02*
Y196800D01*
X358800D01*
Y195200D01*
X357200D01*
X357600Y195600D02*
Y196400D01*
X358400D01*
Y195600D01*
X357600D01*
X121700Y70700D02*
Y72300D01*
X123300D01*
Y70700D01*
X121700D01*
X122100Y71100D02*
Y71900D01*
X122900D01*
Y71100D01*
X122100D01*
X124200Y70700D02*
Y72300D01*
X125800D01*
Y70700D01*
X124200D01*
X124600Y71100D02*
Y71900D01*
X125400D01*
Y71100D01*
X124600D01*
X185018Y121200D02*
Y122800D01*
X186618D01*
Y121200D01*
X185018D01*
X185418Y121600D02*
Y122400D01*
X186218D01*
Y121600D01*
X185418D01*
X181700Y121200D02*
Y122800D01*
X183300D01*
Y121200D01*
X181700D01*
X182100Y121600D02*
Y122400D01*
X182900D01*
Y121600D01*
X182100D01*
X183200Y107670D02*
Y109271D01*
X184800D01*
Y107670D01*
X183200D01*
X183600Y108071D02*
Y108870D01*
X184400D01*
Y108071D01*
X183600D01*
X305200Y60700D02*
Y62300D01*
X306800D01*
Y60700D01*
X305200D01*
X305600Y61100D02*
Y61900D01*
X306400D01*
Y61100D01*
X305600D01*
X263700Y61200D02*
Y62800D01*
X265300D01*
Y61200D01*
X263700D01*
X264100Y61600D02*
Y62400D01*
X264900D01*
Y61600D01*
X264100D01*
X253722Y60948D02*
Y62548D01*
X255322D01*
Y60948D01*
X253722D01*
X254122Y61348D02*
Y62148D01*
X254922D01*
Y61348D01*
X254122D01*
X163700Y111141D02*
Y112741D01*
X165300D01*
Y111141D01*
X163700D01*
X164100Y111541D02*
Y112341D01*
X164900D01*
Y111541D01*
X164100D01*
X88700Y103200D02*
Y104800D01*
X90300D01*
Y103200D01*
X88700D01*
X89100Y103600D02*
Y104400D01*
X89900D01*
Y103600D01*
X89100D01*
X71173Y106144D02*
Y107744D01*
X72773D01*
Y106144D01*
X71173D01*
X71573Y106544D02*
Y107344D01*
X72373D01*
Y106544D01*
X71573D01*
X26700Y486700D02*
Y488300D01*
X28300D01*
Y486700D01*
X26700D01*
X27100Y487100D02*
Y487900D01*
X27900D01*
Y487100D01*
X27100D01*
X45302Y479480D02*
Y481079D01*
X46902D01*
Y479480D01*
X45302D01*
X45702Y479880D02*
Y480680D01*
X46502D01*
Y479880D01*
X45702D01*
X282200Y266700D02*
Y268300D01*
X283800D01*
Y266700D01*
X282200D01*
X282600Y267100D02*
Y267900D01*
X283400D01*
Y267100D01*
X282600D01*
X397141Y446005D02*
Y447605D01*
X398741D01*
Y446005D01*
X397141D01*
X397541Y446405D02*
Y447205D01*
X398341D01*
Y446405D01*
X397541D01*
X387109Y437334D02*
Y438934D01*
X388709D01*
Y437334D01*
X387109D01*
X387509Y437734D02*
Y438534D01*
X388310D01*
Y437734D01*
X387509D01*
X378700Y462200D02*
Y463800D01*
X380300D01*
Y462200D01*
X378700D01*
X379100Y462600D02*
Y463400D01*
X379900D01*
Y462600D01*
X379100D01*
X384700Y441700D02*
Y443300D01*
X386300D01*
Y441700D01*
X384700D01*
X385100Y442100D02*
Y442900D01*
X385900D01*
Y442100D01*
X385100D01*
X285200Y504700D02*
Y506300D01*
X286800D01*
Y504700D01*
X285200D01*
X285600Y505100D02*
Y505900D01*
X286400D01*
Y505100D01*
X285600D01*
X320448Y515200D02*
Y516800D01*
X322048D01*
Y515200D01*
X320448D01*
X320848Y515600D02*
Y516400D01*
X321648D01*
Y515600D01*
X320848D01*
X295700Y32700D02*
Y34300D01*
X297300D01*
Y32700D01*
X295700D01*
X296100Y33100D02*
Y33900D01*
X296900D01*
Y33100D01*
X296100D01*
X324700Y32700D02*
Y34300D01*
X326300D01*
Y32700D01*
X324700D01*
X325100Y33100D02*
Y33900D01*
X325900D01*
Y33100D01*
X325100D01*
X278200Y113684D02*
Y115284D01*
X279800D01*
Y113684D01*
X278200D01*
X278600Y114084D02*
Y114884D01*
X279400D01*
Y114084D01*
X278600D01*
X280689Y37628D02*
Y39228D01*
X282289D01*
Y37628D01*
X280689D01*
X281089Y38028D02*
Y38828D01*
X281889D01*
Y38028D01*
X281089D01*
X35421Y479480D02*
Y481079D01*
X37020D01*
Y479480D01*
X35421D01*
X35820Y479880D02*
Y480680D01*
X36621D01*
Y479880D01*
X35820D01*
D120*
X441745Y537402D02*
X441192Y538162D01*
X440298Y537872D01*
Y536931D01*
X441192Y536641D01*
X441745Y537402D01*
Y387795D02*
X441192Y388556D01*
X440298Y388265D01*
Y387325D01*
X441192Y387034D01*
X441745Y387795D01*
X215367Y163386D02*
X214814Y164147D01*
X213920Y163856D01*
Y162916D01*
X214814Y162625D01*
X215367Y163386D01*
X16548Y275590D02*
X15995Y276351D01*
X15101Y276061D01*
Y275120D01*
X15995Y274830D01*
X16548Y275590D01*
X242926Y387795D02*
X242373Y388556D01*
X241479Y388265D01*
Y387325D01*
X242373Y387034D01*
X242926Y387795D01*
Y537402D02*
X242373Y538162D01*
X241479Y537872D01*
Y536931D01*
X242373Y536641D01*
X242926Y537402D01*
X16548D02*
X15995Y538162D01*
X15101Y537872D01*
Y536931D01*
X15995Y536641D01*
X16548Y537402D01*
X215367Y13780D02*
X214814Y14540D01*
X213920Y14250D01*
Y13309D01*
X214814Y13019D01*
X215367Y13780D01*
X16548D02*
X15995Y14540D01*
X15101Y14250D01*
Y13309D01*
X15995Y13019D01*
X16548Y13780D01*
X441745Y163386D02*
X441192Y164147D01*
X440298Y163856D01*
Y162916D01*
X441192Y162625D01*
X441745Y163386D01*
Y13780D02*
X441192Y14540D01*
X440298Y14250D01*
Y13309D01*
X441192Y13019D01*
X441745Y13780D01*
X192191Y475320D02*
X191638Y476081D01*
X190744Y475790D01*
Y474850D01*
X191638Y474559D01*
X192191Y475320D01*
X206295Y85005D02*
X205743Y85765D01*
X204848Y85475D01*
Y84534D01*
X205743Y84244D01*
X206295Y85005D01*
X267866Y350395D02*
X267313Y351156D01*
X266419Y350865D01*
Y349925D01*
X267313Y349634D01*
X267866Y350395D01*
X250800Y458000D02*
X250247Y458761D01*
X249353Y458470D01*
Y457530D01*
X250247Y457239D01*
X250800Y458000D01*
X158889Y200911D02*
X158336Y201672D01*
X157442Y201381D01*
Y200441D01*
X158336Y200150D01*
X158889Y200911D01*
X406548Y121962D02*
X405995Y122723D01*
X405101Y122432D01*
Y121492D01*
X405995Y121201D01*
X406548Y121962D01*
X426300Y53500D02*
X425747Y54261D01*
X424853Y53970D01*
Y53030D01*
X425747Y52739D01*
X426300Y53500D01*
X406548Y73250D02*
X405995Y74011D01*
X405101Y73720D01*
Y72780D01*
X405995Y72489D01*
X406548Y73250D01*
X342241Y217000D02*
X341688Y217761D01*
X340794Y217470D01*
Y216530D01*
X341688Y216239D01*
X342241Y217000D01*
X267904Y377479D02*
X267351Y378240D01*
X266457Y377949D01*
Y377009D01*
X267351Y376718D01*
X267904Y377479D01*
X167300Y81000D02*
X166747Y81761D01*
X165853Y81470D01*
Y80530D01*
X166747Y80239D01*
X167300Y81000D01*
X353091Y394543D02*
X352538Y395304D01*
X351644Y395013D01*
Y394073D01*
X352538Y393782D01*
X353091Y394543D01*
X159300Y195500D02*
X158747Y196261D01*
X157853Y195970D01*
Y195030D01*
X158747Y194739D01*
X159300Y195500D01*
X412014Y266401D02*
X411461Y267162D01*
X410567Y266872D01*
Y265931D01*
X411461Y265641D01*
X412014Y266401D01*
X162300Y184500D02*
X161747Y185261D01*
X160853Y184970D01*
Y184030D01*
X161747Y183739D01*
X162300Y184500D01*
X415698Y256719D02*
X415145Y257480D01*
X414251Y257189D01*
Y256249D01*
X415145Y255958D01*
X415698Y256719D01*
X231991Y34788D02*
X231438Y35549D01*
X230544Y35258D01*
Y34318D01*
X231438Y34027D01*
X231991Y34788D01*
X69572Y76254D02*
X69020Y77015D01*
X68125Y76725D01*
Y75784D01*
X69020Y75494D01*
X69572Y76254D01*
X320300Y182500D02*
X319747Y183261D01*
X318853Y182970D01*
Y182030D01*
X319747Y181739D01*
X320300Y182500D01*
X359741Y217000D02*
X359188Y217761D01*
X358294Y217470D01*
Y216530D01*
X359188Y216239D01*
X359741Y217000D01*
X376241D02*
X375688Y217761D01*
X374794Y217470D01*
Y216530D01*
X375688Y216239D01*
X376241Y217000D01*
X390741D02*
X390188Y217761D01*
X389294Y217470D01*
Y216530D01*
X390188Y216239D01*
X390741Y217000D01*
X404112Y255500D02*
X403559Y256261D01*
X402664Y255970D01*
Y255030D01*
X403559Y254739D01*
X404112Y255500D01*
X395800Y273020D02*
X395247Y273780D01*
X394353Y273490D01*
Y272550D01*
X395247Y272259D01*
X395800Y273020D01*
X373114Y308441D02*
X372561Y309202D01*
X371667Y308911D01*
Y307971D01*
X372561Y307680D01*
X373114Y308441D01*
Y325941D02*
X372561Y326702D01*
X371667Y326411D01*
Y325471D01*
X372561Y325180D01*
X373114Y325941D01*
Y343941D02*
X372561Y344702D01*
X371667Y344411D01*
Y343471D01*
X372561Y343180D01*
X373114Y343941D01*
Y290441D02*
X372561Y291202D01*
X371667Y290911D01*
Y289971D01*
X372561Y289680D01*
X373114Y290441D01*
X392208Y386150D02*
X391655Y386910D01*
X390760Y386620D01*
Y385679D01*
X391655Y385389D01*
X392208Y386150D01*
X381887Y367150D02*
X381335Y367910D01*
X380440Y367620D01*
Y366679D01*
X381335Y366389D01*
X381887Y367150D01*
X399891Y433803D02*
X399338Y434564D01*
X398444Y434273D01*
Y433333D01*
X399338Y433042D01*
X399891Y433803D01*
X82800Y313000D02*
X82247Y313761D01*
X81353Y313470D01*
Y312530D01*
X82247Y312239D01*
X82800Y313000D01*
X62300Y319500D02*
X61747Y320261D01*
X60853Y319970D01*
Y319030D01*
X61747Y318739D01*
X62300Y319500D01*
X174560Y477000D02*
X174007Y477761D01*
X173113Y477470D01*
Y476530D01*
X174007Y476239D01*
X174560Y477000D01*
D121*
X191791Y475320D02*
X191191Y475666D01*
Y474974D01*
X191791Y475320D01*
X205895Y85005D02*
X205295Y85351D01*
Y84658D01*
X205895Y85005D01*
X267466Y350395D02*
X266866Y350741D01*
Y350049D01*
X267466Y350395D01*
X250400Y458000D02*
X249800Y458346D01*
Y457654D01*
X250400Y458000D01*
X158489Y200911D02*
X157889Y201257D01*
Y200565D01*
X158489Y200911D01*
X406148Y121962D02*
X405548Y122308D01*
Y121615D01*
X406148Y121962D01*
X425900Y53500D02*
X425300Y53846D01*
Y53154D01*
X425900Y53500D01*
X406148Y73250D02*
X405548Y73596D01*
Y72904D01*
X406148Y73250D01*
X341841Y217000D02*
X341241Y217346D01*
Y216654D01*
X341841Y217000D01*
X267504Y377479D02*
X266904Y377825D01*
Y377132D01*
X267504Y377479D01*
X166900Y81000D02*
X166300Y81346D01*
Y80654D01*
X166900Y81000D01*
X352691Y394543D02*
X352091Y394890D01*
Y394197D01*
X352691Y394543D01*
X158900Y195500D02*
X158300Y195846D01*
Y195154D01*
X158900Y195500D01*
X411614Y266401D02*
X411014Y266748D01*
Y266055D01*
X411614Y266401D01*
X161900Y184500D02*
X161300Y184846D01*
Y184154D01*
X161900Y184500D01*
X415298Y256719D02*
X414698Y257065D01*
Y256372D01*
X415298Y256719D01*
X231591Y34788D02*
X230991Y35135D01*
Y34442D01*
X231591Y34788D01*
X69172Y76254D02*
X68572Y76601D01*
Y75908D01*
X69172Y76254D01*
X319900Y182500D02*
X319300Y182846D01*
Y182154D01*
X319900Y182500D01*
X359341Y217000D02*
X358741Y217346D01*
Y216654D01*
X359341Y217000D01*
X375841D02*
X375241Y217346D01*
Y216654D01*
X375841Y217000D01*
X390341D02*
X389741Y217346D01*
Y216654D01*
X390341Y217000D01*
X403712Y255500D02*
X403112Y255846D01*
Y255154D01*
X403712Y255500D01*
X395400Y273020D02*
X394800Y273366D01*
Y272673D01*
X395400Y273020D01*
X372714Y308441D02*
X372114Y308787D01*
Y308095D01*
X372714Y308441D01*
Y325941D02*
X372114Y326287D01*
Y325594D01*
X372714Y325941D01*
Y343941D02*
X372114Y344287D01*
Y343595D01*
X372714Y343941D01*
Y290441D02*
X372114Y290787D01*
Y290094D01*
X372714Y290441D01*
X391808Y386150D02*
X391208Y386496D01*
Y385803D01*
X391808Y386150D01*
X381487Y367150D02*
X380887Y367496D01*
Y366803D01*
X381487Y367150D01*
X399491Y433803D02*
X398891Y434150D01*
Y433457D01*
X399491Y433803D01*
X82400Y313000D02*
X81800Y313346D01*
Y312654D01*
X82400Y313000D01*
X61900Y319500D02*
X61300Y319846D01*
Y319154D01*
X61900Y319500D01*
X174160Y477000D02*
X173560Y477346D01*
Y476654D01*
X174160Y477000D01*
M02*
