G04*
G04 #@! TF.GenerationSoftware,Altium Limited,Altium Designer,22.3.1 (43)*
G04*
G04 Layer_Color=65535*
%FSLAX25Y25*%
%MOIN*%
G70*
G04*
G04 #@! TF.SameCoordinates,697392F4-E1DC-46BD-99ED-7115868F3DC7*
G04*
G04*
G04 #@! TF.FilePolarity,Positive*
G04*
G01*
G75*
%ADD10C,0.00984*%
%ADD11C,0.01575*%
%ADD12C,0.00394*%
%ADD13C,0.00787*%
%ADD14C,0.00472*%
%ADD15C,0.01000*%
%ADD16C,0.01181*%
%ADD17R,0.24000X0.10000*%
%ADD18R,0.03636X0.16271*%
%ADD19R,0.09090X0.07544*%
%ADD20R,0.27179X0.04772*%
%ADD21R,0.05091X0.23634*%
%ADD22R,0.30087X0.04818*%
G36*
X43824Y46373D02*
X44077Y46366D01*
X44261Y46355D01*
X44341Y46342D01*
X44458Y46311D01*
Y42687D01*
X43633Y42715D01*
X42807Y42715D01*
X42043Y42648D01*
X41317Y42511D01*
X40606Y42300D01*
X39887Y42008D01*
X39588Y41867D01*
X38878Y41477D01*
X38237Y41038D01*
X37637Y40530D01*
X37404Y40304D01*
X36787Y39615D01*
X36254Y38864D01*
X35806Y38058D01*
X35447Y37200D01*
X35179Y36297D01*
X35100Y35932D01*
X35052Y35601D01*
X35020Y35196D01*
X35004Y34744D01*
X35004Y34275D01*
X35019Y33816D01*
X35051Y33395D01*
X35098Y33042D01*
X35103Y33016D01*
X35322Y32115D01*
X35635Y31256D01*
X36035Y30444D01*
X36518Y29685D01*
X37078Y28985D01*
X37710Y28350D01*
X38410Y27785D01*
X39172Y27296D01*
X39991Y26888D01*
X40714Y26616D01*
X41120Y26492D01*
X41493Y26397D01*
X41858Y26329D01*
X42241Y26283D01*
X42666Y26257D01*
X43161Y26247D01*
X43378Y26246D01*
X44458Y26247D01*
Y22637D01*
X44341Y22606D01*
X44241Y22594D01*
X44056Y22586D01*
X43805Y22581D01*
X43507Y22580D01*
X43182Y22582D01*
X42847Y22586D01*
X42523Y22594D01*
X42229Y22604D01*
X41983Y22616D01*
X41804Y22630D01*
X41802Y22631D01*
X41357Y22695D01*
X40855Y22793D01*
X40333Y22913D01*
X39831Y23049D01*
X39512Y23147D01*
X38470Y23545D01*
X37483Y24029D01*
X36554Y24595D01*
X35688Y25238D01*
X34887Y25953D01*
X34157Y26736D01*
X33500Y27582D01*
X32921Y28485D01*
X32424Y29443D01*
X32012Y30448D01*
X31690Y31499D01*
X31461Y32588D01*
X31409Y32937D01*
X31376Y33271D01*
X31353Y33681D01*
X31340Y34138D01*
X31338Y34615D01*
X31346Y35083D01*
X31365Y35516D01*
X31394Y35884D01*
X31409Y36010D01*
X31609Y37123D01*
X31906Y38198D01*
X32299Y39233D01*
X32786Y40226D01*
X33367Y41173D01*
X33677Y41609D01*
X34379Y42466D01*
X35151Y43247D01*
X35987Y43949D01*
X36882Y44570D01*
X37830Y45107D01*
X38828Y45555D01*
X39868Y45913D01*
X40945Y46176D01*
X41696Y46300D01*
X41903Y46321D01*
X42174Y46339D01*
X42491Y46354D01*
X42833Y46365D01*
X43182Y46372D01*
X43519Y46374D01*
X43824Y46373D01*
D02*
G37*
G36*
X64667Y42703D02*
X63508Y42702D01*
X63106Y42700D01*
X62789Y42695D01*
X62535Y42685D01*
X62325Y42669D01*
X62138Y42646D01*
X61954Y42613D01*
X61820Y42585D01*
X60915Y42336D01*
X60052Y41996D01*
X59237Y41571D01*
X58477Y41065D01*
X57780Y40483D01*
X57151Y39829D01*
X56599Y39109D01*
X56502Y38963D01*
X56298Y38620D01*
X56090Y38221D01*
X55889Y37792D01*
X55707Y37359D01*
X55557Y36951D01*
X55448Y36593D01*
X55424Y36492D01*
X55388Y36323D01*
X62323D01*
Y32625D01*
X55388D01*
X55424Y32456D01*
X55523Y32096D01*
X55671Y31679D01*
X55855Y31233D01*
X56064Y30784D01*
X56286Y30360D01*
X56508Y29988D01*
X56545Y29932D01*
X57111Y29178D01*
X57745Y28501D01*
X58445Y27905D01*
X59205Y27391D01*
X60022Y26962D01*
X60893Y26621D01*
X61812Y26371D01*
X61835Y26366D01*
X62041Y26324D01*
X62232Y26293D01*
X62428Y26271D01*
X62649Y26257D01*
X62918Y26249D01*
X63255Y26245D01*
X63534Y26245D01*
X64667Y26245D01*
Y22573D01*
X63534Y22580D01*
X63172Y22584D01*
X62818Y22591D01*
X62497Y22602D01*
X62229Y22614D01*
X62038Y22628D01*
X62010Y22631D01*
X61123Y22773D01*
X60210Y22998D01*
X59297Y23298D01*
X58408Y23663D01*
X57569Y24086D01*
X57349Y24212D01*
X56705Y24627D01*
X56052Y25116D01*
X55415Y25656D01*
X54820Y26224D01*
X54294Y26800D01*
X54150Y26974D01*
X53514Y27846D01*
X52958Y28782D01*
X52484Y29771D01*
X52097Y30805D01*
X51801Y31874D01*
X51599Y32968D01*
X51589Y33042D01*
X51562Y33324D01*
X51542Y33681D01*
X51531Y34087D01*
X51527Y34516D01*
X51532Y34941D01*
X51544Y35337D01*
X51564Y35678D01*
X51588Y35906D01*
X51793Y37028D01*
X52089Y38113D01*
X52474Y39154D01*
X52945Y40146D01*
X53500Y41082D01*
X54136Y41955D01*
X54150Y41972D01*
X54859Y42771D01*
X55643Y43505D01*
X56492Y44168D01*
X57396Y44755D01*
X58345Y45258D01*
X59329Y45672D01*
X60340Y45991D01*
X60735Y46088D01*
X61223Y46189D01*
X61676Y46265D01*
X62124Y46319D01*
X62596Y46353D01*
X63121Y46370D01*
X63560Y46374D01*
X64667Y46375D01*
Y42703D01*
D02*
G37*
G36*
X-11811Y10010D02*
Y11811D01*
X-10010D01*
X-11811Y10010D01*
D02*
G37*
G36*
X23472Y-49298D02*
X19745D01*
Y-48930D01*
X19888Y-48210D01*
X20169Y-47532D01*
X20577Y-46922D01*
X21096Y-46403D01*
X21707Y-45995D01*
X22385Y-45714D01*
X23105Y-45571D01*
X23472D01*
Y-49298D01*
D02*
G37*
G36*
X-59636Y-49944D02*
X-59639Y-50287D01*
X-61417Y-52094D01*
X-63195Y-53901D01*
X-63197Y-54730D01*
X-63198Y-55559D01*
X-64281D01*
X-64309Y-55770D01*
X-64319Y-55866D01*
X-64337Y-56046D01*
X-64362Y-56301D01*
X-64391Y-56618D01*
X-64425Y-56989D01*
X-64462Y-57400D01*
X-64502Y-57843D01*
X-64543Y-58305D01*
X-64585Y-58777D01*
X-64626Y-59247D01*
X-64666Y-59705D01*
X-64704Y-60140D01*
X-64739Y-60542D01*
X-64769Y-60898D01*
X-64795Y-61200D01*
X-64814Y-61435D01*
X-64826Y-61593D01*
X-64830Y-61664D01*
X-64830Y-61664D01*
X-64800Y-61721D01*
X-64709Y-61838D01*
X-64556Y-62016D01*
X-64339Y-62258D01*
X-64058Y-62564D01*
X-63711Y-62936D01*
X-63297Y-63375D01*
X-62815Y-63883D01*
X-62680Y-64025D01*
X-60531Y-66277D01*
X-60878Y-66624D01*
X-61159Y-66318D01*
X-61262Y-66207D01*
X-61423Y-66036D01*
X-61631Y-65816D01*
X-61875Y-65558D01*
X-62146Y-65273D01*
X-62432Y-64973D01*
X-62603Y-64793D01*
X-62924Y-64457D01*
X-63183Y-64188D01*
X-63388Y-63981D01*
X-63544Y-63830D01*
X-63658Y-63732D01*
X-63738Y-63682D01*
X-63789Y-63674D01*
X-63818Y-63703D01*
X-63832Y-63765D01*
X-63837Y-63854D01*
X-63838Y-63879D01*
X-63875Y-64047D01*
X-63967Y-64251D01*
X-64094Y-64458D01*
X-64239Y-64635D01*
X-64297Y-64690D01*
X-64595Y-64882D01*
X-64944Y-64989D01*
X-65252Y-65015D01*
X-65601Y-64967D01*
X-65923Y-64826D01*
X-66208Y-64597D01*
X-66261Y-64540D01*
X-66453Y-64322D01*
X-69782D01*
Y-65015D01*
X-70673D01*
Y-64691D01*
X-70684Y-64470D01*
X-70722Y-64317D01*
X-70768Y-64233D01*
X-70800Y-64173D01*
X-70828Y-64087D01*
X-70853Y-63961D01*
X-70877Y-63782D01*
X-70902Y-63538D01*
X-70930Y-63215D01*
X-70949Y-62975D01*
X-71036Y-61852D01*
X-73172Y-64015D01*
X-73558Y-64406D01*
X-73928Y-64783D01*
X-74277Y-65137D01*
X-74596Y-65462D01*
X-74880Y-65752D01*
X-75121Y-65999D01*
X-75313Y-66196D01*
X-75448Y-66336D01*
X-75521Y-66413D01*
X-75641Y-66535D01*
X-75740Y-66620D01*
X-75794Y-66649D01*
X-75863Y-66615D01*
X-75962Y-66532D01*
X-75996Y-66499D01*
X-76140Y-66349D01*
X-75350Y-65546D01*
X-75148Y-65341D01*
X-74888Y-65078D01*
X-74581Y-64767D01*
X-74239Y-64421D01*
X-73872Y-64051D01*
X-73493Y-63668D01*
X-73112Y-63284D01*
X-72839Y-63008D01*
X-72424Y-62589D01*
X-72075Y-62234D01*
X-71789Y-61938D01*
X-71559Y-61697D01*
X-71383Y-61506D01*
X-71295Y-61406D01*
X-71255Y-61360D01*
X-71171Y-61254D01*
X-71127Y-61184D01*
X-71117Y-61152D01*
X-71121Y-61081D01*
X-71132Y-60921D01*
X-71150Y-60680D01*
X-71175Y-60369D01*
X-71204Y-59996D01*
X-71239Y-59570D01*
X-71277Y-59101D01*
X-71318Y-58598D01*
X-71352Y-58195D01*
X-71541Y-55928D01*
X-71588Y-55361D01*
X-73953Y-52875D01*
X-76317Y-50388D01*
X-76315Y-50041D01*
X-76313Y-49693D01*
X-75931Y-50101D01*
X-75718Y-50329D01*
X-75465Y-50596D01*
X-75181Y-50896D01*
X-74872Y-51222D01*
X-74545Y-51566D01*
X-74206Y-51921D01*
X-73863Y-52280D01*
X-73522Y-52637D01*
X-73190Y-52984D01*
X-72874Y-53313D01*
X-72580Y-53619D01*
X-72316Y-53893D01*
X-72089Y-54128D01*
X-71904Y-54318D01*
X-71770Y-54455D01*
X-71692Y-54533D01*
X-71675Y-54548D01*
X-71674Y-54496D01*
X-71680Y-54364D01*
X-71693Y-54169D01*
X-71711Y-53929D01*
X-71719Y-53834D01*
X-71778Y-53134D01*
X-72406D01*
Y-52688D01*
X-72139D01*
X-71983Y-52684D01*
X-71898Y-52663D01*
X-71888Y-52651D01*
X-71857Y-52614D01*
X-71840Y-52561D01*
X-71772Y-52424D01*
X-71642Y-52258D01*
X-71472Y-52088D01*
X-71284Y-51936D01*
X-71161Y-51858D01*
X-71020Y-51771D01*
X-70948Y-51698D01*
X-70923Y-51613D01*
X-70921Y-51562D01*
Y-51550D01*
X-70921Y-51401D01*
X-70504D01*
X-70312Y-51406D01*
X-70163Y-51418D01*
X-70080Y-51436D01*
X-70071Y-51443D01*
X-70018Y-51454D01*
X-69890Y-51449D01*
X-69708Y-51431D01*
X-69584Y-51413D01*
X-69359Y-51379D01*
X-69153Y-51349D01*
X-68998Y-51326D01*
X-68953Y-51320D01*
X-68834Y-51283D01*
X-68792Y-51226D01*
X-68779Y-51202D01*
X-68733Y-51184D01*
X-68643Y-51171D01*
X-68497Y-51162D01*
X-68285Y-51157D01*
X-67995Y-51154D01*
X-67654Y-51153D01*
X-67289Y-51154D01*
X-67012Y-51156D01*
X-66810Y-51160D01*
X-66672Y-51167D01*
X-66585Y-51179D01*
X-66538Y-51196D01*
X-66518Y-51220D01*
X-66515Y-51247D01*
X-66485Y-51334D01*
X-66385Y-51383D01*
X-66205Y-51401D01*
X-66172Y-51401D01*
X-65866Y-51433D01*
X-65519Y-51519D01*
X-65161Y-51650D01*
X-64824Y-51812D01*
X-64540Y-51995D01*
X-64504Y-52024D01*
X-64384Y-52118D01*
X-64313Y-52156D01*
X-64263Y-52144D01*
X-64212Y-52093D01*
X-64062Y-51995D01*
X-63866Y-51957D01*
X-63655Y-51977D01*
X-63460Y-52051D01*
X-63310Y-52176D01*
X-63299Y-52190D01*
X-63187Y-52424D01*
X-63166Y-52665D01*
X-63234Y-52895D01*
X-63389Y-53095D01*
X-63408Y-53111D01*
X-63518Y-53190D01*
X-63630Y-53224D01*
X-63786Y-53227D01*
X-63826Y-53224D01*
X-63979Y-53219D01*
X-64058Y-53232D01*
X-64087Y-53271D01*
X-64090Y-53307D01*
X-64096Y-53412D01*
X-64110Y-53571D01*
X-64121Y-53666D01*
X-64137Y-53816D01*
X-64130Y-53894D01*
X-64093Y-53922D01*
X-64026Y-53926D01*
X-63987Y-53913D01*
X-63923Y-53872D01*
X-63830Y-53797D01*
X-63704Y-53686D01*
X-63539Y-53532D01*
X-63331Y-53331D01*
X-63075Y-53079D01*
X-62767Y-52772D01*
X-62401Y-52405D01*
X-61973Y-51972D01*
X-61767Y-51764D01*
X-59634Y-49601D01*
X-59636Y-49944D01*
D02*
G37*
G36*
X59287Y-65927D02*
X59148Y-66629D01*
X58873Y-67291D01*
X58476Y-67886D01*
X57969Y-68393D01*
X57374Y-68791D01*
X56712Y-69064D01*
X56010Y-69204D01*
X55652D01*
Y-65569D01*
X59287D01*
Y-65927D01*
D02*
G37*
G36*
X23381Y-69204D02*
X23023D01*
X22320Y-69064D01*
X21659Y-68791D01*
X21063Y-68393D01*
X20557Y-67886D01*
X20159Y-67291D01*
X19885Y-66629D01*
X19745Y-65927D01*
Y-65569D01*
X23381D01*
Y-69204D01*
D02*
G37*
G36*
X-61119Y-73381D02*
X-74980D01*
Y-69965D01*
X-61119D01*
Y-73381D01*
D02*
G37*
G36*
X-62042Y67797D02*
X-61829Y67773D01*
X-61615Y67749D01*
X-61355Y67726D01*
X-60786Y67631D01*
X-60170Y67513D01*
X-59531Y67323D01*
X-58891Y67086D01*
X-58867D01*
X-58820Y67062D01*
X-58725Y67015D01*
X-58607Y66944D01*
X-58464Y66873D01*
X-58275Y66778D01*
X-57872Y66565D01*
X-57422Y66281D01*
X-56925Y65925D01*
X-56427Y65522D01*
X-55930Y65072D01*
X-55906Y65049D01*
X-55882Y65025D01*
X-55811Y64954D01*
X-55717Y64859D01*
X-55622Y64741D01*
X-55503Y64575D01*
X-55219Y64243D01*
X-54887Y63793D01*
X-54556Y63296D01*
X-54224Y62727D01*
X-53940Y62111D01*
Y62088D01*
X-53916Y62040D01*
X-53869Y61945D01*
X-53821Y61827D01*
X-53774Y61661D01*
X-53703Y61471D01*
X-53632Y61258D01*
X-53561Y61021D01*
X-53442Y60476D01*
X-53324Y59884D01*
X-53229Y59197D01*
X-53205Y58487D01*
Y58463D01*
Y58392D01*
Y58297D01*
Y58155D01*
X-53229Y57989D01*
X-53253Y57800D01*
X-53276Y57563D01*
X-53300Y57326D01*
X-53395Y56757D01*
X-53513Y56141D01*
X-53703Y55502D01*
X-53940Y54862D01*
Y54838D01*
X-53964Y54791D01*
X-54011Y54696D01*
X-54082Y54578D01*
X-54153Y54436D01*
X-54248Y54270D01*
X-54461Y53867D01*
X-54745Y53393D01*
X-55077Y52896D01*
X-55480Y52398D01*
X-55930Y51901D01*
X-55953Y51877D01*
X-55977Y51853D01*
X-56048Y51782D01*
X-56143Y51688D01*
X-56261Y51593D01*
X-56427Y51451D01*
X-56783Y51166D01*
X-57209Y50858D01*
X-57706Y50503D01*
X-58299Y50195D01*
X-58915Y49887D01*
X-58938D01*
X-58986Y49863D01*
X-59080Y49816D01*
X-59199Y49769D01*
X-59365Y49721D01*
X-59554Y49674D01*
X-59768Y49603D01*
X-60004Y49532D01*
X-60549Y49413D01*
X-61165Y49295D01*
X-61829Y49200D01*
X-62539Y49176D01*
X-62729D01*
X-62871Y49200D01*
X-63037D01*
X-63226Y49224D01*
X-63463Y49248D01*
X-63700Y49271D01*
X-64269Y49342D01*
X-64885Y49484D01*
X-65524Y49650D01*
X-66164Y49887D01*
X-66188D01*
X-66235Y49911D01*
X-66330Y49958D01*
X-66448Y50029D01*
X-66590Y50100D01*
X-66756Y50195D01*
X-67159Y50408D01*
X-67633Y50693D01*
X-68130Y51048D01*
X-68628Y51451D01*
X-69125Y51901D01*
X-69149Y51925D01*
X-69172Y51948D01*
X-69244Y52019D01*
X-69338Y52138D01*
X-69433Y52256D01*
X-69575Y52398D01*
X-69859Y52754D01*
X-70167Y53204D01*
X-70523Y53701D01*
X-70831Y54270D01*
X-71139Y54886D01*
Y54909D01*
X-71162Y54957D01*
X-71210Y55051D01*
X-71257Y55194D01*
X-71305Y55336D01*
X-71352Y55525D01*
X-71423Y55739D01*
X-71494Y55976D01*
X-71613Y56520D01*
X-71731Y57136D01*
X-71826Y57800D01*
X-71849Y58487D01*
Y58510D01*
Y58581D01*
Y58676D01*
X-71826Y58818D01*
Y58984D01*
X-71802Y59197D01*
X-71778Y59411D01*
X-71755Y59671D01*
X-71684Y60216D01*
X-71541Y60832D01*
X-71376Y61471D01*
X-71139Y62111D01*
Y62135D01*
X-71115Y62182D01*
X-71068Y62277D01*
X-70997Y62395D01*
X-70925Y62538D01*
X-70831Y62727D01*
X-70618Y63130D01*
X-70333Y63580D01*
X-69978Y64077D01*
X-69575Y64575D01*
X-69125Y65072D01*
X-69101Y65096D01*
X-69078Y65120D01*
X-69007Y65191D01*
X-68888Y65286D01*
X-68770Y65404D01*
X-68628Y65522D01*
X-68272Y65807D01*
X-67822Y66138D01*
X-67325Y66470D01*
X-66756Y66778D01*
X-66140Y67086D01*
X-66116D01*
X-66069Y67110D01*
X-65974Y67157D01*
X-65832Y67204D01*
X-65690Y67252D01*
X-65500Y67323D01*
X-65287Y67394D01*
X-65050Y67465D01*
X-64505Y67584D01*
X-63890Y67702D01*
X-63226Y67797D01*
X-62539Y67821D01*
X-62208D01*
X-62042Y67797D01*
D02*
G37*
G36*
X50321Y-71511D02*
X49740D01*
Y-70973D01*
X50321D01*
Y-71511D01*
D02*
G37*
G36*
X19049Y-70921D02*
X19097Y-70925D01*
X19154Y-70929D01*
X19215Y-70934D01*
X19281Y-70947D01*
X19421Y-70973D01*
X19565Y-71017D01*
X19639Y-71043D01*
X19709Y-71074D01*
X19774Y-71109D01*
X19836Y-71152D01*
X19840Y-71157D01*
X19849Y-71161D01*
X19866Y-71178D01*
X19888Y-71196D01*
X19914Y-71218D01*
X19941Y-71248D01*
X19971Y-71283D01*
X20006Y-71323D01*
X20041Y-71366D01*
X20076Y-71414D01*
X20111Y-71467D01*
X20142Y-71528D01*
X20177Y-71589D01*
X20203Y-71655D01*
X20229Y-71729D01*
X20246Y-71803D01*
X19639Y-71917D01*
Y-71913D01*
X19635Y-71908D01*
X19626Y-71882D01*
X19609Y-71843D01*
X19582Y-71790D01*
X19552Y-71733D01*
X19508Y-71677D01*
X19455Y-71620D01*
X19394Y-71567D01*
X19386Y-71563D01*
X19364Y-71545D01*
X19324Y-71524D01*
X19276Y-71502D01*
X19211Y-71476D01*
X19137Y-71458D01*
X19053Y-71441D01*
X18957Y-71436D01*
X18918D01*
X18892Y-71441D01*
X18857Y-71445D01*
X18817Y-71449D01*
X18774Y-71458D01*
X18726Y-71467D01*
X18625Y-71497D01*
X18573Y-71519D01*
X18520Y-71545D01*
X18468Y-71576D01*
X18416Y-71607D01*
X18367Y-71650D01*
X18319Y-71694D01*
X18315Y-71698D01*
X18311Y-71707D01*
X18297Y-71720D01*
X18284Y-71742D01*
X18267Y-71768D01*
X18245Y-71799D01*
X18223Y-71838D01*
X18206Y-71882D01*
X18184Y-71934D01*
X18162Y-71991D01*
X18140Y-72052D01*
X18123Y-72118D01*
X18110Y-72192D01*
X18096Y-72275D01*
X18092Y-72358D01*
X18088Y-72450D01*
Y-72455D01*
Y-72472D01*
Y-72502D01*
X18092Y-72537D01*
X18096Y-72586D01*
X18101Y-72634D01*
X18110Y-72695D01*
X18118Y-72756D01*
X18145Y-72887D01*
X18188Y-73023D01*
X18214Y-73088D01*
X18245Y-73149D01*
X18284Y-73211D01*
X18324Y-73263D01*
X18328Y-73267D01*
X18337Y-73276D01*
X18350Y-73289D01*
X18367Y-73307D01*
X18394Y-73324D01*
X18420Y-73350D01*
X18455Y-73372D01*
X18494Y-73398D01*
X18538Y-73425D01*
X18582Y-73447D01*
X18691Y-73490D01*
X18752Y-73508D01*
X18813Y-73521D01*
X18883Y-73529D01*
X18953Y-73534D01*
X18988D01*
X19023Y-73529D01*
X19075Y-73525D01*
X19132Y-73516D01*
X19198Y-73503D01*
X19268Y-73486D01*
X19338Y-73460D01*
X19342D01*
X19346Y-73455D01*
X19368Y-73447D01*
X19408Y-73429D01*
X19451Y-73407D01*
X19504Y-73381D01*
X19560Y-73350D01*
X19617Y-73315D01*
X19670Y-73276D01*
Y-72887D01*
X18970D01*
Y-72376D01*
X20286D01*
Y-73591D01*
X20277Y-73599D01*
X20264Y-73608D01*
X20251Y-73621D01*
X20229Y-73639D01*
X20207Y-73656D01*
X20146Y-73700D01*
X20063Y-73748D01*
X19967Y-73805D01*
X19858Y-73862D01*
X19726Y-73914D01*
X19722D01*
X19709Y-73918D01*
X19692Y-73927D01*
X19665Y-73936D01*
X19630Y-73945D01*
X19591Y-73958D01*
X19547Y-73971D01*
X19499Y-73984D01*
X19390Y-74010D01*
X19263Y-74032D01*
X19132Y-74050D01*
X18992Y-74054D01*
X18944D01*
X18914Y-74050D01*
X18870D01*
X18822Y-74045D01*
X18769Y-74036D01*
X18708Y-74028D01*
X18582Y-74006D01*
X18442Y-73971D01*
X18297Y-73923D01*
X18232Y-73892D01*
X18162Y-73857D01*
X18158Y-73853D01*
X18149Y-73848D01*
X18127Y-73835D01*
X18105Y-73818D01*
X18075Y-73800D01*
X18044Y-73774D01*
X18005Y-73744D01*
X17965Y-73709D01*
X17878Y-73630D01*
X17790Y-73529D01*
X17707Y-73416D01*
X17633Y-73285D01*
Y-73280D01*
X17625Y-73267D01*
X17616Y-73245D01*
X17607Y-73219D01*
X17594Y-73184D01*
X17576Y-73145D01*
X17563Y-73097D01*
X17546Y-73044D01*
X17528Y-72988D01*
X17515Y-72922D01*
X17485Y-72787D01*
X17467Y-72638D01*
X17458Y-72476D01*
Y-72472D01*
Y-72455D01*
Y-72428D01*
X17463Y-72398D01*
Y-72354D01*
X17467Y-72306D01*
X17476Y-72253D01*
X17485Y-72192D01*
X17506Y-72066D01*
X17541Y-71921D01*
X17590Y-71777D01*
X17620Y-71707D01*
X17655Y-71637D01*
X17660Y-71633D01*
X17664Y-71620D01*
X17677Y-71602D01*
X17690Y-71576D01*
X17712Y-71545D01*
X17738Y-71511D01*
X17769Y-71471D01*
X17799Y-71428D01*
X17839Y-71384D01*
X17882Y-71336D01*
X17930Y-71288D01*
X17983Y-71240D01*
X18040Y-71196D01*
X18096Y-71148D01*
X18232Y-71069D01*
X18236D01*
X18245Y-71060D01*
X18262Y-71056D01*
X18284Y-71043D01*
X18315Y-71034D01*
X18346Y-71021D01*
X18389Y-71008D01*
X18433Y-70991D01*
X18481Y-70977D01*
X18538Y-70964D01*
X18599Y-70951D01*
X18660Y-70938D01*
X18800Y-70921D01*
X18957Y-70916D01*
X19010D01*
X19049Y-70921D01*
D02*
G37*
G36*
X42839Y-71760D02*
X42887Y-71768D01*
X42949Y-71781D01*
X43014Y-71803D01*
X43080Y-71830D01*
X43150Y-71869D01*
X42966Y-72371D01*
X42962Y-72367D01*
X42940Y-72358D01*
X42914Y-72341D01*
X42879Y-72323D01*
X42835Y-72306D01*
X42791Y-72288D01*
X42743Y-72280D01*
X42695Y-72275D01*
X42678D01*
X42652Y-72280D01*
X42625Y-72284D01*
X42595Y-72293D01*
X42560Y-72306D01*
X42525Y-72323D01*
X42490Y-72345D01*
X42485Y-72350D01*
X42477Y-72358D01*
X42459Y-72376D01*
X42442Y-72402D01*
X42420Y-72433D01*
X42398Y-72476D01*
X42376Y-72529D01*
X42359Y-72590D01*
Y-72599D01*
X42354Y-72612D01*
X42350Y-72625D01*
Y-72647D01*
X42346Y-72673D01*
X42341Y-72708D01*
X42337Y-72747D01*
X42333Y-72791D01*
X42328Y-72848D01*
X42324Y-72905D01*
Y-72974D01*
X42319Y-73049D01*
X42315Y-73132D01*
Y-73224D01*
Y-73324D01*
Y-73997D01*
X41734D01*
Y-71803D01*
X42271D01*
Y-72114D01*
X42276Y-72109D01*
X42293Y-72083D01*
X42319Y-72044D01*
X42354Y-71996D01*
X42389Y-71948D01*
X42433Y-71899D01*
X42472Y-71856D01*
X42516Y-71825D01*
X42520Y-71821D01*
X42533Y-71812D01*
X42560Y-71803D01*
X42590Y-71790D01*
X42625Y-71777D01*
X42669Y-71764D01*
X42713Y-71760D01*
X42765Y-71755D01*
X42800D01*
X42839Y-71760D01*
D02*
G37*
G36*
X54822D02*
X54870Y-71764D01*
X54922Y-71773D01*
X54979Y-71786D01*
X55040Y-71803D01*
X55102Y-71825D01*
X55110Y-71830D01*
X55128Y-71838D01*
X55158Y-71851D01*
X55193Y-71873D01*
X55233Y-71899D01*
X55272Y-71930D01*
X55311Y-71965D01*
X55346Y-72004D01*
X55351Y-72009D01*
X55359Y-72022D01*
X55373Y-72044D01*
X55390Y-72074D01*
X55412Y-72109D01*
X55429Y-72153D01*
X55447Y-72197D01*
X55460Y-72249D01*
Y-72253D01*
X55464Y-72275D01*
X55473Y-72306D01*
X55477Y-72350D01*
X55486Y-72402D01*
X55490Y-72472D01*
X55495Y-72546D01*
Y-72638D01*
Y-73997D01*
X54914D01*
Y-72883D01*
Y-72878D01*
Y-72865D01*
Y-72848D01*
Y-72826D01*
Y-72795D01*
Y-72765D01*
X54909Y-72690D01*
X54905Y-72616D01*
X54896Y-72537D01*
X54887Y-72472D01*
X54883Y-72446D01*
X54874Y-72424D01*
Y-72420D01*
X54866Y-72406D01*
X54857Y-72389D01*
X54844Y-72363D01*
X54804Y-72310D01*
X54783Y-72284D01*
X54752Y-72262D01*
X54748Y-72258D01*
X54739Y-72253D01*
X54721Y-72245D01*
X54695Y-72232D01*
X54665Y-72219D01*
X54634Y-72210D01*
X54595Y-72205D01*
X54551Y-72201D01*
X54525D01*
X54499Y-72205D01*
X54464Y-72210D01*
X54420Y-72223D01*
X54376Y-72236D01*
X54328Y-72258D01*
X54280Y-72284D01*
X54276Y-72288D01*
X54263Y-72297D01*
X54241Y-72319D01*
X54215Y-72341D01*
X54188Y-72376D01*
X54162Y-72411D01*
X54136Y-72459D01*
X54118Y-72507D01*
Y-72511D01*
X54110Y-72533D01*
X54105Y-72568D01*
X54097Y-72620D01*
X54092Y-72651D01*
X54088Y-72690D01*
X54083Y-72730D01*
Y-72778D01*
X54079Y-72826D01*
X54075Y-72883D01*
Y-72944D01*
Y-73010D01*
Y-73997D01*
X53493D01*
Y-71803D01*
X54031D01*
Y-72127D01*
X54035Y-72122D01*
X54044Y-72109D01*
X54062Y-72092D01*
X54083Y-72070D01*
X54110Y-72039D01*
X54145Y-72009D01*
X54184Y-71974D01*
X54228Y-71939D01*
X54276Y-71908D01*
X54333Y-71873D01*
X54389Y-71843D01*
X54455Y-71812D01*
X54525Y-71790D01*
X54595Y-71773D01*
X54673Y-71760D01*
X54752Y-71755D01*
X54783D01*
X54822Y-71760D01*
D02*
G37*
G36*
X44723D02*
X44771Y-71764D01*
X44823Y-71773D01*
X44880Y-71786D01*
X44941Y-71803D01*
X45002Y-71825D01*
X45011Y-71830D01*
X45029Y-71838D01*
X45059Y-71851D01*
X45094Y-71873D01*
X45134Y-71899D01*
X45173Y-71930D01*
X45212Y-71965D01*
X45247Y-72004D01*
X45252Y-72009D01*
X45260Y-72022D01*
X45274Y-72044D01*
X45291Y-72074D01*
X45313Y-72109D01*
X45330Y-72153D01*
X45348Y-72197D01*
X45361Y-72249D01*
Y-72253D01*
X45365Y-72275D01*
X45374Y-72306D01*
X45378Y-72350D01*
X45387Y-72402D01*
X45391Y-72472D01*
X45396Y-72546D01*
Y-72638D01*
Y-73997D01*
X44815D01*
Y-72883D01*
Y-72878D01*
Y-72865D01*
Y-72848D01*
Y-72826D01*
Y-72795D01*
Y-72765D01*
X44810Y-72690D01*
X44806Y-72616D01*
X44797Y-72537D01*
X44788Y-72472D01*
X44784Y-72446D01*
X44775Y-72424D01*
Y-72420D01*
X44767Y-72406D01*
X44758Y-72389D01*
X44745Y-72363D01*
X44705Y-72310D01*
X44684Y-72284D01*
X44653Y-72262D01*
X44649Y-72258D01*
X44640Y-72253D01*
X44622Y-72245D01*
X44596Y-72232D01*
X44565Y-72219D01*
X44535Y-72210D01*
X44496Y-72205D01*
X44452Y-72201D01*
X44426D01*
X44399Y-72205D01*
X44365Y-72210D01*
X44321Y-72223D01*
X44277Y-72236D01*
X44229Y-72258D01*
X44181Y-72284D01*
X44177Y-72288D01*
X44164Y-72297D01*
X44142Y-72319D01*
X44115Y-72341D01*
X44089Y-72376D01*
X44063Y-72411D01*
X44037Y-72459D01*
X44019Y-72507D01*
Y-72511D01*
X44011Y-72533D01*
X44006Y-72568D01*
X43997Y-72620D01*
X43993Y-72651D01*
X43989Y-72690D01*
X43984Y-72730D01*
Y-72778D01*
X43980Y-72826D01*
X43976Y-72883D01*
Y-72944D01*
Y-73010D01*
Y-73997D01*
X43394D01*
Y-71803D01*
X43932D01*
Y-72127D01*
X43936Y-72122D01*
X43945Y-72109D01*
X43962Y-72092D01*
X43984Y-72070D01*
X44011Y-72039D01*
X44045Y-72009D01*
X44085Y-71974D01*
X44129Y-71939D01*
X44177Y-71908D01*
X44233Y-71873D01*
X44290Y-71843D01*
X44356Y-71812D01*
X44426Y-71790D01*
X44496Y-71773D01*
X44574Y-71760D01*
X44653Y-71755D01*
X44684D01*
X44723Y-71760D01*
D02*
G37*
G36*
X36739D02*
X36787Y-71764D01*
X36839Y-71773D01*
X36896Y-71786D01*
X36957Y-71803D01*
X37018Y-71825D01*
X37027Y-71830D01*
X37045Y-71838D01*
X37075Y-71851D01*
X37110Y-71873D01*
X37150Y-71899D01*
X37189Y-71930D01*
X37228Y-71965D01*
X37263Y-72004D01*
X37268Y-72009D01*
X37276Y-72022D01*
X37290Y-72044D01*
X37307Y-72074D01*
X37329Y-72109D01*
X37346Y-72153D01*
X37364Y-72197D01*
X37377Y-72249D01*
Y-72253D01*
X37381Y-72275D01*
X37390Y-72306D01*
X37394Y-72350D01*
X37403Y-72402D01*
X37407Y-72472D01*
X37412Y-72546D01*
Y-72638D01*
Y-73997D01*
X36831D01*
Y-72883D01*
Y-72878D01*
Y-72865D01*
Y-72848D01*
Y-72826D01*
Y-72795D01*
Y-72765D01*
X36826Y-72690D01*
X36822Y-72616D01*
X36813Y-72537D01*
X36804Y-72472D01*
X36800Y-72446D01*
X36791Y-72424D01*
Y-72420D01*
X36783Y-72406D01*
X36774Y-72389D01*
X36761Y-72363D01*
X36721Y-72310D01*
X36700Y-72284D01*
X36669Y-72262D01*
X36665Y-72258D01*
X36656Y-72253D01*
X36638Y-72245D01*
X36612Y-72232D01*
X36582Y-72219D01*
X36551Y-72210D01*
X36512Y-72205D01*
X36468Y-72201D01*
X36442D01*
X36415Y-72205D01*
X36380Y-72210D01*
X36337Y-72223D01*
X36293Y-72236D01*
X36245Y-72258D01*
X36197Y-72284D01*
X36193Y-72288D01*
X36180Y-72297D01*
X36158Y-72319D01*
X36131Y-72341D01*
X36105Y-72376D01*
X36079Y-72411D01*
X36053Y-72459D01*
X36035Y-72507D01*
Y-72511D01*
X36027Y-72533D01*
X36022Y-72568D01*
X36013Y-72620D01*
X36009Y-72651D01*
X36005Y-72690D01*
X36000Y-72730D01*
Y-72778D01*
X35996Y-72826D01*
X35992Y-72883D01*
Y-72944D01*
Y-73010D01*
Y-73997D01*
X35410D01*
Y-71803D01*
X35948D01*
Y-72127D01*
X35952Y-72122D01*
X35961Y-72109D01*
X35978Y-72092D01*
X36000Y-72070D01*
X36027Y-72039D01*
X36061Y-72009D01*
X36101Y-71974D01*
X36145Y-71939D01*
X36193Y-71908D01*
X36249Y-71873D01*
X36306Y-71843D01*
X36372Y-71812D01*
X36442Y-71790D01*
X36512Y-71773D01*
X36590Y-71760D01*
X36669Y-71755D01*
X36700D01*
X36739Y-71760D01*
D02*
G37*
G36*
X24520D02*
X24568Y-71764D01*
X24621Y-71773D01*
X24678Y-71786D01*
X24739Y-71803D01*
X24800Y-71825D01*
X24809Y-71830D01*
X24826Y-71838D01*
X24857Y-71851D01*
X24892Y-71873D01*
X24931Y-71899D01*
X24971Y-71930D01*
X25010Y-71965D01*
X25045Y-72004D01*
X25049Y-72009D01*
X25058Y-72022D01*
X25071Y-72044D01*
X25089Y-72074D01*
X25110Y-72109D01*
X25128Y-72153D01*
X25145Y-72197D01*
X25158Y-72249D01*
Y-72253D01*
X25163Y-72275D01*
X25172Y-72306D01*
X25176Y-72350D01*
X25185Y-72402D01*
X25189Y-72472D01*
X25193Y-72546D01*
Y-72638D01*
Y-73997D01*
X24612D01*
Y-72883D01*
Y-72878D01*
Y-72865D01*
Y-72848D01*
Y-72826D01*
Y-72795D01*
Y-72765D01*
X24608Y-72690D01*
X24603Y-72616D01*
X24595Y-72537D01*
X24586Y-72472D01*
X24581Y-72446D01*
X24573Y-72424D01*
Y-72420D01*
X24564Y-72406D01*
X24555Y-72389D01*
X24542Y-72363D01*
X24503Y-72310D01*
X24481Y-72284D01*
X24450Y-72262D01*
X24446Y-72258D01*
X24437Y-72253D01*
X24420Y-72245D01*
X24394Y-72232D01*
X24363Y-72219D01*
X24332Y-72210D01*
X24293Y-72205D01*
X24249Y-72201D01*
X24223D01*
X24197Y-72205D01*
X24162Y-72210D01*
X24118Y-72223D01*
X24075Y-72236D01*
X24026Y-72258D01*
X23979Y-72284D01*
X23974Y-72288D01*
X23961Y-72297D01*
X23939Y-72319D01*
X23913Y-72341D01*
X23887Y-72376D01*
X23860Y-72411D01*
X23834Y-72459D01*
X23817Y-72507D01*
Y-72511D01*
X23808Y-72533D01*
X23804Y-72568D01*
X23795Y-72620D01*
X23791Y-72651D01*
X23786Y-72690D01*
X23782Y-72730D01*
Y-72778D01*
X23777Y-72826D01*
X23773Y-72883D01*
Y-72944D01*
Y-73010D01*
Y-73997D01*
X23192D01*
Y-71803D01*
X23729D01*
Y-72127D01*
X23734Y-72122D01*
X23742Y-72109D01*
X23760Y-72092D01*
X23782Y-72070D01*
X23808Y-72039D01*
X23843Y-72009D01*
X23882Y-71974D01*
X23926Y-71939D01*
X23974Y-71908D01*
X24031Y-71873D01*
X24088Y-71843D01*
X24153Y-71812D01*
X24223Y-71790D01*
X24293Y-71773D01*
X24372Y-71760D01*
X24450Y-71755D01*
X24481D01*
X24520Y-71760D01*
D02*
G37*
G36*
X31622D02*
X31665Y-71764D01*
X31713Y-71768D01*
X31766Y-71773D01*
X31875Y-71790D01*
X31984Y-71816D01*
X32089Y-71856D01*
X32137Y-71878D01*
X32181Y-71904D01*
X32185D01*
X32190Y-71913D01*
X32216Y-71930D01*
X32255Y-71965D01*
X32299Y-72013D01*
X32351Y-72070D01*
X32399Y-72144D01*
X32447Y-72232D01*
X32482Y-72332D01*
X31936Y-72433D01*
Y-72428D01*
X31927Y-72411D01*
X31919Y-72389D01*
X31906Y-72363D01*
X31888Y-72328D01*
X31862Y-72297D01*
X31836Y-72267D01*
X31801Y-72240D01*
X31796Y-72236D01*
X31783Y-72227D01*
X31761Y-72219D01*
X31731Y-72205D01*
X31692Y-72192D01*
X31644Y-72179D01*
X31587Y-72175D01*
X31521Y-72170D01*
X31482D01*
X31442Y-72175D01*
X31394Y-72179D01*
X31337Y-72188D01*
X31285Y-72197D01*
X31237Y-72214D01*
X31193Y-72236D01*
X31189D01*
X31185Y-72245D01*
X31163Y-72267D01*
X31137Y-72306D01*
X31132Y-72328D01*
X31128Y-72354D01*
Y-72358D01*
Y-72363D01*
X31137Y-72389D01*
X31154Y-72424D01*
X31167Y-72441D01*
X31185Y-72459D01*
X31189Y-72463D01*
X31207Y-72468D01*
X31215Y-72476D01*
X31233Y-72481D01*
X31255Y-72489D01*
X31281Y-72502D01*
X31316Y-72511D01*
X31351Y-72524D01*
X31394Y-72537D01*
X31447Y-72551D01*
X31504Y-72568D01*
X31569Y-72586D01*
X31644Y-72603D01*
X31727Y-72625D01*
X31731D01*
X31748Y-72629D01*
X31770Y-72634D01*
X31801Y-72642D01*
X31840Y-72655D01*
X31884Y-72664D01*
X31980Y-72695D01*
X32089Y-72734D01*
X32194Y-72778D01*
X32247Y-72804D01*
X32295Y-72826D01*
X32334Y-72856D01*
X32373Y-72883D01*
X32382Y-72891D01*
X32404Y-72909D01*
X32430Y-72944D01*
X32465Y-72992D01*
X32500Y-73053D01*
X32526Y-73127D01*
X32548Y-73215D01*
X32557Y-73311D01*
Y-73315D01*
Y-73324D01*
Y-73342D01*
X32552Y-73363D01*
X32548Y-73385D01*
X32544Y-73416D01*
X32526Y-73490D01*
X32496Y-73569D01*
X32474Y-73612D01*
X32452Y-73656D01*
X32421Y-73700D01*
X32386Y-73744D01*
X32347Y-73787D01*
X32303Y-73831D01*
X32299Y-73835D01*
X32290Y-73840D01*
X32277Y-73848D01*
X32255Y-73866D01*
X32229Y-73879D01*
X32198Y-73897D01*
X32159Y-73918D01*
X32115Y-73936D01*
X32067Y-73958D01*
X32010Y-73975D01*
X31949Y-73997D01*
X31884Y-74010D01*
X31809Y-74023D01*
X31731Y-74036D01*
X31648Y-74041D01*
X31560Y-74045D01*
X31517D01*
X31486Y-74041D01*
X31447D01*
X31403Y-74036D01*
X31355Y-74032D01*
X31303Y-74023D01*
X31189Y-74001D01*
X31071Y-73971D01*
X30953Y-73927D01*
X30900Y-73897D01*
X30848Y-73866D01*
X30844Y-73862D01*
X30835Y-73857D01*
X30822Y-73848D01*
X30809Y-73831D01*
X30761Y-73792D01*
X30708Y-73735D01*
X30652Y-73665D01*
X30599Y-73582D01*
X30551Y-73481D01*
X30512Y-73372D01*
X31093Y-73285D01*
Y-73294D01*
X31102Y-73311D01*
X31110Y-73342D01*
X31123Y-73381D01*
X31145Y-73425D01*
X31172Y-73464D01*
X31202Y-73508D01*
X31241Y-73543D01*
X31246Y-73547D01*
X31263Y-73556D01*
X31289Y-73569D01*
X31324Y-73582D01*
X31368Y-73599D01*
X31425Y-73612D01*
X31486Y-73621D01*
X31560Y-73626D01*
X31595D01*
X31639Y-73621D01*
X31687Y-73617D01*
X31740Y-73608D01*
X31796Y-73591D01*
X31849Y-73573D01*
X31897Y-73547D01*
X31901Y-73543D01*
X31910Y-73534D01*
X31923Y-73521D01*
X31936Y-73503D01*
X31949Y-73481D01*
X31962Y-73455D01*
X31971Y-73425D01*
X31976Y-73390D01*
Y-73385D01*
Y-73377D01*
X31971Y-73350D01*
X31958Y-73315D01*
X31932Y-73280D01*
X31923Y-73272D01*
X31910Y-73267D01*
X31892Y-73254D01*
X31866Y-73245D01*
X31831Y-73232D01*
X31792Y-73219D01*
X31740Y-73206D01*
X31731D01*
X31709Y-73197D01*
X31674Y-73189D01*
X31626Y-73180D01*
X31569Y-73167D01*
X31508Y-73149D01*
X31438Y-73132D01*
X31364Y-73110D01*
X31211Y-73066D01*
X31137Y-73044D01*
X31067Y-73018D01*
X31001Y-72996D01*
X30940Y-72970D01*
X30887Y-72944D01*
X30848Y-72922D01*
X30844Y-72918D01*
X30835Y-72913D01*
X30826Y-72905D01*
X30809Y-72887D01*
X30765Y-72848D01*
X30721Y-72791D01*
X30673Y-72721D01*
X30630Y-72638D01*
X30612Y-72590D01*
X30603Y-72537D01*
X30595Y-72485D01*
X30590Y-72428D01*
Y-72424D01*
Y-72415D01*
Y-72402D01*
X30595Y-72380D01*
X30599Y-72358D01*
X30603Y-72328D01*
X30617Y-72262D01*
X30643Y-72188D01*
X30686Y-72109D01*
X30708Y-72066D01*
X30739Y-72026D01*
X30774Y-71987D01*
X30813Y-71952D01*
X30817Y-71948D01*
X30822Y-71943D01*
X30835Y-71934D01*
X30857Y-71921D01*
X30879Y-71908D01*
X30909Y-71891D01*
X30944Y-71873D01*
X30984Y-71851D01*
X31032Y-71834D01*
X31084Y-71816D01*
X31141Y-71799D01*
X31202Y-71786D01*
X31272Y-71773D01*
X31346Y-71764D01*
X31425Y-71755D01*
X31587D01*
X31622Y-71760D01*
D02*
G37*
G36*
X59013Y-73997D02*
X58432D01*
Y-70973D01*
X59013D01*
Y-73997D01*
D02*
G37*
G36*
X57033Y-71760D02*
X57068D01*
X57156Y-71768D01*
X57247Y-71777D01*
X57343Y-71795D01*
X57435Y-71821D01*
X57474Y-71834D01*
X57514Y-71851D01*
X57518D01*
X57523Y-71856D01*
X57544Y-71869D01*
X57579Y-71886D01*
X57619Y-71913D01*
X57667Y-71948D01*
X57710Y-71987D01*
X57750Y-72035D01*
X57785Y-72083D01*
X57789Y-72092D01*
X57798Y-72109D01*
X57811Y-72149D01*
X57815Y-72170D01*
X57824Y-72201D01*
X57833Y-72232D01*
X57837Y-72271D01*
X57846Y-72315D01*
X57850Y-72363D01*
X57855Y-72415D01*
X57859Y-72472D01*
X57863Y-72533D01*
Y-72603D01*
X57855Y-73280D01*
Y-73285D01*
Y-73294D01*
Y-73307D01*
Y-73329D01*
Y-73381D01*
X57859Y-73442D01*
Y-73512D01*
X57868Y-73582D01*
X57872Y-73652D01*
X57881Y-73709D01*
Y-73713D01*
X57885Y-73730D01*
X57894Y-73761D01*
X57903Y-73796D01*
X57920Y-73840D01*
X57938Y-73888D01*
X57960Y-73940D01*
X57986Y-73997D01*
X57413D01*
Y-73993D01*
X57409Y-73988D01*
X57405Y-73971D01*
X57396Y-73953D01*
X57387Y-73931D01*
X57378Y-73901D01*
X57370Y-73866D01*
X57357Y-73827D01*
Y-73822D01*
X57352Y-73818D01*
X57348Y-73800D01*
X57339Y-73779D01*
X57335Y-73761D01*
X57326Y-73765D01*
X57309Y-73783D01*
X57278Y-73809D01*
X57239Y-73840D01*
X57191Y-73875D01*
X57138Y-73914D01*
X57077Y-73945D01*
X57016Y-73975D01*
X57007Y-73980D01*
X56985Y-73984D01*
X56950Y-73997D01*
X56906Y-74010D01*
X56854Y-74023D01*
X56793Y-74032D01*
X56723Y-74041D01*
X56653Y-74045D01*
X56622D01*
X56596Y-74041D01*
X56570D01*
X56535Y-74036D01*
X56461Y-74023D01*
X56373Y-74001D01*
X56286Y-73971D01*
X56199Y-73927D01*
X56120Y-73866D01*
Y-73862D01*
X56111Y-73857D01*
X56089Y-73831D01*
X56059Y-73792D01*
X56024Y-73739D01*
X55989Y-73674D01*
X55958Y-73595D01*
X55936Y-73503D01*
X55932Y-73455D01*
X55927Y-73403D01*
Y-73394D01*
Y-73372D01*
X55932Y-73337D01*
X55941Y-73294D01*
X55949Y-73241D01*
X55963Y-73189D01*
X55984Y-73132D01*
X56015Y-73075D01*
X56019Y-73066D01*
X56032Y-73049D01*
X56050Y-73023D01*
X56081Y-72992D01*
X56111Y-72957D01*
X56155Y-72918D01*
X56203Y-72883D01*
X56260Y-72852D01*
X56268Y-72848D01*
X56290Y-72839D01*
X56325Y-72826D01*
X56378Y-72804D01*
X56443Y-72782D01*
X56522Y-72760D01*
X56618Y-72738D01*
X56723Y-72717D01*
X56727D01*
X56740Y-72712D01*
X56762Y-72708D01*
X56788Y-72704D01*
X56823Y-72699D01*
X56863Y-72690D01*
X56950Y-72669D01*
X57042Y-72647D01*
X57138Y-72625D01*
X57221Y-72599D01*
X57260Y-72586D01*
X57291Y-72572D01*
Y-72516D01*
Y-72507D01*
Y-72489D01*
X57287Y-72459D01*
X57282Y-72420D01*
X57269Y-72380D01*
X57256Y-72341D01*
X57234Y-72306D01*
X57204Y-72275D01*
X57199Y-72271D01*
X57186Y-72262D01*
X57164Y-72253D01*
X57134Y-72236D01*
X57090Y-72223D01*
X57038Y-72214D01*
X56972Y-72205D01*
X56893Y-72201D01*
X56867D01*
X56841Y-72205D01*
X56806Y-72210D01*
X56767Y-72219D01*
X56723Y-72227D01*
X56684Y-72245D01*
X56649Y-72267D01*
X56644Y-72271D01*
X56635Y-72280D01*
X56618Y-72293D01*
X56600Y-72315D01*
X56574Y-72345D01*
X56552Y-72385D01*
X56531Y-72428D01*
X56509Y-72481D01*
X55989Y-72385D01*
Y-72380D01*
X55993Y-72371D01*
X55998Y-72354D01*
X56006Y-72332D01*
X56015Y-72306D01*
X56028Y-72275D01*
X56059Y-72205D01*
X56102Y-72131D01*
X56155Y-72052D01*
X56216Y-71978D01*
X56290Y-71913D01*
X56295D01*
X56299Y-71904D01*
X56312Y-71899D01*
X56330Y-71886D01*
X56356Y-71878D01*
X56382Y-71864D01*
X56417Y-71847D01*
X56452Y-71834D01*
X56496Y-71821D01*
X56544Y-71803D01*
X56596Y-71790D01*
X56657Y-71781D01*
X56718Y-71768D01*
X56788Y-71764D01*
X56858Y-71755D01*
X57003D01*
X57033Y-71760D01*
D02*
G37*
G36*
X50321Y-73997D02*
X49740D01*
Y-71803D01*
X50321D01*
Y-73997D01*
D02*
G37*
G36*
X46934Y-71760D02*
X46969D01*
X47056Y-71768D01*
X47148Y-71777D01*
X47244Y-71795D01*
X47336Y-71821D01*
X47376Y-71834D01*
X47415Y-71851D01*
X47419D01*
X47423Y-71856D01*
X47445Y-71869D01*
X47480Y-71886D01*
X47520Y-71913D01*
X47568Y-71948D01*
X47611Y-71987D01*
X47651Y-72035D01*
X47686Y-72083D01*
X47690Y-72092D01*
X47699Y-72109D01*
X47712Y-72149D01*
X47716Y-72170D01*
X47725Y-72201D01*
X47734Y-72232D01*
X47738Y-72271D01*
X47747Y-72315D01*
X47751Y-72363D01*
X47756Y-72415D01*
X47760Y-72472D01*
X47764Y-72533D01*
Y-72603D01*
X47756Y-73280D01*
Y-73285D01*
Y-73294D01*
Y-73307D01*
Y-73329D01*
Y-73381D01*
X47760Y-73442D01*
Y-73512D01*
X47769Y-73582D01*
X47773Y-73652D01*
X47782Y-73709D01*
Y-73713D01*
X47786Y-73730D01*
X47795Y-73761D01*
X47804Y-73796D01*
X47821Y-73840D01*
X47839Y-73888D01*
X47861Y-73940D01*
X47887Y-73997D01*
X47314D01*
Y-73993D01*
X47310Y-73988D01*
X47306Y-73971D01*
X47297Y-73953D01*
X47288Y-73931D01*
X47279Y-73901D01*
X47271Y-73866D01*
X47258Y-73827D01*
Y-73822D01*
X47253Y-73818D01*
X47249Y-73800D01*
X47240Y-73779D01*
X47236Y-73761D01*
X47227Y-73765D01*
X47209Y-73783D01*
X47179Y-73809D01*
X47139Y-73840D01*
X47091Y-73875D01*
X47039Y-73914D01*
X46978Y-73945D01*
X46917Y-73975D01*
X46908Y-73980D01*
X46886Y-73984D01*
X46851Y-73997D01*
X46807Y-74010D01*
X46755Y-74023D01*
X46694Y-74032D01*
X46624Y-74041D01*
X46554Y-74045D01*
X46523D01*
X46497Y-74041D01*
X46471D01*
X46436Y-74036D01*
X46362Y-74023D01*
X46274Y-74001D01*
X46187Y-73971D01*
X46099Y-73927D01*
X46021Y-73866D01*
Y-73862D01*
X46012Y-73857D01*
X45990Y-73831D01*
X45960Y-73792D01*
X45925Y-73739D01*
X45890Y-73674D01*
X45859Y-73595D01*
X45837Y-73503D01*
X45833Y-73455D01*
X45829Y-73403D01*
Y-73394D01*
Y-73372D01*
X45833Y-73337D01*
X45842Y-73294D01*
X45850Y-73241D01*
X45863Y-73189D01*
X45885Y-73132D01*
X45916Y-73075D01*
X45920Y-73066D01*
X45933Y-73049D01*
X45951Y-73023D01*
X45981Y-72992D01*
X46012Y-72957D01*
X46056Y-72918D01*
X46104Y-72883D01*
X46161Y-72852D01*
X46169Y-72848D01*
X46191Y-72839D01*
X46226Y-72826D01*
X46279Y-72804D01*
X46344Y-72782D01*
X46423Y-72760D01*
X46519Y-72738D01*
X46624Y-72717D01*
X46628D01*
X46641Y-72712D01*
X46663Y-72708D01*
X46689Y-72704D01*
X46724Y-72699D01*
X46764Y-72690D01*
X46851Y-72669D01*
X46943Y-72647D01*
X47039Y-72625D01*
X47122Y-72599D01*
X47161Y-72586D01*
X47192Y-72572D01*
Y-72516D01*
Y-72507D01*
Y-72489D01*
X47188Y-72459D01*
X47183Y-72420D01*
X47170Y-72380D01*
X47157Y-72341D01*
X47135Y-72306D01*
X47104Y-72275D01*
X47100Y-72271D01*
X47087Y-72262D01*
X47065Y-72253D01*
X47035Y-72236D01*
X46991Y-72223D01*
X46938Y-72214D01*
X46873Y-72205D01*
X46794Y-72201D01*
X46768D01*
X46742Y-72205D01*
X46707Y-72210D01*
X46668Y-72219D01*
X46624Y-72227D01*
X46584Y-72245D01*
X46549Y-72267D01*
X46545Y-72271D01*
X46536Y-72280D01*
X46519Y-72293D01*
X46501Y-72315D01*
X46475Y-72345D01*
X46453Y-72385D01*
X46431Y-72428D01*
X46410Y-72481D01*
X45890Y-72385D01*
Y-72380D01*
X45894Y-72371D01*
X45898Y-72354D01*
X45907Y-72332D01*
X45916Y-72306D01*
X45929Y-72275D01*
X45960Y-72205D01*
X46003Y-72131D01*
X46056Y-72052D01*
X46117Y-71978D01*
X46191Y-71913D01*
X46196D01*
X46200Y-71904D01*
X46213Y-71899D01*
X46231Y-71886D01*
X46257Y-71878D01*
X46283Y-71864D01*
X46318Y-71847D01*
X46353Y-71834D01*
X46397Y-71821D01*
X46445Y-71803D01*
X46497Y-71790D01*
X46558Y-71781D01*
X46619Y-71768D01*
X46689Y-71764D01*
X46759Y-71755D01*
X46903D01*
X46934Y-71760D01*
D02*
G37*
G36*
X34838Y-73997D02*
X34226D01*
Y-70973D01*
X34838D01*
Y-73997D01*
D02*
G37*
G36*
X21798Y-71760D02*
X21833D01*
X21920Y-71768D01*
X22012Y-71777D01*
X22108Y-71795D01*
X22200Y-71821D01*
X22239Y-71834D01*
X22278Y-71851D01*
X22283D01*
X22287Y-71856D01*
X22309Y-71869D01*
X22344Y-71886D01*
X22383Y-71913D01*
X22432Y-71948D01*
X22475Y-71987D01*
X22514Y-72035D01*
X22549Y-72083D01*
X22554Y-72092D01*
X22563Y-72109D01*
X22576Y-72149D01*
X22580Y-72170D01*
X22589Y-72201D01*
X22598Y-72232D01*
X22602Y-72271D01*
X22611Y-72315D01*
X22615Y-72363D01*
X22619Y-72415D01*
X22624Y-72472D01*
X22628Y-72533D01*
Y-72603D01*
X22619Y-73280D01*
Y-73285D01*
Y-73294D01*
Y-73307D01*
Y-73329D01*
Y-73381D01*
X22624Y-73442D01*
Y-73512D01*
X22633Y-73582D01*
X22637Y-73652D01*
X22646Y-73709D01*
Y-73713D01*
X22650Y-73730D01*
X22659Y-73761D01*
X22668Y-73796D01*
X22685Y-73840D01*
X22702Y-73888D01*
X22724Y-73940D01*
X22750Y-73997D01*
X22178D01*
Y-73993D01*
X22174Y-73988D01*
X22169Y-73971D01*
X22161Y-73953D01*
X22152Y-73931D01*
X22143Y-73901D01*
X22134Y-73866D01*
X22121Y-73827D01*
Y-73822D01*
X22117Y-73818D01*
X22113Y-73800D01*
X22104Y-73779D01*
X22099Y-73761D01*
X22091Y-73765D01*
X22073Y-73783D01*
X22043Y-73809D01*
X22003Y-73840D01*
X21955Y-73875D01*
X21903Y-73914D01*
X21842Y-73945D01*
X21780Y-73975D01*
X21772Y-73980D01*
X21750Y-73984D01*
X21715Y-73997D01*
X21671Y-74010D01*
X21619Y-74023D01*
X21557Y-74032D01*
X21488Y-74041D01*
X21418Y-74045D01*
X21387D01*
X21361Y-74041D01*
X21335D01*
X21300Y-74036D01*
X21225Y-74023D01*
X21138Y-74001D01*
X21051Y-73971D01*
X20963Y-73927D01*
X20885Y-73866D01*
Y-73862D01*
X20876Y-73857D01*
X20854Y-73831D01*
X20823Y-73792D01*
X20788Y-73739D01*
X20753Y-73674D01*
X20723Y-73595D01*
X20701Y-73503D01*
X20697Y-73455D01*
X20692Y-73403D01*
Y-73394D01*
Y-73372D01*
X20697Y-73337D01*
X20705Y-73294D01*
X20714Y-73241D01*
X20727Y-73189D01*
X20749Y-73132D01*
X20780Y-73075D01*
X20784Y-73066D01*
X20797Y-73049D01*
X20815Y-73023D01*
X20845Y-72992D01*
X20876Y-72957D01*
X20920Y-72918D01*
X20967Y-72883D01*
X21024Y-72852D01*
X21033Y-72848D01*
X21055Y-72839D01*
X21090Y-72826D01*
X21142Y-72804D01*
X21208Y-72782D01*
X21286Y-72760D01*
X21383Y-72738D01*
X21488Y-72717D01*
X21492D01*
X21505Y-72712D01*
X21527Y-72708D01*
X21553Y-72704D01*
X21588Y-72699D01*
X21627Y-72690D01*
X21715Y-72669D01*
X21807Y-72647D01*
X21903Y-72625D01*
X21986Y-72599D01*
X22025Y-72586D01*
X22056Y-72572D01*
Y-72516D01*
Y-72507D01*
Y-72489D01*
X22051Y-72459D01*
X22047Y-72420D01*
X22034Y-72380D01*
X22021Y-72341D01*
X21999Y-72306D01*
X21968Y-72275D01*
X21964Y-72271D01*
X21951Y-72262D01*
X21929Y-72253D01*
X21898Y-72236D01*
X21855Y-72223D01*
X21802Y-72214D01*
X21737Y-72205D01*
X21658Y-72201D01*
X21632D01*
X21606Y-72205D01*
X21571Y-72210D01*
X21531Y-72219D01*
X21488Y-72227D01*
X21448Y-72245D01*
X21413Y-72267D01*
X21409Y-72271D01*
X21400Y-72280D01*
X21383Y-72293D01*
X21365Y-72315D01*
X21339Y-72345D01*
X21317Y-72385D01*
X21295Y-72428D01*
X21273Y-72481D01*
X20753Y-72385D01*
Y-72380D01*
X20758Y-72371D01*
X20762Y-72354D01*
X20771Y-72332D01*
X20780Y-72306D01*
X20793Y-72275D01*
X20823Y-72205D01*
X20867Y-72131D01*
X20920Y-72052D01*
X20981Y-71978D01*
X21055Y-71913D01*
X21059D01*
X21064Y-71904D01*
X21077Y-71899D01*
X21094Y-71886D01*
X21121Y-71878D01*
X21147Y-71864D01*
X21182Y-71847D01*
X21217Y-71834D01*
X21260Y-71821D01*
X21308Y-71803D01*
X21361Y-71790D01*
X21422Y-71781D01*
X21483Y-71768D01*
X21553Y-71764D01*
X21623Y-71755D01*
X21767D01*
X21798Y-71760D01*
D02*
G37*
G36*
X60525D02*
X60564Y-71764D01*
X60612Y-71773D01*
X60665Y-71781D01*
X60721Y-71795D01*
X60783Y-71812D01*
X60844Y-71834D01*
X60909Y-71860D01*
X60975Y-71895D01*
X61036Y-71930D01*
X61097Y-71974D01*
X61158Y-72026D01*
X61211Y-72083D01*
X61215Y-72087D01*
X61224Y-72096D01*
X61237Y-72118D01*
X61255Y-72144D01*
X61276Y-72179D01*
X61298Y-72219D01*
X61325Y-72271D01*
X61351Y-72328D01*
X61377Y-72393D01*
X61403Y-72468D01*
X61425Y-72546D01*
X61447Y-72638D01*
X61464Y-72734D01*
X61477Y-72839D01*
X61486Y-72948D01*
Y-73071D01*
X60035D01*
Y-73075D01*
Y-73084D01*
Y-73097D01*
X60040Y-73114D01*
X60044Y-73158D01*
X60053Y-73219D01*
X60070Y-73280D01*
X60097Y-73350D01*
X60127Y-73416D01*
X60171Y-73473D01*
X60175Y-73477D01*
X60197Y-73494D01*
X60223Y-73516D01*
X60263Y-73543D01*
X60311Y-73569D01*
X60372Y-73591D01*
X60437Y-73608D01*
X60507Y-73612D01*
X60529D01*
X60555Y-73608D01*
X60586Y-73604D01*
X60621Y-73595D01*
X60660Y-73582D01*
X60700Y-73564D01*
X60734Y-73538D01*
X60739Y-73534D01*
X60752Y-73525D01*
X60769Y-73508D01*
X60787Y-73481D01*
X60813Y-73447D01*
X60835Y-73407D01*
X60857Y-73355D01*
X60879Y-73298D01*
X61456Y-73394D01*
Y-73398D01*
X61451Y-73407D01*
X61443Y-73425D01*
X61434Y-73447D01*
X61421Y-73473D01*
X61408Y-73503D01*
X61368Y-73573D01*
X61320Y-73652D01*
X61259Y-73735D01*
X61185Y-73809D01*
X61102Y-73879D01*
X61097D01*
X61093Y-73888D01*
X61075Y-73892D01*
X61058Y-73905D01*
X61036Y-73918D01*
X61006Y-73931D01*
X60975Y-73945D01*
X60936Y-73962D01*
X60848Y-73993D01*
X60748Y-74019D01*
X60630Y-74036D01*
X60503Y-74045D01*
X60477D01*
X60451Y-74041D01*
X60411D01*
X60363Y-74032D01*
X60306Y-74023D01*
X60245Y-74015D01*
X60184Y-73997D01*
X60114Y-73980D01*
X60044Y-73953D01*
X59974Y-73923D01*
X59904Y-73888D01*
X59834Y-73844D01*
X59769Y-73796D01*
X59712Y-73739D01*
X59655Y-73674D01*
X59651Y-73669D01*
X59646Y-73661D01*
X59638Y-73643D01*
X59620Y-73621D01*
X59607Y-73591D01*
X59590Y-73556D01*
X59568Y-73516D01*
X59550Y-73468D01*
X59528Y-73416D01*
X59511Y-73359D01*
X59489Y-73298D01*
X59476Y-73228D01*
X59463Y-73158D01*
X59450Y-73084D01*
X59445Y-73001D01*
X59441Y-72918D01*
Y-72913D01*
Y-72896D01*
Y-72865D01*
X59445Y-72826D01*
X59450Y-72782D01*
X59454Y-72730D01*
X59463Y-72673D01*
X59476Y-72607D01*
X59511Y-72472D01*
X59533Y-72402D01*
X59559Y-72328D01*
X59594Y-72258D01*
X59633Y-72192D01*
X59677Y-72127D01*
X59725Y-72066D01*
X59729Y-72061D01*
X59738Y-72052D01*
X59756Y-72035D01*
X59777Y-72018D01*
X59804Y-71996D01*
X59839Y-71969D01*
X59878Y-71939D01*
X59922Y-71908D01*
X59970Y-71882D01*
X60027Y-71851D01*
X60083Y-71825D01*
X60149Y-71803D01*
X60215Y-71786D01*
X60289Y-71768D01*
X60363Y-71760D01*
X60442Y-71755D01*
X60490D01*
X60525Y-71760D01*
D02*
G37*
G36*
X51995D02*
X52038Y-71764D01*
X52086Y-71773D01*
X52143Y-71781D01*
X52200Y-71795D01*
X52266Y-71812D01*
X52331Y-71834D01*
X52397Y-71860D01*
X52466Y-71891D01*
X52536Y-71930D01*
X52602Y-71974D01*
X52667Y-72022D01*
X52729Y-72079D01*
X52733Y-72083D01*
X52742Y-72092D01*
X52759Y-72114D01*
X52777Y-72136D01*
X52803Y-72170D01*
X52829Y-72205D01*
X52860Y-72253D01*
X52890Y-72302D01*
X52917Y-72358D01*
X52947Y-72420D01*
X52973Y-72489D01*
X53000Y-72559D01*
X53017Y-72638D01*
X53035Y-72717D01*
X53043Y-72804D01*
X53048Y-72896D01*
Y-72900D01*
Y-72918D01*
Y-72944D01*
X53043Y-72979D01*
X53039Y-73023D01*
X53030Y-73071D01*
X53022Y-73127D01*
X53008Y-73184D01*
X52991Y-73250D01*
X52969Y-73315D01*
X52943Y-73385D01*
X52912Y-73455D01*
X52873Y-73525D01*
X52829Y-73591D01*
X52781Y-73656D01*
X52724Y-73722D01*
X52720Y-73726D01*
X52711Y-73735D01*
X52694Y-73752D01*
X52667Y-73774D01*
X52637Y-73796D01*
X52598Y-73822D01*
X52554Y-73853D01*
X52506Y-73883D01*
X52449Y-73914D01*
X52388Y-73945D01*
X52322Y-73971D01*
X52248Y-73993D01*
X52174Y-74015D01*
X52091Y-74032D01*
X52008Y-74041D01*
X51916Y-74045D01*
X51885D01*
X51863Y-74041D01*
X51837D01*
X51807Y-74036D01*
X51732Y-74028D01*
X51641Y-74010D01*
X51544Y-73988D01*
X51444Y-73953D01*
X51339Y-73910D01*
X51335D01*
X51326Y-73905D01*
X51313Y-73897D01*
X51295Y-73883D01*
X51247Y-73853D01*
X51186Y-73809D01*
X51121Y-73752D01*
X51051Y-73682D01*
X50985Y-73604D01*
X50924Y-73512D01*
Y-73508D01*
X50920Y-73499D01*
X50911Y-73486D01*
X50902Y-73464D01*
X50893Y-73438D01*
X50880Y-73407D01*
X50867Y-73372D01*
X50854Y-73333D01*
X50841Y-73289D01*
X50828Y-73241D01*
X50806Y-73132D01*
X50788Y-73005D01*
X50784Y-72870D01*
Y-72865D01*
Y-72856D01*
Y-72839D01*
X50788Y-72822D01*
Y-72795D01*
X50793Y-72765D01*
X50801Y-72690D01*
X50819Y-72607D01*
X50845Y-72516D01*
X50876Y-72415D01*
X50924Y-72315D01*
Y-72310D01*
X50933Y-72302D01*
X50937Y-72288D01*
X50950Y-72271D01*
X50985Y-72223D01*
X51029Y-72162D01*
X51086Y-72096D01*
X51156Y-72026D01*
X51234Y-71961D01*
X51326Y-71899D01*
X51330D01*
X51339Y-71895D01*
X51352Y-71886D01*
X51374Y-71878D01*
X51396Y-71864D01*
X51426Y-71856D01*
X51461Y-71843D01*
X51496Y-71825D01*
X51584Y-71799D01*
X51684Y-71777D01*
X51793Y-71760D01*
X51911Y-71755D01*
X51960D01*
X51995Y-71760D01*
D02*
G37*
G36*
X48944Y-71803D02*
X49342D01*
Y-72267D01*
X48944D01*
Y-73154D01*
Y-73158D01*
Y-73167D01*
Y-73180D01*
Y-73197D01*
Y-73241D01*
Y-73294D01*
X48949Y-73346D01*
Y-73398D01*
Y-73438D01*
X48953Y-73455D01*
Y-73464D01*
X48957Y-73473D01*
X48966Y-73490D01*
X48979Y-73512D01*
X49005Y-73538D01*
X49014Y-73543D01*
X49032Y-73551D01*
X49062Y-73560D01*
X49102Y-73564D01*
X49119D01*
X49137Y-73560D01*
X49163Y-73556D01*
X49198Y-73551D01*
X49237Y-73543D01*
X49285Y-73529D01*
X49338Y-73512D01*
X49390Y-73962D01*
X49386D01*
X49381Y-73966D01*
X49355Y-73975D01*
X49311Y-73988D01*
X49255Y-74001D01*
X49189Y-74019D01*
X49110Y-74032D01*
X49023Y-74041D01*
X48931Y-74045D01*
X48905D01*
X48874Y-74041D01*
X48835Y-74036D01*
X48791Y-74032D01*
X48743Y-74023D01*
X48695Y-74010D01*
X48647Y-73993D01*
X48643Y-73988D01*
X48625Y-73984D01*
X48603Y-73971D01*
X48577Y-73958D01*
X48516Y-73914D01*
X48485Y-73888D01*
X48459Y-73857D01*
X48455Y-73853D01*
X48450Y-73840D01*
X48442Y-73822D01*
X48429Y-73796D01*
X48415Y-73765D01*
X48402Y-73726D01*
X48389Y-73682D01*
X48381Y-73634D01*
Y-73630D01*
X48376Y-73612D01*
Y-73586D01*
X48372Y-73543D01*
X48367Y-73486D01*
Y-73416D01*
X48363Y-73377D01*
Y-73329D01*
Y-73280D01*
Y-73224D01*
Y-72267D01*
X48096D01*
Y-71803D01*
X48363D01*
Y-71366D01*
X48944Y-71026D01*
Y-71803D01*
D02*
G37*
G36*
X40322Y-71760D02*
X40362Y-71764D01*
X40410Y-71773D01*
X40462Y-71781D01*
X40519Y-71795D01*
X40580Y-71812D01*
X40641Y-71834D01*
X40707Y-71860D01*
X40772Y-71895D01*
X40834Y-71930D01*
X40895Y-71974D01*
X40956Y-72026D01*
X41008Y-72083D01*
X41013Y-72087D01*
X41021Y-72096D01*
X41035Y-72118D01*
X41052Y-72144D01*
X41074Y-72179D01*
X41096Y-72219D01*
X41122Y-72271D01*
X41148Y-72328D01*
X41174Y-72393D01*
X41201Y-72468D01*
X41223Y-72546D01*
X41244Y-72638D01*
X41262Y-72734D01*
X41275Y-72839D01*
X41284Y-72948D01*
Y-73071D01*
X39833D01*
Y-73075D01*
Y-73084D01*
Y-73097D01*
X39837Y-73114D01*
X39842Y-73158D01*
X39850Y-73219D01*
X39868Y-73280D01*
X39894Y-73350D01*
X39925Y-73416D01*
X39968Y-73473D01*
X39973Y-73477D01*
X39994Y-73494D01*
X40021Y-73516D01*
X40060Y-73543D01*
X40108Y-73569D01*
X40169Y-73591D01*
X40235Y-73608D01*
X40305Y-73612D01*
X40327D01*
X40353Y-73608D01*
X40383Y-73604D01*
X40418Y-73595D01*
X40458Y-73582D01*
X40497Y-73564D01*
X40532Y-73538D01*
X40536Y-73534D01*
X40549Y-73525D01*
X40567Y-73508D01*
X40584Y-73481D01*
X40611Y-73447D01*
X40633Y-73407D01*
X40654Y-73355D01*
X40676Y-73298D01*
X41253Y-73394D01*
Y-73398D01*
X41249Y-73407D01*
X41240Y-73425D01*
X41231Y-73447D01*
X41218Y-73473D01*
X41205Y-73503D01*
X41166Y-73573D01*
X41118Y-73652D01*
X41056Y-73735D01*
X40982Y-73809D01*
X40899Y-73879D01*
X40895D01*
X40890Y-73888D01*
X40873Y-73892D01*
X40855Y-73905D01*
X40834Y-73918D01*
X40803Y-73931D01*
X40772Y-73945D01*
X40733Y-73962D01*
X40646Y-73993D01*
X40545Y-74019D01*
X40427Y-74036D01*
X40300Y-74045D01*
X40274D01*
X40248Y-74041D01*
X40209D01*
X40161Y-74032D01*
X40104Y-74023D01*
X40043Y-74015D01*
X39981Y-73997D01*
X39911Y-73980D01*
X39842Y-73953D01*
X39772Y-73923D01*
X39702Y-73888D01*
X39632Y-73844D01*
X39566Y-73796D01*
X39509Y-73739D01*
X39453Y-73674D01*
X39448Y-73669D01*
X39444Y-73661D01*
X39435Y-73643D01*
X39418Y-73621D01*
X39405Y-73591D01*
X39387Y-73556D01*
X39365Y-73516D01*
X39348Y-73468D01*
X39326Y-73416D01*
X39308Y-73359D01*
X39287Y-73298D01*
X39274Y-73228D01*
X39260Y-73158D01*
X39247Y-73084D01*
X39243Y-73001D01*
X39239Y-72918D01*
Y-72913D01*
Y-72896D01*
Y-72865D01*
X39243Y-72826D01*
X39247Y-72782D01*
X39252Y-72730D01*
X39260Y-72673D01*
X39274Y-72607D01*
X39308Y-72472D01*
X39330Y-72402D01*
X39356Y-72328D01*
X39391Y-72258D01*
X39431Y-72192D01*
X39474Y-72127D01*
X39523Y-72066D01*
X39527Y-72061D01*
X39536Y-72052D01*
X39553Y-72035D01*
X39575Y-72018D01*
X39601Y-71996D01*
X39636Y-71969D01*
X39676Y-71939D01*
X39719Y-71908D01*
X39767Y-71882D01*
X39824Y-71851D01*
X39881Y-71825D01*
X39946Y-71803D01*
X40012Y-71786D01*
X40086Y-71768D01*
X40161Y-71760D01*
X40239Y-71755D01*
X40287D01*
X40322Y-71760D01*
D02*
G37*
G36*
X38609Y-71803D02*
X39007D01*
Y-72267D01*
X38609D01*
Y-73154D01*
Y-73158D01*
Y-73167D01*
Y-73180D01*
Y-73197D01*
Y-73241D01*
Y-73294D01*
X38614Y-73346D01*
Y-73398D01*
Y-73438D01*
X38618Y-73455D01*
Y-73464D01*
X38622Y-73473D01*
X38631Y-73490D01*
X38644Y-73512D01*
X38670Y-73538D01*
X38679Y-73543D01*
X38697Y-73551D01*
X38727Y-73560D01*
X38767Y-73564D01*
X38784D01*
X38802Y-73560D01*
X38828Y-73556D01*
X38863Y-73551D01*
X38902Y-73543D01*
X38950Y-73529D01*
X39002Y-73512D01*
X39055Y-73962D01*
X39051D01*
X39046Y-73966D01*
X39020Y-73975D01*
X38976Y-73988D01*
X38919Y-74001D01*
X38854Y-74019D01*
X38775Y-74032D01*
X38688Y-74041D01*
X38596Y-74045D01*
X38570D01*
X38539Y-74041D01*
X38500Y-74036D01*
X38456Y-74032D01*
X38408Y-74023D01*
X38360Y-74010D01*
X38312Y-73993D01*
X38308Y-73988D01*
X38290Y-73984D01*
X38268Y-73971D01*
X38242Y-73958D01*
X38181Y-73914D01*
X38150Y-73888D01*
X38124Y-73857D01*
X38120Y-73853D01*
X38115Y-73840D01*
X38107Y-73822D01*
X38094Y-73796D01*
X38080Y-73765D01*
X38067Y-73726D01*
X38054Y-73682D01*
X38045Y-73634D01*
Y-73630D01*
X38041Y-73612D01*
Y-73586D01*
X38037Y-73543D01*
X38032Y-73486D01*
Y-73416D01*
X38028Y-73377D01*
Y-73329D01*
Y-73280D01*
Y-73224D01*
Y-72267D01*
X37762D01*
Y-71803D01*
X38028D01*
Y-71366D01*
X38609Y-71026D01*
Y-71803D01*
D02*
G37*
G36*
X29279Y-71760D02*
X29319Y-71764D01*
X29367Y-71773D01*
X29419Y-71781D01*
X29476Y-71795D01*
X29537Y-71812D01*
X29598Y-71834D01*
X29664Y-71860D01*
X29729Y-71895D01*
X29791Y-71930D01*
X29852Y-71974D01*
X29913Y-72026D01*
X29965Y-72083D01*
X29970Y-72087D01*
X29978Y-72096D01*
X29992Y-72118D01*
X30009Y-72144D01*
X30031Y-72179D01*
X30053Y-72219D01*
X30079Y-72271D01*
X30105Y-72328D01*
X30131Y-72393D01*
X30158Y-72468D01*
X30180Y-72546D01*
X30201Y-72638D01*
X30219Y-72734D01*
X30232Y-72839D01*
X30241Y-72948D01*
Y-73071D01*
X28790D01*
Y-73075D01*
Y-73084D01*
Y-73097D01*
X28794Y-73114D01*
X28799Y-73158D01*
X28807Y-73219D01*
X28825Y-73280D01*
X28851Y-73350D01*
X28882Y-73416D01*
X28925Y-73473D01*
X28930Y-73477D01*
X28951Y-73494D01*
X28978Y-73516D01*
X29017Y-73543D01*
X29065Y-73569D01*
X29126Y-73591D01*
X29192Y-73608D01*
X29262Y-73612D01*
X29284D01*
X29310Y-73608D01*
X29340Y-73604D01*
X29375Y-73595D01*
X29415Y-73582D01*
X29454Y-73564D01*
X29489Y-73538D01*
X29493Y-73534D01*
X29506Y-73525D01*
X29524Y-73508D01*
X29542Y-73481D01*
X29568Y-73447D01*
X29590Y-73407D01*
X29611Y-73355D01*
X29633Y-73298D01*
X30210Y-73394D01*
Y-73398D01*
X30206Y-73407D01*
X30197Y-73425D01*
X30188Y-73447D01*
X30175Y-73473D01*
X30162Y-73503D01*
X30123Y-73573D01*
X30075Y-73652D01*
X30013Y-73735D01*
X29939Y-73809D01*
X29856Y-73879D01*
X29852D01*
X29847Y-73888D01*
X29830Y-73892D01*
X29812Y-73905D01*
X29791Y-73918D01*
X29760Y-73931D01*
X29729Y-73945D01*
X29690Y-73962D01*
X29603Y-73993D01*
X29502Y-74019D01*
X29384Y-74036D01*
X29257Y-74045D01*
X29231D01*
X29205Y-74041D01*
X29166D01*
X29118Y-74032D01*
X29061Y-74023D01*
X29000Y-74015D01*
X28938Y-73997D01*
X28868Y-73980D01*
X28799Y-73953D01*
X28729Y-73923D01*
X28659Y-73888D01*
X28589Y-73844D01*
X28523Y-73796D01*
X28466Y-73739D01*
X28410Y-73674D01*
X28405Y-73669D01*
X28401Y-73661D01*
X28392Y-73643D01*
X28375Y-73621D01*
X28362Y-73591D01*
X28344Y-73556D01*
X28322Y-73516D01*
X28305Y-73468D01*
X28283Y-73416D01*
X28265Y-73359D01*
X28244Y-73298D01*
X28231Y-73228D01*
X28217Y-73158D01*
X28204Y-73084D01*
X28200Y-73001D01*
X28196Y-72918D01*
Y-72913D01*
Y-72896D01*
Y-72865D01*
X28200Y-72826D01*
X28204Y-72782D01*
X28209Y-72730D01*
X28217Y-72673D01*
X28231Y-72607D01*
X28265Y-72472D01*
X28287Y-72402D01*
X28313Y-72328D01*
X28348Y-72258D01*
X28388Y-72192D01*
X28431Y-72127D01*
X28480Y-72066D01*
X28484Y-72061D01*
X28493Y-72052D01*
X28510Y-72035D01*
X28532Y-72018D01*
X28558Y-71996D01*
X28593Y-71969D01*
X28633Y-71939D01*
X28676Y-71908D01*
X28724Y-71882D01*
X28781Y-71851D01*
X28838Y-71825D01*
X28903Y-71803D01*
X28969Y-71786D01*
X29043Y-71768D01*
X29118Y-71760D01*
X29196Y-71755D01*
X29244D01*
X29279Y-71760D01*
D02*
G37*
G36*
X26614D02*
X26644D01*
X26675Y-71768D01*
X26719Y-71773D01*
X26762Y-71786D01*
X26810Y-71799D01*
X26863Y-71821D01*
X26915Y-71843D01*
X26972Y-71873D01*
X27029Y-71908D01*
X27086Y-71948D01*
X27142Y-72000D01*
X27195Y-72052D01*
X27247Y-72118D01*
Y-71803D01*
X27789D01*
Y-73774D01*
Y-73779D01*
Y-73792D01*
Y-73809D01*
Y-73835D01*
Y-73870D01*
X27785Y-73905D01*
X27780Y-73988D01*
X27772Y-74085D01*
X27763Y-74181D01*
X27745Y-74272D01*
X27737Y-74312D01*
X27724Y-74351D01*
X27719Y-74360D01*
X27710Y-74382D01*
X27697Y-74417D01*
X27676Y-74460D01*
X27649Y-74508D01*
X27619Y-74561D01*
X27584Y-74609D01*
X27540Y-74653D01*
X27536Y-74657D01*
X27518Y-74670D01*
X27492Y-74692D01*
X27461Y-74714D01*
X27418Y-74740D01*
X27365Y-74771D01*
X27304Y-74797D01*
X27234Y-74823D01*
X27225Y-74827D01*
X27199Y-74832D01*
X27160Y-74845D01*
X27103Y-74854D01*
X27029Y-74867D01*
X26946Y-74880D01*
X26850Y-74884D01*
X26745Y-74889D01*
X26692D01*
X26653Y-74884D01*
X26609D01*
X26557Y-74880D01*
X26500Y-74871D01*
X26439Y-74862D01*
X26308Y-74840D01*
X26177Y-74805D01*
X26115Y-74784D01*
X26054Y-74757D01*
X26002Y-74731D01*
X25954Y-74696D01*
X25949Y-74692D01*
X25945Y-74687D01*
X25919Y-74661D01*
X25879Y-74622D01*
X25840Y-74565D01*
X25796Y-74495D01*
X25757Y-74412D01*
X25731Y-74316D01*
X25727Y-74264D01*
X25722Y-74211D01*
Y-74207D01*
Y-74189D01*
Y-74168D01*
X25727Y-74141D01*
X26391Y-74220D01*
Y-74224D01*
X26395Y-74237D01*
X26399Y-74259D01*
X26404Y-74281D01*
X26426Y-74334D01*
X26443Y-74360D01*
X26465Y-74377D01*
X26469Y-74382D01*
X26482Y-74386D01*
X26500Y-74399D01*
X26531Y-74408D01*
X26566Y-74421D01*
X26609Y-74434D01*
X26662Y-74439D01*
X26723Y-74443D01*
X26762D01*
X26801Y-74439D01*
X26850Y-74434D01*
X26906Y-74425D01*
X26963Y-74412D01*
X27016Y-74395D01*
X27064Y-74373D01*
X27068Y-74369D01*
X27077Y-74364D01*
X27090Y-74355D01*
X27107Y-74338D01*
X27125Y-74316D01*
X27142Y-74290D01*
X27160Y-74259D01*
X27177Y-74224D01*
Y-74220D01*
X27182Y-74211D01*
X27186Y-74194D01*
X27195Y-74163D01*
X27199Y-74128D01*
X27204Y-74085D01*
X27208Y-74028D01*
Y-73962D01*
Y-73643D01*
X27204Y-73647D01*
X27195Y-73656D01*
X27182Y-73674D01*
X27160Y-73700D01*
X27138Y-73726D01*
X27107Y-73757D01*
X27068Y-73787D01*
X27029Y-73818D01*
X26985Y-73853D01*
X26933Y-73883D01*
X26823Y-73940D01*
X26762Y-73962D01*
X26697Y-73980D01*
X26627Y-73993D01*
X26552Y-73997D01*
X26535D01*
X26509Y-73993D01*
X26478D01*
X26443Y-73984D01*
X26399Y-73975D01*
X26351Y-73966D01*
X26299Y-73949D01*
X26247Y-73931D01*
X26190Y-73905D01*
X26129Y-73875D01*
X26072Y-73840D01*
X26015Y-73796D01*
X25958Y-73748D01*
X25906Y-73691D01*
X25853Y-73626D01*
Y-73621D01*
X25844Y-73612D01*
X25836Y-73595D01*
X25823Y-73573D01*
X25805Y-73543D01*
X25788Y-73508D01*
X25770Y-73468D01*
X25753Y-73420D01*
X25735Y-73372D01*
X25718Y-73315D01*
X25700Y-73254D01*
X25683Y-73189D01*
X25661Y-73049D01*
X25657Y-72970D01*
X25652Y-72891D01*
Y-72887D01*
Y-72865D01*
Y-72839D01*
X25657Y-72800D01*
X25661Y-72756D01*
X25665Y-72704D01*
X25674Y-72642D01*
X25687Y-72581D01*
X25718Y-72441D01*
X25740Y-72371D01*
X25761Y-72302D01*
X25792Y-72236D01*
X25827Y-72166D01*
X25866Y-72105D01*
X25914Y-72048D01*
X25919Y-72044D01*
X25927Y-72035D01*
X25941Y-72022D01*
X25962Y-72000D01*
X25989Y-71978D01*
X26019Y-71956D01*
X26054Y-71930D01*
X26098Y-71899D01*
X26142Y-71873D01*
X26194Y-71847D01*
X26303Y-71799D01*
X26369Y-71781D01*
X26434Y-71768D01*
X26504Y-71760D01*
X26574Y-71755D01*
X26592D01*
X26614Y-71760D01*
D02*
G37*
G36*
X63079Y-44561D02*
X63119D01*
X63159Y-44564D01*
X63207D01*
X63301Y-44575D01*
X63399Y-44586D01*
X63490Y-44604D01*
X63531Y-44615D01*
X63567Y-44626D01*
X63571D01*
X63574Y-44630D01*
X63596Y-44641D01*
X63629Y-44659D01*
X63673Y-44681D01*
X63720Y-44717D01*
X63767Y-44757D01*
X63815Y-44808D01*
X63858Y-44870D01*
Y-44874D01*
X63862Y-44877D01*
X63869Y-44888D01*
X63876Y-44899D01*
X63895Y-44936D01*
X63916Y-44983D01*
X63935Y-45041D01*
X63953Y-45107D01*
X63967Y-45183D01*
X63971Y-45263D01*
Y-45267D01*
Y-45274D01*
Y-45292D01*
X63967Y-45310D01*
Y-45336D01*
X63964Y-45361D01*
X63949Y-45427D01*
X63931Y-45503D01*
X63902Y-45580D01*
X63858Y-45660D01*
X63833Y-45696D01*
X63804Y-45733D01*
X63800Y-45736D01*
X63796Y-45740D01*
X63785Y-45751D01*
X63771Y-45762D01*
X63756Y-45776D01*
X63734Y-45795D01*
X63709Y-45813D01*
X63680Y-45831D01*
X63647Y-45853D01*
X63607Y-45871D01*
X63567Y-45889D01*
X63523Y-45907D01*
X63472Y-45926D01*
X63421Y-45940D01*
X63367Y-45955D01*
X63305Y-45966D01*
X63309D01*
X63312Y-45969D01*
X63334Y-45984D01*
X63363Y-46002D01*
X63399Y-46027D01*
X63443Y-46060D01*
X63487Y-46093D01*
X63534Y-46133D01*
X63574Y-46177D01*
X63578Y-46180D01*
X63596Y-46199D01*
X63618Y-46228D01*
X63651Y-46271D01*
X63694Y-46326D01*
X63716Y-46362D01*
X63742Y-46399D01*
X63771Y-46439D01*
X63800Y-46483D01*
X63833Y-46534D01*
X63865Y-46584D01*
X64175Y-47076D01*
X63563D01*
X63199Y-46530D01*
X63196Y-46526D01*
X63192Y-46515D01*
X63181Y-46501D01*
X63167Y-46483D01*
X63152Y-46461D01*
X63134Y-46432D01*
X63094Y-46373D01*
X63046Y-46308D01*
X63003Y-46250D01*
X62963Y-46195D01*
X62945Y-46177D01*
X62930Y-46159D01*
X62926Y-46155D01*
X62919Y-46148D01*
X62905Y-46133D01*
X62886Y-46115D01*
X62861Y-46100D01*
X62835Y-46082D01*
X62806Y-46068D01*
X62777Y-46053D01*
X62773D01*
X62762Y-46049D01*
X62744Y-46042D01*
X62715Y-46038D01*
X62679Y-46031D01*
X62635Y-46027D01*
X62584Y-46024D01*
X62420D01*
Y-47076D01*
X61911D01*
Y-44557D01*
X63046D01*
X63079Y-44561D01*
D02*
G37*
%LPC*%
G36*
X-66911Y-51550D02*
X-68396D01*
Y-51797D01*
X-66911D01*
Y-51550D01*
D02*
G37*
G36*
X-68792Y-51787D02*
X-69126Y-51821D01*
X-69360Y-51849D01*
X-69608Y-51887D01*
X-69757Y-51914D01*
X-70055Y-51974D01*
X-70069Y-52331D01*
X-70084Y-52688D01*
X-64515D01*
X-64703Y-52495D01*
X-64995Y-52257D01*
X-65358Y-52074D01*
X-65795Y-51942D01*
X-66230Y-51869D01*
X-66515Y-51835D01*
Y-52193D01*
X-68792D01*
Y-51787D01*
D02*
G37*
G36*
X-70950Y-52292D02*
X-71024Y-52324D01*
X-71131Y-52401D01*
X-71238Y-52496D01*
X-71312Y-52581D01*
X-71319Y-52593D01*
X-71341Y-52651D01*
X-71312Y-52679D01*
X-71213Y-52688D01*
X-71145Y-52688D01*
X-70921D01*
Y-52490D01*
X-70927Y-52366D01*
X-70944Y-52297D01*
X-70950Y-52292D01*
D02*
G37*
G36*
X-63594Y-54300D02*
X-63916Y-54619D01*
X-64097Y-54813D01*
X-64206Y-54961D01*
X-64238Y-55050D01*
X-64230Y-55111D01*
X-64194Y-55145D01*
X-64106Y-55160D01*
X-63945Y-55163D01*
X-63916Y-55163D01*
X-63594D01*
Y-54300D01*
D02*
G37*
G36*
X-64555Y-53134D02*
X-71319D01*
X-71295Y-53245D01*
X-71283Y-53333D01*
X-71266Y-53499D01*
X-71246Y-53721D01*
X-71225Y-53979D01*
X-71218Y-54074D01*
X-71197Y-54348D01*
X-71175Y-54602D01*
X-71156Y-54813D01*
X-71140Y-54956D01*
X-71136Y-54982D01*
X-71123Y-55036D01*
X-71095Y-55098D01*
X-71045Y-55177D01*
X-70968Y-55278D01*
X-70857Y-55410D01*
X-70707Y-55579D01*
X-70511Y-55792D01*
X-70263Y-56056D01*
X-69958Y-56378D01*
X-69647Y-56704D01*
X-69337Y-57028D01*
X-69048Y-57327D01*
X-68786Y-57596D01*
X-68560Y-57826D01*
X-68376Y-58010D01*
X-68241Y-58141D01*
X-68163Y-58212D01*
X-68146Y-58222D01*
X-68102Y-58184D01*
X-68000Y-58084D01*
X-67849Y-57933D01*
X-67659Y-57741D01*
X-67440Y-57517D01*
X-67282Y-57354D01*
X-66456Y-56500D01*
X-68891D01*
Y-55559D01*
X-65921D01*
Y-55979D01*
X-65376Y-55436D01*
X-64990Y-55050D01*
X-64832Y-54893D01*
Y-54409D01*
X-64830Y-54187D01*
X-64823Y-54045D01*
X-64807Y-53967D01*
X-64779Y-53933D01*
X-64736Y-53926D01*
X-64688Y-53915D01*
X-64653Y-53874D01*
X-64625Y-53785D01*
X-64602Y-53633D01*
X-64578Y-53404D01*
X-64571Y-53319D01*
X-64555Y-53134D01*
D02*
G37*
G36*
X-71054Y-55928D02*
X-71052Y-55977D01*
X-71042Y-56115D01*
X-71026Y-56332D01*
X-71003Y-56618D01*
X-70974Y-56964D01*
X-70941Y-57360D01*
X-70904Y-57796D01*
X-70869Y-58210D01*
X-70829Y-58679D01*
X-70792Y-59122D01*
X-70758Y-59529D01*
X-70729Y-59888D01*
X-70705Y-60189D01*
X-70687Y-60421D01*
X-70677Y-60574D01*
X-70674Y-60633D01*
X-70669Y-60670D01*
X-70651Y-60685D01*
X-70611Y-60671D01*
X-70544Y-60623D01*
X-70442Y-60534D01*
X-70297Y-60398D01*
X-70103Y-60209D01*
X-69853Y-59961D01*
X-69588Y-59697D01*
X-68502Y-58612D01*
X-68510Y-58604D01*
X-68907Y-58178D01*
X-69113Y-57958D01*
X-69345Y-57712D01*
X-69592Y-57451D01*
X-69846Y-57182D01*
X-70099Y-56917D01*
X-70339Y-56665D01*
X-70560Y-56435D01*
X-70750Y-56236D01*
X-70902Y-56080D01*
X-71006Y-55974D01*
X-71053Y-55929D01*
X-71054Y-55928D01*
D02*
G37*
G36*
X-64797Y-55578D02*
X-64836Y-55606D01*
X-64935Y-55696D01*
X-65086Y-55840D01*
X-65280Y-56029D01*
X-65507Y-56254D01*
X-65761Y-56507D01*
X-66031Y-56777D01*
X-66309Y-57058D01*
X-66588Y-57340D01*
X-66856Y-57613D01*
X-67107Y-57871D01*
X-67332Y-58103D01*
X-67522Y-58301D01*
X-67667Y-58457D01*
X-67760Y-58561D01*
X-67792Y-58604D01*
X-67760Y-58649D01*
X-67668Y-58754D01*
X-67527Y-58911D01*
X-67345Y-59108D01*
X-67132Y-59338D01*
X-66897Y-59589D01*
X-66649Y-59852D01*
X-66397Y-60118D01*
X-66150Y-60377D01*
X-65918Y-60619D01*
X-65710Y-60834D01*
X-65535Y-61013D01*
X-65402Y-61146D01*
X-65320Y-61224D01*
X-65297Y-61239D01*
X-65290Y-61189D01*
X-65275Y-61048D01*
X-65252Y-60826D01*
X-65224Y-60532D01*
X-65189Y-60175D01*
X-65151Y-59763D01*
X-65109Y-59305D01*
X-65063Y-58811D01*
X-65027Y-58412D01*
X-64981Y-57895D01*
X-64938Y-57408D01*
X-64900Y-56959D01*
X-64866Y-56559D01*
X-64839Y-56214D01*
X-64817Y-55936D01*
X-64803Y-55731D01*
X-64796Y-55609D01*
X-64797Y-55578D01*
D02*
G37*
G36*
X-68174Y-58992D02*
X-68219Y-59028D01*
X-68326Y-59127D01*
X-68484Y-59280D01*
X-68687Y-59479D01*
X-68926Y-59716D01*
X-69191Y-59983D01*
X-69409Y-60203D01*
X-70593Y-61406D01*
X-70505Y-62530D01*
X-70479Y-62859D01*
X-70453Y-63160D01*
X-70430Y-63418D01*
X-70411Y-63615D01*
X-70396Y-63737D01*
X-70392Y-63765D01*
X-70366Y-63876D01*
X-66627D01*
X-66602Y-63565D01*
X-66527Y-63198D01*
X-66369Y-62873D01*
X-66139Y-62603D01*
X-65847Y-62398D01*
X-65519Y-62275D01*
X-65412Y-62217D01*
X-65359Y-62094D01*
X-65358Y-62088D01*
X-65351Y-62036D01*
X-65359Y-61983D01*
X-65389Y-61918D01*
X-65449Y-61832D01*
X-65546Y-61716D01*
X-65688Y-61558D01*
X-65883Y-61349D01*
X-66139Y-61080D01*
X-66156Y-61063D01*
X-66431Y-60774D01*
X-66724Y-60466D01*
X-67013Y-60161D01*
X-67280Y-59879D01*
X-67505Y-59642D01*
X-67554Y-59589D01*
X-67746Y-59389D01*
X-67916Y-59218D01*
X-68053Y-59088D01*
X-68143Y-59009D01*
X-68174Y-58992D01*
D02*
G37*
G36*
X-62539Y66494D02*
X-62823D01*
X-62966Y66470D01*
X-63131D01*
X-63534Y66423D01*
X-64032Y66328D01*
X-64553Y66233D01*
X-65098Y66067D01*
X-65666Y65854D01*
X-65690D01*
X-65737Y65830D01*
X-65808Y65783D01*
X-65903Y65736D01*
X-66188Y65594D01*
X-66543Y65404D01*
X-66946Y65167D01*
X-67372Y64883D01*
X-67798Y64527D01*
X-67911Y64427D01*
X-68485Y65001D01*
X-69007Y64433D01*
X-68458Y63884D01*
X-68604Y63722D01*
X-68841Y63414D01*
X-69101Y63035D01*
X-69386Y62609D01*
X-69670Y62111D01*
X-69930Y61590D01*
Y61566D01*
X-69954Y61519D01*
X-69978Y61448D01*
X-70025Y61329D01*
X-70073Y61211D01*
X-70120Y61045D01*
X-70239Y60666D01*
X-70357Y60192D01*
X-70452Y59671D01*
X-70523Y59102D01*
X-70547Y58487D01*
Y58463D01*
Y58416D01*
Y58321D01*
Y58202D01*
X-70523Y58060D01*
Y57894D01*
X-70475Y57468D01*
X-70404Y56994D01*
X-70286Y56473D01*
X-70144Y55928D01*
X-69930Y55360D01*
Y55336D01*
X-69907Y55288D01*
X-69859Y55217D01*
X-69812Y55123D01*
X-69670Y54838D01*
X-69480Y54483D01*
X-69244Y54080D01*
X-68936Y53654D01*
X-68604Y53227D01*
X-68225Y52801D01*
X-68201D01*
X-68177Y52754D01*
X-68035Y52635D01*
X-67798Y52422D01*
X-67490Y52185D01*
X-67111Y51925D01*
X-66685Y51640D01*
X-66188Y51356D01*
X-65666Y51095D01*
X-65643D01*
X-65595Y51072D01*
X-65524Y51048D01*
X-65406Y51000D01*
X-65264Y50953D01*
X-65098Y50906D01*
X-64719Y50787D01*
X-64245Y50669D01*
X-63724Y50574D01*
X-63131Y50503D01*
X-62539Y50479D01*
X-62255D01*
X-62113Y50503D01*
X-61947D01*
X-61521Y50550D01*
X-61047Y50621D01*
X-60526Y50740D01*
X-59957Y50882D01*
X-59412Y51095D01*
X-59389D01*
X-59341Y51119D01*
X-59270Y51166D01*
X-59152Y51214D01*
X-59033Y51285D01*
X-58891Y51356D01*
X-58536Y51545D01*
X-58133Y51782D01*
X-57706Y52090D01*
X-57280Y52422D01*
X-57142Y52545D01*
X-56569Y51972D01*
X-56024Y52540D01*
X-56587Y53103D01*
X-56475Y53227D01*
X-56238Y53535D01*
X-55977Y53914D01*
X-55693Y54341D01*
X-55409Y54838D01*
X-55172Y55360D01*
Y55383D01*
X-55148Y55431D01*
X-55101Y55502D01*
X-55077Y55620D01*
X-55029Y55762D01*
X-54958Y55904D01*
X-54840Y56307D01*
X-54745Y56781D01*
X-54627Y57302D01*
X-54556Y57871D01*
X-54532Y58487D01*
Y58510D01*
Y58558D01*
Y58652D01*
Y58771D01*
X-54556Y58913D01*
Y59079D01*
X-54603Y59505D01*
X-54698Y59979D01*
X-54793Y60500D01*
X-54958Y61045D01*
X-55172Y61590D01*
Y61614D01*
X-55195Y61661D01*
X-55243Y61732D01*
X-55290Y61827D01*
X-55432Y62111D01*
X-55622Y62467D01*
X-55859Y62869D01*
X-56143Y63296D01*
X-56475Y63722D01*
X-56854Y64148D01*
Y64172D01*
X-56901Y64196D01*
X-57043Y64338D01*
X-57280Y64527D01*
X-57564Y64764D01*
X-57943Y65049D01*
X-58394Y65333D01*
X-58867Y65594D01*
X-59412Y65854D01*
X-59436D01*
X-59483Y65878D01*
X-59554Y65925D01*
X-59673Y65949D01*
X-59791Y65996D01*
X-59957Y66067D01*
X-60360Y66186D01*
X-60810Y66281D01*
X-61355Y66399D01*
X-61923Y66470D01*
X-62539Y66494D01*
D02*
G37*
%LPD*%
G36*
X-66424Y62940D02*
X-65595D01*
X-65311Y62917D01*
X-65003D01*
X-64719Y62893D01*
X-64482Y62869D01*
X-64292Y62822D01*
X-64269D01*
X-64174Y62774D01*
X-64055Y62727D01*
X-63913Y62632D01*
X-63747Y62514D01*
X-63582Y62372D01*
X-63392Y62182D01*
X-63250Y61969D01*
X-63226Y61945D01*
X-63179Y61851D01*
X-63108Y61708D01*
X-63037Y61495D01*
X-62966Y61258D01*
X-62895Y60974D01*
X-62847Y60642D01*
X-62823Y60287D01*
Y60263D01*
Y60145D01*
Y60003D01*
X-62847Y59813D01*
X-62871Y59600D01*
X-62910Y59426D01*
X-64512Y61028D01*
X-64529Y61069D01*
Y61093D01*
X-64577Y61116D01*
X-64695Y61211D01*
X-66424Y62940D01*
X-67517D01*
X-68458Y63884D01*
X-68391Y63959D01*
X-68272Y64101D01*
X-68225Y64125D01*
Y64148D01*
X-67911Y64427D01*
X-66424Y62940D01*
D02*
G37*
G36*
X-61852Y58368D02*
Y57265D01*
X-63231Y58646D01*
X-63226Y58652D01*
X-63155Y58771D01*
X-63108Y58866D01*
X-63060Y58937D01*
Y58960D01*
X-62989Y59174D01*
X-62918Y59387D01*
X-62910Y59426D01*
X-61852Y58368D01*
D02*
G37*
G36*
X-59021Y55537D02*
X-59080Y55525D01*
X-59152Y55502D01*
X-59460D01*
X-59649Y55573D01*
X-59839Y55668D01*
X-59957Y55786D01*
X-60075Y55904D01*
X-60146Y56023D01*
X-60194Y56094D01*
X-60218Y56118D01*
X-60312Y56331D01*
X-60383Y56568D01*
X-60431Y56828D01*
X-60444Y56960D01*
X-59021Y55537D01*
D02*
G37*
G36*
X-66051Y61471D02*
X-66922D01*
Y59055D01*
X-65832D01*
X-65643Y59079D01*
X-65429D01*
X-65240Y59102D01*
X-65098Y59126D01*
X-64979Y59174D01*
X-64956D01*
X-64932Y59197D01*
X-64814Y59292D01*
X-64648Y59411D01*
X-64482Y59600D01*
Y59624D01*
X-64458Y59647D01*
X-64411Y59790D01*
X-64403Y59820D01*
X-66051Y61471D01*
X-65406D01*
X-65264Y61448D01*
X-65193Y61424D01*
X-65169D01*
X-64908Y61329D01*
X-64695Y61211D01*
X-64512Y61028D01*
X-64411Y60785D01*
X-64363Y60524D01*
X-64340Y60429D01*
Y60334D01*
Y60287D01*
Y60263D01*
X-64363Y59979D01*
X-64403Y59820D01*
X-63231Y58646D01*
X-63416Y58392D01*
X-63676Y58108D01*
X-63700D01*
X-63724Y58060D01*
X-63795Y58013D01*
X-63890Y57942D01*
X-64126Y57823D01*
X-64434Y57705D01*
X-64458D01*
X-64529Y57681D01*
X-64624D01*
X-64790Y57657D01*
X-65003Y57634D01*
X-65264D01*
X-65595Y57610D01*
X-66922D01*
Y54317D01*
X-68414D01*
Y62940D01*
X-67517D01*
X-66051Y61471D01*
D02*
G37*
G36*
X-58775Y54182D02*
X-58867Y54175D01*
X-58938D01*
X-59033Y54199D01*
X-59152Y54222D01*
X-59436Y54294D01*
X-59625Y54365D01*
X-59791Y54459D01*
X-59815Y54483D01*
X-59862Y54507D01*
X-59933Y54554D01*
X-60028Y54649D01*
X-60146Y54744D01*
X-60289Y54886D01*
X-60407Y55051D01*
X-60549Y55241D01*
Y54317D01*
X-61852D01*
Y57265D01*
X-58775Y54182D01*
D02*
G37*
G36*
X-60454Y59837D02*
X-60431Y59884D01*
X-60336Y59979D01*
X-60194Y60121D01*
X-60004Y60287D01*
X-59791Y60453D01*
X-59507Y60595D01*
X-59223Y60690D01*
X-58891Y60713D01*
X-58844D01*
X-58725Y60690D01*
X-58559Y60666D01*
X-58322Y60619D01*
X-58086Y60500D01*
X-57825Y60358D01*
X-57564Y60169D01*
X-57327Y59884D01*
X-57304Y59837D01*
X-57233Y59742D01*
X-57114Y59553D01*
X-56996Y59292D01*
X-56901Y58937D01*
X-56783Y58534D01*
X-56712Y58060D01*
X-56688Y57492D01*
Y57468D01*
Y57420D01*
Y57349D01*
Y57231D01*
X-56712Y57089D01*
Y56947D01*
X-56759Y56591D01*
X-56854Y56189D01*
X-56972Y55786D01*
X-57138Y55383D01*
X-57351Y55028D01*
X-57375Y54980D01*
X-57470Y54886D01*
X-57612Y54744D01*
X-57778Y54601D01*
X-57959Y54475D01*
X-56587Y53103D01*
X-56688Y52991D01*
X-56806Y52848D01*
X-56830Y52825D01*
X-56854Y52801D01*
X-57142Y52545D01*
X-58775Y54182D01*
X-58559Y54199D01*
X-58275Y54294D01*
X-58014Y54436D01*
X-57959Y54475D01*
X-59021Y55537D01*
X-58962Y55549D01*
X-58844Y55620D01*
X-58725Y55691D01*
X-58583Y55810D01*
X-58464Y55952D01*
X-58441Y55976D01*
X-58417Y56023D01*
X-58346Y56141D01*
X-58299Y56283D01*
X-58228Y56497D01*
X-58180Y56734D01*
X-58133Y57042D01*
X-58109Y57420D01*
Y57444D01*
Y57468D01*
Y57610D01*
X-58133Y57800D01*
X-58157Y58037D01*
X-58204Y58273D01*
X-58251Y58534D01*
X-58346Y58771D01*
X-58464Y58984D01*
X-58488Y59008D01*
X-58512Y59055D01*
X-58583Y59126D01*
X-58678Y59197D01*
X-58796Y59268D01*
X-58915Y59339D01*
X-59080Y59387D01*
X-59270Y59411D01*
X-59365D01*
X-59460Y59387D01*
X-59602Y59363D01*
X-59744Y59316D01*
X-59886Y59221D01*
X-60004Y59126D01*
X-60123Y58984D01*
X-60146Y58960D01*
X-60170Y58889D01*
X-60241Y58795D01*
X-60312Y58629D01*
X-60383Y58439D01*
X-60431Y58202D01*
X-60478Y57918D01*
X-60502Y57610D01*
Y57563D01*
Y57444D01*
X-60478Y57278D01*
X-60454Y57065D01*
X-60444Y56960D01*
X-61852Y58368D01*
Y62940D01*
X-60454D01*
Y59837D01*
D02*
G37*
%LPC*%
G36*
X57291Y-72948D02*
X57287D01*
X57269Y-72957D01*
X57243Y-72961D01*
X57204Y-72974D01*
X57156Y-72988D01*
X57090Y-73005D01*
X57020Y-73023D01*
X56933Y-73040D01*
X56924D01*
X56911Y-73044D01*
X56893Y-73049D01*
X56854Y-73058D01*
X56801Y-73071D01*
X56749Y-73084D01*
X56697Y-73101D01*
X56653Y-73123D01*
X56618Y-73141D01*
X56614Y-73145D01*
X56600Y-73154D01*
X56583Y-73171D01*
X56566Y-73193D01*
X56544Y-73224D01*
X56526Y-73259D01*
X56513Y-73298D01*
X56509Y-73342D01*
Y-73346D01*
Y-73363D01*
X56513Y-73385D01*
X56522Y-73412D01*
X56531Y-73447D01*
X56544Y-73481D01*
X56566Y-73516D01*
X56596Y-73551D01*
X56600Y-73556D01*
X56614Y-73564D01*
X56631Y-73578D01*
X56662Y-73595D01*
X56692Y-73612D01*
X56732Y-73626D01*
X56780Y-73634D01*
X56828Y-73639D01*
X56854D01*
X56885Y-73634D01*
X56924Y-73626D01*
X56972Y-73612D01*
X57020Y-73595D01*
X57077Y-73573D01*
X57129Y-73538D01*
X57134Y-73534D01*
X57147Y-73525D01*
X57164Y-73508D01*
X57186Y-73486D01*
X57208Y-73455D01*
X57230Y-73425D01*
X57252Y-73385D01*
X57265Y-73346D01*
Y-73342D01*
X57269Y-73333D01*
X57274Y-73311D01*
X57278Y-73285D01*
X57282Y-73245D01*
X57287Y-73197D01*
X57291Y-73136D01*
Y-73066D01*
Y-72948D01*
D02*
G37*
G36*
X47192D02*
X47188D01*
X47170Y-72957D01*
X47144Y-72961D01*
X47104Y-72974D01*
X47056Y-72988D01*
X46991Y-73005D01*
X46921Y-73023D01*
X46834Y-73040D01*
X46825D01*
X46812Y-73044D01*
X46794Y-73049D01*
X46755Y-73058D01*
X46703Y-73071D01*
X46650Y-73084D01*
X46598Y-73101D01*
X46554Y-73123D01*
X46519Y-73141D01*
X46515Y-73145D01*
X46501Y-73154D01*
X46484Y-73171D01*
X46466Y-73193D01*
X46445Y-73224D01*
X46427Y-73259D01*
X46414Y-73298D01*
X46410Y-73342D01*
Y-73346D01*
Y-73363D01*
X46414Y-73385D01*
X46423Y-73412D01*
X46431Y-73447D01*
X46445Y-73481D01*
X46466Y-73516D01*
X46497Y-73551D01*
X46501Y-73556D01*
X46515Y-73564D01*
X46532Y-73578D01*
X46563Y-73595D01*
X46593Y-73612D01*
X46633Y-73626D01*
X46681Y-73634D01*
X46729Y-73639D01*
X46755D01*
X46786Y-73634D01*
X46825Y-73626D01*
X46873Y-73612D01*
X46921Y-73595D01*
X46978Y-73573D01*
X47030Y-73538D01*
X47035Y-73534D01*
X47048Y-73525D01*
X47065Y-73508D01*
X47087Y-73486D01*
X47109Y-73455D01*
X47131Y-73425D01*
X47153Y-73385D01*
X47166Y-73346D01*
Y-73342D01*
X47170Y-73333D01*
X47174Y-73311D01*
X47179Y-73285D01*
X47183Y-73245D01*
X47188Y-73197D01*
X47192Y-73136D01*
Y-73066D01*
Y-72948D01*
D02*
G37*
G36*
X22056D02*
X22051D01*
X22034Y-72957D01*
X22008Y-72961D01*
X21968Y-72974D01*
X21920Y-72988D01*
X21855Y-73005D01*
X21785Y-73023D01*
X21697Y-73040D01*
X21689D01*
X21676Y-73044D01*
X21658Y-73049D01*
X21619Y-73058D01*
X21566Y-73071D01*
X21514Y-73084D01*
X21461Y-73101D01*
X21418Y-73123D01*
X21383Y-73141D01*
X21378Y-73145D01*
X21365Y-73154D01*
X21348Y-73171D01*
X21330Y-73193D01*
X21308Y-73224D01*
X21291Y-73259D01*
X21278Y-73298D01*
X21273Y-73342D01*
Y-73346D01*
Y-73363D01*
X21278Y-73385D01*
X21286Y-73412D01*
X21295Y-73447D01*
X21308Y-73481D01*
X21330Y-73516D01*
X21361Y-73551D01*
X21365Y-73556D01*
X21378Y-73564D01*
X21396Y-73578D01*
X21426Y-73595D01*
X21457Y-73612D01*
X21496Y-73626D01*
X21544Y-73634D01*
X21592Y-73639D01*
X21619D01*
X21649Y-73634D01*
X21689Y-73626D01*
X21737Y-73612D01*
X21785Y-73595D01*
X21842Y-73573D01*
X21894Y-73538D01*
X21898Y-73534D01*
X21912Y-73525D01*
X21929Y-73508D01*
X21951Y-73486D01*
X21973Y-73455D01*
X21994Y-73425D01*
X22016Y-73385D01*
X22029Y-73346D01*
Y-73342D01*
X22034Y-73333D01*
X22038Y-73311D01*
X22043Y-73285D01*
X22047Y-73245D01*
X22051Y-73197D01*
X22056Y-73136D01*
Y-73066D01*
Y-72948D01*
D02*
G37*
G36*
X60477Y-72201D02*
X60446D01*
X60411Y-72210D01*
X60368Y-72219D01*
X60319Y-72236D01*
X60267Y-72258D01*
X60215Y-72293D01*
X60166Y-72341D01*
X60162Y-72345D01*
X60149Y-72367D01*
X60127Y-72398D01*
X60105Y-72441D01*
X60079Y-72494D01*
X60062Y-72559D01*
X60049Y-72634D01*
X60044Y-72717D01*
X60909D01*
Y-72712D01*
Y-72704D01*
Y-72695D01*
X60905Y-72677D01*
X60901Y-72629D01*
X60892Y-72577D01*
X60874Y-72516D01*
X60852Y-72450D01*
X60818Y-72389D01*
X60778Y-72337D01*
X60774Y-72332D01*
X60756Y-72315D01*
X60730Y-72293D01*
X60695Y-72267D01*
X60651Y-72245D01*
X60599Y-72223D01*
X60542Y-72205D01*
X60477Y-72201D01*
D02*
G37*
G36*
X51916Y-72227D02*
X51894D01*
X51876Y-72232D01*
X51837Y-72236D01*
X51785Y-72249D01*
X51724Y-72271D01*
X51658Y-72302D01*
X51592Y-72345D01*
X51531Y-72402D01*
X51527Y-72411D01*
X51509Y-72433D01*
X51483Y-72476D01*
X51457Y-72529D01*
X51426Y-72599D01*
X51405Y-72686D01*
X51387Y-72787D01*
X51378Y-72900D01*
Y-72905D01*
Y-72913D01*
Y-72931D01*
X51383Y-72953D01*
Y-72983D01*
X51387Y-73014D01*
X51396Y-73084D01*
X51418Y-73167D01*
X51444Y-73250D01*
X51479Y-73333D01*
X51531Y-73403D01*
X51540Y-73412D01*
X51557Y-73429D01*
X51592Y-73455D01*
X51641Y-73486D01*
X51693Y-73521D01*
X51759Y-73547D01*
X51833Y-73564D01*
X51916Y-73573D01*
X51938D01*
X51955Y-73569D01*
X51995Y-73564D01*
X52047Y-73551D01*
X52108Y-73529D01*
X52174Y-73503D01*
X52235Y-73460D01*
X52296Y-73403D01*
X52305Y-73394D01*
X52322Y-73372D01*
X52344Y-73329D01*
X52375Y-73276D01*
X52405Y-73202D01*
X52427Y-73119D01*
X52445Y-73014D01*
X52453Y-72900D01*
Y-72896D01*
Y-72887D01*
Y-72870D01*
X52449Y-72848D01*
Y-72822D01*
X52445Y-72787D01*
X52436Y-72717D01*
X52414Y-72638D01*
X52388Y-72555D01*
X52349Y-72472D01*
X52296Y-72402D01*
X52287Y-72393D01*
X52270Y-72376D01*
X52235Y-72345D01*
X52191Y-72315D01*
X52134Y-72284D01*
X52073Y-72253D01*
X51999Y-72236D01*
X51916Y-72227D01*
D02*
G37*
G36*
X40274Y-72201D02*
X40244D01*
X40209Y-72210D01*
X40165Y-72219D01*
X40117Y-72236D01*
X40064Y-72258D01*
X40012Y-72293D01*
X39964Y-72341D01*
X39960Y-72345D01*
X39946Y-72367D01*
X39925Y-72398D01*
X39903Y-72441D01*
X39876Y-72494D01*
X39859Y-72559D01*
X39846Y-72634D01*
X39842Y-72717D01*
X40707D01*
Y-72712D01*
Y-72704D01*
Y-72695D01*
X40703Y-72677D01*
X40698Y-72629D01*
X40689Y-72577D01*
X40672Y-72516D01*
X40650Y-72450D01*
X40615Y-72389D01*
X40576Y-72337D01*
X40571Y-72332D01*
X40554Y-72315D01*
X40528Y-72293D01*
X40493Y-72267D01*
X40449Y-72245D01*
X40397Y-72223D01*
X40340Y-72205D01*
X40274Y-72201D01*
D02*
G37*
G36*
X29231D02*
X29201D01*
X29166Y-72210D01*
X29122Y-72219D01*
X29074Y-72236D01*
X29021Y-72258D01*
X28969Y-72293D01*
X28921Y-72341D01*
X28917Y-72345D01*
X28903Y-72367D01*
X28882Y-72398D01*
X28860Y-72441D01*
X28833Y-72494D01*
X28816Y-72559D01*
X28803Y-72634D01*
X28799Y-72717D01*
X29664D01*
Y-72712D01*
Y-72704D01*
Y-72695D01*
X29660Y-72677D01*
X29655Y-72629D01*
X29646Y-72577D01*
X29629Y-72516D01*
X29607Y-72450D01*
X29572Y-72389D01*
X29533Y-72337D01*
X29528Y-72332D01*
X29511Y-72315D01*
X29485Y-72293D01*
X29450Y-72267D01*
X29406Y-72245D01*
X29354Y-72223D01*
X29297Y-72205D01*
X29231Y-72201D01*
D02*
G37*
G36*
X26723D02*
X26714D01*
X26688Y-72205D01*
X26649Y-72210D01*
X26601Y-72223D01*
X26548Y-72240D01*
X26487Y-72271D01*
X26430Y-72310D01*
X26378Y-72367D01*
X26373Y-72376D01*
X26356Y-72398D01*
X26338Y-72437D01*
X26312Y-72489D01*
X26290Y-72559D01*
X26268Y-72642D01*
X26251Y-72743D01*
X26247Y-72861D01*
Y-72865D01*
Y-72874D01*
Y-72896D01*
X26251Y-72918D01*
Y-72944D01*
X26255Y-72979D01*
X26264Y-73053D01*
X26277Y-73136D01*
X26303Y-73219D01*
X26334Y-73298D01*
X26378Y-73368D01*
X26382Y-73377D01*
X26404Y-73394D01*
X26430Y-73420D01*
X26469Y-73447D01*
X26517Y-73477D01*
X26574Y-73503D01*
X26640Y-73521D01*
X26710Y-73529D01*
X26719D01*
X26745Y-73525D01*
X26784Y-73521D01*
X26836Y-73508D01*
X26893Y-73490D01*
X26950Y-73460D01*
X27011Y-73420D01*
X27068Y-73363D01*
X27072Y-73355D01*
X27090Y-73333D01*
X27116Y-73294D01*
X27142Y-73241D01*
X27169Y-73171D01*
X27195Y-73088D01*
X27212Y-72988D01*
X27217Y-72874D01*
Y-72870D01*
Y-72861D01*
Y-72843D01*
Y-72817D01*
X27212Y-72791D01*
X27208Y-72756D01*
X27199Y-72682D01*
X27182Y-72599D01*
X27160Y-72516D01*
X27125Y-72437D01*
X27077Y-72367D01*
X27072Y-72358D01*
X27051Y-72341D01*
X27020Y-72315D01*
X26981Y-72284D01*
X26928Y-72253D01*
X26867Y-72227D01*
X26801Y-72210D01*
X26723Y-72201D01*
D02*
G37*
G36*
X63003Y-44983D02*
X62420D01*
Y-45623D01*
X62915D01*
X62988Y-45620D01*
X63065Y-45616D01*
X63141Y-45613D01*
X63174Y-45609D01*
X63203Y-45605D01*
X63232Y-45598D01*
X63250Y-45594D01*
X63254D01*
X63265Y-45587D01*
X63283Y-45580D01*
X63301Y-45569D01*
X63349Y-45536D01*
X63370Y-45514D01*
X63392Y-45489D01*
X63396Y-45485D01*
X63399Y-45474D01*
X63410Y-45460D01*
X63421Y-45438D01*
X63429Y-45409D01*
X63440Y-45376D01*
X63443Y-45340D01*
X63447Y-45300D01*
Y-45292D01*
Y-45278D01*
X63443Y-45256D01*
X63440Y-45227D01*
X63429Y-45194D01*
X63418Y-45161D01*
X63399Y-45125D01*
X63378Y-45096D01*
X63374Y-45092D01*
X63367Y-45081D01*
X63349Y-45070D01*
X63327Y-45052D01*
X63301Y-45034D01*
X63269Y-45019D01*
X63228Y-45005D01*
X63185Y-44994D01*
X63181D01*
X63170Y-44990D01*
X63148D01*
X63116Y-44987D01*
X63036D01*
X63003Y-44983D01*
D02*
G37*
%LPD*%
D10*
X-13878Y11220D02*
X-14616Y11647D01*
Y10794D01*
X-13878Y11220D01*
D11*
X-18051Y34846D02*
X-18595Y35595D01*
X-19476Y35309D01*
Y34384D01*
X-18595Y34098D01*
X-18051Y34846D01*
D12*
X65138Y-45889D02*
X64923Y-44949D01*
X64322Y-44196D01*
X63454Y-43777D01*
X62490D01*
X61622Y-44196D01*
X61021Y-44949D01*
X60807Y-45889D01*
X61021Y-46828D01*
X61622Y-47581D01*
X62490Y-48000D01*
X63454D01*
X64322Y-47581D01*
X64923Y-46828D01*
X65138Y-45889D01*
X-49213Y-49262D02*
Y49163D01*
Y-49262D02*
X49016D01*
X-49213Y49163D02*
X49213D01*
Y-49262D02*
Y49163D01*
X-19500Y-32874D02*
Y-17126D01*
X-61000Y-32874D02*
Y-17126D01*
X-19500D01*
X-61000Y-32874D02*
X-19500D01*
X-98425Y98425D02*
X98425D01*
Y-98425D02*
Y98425D01*
X-98425Y-98425D02*
X98425D01*
X-98425D02*
Y98425D01*
D13*
X39931Y-25262D02*
X39148Y-25891D01*
X38427Y-26591D01*
X37776Y-27355D01*
X37199Y-28177D01*
X36702Y-29050D01*
X36289Y-29966D01*
X35964Y-30916D01*
X35730Y-31893D01*
X35589Y-32887D01*
X35542Y-33891D01*
X35589Y-34894D01*
X35731Y-35888D01*
X35966Y-36865D01*
X36291Y-37815D01*
X36704Y-38731D01*
X37202Y-39603D01*
X37779Y-40425D01*
X38432Y-41189D01*
X39153Y-41888D01*
X39936Y-42517D01*
X48564Y-33887D02*
X48505Y-32881D01*
X48330Y-31890D01*
X48041Y-30924D01*
X47643Y-30000D01*
X47139Y-29127D01*
X46538Y-28319D01*
X45846Y-27587D01*
X45075Y-26939D01*
X44233Y-26386D01*
X43333Y-25934D01*
X42387Y-25589D01*
X41407Y-25357D01*
X40406Y-25240D01*
X39399D01*
X38398Y-25357D01*
X37418Y-25589D01*
X36472Y-25934D01*
X35572Y-26386D01*
X34730Y-26939D01*
X33959Y-27587D01*
X33267Y-28319D01*
X32666Y-29127D01*
X32162Y-30000D01*
X31763Y-30924D01*
X31475Y-31890D01*
X31300Y-32881D01*
X31241Y-33887D01*
X31300Y-34892D01*
X31475Y-35884D01*
X31763Y-36849D01*
X32162Y-37774D01*
X32666Y-38646D01*
X33267Y-39454D01*
X33959Y-40187D01*
X34730Y-40834D01*
X35572Y-41388D01*
X36472Y-41840D01*
X37418Y-42184D01*
X38398Y-42417D01*
X39399Y-42534D01*
X40406D01*
X41407Y-42417D01*
X42387Y-42184D01*
X43333Y-41840D01*
X44233Y-41388D01*
X45075Y-40834D01*
X45846Y-40187D01*
X46538Y-39454D01*
X47139Y-38646D01*
X47643Y-37774D01*
X48041Y-36849D01*
X48330Y-35884D01*
X48505Y-34892D01*
X48564Y-33887D01*
X33875Y-27666D02*
X34645Y-28346D01*
X35491Y-28927D01*
X36401Y-29403D01*
X37362Y-29765D01*
X38359Y-30008D01*
X39379Y-30129D01*
X40406Y-30126D01*
X41425Y-30000D01*
X42421Y-29751D01*
X43380Y-29383D01*
X44287Y-28903D01*
X45130Y-28317D01*
X45896Y-27633D01*
X39874Y-42516D02*
X40657Y-41887D01*
X41377Y-41187D01*
X42029Y-40423D01*
X42606Y-39601D01*
X43103Y-38728D01*
X43515Y-37812D01*
X43840Y-36862D01*
X44074Y-35885D01*
X44215Y-34890D01*
X44262Y-33887D01*
X44214Y-32884D01*
X44073Y-31890D01*
X43838Y-30913D01*
X43513Y-29963D01*
X43100Y-29047D01*
X42602Y-28175D01*
X42025Y-27353D01*
X41373Y-26589D01*
X40652Y-25890D01*
X39869Y-25261D01*
X45901Y-40135D02*
X45132Y-39456D01*
X44285Y-38874D01*
X43375Y-38399D01*
X42414Y-38037D01*
X41417Y-37793D01*
X40397Y-37672D01*
X39370Y-37675D01*
X38351Y-37802D01*
X37355Y-38051D01*
X36396Y-38418D01*
X35489Y-38899D01*
X34646Y-39485D01*
X33880Y-40169D01*
X-11811Y10010D02*
X-10010Y11811D01*
X-11811Y-11811D02*
Y11811D01*
X11811Y-11811D02*
Y11811D01*
X-11811D02*
X11811D01*
X-11811Y-11811D02*
X11811D01*
X39902Y-25227D02*
X39906Y-42550D01*
X31241Y-33891D02*
X48564Y-33887D01*
X-74843Y71289D02*
X-74823Y72225D01*
X-75505Y71328D02*
X-75000Y72500D01*
X-76187Y71172D02*
X-75405Y73181D01*
X-77045Y71036D02*
X-75785Y74149D01*
X-77766Y71075D02*
X-76168Y74934D01*
X-78468Y71095D02*
X-76577Y75792D01*
X-79267Y71153D02*
X-77006Y76513D01*
X-80105Y71134D02*
X-77454Y77156D01*
X-80865Y71095D02*
X-77747Y77916D01*
X-81645Y70997D02*
X-78117Y78559D01*
X-82413Y71068D02*
X-78494Y79322D01*
X-83211Y71013D02*
X-78857Y79975D01*
X-83986Y71131D02*
X-79222Y80659D01*
X-84764Y70985D02*
X-79711Y81280D01*
X-85493Y71155D02*
X-80073Y82263D01*
X-81064Y83372D02*
X-80723Y82349D01*
X-81500Y84000D02*
X-81200Y83100D01*
X-86379Y71037D02*
X-80723Y82349D01*
X-87250Y71000D02*
X-81064Y83372D01*
X-88000Y71000D02*
X-81500Y84000D01*
Y85000D02*
X-74000Y71000D01*
X-88500D02*
X-74000D01*
X-88500D02*
X-81500Y85000D01*
X-19963Y-70313D02*
X-20113Y-70013D01*
X-20413Y-69714D01*
X-20713Y-69564D01*
X-21313D01*
X-21613Y-69714D01*
X-21913Y-70013D01*
X-22063Y-70313D01*
X-22213Y-70763D01*
Y-71513D01*
X-22063Y-71963D01*
X-21913Y-72263D01*
X-21613Y-72563D01*
X-21313Y-72713D01*
X-20713D01*
X-20413Y-72563D01*
X-20113Y-72263D01*
X-19963Y-71963D01*
Y-71513D01*
X-20713D02*
X-19963D01*
X-19244Y-69564D02*
Y-72713D01*
Y-69564D02*
X-17144Y-72713D01*
Y-69564D02*
Y-72713D01*
X-16275Y-69564D02*
Y-72713D01*
Y-69564D02*
X-15225D01*
X-14775Y-69714D01*
X-14475Y-70013D01*
X-14325Y-70313D01*
X-14175Y-70763D01*
Y-71513D01*
X-14325Y-71963D01*
X-14475Y-72263D01*
X-14775Y-72563D01*
X-15225Y-72713D01*
X-16275D01*
X-9713Y-69564D02*
Y-72713D01*
Y-69564D02*
X-8363D01*
X-7913Y-69714D01*
X-7763Y-69864D01*
X-7613Y-70164D01*
Y-70463D01*
X-7763Y-70763D01*
X-7913Y-70913D01*
X-8363Y-71063D01*
X-9713D01*
X-8663D02*
X-7613Y-72713D01*
X-6909Y-69564D02*
X-4809Y-72713D01*
Y-69564D02*
X-6909Y-72713D01*
X1337Y-69564D02*
Y-72713D01*
X287Y-69564D02*
X2387D01*
X2762D02*
X4861Y-72713D01*
Y-69564D02*
X2762Y-72713D01*
D14*
X-50138Y-68301D02*
Y-66514D01*
X-44350Y-68301D02*
Y-66514D01*
X-56894Y-68301D02*
Y-66514D01*
X-51106Y-68301D02*
Y-66514D01*
X50264Y13736D02*
X60736D01*
Y-26500D02*
Y13736D01*
X50264Y-26500D02*
Y13736D01*
Y-26500D02*
X60736D01*
Y-36736D02*
Y-31500D01*
X55500Y-36736D02*
X60736D01*
X7236Y-63000D02*
Y-57764D01*
X2000D02*
X7236D01*
X-3000Y-68236D02*
Y-57764D01*
X-23236Y-68236D02*
X-3000D01*
X-23236Y-57764D02*
X-3000D01*
X-23236Y-68236D02*
Y-57764D01*
X67106Y-19480D02*
X68894D01*
X67106Y-25268D02*
X68894D01*
X894Y-40394D02*
Y-38606D01*
X-4894Y-40394D02*
Y-38606D01*
X67106Y-12394D02*
X68894D01*
X67106Y-6606D02*
X68894D01*
X67106Y-13106D02*
X68894D01*
X67106Y-18894D02*
X68894D01*
X23394Y9354D02*
Y11142D01*
X17606Y9354D02*
Y11142D01*
X-5606Y23724D02*
Y25512D01*
X-11394Y23724D02*
Y25512D01*
X7394Y-40394D02*
Y-38606D01*
X1606Y-40394D02*
Y-38606D01*
X-29119Y18106D02*
X-27062D01*
X-29119Y23894D02*
X-27062D01*
X67119Y-232D02*
X69176D01*
X67119Y-6020D02*
X69176D01*
X-27249Y44394D02*
X-25192D01*
X-27249Y38606D02*
X-25192D01*
X-29769Y-10106D02*
X-27712D01*
X-29769Y-15894D02*
X-27712D01*
X-29769Y-34106D02*
X-27712D01*
X-29769Y-39894D02*
X-27712D01*
X-12106Y23737D02*
Y25794D01*
X-17894Y23737D02*
Y25794D01*
X-47236Y-78170D02*
Y-75021D01*
Y-78170D02*
X-48585D01*
X-49035Y-78020D01*
X-49185Y-77870D01*
X-49335Y-77570D01*
Y-77270D01*
X-49185Y-76970D01*
X-49035Y-76820D01*
X-48585Y-76670D01*
X-47236D01*
X-48285D02*
X-49335Y-75021D01*
X-50190Y-77420D02*
Y-77570D01*
X-50340Y-77870D01*
X-50490Y-78020D01*
X-50790Y-78170D01*
X-51389D01*
X-51689Y-78020D01*
X-51839Y-77870D01*
X-51989Y-77570D01*
Y-77270D01*
X-51839Y-76970D01*
X-51539Y-76520D01*
X-50040Y-75021D01*
X-52139D01*
X-52844Y-77570D02*
X-53144Y-77720D01*
X-53594Y-78170D01*
Y-75021D01*
X-56053Y-78170D02*
X-55603Y-78020D01*
X-55303Y-77570D01*
X-55153Y-76820D01*
Y-76370D01*
X-55303Y-75621D01*
X-55603Y-75171D01*
X-56053Y-75021D01*
X-56353D01*
X-56803Y-75171D01*
X-57103Y-75621D01*
X-57252Y-76370D01*
Y-76820D01*
X-57103Y-77570D01*
X-56803Y-78020D01*
X-56353Y-78170D01*
X-56053D01*
X-46167Y-77574D02*
Y-74426D01*
Y-77574D02*
X-47516D01*
X-47966Y-77425D01*
X-48116Y-77275D01*
X-48266Y-76975D01*
Y-76675D01*
X-48116Y-76375D01*
X-47966Y-76225D01*
X-47516Y-76075D01*
X-46167D01*
X-47216D02*
X-48266Y-74426D01*
X-49121Y-76825D02*
Y-76975D01*
X-49270Y-77275D01*
X-49420Y-77425D01*
X-49720Y-77574D01*
X-50320D01*
X-50620Y-77425D01*
X-50770Y-77275D01*
X-50920Y-76975D01*
Y-76675D01*
X-50770Y-76375D01*
X-50470Y-75925D01*
X-48970Y-74426D01*
X-51070D01*
X-51775Y-76975D02*
X-52074Y-77125D01*
X-52524Y-77574D01*
Y-74426D01*
X-54084Y-76975D02*
X-54384Y-77125D01*
X-54834Y-77574D01*
Y-74426D01*
X-60581Y-11925D02*
X-58482Y-15075D01*
Y-11925D02*
X-60581Y-15075D01*
X-57627Y-12675D02*
Y-12525D01*
X-57477Y-12225D01*
X-57327Y-12076D01*
X-57027Y-11925D01*
X-56427D01*
X-56128Y-12076D01*
X-55977Y-12225D01*
X-55828Y-12525D01*
Y-12825D01*
X-55977Y-13125D01*
X-56277Y-13575D01*
X-57777Y-15075D01*
X-55678D01*
X-54073Y-11925D02*
X-54523Y-12076D01*
X-54823Y-12525D01*
X-54973Y-13275D01*
Y-13725D01*
X-54823Y-14475D01*
X-54523Y-14924D01*
X-54073Y-15075D01*
X-53773D01*
X-53323Y-14924D01*
X-53023Y-14475D01*
X-52874Y-13725D01*
Y-13275D01*
X-53023Y-12525D01*
X-53323Y-12076D01*
X-53773Y-11925D01*
X-54073D01*
X-52169Y-12525D02*
X-51869Y-12375D01*
X-51419Y-11925D01*
Y-15075D01*
X-47256Y33075D02*
X-45156Y29926D01*
Y33075D02*
X-47256Y29926D01*
X-44302Y32325D02*
Y32475D01*
X-44152Y32775D01*
X-44002Y32925D01*
X-43702Y33075D01*
X-43102D01*
X-42802Y32925D01*
X-42652Y32775D01*
X-42502Y32475D01*
Y32175D01*
X-42652Y31875D01*
X-42952Y31425D01*
X-44452Y29926D01*
X-42352D01*
X-40748Y33075D02*
X-41198Y32925D01*
X-41498Y32475D01*
X-41648Y31725D01*
Y31275D01*
X-41498Y30525D01*
X-41198Y30075D01*
X-40748Y29926D01*
X-40448D01*
X-39998Y30075D01*
X-39698Y30525D01*
X-39548Y31275D01*
Y31725D01*
X-39698Y32475D01*
X-39998Y32925D01*
X-40448Y33075D01*
X-40748D01*
X-37944D02*
X-38394Y32925D01*
X-38694Y32475D01*
X-38844Y31725D01*
Y31275D01*
X-38694Y30525D01*
X-38394Y30075D01*
X-37944Y29926D01*
X-37644D01*
X-37194Y30075D01*
X-36894Y30525D01*
X-36744Y31275D01*
Y31725D01*
X-36894Y32475D01*
X-37194Y32925D01*
X-37644Y33075D01*
X-37944D01*
X-614Y16680D02*
Y14431D01*
X-464Y13981D01*
X-164Y13681D01*
X286Y13531D01*
X586D01*
X1036Y13681D01*
X1335Y13981D01*
X1486Y14431D01*
Y16680D01*
X2505Y15930D02*
Y16080D01*
X2655Y16380D01*
X2805Y16530D01*
X3105Y16680D01*
X3705D01*
X4005Y16530D01*
X4155Y16380D01*
X4304Y16080D01*
Y15780D01*
X4155Y15480D01*
X3855Y15030D01*
X2355Y13531D01*
X4454D01*
X6059Y16680D02*
X5609Y16530D01*
X5309Y16080D01*
X5159Y15330D01*
Y14880D01*
X5309Y14131D01*
X5609Y13681D01*
X6059Y13531D01*
X6359D01*
X6809Y13681D01*
X7109Y14131D01*
X7259Y14880D01*
Y15330D01*
X7109Y16080D01*
X6809Y16530D01*
X6359Y16680D01*
X6059D01*
X8863D02*
X8413Y16530D01*
X8113Y16080D01*
X7963Y15330D01*
Y14880D01*
X8113Y14131D01*
X8413Y13681D01*
X8863Y13531D01*
X9163D01*
X9613Y13681D01*
X9913Y14131D01*
X10063Y14880D01*
Y15330D01*
X9913Y16080D01*
X9613Y16530D01*
X9163Y16680D01*
X8863D01*
X65535Y-26319D02*
Y-29468D01*
Y-26319D02*
X66885D01*
X67335Y-26469D01*
X67485Y-26619D01*
X67635Y-26919D01*
Y-27219D01*
X67485Y-27519D01*
X67335Y-27668D01*
X66885Y-27819D01*
X65535D01*
X66585D02*
X67635Y-29468D01*
X68489Y-27069D02*
Y-26919D01*
X68639Y-26619D01*
X68789Y-26469D01*
X69089Y-26319D01*
X69689D01*
X69989Y-26469D01*
X70139Y-26619D01*
X70289Y-26919D01*
Y-27219D01*
X70139Y-27519D01*
X69839Y-27968D01*
X68339Y-29468D01*
X70439D01*
X72043Y-26319D02*
X71593Y-26469D01*
X71293Y-26919D01*
X71144Y-27668D01*
Y-28118D01*
X71293Y-28868D01*
X71593Y-29318D01*
X72043Y-29468D01*
X72343D01*
X72793Y-29318D01*
X73093Y-28868D01*
X73243Y-28118D01*
Y-27668D01*
X73093Y-26919D01*
X72793Y-26469D01*
X72343Y-26319D01*
X72043D01*
X76047D02*
X74547Y-29468D01*
X73948Y-26319D02*
X76047D01*
X74429Y-12904D02*
X77578D01*
X74429D02*
Y-11555D01*
X74579Y-11105D01*
X74729Y-10955D01*
X75029Y-10805D01*
X75329D01*
X75629Y-10955D01*
X75779Y-11105D01*
X75929Y-11555D01*
Y-12904D01*
Y-11855D02*
X77578Y-10805D01*
X75179Y-9950D02*
X75029D01*
X74729Y-9800D01*
X74579Y-9650D01*
X74429Y-9351D01*
Y-8751D01*
X74579Y-8451D01*
X74729Y-8301D01*
X75029Y-8151D01*
X75329D01*
X75629Y-8301D01*
X76078Y-8601D01*
X77578Y-10100D01*
Y-8001D01*
X74429Y-6397D02*
X74579Y-6846D01*
X75029Y-7146D01*
X75779Y-7296D01*
X76228D01*
X76978Y-7146D01*
X77428Y-6846D01*
X77578Y-6397D01*
Y-6097D01*
X77428Y-5647D01*
X76978Y-5347D01*
X76228Y-5197D01*
X75779D01*
X75029Y-5347D01*
X74579Y-5647D01*
X74429Y-6097D01*
Y-6397D01*
X74879Y-2693D02*
X74579Y-2843D01*
X74429Y-3293D01*
Y-3593D01*
X74579Y-4042D01*
X75029Y-4342D01*
X75779Y-4492D01*
X76528D01*
X77128Y-4342D01*
X77428Y-4042D01*
X77578Y-3593D01*
Y-3443D01*
X77428Y-2993D01*
X77128Y-2693D01*
X76678Y-2543D01*
X76528D01*
X76078Y-2693D01*
X75779Y-2993D01*
X75629Y-3443D01*
Y-3593D01*
X75779Y-4042D01*
X76078Y-4342D01*
X76528Y-4492D01*
X74426Y-24256D02*
X77574D01*
X74426D02*
Y-22906D01*
X74576Y-22456D01*
X74725Y-22306D01*
X75025Y-22156D01*
X75325D01*
X75625Y-22306D01*
X75775Y-22456D01*
X75925Y-22906D01*
Y-24256D01*
Y-23206D02*
X77574Y-22156D01*
X75175Y-21302D02*
X75025D01*
X74725Y-21152D01*
X74576Y-21002D01*
X74426Y-20702D01*
Y-20102D01*
X74576Y-19802D01*
X74725Y-19652D01*
X75025Y-19502D01*
X75325D01*
X75625Y-19652D01*
X76075Y-19952D01*
X77574Y-21452D01*
Y-19352D01*
X74426Y-17748D02*
X74576Y-18198D01*
X75025Y-18498D01*
X75775Y-18648D01*
X76225D01*
X76975Y-18498D01*
X77425Y-18198D01*
X77574Y-17748D01*
Y-17448D01*
X77425Y-16998D01*
X76975Y-16698D01*
X76225Y-16548D01*
X75775D01*
X75025Y-16698D01*
X74576Y-16998D01*
X74426Y-17448D01*
Y-17748D01*
Y-14044D02*
Y-15544D01*
X75775Y-15694D01*
X75625Y-15544D01*
X75475Y-15094D01*
Y-14644D01*
X75625Y-14194D01*
X75925Y-13894D01*
X76375Y-13744D01*
X76675D01*
X77125Y-13894D01*
X77425Y-14194D01*
X77574Y-14644D01*
Y-15094D01*
X77425Y-15544D01*
X77275Y-15694D01*
X76975Y-15844D01*
X24015Y5080D02*
X27164D01*
X24015D02*
Y6430D01*
X24165Y6880D01*
X24315Y7030D01*
X24615Y7180D01*
X24915D01*
X25215Y7030D01*
X25365Y6880D01*
X25515Y6430D01*
Y5080D01*
Y6130D02*
X27164Y7180D01*
X24765Y8034D02*
X24615D01*
X24315Y8185D01*
X24165Y8334D01*
X24015Y8634D01*
Y9234D01*
X24165Y9534D01*
X24315Y9684D01*
X24615Y9834D01*
X24915D01*
X25215Y9684D01*
X25664Y9384D01*
X27164Y7885D01*
Y9984D01*
X24015Y11588D02*
X24165Y11139D01*
X24615Y10839D01*
X25365Y10689D01*
X25814D01*
X26564Y10839D01*
X27014Y11139D01*
X27164Y11588D01*
Y11888D01*
X27014Y12338D01*
X26564Y12638D01*
X25814Y12788D01*
X25365D01*
X24615Y12638D01*
X24165Y12338D01*
X24015Y11888D01*
Y11588D01*
Y14992D02*
X26114Y13493D01*
Y15742D01*
X24015Y14992D02*
X27164D01*
X-10074Y32244D02*
X-6926D01*
X-10074D02*
Y33594D01*
X-9924Y34044D01*
X-9775Y34194D01*
X-9475Y34344D01*
X-9175D01*
X-8875Y34194D01*
X-8725Y34044D01*
X-8575Y33594D01*
Y32244D01*
Y33294D02*
X-6926Y34344D01*
X-9325Y35198D02*
X-9475D01*
X-9775Y35348D01*
X-9924Y35498D01*
X-10074Y35798D01*
Y36398D01*
X-9924Y36698D01*
X-9775Y36848D01*
X-9475Y36998D01*
X-9175D01*
X-8875Y36848D01*
X-8425Y36548D01*
X-6926Y35048D01*
Y37148D01*
X-10074Y38752D02*
X-9924Y38302D01*
X-9475Y38002D01*
X-8725Y37852D01*
X-8275D01*
X-7525Y38002D01*
X-7075Y38302D01*
X-6926Y38752D01*
Y39052D01*
X-7075Y39502D01*
X-7525Y39802D01*
X-8275Y39952D01*
X-8725D01*
X-9475Y39802D01*
X-9924Y39502D01*
X-10074Y39052D01*
Y38752D01*
Y40956D02*
Y42606D01*
X-8875Y41706D01*
Y42156D01*
X-8725Y42456D01*
X-8575Y42606D01*
X-8125Y42756D01*
X-7825D01*
X-7375Y42606D01*
X-7075Y42306D01*
X-6926Y41856D01*
Y41406D01*
X-7075Y40956D01*
X-7225Y40806D01*
X-7525Y40656D01*
X-15081Y-37925D02*
Y-41074D01*
Y-37925D02*
X-13731D01*
X-13282Y-38076D01*
X-13132Y-38225D01*
X-12982Y-38525D01*
Y-38825D01*
X-13132Y-39125D01*
X-13282Y-39275D01*
X-13731Y-39425D01*
X-15081D01*
X-14031D02*
X-12982Y-41074D01*
X-12127Y-38675D02*
Y-38525D01*
X-11977Y-38225D01*
X-11827Y-38076D01*
X-11527Y-37925D01*
X-10927D01*
X-10627Y-38076D01*
X-10477Y-38225D01*
X-10328Y-38525D01*
Y-38825D01*
X-10477Y-39125D01*
X-10777Y-39575D01*
X-12277Y-41074D01*
X-10178D01*
X-8573Y-37925D02*
X-9023Y-38076D01*
X-9323Y-38525D01*
X-9473Y-39275D01*
Y-39725D01*
X-9323Y-40475D01*
X-9023Y-40925D01*
X-8573Y-41074D01*
X-8273D01*
X-7823Y-40925D01*
X-7524Y-40475D01*
X-7374Y-39725D01*
Y-39275D01*
X-7524Y-38525D01*
X-7823Y-38076D01*
X-8273Y-37925D01*
X-8573D01*
X-6669Y-38525D02*
X-6369Y-38375D01*
X-5919Y-37925D01*
Y-41074D01*
X8256Y-37418D02*
Y-40567D01*
Y-37418D02*
X9606D01*
X10056Y-37567D01*
X10206Y-37718D01*
X10356Y-38017D01*
Y-38317D01*
X10206Y-38617D01*
X10056Y-38767D01*
X9606Y-38917D01*
X8256D01*
X9306D02*
X10356Y-40567D01*
X11210Y-38167D02*
Y-38017D01*
X11360Y-37718D01*
X11510Y-37567D01*
X11810Y-37418D01*
X12410D01*
X12710Y-37567D01*
X12860Y-37718D01*
X13010Y-38017D01*
Y-38317D01*
X12860Y-38617D01*
X12560Y-39067D01*
X11060Y-40567D01*
X13160D01*
X14764Y-37418D02*
X14314Y-37567D01*
X14014Y-38017D01*
X13864Y-38767D01*
Y-39217D01*
X14014Y-39967D01*
X14314Y-40417D01*
X14764Y-40567D01*
X15064D01*
X15514Y-40417D01*
X15814Y-39967D01*
X15964Y-39217D01*
Y-38767D01*
X15814Y-38017D01*
X15514Y-37567D01*
X15064Y-37418D01*
X14764D01*
X17568D02*
X17118Y-37567D01*
X16818Y-38017D01*
X16669Y-38767D01*
Y-39217D01*
X16818Y-39967D01*
X17118Y-40417D01*
X17568Y-40567D01*
X17868D01*
X18318Y-40417D01*
X18618Y-39967D01*
X18768Y-39217D01*
Y-38767D01*
X18618Y-38017D01*
X18318Y-37567D01*
X17868Y-37418D01*
X17568D01*
X52491Y18575D02*
Y16175D01*
X52341Y15725D01*
X52191Y15575D01*
X51891Y15426D01*
X51591D01*
X51292Y15575D01*
X51142Y15725D01*
X50992Y16175D01*
Y16475D01*
X53451Y17825D02*
Y17975D01*
X53601Y18275D01*
X53751Y18425D01*
X54051Y18575D01*
X54650D01*
X54950Y18425D01*
X55100Y18275D01*
X55250Y17975D01*
Y17675D01*
X55100Y17375D01*
X54800Y16925D01*
X53301Y15426D01*
X55400D01*
X57005Y18575D02*
X56555Y18425D01*
X56255Y17975D01*
X56105Y17225D01*
Y16775D01*
X56255Y16025D01*
X56555Y15575D01*
X57005Y15426D01*
X57305D01*
X57754Y15575D01*
X58054Y16025D01*
X58204Y16775D01*
Y17225D01*
X58054Y17975D01*
X57754Y18425D01*
X57305Y18575D01*
X57005D01*
X60708D02*
X59209D01*
X59059Y17225D01*
X59209Y17375D01*
X59659Y17525D01*
X60109D01*
X60558Y17375D01*
X60858Y17075D01*
X61008Y16625D01*
Y16325D01*
X60858Y15875D01*
X60558Y15575D01*
X60109Y15426D01*
X59659D01*
X59209Y15575D01*
X59059Y15725D01*
X58909Y16025D01*
X-15084Y-53426D02*
Y-55825D01*
X-15234Y-56275D01*
X-15384Y-56424D01*
X-15684Y-56574D01*
X-15983D01*
X-16283Y-56424D01*
X-16433Y-56275D01*
X-16583Y-55825D01*
Y-55525D01*
X-14124Y-54175D02*
Y-54025D01*
X-13974Y-53725D01*
X-13824Y-53575D01*
X-13524Y-53426D01*
X-12924D01*
X-12625Y-53575D01*
X-12475Y-53725D01*
X-12325Y-54025D01*
Y-54325D01*
X-12475Y-54625D01*
X-12775Y-55075D01*
X-14274Y-56574D01*
X-12175D01*
X-10570Y-53426D02*
X-11020Y-53575D01*
X-11320Y-54025D01*
X-11470Y-54775D01*
Y-55225D01*
X-11320Y-55975D01*
X-11020Y-56424D01*
X-10570Y-56574D01*
X-10270D01*
X-9821Y-56424D01*
X-9521Y-55975D01*
X-9371Y-55225D01*
Y-54775D01*
X-9521Y-54025D01*
X-9821Y-53575D01*
X-10270Y-53426D01*
X-10570D01*
X-7166D02*
X-8666Y-55525D01*
X-6417D01*
X-7166Y-53426D02*
Y-56574D01*
X-30829Y16350D02*
X-30979Y16649D01*
X-31279Y16949D01*
X-31579Y17099D01*
X-32179D01*
X-32479Y16949D01*
X-32779Y16649D01*
X-32928Y16350D01*
X-33079Y15900D01*
Y15150D01*
X-32928Y14700D01*
X-32779Y14400D01*
X-32479Y14100D01*
X-32179Y13950D01*
X-31579D01*
X-31279Y14100D01*
X-30979Y14400D01*
X-30829Y14700D01*
X-29795Y16350D02*
Y16500D01*
X-29645Y16800D01*
X-29495Y16949D01*
X-29195Y17099D01*
X-28595D01*
X-28295Y16949D01*
X-28145Y16800D01*
X-27995Y16500D01*
Y16200D01*
X-28145Y15900D01*
X-28445Y15450D01*
X-29945Y13950D01*
X-27845D01*
X-26991Y16350D02*
Y16500D01*
X-26841Y16800D01*
X-26691Y16949D01*
X-26391Y17099D01*
X-25791D01*
X-25491Y16949D01*
X-25341Y16800D01*
X-25191Y16500D01*
Y16200D01*
X-25341Y15900D01*
X-25641Y15450D01*
X-27141Y13950D01*
X-25041D01*
X-23437Y17099D02*
X-23887Y16949D01*
X-24186Y16500D01*
X-24336Y15750D01*
Y15300D01*
X-24186Y14550D01*
X-23887Y14100D01*
X-23437Y13950D01*
X-23137D01*
X-22687Y14100D01*
X-22387Y14550D01*
X-22237Y15300D01*
Y15750D01*
X-22387Y16500D01*
X-22687Y16949D01*
X-23137Y17099D01*
X-23437D01*
X66417Y3825D02*
X66267Y4125D01*
X65967Y4425D01*
X65667Y4575D01*
X65067D01*
X64767Y4425D01*
X64467Y4125D01*
X64317Y3825D01*
X64167Y3375D01*
Y2625D01*
X64317Y2175D01*
X64467Y1875D01*
X64767Y1575D01*
X65067Y1426D01*
X65667D01*
X65967Y1575D01*
X66267Y1875D01*
X66417Y2175D01*
X67451Y3825D02*
Y3975D01*
X67601Y4275D01*
X67751Y4425D01*
X68051Y4575D01*
X68651D01*
X68951Y4425D01*
X69101Y4275D01*
X69251Y3975D01*
Y3675D01*
X69101Y3375D01*
X68801Y2925D01*
X67301Y1426D01*
X69401D01*
X70105Y3975D02*
X70405Y4125D01*
X70855Y4575D01*
Y1426D01*
X74364Y3525D02*
X74214Y3075D01*
X73914Y2775D01*
X73464Y2625D01*
X73314D01*
X72864Y2775D01*
X72565Y3075D01*
X72415Y3525D01*
Y3675D01*
X72565Y4125D01*
X72864Y4425D01*
X73314Y4575D01*
X73464D01*
X73914Y4425D01*
X74214Y4125D01*
X74364Y3525D01*
Y2775D01*
X74214Y2025D01*
X73914Y1575D01*
X73464Y1426D01*
X73164D01*
X72715Y1575D01*
X72565Y1875D01*
X-29790Y47835D02*
X-29940Y48134D01*
X-30240Y48434D01*
X-30540Y48584D01*
X-31140D01*
X-31440Y48434D01*
X-31740Y48134D01*
X-31890Y47835D01*
X-32040Y47385D01*
Y46635D01*
X-31890Y46185D01*
X-31740Y45885D01*
X-31440Y45585D01*
X-31140Y45435D01*
X-30540D01*
X-30240Y45585D01*
X-29940Y45885D01*
X-29790Y46185D01*
X-28756Y47835D02*
Y47984D01*
X-28606Y48284D01*
X-28456Y48434D01*
X-28156Y48584D01*
X-27556D01*
X-27256Y48434D01*
X-27106Y48284D01*
X-26956Y47984D01*
Y47685D01*
X-27106Y47385D01*
X-27406Y46935D01*
X-28906Y45435D01*
X-26806D01*
X-26102Y47984D02*
X-25802Y48134D01*
X-25352Y48584D01*
Y45435D01*
X-23043Y48584D02*
X-23492Y48434D01*
X-23642Y48134D01*
Y47835D01*
X-23492Y47535D01*
X-23192Y47385D01*
X-22593Y47235D01*
X-22143Y47085D01*
X-21843Y46785D01*
X-21693Y46485D01*
Y46035D01*
X-21843Y45735D01*
X-21993Y45585D01*
X-22443Y45435D01*
X-23043D01*
X-23492Y45585D01*
X-23642Y45735D01*
X-23792Y46035D01*
Y46485D01*
X-23642Y46785D01*
X-23343Y47085D01*
X-22893Y47235D01*
X-22293Y47385D01*
X-21993Y47535D01*
X-21843Y47835D01*
Y48134D01*
X-21993Y48434D01*
X-22443Y48584D01*
X-23043D01*
X-31795Y-6468D02*
X-31945Y-6168D01*
X-32245Y-5868D01*
X-32545Y-5718D01*
X-33145D01*
X-33445Y-5868D01*
X-33745Y-6168D01*
X-33895Y-6468D01*
X-34045Y-6918D01*
Y-7668D01*
X-33895Y-8117D01*
X-33745Y-8417D01*
X-33445Y-8717D01*
X-33145Y-8867D01*
X-32545D01*
X-32245Y-8717D01*
X-31945Y-8417D01*
X-31795Y-8117D01*
X-30761Y-6468D02*
Y-6318D01*
X-30611Y-6018D01*
X-30461Y-5868D01*
X-30161Y-5718D01*
X-29561D01*
X-29261Y-5868D01*
X-29111Y-6018D01*
X-28961Y-6318D01*
Y-6618D01*
X-29111Y-6918D01*
X-29411Y-7368D01*
X-30911Y-8867D01*
X-28811D01*
X-28107Y-6318D02*
X-27807Y-6168D01*
X-27357Y-5718D01*
Y-8867D01*
X-23698Y-5718D02*
X-25198Y-8867D01*
X-25798Y-5718D02*
X-23698D01*
X-30979Y-41616D02*
X-31129Y-41316D01*
X-31429Y-41016D01*
X-31729Y-40867D01*
X-32329D01*
X-32628Y-41016D01*
X-32928Y-41316D01*
X-33078Y-41616D01*
X-33228Y-42066D01*
Y-42816D01*
X-33078Y-43266D01*
X-32928Y-43566D01*
X-32628Y-43865D01*
X-32329Y-44015D01*
X-31729D01*
X-31429Y-43865D01*
X-31129Y-43566D01*
X-30979Y-43266D01*
X-29944Y-41616D02*
Y-41466D01*
X-29794Y-41166D01*
X-29644Y-41016D01*
X-29344Y-40867D01*
X-28745D01*
X-28445Y-41016D01*
X-28295Y-41166D01*
X-28145Y-41466D01*
Y-41766D01*
X-28295Y-42066D01*
X-28595Y-42516D01*
X-30094Y-44015D01*
X-27995D01*
X-27290Y-41466D02*
X-26990Y-41316D01*
X-26540Y-40867D01*
Y-44015D01*
X-23182Y-41316D02*
X-23332Y-41016D01*
X-23781Y-40867D01*
X-24081D01*
X-24531Y-41016D01*
X-24831Y-41466D01*
X-24981Y-42216D01*
Y-42966D01*
X-24831Y-43566D01*
X-24531Y-43865D01*
X-24081Y-44015D01*
X-23931D01*
X-23482Y-43865D01*
X-23182Y-43566D01*
X-23032Y-43116D01*
Y-42966D01*
X-23182Y-42516D01*
X-23482Y-42216D01*
X-23931Y-42066D01*
X-24081D01*
X-24531Y-42216D01*
X-24831Y-42516D01*
X-24981Y-42966D01*
X-15825Y34420D02*
X-16125Y34271D01*
X-16424Y33971D01*
X-16575Y33671D01*
Y33071D01*
X-16424Y32771D01*
X-16125Y32471D01*
X-15825Y32321D01*
X-15375Y32171D01*
X-14625D01*
X-14175Y32321D01*
X-13875Y32471D01*
X-13576Y32771D01*
X-13426Y33071D01*
Y33671D01*
X-13576Y33971D01*
X-13875Y34271D01*
X-14175Y34420D01*
X-15825Y35455D02*
X-15975D01*
X-16275Y35605D01*
X-16424Y35755D01*
X-16575Y36055D01*
Y36655D01*
X-16424Y36955D01*
X-16275Y37105D01*
X-15975Y37255D01*
X-15675D01*
X-15375Y37105D01*
X-14925Y36805D01*
X-13426Y35305D01*
Y37405D01*
X-15975Y38109D02*
X-16125Y38409D01*
X-16575Y38859D01*
X-13426D01*
X-15825Y40568D02*
X-15975D01*
X-16275Y40718D01*
X-16424Y40868D01*
X-16575Y41168D01*
Y41768D01*
X-16424Y42068D01*
X-16275Y42218D01*
X-15975Y42368D01*
X-15675D01*
X-15375Y42218D01*
X-14925Y41918D01*
X-13426Y40418D01*
Y42518D01*
D15*
X-28681Y36421D02*
X-26319D01*
X-21201Y30713D02*
Y32287D01*
X-33799Y30713D02*
Y32287D01*
X-28681Y26579D02*
X-26319D01*
D16*
X-26819Y63085D02*
Y57181D01*
Y63085D02*
X-24570Y57181D01*
X-22320Y63085D02*
X-24570Y57181D01*
X-22320Y63085D02*
Y57181D01*
X-19228Y61117D02*
X-19790Y60836D01*
X-20352Y60274D01*
X-20633Y59430D01*
Y58868D01*
X-20352Y58025D01*
X-19790Y57462D01*
X-19228Y57181D01*
X-18384D01*
X-17822Y57462D01*
X-17260Y58025D01*
X-16978Y58868D01*
Y59430D01*
X-17260Y60274D01*
X-17822Y60836D01*
X-18384Y61117D01*
X-19228D01*
X-12311Y63085D02*
Y57181D01*
Y60274D02*
X-12874Y60836D01*
X-13436Y61117D01*
X-14279D01*
X-14842Y60836D01*
X-15404Y60274D01*
X-15685Y59430D01*
Y58868D01*
X-15404Y58025D01*
X-14842Y57462D01*
X-14279Y57181D01*
X-13436D01*
X-12874Y57462D01*
X-12311Y58025D01*
X-10737Y61117D02*
Y58306D01*
X-10456Y57462D01*
X-9893Y57181D01*
X-9050D01*
X-8488Y57462D01*
X-7644Y58306D01*
Y61117D02*
Y57181D01*
X-6098Y63085D02*
Y57181D01*
X-4861Y59430D02*
X-1487D01*
Y59993D01*
X-1768Y60555D01*
X-2049Y60836D01*
X-2612Y61117D01*
X-3455D01*
X-4017Y60836D01*
X-4580Y60274D01*
X-4861Y59430D01*
Y58868D01*
X-4580Y58025D01*
X-4017Y57462D01*
X-3455Y57181D01*
X-2612D01*
X-2049Y57462D01*
X-1487Y58025D01*
X4417Y63085D02*
X6667Y57181D01*
X8916Y63085D02*
X6667Y57181D01*
X9675Y61961D02*
X10237Y62242D01*
X11081Y63085D01*
Y57181D01*
X14286Y57743D02*
X14005Y57462D01*
X14286Y57181D01*
X14567Y57462D01*
X14286Y57743D01*
X15860Y61961D02*
X16423Y62242D01*
X17266Y63085D01*
Y57181D01*
X-40820Y66743D02*
X-43070Y72648D01*
X-45319Y66743D01*
X-44475Y68712D02*
X-41664D01*
X-37475Y72648D02*
Y66743D01*
X-39443Y72648D02*
X-35507D01*
X-30868Y71804D02*
X-31430Y72366D01*
X-32273Y72648D01*
X-33398D01*
X-34241Y72366D01*
X-34804Y71804D01*
Y71242D01*
X-34523Y70680D01*
X-34241Y70398D01*
X-33679Y70117D01*
X-31992Y69555D01*
X-31430Y69274D01*
X-31149Y68993D01*
X-30868Y68430D01*
Y67587D01*
X-31430Y67025D01*
X-32273Y66743D01*
X-33398D01*
X-34241Y67025D01*
X-34804Y67587D01*
X-25048Y66743D02*
X-27297Y72648D01*
X-29546Y66743D01*
X-28703Y68712D02*
X-25891D01*
X-23670Y72648D02*
Y66743D01*
Y72648D02*
X-21421Y66743D01*
X-19172Y72648D02*
X-21421Y66743D01*
X-19172Y72648D02*
Y66743D01*
X-13548Y71804D02*
X-14111Y72366D01*
X-14954Y72648D01*
X-16079D01*
X-16922Y72366D01*
X-17485Y71804D01*
Y71242D01*
X-17203Y70680D01*
X-16922Y70398D01*
X-16360Y70117D01*
X-14673Y69555D01*
X-14111Y69274D01*
X-13830Y68993D01*
X-13548Y68430D01*
Y67587D01*
X-14111Y67025D01*
X-14954Y66743D01*
X-16079D01*
X-16922Y67025D01*
X-17485Y67587D01*
X-8291Y72648D02*
X-11102Y66743D01*
X-12227Y72648D02*
X-8291D01*
X-5283D02*
X-6126Y72366D01*
X-6688Y71523D01*
X-6969Y70117D01*
Y69274D01*
X-6688Y67868D01*
X-6126Y67025D01*
X-5283Y66743D01*
X-4720D01*
X-3877Y67025D01*
X-3314Y67868D01*
X-3033Y69274D01*
Y70117D01*
X-3314Y71523D01*
X-3877Y72366D01*
X-4720Y72648D01*
X-5283D01*
X-25D02*
X-587Y72366D01*
X-1149Y71804D01*
X-1431Y71242D01*
X-1712Y70398D01*
Y68993D01*
X-1431Y68149D01*
X-1149Y67587D01*
X-587Y67025D01*
X-25Y66743D01*
X1100D01*
X1662Y67025D01*
X2224Y67587D01*
X2506Y68149D01*
X2787Y68993D01*
Y70398D01*
X2506Y71242D01*
X2224Y71804D01*
X1662Y72366D01*
X1100Y72648D01*
X-25D01*
X819Y67868D02*
X2506Y66181D01*
X4445Y71242D02*
Y71523D01*
X4727Y72085D01*
X5008Y72366D01*
X5570Y72648D01*
X6695D01*
X7257Y72366D01*
X7538Y72085D01*
X7819Y71523D01*
Y70961D01*
X7538Y70398D01*
X6976Y69555D01*
X4164Y66743D01*
X8100D01*
X11109Y72648D02*
X10265Y72366D01*
X9703Y71523D01*
X9422Y70117D01*
Y69274D01*
X9703Y67868D01*
X10265Y67025D01*
X11109Y66743D01*
X11671D01*
X12515Y67025D01*
X13077Y67868D01*
X13358Y69274D01*
Y70117D01*
X13077Y71523D01*
X12515Y72366D01*
X11671Y72648D01*
X11109D01*
X19178Y66743D02*
X16929Y72648D01*
X14680Y66743D01*
X15523Y68712D02*
X18335D01*
X20556Y69274D02*
X25616D01*
X31577Y71242D02*
X31296Y71804D01*
X30733Y72366D01*
X30171Y72648D01*
X29046D01*
X28484Y72366D01*
X27922Y71804D01*
X27641Y71242D01*
X27360Y70398D01*
Y68993D01*
X27641Y68149D01*
X27922Y67587D01*
X28484Y67025D01*
X29046Y66743D01*
X30171D01*
X30733Y67025D01*
X31296Y67587D01*
X31577Y68149D01*
X33236Y72648D02*
Y66743D01*
Y72648D02*
X36891D01*
X33236Y69836D02*
X35485D01*
X37565Y72648D02*
Y66743D01*
Y72648D02*
X41502Y66743D01*
Y72648D02*
Y66743D01*
X45100Y72648D02*
Y66743D01*
X43132Y72648D02*
X47069D01*
D17*
X-48500Y-25000D02*
D03*
D18*
X21563Y-57433D02*
D03*
D19*
X54742Y-61797D02*
D03*
D20*
X42062Y-66818D02*
D03*
D21*
X25927Y-57387D02*
D03*
D22*
X43516Y-47980D02*
D03*
M02*
