G04*
G04 #@! TF.GenerationSoftware,Altium Limited,Altium Designer,22.3.1 (43)*
G04*
G04 Layer_Physical_Order=3*
G04 Layer_Color=16440176*
%FSLAX25Y25*%
%MOIN*%
G70*
G04*
G04 #@! TF.SameCoordinates,697392F4-E1DC-46BD-99ED-7115868F3DC7*
G04*
G04*
G04 #@! TF.FilePolarity,Positive*
G04*
G01*
G75*
%ADD12C,0.00394*%
%ADD13C,0.00787*%
%ADD15C,0.01000*%
%ADD46C,0.03150*%
%ADD51C,0.05906*%
%ADD52R,0.06693X0.06693*%
G04:AMPARAMS|DCode=53|XSize=66.93mil|YSize=66.93mil|CornerRadius=33.47mil|HoleSize=0mil|Usage=FLASHONLY|Rotation=180.000|XOffset=0mil|YOffset=0mil|HoleType=Round|Shape=RoundedRectangle|*
%AMROUNDEDRECTD53*
21,1,0.06693,0.00000,0,0,180.0*
21,1,0.00000,0.06693,0,0,180.0*
1,1,0.06693,0.00000,0.00000*
1,1,0.06693,0.00000,0.00000*
1,1,0.06693,0.00000,0.00000*
1,1,0.06693,0.00000,0.00000*
%
%ADD53ROUNDEDRECTD53*%
G04:AMPARAMS|DCode=54|XSize=66.93mil|YSize=66.93mil|CornerRadius=33.47mil|HoleSize=0mil|Usage=FLASHONLY|Rotation=270.000|XOffset=0mil|YOffset=0mil|HoleType=Round|Shape=RoundedRectangle|*
%AMROUNDEDRECTD54*
21,1,0.06693,0.00000,0,0,270.0*
21,1,0.00000,0.06693,0,0,270.0*
1,1,0.06693,0.00000,0.00000*
1,1,0.06693,0.00000,0.00000*
1,1,0.06693,0.00000,0.00000*
1,1,0.06693,0.00000,0.00000*
%
%ADD54ROUNDEDRECTD54*%
%ADD57C,0.01968*%
%ADD58C,0.02362*%
%ADD59C,0.03150*%
%ADD60C,0.01600*%
%ADD61C,0.01181*%
G36*
X98425Y-98425D02*
X-98425D01*
Y98425D01*
X98425D01*
Y-98425D01*
D02*
G37*
%LPC*%
G36*
X24622Y94375D02*
Y90551D01*
X22622D01*
Y94375D01*
X22096Y94235D01*
X21195Y93714D01*
X20459Y92978D01*
X19946Y92089D01*
X19837Y92063D01*
X19533D01*
X19424Y92089D01*
X18911Y92978D01*
X18175Y93714D01*
X17274Y94235D01*
X16748Y94375D01*
Y90551D01*
X14748D01*
Y94375D01*
X14222Y94235D01*
X13321Y93714D01*
X12585Y92978D01*
X12065Y92077D01*
X11960Y91685D01*
X11442D01*
X11359Y91995D01*
X10867Y92848D01*
X10170Y93544D01*
X9318Y94036D01*
X8366Y94291D01*
X7382D01*
X6430Y94036D01*
X5578Y93544D01*
X4881Y92848D01*
X4389Y91995D01*
X4196Y91275D01*
X3678D01*
X3485Y91995D01*
X2993Y92848D01*
X2296Y93544D01*
X1444Y94036D01*
X492Y94291D01*
X-492D01*
X-1444Y94036D01*
X-2296Y93544D01*
X-2993Y92848D01*
X-3485Y91995D01*
X-3678Y91275D01*
X-4196D01*
X-4389Y91995D01*
X-4881Y92848D01*
X-5578Y93544D01*
X-6431Y94036D01*
X-7382Y94291D01*
X-8366D01*
X-9318Y94036D01*
X-10171Y93544D01*
X-10867Y92848D01*
X-11359Y91995D01*
X-11552Y91275D01*
X-12070D01*
X-12263Y91995D01*
X-12755Y92848D01*
X-13452Y93544D01*
X-14304Y94036D01*
X-15256Y94291D01*
X-16240D01*
X-17192Y94036D01*
X-18045Y93544D01*
X-18741Y92848D01*
X-19233Y91995D01*
X-19316Y91686D01*
X-19834D01*
X-19939Y92077D01*
X-20459Y92978D01*
X-21195Y93714D01*
X-22096Y94235D01*
X-22622Y94375D01*
Y90551D01*
X-24622D01*
Y94375D01*
X-25148Y94235D01*
X-26049Y93714D01*
X-26785Y92978D01*
X-27305Y92077D01*
X-27410Y91686D01*
X-27928D01*
X-28011Y91995D01*
X-28503Y92848D01*
X-29200Y93544D01*
X-30053Y94036D01*
X-31004Y94291D01*
X-31988D01*
X-32940Y94036D01*
X-33793Y93544D01*
X-34489Y92848D01*
X-34981Y91995D01*
X-35174Y91275D01*
X-35692D01*
X-35885Y91995D01*
X-36377Y92848D01*
X-37074Y93544D01*
X-37927Y94036D01*
X-38878Y94291D01*
X-39862D01*
X-40814Y94036D01*
X-41667Y93544D01*
X-42363Y92848D01*
X-42855Y91995D01*
X-42938Y91686D01*
X-43456D01*
X-43561Y92077D01*
X-44081Y92978D01*
X-44817Y93714D01*
X-45718Y94235D01*
X-46244Y94375D01*
Y90551D01*
X-48244D01*
Y94375D01*
X-48770Y94235D01*
X-49671Y93714D01*
X-50407Y92978D01*
X-50928Y92077D01*
X-51032Y91685D01*
X-51550D01*
X-51633Y91995D01*
X-52125Y92848D01*
X-52822Y93544D01*
X-53675Y94036D01*
X-54626Y94291D01*
X-55611D01*
X-56562Y94036D01*
X-57415Y93544D01*
X-58111Y92848D01*
X-58604Y91995D01*
X-58752Y91440D01*
X-59252Y91506D01*
Y94291D01*
X-66732D01*
Y86811D01*
X-63947D01*
X-63881Y86311D01*
X-64436Y86162D01*
X-65289Y85670D01*
X-65985Y84974D01*
X-66478Y84121D01*
X-66732Y83170D01*
Y82185D01*
X-66478Y81234D01*
X-65985Y80381D01*
X-65289Y79684D01*
X-64436Y79192D01*
X-63485Y78937D01*
X-62500D01*
X-61549Y79192D01*
X-60696Y79684D01*
X-59999Y80381D01*
X-59507Y81234D01*
X-59314Y81954D01*
X-58796D01*
X-58604Y81234D01*
X-58111Y80381D01*
X-57415Y79684D01*
X-56562Y79192D01*
X-55611Y78937D01*
X-54626D01*
X-53675Y79192D01*
X-52822Y79684D01*
X-52125Y80381D01*
X-51633Y81234D01*
X-51550Y81543D01*
X-51032D01*
X-50928Y81151D01*
X-50407Y80250D01*
X-49671Y79514D01*
X-48770Y78994D01*
X-48244Y78853D01*
Y82677D01*
X-46244D01*
Y78853D01*
X-45718Y78994D01*
X-44817Y79514D01*
X-44081Y80250D01*
X-43561Y81151D01*
X-43456Y81543D01*
X-42938D01*
X-42855Y81234D01*
X-42363Y80381D01*
X-41667Y79684D01*
X-40814Y79192D01*
X-39862Y78937D01*
X-38878D01*
X-37927Y79192D01*
X-37074Y79684D01*
X-36377Y80381D01*
X-35885Y81234D01*
X-35692Y81954D01*
X-35174D01*
X-34981Y81234D01*
X-34489Y80381D01*
X-33793Y79684D01*
X-32940Y79192D01*
X-31988Y78937D01*
X-31004D01*
X-30053Y79192D01*
X-29200Y79684D01*
X-28503Y80381D01*
X-28011Y81234D01*
X-27928Y81543D01*
X-27410D01*
X-27305Y81151D01*
X-26785Y80250D01*
X-26049Y79514D01*
X-25148Y78994D01*
X-24622Y78853D01*
Y82677D01*
X-22622D01*
Y78853D01*
X-22096Y78994D01*
X-21195Y79514D01*
X-20459Y80250D01*
X-19939Y81151D01*
X-19834Y81543D01*
X-19316D01*
X-19233Y81234D01*
X-18741Y80381D01*
X-18045Y79684D01*
X-17192Y79192D01*
X-16240Y78937D01*
X-15256D01*
X-14304Y79192D01*
X-13452Y79684D01*
X-12755Y80381D01*
X-12263Y81234D01*
X-12070Y81954D01*
X-11552D01*
X-11359Y81234D01*
X-10867Y80381D01*
X-10171Y79684D01*
X-9318Y79192D01*
X-8366Y78937D01*
X-7382D01*
X-6431Y79192D01*
X-5578Y79684D01*
X-4881Y80381D01*
X-4389Y81234D01*
X-4196Y81954D01*
X-3678D01*
X-3485Y81234D01*
X-2993Y80381D01*
X-2296Y79684D01*
X-1444Y79192D01*
X-492Y78937D01*
X492D01*
X1444Y79192D01*
X2296Y79684D01*
X2993Y80381D01*
X3485Y81234D01*
X3678Y81954D01*
X4196D01*
X4389Y81234D01*
X4881Y80381D01*
X5578Y79684D01*
X6430Y79192D01*
X6670Y79128D01*
Y30373D01*
X-2426Y21277D01*
X-2687Y20886D01*
X-2779Y20425D01*
X-2779Y20425D01*
Y6993D01*
X-2794Y6956D01*
X-3240Y6877D01*
X-3347Y6897D01*
X-3513Y7197D01*
X-3347Y7600D01*
Y8148D01*
X-3556Y8655D01*
X-3944Y9042D01*
X-4450Y9252D01*
X-4998D01*
X-5505Y9042D01*
X-5893Y8655D01*
X-6102Y8148D01*
Y7677D01*
X-6573D01*
X-6811Y7579D01*
X-6876D01*
X-35649Y36351D01*
X-36039Y36613D01*
X-36500Y36704D01*
X-36500Y36704D01*
X-65699D01*
X-65996Y37002D01*
X-66648Y37272D01*
X-67352D01*
X-68004Y37002D01*
X-68502Y36504D01*
X-68772Y35852D01*
Y35148D01*
X-68502Y34496D01*
X-68004Y33998D01*
X-67352Y33728D01*
X-66648D01*
X-65996Y33998D01*
X-65699Y34296D01*
X-36999D01*
X-9202Y6499D01*
X-9393Y6037D01*
X-22049D01*
X-27493Y11481D01*
X-27498Y11487D01*
X-27521Y11519D01*
X-27535Y11540D01*
Y11791D01*
X-27805Y12442D01*
X-28303Y12940D01*
X-28954Y13210D01*
X-29659D01*
X-30310Y12940D01*
X-30809Y12442D01*
X-31078Y11791D01*
Y11086D01*
X-30809Y10435D01*
X-30310Y9936D01*
X-29659Y9667D01*
X-29409D01*
X-29388Y9653D01*
X-29363Y9635D01*
X-29341Y9616D01*
X-23521Y3796D01*
X-23095Y3512D01*
X-22593Y3412D01*
X-21525D01*
X-21425Y2912D01*
X-21521Y2872D01*
X-22020Y2374D01*
X-22289Y1722D01*
Y1018D01*
X-22160Y704D01*
X-22494Y204D01*
X-38001D01*
X-72004Y34208D01*
Y52000D01*
X-72096Y52461D01*
X-72357Y52851D01*
X-75476Y55970D01*
X-75866Y56231D01*
X-76327Y56322D01*
X-76327Y56322D01*
X-79128D01*
X-79192Y56562D01*
X-79684Y57415D01*
X-80381Y58111D01*
X-81234Y58604D01*
X-81788Y58752D01*
X-81722Y59252D01*
X-78937D01*
Y66732D01*
X-86417D01*
Y63947D01*
X-86917Y63881D01*
X-87066Y64436D01*
X-87558Y65289D01*
X-88255Y65985D01*
X-89108Y66478D01*
X-90059Y66732D01*
X-91044D01*
X-91995Y66478D01*
X-92848Y65985D01*
X-93544Y65289D01*
X-94036Y64436D01*
X-94291Y63485D01*
Y62500D01*
X-94036Y61549D01*
X-93544Y60696D01*
X-92848Y59999D01*
X-91995Y59507D01*
X-91275Y59314D01*
Y58796D01*
X-91995Y58604D01*
X-92848Y58111D01*
X-93544Y57415D01*
X-94036Y56562D01*
X-94291Y55611D01*
Y54626D01*
X-94036Y53675D01*
X-93544Y52822D01*
X-92848Y52125D01*
X-91995Y51633D01*
X-91275Y51440D01*
Y50922D01*
X-91995Y50729D01*
X-92848Y50237D01*
X-93544Y49541D01*
X-94036Y48688D01*
X-94291Y47736D01*
Y46752D01*
X-94036Y45801D01*
X-93544Y44948D01*
X-92848Y44251D01*
X-91995Y43759D01*
X-91275Y43566D01*
Y43048D01*
X-91995Y42855D01*
X-92848Y42363D01*
X-93544Y41667D01*
X-94036Y40814D01*
X-94291Y39862D01*
Y38878D01*
X-94036Y37927D01*
X-93544Y37074D01*
X-92848Y36377D01*
X-91995Y35885D01*
X-91686Y35802D01*
Y35284D01*
X-92077Y35179D01*
X-92978Y34659D01*
X-93714Y33923D01*
X-94235Y33022D01*
X-94375Y32496D01*
X-90551D01*
Y30496D01*
X-94375D01*
X-94235Y29970D01*
X-93714Y29069D01*
X-92978Y28333D01*
X-92077Y27813D01*
X-91686Y27708D01*
Y27190D01*
X-91995Y27107D01*
X-92848Y26615D01*
X-93544Y25919D01*
X-94036Y25066D01*
X-94291Y24114D01*
Y23130D01*
X-94036Y22178D01*
X-93544Y21326D01*
X-92848Y20629D01*
X-91995Y20137D01*
X-91275Y19944D01*
Y19426D01*
X-91995Y19233D01*
X-92848Y18741D01*
X-93544Y18045D01*
X-94036Y17192D01*
X-94291Y16240D01*
Y15256D01*
X-94036Y14304D01*
X-93544Y13452D01*
X-92848Y12755D01*
X-91995Y12263D01*
X-91275Y12070D01*
Y11552D01*
X-91995Y11359D01*
X-92848Y10867D01*
X-93544Y10171D01*
X-94036Y9318D01*
X-94291Y8366D01*
Y7382D01*
X-94036Y6431D01*
X-93544Y5578D01*
X-92848Y4881D01*
X-91995Y4389D01*
X-91275Y4196D01*
Y3678D01*
X-91995Y3485D01*
X-92848Y2993D01*
X-93544Y2296D01*
X-94036Y1444D01*
X-94291Y492D01*
Y-492D01*
X-94036Y-1444D01*
X-93544Y-2296D01*
X-92848Y-2993D01*
X-91995Y-3485D01*
X-91275Y-3678D01*
Y-4196D01*
X-91995Y-4389D01*
X-92848Y-4881D01*
X-93544Y-5578D01*
X-94036Y-6430D01*
X-94291Y-7382D01*
Y-8366D01*
X-94036Y-9318D01*
X-93544Y-10170D01*
X-92848Y-10867D01*
X-91995Y-11359D01*
X-91685Y-11442D01*
Y-11960D01*
X-92077Y-12065D01*
X-92978Y-12585D01*
X-93714Y-13321D01*
X-94235Y-14222D01*
X-94375Y-14748D01*
X-90551D01*
Y-16748D01*
X-94375D01*
X-94235Y-17274D01*
X-93714Y-18175D01*
X-92978Y-18911D01*
X-92089Y-19424D01*
X-92063Y-19533D01*
Y-19837D01*
X-92089Y-19946D01*
X-92978Y-20459D01*
X-93714Y-21195D01*
X-94235Y-22096D01*
X-94375Y-22622D01*
X-90551D01*
Y-24622D01*
X-94375D01*
X-94235Y-25148D01*
X-93714Y-26049D01*
X-92978Y-26785D01*
X-92077Y-27305D01*
X-91686Y-27410D01*
Y-27928D01*
X-91995Y-28011D01*
X-92848Y-28503D01*
X-93544Y-29200D01*
X-94036Y-30053D01*
X-94291Y-31004D01*
Y-31988D01*
X-94036Y-32940D01*
X-93544Y-33793D01*
X-92848Y-34489D01*
X-91995Y-34981D01*
X-91275Y-35174D01*
Y-35692D01*
X-91995Y-35885D01*
X-92848Y-36377D01*
X-93544Y-37074D01*
X-94036Y-37927D01*
X-94291Y-38878D01*
Y-39862D01*
X-94036Y-40814D01*
X-93544Y-41667D01*
X-92848Y-42363D01*
X-91995Y-42855D01*
X-91275Y-43048D01*
Y-43566D01*
X-91995Y-43759D01*
X-92848Y-44251D01*
X-93544Y-44948D01*
X-94036Y-45801D01*
X-94291Y-46752D01*
Y-47737D01*
X-94036Y-48688D01*
X-93544Y-49541D01*
X-92848Y-50237D01*
X-91995Y-50730D01*
X-91275Y-50922D01*
Y-51440D01*
X-91995Y-51633D01*
X-92848Y-52125D01*
X-93544Y-52822D01*
X-94036Y-53675D01*
X-94291Y-54626D01*
Y-55611D01*
X-94036Y-56562D01*
X-93544Y-57415D01*
X-92848Y-58111D01*
X-91995Y-58604D01*
X-91275Y-58796D01*
Y-59314D01*
X-91995Y-59507D01*
X-92848Y-59999D01*
X-93544Y-60696D01*
X-94036Y-61549D01*
X-94291Y-62500D01*
Y-63485D01*
X-94036Y-64436D01*
X-93544Y-65289D01*
X-92848Y-65985D01*
X-91995Y-66478D01*
X-91044Y-66732D01*
X-90059D01*
X-89108Y-66478D01*
X-88255Y-65985D01*
X-87558Y-65289D01*
X-87066Y-64436D01*
X-86873Y-63716D01*
X-86355D01*
X-86162Y-64436D01*
X-85670Y-65289D01*
X-84974Y-65985D01*
X-84121Y-66478D01*
X-83170Y-66732D01*
X-82185D01*
X-81234Y-66478D01*
X-80381Y-65985D01*
X-79684Y-65289D01*
X-79192Y-64436D01*
X-78937Y-63485D01*
Y-62500D01*
X-79192Y-61549D01*
X-79684Y-60696D01*
X-79714Y-60666D01*
X-79523Y-60204D01*
X-76000D01*
X-76000Y-60204D01*
X-75539Y-60113D01*
X-75148Y-59851D01*
X-71649Y-56352D01*
X-71649Y-56352D01*
X-71387Y-55961D01*
X-71296Y-55500D01*
X-71296Y-55500D01*
Y-52779D01*
X-71029Y-52512D01*
X-70759Y-51861D01*
Y-51156D01*
X-71029Y-50505D01*
X-71528Y-50007D01*
X-72179Y-49737D01*
X-72884D01*
X-73535Y-50007D01*
X-74033Y-50505D01*
X-74303Y-51156D01*
Y-51861D01*
X-74033Y-52512D01*
X-73704Y-52841D01*
Y-55001D01*
X-76499Y-57796D01*
X-79422D01*
X-79616Y-57296D01*
X-79192Y-56562D01*
X-78937Y-55611D01*
Y-54626D01*
X-79192Y-53675D01*
X-79684Y-52822D01*
X-80381Y-52125D01*
X-81234Y-51633D01*
X-81954Y-51440D01*
Y-50922D01*
X-81234Y-50730D01*
X-80381Y-50237D01*
X-79684Y-49541D01*
X-79192Y-48688D01*
X-79128Y-48448D01*
X-74244D01*
X-74244Y-48449D01*
X-73783Y-48357D01*
X-73393Y-48096D01*
X-66182Y-40885D01*
X-66182Y-40885D01*
X-65921Y-40494D01*
X-65829Y-40033D01*
X-65829Y-40033D01*
Y12737D01*
X-65531Y13034D01*
X-65262Y13686D01*
Y14390D01*
X-65531Y15041D01*
X-66030Y15540D01*
X-66681Y15810D01*
X-67386D01*
X-68037Y15540D01*
X-68535Y15041D01*
X-68805Y14390D01*
Y13686D01*
X-68535Y13034D01*
X-68238Y12737D01*
Y-39534D01*
X-74743Y-46040D01*
X-79128D01*
X-79192Y-45801D01*
X-79684Y-44948D01*
X-80381Y-44251D01*
X-81234Y-43759D01*
X-81954Y-43566D01*
Y-43048D01*
X-81234Y-42855D01*
X-80381Y-42363D01*
X-79684Y-41667D01*
X-79192Y-40814D01*
X-78937Y-39862D01*
Y-38878D01*
X-79192Y-37927D01*
X-79684Y-37074D01*
X-80381Y-36377D01*
X-81234Y-35885D01*
X-81954Y-35692D01*
Y-35174D01*
X-81234Y-34981D01*
X-80381Y-34489D01*
X-79684Y-33793D01*
X-79192Y-32940D01*
X-78937Y-31988D01*
Y-31004D01*
X-79192Y-30053D01*
X-79684Y-29200D01*
X-80381Y-28503D01*
X-81234Y-28011D01*
X-81543Y-27928D01*
Y-27410D01*
X-81151Y-27305D01*
X-80250Y-26785D01*
X-79514Y-26049D01*
X-78994Y-25148D01*
X-78853Y-24622D01*
X-82677D01*
Y-22622D01*
X-78853D01*
X-78994Y-22096D01*
X-79514Y-21195D01*
X-80250Y-20459D01*
X-81139Y-19946D01*
X-81165Y-19837D01*
Y-19533D01*
X-81139Y-19424D01*
X-80250Y-18911D01*
X-79514Y-18175D01*
X-78994Y-17274D01*
X-78853Y-16748D01*
X-82677D01*
Y-14748D01*
X-78853D01*
X-78994Y-14222D01*
X-79514Y-13321D01*
X-80250Y-12585D01*
X-81151Y-12065D01*
X-81543Y-11960D01*
Y-11442D01*
X-81234Y-11359D01*
X-80381Y-10867D01*
X-79684Y-10170D01*
X-79192Y-9318D01*
X-78937Y-8366D01*
Y-7382D01*
X-79192Y-6430D01*
X-79684Y-5578D01*
X-80381Y-4881D01*
X-81234Y-4389D01*
X-81954Y-4196D01*
Y-3678D01*
X-81234Y-3485D01*
X-80381Y-2993D01*
X-79684Y-2296D01*
X-79192Y-1444D01*
X-78937Y-492D01*
Y492D01*
X-79192Y1444D01*
X-79684Y2296D01*
X-80381Y2993D01*
X-81234Y3485D01*
X-81954Y3678D01*
Y4196D01*
X-81234Y4389D01*
X-80381Y4881D01*
X-79684Y5578D01*
X-79192Y6431D01*
X-78937Y7382D01*
Y8366D01*
X-79192Y9318D01*
X-79684Y10171D01*
X-80381Y10867D01*
X-81234Y11359D01*
X-81954Y11552D01*
Y12070D01*
X-81234Y12263D01*
X-80381Y12755D01*
X-79684Y13452D01*
X-79192Y14304D01*
X-78937Y15256D01*
Y16240D01*
X-79192Y17192D01*
X-79684Y18045D01*
X-80381Y18741D01*
X-81234Y19233D01*
X-81954Y19426D01*
Y19944D01*
X-81234Y20137D01*
X-80381Y20629D01*
X-79684Y21326D01*
X-79192Y22178D01*
X-78937Y23130D01*
Y24114D01*
X-79192Y25066D01*
X-79684Y25919D01*
X-80381Y26615D01*
X-81234Y27107D01*
X-81954Y27300D01*
Y27818D01*
X-81234Y28011D01*
X-80381Y28503D01*
X-79684Y29200D01*
X-79192Y30053D01*
X-78937Y31004D01*
Y31988D01*
X-79192Y32940D01*
X-79684Y33793D01*
X-80381Y34489D01*
X-81234Y34981D01*
X-81954Y35174D01*
Y35692D01*
X-81234Y35885D01*
X-80381Y36377D01*
X-79684Y37074D01*
X-79192Y37927D01*
X-78937Y38878D01*
Y39862D01*
X-79192Y40814D01*
X-79684Y41667D01*
X-80381Y42363D01*
X-81234Y42855D01*
X-81954Y43048D01*
Y43566D01*
X-81234Y43759D01*
X-80381Y44251D01*
X-79684Y44948D01*
X-79192Y45801D01*
X-78937Y46752D01*
Y47736D01*
X-79192Y48688D01*
X-79684Y49541D01*
X-80381Y50237D01*
X-81234Y50729D01*
X-81954Y50922D01*
Y51440D01*
X-81234Y51633D01*
X-80381Y52125D01*
X-79684Y52822D01*
X-79192Y53675D01*
X-79128Y53914D01*
X-76826D01*
X-74413Y51501D01*
Y33709D01*
X-74413Y33709D01*
X-74321Y33248D01*
X-74060Y32857D01*
X-39351Y-1852D01*
X-39351Y-1852D01*
X-38961Y-2113D01*
X-38500Y-2204D01*
X-38500Y-2204D01*
X-17000D01*
X-17000Y-2204D01*
X-16539Y-2113D01*
X-16149Y-1852D01*
X-13926Y371D01*
X-12486D01*
X-12294Y-91D01*
X-14852Y-2648D01*
X-15113Y-3039D01*
X-15204Y-3500D01*
X-15204Y-3500D01*
Y-21263D01*
X-39351Y-45410D01*
X-39613Y-45801D01*
X-39704Y-46262D01*
X-39704Y-46262D01*
Y-71030D01*
X-40120Y-71308D01*
X-40530Y-71138D01*
X-41470D01*
X-42338Y-71497D01*
X-43003Y-72162D01*
X-43362Y-73030D01*
Y-73970D01*
X-43003Y-74838D01*
X-42338Y-75503D01*
X-41470Y-75862D01*
X-40530D01*
X-40120Y-75692D01*
X-39704Y-75970D01*
Y-78937D01*
X-39862D01*
X-40814Y-79192D01*
X-41667Y-79684D01*
X-42363Y-80381D01*
X-42855Y-81234D01*
X-43048Y-81954D01*
X-43566D01*
X-43759Y-81234D01*
X-44251Y-80381D01*
X-44948Y-79684D01*
X-45801Y-79192D01*
X-46752Y-78937D01*
X-47736D01*
X-48688Y-79192D01*
X-49541Y-79684D01*
X-50237Y-80381D01*
X-50729Y-81234D01*
X-50922Y-81954D01*
X-51440D01*
X-51633Y-81234D01*
X-52125Y-80381D01*
X-52822Y-79684D01*
X-53675Y-79192D01*
X-54626Y-78937D01*
X-55611D01*
X-56562Y-79192D01*
X-57415Y-79684D01*
X-58111Y-80381D01*
X-58604Y-81234D01*
X-58752Y-81788D01*
X-59252Y-81722D01*
Y-78937D01*
X-66732D01*
Y-86417D01*
X-63947D01*
X-63881Y-86917D01*
X-64436Y-87066D01*
X-65289Y-87558D01*
X-65985Y-88255D01*
X-66478Y-89108D01*
X-66732Y-90059D01*
Y-91044D01*
X-66478Y-91995D01*
X-65985Y-92848D01*
X-65289Y-93544D01*
X-64436Y-94036D01*
X-63485Y-94291D01*
X-62500D01*
X-61549Y-94036D01*
X-60696Y-93544D01*
X-59999Y-92848D01*
X-59507Y-91995D01*
X-59314Y-91275D01*
X-58796D01*
X-58604Y-91995D01*
X-58111Y-92848D01*
X-57415Y-93544D01*
X-56562Y-94036D01*
X-55611Y-94291D01*
X-54626D01*
X-53675Y-94036D01*
X-52822Y-93544D01*
X-52125Y-92848D01*
X-51633Y-91995D01*
X-51440Y-91275D01*
X-50922D01*
X-50729Y-91995D01*
X-50237Y-92848D01*
X-49541Y-93544D01*
X-48688Y-94036D01*
X-47736Y-94291D01*
X-46752D01*
X-45801Y-94036D01*
X-44948Y-93544D01*
X-44251Y-92848D01*
X-43759Y-91995D01*
X-43566Y-91275D01*
X-43048D01*
X-42855Y-91995D01*
X-42363Y-92848D01*
X-41667Y-93544D01*
X-40814Y-94036D01*
X-39862Y-94291D01*
X-38878D01*
X-37927Y-94036D01*
X-37074Y-93544D01*
X-36377Y-92848D01*
X-35885Y-91995D01*
X-35692Y-91275D01*
X-35174D01*
X-34981Y-91995D01*
X-34489Y-92848D01*
X-33793Y-93544D01*
X-32940Y-94036D01*
X-31988Y-94291D01*
X-31004D01*
X-30053Y-94036D01*
X-29200Y-93544D01*
X-28503Y-92848D01*
X-28011Y-91995D01*
X-27818Y-91275D01*
X-27300D01*
X-27107Y-91995D01*
X-26615Y-92848D01*
X-25919Y-93544D01*
X-25066Y-94036D01*
X-24114Y-94291D01*
X-23130D01*
X-22178Y-94036D01*
X-21326Y-93544D01*
X-20629Y-92848D01*
X-20137Y-91995D01*
X-19944Y-91275D01*
X-19426D01*
X-19233Y-91995D01*
X-18741Y-92848D01*
X-18045Y-93544D01*
X-17192Y-94036D01*
X-16240Y-94291D01*
X-15256D01*
X-14304Y-94036D01*
X-13452Y-93544D01*
X-12755Y-92848D01*
X-12263Y-91995D01*
X-12070Y-91275D01*
X-11552D01*
X-11359Y-91995D01*
X-10867Y-92848D01*
X-10171Y-93544D01*
X-9318Y-94036D01*
X-8366Y-94291D01*
X-7382D01*
X-6431Y-94036D01*
X-5578Y-93544D01*
X-4881Y-92848D01*
X-4389Y-91995D01*
X-4196Y-91275D01*
X-3678D01*
X-3485Y-91995D01*
X-2993Y-92848D01*
X-2296Y-93544D01*
X-1444Y-94036D01*
X-492Y-94291D01*
X492D01*
X1444Y-94036D01*
X2296Y-93544D01*
X2993Y-92848D01*
X3485Y-91995D01*
X3678Y-91275D01*
X4196D01*
X4389Y-91995D01*
X4881Y-92848D01*
X5578Y-93544D01*
X6430Y-94036D01*
X7382Y-94291D01*
X8366D01*
X9318Y-94036D01*
X10170Y-93544D01*
X10867Y-92848D01*
X11359Y-91995D01*
X11442Y-91685D01*
X11960D01*
X12065Y-92077D01*
X12585Y-92978D01*
X13321Y-93714D01*
X14222Y-94235D01*
X14748Y-94375D01*
Y-90551D01*
X16748D01*
Y-94375D01*
X17274Y-94235D01*
X18175Y-93714D01*
X18911Y-92978D01*
X19424Y-92089D01*
X19533Y-92063D01*
X19837D01*
X19946Y-92089D01*
X20459Y-92978D01*
X21195Y-93714D01*
X22096Y-94235D01*
X22622Y-94375D01*
Y-90551D01*
X24622D01*
Y-94375D01*
X25148Y-94235D01*
X26049Y-93714D01*
X26785Y-92978D01*
X27305Y-92077D01*
X27410Y-91686D01*
X27928D01*
X28011Y-91995D01*
X28503Y-92848D01*
X29200Y-93544D01*
X30053Y-94036D01*
X31004Y-94291D01*
X31988D01*
X32940Y-94036D01*
X33793Y-93544D01*
X34489Y-92848D01*
X34981Y-91995D01*
X35174Y-91275D01*
X35692D01*
X35885Y-91995D01*
X36377Y-92848D01*
X37074Y-93544D01*
X37927Y-94036D01*
X38878Y-94291D01*
X39862D01*
X40814Y-94036D01*
X41667Y-93544D01*
X42363Y-92848D01*
X42855Y-91995D01*
X43048Y-91275D01*
X43566D01*
X43759Y-91995D01*
X44251Y-92848D01*
X44948Y-93544D01*
X45801Y-94036D01*
X46752Y-94291D01*
X47737D01*
X48688Y-94036D01*
X49541Y-93544D01*
X50237Y-92848D01*
X50730Y-91995D01*
X50922Y-91275D01*
X51440D01*
X51633Y-91995D01*
X52125Y-92848D01*
X52822Y-93544D01*
X53675Y-94036D01*
X54626Y-94291D01*
X55611D01*
X56562Y-94036D01*
X57415Y-93544D01*
X58111Y-92848D01*
X58604Y-91995D01*
X58796Y-91275D01*
X59314D01*
X59507Y-91995D01*
X59999Y-92848D01*
X60696Y-93544D01*
X61549Y-94036D01*
X62500Y-94291D01*
X63485D01*
X64436Y-94036D01*
X65289Y-93544D01*
X65985Y-92848D01*
X66478Y-91995D01*
X66732Y-91044D01*
Y-90059D01*
X66478Y-89108D01*
X65985Y-88255D01*
X65289Y-87558D01*
X64436Y-87066D01*
X63716Y-86873D01*
Y-86355D01*
X64436Y-86162D01*
X65289Y-85670D01*
X65985Y-84974D01*
X66478Y-84121D01*
X66732Y-83170D01*
Y-82185D01*
X66478Y-81234D01*
X65985Y-80381D01*
X65289Y-79684D01*
X64436Y-79192D01*
X63485Y-78937D01*
X62500D01*
X61549Y-79192D01*
X60696Y-79684D01*
X59999Y-80381D01*
X59507Y-81234D01*
X59314Y-81954D01*
X58796D01*
X58604Y-81234D01*
X58111Y-80381D01*
X57415Y-79684D01*
X56562Y-79192D01*
X55611Y-78937D01*
X54626D01*
X53675Y-79192D01*
X52822Y-79684D01*
X52125Y-80381D01*
X51633Y-81234D01*
X51440Y-81954D01*
X50922D01*
X50730Y-81234D01*
X50237Y-80381D01*
X49541Y-79684D01*
X48688Y-79192D01*
X47737Y-78937D01*
X46752D01*
X45801Y-79192D01*
X44948Y-79684D01*
X44251Y-80381D01*
X43759Y-81234D01*
X43566Y-81954D01*
X43048D01*
X42855Y-81234D01*
X42363Y-80381D01*
X41667Y-79684D01*
X40814Y-79192D01*
X39862Y-78937D01*
X38878D01*
X37927Y-79192D01*
X37074Y-79684D01*
X36377Y-80381D01*
X35885Y-81234D01*
X35692Y-81954D01*
X35174D01*
X34981Y-81234D01*
X34489Y-80381D01*
X33793Y-79684D01*
X32940Y-79192D01*
X31988Y-78937D01*
X31004D01*
X30053Y-79192D01*
X29298Y-79628D01*
X28954Y-79570D01*
X28717Y-79460D01*
X28509Y-79149D01*
X28509Y-79149D01*
X26699Y-77338D01*
X26906Y-76838D01*
X38366D01*
X38366Y-76838D01*
X38827Y-76746D01*
X39218Y-76485D01*
X43999Y-71704D01*
X57852D01*
X58150Y-72002D01*
X58801Y-72272D01*
X59506D01*
X60157Y-72002D01*
X60656Y-71504D01*
X60925Y-70852D01*
Y-70148D01*
X60656Y-69496D01*
X60157Y-68998D01*
X59506Y-68728D01*
X58801D01*
X58150Y-68998D01*
X57852Y-69296D01*
X43500D01*
X43500Y-69296D01*
X43039Y-69387D01*
X42649Y-69648D01*
X42649Y-69648D01*
X37867Y-74430D01*
X11258D01*
X10961Y-74132D01*
X10310Y-73862D01*
X9605D01*
X8953Y-74132D01*
X8455Y-74630D01*
X8185Y-75281D01*
Y-75986D01*
X8314Y-76296D01*
X7980Y-76796D01*
X-1501D01*
X-11296Y-67001D01*
Y-66204D01*
X-10834Y-66012D01*
X-10538Y-66308D01*
X-9596Y-66852D01*
X-8544Y-67134D01*
X-7456D01*
X-6404Y-66852D01*
X-5462Y-66308D01*
X-4692Y-65538D01*
X-4148Y-64596D01*
X-3866Y-63544D01*
Y-62456D01*
X-4148Y-61404D01*
X-4692Y-60462D01*
X-5462Y-59692D01*
X-6145Y-59298D01*
X-6255Y-58702D01*
X-3234Y-55680D01*
X-2750Y-55904D01*
X-2502Y-56504D01*
X-2004Y-57002D01*
X-1352Y-57272D01*
X-648D01*
X4Y-57002D01*
X301Y-56704D01*
X45283D01*
X45617Y-57204D01*
X45520Y-57439D01*
Y-58144D01*
X45789Y-58795D01*
X46288Y-59294D01*
X46939Y-59563D01*
X47644D01*
X48295Y-59294D01*
X48593Y-58996D01*
X51094D01*
X51266Y-59271D01*
X51312Y-59485D01*
X47148Y-63648D01*
X46887Y-64039D01*
X46796Y-64500D01*
X46796Y-64500D01*
Y-65699D01*
X46498Y-65996D01*
X46228Y-66648D01*
Y-67352D01*
X46498Y-68004D01*
X46996Y-68502D01*
X47648Y-68772D01*
X48352D01*
X49004Y-68502D01*
X49502Y-68004D01*
X49772Y-67352D01*
Y-66648D01*
X49502Y-65996D01*
X49204Y-65699D01*
Y-64999D01*
X76351Y-37852D01*
X76351Y-37852D01*
X76613Y-37461D01*
X76704Y-37000D01*
Y-5552D01*
X76895Y-5379D01*
X77388Y-5597D01*
X77395Y-5604D01*
Y-35292D01*
X77395Y-35292D01*
X77486Y-35753D01*
X77747Y-36143D01*
X79316Y-37712D01*
X79192Y-37927D01*
X78937Y-38878D01*
Y-39862D01*
X79192Y-40814D01*
X79684Y-41667D01*
X80381Y-42363D01*
X81234Y-42855D01*
X81954Y-43048D01*
Y-43566D01*
X81234Y-43759D01*
X80381Y-44251D01*
X79684Y-44948D01*
X79192Y-45801D01*
X78937Y-46752D01*
Y-47737D01*
X79192Y-48688D01*
X79684Y-49541D01*
X80381Y-50237D01*
X81234Y-50730D01*
X81954Y-50922D01*
Y-51440D01*
X81234Y-51633D01*
X80381Y-52125D01*
X79684Y-52822D01*
X79192Y-53675D01*
X78937Y-54626D01*
Y-55611D01*
X79192Y-56562D01*
X79684Y-57415D01*
X80381Y-58111D01*
X81234Y-58604D01*
X81954Y-58796D01*
Y-59314D01*
X81234Y-59507D01*
X80381Y-59999D01*
X79684Y-60696D01*
X79192Y-61549D01*
X78937Y-62500D01*
Y-63485D01*
X79192Y-64436D01*
X79684Y-65289D01*
X80381Y-65985D01*
X81234Y-66478D01*
X82185Y-66732D01*
X83170D01*
X84121Y-66478D01*
X84974Y-65985D01*
X85670Y-65289D01*
X86162Y-64436D01*
X86355Y-63716D01*
X86873D01*
X87066Y-64436D01*
X87558Y-65289D01*
X88255Y-65985D01*
X89108Y-66478D01*
X90059Y-66732D01*
X91044D01*
X91995Y-66478D01*
X92848Y-65985D01*
X93544Y-65289D01*
X94036Y-64436D01*
X94291Y-63485D01*
Y-62500D01*
X94036Y-61549D01*
X93544Y-60696D01*
X92848Y-59999D01*
X91995Y-59507D01*
X91275Y-59314D01*
Y-58796D01*
X91995Y-58604D01*
X92848Y-58111D01*
X93544Y-57415D01*
X94036Y-56562D01*
X94291Y-55611D01*
Y-54626D01*
X94036Y-53675D01*
X93544Y-52822D01*
X92848Y-52125D01*
X91995Y-51633D01*
X91275Y-51440D01*
Y-50922D01*
X91995Y-50730D01*
X92848Y-50237D01*
X93544Y-49541D01*
X94036Y-48688D01*
X94291Y-47737D01*
Y-46752D01*
X94036Y-45801D01*
X93544Y-44948D01*
X92848Y-44251D01*
X91995Y-43759D01*
X91275Y-43566D01*
Y-43048D01*
X91995Y-42855D01*
X92848Y-42363D01*
X93544Y-41667D01*
X94036Y-40814D01*
X94291Y-39862D01*
Y-38878D01*
X94036Y-37927D01*
X93544Y-37074D01*
X92848Y-36377D01*
X91995Y-35885D01*
X91275Y-35692D01*
Y-35174D01*
X91995Y-34981D01*
X92848Y-34489D01*
X93544Y-33793D01*
X94036Y-32940D01*
X94291Y-31988D01*
Y-31004D01*
X94036Y-30053D01*
X93544Y-29200D01*
X92848Y-28503D01*
X91995Y-28011D01*
X91686Y-27928D01*
Y-27410D01*
X92077Y-27305D01*
X92978Y-26785D01*
X93714Y-26049D01*
X94235Y-25148D01*
X94375Y-24622D01*
X90551D01*
Y-22622D01*
X94375D01*
X94235Y-22096D01*
X93714Y-21195D01*
X92978Y-20459D01*
X92089Y-19946D01*
X92063Y-19837D01*
Y-19533D01*
X92089Y-19424D01*
X92978Y-18911D01*
X93714Y-18175D01*
X94235Y-17274D01*
X94375Y-16748D01*
X90551D01*
Y-14748D01*
X94375D01*
X94235Y-14222D01*
X93714Y-13321D01*
X92978Y-12585D01*
X92077Y-12065D01*
X91685Y-11960D01*
Y-11442D01*
X91995Y-11359D01*
X92848Y-10867D01*
X93544Y-10170D01*
X94036Y-9318D01*
X94291Y-8366D01*
Y-7382D01*
X94036Y-6430D01*
X93544Y-5578D01*
X92848Y-4881D01*
X91995Y-4389D01*
X91275Y-4196D01*
Y-3678D01*
X91995Y-3485D01*
X92848Y-2993D01*
X93544Y-2296D01*
X94036Y-1444D01*
X94291Y-492D01*
Y492D01*
X94036Y1444D01*
X93544Y2296D01*
X92848Y2993D01*
X91995Y3485D01*
X91275Y3678D01*
Y4196D01*
X91995Y4389D01*
X92848Y4881D01*
X93544Y5578D01*
X94036Y6431D01*
X94291Y7382D01*
Y8366D01*
X94036Y9318D01*
X93544Y10171D01*
X92848Y10867D01*
X91995Y11359D01*
X91275Y11552D01*
Y12070D01*
X91995Y12263D01*
X92848Y12755D01*
X93544Y13452D01*
X94036Y14304D01*
X94291Y15256D01*
Y16240D01*
X94036Y17192D01*
X93544Y18045D01*
X92848Y18741D01*
X91995Y19233D01*
X91275Y19426D01*
Y19944D01*
X91995Y20137D01*
X92848Y20629D01*
X93544Y21326D01*
X94036Y22178D01*
X94291Y23130D01*
Y24114D01*
X94036Y25066D01*
X93544Y25919D01*
X92848Y26615D01*
X91995Y27107D01*
X91275Y27300D01*
Y27818D01*
X91995Y28011D01*
X92848Y28503D01*
X93544Y29200D01*
X94036Y30053D01*
X94291Y31004D01*
Y31988D01*
X94036Y32940D01*
X93544Y33793D01*
X92848Y34489D01*
X91995Y34981D01*
X91275Y35174D01*
Y35692D01*
X91995Y35885D01*
X92848Y36377D01*
X93544Y37074D01*
X94036Y37927D01*
X94291Y38878D01*
Y39862D01*
X94036Y40814D01*
X93544Y41667D01*
X92848Y42363D01*
X91995Y42855D01*
X91275Y43048D01*
Y43566D01*
X91995Y43759D01*
X92848Y44251D01*
X93544Y44948D01*
X94036Y45801D01*
X94291Y46752D01*
Y47736D01*
X94036Y48688D01*
X93544Y49541D01*
X92848Y50237D01*
X91995Y50729D01*
X91275Y50922D01*
Y51440D01*
X91995Y51633D01*
X92848Y52125D01*
X93544Y52822D01*
X94036Y53675D01*
X94291Y54626D01*
Y55611D01*
X94036Y56562D01*
X93544Y57415D01*
X92848Y58111D01*
X91995Y58604D01*
X91440Y58752D01*
X91506Y59252D01*
X94291D01*
Y66732D01*
X86811D01*
Y63947D01*
X86311Y63881D01*
X86162Y64436D01*
X85670Y65289D01*
X84974Y65985D01*
X84121Y66478D01*
X83170Y66732D01*
X82185D01*
X81234Y66478D01*
X80381Y65985D01*
X79684Y65289D01*
X79192Y64436D01*
X78937Y63485D01*
Y62500D01*
X79192Y61549D01*
X79684Y60696D01*
X80381Y59999D01*
X81234Y59507D01*
X81954Y59314D01*
Y58796D01*
X81234Y58604D01*
X80381Y58111D01*
X79684Y57415D01*
X79192Y56562D01*
X79128Y56322D01*
X41679D01*
X41487Y56784D01*
X59808Y75105D01*
X59808Y75105D01*
X60069Y75496D01*
X60161Y75957D01*
Y79566D01*
X60623Y79757D01*
X60696Y79684D01*
X61549Y79192D01*
X62500Y78937D01*
X63485D01*
X64436Y79192D01*
X65289Y79684D01*
X65985Y80381D01*
X66478Y81234D01*
X66732Y82185D01*
Y83170D01*
X66478Y84121D01*
X65985Y84974D01*
X65289Y85670D01*
X64436Y86162D01*
X63716Y86355D01*
Y86873D01*
X64436Y87066D01*
X65289Y87558D01*
X65985Y88255D01*
X66478Y89108D01*
X66732Y90059D01*
Y91044D01*
X66478Y91995D01*
X65985Y92848D01*
X65289Y93544D01*
X64436Y94036D01*
X63485Y94291D01*
X62500D01*
X61549Y94036D01*
X60696Y93544D01*
X59999Y92848D01*
X59507Y91995D01*
X59314Y91275D01*
X58796D01*
X58604Y91995D01*
X58111Y92848D01*
X57415Y93544D01*
X56562Y94036D01*
X55611Y94291D01*
X54626D01*
X53675Y94036D01*
X52822Y93544D01*
X52125Y92848D01*
X51633Y91995D01*
X51440Y91275D01*
X50922D01*
X50730Y91995D01*
X50237Y92848D01*
X49541Y93544D01*
X48688Y94036D01*
X47737Y94291D01*
X46752D01*
X45801Y94036D01*
X44948Y93544D01*
X44251Y92848D01*
X43759Y91995D01*
X43566Y91275D01*
X43048D01*
X42855Y91995D01*
X42363Y92848D01*
X41667Y93544D01*
X40814Y94036D01*
X39862Y94291D01*
X38878D01*
X37927Y94036D01*
X37074Y93544D01*
X36377Y92848D01*
X35885Y91995D01*
X35692Y91275D01*
X35174D01*
X34981Y91995D01*
X34489Y92848D01*
X33793Y93544D01*
X32940Y94036D01*
X31988Y94291D01*
X31004D01*
X30053Y94036D01*
X29200Y93544D01*
X28503Y92848D01*
X28011Y91995D01*
X27928Y91686D01*
X27410D01*
X27305Y92077D01*
X26785Y92978D01*
X26049Y93714D01*
X25148Y94235D01*
X24622Y94375D01*
D02*
G37*
G36*
X-78539Y94011D02*
X-83787D01*
Y93906D01*
X-92000D01*
Y88000D01*
X-83787D01*
Y87713D01*
X-78539D01*
Y88000D01*
X-74283D01*
Y93906D01*
X-78539D01*
Y94011D01*
D02*
G37*
G36*
X86614Y90585D02*
X85586Y90450D01*
X84629Y90053D01*
X83806Y89422D01*
X83175Y88600D01*
X82779Y87642D01*
X82643Y86614D01*
X82779Y85586D01*
X83175Y84629D01*
X83806Y83806D01*
X84629Y83175D01*
X85586Y82779D01*
X86614Y82643D01*
X87642Y82779D01*
X88600Y83175D01*
X89422Y83806D01*
X90053Y84629D01*
X90450Y85586D01*
X90585Y86614D01*
X90450Y87642D01*
X90053Y88600D01*
X89422Y89422D01*
X88600Y90053D01*
X87642Y90450D01*
X86614Y90585D01*
D02*
G37*
G36*
X-31796Y26438D02*
X-32501D01*
X-33152Y26168D01*
X-33650Y25670D01*
X-33920Y25018D01*
Y24314D01*
X-33650Y23662D01*
X-33152Y23164D01*
X-32501Y22894D01*
X-31796D01*
X-31145Y23164D01*
X-30646Y23662D01*
X-30377Y24314D01*
Y25018D01*
X-30646Y25670D01*
X-31145Y26168D01*
X-31796Y26438D01*
D02*
G37*
G36*
X-20345Y13069D02*
X-21049D01*
X-21701Y12799D01*
X-22199Y12301D01*
X-22469Y11649D01*
Y10945D01*
X-22199Y10294D01*
X-21701Y9795D01*
X-21049Y9526D01*
X-20345D01*
X-19693Y9795D01*
X-19195Y10294D01*
X-18925Y10945D01*
Y11649D01*
X-19195Y12301D01*
X-19693Y12799D01*
X-20345Y13069D01*
D02*
G37*
G36*
X-63148Y-50228D02*
X-63852D01*
X-64504Y-50498D01*
X-65002Y-50996D01*
X-65272Y-51648D01*
Y-52352D01*
X-65002Y-53004D01*
X-64504Y-53502D01*
X-63852Y-53772D01*
X-63148D01*
X-62496Y-53502D01*
X-61998Y-53004D01*
X-61728Y-52352D01*
Y-51648D01*
X-61998Y-50996D01*
X-62496Y-50498D01*
X-63148Y-50228D01*
D02*
G37*
G36*
X25470Y-58138D02*
X24530D01*
X23662Y-58497D01*
X22997Y-59162D01*
X22638Y-60030D01*
Y-60970D01*
X22997Y-61838D01*
X23662Y-62503D01*
X24530Y-62862D01*
X25470D01*
X26338Y-62503D01*
X27003Y-61838D01*
X27362Y-60970D01*
Y-60030D01*
X27003Y-59162D01*
X26338Y-58497D01*
X25470Y-58138D01*
D02*
G37*
G36*
X55471Y-62228D02*
X54766D01*
X54115Y-62498D01*
X53616Y-62996D01*
X53347Y-63648D01*
Y-64352D01*
X53616Y-65004D01*
X54115Y-65502D01*
X54766Y-65772D01*
X55471D01*
X56122Y-65502D01*
X56620Y-65004D01*
X56890Y-64352D01*
Y-63648D01*
X56620Y-62996D01*
X56122Y-62498D01*
X55471Y-62228D01*
D02*
G37*
G36*
X35687Y-63228D02*
X34982D01*
X34331Y-63498D01*
X33833Y-63996D01*
X33563Y-64648D01*
Y-65352D01*
X33833Y-66004D01*
X34331Y-66502D01*
X34982Y-66772D01*
X35687D01*
X36338Y-66502D01*
X36837Y-66004D01*
X37106Y-65352D01*
Y-64648D01*
X36837Y-63996D01*
X36338Y-63498D01*
X35687Y-63228D01*
D02*
G37*
G36*
X6134Y-58866D02*
X-2134D01*
Y-67134D01*
X6134D01*
Y-58866D01*
D02*
G37*
G36*
X31852Y-66228D02*
X31148D01*
X30496Y-66498D01*
X29998Y-66996D01*
X29728Y-67648D01*
Y-68352D01*
X29998Y-69004D01*
X30496Y-69502D01*
X31148Y-69772D01*
X31852D01*
X32504Y-69502D01*
X33002Y-69004D01*
X33272Y-68352D01*
Y-67648D01*
X33002Y-66996D01*
X32504Y-66498D01*
X31852Y-66228D01*
D02*
G37*
G36*
X39723Y-66728D02*
X39018D01*
X38367Y-66998D01*
X37868Y-67496D01*
X37599Y-68148D01*
Y-68852D01*
X37868Y-69504D01*
X38367Y-70002D01*
X39018Y-70272D01*
X39723D01*
X40374Y-70002D01*
X40872Y-69504D01*
X41142Y-68852D01*
Y-68148D01*
X40872Y-67496D01*
X40374Y-66998D01*
X39723Y-66728D01*
D02*
G37*
G36*
X15970Y-68638D02*
X15030D01*
X14162Y-68997D01*
X13497Y-69662D01*
X13138Y-70530D01*
Y-71470D01*
X13497Y-72338D01*
X14162Y-73003D01*
X15030Y-73362D01*
X15970D01*
X16838Y-73003D01*
X17503Y-72338D01*
X17862Y-71470D01*
Y-70530D01*
X17503Y-69662D01*
X16838Y-68997D01*
X15970Y-68638D01*
D02*
G37*
G36*
X69352Y-71228D02*
X68648D01*
X67996Y-71498D01*
X67498Y-71996D01*
X67228Y-72648D01*
Y-73352D01*
X67498Y-74004D01*
X67996Y-74502D01*
X68648Y-74772D01*
X69352D01*
X70004Y-74502D01*
X70502Y-74004D01*
X70772Y-73352D01*
Y-72648D01*
X70502Y-71996D01*
X70004Y-71498D01*
X69352Y-71228D01*
D02*
G37*
G36*
X44852Y-74228D02*
X44148D01*
X43496Y-74498D01*
X42998Y-74996D01*
X42728Y-75648D01*
Y-76352D01*
X42998Y-77004D01*
X43496Y-77502D01*
X44148Y-77772D01*
X44852D01*
X45504Y-77502D01*
X46002Y-77004D01*
X46272Y-76352D01*
Y-75648D01*
X46002Y-74996D01*
X45504Y-74498D01*
X44852Y-74228D01*
D02*
G37*
G36*
X86614Y-82643D02*
X85586Y-82779D01*
X84629Y-83175D01*
X83806Y-83806D01*
X83175Y-84629D01*
X82779Y-85586D01*
X82643Y-86614D01*
X82779Y-87642D01*
X83175Y-88600D01*
X83806Y-89422D01*
X84629Y-90053D01*
X85586Y-90450D01*
X86614Y-90585D01*
X87642Y-90450D01*
X88600Y-90053D01*
X89422Y-89422D01*
X90053Y-88600D01*
X90450Y-87642D01*
X90585Y-86614D01*
X90450Y-85586D01*
X90053Y-84629D01*
X89422Y-83806D01*
X88600Y-83175D01*
X87642Y-82779D01*
X86614Y-82643D01*
D02*
G37*
G36*
X-86614D02*
X-87642Y-82779D01*
X-88600Y-83175D01*
X-89422Y-83806D01*
X-90053Y-84629D01*
X-90450Y-85586D01*
X-90585Y-86614D01*
X-90450Y-87642D01*
X-90053Y-88600D01*
X-89422Y-89422D01*
X-88600Y-90053D01*
X-87642Y-90450D01*
X-86614Y-90585D01*
X-85586Y-90450D01*
X-84629Y-90053D01*
X-83806Y-89422D01*
X-83175Y-88600D01*
X-82779Y-87642D01*
X-82643Y-86614D01*
X-82779Y-85586D01*
X-83175Y-84629D01*
X-83806Y-83806D01*
X-84629Y-83175D01*
X-85586Y-82779D01*
X-86614Y-82643D01*
D02*
G37*
%LPD*%
G36*
X58073Y90070D02*
X58119Y89266D01*
X58163Y88915D01*
X58221Y88597D01*
X58293Y88312D01*
X58378Y88061D01*
X58478Y87843D01*
X58591Y87659D01*
X58719Y87508D01*
X58162Y86951D01*
X58011Y87078D01*
X57827Y87191D01*
X57609Y87291D01*
X57357Y87377D01*
X57073Y87448D01*
X56755Y87506D01*
X56403Y87550D01*
X55600Y87596D01*
X55148Y87599D01*
X58071Y90522D01*
X58073Y90070D01*
D02*
G37*
G36*
X24622Y78853D02*
X25148Y78994D01*
X26049Y79514D01*
X26785Y80250D01*
X27305Y81151D01*
X27410Y81543D01*
X27928D01*
X28011Y81234D01*
X28503Y80381D01*
X29200Y79684D01*
X30053Y79192D01*
X31004Y78937D01*
X31988D01*
X32940Y79192D01*
X33793Y79684D01*
X34489Y80381D01*
X34981Y81234D01*
X35174Y81954D01*
X35692D01*
X35885Y81234D01*
X36377Y80381D01*
X37074Y79684D01*
X37927Y79192D01*
X38878Y78937D01*
X39862D01*
X40814Y79192D01*
X41667Y79684D01*
X42363Y80381D01*
X42855Y81234D01*
X43048Y81954D01*
X43566D01*
X43759Y81234D01*
X44251Y80381D01*
X44948Y79684D01*
X45801Y79192D01*
X46752Y78937D01*
X47737D01*
X48688Y79192D01*
X49541Y79684D01*
X50237Y80381D01*
X50730Y81234D01*
X50922Y81954D01*
X51440D01*
X51633Y81234D01*
X52125Y80381D01*
X52822Y79684D01*
X53675Y79192D01*
X53914Y79128D01*
Y75032D01*
X52605Y73724D01*
X52105Y73931D01*
Y74134D01*
X51836Y74785D01*
X51337Y75283D01*
X50686Y75553D01*
X49981D01*
X49330Y75283D01*
X48832Y74785D01*
X48562Y74134D01*
Y73429D01*
X48832Y72778D01*
X48953Y72657D01*
X11069Y34772D01*
X10648D01*
X9996Y34502D01*
X9578Y34084D01*
X9199Y34170D01*
X9078Y34237D01*
Y79128D01*
X9318Y79192D01*
X10170Y79684D01*
X10867Y80381D01*
X11359Y81234D01*
X11442Y81543D01*
X11960D01*
X12065Y81151D01*
X12585Y80250D01*
X13321Y79514D01*
X14222Y78994D01*
X14748Y78853D01*
Y82677D01*
X16748D01*
Y78853D01*
X17274Y78994D01*
X18175Y79514D01*
X18911Y80250D01*
X19424Y81139D01*
X19533Y81165D01*
X19837D01*
X19946Y81139D01*
X20459Y80250D01*
X21195Y79514D01*
X22096Y78994D01*
X22622Y78853D01*
Y82677D01*
X24622D01*
Y78853D01*
D02*
G37*
G36*
X50847Y72935D02*
X50822Y72903D01*
X50800Y72862D01*
X50780Y72813D01*
X50764Y72755D01*
X50751Y72688D01*
X50741Y72612D01*
X50729Y72435D01*
X50728Y72334D01*
X49940D01*
X49939Y72435D01*
X49917Y72688D01*
X49903Y72755D01*
X49887Y72813D01*
X49868Y72862D01*
X49846Y72903D01*
X49821Y72935D01*
X49793Y72959D01*
X50875D01*
X50847Y72935D01*
D02*
G37*
G36*
X80568Y45177D02*
X80247Y45495D01*
X79647Y46031D01*
X79367Y46248D01*
X79101Y46432D01*
X78849Y46583D01*
X78611Y46700D01*
X78386Y46784D01*
X78176Y46834D01*
X77979Y46850D01*
X77979Y47638D01*
X78176Y47655D01*
X78386Y47705D01*
X78611Y47789D01*
X78849Y47906D01*
X79101Y48056D01*
X79367Y48240D01*
X79647Y48458D01*
X80247Y48993D01*
X80569Y49311D01*
X80568Y45177D01*
D02*
G37*
G36*
X90522Y44291D02*
X90070Y44289D01*
X89266Y44243D01*
X88915Y44199D01*
X88597Y44141D01*
X88312Y44070D01*
X88061Y43984D01*
X87843Y43884D01*
X87659Y43771D01*
X87507Y43644D01*
X86951Y44201D01*
X87078Y44352D01*
X87191Y44536D01*
X87291Y44754D01*
X87377Y45005D01*
X87448Y45290D01*
X87506Y45608D01*
X87550Y45959D01*
X87596Y46763D01*
X87599Y47215D01*
X90522Y44291D01*
D02*
G37*
G36*
X79591Y41504D02*
X79192Y40814D01*
X78937Y39862D01*
Y38878D01*
X79192Y37927D01*
X79684Y37074D01*
X80381Y36377D01*
X81234Y35885D01*
X81954Y35692D01*
Y35174D01*
X81234Y34981D01*
X80381Y34489D01*
X79684Y33793D01*
X79192Y32940D01*
X78937Y31988D01*
Y31004D01*
X79192Y30053D01*
X79684Y29200D01*
X80381Y28503D01*
X81234Y28011D01*
X81954Y27818D01*
Y27300D01*
X81234Y27107D01*
X80381Y26615D01*
X79684Y25919D01*
X79192Y25066D01*
X78937Y24114D01*
Y23130D01*
X79192Y22178D01*
X79316Y21964D01*
X78622Y21270D01*
X75081D01*
X74981Y21472D01*
X74928Y21770D01*
X75363Y22205D01*
X75633Y22856D01*
Y23561D01*
X75363Y24212D01*
X74865Y24710D01*
X74213Y24980D01*
X73723D01*
X71351Y27351D01*
X70961Y27613D01*
X70500Y27704D01*
X70500Y27704D01*
X18870D01*
X18679Y28166D01*
X32517Y42004D01*
X79366D01*
X79591Y41504D01*
D02*
G37*
G36*
X72089Y23208D02*
Y22856D01*
X72359Y22205D01*
X72794Y21770D01*
X72741Y21472D01*
X72641Y21270D01*
X37264D01*
X37047Y21770D01*
X37362Y22530D01*
Y23470D01*
X37003Y24338D01*
X36545Y24796D01*
X36752Y25296D01*
X70001D01*
X72089Y23208D01*
D02*
G37*
G36*
X33455Y24796D02*
X32997Y24338D01*
X32638Y23470D01*
Y22530D01*
X32953Y21770D01*
X32737Y21270D01*
X14245D01*
X14054Y21732D01*
X17618Y25296D01*
X33248D01*
X33455Y24796D01*
D02*
G37*
G36*
X75487Y17408D02*
X75497Y17327D01*
X75514Y17247D01*
X75538Y17169D01*
X75569Y17092D01*
X75608Y17016D01*
X75654Y16941D01*
X75707Y16867D01*
X75767Y16794D01*
X75834Y16723D01*
X75277Y16166D01*
X75206Y16233D01*
X75133Y16293D01*
X75059Y16346D01*
X74985Y16392D01*
X74908Y16431D01*
X74831Y16462D01*
X74752Y16486D01*
X74673Y16503D01*
X74592Y16513D01*
X74510Y16516D01*
X75484Y17490D01*
X75487Y17408D01*
D02*
G37*
G36*
X80568Y13681D02*
X80247Y13999D01*
X79647Y14535D01*
X79367Y14752D01*
X79101Y14936D01*
X78849Y15087D01*
X78611Y15204D01*
X78386Y15288D01*
X78176Y15338D01*
X77979Y15354D01*
Y16142D01*
X78176Y16159D01*
X78386Y16209D01*
X78611Y16292D01*
X78849Y16409D01*
X79101Y16560D01*
X79367Y16744D01*
X79647Y16962D01*
X80247Y17497D01*
X80568Y17815D01*
Y13681D01*
D02*
G37*
G36*
X90522Y12796D02*
X90070Y12793D01*
X89266Y12747D01*
X88915Y12703D01*
X88597Y12645D01*
X88312Y12574D01*
X88061Y12488D01*
X87843Y12388D01*
X87659Y12275D01*
X87507Y12148D01*
X86951Y12705D01*
X87078Y12855D01*
X87191Y13040D01*
X87291Y13258D01*
X87377Y13509D01*
X87448Y13794D01*
X87506Y14112D01*
X87550Y14463D01*
X87596Y15267D01*
X87599Y15719D01*
X90522Y12796D01*
D02*
G37*
G36*
X27688Y17124D02*
X27452Y16888D01*
X27092Y16020D01*
Y15080D01*
X27452Y14212D01*
X28117Y13547D01*
X28431Y13417D01*
X28331Y12917D01*
X14674D01*
X14213Y12825D01*
X13823Y12564D01*
X13823Y12564D01*
X12666Y11408D01*
X12204Y11599D01*
Y15501D01*
X14327Y17624D01*
X27481D01*
X27688Y17124D01*
D02*
G37*
G36*
X-28319Y11374D02*
X-28308Y11317D01*
X-28289Y11258D01*
X-28262Y11197D01*
X-28227Y11133D01*
X-28185Y11066D01*
X-28134Y10997D01*
X-28076Y10925D01*
X-27936Y10775D01*
X-28643Y10068D01*
X-28720Y10141D01*
X-28866Y10266D01*
X-28935Y10316D01*
X-29001Y10359D01*
X-29065Y10393D01*
X-29127Y10420D01*
X-29186Y10439D01*
X-29243Y10451D01*
X-29297Y10454D01*
X-28322Y11428D01*
X-28319Y11374D01*
D02*
G37*
G36*
X69131Y10166D02*
X68939Y9704D01*
X64500D01*
X64039Y9613D01*
X63648Y9352D01*
X63648Y9352D01*
X59268Y4971D01*
X58778Y5021D01*
X58599Y5452D01*
X58978Y5831D01*
X59550Y6822D01*
X59732Y7500D01*
X55500D01*
X51268D01*
X51450Y6822D01*
X52022Y5831D01*
X52401Y5452D01*
X52194Y4952D01*
X44251D01*
X39851Y9352D01*
X39461Y9613D01*
X39000Y9704D01*
X39000Y9704D01*
X38264D01*
X38072Y10166D01*
X40438Y12532D01*
X52825D01*
X52954Y12049D01*
X52831Y11978D01*
X52022Y11169D01*
X51450Y10178D01*
X51268Y9500D01*
X55500D01*
X59732D01*
X59550Y10178D01*
X58978Y11169D01*
X58169Y11978D01*
X58046Y12049D01*
X58175Y12532D01*
X66765D01*
X69131Y10166D01*
D02*
G37*
G36*
X5138Y6735D02*
X4311D01*
X4315Y6743D01*
X4318Y6757D01*
X4321Y6777D01*
X4326Y6838D01*
X4330Y7041D01*
X4331Y7108D01*
X5118D01*
X5138Y6735D01*
D02*
G37*
G36*
X6713Y6721D02*
X5886D01*
X5890Y6728D01*
X5893Y6742D01*
X5896Y6763D01*
X5901Y6824D01*
X5905Y7026D01*
X5906Y7094D01*
X6693D01*
X6713Y6721D01*
D02*
G37*
G36*
X3563D02*
X2736D01*
X2740Y6728D01*
X2743Y6742D01*
X2746Y6763D01*
X2751Y6824D01*
X2756Y7026D01*
X2756Y7094D01*
X3543D01*
X3563Y6721D01*
D02*
G37*
G36*
X1988D02*
X1161D01*
X1165Y6728D01*
X1168Y6742D01*
X1171Y6763D01*
X1176Y6824D01*
X1181Y7026D01*
X1181Y7094D01*
X1969D01*
X1988Y6721D01*
D02*
G37*
G36*
X413D02*
X-413D01*
X-410Y6728D01*
X-406Y6742D01*
X-403Y6763D01*
X-399Y6824D01*
X-394Y7026D01*
X-394Y7094D01*
X394D01*
X413Y6721D01*
D02*
G37*
G36*
X-1161D02*
X-1988D01*
X-1984Y6728D01*
X-1981Y6742D01*
X-1978Y6763D01*
X-1973Y6824D01*
X-1969Y7026D01*
X-1969Y7094D01*
X-1181D01*
X-1161Y6721D01*
D02*
G37*
G36*
X-6665Y6763D02*
X-6770Y5943D01*
X-6779Y5950D01*
X-6795Y5957D01*
X-6816Y5962D01*
X-6845Y5967D01*
X-6880Y5971D01*
X-7023Y5979D01*
X-7151Y5981D01*
X-7012Y6768D01*
X-6665Y6763D01*
D02*
G37*
G36*
X-6753Y2772D02*
X-6762Y2778D01*
X-6777Y2784D01*
X-6799Y2789D01*
X-6827Y2793D01*
X-6903Y2799D01*
X-7065Y2804D01*
X-7133Y2804D01*
X-7045Y3592D01*
X-6686Y3596D01*
X-6753Y2772D01*
D02*
G37*
G36*
X65790Y6796D02*
X65498Y6504D01*
X65228Y5852D01*
Y5148D01*
X65498Y4496D01*
X65796Y4199D01*
Y-35001D01*
X62001Y-38796D01*
X11801D01*
X11504Y-38498D01*
X10852Y-38228D01*
X10148D01*
X9496Y-38498D01*
X8998Y-38996D01*
X8728Y-39648D01*
Y-40352D01*
X8998Y-41004D01*
X9496Y-41502D01*
X10148Y-41772D01*
X10852D01*
X11504Y-41502D01*
X11801Y-41204D01*
X62386D01*
X62558Y-41479D01*
X62603Y-41693D01*
X50001Y-54296D01*
X45247D01*
X44969Y-53880D01*
X44980Y-53852D01*
Y-53148D01*
X44711Y-52496D01*
X44212Y-51998D01*
X43561Y-51728D01*
X42856D01*
X42205Y-51998D01*
X41707Y-52496D01*
X41437Y-53148D01*
Y-53852D01*
X41449Y-53880D01*
X41171Y-54296D01*
X301D01*
X4Y-53998D01*
X-596Y-53750D01*
X-820Y-53266D01*
X7151Y-45296D01*
X7151Y-45296D01*
X7412Y-44905D01*
X7503Y-44444D01*
Y-6993D01*
X7677Y-6573D01*
Y-6025D01*
X7742Y-5929D01*
X29226D01*
X45649Y-22352D01*
X46039Y-22613D01*
X46500Y-22704D01*
X51543D01*
X51648Y-23096D01*
X52192Y-24038D01*
X52962Y-24808D01*
X53904Y-25352D01*
X54956Y-25634D01*
X56044D01*
X57096Y-25352D01*
X58038Y-24808D01*
X58808Y-24038D01*
X59352Y-23096D01*
X59634Y-22044D01*
Y-20956D01*
X59352Y-19904D01*
X58808Y-18962D01*
X58038Y-18192D01*
X57096Y-17648D01*
X56044Y-17366D01*
X54956D01*
X53904Y-17648D01*
X52962Y-18192D01*
X52192Y-18962D01*
X51648Y-19904D01*
X51543Y-20296D01*
X46999D01*
X30576Y-3873D01*
X30185Y-3612D01*
X29724Y-3520D01*
X29724Y-3520D01*
X14336D01*
X14145Y-3058D01*
X24499Y7296D01*
X27302D01*
X27493Y6834D01*
X27452Y6793D01*
X27092Y5925D01*
Y4985D01*
X27452Y4117D01*
X28117Y3452D01*
X28985Y3093D01*
X29925D01*
X30793Y3452D01*
X31457Y4117D01*
X31817Y4985D01*
Y5925D01*
X31457Y6793D01*
X31416Y6834D01*
X31608Y7296D01*
X33248D01*
X33455Y6796D01*
X32997Y6338D01*
X32638Y5470D01*
Y4530D01*
X32997Y3662D01*
X33662Y2997D01*
X34530Y2638D01*
X35470D01*
X36338Y2997D01*
X37003Y3662D01*
X37362Y4530D01*
Y5470D01*
X37003Y6338D01*
X36545Y6796D01*
X36752Y7296D01*
X38501D01*
X42900Y2897D01*
X42900Y2897D01*
X43291Y2635D01*
X43752Y2544D01*
X53236D01*
X53370Y2044D01*
X52962Y1808D01*
X52192Y1038D01*
X51648Y96D01*
X51366Y-956D01*
Y-2044D01*
X51648Y-3096D01*
X52192Y-4038D01*
X52962Y-4808D01*
X53904Y-5352D01*
X54956Y-5634D01*
X56044D01*
X57096Y-5352D01*
X58038Y-4808D01*
X58808Y-4038D01*
X59352Y-3096D01*
X59634Y-2044D01*
Y-956D01*
X59352Y96D01*
X58808Y1038D01*
X58038Y1808D01*
X57630Y2044D01*
X57764Y2544D01*
X59748D01*
X59748Y2544D01*
X60209Y2635D01*
X60599Y2897D01*
X64999Y7296D01*
X65583D01*
X65790Y6796D01*
D02*
G37*
G36*
X70488Y2882D02*
X70438Y2818D01*
X70394Y2749D01*
X70355Y2677D01*
X70323Y2600D01*
X70296Y2519D01*
X70276Y2433D01*
X70261Y2344D01*
X70252Y2250D01*
X70249Y2152D01*
X69462D01*
X69459Y2250D01*
X69450Y2344D01*
X69435Y2433D01*
X69414Y2519D01*
X69388Y2600D01*
X69355Y2677D01*
X69317Y2749D01*
X69273Y2818D01*
X69222Y2882D01*
X69166Y2942D01*
X70544D01*
X70488Y2882D01*
D02*
G37*
G36*
X6728Y1984D02*
X6742Y1981D01*
X6763Y1978D01*
X6824Y1973D01*
X7026Y1969D01*
X7094Y1969D01*
Y1181D01*
X6721Y1161D01*
Y1988D01*
X6728Y1984D01*
D02*
G37*
G36*
X-6721Y1161D02*
X-6728Y1165D01*
X-6742Y1168D01*
X-6763Y1171D01*
X-6824Y1176D01*
X-7026Y1181D01*
X-7094Y1181D01*
Y1969D01*
X-6721Y1988D01*
Y1161D01*
D02*
G37*
G36*
X87659Y3473D02*
X87843Y3360D01*
X88061Y3260D01*
X88312Y3175D01*
X88597Y3103D01*
X88915Y3045D01*
X89266Y3001D01*
X90070Y2955D01*
X90522Y2953D01*
X87599Y30D01*
X87596Y481D01*
X87550Y1285D01*
X87506Y1636D01*
X87448Y1955D01*
X87377Y2239D01*
X87291Y2490D01*
X87191Y2708D01*
X87078Y2893D01*
X86951Y3044D01*
X87508Y3600D01*
X87659Y3473D01*
D02*
G37*
G36*
X73633Y737D02*
X73583Y673D01*
X73538Y605D01*
X73500Y532D01*
X73467Y455D01*
X73441Y374D01*
X73420Y289D01*
X73405Y199D01*
X73397Y105D01*
X73394Y7D01*
X72606D01*
X72603Y105D01*
X72594Y199D01*
X72580Y289D01*
X72559Y374D01*
X72532Y455D01*
X72500Y532D01*
X72462Y605D01*
X72417Y673D01*
X72367Y737D01*
X72311Y797D01*
X73689D01*
X73633Y737D01*
D02*
G37*
G36*
X-6721Y-413D02*
X-6728Y-410D01*
X-6742Y-406D01*
X-6763Y-403D01*
X-6824Y-399D01*
X-7026Y-394D01*
X-7094Y-394D01*
Y394D01*
X-6721Y413D01*
Y-413D01*
D02*
G37*
G36*
X-2640Y1310D02*
X-2610Y1140D01*
X-2560Y990D01*
X-2490Y860D01*
X-2400Y750D01*
X-2290Y660D01*
X-2160Y590D01*
X-2010Y540D01*
X-1840Y510D01*
X-1650Y500D01*
Y-500D01*
X-1840Y-510D01*
X-2010Y-540D01*
X-2160Y-590D01*
X-2290Y-660D01*
X-2400Y-750D01*
X-2490Y-860D01*
X-2560Y-990D01*
X-2610Y-1140D01*
X-2640Y-1310D01*
X-2650Y-1500D01*
X-3650Y0D01*
X-2650Y1500D01*
X-2640Y1310D01*
D02*
G37*
G36*
X6728Y-1165D02*
X6742Y-1168D01*
X6763Y-1171D01*
X6824Y-1176D01*
X7026Y-1181D01*
X7094Y-1181D01*
Y-1969D01*
X6721Y-1988D01*
Y-1161D01*
X6728Y-1165D01*
D02*
G37*
G36*
X-6721Y-1988D02*
X-6728Y-1984D01*
X-6742Y-1981D01*
X-6763Y-1978D01*
X-6824Y-1973D01*
X-7026Y-1969D01*
X-7094Y-1969D01*
Y-1181D01*
X-6721Y-1161D01*
Y-1988D01*
D02*
G37*
G36*
X6728Y-2740D02*
X6742Y-2743D01*
X6763Y-2746D01*
X6824Y-2751D01*
X7026Y-2756D01*
X7094Y-2756D01*
Y-3543D01*
X6721Y-3563D01*
Y-2736D01*
X6728Y-2740D01*
D02*
G37*
G36*
X-6721Y-3563D02*
X-6728Y-3559D01*
X-6742Y-3556D01*
X-6763Y-3553D01*
X-6824Y-3548D01*
X-7026Y-3543D01*
X-7094Y-3543D01*
Y-2756D01*
X-6721Y-2736D01*
Y-3563D01*
D02*
G37*
G36*
X6728Y-4315D02*
X6742Y-4318D01*
X6763Y-4321D01*
X6824Y-4326D01*
X7026Y-4330D01*
X7094Y-4331D01*
Y-5118D01*
X6721Y-5138D01*
Y-4311D01*
X6728Y-4315D01*
D02*
G37*
G36*
X-6721Y-5138D02*
X-6728Y-5134D01*
X-6742Y-5131D01*
X-6763Y-5128D01*
X-6824Y-5123D01*
X-7026Y-5118D01*
X-7094Y-5118D01*
Y-4331D01*
X-6721Y-4311D01*
Y-5138D01*
D02*
G37*
G36*
X76133Y-4763D02*
X76083Y-4827D01*
X76038Y-4896D01*
X76000Y-4968D01*
X75968Y-5045D01*
X75941Y-5126D01*
X75920Y-5211D01*
X75906Y-5301D01*
X75897Y-5395D01*
X75894Y-5493D01*
X75106D01*
X75103Y-5395D01*
X75094Y-5301D01*
X75080Y-5211D01*
X75059Y-5126D01*
X75033Y-5045D01*
X75000Y-4968D01*
X74962Y-4896D01*
X74917Y-4827D01*
X74867Y-4763D01*
X74811Y-4703D01*
X76189D01*
X76133Y-4763D01*
D02*
G37*
G36*
X5134Y-6728D02*
X5131Y-6742D01*
X5128Y-6763D01*
X5123Y-6824D01*
X5118Y-7026D01*
X5118Y-7094D01*
X4331D01*
X4311Y-6721D01*
X5138D01*
X5134Y-6728D01*
D02*
G37*
G36*
X3559D02*
X3556Y-6742D01*
X3553Y-6763D01*
X3548Y-6824D01*
X3543Y-7026D01*
X3543Y-7094D01*
X2756D01*
X2736Y-6721D01*
X3563D01*
X3559Y-6728D01*
D02*
G37*
G36*
X1984D02*
X1981Y-6742D01*
X1978Y-6763D01*
X1973Y-6824D01*
X1969Y-7026D01*
X1969Y-7094D01*
X1181D01*
X1161Y-6721D01*
X1988D01*
X1984Y-6728D01*
D02*
G37*
G36*
X410D02*
X406Y-6742D01*
X403Y-6763D01*
X399Y-6824D01*
X394Y-7026D01*
X394Y-7094D01*
X-394D01*
X-413Y-6721D01*
X413D01*
X410Y-6728D01*
D02*
G37*
G36*
X-1165D02*
X-1168Y-6742D01*
X-1171Y-6763D01*
X-1176Y-6824D01*
X-1181Y-7026D01*
X-1181Y-7094D01*
X-1969D01*
X-1988Y-6721D01*
X-1161D01*
X-1165Y-6728D01*
D02*
G37*
G36*
X-2740D02*
X-2743Y-6742D01*
X-2746Y-6763D01*
X-2751Y-6824D01*
X-2756Y-7026D01*
X-2756Y-7094D01*
X-3543D01*
X-3563Y-6721D01*
X-2736D01*
X-2740Y-6728D01*
D02*
G37*
G36*
X-4315D02*
X-4318Y-6742D01*
X-4321Y-6763D01*
X-4326Y-6824D01*
X-4330Y-7026D01*
X-4331Y-7094D01*
X-5118D01*
X-5138Y-6721D01*
X-4311D01*
X-4315Y-6728D01*
D02*
G37*
G36*
X-5890D02*
X-5893Y-6742D01*
X-5896Y-6763D01*
X-5901Y-6824D01*
X-5905Y-7026D01*
X-5906Y-7094D01*
X-6693D01*
X-6713Y-6721D01*
X-5886D01*
X-5890Y-6728D01*
D02*
G37*
G36*
X52266Y-22284D02*
X52257Y-22210D01*
X52231Y-22143D01*
X52188Y-22085D01*
X52127Y-22034D01*
X52050Y-21991D01*
X51954Y-21956D01*
X51842Y-21929D01*
X51712Y-21909D01*
X51565Y-21898D01*
X51401Y-21894D01*
Y-21106D01*
X51565Y-21102D01*
X51712Y-21091D01*
X51842Y-21071D01*
X51954Y-21044D01*
X52050Y-21009D01*
X52127Y-20966D01*
X52188Y-20915D01*
X52231Y-20857D01*
X52257Y-20790D01*
X52266Y-20716D01*
Y-22284D01*
D02*
G37*
G36*
X371Y-26986D02*
Y-28327D01*
X-1931Y-30629D01*
X-2352D01*
X-3004Y-30899D01*
X-3502Y-31397D01*
X-3772Y-32048D01*
Y-32753D01*
X-3502Y-33404D01*
X-3004Y-33902D01*
X-2352Y-34172D01*
X-1648D01*
X-996Y-33902D01*
X-498Y-33404D01*
X-228Y-32753D01*
Y-32332D01*
X1483Y-30620D01*
X1945Y-30812D01*
Y-41352D01*
X-9219Y-52516D01*
X-17919D01*
X-18217Y-52219D01*
X-18868Y-51949D01*
X-19573D01*
X-20224Y-52219D01*
X-20722Y-52717D01*
X-20992Y-53368D01*
Y-54073D01*
X-20722Y-54724D01*
X-20224Y-55222D01*
X-19573Y-55492D01*
X-18868D01*
X-18217Y-55222D01*
X-17919Y-54925D01*
X-9781D01*
X-9590Y-55387D01*
X-13352Y-59149D01*
X-13613Y-59539D01*
X-13704Y-60000D01*
X-13704Y-60000D01*
Y-60748D01*
X-14204Y-60882D01*
X-14522Y-60331D01*
X-15331Y-59522D01*
X-16322Y-58950D01*
X-17000Y-58768D01*
Y-63000D01*
Y-67232D01*
X-16322Y-67050D01*
X-15331Y-66478D01*
X-14522Y-65669D01*
X-14204Y-65118D01*
X-13704Y-65252D01*
Y-67219D01*
X-14352D01*
X-15004Y-67489D01*
X-15502Y-67987D01*
X-15772Y-68638D01*
Y-69343D01*
X-15502Y-69994D01*
X-15004Y-70493D01*
X-14352Y-70763D01*
X-13648D01*
X-12996Y-70493D01*
X-12498Y-69994D01*
X-12439Y-69852D01*
X-11949Y-69754D01*
X-2851Y-78851D01*
X-2851Y-78851D01*
X-2461Y-79113D01*
X-2346Y-79135D01*
X-2259Y-79663D01*
X-2296Y-79684D01*
X-2993Y-80381D01*
X-3485Y-81234D01*
X-3678Y-81954D01*
X-4196D01*
X-4389Y-81234D01*
X-4881Y-80381D01*
X-5578Y-79684D01*
X-6431Y-79192D01*
X-7382Y-78937D01*
X-8366D01*
X-9318Y-79192D01*
X-9532Y-79316D01*
X-22296Y-66552D01*
Y-65252D01*
X-21796Y-65118D01*
X-21478Y-65669D01*
X-20669Y-66478D01*
X-19678Y-67050D01*
X-19000Y-67232D01*
Y-63000D01*
Y-58768D01*
X-19678Y-58950D01*
X-20669Y-59522D01*
X-21478Y-60331D01*
X-21796Y-60882D01*
X-22296Y-60748D01*
Y-49506D01*
X-22234Y-49464D01*
X-21640Y-49669D01*
X-21502Y-50004D01*
X-21004Y-50502D01*
X-20352Y-50772D01*
X-19648D01*
X-18996Y-50502D01*
X-18498Y-50004D01*
X-18228Y-49352D01*
Y-48648D01*
X-18498Y-47996D01*
X-18996Y-47498D01*
X-19648Y-47228D01*
X-19818D01*
X-20025Y-46728D01*
X-91Y-26794D01*
X371Y-26986D01*
D02*
G37*
G36*
X-87596Y-55600D02*
X-87550Y-56403D01*
X-87506Y-56755D01*
X-87448Y-57073D01*
X-87377Y-57357D01*
X-87291Y-57609D01*
X-87191Y-57827D01*
X-87078Y-58011D01*
X-86951Y-58162D01*
X-87508Y-58719D01*
X-87659Y-58591D01*
X-87843Y-58478D01*
X-88061Y-58378D01*
X-88312Y-58293D01*
X-88597Y-58221D01*
X-88915Y-58163D01*
X-89266Y-58119D01*
X-90070Y-58073D01*
X-90522Y-58071D01*
X-87599Y-55148D01*
X-87596Y-55600D01*
D02*
G37*
G36*
X-25603Y-61105D02*
X-25594Y-61199D01*
X-25580Y-61289D01*
X-25559Y-61374D01*
X-25532Y-61455D01*
X-25500Y-61532D01*
X-25462Y-61604D01*
X-25417Y-61673D01*
X-25367Y-61737D01*
X-25311Y-61797D01*
X-26689D01*
X-26633Y-61737D01*
X-26583Y-61673D01*
X-26538Y-61604D01*
X-26500Y-61532D01*
X-26467Y-61455D01*
X-26441Y-61374D01*
X-26420Y-61289D01*
X-26406Y-61199D01*
X-26397Y-61105D01*
X-26394Y-61007D01*
X-25606D01*
X-25603Y-61105D01*
D02*
G37*
G36*
X-15347Y-78924D02*
X-15325Y-79085D01*
X-15288Y-79234D01*
X-15236Y-79371D01*
X-15169Y-79497D01*
X-15088Y-79611D01*
X-14991Y-79714D01*
X-14880Y-79804D01*
X-14754Y-79884D01*
X-14614Y-79951D01*
X-16883Y-79951D01*
X-16742Y-79884D01*
X-16616Y-79804D01*
X-16505Y-79714D01*
X-16408Y-79611D01*
X-16327Y-79497D01*
X-16260Y-79371D01*
X-16208Y-79234D01*
X-16171Y-79085D01*
X-16149Y-78924D01*
X-16142Y-78752D01*
X-15354D01*
X-15347Y-78924D01*
D02*
G37*
G36*
X-23228Y-77979D02*
X-23212Y-78176D01*
X-23161Y-78386D01*
X-23078Y-78611D01*
X-22961Y-78849D01*
X-22810Y-79101D01*
X-22626Y-79367D01*
X-22408Y-79647D01*
X-21873Y-80247D01*
X-21555Y-80569D01*
X-25689Y-80568D01*
X-25371Y-80247D01*
X-24836Y-79647D01*
X-24618Y-79367D01*
X-24434Y-79101D01*
X-24283Y-78849D01*
X-24166Y-78611D01*
X-24083Y-78386D01*
X-24032Y-78176D01*
X-24016Y-77979D01*
X-23228Y-77979D01*
D02*
G37*
G36*
X-31102D02*
X-31086Y-78176D01*
X-31035Y-78386D01*
X-30952Y-78611D01*
X-30835Y-78849D01*
X-30684Y-79101D01*
X-30500Y-79367D01*
X-30282Y-79647D01*
X-29747Y-80247D01*
X-29429Y-80569D01*
X-33563Y-80568D01*
X-33245Y-80247D01*
X-32710Y-79647D01*
X-32492Y-79367D01*
X-32308Y-79101D01*
X-32157Y-78849D01*
X-32040Y-78611D01*
X-31957Y-78386D01*
X-31906Y-78176D01*
X-31890Y-77979D01*
X-31102Y-77979D01*
D02*
G37*
G36*
X28604Y-87078D02*
X28788Y-87191D01*
X29006Y-87291D01*
X29257Y-87377D01*
X29542Y-87448D01*
X29860Y-87506D01*
X30211Y-87550D01*
X31015Y-87596D01*
X31467Y-87599D01*
X28543Y-90522D01*
X28541Y-90070D01*
X28495Y-89266D01*
X28451Y-88915D01*
X28393Y-88597D01*
X28322Y-88312D01*
X28236Y-88061D01*
X28136Y-87843D01*
X28023Y-87659D01*
X27896Y-87507D01*
X28453Y-86951D01*
X28604Y-87078D01*
D02*
G37*
G36*
X-18641D02*
X-18456Y-87191D01*
X-18238Y-87291D01*
X-17987Y-87377D01*
X-17703Y-87448D01*
X-17384Y-87506D01*
X-17033Y-87550D01*
X-16229Y-87596D01*
X-15778Y-87599D01*
X-18701Y-90522D01*
X-18703Y-90070D01*
X-18749Y-89266D01*
X-18793Y-88915D01*
X-18851Y-88597D01*
X-18923Y-88312D01*
X-19008Y-88061D01*
X-19108Y-87843D01*
X-19221Y-87659D01*
X-19349Y-87507D01*
X-18792Y-86951D01*
X-18641Y-87078D01*
D02*
G37*
G36*
X-26515D02*
X-26330Y-87191D01*
X-26112Y-87291D01*
X-25861Y-87377D01*
X-25577Y-87448D01*
X-25258Y-87506D01*
X-24907Y-87550D01*
X-24103Y-87596D01*
X-23652Y-87599D01*
X-26575Y-90522D01*
X-26577Y-90070D01*
X-26623Y-89266D01*
X-26667Y-88915D01*
X-26725Y-88597D01*
X-26797Y-88312D01*
X-26882Y-88061D01*
X-26982Y-87843D01*
X-27095Y-87659D01*
X-27222Y-87507D01*
X-26666Y-86951D01*
X-26515Y-87078D01*
D02*
G37*
G36*
X-34389D02*
X-34204Y-87191D01*
X-33986Y-87291D01*
X-33735Y-87377D01*
X-33450Y-87448D01*
X-33132Y-87506D01*
X-32781Y-87550D01*
X-31977Y-87596D01*
X-31526Y-87599D01*
X-34449Y-90522D01*
X-34451Y-90070D01*
X-34497Y-89266D01*
X-34541Y-88915D01*
X-34599Y-88597D01*
X-34671Y-88312D01*
X-34756Y-88061D01*
X-34856Y-87843D01*
X-34969Y-87659D01*
X-35096Y-87507D01*
X-34540Y-86951D01*
X-34389Y-87078D01*
D02*
G37*
%LPC*%
G36*
X65352Y37106D02*
X64648D01*
X63996Y36837D01*
X63498Y36338D01*
X63228Y35687D01*
Y34982D01*
X63498Y34331D01*
X63996Y33833D01*
X64648Y33563D01*
X65352D01*
X66004Y33833D01*
X66502Y34331D01*
X66772Y34982D01*
Y35687D01*
X66502Y36338D01*
X66004Y36837D01*
X65352Y37106D01*
D02*
G37*
G36*
X38852Y-4728D02*
X38148D01*
X37496Y-4998D01*
X36998Y-5496D01*
X36728Y-6148D01*
Y-6852D01*
X36998Y-7504D01*
X37496Y-8002D01*
X38148Y-8272D01*
X38570D01*
X38891Y-8756D01*
X38728Y-9148D01*
Y-9852D01*
X38998Y-10504D01*
X39496Y-11002D01*
X40148Y-11272D01*
X40852D01*
X41504Y-11002D01*
X42002Y-10504D01*
X42272Y-9852D01*
Y-9148D01*
X42002Y-8496D01*
X41504Y-7998D01*
X40852Y-7728D01*
X40430D01*
X40109Y-7244D01*
X40272Y-6852D01*
Y-6148D01*
X40002Y-5496D01*
X39504Y-4998D01*
X38852Y-4728D01*
D02*
G37*
G36*
X56044Y-7366D02*
X54956D01*
X53904Y-7648D01*
X52962Y-8192D01*
X52192Y-8962D01*
X51648Y-9904D01*
X51366Y-10956D01*
Y-12044D01*
X51648Y-13096D01*
X52192Y-14038D01*
X52962Y-14808D01*
X53904Y-15352D01*
X54956Y-15634D01*
X56044D01*
X57096Y-15352D01*
X58038Y-14808D01*
X58808Y-14038D01*
X59352Y-13096D01*
X59634Y-12044D01*
Y-10956D01*
X59352Y-9904D01*
X58808Y-8962D01*
X58038Y-8192D01*
X57096Y-7648D01*
X56044Y-7366D01*
D02*
G37*
G36*
X11000Y-20592D02*
X10767Y-20638D01*
X10530D01*
X10311Y-20729D01*
X10078Y-20775D01*
X9881Y-20907D01*
X9662Y-20997D01*
X9494Y-21165D01*
X9297Y-21297D01*
X9165Y-21494D01*
X8997Y-21662D01*
X8907Y-21881D01*
X8775Y-22078D01*
X8729Y-22311D01*
X8638Y-22530D01*
Y-22767D01*
X8591Y-23000D01*
X8638Y-23233D01*
Y-23470D01*
X8729Y-23689D01*
X8775Y-23922D01*
X8907Y-24119D01*
X8997Y-24338D01*
X9165Y-24506D01*
X9297Y-24703D01*
X17797Y-33203D01*
X18578Y-33725D01*
X19500Y-33909D01*
X51366D01*
Y-35634D01*
X59634D01*
Y-27366D01*
X51366D01*
Y-29092D01*
X20498D01*
X12703Y-21297D01*
X12506Y-21165D01*
X12338Y-20997D01*
X12119Y-20907D01*
X11922Y-20775D01*
X11689Y-20729D01*
X11470Y-20638D01*
X11233D01*
X11000Y-20592D01*
D02*
G37*
G36*
X11684Y-42306D02*
X10979D01*
X10328Y-42575D01*
X9830Y-43074D01*
X9560Y-43725D01*
Y-44430D01*
X9830Y-45081D01*
X10328Y-45579D01*
X10979Y-45849D01*
X11684D01*
X12335Y-45579D01*
X12834Y-45081D01*
X13104Y-44430D01*
Y-43725D01*
X12834Y-43074D01*
X12335Y-42575D01*
X11684Y-42306D01*
D02*
G37*
G36*
X12352Y-49618D02*
X11648D01*
X10996Y-49888D01*
X10498Y-50386D01*
X10228Y-51037D01*
Y-51742D01*
X10498Y-52393D01*
X10996Y-52892D01*
X11648Y-53161D01*
X12352D01*
X13004Y-52892D01*
X13502Y-52393D01*
X13772Y-51742D01*
Y-51037D01*
X13502Y-50386D01*
X13004Y-49888D01*
X12352Y-49618D01*
D02*
G37*
G36*
X29852Y-50228D02*
X29148D01*
X28496Y-50498D01*
X27998Y-50996D01*
X27728Y-51648D01*
Y-52352D01*
X27998Y-53004D01*
X28496Y-53502D01*
X29148Y-53772D01*
X29852D01*
X30504Y-53502D01*
X31002Y-53004D01*
X31272Y-52352D01*
Y-51648D01*
X31002Y-50996D01*
X30504Y-50498D01*
X29852Y-50228D01*
D02*
G37*
%LPD*%
D12*
X-98425Y98425D02*
X98425D01*
Y-98425D02*
Y98425D01*
X-98425Y-98425D02*
X98425D01*
X-98425D02*
Y98425D01*
D13*
X14674Y11713D02*
X34713D01*
X39000Y16000D01*
X39939Y13736D02*
X67264D01*
X36203Y10000D02*
X39939Y13736D01*
X23412Y10000D02*
X36203D01*
X67264Y13736D02*
X77161Y3839D01*
X6299Y-44444D02*
Y-6299D01*
X-8000Y-58743D02*
X6299Y-44444D01*
X-8000Y-63000D02*
Y-58743D01*
X74500Y17500D02*
X76252Y15748D01*
X43500Y-70500D02*
X59154D01*
X38366Y-75634D02*
X43500Y-70500D01*
X9957Y-75634D02*
X38366D01*
X27658Y-86713D02*
Y-80000D01*
X25658Y-78000D02*
X27658Y-80000D01*
X-2000Y-78000D02*
X25658D01*
X-12500Y-67500D02*
X-2000Y-78000D01*
X10500Y-40000D02*
X62500D01*
X11000Y16000D02*
X13828Y18828D01*
X70317D02*
X77235Y11910D01*
X9500Y17071D02*
X12494Y20065D01*
X13828Y18828D02*
X70317D01*
X79120Y20065D02*
X82677Y23622D01*
X12494Y20065D02*
X79120D01*
X50334Y72334D02*
Y73782D01*
X11000Y33000D02*
X50334Y72334D01*
X55118Y74533D02*
Y82677D01*
X0Y19415D02*
X55118Y74533D01*
X0Y6299D02*
Y19415D01*
X76252Y15748D02*
X82677D01*
X-36500Y-46071D02*
X-12500Y-22071D01*
X-36500Y-70500D02*
X-35335Y-71665D01*
X-36500Y-70500D02*
Y-46071D01*
X-38500Y-81807D02*
Y-46262D01*
X-39370Y-82677D02*
X-38500Y-81807D01*
Y-46262D02*
X-14000Y-21762D01*
X75500Y-37000D02*
Y-4000D01*
X48000Y-64500D02*
X75500Y-37000D01*
X24000Y8500D02*
X39000D01*
X43752Y3748D01*
X12350Y-3150D02*
X24000Y8500D01*
X11837Y-1575D02*
X23412Y10000D01*
X12500Y9539D02*
X14674Y11713D01*
X64500Y8500D02*
X70000D01*
X43752Y3748D02*
X59748D01*
X64500Y8500D01*
X29724Y-4724D02*
X46500Y-21500D01*
X55500D01*
X1575Y-28826D02*
Y-6299D01*
X-2000Y-32401D02*
X1575Y-28826D01*
X-28500Y2000D02*
X-25500D01*
X-29000Y2500D02*
X-28500Y2000D01*
X-6348Y3198D02*
X-6299Y3150D01*
X-24302Y3198D02*
X-6348D01*
X-25500Y2000D02*
X-24302Y3198D01*
X4724Y6314D02*
Y17724D01*
X6299Y-1575D02*
X11837D01*
X47291Y-57792D02*
X51208D01*
X73000Y-36000D01*
X-72500Y-55500D02*
Y-51540D01*
X-72531Y-51509D02*
X-72500Y-51540D01*
X-76000Y-59000D02*
X-72500Y-55500D01*
X6299Y-3150D02*
X12350D01*
X78599Y-35292D02*
Y-99D01*
Y-35292D02*
X82677Y-39370D01*
X70000Y8500D02*
X78599Y-99D01*
X73000Y-36000D02*
Y1500D01*
X48000Y-67000D02*
Y-64500D01*
X50500Y-55500D02*
X69855Y-36145D01*
Y3645D01*
X-1000Y-55500D02*
X50500D01*
X62500Y-40000D02*
X67000Y-35500D01*
Y5500D01*
X77161Y3839D02*
X86713D01*
X-90551Y-55118D02*
X-86669Y-59000D01*
X-76000D01*
X-26000Y-48000D02*
X-1575Y-23575D01*
X-26000Y-62500D02*
Y-48000D01*
X-23500Y-67051D02*
Y-48500D01*
Y-67051D02*
X-7874Y-82677D01*
X-23500Y-48500D02*
X0Y-25000D01*
X-82677Y-47244D02*
X-74244D01*
X-67033Y-40033D02*
Y14038D01*
X-74244Y-47244D02*
X-67033Y-40033D01*
X-31750Y-46750D02*
X-6299Y-21299D01*
X-28500Y-66000D02*
Y-47809D01*
X-30000Y-47500D02*
X-4724Y-22224D01*
X-34560Y-45941D02*
X-11000Y-22381D01*
X-33155Y-68345D02*
Y-46345D01*
X-31750Y-67059D02*
X-23622Y-75187D01*
X-28500Y-47809D02*
X-3150Y-22459D01*
X-30000Y-67000D02*
Y-47500D01*
X-33155Y-46345D02*
X-9500Y-22691D01*
X-34560Y-69441D02*
Y-45941D01*
X-31750Y-67059D02*
Y-46750D01*
X-34560Y-69441D02*
X-31496Y-72504D01*
X-33155Y-68345D02*
X-27461Y-74039D01*
X-30000Y-67000D02*
X-19587Y-77413D01*
X-35335Y-86713D02*
Y-71665D01*
X-28500Y-66000D02*
X-15748Y-78752D01*
X-35335Y-86713D02*
X-31496Y-90551D01*
Y-82677D02*
Y-72504D01*
X-27461Y-86713D02*
X-23622Y-90551D01*
X-27461Y-86713D02*
Y-74039D01*
X-23622Y-82677D02*
Y-75187D01*
X-15748Y-82677D02*
Y-78752D01*
X-19587Y-86713D02*
Y-77413D01*
Y-86713D02*
X-15748Y-90551D01*
X-14000Y-21762D02*
Y-3500D01*
X-10500Y0D01*
X-6299D01*
X-11000Y-22381D02*
Y-4330D01*
X-9820Y-3150D01*
X-6299D01*
Y-21299D02*
Y-6299D01*
X-3150Y-22459D02*
Y-6299D01*
X0Y-25000D02*
Y-6299D01*
X77235Y11910D02*
X86713D01*
X17119Y26500D02*
X70500D01*
X73792Y23208D01*
X73861D01*
X-12500Y-67500D02*
Y-60000D01*
X27658Y-86713D02*
X31496Y-90551D01*
X86713Y3839D02*
X90551Y0D01*
X86713Y11910D02*
X90551Y15748D01*
X6299Y17490D02*
X32018Y43209D01*
X86516D01*
X90551Y47244D01*
X4724Y17724D02*
X34244Y47244D01*
X39928Y55118D02*
X82677D01*
X3150Y18340D02*
X39928Y55118D01*
X1575Y18575D02*
X58957Y75957D01*
Y86713D01*
X3150Y6299D02*
Y18340D01*
X34244Y47244D02*
X82677D01*
X1575Y6299D02*
Y18575D01*
X-73209Y33709D02*
Y52000D01*
X-82677Y55118D02*
X-76327D01*
X-73209Y52000D01*
X-36500Y35500D02*
X-7374Y6374D01*
X-67000Y35500D02*
X-36500D01*
X-38500Y-1000D02*
X-17000D01*
X-73209Y33709D02*
X-38500Y-1000D01*
X-1575Y20425D02*
X7874Y29874D01*
Y82677D01*
X55118Y90551D02*
X58957Y86713D01*
X4724Y-42776D02*
Y-6299D01*
X3150Y-41850D02*
Y-6299D01*
X-12500Y-60000D02*
X4724Y-42776D01*
X-8721Y-53720D02*
X3150Y-41850D01*
X-12500Y-4000D02*
X-10075Y-1575D01*
X-12500Y-22071D02*
Y-4000D01*
X-10075Y-1575D02*
X-6299D01*
X-9500Y-22691D02*
Y-6000D01*
X-8224Y-4724D01*
X-6299D01*
X-1575Y-23575D02*
Y-6299D01*
X-4724Y-22224D02*
Y-6299D01*
X-19220Y-53720D02*
X-8721D01*
X8000Y17381D02*
X17119Y26500D01*
X6299Y1575D02*
X8075D01*
X11000Y4500D01*
X6299Y-4724D02*
X29724D01*
X12500Y3500D02*
Y9539D01*
X9000Y0D02*
X12500Y3500D01*
X6299Y0D02*
X9000D01*
X11000Y4500D02*
Y16000D01*
X8000Y5912D02*
Y17381D01*
X6374Y3225D02*
X7122D01*
X9500Y5603D01*
Y17071D01*
X6299Y3150D02*
X6374Y3225D01*
Y4800D02*
X6888D01*
X8000Y5912D01*
X6299Y4724D02*
X6374Y4800D01*
X6299Y6299D02*
Y17490D01*
X-1575Y6299D02*
Y20425D01*
X-17000Y-1000D02*
X-14425Y1575D01*
X-6299D01*
X-6374Y6374D02*
X-6299Y6299D01*
X-7374Y6374D02*
X-6374D01*
X-81913Y92436D02*
X-80263D01*
X-81163Y91237D01*
X-80713D01*
X-80413Y91087D01*
X-80263Y90937D01*
X-80113Y90487D01*
Y90187D01*
X-80263Y89737D01*
X-80563Y89437D01*
X-81013Y89287D01*
X-81463D01*
X-81913Y89437D01*
X-82063Y89587D01*
X-82213Y89887D01*
D15*
X-22593Y4724D02*
X-4724D01*
X-29307Y11438D02*
X-22593Y4724D01*
X-3150Y0D02*
Y2179D01*
Y-4724D02*
Y0D01*
X4724D01*
X-4086Y3115D02*
X-3150Y2179D01*
X-4724Y3150D02*
X-4690Y3115D01*
X-4086D01*
D46*
X19500Y-31500D02*
X55500D01*
X11000Y-23000D02*
X19500Y-31500D01*
D51*
X82677Y55118D02*
D03*
X90551Y47244D02*
D03*
X82677D02*
D03*
Y23622D02*
D03*
X90551Y15748D02*
D03*
X82677D02*
D03*
X90551Y0D02*
D03*
Y-15748D02*
D03*
Y-23622D02*
D03*
X82677Y-39370D02*
D03*
X-39370Y-82677D02*
D03*
X-31496D02*
D03*
Y-90551D02*
D03*
X-23622Y-82677D02*
D03*
Y-90551D02*
D03*
X-15748Y-82677D02*
D03*
Y-90551D02*
D03*
X-7874Y-82677D02*
D03*
X15748Y-90551D02*
D03*
X23622D02*
D03*
X31496D02*
D03*
X-90551Y-55118D02*
D03*
X-82677Y-47244D02*
D03*
X-90551Y-23622D02*
D03*
X-82677D02*
D03*
X-90551Y-15748D02*
D03*
X-82677D02*
D03*
X-90551Y31496D02*
D03*
X-82677Y55118D02*
D03*
X-47244Y90551D02*
D03*
Y82677D02*
D03*
X-23622Y90551D02*
D03*
Y82677D02*
D03*
X7874D02*
D03*
X15748Y90551D02*
D03*
Y82677D02*
D03*
X23622Y90551D02*
D03*
Y82677D02*
D03*
X55118Y90551D02*
D03*
Y82677D02*
D03*
D52*
X55500Y-31500D02*
D03*
D53*
Y-21500D02*
D03*
Y8500D02*
D03*
D54*
X-18000Y-63000D02*
D03*
X-8000D02*
D03*
D57*
X-43500Y7500D02*
D03*
X18500Y73000D02*
D03*
X-70500Y17000D02*
D03*
X-72000Y27000D02*
D03*
X74500Y17500D02*
D03*
X9957Y-75634D02*
D03*
X10500Y-40000D02*
D03*
X39000Y16000D02*
D03*
X50334Y73782D02*
D03*
X11000Y33000D02*
D03*
X72500Y-57000D02*
D03*
X54500Y-47000D02*
D03*
X30500Y-23000D02*
D03*
X18500Y-11000D02*
D03*
X30500Y-9500D02*
D03*
X39500Y-18500D02*
D03*
X-29307Y11438D02*
D03*
X-2000Y-32401D02*
D03*
X24500Y15000D02*
D03*
X25298Y4768D02*
D03*
X47291Y-57792D02*
D03*
X-73000Y4500D02*
D03*
X-72531Y-51509D02*
D03*
X75500Y-4000D02*
D03*
X48000Y-67000D02*
D03*
X73000Y1500D02*
D03*
X69855Y3645D02*
D03*
X67000Y5500D02*
D03*
X-1000Y-55500D02*
D03*
X-26000Y-62500D02*
D03*
X-19220Y-53720D02*
D03*
X-67033Y14038D02*
D03*
X59154Y-70500D02*
D03*
X73861Y23208D02*
D03*
X-67000Y35500D02*
D03*
D58*
X96500Y69000D02*
D03*
Y39000D02*
D03*
Y9000D02*
D03*
Y-21000D02*
D03*
Y-51000D02*
D03*
Y-81000D02*
D03*
X89000Y-96000D02*
D03*
X74000Y84000D02*
D03*
X81500Y69000D02*
D03*
X74000Y-66000D02*
D03*
X81500Y-81000D02*
D03*
X74000Y-96000D02*
D03*
X66500Y69000D02*
D03*
Y39000D02*
D03*
X59000Y24000D02*
D03*
Y-96000D02*
D03*
X51500Y39000D02*
D03*
X44000Y-96000D02*
D03*
X29000Y24000D02*
D03*
Y-66000D02*
D03*
Y-96000D02*
D03*
X14000Y54000D02*
D03*
Y-96000D02*
D03*
X-1000D02*
D03*
X-16000Y54000D02*
D03*
Y-96000D02*
D03*
X-23500Y69000D02*
D03*
X-31000Y-96000D02*
D03*
X-38500Y69000D02*
D03*
X-46000Y54000D02*
D03*
X-38500Y39000D02*
D03*
Y-21000D02*
D03*
X-46000Y-96000D02*
D03*
X-61000Y54000D02*
D03*
X-53500Y-21000D02*
D03*
X-61000Y-66000D02*
D03*
Y-96000D02*
D03*
X-76000Y84000D02*
D03*
X-68500Y69000D02*
D03*
X-76000Y-66000D02*
D03*
Y-96000D02*
D03*
X-91000Y84000D02*
D03*
X-83500Y69000D02*
D03*
Y-81000D02*
D03*
X-91000Y-96000D02*
D03*
D59*
X11000Y-23000D02*
D03*
D60*
X-8500Y32000D02*
D03*
X-15000D02*
D03*
X-20455Y8390D02*
D03*
D61*
X4724Y6314D02*
D03*
X-3150Y-4724D02*
D03*
X-6299Y0D02*
D03*
Y-3150D02*
D03*
Y-6299D02*
D03*
X-3150D02*
D03*
X0D02*
D03*
X3150D02*
D03*
X6299Y1575D02*
D03*
X4724Y-6299D02*
D03*
Y0D02*
D03*
X6299Y-4724D02*
D03*
Y-6299D02*
D03*
Y3150D02*
D03*
Y6299D02*
D03*
Y0D02*
D03*
Y-1575D02*
D03*
Y4724D02*
D03*
Y-3150D02*
D03*
X-6299Y3150D02*
D03*
X-4724Y-6299D02*
D03*
Y3150D02*
D03*
X-6299Y1575D02*
D03*
X-4724Y4724D02*
D03*
X-1575Y-6299D02*
D03*
X-3150Y7874D02*
D03*
X-6299D02*
D03*
X0Y6299D02*
D03*
X1575Y-6299D02*
D03*
X-6299Y-4724D02*
D03*
Y-1575D02*
D03*
X3150Y6299D02*
D03*
X1575D02*
D03*
X-1575D02*
D03*
X-3150D02*
D03*
X-6299D02*
D03*
M02*
