G04*
G04 #@! TF.GenerationSoftware,Altium Limited,Altium Designer,22.3.1 (43)*
G04*
G04 Layer_Physical_Order=1*
G04 Layer_Color=255*
%FSLAX25Y25*%
%MOIN*%
G70*
G04*
G04 #@! TF.SameCoordinates,697392F4-E1DC-46BD-99ED-7115868F3DC7*
G04*
G04*
G04 #@! TF.FilePolarity,Positive*
G04*
G01*
G75*
%ADD12C,0.00394*%
%ADD13C,0.00787*%
G04:AMPARAMS|DCode=23|XSize=40.35mil|YSize=55.12mil|CornerRadius=4.84mil|HoleSize=0mil|Usage=FLASHONLY|Rotation=90.000|XOffset=0mil|YOffset=0mil|HoleType=Round|Shape=RoundedRectangle|*
%AMROUNDEDRECTD23*
21,1,0.04035,0.04543,0,0,90.0*
21,1,0.03067,0.05512,0,0,90.0*
1,1,0.00969,0.02272,0.01534*
1,1,0.00969,0.02272,-0.01534*
1,1,0.00969,-0.02272,-0.01534*
1,1,0.00969,-0.02272,0.01534*
%
%ADD23ROUNDEDRECTD23*%
%ADD24C,0.00902*%
%ADD25R,0.04724X0.03937*%
%ADD26R,0.09843X0.03937*%
%ADD27C,0.03937*%
G04:AMPARAMS|DCode=28|XSize=40.35mil|YSize=55.12mil|CornerRadius=4.84mil|HoleSize=0mil|Usage=FLASHONLY|Rotation=0.000|XOffset=0mil|YOffset=0mil|HoleType=Round|Shape=RoundedRectangle|*
%AMROUNDEDRECTD28*
21,1,0.04035,0.04543,0,0,0.0*
21,1,0.03067,0.05512,0,0,0.0*
1,1,0.00969,0.01534,-0.02272*
1,1,0.00969,-0.01534,-0.02272*
1,1,0.00969,-0.01534,0.02272*
1,1,0.00969,0.01534,0.02272*
%
%ADD28ROUNDEDRECTD28*%
G04:AMPARAMS|DCode=29|XSize=39.37mil|YSize=57.09mil|CornerRadius=4.92mil|HoleSize=0mil|Usage=FLASHONLY|Rotation=180.000|XOffset=0mil|YOffset=0mil|HoleType=Round|Shape=RoundedRectangle|*
%AMROUNDEDRECTD29*
21,1,0.03937,0.04724,0,0,180.0*
21,1,0.02953,0.05709,0,0,180.0*
1,1,0.00984,-0.01476,0.02362*
1,1,0.00984,0.01476,0.02362*
1,1,0.00984,0.01476,-0.02362*
1,1,0.00984,-0.01476,-0.02362*
%
%ADD29ROUNDEDRECTD29*%
G04:AMPARAMS|DCode=30|XSize=39.37mil|YSize=57.09mil|CornerRadius=4.92mil|HoleSize=0mil|Usage=FLASHONLY|Rotation=270.000|XOffset=0mil|YOffset=0mil|HoleType=Round|Shape=RoundedRectangle|*
%AMROUNDEDRECTD30*
21,1,0.03937,0.04724,0,0,270.0*
21,1,0.02953,0.05709,0,0,270.0*
1,1,0.00984,-0.02362,-0.01476*
1,1,0.00984,-0.02362,0.01476*
1,1,0.00984,0.02362,0.01476*
1,1,0.00984,0.02362,-0.01476*
%
%ADD30ROUNDEDRECTD30*%
%ADD46C,0.03150*%
%ADD47C,0.00591*%
%ADD48C,0.01968*%
%ADD49C,0.00547*%
%ADD50R,0.05906X0.05906*%
%ADD51C,0.05906*%
%ADD52R,0.06693X0.06693*%
G04:AMPARAMS|DCode=53|XSize=66.93mil|YSize=66.93mil|CornerRadius=33.47mil|HoleSize=0mil|Usage=FLASHONLY|Rotation=180.000|XOffset=0mil|YOffset=0mil|HoleType=Round|Shape=RoundedRectangle|*
%AMROUNDEDRECTD53*
21,1,0.06693,0.00000,0,0,180.0*
21,1,0.00000,0.06693,0,0,180.0*
1,1,0.06693,0.00000,0.00000*
1,1,0.06693,0.00000,0.00000*
1,1,0.06693,0.00000,0.00000*
1,1,0.06693,0.00000,0.00000*
%
%ADD53ROUNDEDRECTD53*%
G04:AMPARAMS|DCode=54|XSize=66.93mil|YSize=66.93mil|CornerRadius=33.47mil|HoleSize=0mil|Usage=FLASHONLY|Rotation=270.000|XOffset=0mil|YOffset=0mil|HoleType=Round|Shape=RoundedRectangle|*
%AMROUNDEDRECTD54*
21,1,0.06693,0.00000,0,0,270.0*
21,1,0.00000,0.06693,0,0,270.0*
1,1,0.06693,0.00000,0.00000*
1,1,0.06693,0.00000,0.00000*
1,1,0.06693,0.00000,0.00000*
1,1,0.06693,0.00000,0.00000*
%
%ADD54ROUNDEDRECTD54*%
%ADD55R,0.06693X0.06693*%
%ADD56R,0.05906X0.05906*%
%ADD57C,0.01968*%
%ADD58C,0.02362*%
%ADD59C,0.03150*%
%ADD60C,0.01600*%
%ADD61C,0.01181*%
G36*
X98425Y-98425D02*
X-98425D01*
Y98425D01*
X98425D01*
Y-98425D01*
D02*
G37*
%LPC*%
G36*
X24622Y94375D02*
Y90551D01*
X22622D01*
Y94375D01*
X22096Y94235D01*
X21195Y93714D01*
X20459Y92978D01*
X19982Y92152D01*
X20252Y92170D01*
X20504Y92205D01*
X20732Y92249D01*
X20936Y92303D01*
X21116Y92367D01*
X21273Y92441D01*
X21405Y92525D01*
X21513Y92618D01*
Y88484D01*
X21405Y88578D01*
X21273Y88661D01*
X21116Y88735D01*
X20936Y88799D01*
X20732Y88853D01*
X20504Y88898D01*
X20252Y88932D01*
X19685Y88971D01*
X19118Y88932D01*
X18866Y88898D01*
X18638Y88853D01*
X18434Y88799D01*
X18254Y88735D01*
X18098Y88661D01*
X17965Y88578D01*
X17857Y88484D01*
Y92618D01*
X17965Y92525D01*
X18098Y92441D01*
X18254Y92367D01*
X18434Y92303D01*
X18638Y92249D01*
X18866Y92205D01*
X19118Y92170D01*
X19388Y92152D01*
X18911Y92978D01*
X18175Y93714D01*
X17274Y94235D01*
X16748Y94375D01*
Y90551D01*
X14748D01*
Y94375D01*
X14222Y94235D01*
X13321Y93714D01*
X12585Y92978D01*
X12065Y92077D01*
X11960Y91685D01*
X11442D01*
X11359Y91995D01*
X10867Y92848D01*
X10170Y93544D01*
X9318Y94036D01*
X8366Y94291D01*
X7382D01*
X6430Y94036D01*
X5578Y93544D01*
X4881Y92848D01*
X4389Y91995D01*
X4196Y91275D01*
X3678D01*
X3485Y91995D01*
X2993Y92848D01*
X2296Y93544D01*
X1444Y94036D01*
X492Y94291D01*
X-492D01*
X-1444Y94036D01*
X-2296Y93544D01*
X-2993Y92848D01*
X-3485Y91995D01*
X-3678Y91275D01*
X-4196D01*
X-4389Y91995D01*
X-4881Y92848D01*
X-5578Y93544D01*
X-6431Y94036D01*
X-7382Y94291D01*
X-8366D01*
X-9318Y94036D01*
X-10171Y93544D01*
X-10867Y92848D01*
X-11359Y91995D01*
X-11552Y91275D01*
X-12070D01*
X-12263Y91995D01*
X-12755Y92848D01*
X-13452Y93544D01*
X-14304Y94036D01*
X-15256Y94291D01*
X-16240D01*
X-17192Y94036D01*
X-18045Y93544D01*
X-18741Y92848D01*
X-19233Y91995D01*
X-19316Y91686D01*
X-19834D01*
X-19939Y92077D01*
X-20459Y92978D01*
X-21195Y93714D01*
X-22096Y94235D01*
X-22622Y94375D01*
Y90551D01*
X-24622D01*
Y94375D01*
X-25148Y94235D01*
X-26049Y93714D01*
X-26785Y92978D01*
X-27305Y92077D01*
X-27410Y91686D01*
X-27928D01*
X-28011Y91995D01*
X-28503Y92848D01*
X-29200Y93544D01*
X-30053Y94036D01*
X-31004Y94291D01*
X-31988D01*
X-32940Y94036D01*
X-33793Y93544D01*
X-34489Y92848D01*
X-34981Y91995D01*
X-35174Y91275D01*
X-35692D01*
X-35885Y91995D01*
X-36377Y92848D01*
X-37074Y93544D01*
X-37927Y94036D01*
X-38878Y94291D01*
X-39862D01*
X-40814Y94036D01*
X-41667Y93544D01*
X-42363Y92848D01*
X-42855Y91995D01*
X-42938Y91686D01*
X-43456D01*
X-43561Y92077D01*
X-44081Y92978D01*
X-44817Y93714D01*
X-45718Y94235D01*
X-46244Y94375D01*
Y90551D01*
X-48244D01*
Y94375D01*
X-48770Y94235D01*
X-49671Y93714D01*
X-50407Y92978D01*
X-50928Y92077D01*
X-51032Y91685D01*
X-51550D01*
X-51633Y91995D01*
X-52125Y92848D01*
X-52822Y93544D01*
X-53675Y94036D01*
X-54626Y94291D01*
X-55611D01*
X-56562Y94036D01*
X-57415Y93544D01*
X-58111Y92848D01*
X-58604Y91995D01*
X-58752Y91440D01*
X-59252Y91506D01*
Y94291D01*
X-66732D01*
Y86811D01*
X-63947D01*
X-63881Y86311D01*
X-64436Y86162D01*
X-65289Y85670D01*
X-65985Y84974D01*
X-66478Y84121D01*
X-66732Y83170D01*
Y82185D01*
X-66478Y81234D01*
X-65985Y80381D01*
X-65289Y79684D01*
X-64436Y79192D01*
X-63485Y78937D01*
X-62500D01*
X-61549Y79192D01*
X-61295Y79338D01*
X-60909Y79031D01*
Y71861D01*
X-60909Y71861D01*
X-60826Y71447D01*
X-60592Y71096D01*
X-42209Y52713D01*
X-42209Y52713D01*
X-41858Y52479D01*
X-41445Y52397D01*
X-41444Y52397D01*
X-22566D01*
X-14904Y44735D01*
X-14904Y44735D01*
X-13813Y43644D01*
X-5790Y35621D01*
Y31564D01*
X-6177Y31247D01*
X-6228Y31257D01*
X-7500D01*
Y28211D01*
X-9500D01*
Y31257D01*
X-10772D01*
X-11351Y31142D01*
X-11536Y31019D01*
X-11562Y31058D01*
X-12056Y31388D01*
X-12638Y31504D01*
X-14000D01*
Y28506D01*
X-16000D01*
Y31504D01*
X-17362D01*
X-17745Y31427D01*
X-18245Y31743D01*
Y34385D01*
X-18245Y34385D01*
X-18337Y34846D01*
X-18598Y35237D01*
X-18598Y35237D01*
X-19059Y35698D01*
X-19450Y35959D01*
X-19910Y36051D01*
X-20020Y36533D01*
Y37602D01*
X-20098D01*
X-20250Y38102D01*
X-20081Y38215D01*
X-19799Y38638D01*
X-19699Y39138D01*
Y43862D01*
X-19799Y44361D01*
X-20081Y44785D01*
X-20505Y45068D01*
X-21004Y45167D01*
X-23957D01*
X-24456Y45068D01*
X-24879Y44785D01*
X-25162Y44361D01*
X-25261Y43862D01*
Y39138D01*
X-25162Y38638D01*
X-24879Y38215D01*
X-24710Y38102D01*
X-24862Y37602D01*
X-26319D01*
Y32091D01*
X-20653D01*
Y31122D01*
X-22169D01*
Y28154D01*
X-23169D01*
Y27154D01*
X-26531D01*
Y25242D01*
X-26531Y25186D01*
X-26532Y24685D01*
X-26902Y24438D01*
X-27232Y23944D01*
X-27348Y23362D01*
Y22000D01*
X-24350D01*
X-21352D01*
Y23362D01*
X-21468Y23944D01*
X-21798Y24438D01*
X-22168Y24685D01*
X-22022Y25185D01*
X-20653D01*
Y18743D01*
X-20653Y18743D01*
X-20562Y18282D01*
X-20301Y17891D01*
X-19084Y16675D01*
X-19276Y16213D01*
X-34195D01*
X-69916Y51934D01*
X-70307Y52195D01*
X-70768Y52287D01*
X-70768Y52287D01*
X-79566D01*
X-79757Y52749D01*
X-79684Y52822D01*
X-79192Y53675D01*
X-78937Y54626D01*
Y55611D01*
X-79192Y56562D01*
X-79684Y57415D01*
X-80381Y58111D01*
X-81234Y58604D01*
X-81788Y58752D01*
X-81722Y59252D01*
X-78937D01*
Y66732D01*
X-86417D01*
Y63947D01*
X-86917Y63881D01*
X-87066Y64436D01*
X-87558Y65289D01*
X-88255Y65985D01*
X-89108Y66478D01*
X-90059Y66732D01*
X-91044D01*
X-91995Y66478D01*
X-92848Y65985D01*
X-93544Y65289D01*
X-94036Y64436D01*
X-94291Y63485D01*
Y62500D01*
X-94036Y61549D01*
X-93544Y60696D01*
X-92848Y59999D01*
X-91995Y59507D01*
X-91275Y59314D01*
Y58796D01*
X-91995Y58604D01*
X-92848Y58111D01*
X-93544Y57415D01*
X-94036Y56562D01*
X-94291Y55611D01*
Y54626D01*
X-94036Y53675D01*
X-93544Y52822D01*
X-92848Y52125D01*
X-91995Y51633D01*
X-91275Y51440D01*
Y50922D01*
X-91995Y50729D01*
X-92848Y50237D01*
X-93544Y49541D01*
X-94036Y48688D01*
X-94291Y47736D01*
Y46752D01*
X-94036Y45801D01*
X-93544Y44948D01*
X-92848Y44251D01*
X-91995Y43759D01*
X-91275Y43566D01*
Y43048D01*
X-91995Y42855D01*
X-92848Y42363D01*
X-93544Y41667D01*
X-94036Y40814D01*
X-94291Y39862D01*
Y38878D01*
X-94036Y37927D01*
X-93544Y37074D01*
X-92848Y36377D01*
X-91995Y35885D01*
X-91686Y35802D01*
Y35284D01*
X-92077Y35179D01*
X-92978Y34659D01*
X-93714Y33923D01*
X-94235Y33022D01*
X-94375Y32496D01*
X-90551D01*
Y30496D01*
X-94375D01*
X-94235Y29970D01*
X-93714Y29069D01*
X-92978Y28333D01*
X-92077Y27813D01*
X-91686Y27708D01*
Y27190D01*
X-91995Y27107D01*
X-92848Y26615D01*
X-93544Y25919D01*
X-94036Y25066D01*
X-94291Y24114D01*
Y23130D01*
X-94036Y22178D01*
X-93544Y21326D01*
X-92848Y20629D01*
X-91995Y20137D01*
X-91275Y19944D01*
Y19426D01*
X-91995Y19233D01*
X-92848Y18741D01*
X-93544Y18045D01*
X-94036Y17192D01*
X-94291Y16240D01*
Y15256D01*
X-94036Y14304D01*
X-93544Y13452D01*
X-92848Y12755D01*
X-91995Y12263D01*
X-91275Y12070D01*
Y11552D01*
X-91995Y11359D01*
X-92848Y10867D01*
X-93544Y10171D01*
X-94036Y9318D01*
X-94291Y8366D01*
Y7382D01*
X-94036Y6431D01*
X-93544Y5578D01*
X-92848Y4881D01*
X-91995Y4389D01*
X-91275Y4196D01*
Y3678D01*
X-91995Y3485D01*
X-92848Y2993D01*
X-93544Y2296D01*
X-94036Y1444D01*
X-94291Y492D01*
Y-492D01*
X-94036Y-1444D01*
X-93544Y-2296D01*
X-92848Y-2993D01*
X-91995Y-3485D01*
X-91275Y-3678D01*
Y-4196D01*
X-91995Y-4389D01*
X-92848Y-4881D01*
X-93544Y-5578D01*
X-94036Y-6430D01*
X-94291Y-7382D01*
Y-8366D01*
X-94036Y-9318D01*
X-93544Y-10170D01*
X-92848Y-10867D01*
X-91995Y-11359D01*
X-91685Y-11442D01*
Y-11960D01*
X-92077Y-12065D01*
X-92978Y-12585D01*
X-93714Y-13321D01*
X-94235Y-14222D01*
X-94375Y-14748D01*
X-90551D01*
Y-16748D01*
X-94375D01*
X-94235Y-17274D01*
X-93714Y-18175D01*
X-92978Y-18911D01*
X-92152Y-19388D01*
X-92170Y-19118D01*
X-92205Y-18866D01*
X-92249Y-18638D01*
X-92303Y-18434D01*
X-92367Y-18254D01*
X-92441Y-18098D01*
X-92525Y-17965D01*
X-92618Y-17857D01*
X-88484D01*
X-88578Y-17965D01*
X-88661Y-18098D01*
X-88735Y-18254D01*
X-88799Y-18434D01*
X-88853Y-18638D01*
X-88898Y-18866D01*
X-88932Y-19118D01*
X-88971Y-19685D01*
X-88932Y-20252D01*
X-88898Y-20504D01*
X-88853Y-20732D01*
X-88799Y-20936D01*
X-88735Y-21116D01*
X-88661Y-21273D01*
X-88578Y-21405D01*
X-88484Y-21513D01*
X-92618D01*
X-92525Y-21405D01*
X-92441Y-21273D01*
X-92367Y-21116D01*
X-92303Y-20936D01*
X-92249Y-20732D01*
X-92205Y-20504D01*
X-92170Y-20252D01*
X-92152Y-19982D01*
X-92978Y-20459D01*
X-93714Y-21195D01*
X-94235Y-22096D01*
X-94375Y-22622D01*
X-90551D01*
Y-24622D01*
X-94375D01*
X-94235Y-25148D01*
X-93714Y-26049D01*
X-92978Y-26785D01*
X-92077Y-27305D01*
X-91686Y-27410D01*
Y-27928D01*
X-91995Y-28011D01*
X-92848Y-28503D01*
X-93544Y-29200D01*
X-94036Y-30053D01*
X-94291Y-31004D01*
Y-31988D01*
X-94036Y-32940D01*
X-93544Y-33793D01*
X-92848Y-34489D01*
X-91995Y-34981D01*
X-91275Y-35174D01*
Y-35692D01*
X-91995Y-35885D01*
X-92848Y-36377D01*
X-93544Y-37074D01*
X-94036Y-37927D01*
X-94291Y-38878D01*
Y-39862D01*
X-94036Y-40814D01*
X-93544Y-41667D01*
X-92848Y-42363D01*
X-91995Y-42855D01*
X-91275Y-43048D01*
Y-43566D01*
X-91995Y-43759D01*
X-92848Y-44251D01*
X-93544Y-44948D01*
X-94036Y-45801D01*
X-94291Y-46752D01*
Y-47737D01*
X-94036Y-48688D01*
X-93544Y-49541D01*
X-92848Y-50237D01*
X-91995Y-50730D01*
X-91275Y-50922D01*
Y-51440D01*
X-91995Y-51633D01*
X-92848Y-52125D01*
X-93544Y-52822D01*
X-94036Y-53675D01*
X-94291Y-54626D01*
Y-55611D01*
X-94036Y-56562D01*
X-93544Y-57415D01*
X-92848Y-58111D01*
X-91995Y-58604D01*
X-91275Y-58796D01*
Y-59314D01*
X-91995Y-59507D01*
X-92848Y-59999D01*
X-93544Y-60696D01*
X-94036Y-61549D01*
X-94291Y-62500D01*
Y-63485D01*
X-94036Y-64436D01*
X-93544Y-65289D01*
X-92848Y-65985D01*
X-91995Y-66478D01*
X-91044Y-66732D01*
X-90059D01*
X-89108Y-66478D01*
X-88255Y-65985D01*
X-87558Y-65289D01*
X-87066Y-64436D01*
X-86873Y-63716D01*
X-86355D01*
X-86162Y-64436D01*
X-85670Y-65289D01*
X-84974Y-65985D01*
X-84121Y-66478D01*
X-83170Y-66732D01*
X-82185D01*
X-81234Y-66478D01*
X-80381Y-65985D01*
X-79684Y-65289D01*
X-79192Y-64436D01*
X-78937Y-63485D01*
Y-62500D01*
X-79192Y-61549D01*
X-79684Y-60696D01*
X-80381Y-59999D01*
X-81234Y-59507D01*
X-81954Y-59314D01*
Y-58796D01*
X-81234Y-58604D01*
X-80381Y-58111D01*
X-79684Y-57415D01*
X-79192Y-56562D01*
X-78937Y-55611D01*
Y-54626D01*
X-79192Y-53675D01*
X-79684Y-52822D01*
X-80381Y-52125D01*
X-81234Y-51633D01*
X-81954Y-51440D01*
Y-50922D01*
X-81234Y-50730D01*
X-80381Y-50237D01*
X-79684Y-49541D01*
X-79192Y-48688D01*
X-78937Y-47737D01*
Y-46752D01*
X-79192Y-45801D01*
X-79684Y-44948D01*
X-80381Y-44251D01*
X-81234Y-43759D01*
X-81954Y-43566D01*
Y-43048D01*
X-81234Y-42855D01*
X-80381Y-42363D01*
X-79684Y-41667D01*
X-79192Y-40814D01*
X-78937Y-39862D01*
Y-38878D01*
X-79192Y-37927D01*
X-79684Y-37074D01*
X-80381Y-36377D01*
X-81234Y-35885D01*
X-81954Y-35692D01*
Y-35174D01*
X-81234Y-34981D01*
X-80381Y-34489D01*
X-79684Y-33793D01*
X-79192Y-32940D01*
X-78937Y-31988D01*
Y-31004D01*
X-79192Y-30053D01*
X-79684Y-29200D01*
X-80381Y-28503D01*
X-81234Y-28011D01*
X-81543Y-27928D01*
Y-27410D01*
X-81151Y-27305D01*
X-80250Y-26785D01*
X-79514Y-26049D01*
X-78994Y-25148D01*
X-78853Y-24622D01*
X-82677D01*
Y-22622D01*
X-78853D01*
X-78994Y-22096D01*
X-79514Y-21195D01*
X-80250Y-20459D01*
X-81077Y-19982D01*
X-81058Y-20252D01*
X-81024Y-20504D01*
X-80979Y-20732D01*
X-80925Y-20936D01*
X-80861Y-21116D01*
X-80787Y-21273D01*
X-80704Y-21405D01*
X-80610Y-21513D01*
X-84744D01*
X-84651Y-21405D01*
X-84567Y-21273D01*
X-84493Y-21116D01*
X-84429Y-20936D01*
X-84375Y-20732D01*
X-84331Y-20504D01*
X-84296Y-20252D01*
X-84258Y-19685D01*
X-84296Y-19118D01*
X-84331Y-18866D01*
X-84375Y-18638D01*
X-84429Y-18434D01*
X-84493Y-18254D01*
X-84567Y-18098D01*
X-84651Y-17965D01*
X-84744Y-17857D01*
X-80610D01*
X-80704Y-17965D01*
X-80787Y-18098D01*
X-80861Y-18254D01*
X-80925Y-18434D01*
X-80979Y-18638D01*
X-81024Y-18866D01*
X-81058Y-19118D01*
X-81077Y-19388D01*
X-80250Y-18911D01*
X-79514Y-18175D01*
X-78994Y-17274D01*
X-78853Y-16748D01*
X-82677D01*
Y-14748D01*
X-78853D01*
X-78994Y-14222D01*
X-79514Y-13321D01*
X-80250Y-12585D01*
X-81151Y-12065D01*
X-81543Y-11960D01*
Y-11442D01*
X-81234Y-11359D01*
X-80381Y-10867D01*
X-79684Y-10170D01*
X-79192Y-9318D01*
X-78937Y-8366D01*
Y-8204D01*
X-42061D01*
X-41869Y-8666D01*
X-44851Y-11648D01*
X-45113Y-12039D01*
X-45204Y-12500D01*
X-45204Y-12500D01*
Y-47500D01*
X-45204Y-47500D01*
X-45113Y-47961D01*
X-44851Y-48351D01*
X-34359Y-58844D01*
Y-69345D01*
X-34359Y-69345D01*
X-34267Y-69806D01*
X-34006Y-70197D01*
X-26851Y-77351D01*
X-26461Y-77613D01*
X-26000Y-77704D01*
X-26000Y-77704D01*
X5501D01*
X6463Y-78666D01*
X6447Y-78924D01*
X6348Y-79239D01*
X5578Y-79684D01*
X4881Y-80381D01*
X4389Y-81234D01*
X4196Y-81954D01*
X3678D01*
X3485Y-81234D01*
X2993Y-80381D01*
X2296Y-79684D01*
X1444Y-79192D01*
X492Y-78937D01*
X-492D01*
X-1444Y-79192D01*
X-2296Y-79684D01*
X-2993Y-80381D01*
X-3485Y-81234D01*
X-3678Y-81954D01*
X-4196D01*
X-4389Y-81234D01*
X-4881Y-80381D01*
X-5578Y-79684D01*
X-6431Y-79192D01*
X-7382Y-78937D01*
X-8366D01*
X-9318Y-79192D01*
X-10171Y-79684D01*
X-10867Y-80381D01*
X-11359Y-81234D01*
X-11552Y-81954D01*
X-12070D01*
X-12263Y-81234D01*
X-12755Y-80381D01*
X-13452Y-79684D01*
X-14304Y-79192D01*
X-15256Y-78937D01*
X-16240D01*
X-17192Y-79192D01*
X-18045Y-79684D01*
X-18741Y-80381D01*
X-19233Y-81234D01*
X-19426Y-81954D01*
X-19944D01*
X-20137Y-81234D01*
X-20629Y-80381D01*
X-21326Y-79684D01*
X-22178Y-79192D01*
X-23130Y-78937D01*
X-24114D01*
X-25066Y-79192D01*
X-25919Y-79684D01*
X-26615Y-80381D01*
X-27107Y-81234D01*
X-27300Y-81954D01*
X-27818D01*
X-28011Y-81234D01*
X-28503Y-80381D01*
X-29200Y-79684D01*
X-30053Y-79192D01*
X-31004Y-78937D01*
X-31988D01*
X-32940Y-79192D01*
X-33793Y-79684D01*
X-34489Y-80381D01*
X-34981Y-81234D01*
X-35174Y-81954D01*
X-35692D01*
X-35885Y-81234D01*
X-36377Y-80381D01*
X-37074Y-79684D01*
X-37927Y-79192D01*
X-38878Y-78937D01*
X-39862D01*
X-40814Y-79192D01*
X-41667Y-79684D01*
X-42363Y-80381D01*
X-42855Y-81234D01*
X-43048Y-81954D01*
X-43566D01*
X-43759Y-81234D01*
X-44251Y-80381D01*
X-44948Y-79684D01*
X-45801Y-79192D01*
X-46040Y-79128D01*
Y-73830D01*
X-44972D01*
X-44476Y-73731D01*
X-44056Y-73450D01*
X-43909Y-73230D01*
X-43409Y-73382D01*
Y-73500D01*
X-43362Y-73733D01*
Y-73970D01*
X-43271Y-74189D01*
X-43225Y-74422D01*
X-43093Y-74619D01*
X-43003Y-74838D01*
X-42835Y-75006D01*
X-42703Y-75203D01*
X-42506Y-75335D01*
X-42338Y-75503D01*
X-42119Y-75593D01*
X-41922Y-75725D01*
X-41689Y-75771D01*
X-41470Y-75862D01*
X-41233D01*
X-41000Y-75908D01*
X-40767Y-75862D01*
X-40530D01*
X-40311Y-75771D01*
X-40078Y-75725D01*
X-39881Y-75593D01*
X-39662Y-75503D01*
X-39494Y-75335D01*
X-39297Y-75203D01*
X-39165Y-75006D01*
X-38997Y-74838D01*
X-38907Y-74619D01*
X-38775Y-74422D01*
X-38729Y-74189D01*
X-38638Y-73970D01*
Y-73733D01*
X-38592Y-73500D01*
Y-65660D01*
X-38775Y-64738D01*
X-39297Y-63957D01*
X-41142Y-62112D01*
X-41923Y-61590D01*
X-42845Y-61406D01*
X-44028D01*
X-44056Y-61365D01*
X-44476Y-61084D01*
X-44972Y-60985D01*
X-49516D01*
X-50012Y-61084D01*
X-50432Y-61365D01*
X-50811D01*
X-51232Y-61084D01*
X-51728Y-60985D01*
X-56272D01*
X-56768Y-61084D01*
X-57188Y-61365D01*
X-57469Y-61785D01*
X-57568Y-62282D01*
Y-65348D01*
X-57469Y-65845D01*
X-57188Y-66265D01*
X-56768Y-66546D01*
X-56272Y-66645D01*
X-51728D01*
X-51232Y-66546D01*
X-50811Y-66265D01*
X-50432D01*
X-50012Y-66546D01*
X-49516Y-66645D01*
X-44972D01*
X-44476Y-66546D01*
X-44056Y-66265D01*
X-43604Y-66462D01*
X-43409Y-66658D01*
Y-68618D01*
X-43909Y-68770D01*
X-44056Y-68550D01*
X-44476Y-68269D01*
X-44972Y-68170D01*
X-49516D01*
X-50012Y-68269D01*
X-50279Y-68447D01*
X-50622Y-68513D01*
X-50965Y-68447D01*
X-51232Y-68269D01*
X-51728Y-68170D01*
X-56272D01*
X-56768Y-68269D01*
X-57188Y-68550D01*
X-57469Y-68970D01*
X-57568Y-69467D01*
Y-72534D01*
X-57469Y-73030D01*
X-57188Y-73450D01*
X-56768Y-73731D01*
X-56272Y-73830D01*
X-55204D01*
Y-75500D01*
X-55204Y-75500D01*
X-55113Y-75961D01*
X-54852Y-76351D01*
X-52484Y-78719D01*
Y-79366D01*
X-52984Y-79591D01*
X-53675Y-79192D01*
X-54626Y-78937D01*
X-55611D01*
X-56562Y-79192D01*
X-57415Y-79684D01*
X-58111Y-80381D01*
X-58604Y-81234D01*
X-58752Y-81788D01*
X-59252Y-81722D01*
Y-78937D01*
X-66732D01*
Y-86417D01*
X-63947D01*
X-63881Y-86917D01*
X-64436Y-87066D01*
X-65289Y-87558D01*
X-65985Y-88255D01*
X-66478Y-89108D01*
X-66732Y-90059D01*
Y-91044D01*
X-66478Y-91995D01*
X-65985Y-92848D01*
X-65289Y-93544D01*
X-64436Y-94036D01*
X-63485Y-94291D01*
X-62500D01*
X-61549Y-94036D01*
X-60696Y-93544D01*
X-59999Y-92848D01*
X-59507Y-91995D01*
X-59314Y-91275D01*
X-58796D01*
X-58604Y-91995D01*
X-58111Y-92848D01*
X-57415Y-93544D01*
X-56562Y-94036D01*
X-55611Y-94291D01*
X-54626D01*
X-53675Y-94036D01*
X-52822Y-93544D01*
X-52125Y-92848D01*
X-51633Y-91995D01*
X-51440Y-91275D01*
X-50922D01*
X-50729Y-91995D01*
X-50237Y-92848D01*
X-49541Y-93544D01*
X-48688Y-94036D01*
X-47736Y-94291D01*
X-46752D01*
X-45801Y-94036D01*
X-44948Y-93544D01*
X-44251Y-92848D01*
X-43759Y-91995D01*
X-43566Y-91275D01*
X-43048D01*
X-42855Y-91995D01*
X-42363Y-92848D01*
X-41667Y-93544D01*
X-40814Y-94036D01*
X-39862Y-94291D01*
X-38878D01*
X-37927Y-94036D01*
X-37074Y-93544D01*
X-36377Y-92848D01*
X-35885Y-91995D01*
X-35692Y-91275D01*
X-35174D01*
X-34981Y-91995D01*
X-34489Y-92848D01*
X-33793Y-93544D01*
X-32940Y-94036D01*
X-31988Y-94291D01*
X-31004D01*
X-30053Y-94036D01*
X-29200Y-93544D01*
X-28503Y-92848D01*
X-28011Y-91995D01*
X-27818Y-91275D01*
X-27300D01*
X-27107Y-91995D01*
X-26615Y-92848D01*
X-25919Y-93544D01*
X-25066Y-94036D01*
X-24114Y-94291D01*
X-23130D01*
X-22178Y-94036D01*
X-21326Y-93544D01*
X-20629Y-92848D01*
X-20137Y-91995D01*
X-19944Y-91275D01*
X-19426D01*
X-19233Y-91995D01*
X-18741Y-92848D01*
X-18045Y-93544D01*
X-17192Y-94036D01*
X-16240Y-94291D01*
X-15256D01*
X-14304Y-94036D01*
X-13452Y-93544D01*
X-12755Y-92848D01*
X-12263Y-91995D01*
X-12070Y-91275D01*
X-11552D01*
X-11359Y-91995D01*
X-10867Y-92848D01*
X-10171Y-93544D01*
X-9318Y-94036D01*
X-8366Y-94291D01*
X-7382D01*
X-6431Y-94036D01*
X-5578Y-93544D01*
X-4881Y-92848D01*
X-4389Y-91995D01*
X-4196Y-91275D01*
X-3678D01*
X-3485Y-91995D01*
X-2993Y-92848D01*
X-2296Y-93544D01*
X-1444Y-94036D01*
X-492Y-94291D01*
X492D01*
X1444Y-94036D01*
X2296Y-93544D01*
X2993Y-92848D01*
X3485Y-91995D01*
X3678Y-91275D01*
X4196D01*
X4389Y-91995D01*
X4881Y-92848D01*
X5578Y-93544D01*
X6430Y-94036D01*
X7382Y-94291D01*
X8366D01*
X9318Y-94036D01*
X10170Y-93544D01*
X10867Y-92848D01*
X11359Y-91995D01*
X11442Y-91685D01*
X11960D01*
X12065Y-92077D01*
X12585Y-92978D01*
X13321Y-93714D01*
X14148Y-94191D01*
X14129Y-93921D01*
X14095Y-93669D01*
X14050Y-93441D01*
X13996Y-93237D01*
X13932Y-93057D01*
X13858Y-92901D01*
X13775Y-92768D01*
X13681Y-92660D01*
X14748D01*
Y-90551D01*
X16748D01*
Y-92660D01*
X17815D01*
X17721Y-92768D01*
X17638Y-92901D01*
X17564Y-93057D01*
X17500Y-93237D01*
X17446Y-93441D01*
X17402Y-93669D01*
X17367Y-93921D01*
X17349Y-94191D01*
X18175Y-93714D01*
X18911Y-92978D01*
X19424Y-92089D01*
X19533Y-92063D01*
X19837D01*
X19946Y-92089D01*
X20459Y-92978D01*
X21195Y-93714D01*
X22021Y-94191D01*
X22003Y-93921D01*
X21969Y-93669D01*
X21924Y-93441D01*
X21870Y-93237D01*
X21806Y-93057D01*
X21732Y-92901D01*
X21649Y-92768D01*
X21555Y-92660D01*
X22622D01*
Y-90551D01*
X24622D01*
Y-92660D01*
X25689D01*
X25596Y-92768D01*
X25512Y-92901D01*
X25438Y-93057D01*
X25374Y-93237D01*
X25320Y-93441D01*
X25276Y-93669D01*
X25241Y-93921D01*
X25223Y-94191D01*
X26049Y-93714D01*
X26785Y-92978D01*
X27305Y-92077D01*
X27410Y-91686D01*
X27928D01*
X28011Y-91995D01*
X28503Y-92848D01*
X29200Y-93544D01*
X30053Y-94036D01*
X31004Y-94291D01*
X31988D01*
X32940Y-94036D01*
X33793Y-93544D01*
X34489Y-92848D01*
X34981Y-91995D01*
X35174Y-91275D01*
X35692D01*
X35885Y-91995D01*
X36377Y-92848D01*
X37074Y-93544D01*
X37927Y-94036D01*
X38878Y-94291D01*
X39862D01*
X40814Y-94036D01*
X41667Y-93544D01*
X42363Y-92848D01*
X42855Y-91995D01*
X43048Y-91275D01*
X43566D01*
X43759Y-91995D01*
X44251Y-92848D01*
X44948Y-93544D01*
X45801Y-94036D01*
X46752Y-94291D01*
X47737D01*
X48688Y-94036D01*
X49541Y-93544D01*
X50237Y-92848D01*
X50730Y-91995D01*
X50922Y-91275D01*
X51440D01*
X51633Y-91995D01*
X52125Y-92848D01*
X52822Y-93544D01*
X53675Y-94036D01*
X54626Y-94291D01*
X55611D01*
X56562Y-94036D01*
X57415Y-93544D01*
X58111Y-92848D01*
X58604Y-91995D01*
X58796Y-91275D01*
X59314D01*
X59507Y-91995D01*
X59999Y-92848D01*
X60696Y-93544D01*
X61549Y-94036D01*
X62500Y-94291D01*
X63485D01*
X64436Y-94036D01*
X65289Y-93544D01*
X65985Y-92848D01*
X66478Y-91995D01*
X66732Y-91044D01*
Y-90059D01*
X66478Y-89108D01*
X65985Y-88255D01*
X65289Y-87558D01*
X64436Y-87066D01*
X63716Y-86873D01*
Y-86355D01*
X64436Y-86162D01*
X65289Y-85670D01*
X65985Y-84974D01*
X66478Y-84121D01*
X66732Y-83170D01*
Y-82185D01*
X66478Y-81234D01*
X65985Y-80381D01*
X65289Y-79684D01*
X64436Y-79192D01*
X63485Y-78937D01*
X62500D01*
X61549Y-79192D01*
X60696Y-79684D01*
X60623Y-79757D01*
X60161Y-79566D01*
Y-76457D01*
X60161Y-76457D01*
X60069Y-75996D01*
X59808Y-75605D01*
X54792Y-70589D01*
X54402Y-70328D01*
X53941Y-70237D01*
X53941Y-70237D01*
X40846D01*
X40639Y-69737D01*
X40872Y-69504D01*
X41142Y-68852D01*
Y-68148D01*
X40872Y-67496D01*
X40574Y-67199D01*
Y-43931D01*
X41036Y-43739D01*
X42004Y-44708D01*
Y-52199D01*
X41707Y-52496D01*
X41437Y-53148D01*
Y-53852D01*
X41707Y-54504D01*
X42205Y-55002D01*
X42856Y-55272D01*
X43561D01*
X44212Y-55002D01*
X44711Y-54504D01*
X44980Y-53852D01*
Y-53148D01*
X44711Y-52496D01*
X44413Y-52199D01*
Y-45269D01*
X44875Y-45078D01*
X46087Y-46290D01*
Y-56490D01*
X45789Y-56788D01*
X45520Y-57439D01*
Y-58144D01*
X45789Y-58795D01*
X46288Y-59294D01*
X46939Y-59563D01*
X47644D01*
X48295Y-59294D01*
X48793Y-58795D01*
X49063Y-58144D01*
Y-57439D01*
X48793Y-56788D01*
X48496Y-56490D01*
Y-46852D01*
X48957Y-46661D01*
X66141Y-63844D01*
X66141Y-63844D01*
X66531Y-64105D01*
X66992Y-64196D01*
X79128D01*
X79192Y-64436D01*
X79684Y-65289D01*
X80381Y-65985D01*
X81234Y-66478D01*
X82185Y-66732D01*
X83170D01*
X84121Y-66478D01*
X84974Y-65985D01*
X85670Y-65289D01*
X86162Y-64436D01*
X86355Y-63716D01*
X86873D01*
X87066Y-64436D01*
X87558Y-65289D01*
X88255Y-65985D01*
X89108Y-66478D01*
X90059Y-66732D01*
X91044D01*
X91995Y-66478D01*
X92848Y-65985D01*
X93544Y-65289D01*
X94036Y-64436D01*
X94291Y-63485D01*
Y-62500D01*
X94036Y-61549D01*
X93544Y-60696D01*
X92848Y-59999D01*
X91995Y-59507D01*
X91275Y-59314D01*
Y-58796D01*
X91995Y-58604D01*
X92848Y-58111D01*
X93544Y-57415D01*
X94036Y-56562D01*
X94291Y-55611D01*
Y-54626D01*
X94036Y-53675D01*
X93544Y-52822D01*
X92848Y-52125D01*
X91995Y-51633D01*
X91275Y-51440D01*
Y-50922D01*
X91995Y-50730D01*
X92848Y-50237D01*
X93544Y-49541D01*
X94036Y-48688D01*
X94291Y-47737D01*
Y-46752D01*
X94036Y-45801D01*
X93544Y-44948D01*
X92848Y-44251D01*
X91995Y-43759D01*
X91275Y-43566D01*
Y-43048D01*
X91995Y-42855D01*
X92848Y-42363D01*
X93544Y-41667D01*
X94036Y-40814D01*
X94291Y-39862D01*
Y-38878D01*
X94036Y-37927D01*
X93544Y-37074D01*
X92848Y-36377D01*
X91995Y-35885D01*
X91275Y-35692D01*
Y-35174D01*
X91995Y-34981D01*
X92848Y-34489D01*
X93544Y-33793D01*
X94036Y-32940D01*
X94291Y-31988D01*
Y-31004D01*
X94036Y-30053D01*
X93544Y-29200D01*
X92848Y-28503D01*
X91995Y-28011D01*
X91686Y-27928D01*
Y-27410D01*
X92077Y-27305D01*
X92978Y-26785D01*
X93714Y-26049D01*
X94235Y-25148D01*
X94375Y-24622D01*
X90551D01*
Y-22622D01*
X94375D01*
X94235Y-22096D01*
X93714Y-21195D01*
X92978Y-20459D01*
X92152Y-19982D01*
X92170Y-20252D01*
X92205Y-20504D01*
X92249Y-20732D01*
X92303Y-20936D01*
X92367Y-21116D01*
X92441Y-21273D01*
X92525Y-21405D01*
X92618Y-21513D01*
X88484D01*
X88578Y-21405D01*
X88661Y-21273D01*
X88735Y-21116D01*
X88799Y-20936D01*
X88853Y-20732D01*
X88898Y-20504D01*
X88932Y-20252D01*
X88971Y-19685D01*
X88932Y-19118D01*
X88898Y-18866D01*
X88853Y-18638D01*
X88799Y-18434D01*
X88735Y-18254D01*
X88661Y-18098D01*
X88578Y-17965D01*
X88484Y-17857D01*
X92618D01*
X92525Y-17965D01*
X92441Y-18098D01*
X92367Y-18254D01*
X92303Y-18434D01*
X92249Y-18638D01*
X92205Y-18866D01*
X92170Y-19118D01*
X92152Y-19388D01*
X92978Y-18911D01*
X93714Y-18175D01*
X94235Y-17274D01*
X94375Y-16748D01*
X90551D01*
Y-14748D01*
X94375D01*
X94235Y-14222D01*
X93714Y-13321D01*
X92978Y-12585D01*
X92077Y-12065D01*
X91685Y-11960D01*
Y-11442D01*
X91995Y-11359D01*
X92848Y-10867D01*
X93544Y-10170D01*
X94036Y-9318D01*
X94291Y-8366D01*
Y-7382D01*
X94036Y-6430D01*
X93544Y-5578D01*
X92848Y-4881D01*
X91995Y-4389D01*
X91275Y-4196D01*
Y-3678D01*
X91995Y-3485D01*
X92848Y-2993D01*
X93544Y-2296D01*
X94036Y-1444D01*
X94291Y-492D01*
Y492D01*
X94036Y1444D01*
X93544Y2296D01*
X92848Y2993D01*
X91995Y3485D01*
X91275Y3678D01*
Y4196D01*
X91995Y4389D01*
X92848Y4881D01*
X93544Y5578D01*
X94036Y6431D01*
X94291Y7382D01*
Y8366D01*
X94036Y9318D01*
X93544Y10171D01*
X92848Y10867D01*
X91995Y11359D01*
X91275Y11552D01*
Y12070D01*
X91995Y12263D01*
X92848Y12755D01*
X93544Y13452D01*
X94036Y14304D01*
X94291Y15256D01*
Y16240D01*
X94036Y17192D01*
X93544Y18045D01*
X92848Y18741D01*
X91995Y19233D01*
X91275Y19426D01*
Y19944D01*
X91995Y20137D01*
X92848Y20629D01*
X93544Y21326D01*
X94036Y22178D01*
X94291Y23130D01*
Y24114D01*
X94036Y25066D01*
X93544Y25919D01*
X92848Y26615D01*
X91995Y27107D01*
X91275Y27300D01*
Y27818D01*
X91995Y28011D01*
X92848Y28503D01*
X93544Y29200D01*
X94036Y30053D01*
X94291Y31004D01*
Y31988D01*
X94036Y32940D01*
X93544Y33793D01*
X92848Y34489D01*
X91995Y34981D01*
X91275Y35174D01*
Y35692D01*
X91995Y35885D01*
X92848Y36377D01*
X93544Y37074D01*
X94036Y37927D01*
X94291Y38878D01*
Y39862D01*
X94036Y40814D01*
X93544Y41667D01*
X92848Y42363D01*
X91995Y42855D01*
X91275Y43048D01*
Y43566D01*
X91995Y43759D01*
X92848Y44251D01*
X93544Y44948D01*
X94036Y45801D01*
X94291Y46752D01*
Y47736D01*
X94036Y48688D01*
X93544Y49541D01*
X92848Y50237D01*
X91995Y50729D01*
X91275Y50922D01*
Y51440D01*
X91995Y51633D01*
X92848Y52125D01*
X93544Y52822D01*
X94036Y53675D01*
X94291Y54626D01*
Y55611D01*
X94036Y56562D01*
X93544Y57415D01*
X92848Y58111D01*
X91995Y58604D01*
X91440Y58752D01*
X91506Y59252D01*
X94291D01*
Y66732D01*
X86811D01*
Y63947D01*
X86311Y63881D01*
X86162Y64436D01*
X85670Y65289D01*
X84974Y65985D01*
X84121Y66478D01*
X83170Y66732D01*
X82185D01*
X81234Y66478D01*
X80381Y65985D01*
X79684Y65289D01*
X79192Y64436D01*
X79128Y64196D01*
X16240D01*
X15779Y64105D01*
X15389Y63844D01*
X15389Y63844D01*
X7965Y56420D01*
X7503Y56612D01*
Y58800D01*
X15499Y66796D01*
X58000D01*
X58000Y66796D01*
X58461Y66887D01*
X58851Y67149D01*
X63844Y72141D01*
X63844Y72141D01*
X64105Y72531D01*
X64196Y72992D01*
X64196Y72992D01*
Y79128D01*
X64436Y79192D01*
X65289Y79684D01*
X65985Y80381D01*
X66478Y81234D01*
X66732Y82185D01*
Y83170D01*
X66478Y84121D01*
X65985Y84974D01*
X65289Y85670D01*
X64436Y86162D01*
X63716Y86355D01*
Y86873D01*
X64436Y87066D01*
X65289Y87558D01*
X65985Y88255D01*
X66478Y89108D01*
X66732Y90059D01*
Y91044D01*
X66478Y91995D01*
X65985Y92848D01*
X65289Y93544D01*
X64436Y94036D01*
X63485Y94291D01*
X62500D01*
X61549Y94036D01*
X60696Y93544D01*
X59999Y92848D01*
X59507Y91995D01*
X59314Y91275D01*
X58796D01*
X58604Y91995D01*
X58111Y92848D01*
X57415Y93544D01*
X56562Y94036D01*
X55611Y94291D01*
X54626D01*
X53675Y94036D01*
X52822Y93544D01*
X52125Y92848D01*
X51633Y91995D01*
X51440Y91275D01*
X50922D01*
X50730Y91995D01*
X50237Y92848D01*
X49541Y93544D01*
X48688Y94036D01*
X47737Y94291D01*
X46752D01*
X45801Y94036D01*
X44948Y93544D01*
X44251Y92848D01*
X43759Y91995D01*
X43566Y91275D01*
X43048D01*
X42855Y91995D01*
X42363Y92848D01*
X41667Y93544D01*
X40814Y94036D01*
X39862Y94291D01*
X38878D01*
X37927Y94036D01*
X37074Y93544D01*
X36377Y92848D01*
X35885Y91995D01*
X35692Y91275D01*
X35174D01*
X34981Y91995D01*
X34489Y92848D01*
X33793Y93544D01*
X32940Y94036D01*
X31988Y94291D01*
X31004D01*
X30053Y94036D01*
X29200Y93544D01*
X28503Y92848D01*
X28011Y91995D01*
X27928Y91686D01*
X27410D01*
X27305Y92077D01*
X26785Y92978D01*
X26049Y93714D01*
X25148Y94235D01*
X24622Y94375D01*
D02*
G37*
G36*
X-88388Y94011D02*
X-92287D01*
Y87713D01*
X-88388D01*
Y88000D01*
X-74283D01*
Y93906D01*
X-88388D01*
Y94011D01*
D02*
G37*
G36*
X86614Y90585D02*
X85586Y90450D01*
X84629Y90053D01*
X83806Y89422D01*
X83175Y88600D01*
X82779Y87642D01*
X82643Y86614D01*
X82779Y85586D01*
X83175Y84629D01*
X83806Y83806D01*
X84629Y83175D01*
X85586Y82779D01*
X86614Y82643D01*
X87642Y82779D01*
X88600Y83175D01*
X89422Y83806D01*
X90053Y84629D01*
X90450Y85586D01*
X90585Y86614D01*
X90450Y87642D01*
X90053Y88600D01*
X89422Y89422D01*
X88600Y90053D01*
X87642Y90450D01*
X86614Y90585D01*
D02*
G37*
G36*
X-28484Y45384D02*
X-28960D01*
Y42500D01*
X-26963D01*
Y43862D01*
X-27079Y44444D01*
X-27408Y44938D01*
X-27902Y45268D01*
X-28484Y45384D01*
D02*
G37*
G36*
X-30961D02*
X-31437D01*
X-32019Y45268D01*
X-32513Y44938D01*
X-32842Y44444D01*
X-32958Y43862D01*
Y42500D01*
X-30961D01*
Y45384D01*
D02*
G37*
G36*
X-26963Y40500D02*
X-32958D01*
Y39138D01*
X-32842Y38556D01*
X-32682Y38315D01*
X-32949Y37815D01*
X-35193D01*
Y35847D01*
X-28468D01*
Y37620D01*
X-27902Y37732D01*
X-27408Y38062D01*
X-27079Y38556D01*
X-26963Y39138D01*
Y40500D01*
D02*
G37*
G36*
X-28468Y33847D02*
X-30831D01*
Y31878D01*
X-28468D01*
Y33847D01*
D02*
G37*
G36*
X-32831D02*
X-35193D01*
Y31878D01*
X-32831D01*
Y33847D01*
D02*
G37*
G36*
X-24169Y31122D02*
X-26531D01*
Y29154D01*
X-24169D01*
Y31122D01*
D02*
G37*
G36*
X-28681Y30909D02*
X-34980D01*
Y25398D01*
X-34173D01*
X-33920Y25018D01*
Y24491D01*
X-34229Y24285D01*
X-34512Y23861D01*
X-34612Y23362D01*
Y18638D01*
X-34512Y18139D01*
X-34229Y17715D01*
X-33806Y17433D01*
X-33307Y17333D01*
X-30354D01*
X-29855Y17433D01*
X-29432Y17715D01*
X-29149Y18139D01*
X-29050Y18638D01*
Y23362D01*
X-29149Y23861D01*
X-29432Y24285D01*
X-29855Y24567D01*
X-30136Y24623D01*
X-30228Y24941D01*
X-29894Y25398D01*
X-28681D01*
Y30909D01*
D02*
G37*
G36*
X-21352Y20000D02*
X-23350D01*
Y17116D01*
X-22874D01*
X-22292Y17232D01*
X-21798Y17562D01*
X-21468Y18056D01*
X-21352Y18638D01*
Y20000D01*
D02*
G37*
G36*
X-25350D02*
X-27348D01*
Y18638D01*
X-27232Y18056D01*
X-26902Y17562D01*
X-26409Y17232D01*
X-25827Y17116D01*
X-25350D01*
Y20000D01*
D02*
G37*
G36*
X-72179Y-49737D02*
X-72884D01*
X-73535Y-50007D01*
X-74033Y-50505D01*
X-74303Y-51156D01*
Y-51861D01*
X-74033Y-52512D01*
X-73535Y-53011D01*
X-72884Y-53280D01*
X-72179D01*
X-71528Y-53011D01*
X-71029Y-52512D01*
X-70759Y-51861D01*
Y-51156D01*
X-71029Y-50505D01*
X-71528Y-50007D01*
X-72179Y-49737D01*
D02*
G37*
G36*
X-63148Y-50228D02*
X-63852D01*
X-64504Y-50498D01*
X-65002Y-50996D01*
X-65272Y-51648D01*
Y-52352D01*
X-65002Y-53004D01*
X-64504Y-53502D01*
X-63852Y-53772D01*
X-63148D01*
X-62496Y-53502D01*
X-61998Y-53004D01*
X-61728Y-52352D01*
Y-51648D01*
X-61998Y-50996D01*
X-62496Y-50498D01*
X-63148Y-50228D01*
D02*
G37*
G36*
X55471Y-62228D02*
X54766D01*
X54115Y-62498D01*
X53616Y-62996D01*
X53347Y-63648D01*
Y-64352D01*
X53616Y-65004D01*
X54115Y-65502D01*
X54766Y-65772D01*
X55471D01*
X56122Y-65502D01*
X56620Y-65004D01*
X56890Y-64352D01*
Y-63648D01*
X56620Y-62996D01*
X56122Y-62498D01*
X55471Y-62228D01*
D02*
G37*
G36*
X48352Y-65228D02*
X47648D01*
X46996Y-65498D01*
X46498Y-65996D01*
X46228Y-66648D01*
Y-67352D01*
X46498Y-68004D01*
X46996Y-68502D01*
X47648Y-68772D01*
X48352D01*
X49004Y-68502D01*
X49502Y-68004D01*
X49772Y-67352D01*
Y-66648D01*
X49502Y-65996D01*
X49004Y-65498D01*
X48352Y-65228D01*
D02*
G37*
G36*
X59506Y-68728D02*
X58801D01*
X58150Y-68998D01*
X57652Y-69496D01*
X57382Y-70148D01*
Y-70852D01*
X57652Y-71504D01*
X58150Y-72002D01*
X58801Y-72272D01*
X59506D01*
X60157Y-72002D01*
X60656Y-71504D01*
X60925Y-70852D01*
Y-70148D01*
X60656Y-69496D01*
X60157Y-68998D01*
X59506Y-68728D01*
D02*
G37*
G36*
X69352Y-71228D02*
X68648D01*
X67996Y-71498D01*
X67498Y-71996D01*
X67228Y-72648D01*
Y-73352D01*
X67498Y-74004D01*
X67996Y-74502D01*
X68648Y-74772D01*
X69352D01*
X70004Y-74502D01*
X70502Y-74004D01*
X70772Y-73352D01*
Y-72648D01*
X70502Y-71996D01*
X70004Y-71498D01*
X69352Y-71228D01*
D02*
G37*
G36*
X86614Y-82643D02*
X85586Y-82779D01*
X84629Y-83175D01*
X83806Y-83806D01*
X83175Y-84629D01*
X82779Y-85586D01*
X82643Y-86614D01*
X82779Y-87642D01*
X83175Y-88600D01*
X83806Y-89422D01*
X84629Y-90053D01*
X85586Y-90450D01*
X86614Y-90585D01*
X87642Y-90450D01*
X88600Y-90053D01*
X89422Y-89422D01*
X90053Y-88600D01*
X90450Y-87642D01*
X90585Y-86614D01*
X90450Y-85586D01*
X90053Y-84629D01*
X89422Y-83806D01*
X88600Y-83175D01*
X87642Y-82779D01*
X86614Y-82643D01*
D02*
G37*
G36*
X-86614D02*
X-87642Y-82779D01*
X-88600Y-83175D01*
X-89422Y-83806D01*
X-90053Y-84629D01*
X-90450Y-85586D01*
X-90585Y-86614D01*
X-90450Y-87642D01*
X-90053Y-88600D01*
X-89422Y-89422D01*
X-88600Y-90053D01*
X-87642Y-90450D01*
X-86614Y-90585D01*
X-85586Y-90450D01*
X-84629Y-90053D01*
X-83806Y-89422D01*
X-83175Y-88600D01*
X-82779Y-87642D01*
X-82643Y-86614D01*
X-82779Y-85586D01*
X-83175Y-84629D01*
X-83806Y-83806D01*
X-84629Y-83175D01*
X-85586Y-82779D01*
X-86614Y-82643D01*
D02*
G37*
%LPD*%
G36*
X-55721Y87661D02*
X-56045Y87720D01*
X-56349Y87758D01*
X-56634Y87775D01*
X-56900Y87771D01*
X-57147Y87746D01*
X-57374Y87700D01*
X-57582Y87633D01*
X-57771Y87545D01*
X-57940Y87436D01*
X-58090Y87306D01*
X-58477Y87694D01*
X-58347Y87844D01*
X-58235Y88014D01*
X-58143Y88205D01*
X-58071Y88416D01*
X-58017Y88647D01*
X-57983Y88899D01*
X-57968Y89170D01*
X-57972Y89463D01*
X-57995Y89775D01*
X-58037Y90108D01*
X-55721Y87661D01*
D02*
G37*
G36*
X-30Y87599D02*
X-481Y87596D01*
X-1285Y87550D01*
X-1636Y87506D01*
X-1955Y87448D01*
X-2239Y87377D01*
X-2490Y87291D01*
X-2708Y87191D01*
X-2893Y87078D01*
X-3044Y86951D01*
X-3600Y87508D01*
X-3473Y87659D01*
X-3360Y87843D01*
X-3260Y88061D01*
X-3175Y88312D01*
X-3103Y88597D01*
X-3045Y88915D01*
X-3001Y89266D01*
X-2955Y90070D01*
X-2953Y90522D01*
X-30Y87599D01*
D02*
G37*
G36*
X-7904D02*
X-8355Y87596D01*
X-9159Y87550D01*
X-9510Y87506D01*
X-9828Y87448D01*
X-10113Y87377D01*
X-10364Y87291D01*
X-10582Y87191D01*
X-10767Y87078D01*
X-10918Y86951D01*
X-11474Y87507D01*
X-11347Y87659D01*
X-11234Y87843D01*
X-11134Y88061D01*
X-11049Y88312D01*
X-10977Y88597D01*
X-10919Y88915D01*
X-10875Y89266D01*
X-10829Y90070D01*
X-10827Y90522D01*
X-7904Y87599D01*
D02*
G37*
G36*
X-15778D02*
X-16229Y87596D01*
X-17033Y87550D01*
X-17384Y87506D01*
X-17703Y87448D01*
X-17987Y87377D01*
X-18238Y87291D01*
X-18456Y87191D01*
X-18641Y87078D01*
X-18792Y86951D01*
X-19349Y87507D01*
X-19221Y87659D01*
X-19108Y87843D01*
X-19008Y88061D01*
X-18923Y88312D01*
X-18851Y88597D01*
X-18793Y88915D01*
X-18749Y89266D01*
X-18703Y90070D01*
X-18701Y90522D01*
X-15778Y87599D01*
D02*
G37*
G36*
X-59633Y85649D02*
X-59763Y85498D01*
X-59874Y85324D01*
X-59965Y85126D01*
X-60037Y84905D01*
X-60090Y84661D01*
X-60124Y84393D01*
X-60139Y84101D01*
X-60134Y83787D01*
X-60111Y83449D01*
X-60068Y83087D01*
X-62582Y85601D01*
X-62221Y85559D01*
X-61568Y85531D01*
X-61277Y85545D01*
X-61009Y85579D01*
X-60764Y85632D01*
X-60543Y85704D01*
X-60346Y85796D01*
X-60171Y85906D01*
X-60020Y86036D01*
X-59633Y85649D01*
D02*
G37*
G36*
X25596Y88334D02*
X25512Y88202D01*
X25438Y88045D01*
X25374Y87865D01*
X25320Y87661D01*
X25276Y87433D01*
X25241Y87181D01*
X25202Y86614D01*
X25241Y86047D01*
X25276Y85795D01*
X25320Y85567D01*
X25374Y85363D01*
X25438Y85183D01*
X25512Y85027D01*
X25596Y84894D01*
X25689Y84786D01*
X21555D01*
X21649Y84894D01*
X21732Y85027D01*
X21806Y85183D01*
X21870Y85363D01*
X21924Y85567D01*
X21969Y85795D01*
X22003Y86047D01*
X22042Y86614D01*
X22003Y87181D01*
X21969Y87433D01*
X21924Y87661D01*
X21870Y87865D01*
X21806Y88045D01*
X21732Y88202D01*
X21649Y88334D01*
X21555Y88442D01*
X25689D01*
X25596Y88334D01*
D02*
G37*
G36*
X17721D02*
X17638Y88202D01*
X17564Y88045D01*
X17500Y87865D01*
X17446Y87661D01*
X17402Y87433D01*
X17367Y87181D01*
X17328Y86614D01*
X17367Y86047D01*
X17402Y85795D01*
X17446Y85567D01*
X17500Y85363D01*
X17564Y85183D01*
X17638Y85027D01*
X17721Y84894D01*
X17815Y84786D01*
X13681D01*
X13775Y84894D01*
X13858Y85027D01*
X13932Y85183D01*
X13996Y85363D01*
X14050Y85567D01*
X14095Y85795D01*
X14129Y86047D01*
X14168Y86614D01*
X14129Y87181D01*
X14095Y87433D01*
X14050Y87661D01*
X13996Y87865D01*
X13932Y88045D01*
X13858Y88202D01*
X13775Y88334D01*
X13681Y88442D01*
X17815D01*
X17721Y88334D01*
D02*
G37*
G36*
X-21649D02*
X-21732Y88202D01*
X-21806Y88045D01*
X-21870Y87865D01*
X-21924Y87661D01*
X-21969Y87433D01*
X-22003Y87181D01*
X-22042Y86614D01*
X-22003Y86047D01*
X-21969Y85795D01*
X-21924Y85567D01*
X-21870Y85363D01*
X-21806Y85183D01*
X-21732Y85027D01*
X-21649Y84894D01*
X-21555Y84786D01*
X-25689D01*
X-25596Y84894D01*
X-25512Y85027D01*
X-25438Y85183D01*
X-25374Y85363D01*
X-25320Y85567D01*
X-25276Y85795D01*
X-25241Y86047D01*
X-25202Y86614D01*
X-25241Y87181D01*
X-25276Y87433D01*
X-25320Y87661D01*
X-25374Y87865D01*
X-25438Y88045D01*
X-25512Y88202D01*
X-25596Y88334D01*
X-25689Y88442D01*
X-21555D01*
X-21649Y88334D01*
D02*
G37*
G36*
X-45271D02*
X-45354Y88202D01*
X-45428Y88045D01*
X-45492Y87865D01*
X-45546Y87661D01*
X-45591Y87433D01*
X-45625Y87181D01*
X-45664Y86614D01*
X-45625Y86047D01*
X-45591Y85795D01*
X-45546Y85567D01*
X-45492Y85363D01*
X-45428Y85183D01*
X-45354Y85027D01*
X-45271Y84894D01*
X-45177Y84786D01*
X-49311D01*
X-49218Y84894D01*
X-49134Y85027D01*
X-49060Y85183D01*
X-48996Y85363D01*
X-48942Y85567D01*
X-48898Y85795D01*
X-48863Y86047D01*
X-48824Y86614D01*
X-48863Y87181D01*
X-48898Y87433D01*
X-48942Y87661D01*
X-48996Y87865D01*
X-49060Y88045D01*
X-49134Y88202D01*
X-49218Y88334D01*
X-49311Y88442D01*
X-45177D01*
X-45271Y88334D01*
D02*
G37*
G36*
X21513Y80610D02*
X21405Y80704D01*
X21273Y80787D01*
X21116Y80861D01*
X20936Y80925D01*
X20732Y80979D01*
X20504Y81024D01*
X20252Y81058D01*
X19982Y81077D01*
X20459Y80250D01*
X21195Y79514D01*
X22096Y78994D01*
X22622Y78853D01*
Y82677D01*
X24622D01*
Y78853D01*
X25148Y78994D01*
X26049Y79514D01*
X26785Y80250D01*
X27305Y81151D01*
X27410Y81543D01*
X27928D01*
X28011Y81234D01*
X28503Y80381D01*
X29200Y79684D01*
X30053Y79192D01*
X31004Y78937D01*
X31988D01*
X32940Y79192D01*
X33793Y79684D01*
X34489Y80381D01*
X34981Y81234D01*
X35174Y81954D01*
X35692D01*
X35885Y81234D01*
X36377Y80381D01*
X37074Y79684D01*
X37927Y79192D01*
X38878Y78937D01*
X39862D01*
X40814Y79192D01*
X41667Y79684D01*
X42363Y80381D01*
X42855Y81234D01*
X43048Y81954D01*
X43566D01*
X43759Y81234D01*
X44251Y80381D01*
X44948Y79684D01*
X45801Y79192D01*
X46752Y78937D01*
X47737D01*
X48688Y79192D01*
X49541Y79684D01*
X50237Y80381D01*
X50730Y81234D01*
X50922Y81954D01*
X51440D01*
X51633Y81234D01*
X52125Y80381D01*
X52822Y79684D01*
X53675Y79192D01*
X54626Y78937D01*
X55611D01*
X56562Y79192D01*
X57415Y79684D01*
X58111Y80381D01*
X58604Y81234D01*
X58796Y81954D01*
X59314D01*
X59507Y81234D01*
X59999Y80381D01*
X60696Y79684D01*
X61549Y79192D01*
X61788Y79128D01*
Y73491D01*
X57501Y69204D01*
X15000D01*
X15000Y69204D01*
X14539Y69113D01*
X14149Y68852D01*
X5448Y60151D01*
X5187Y59760D01*
X5095Y59299D01*
X5095Y59299D01*
Y52761D01*
X4633Y52570D01*
X-2634Y59837D01*
Y79366D01*
X-2134Y79591D01*
X-1444Y79192D01*
X-492Y78937D01*
X492D01*
X1444Y79192D01*
X2296Y79684D01*
X2993Y80381D01*
X3485Y81234D01*
X3678Y81954D01*
X4196D01*
X4389Y81234D01*
X4881Y80381D01*
X5578Y79684D01*
X6430Y79192D01*
X7382Y78937D01*
X8366D01*
X9318Y79192D01*
X10170Y79684D01*
X10867Y80381D01*
X11359Y81234D01*
X11442Y81543D01*
X11960D01*
X12065Y81151D01*
X12585Y80250D01*
X13321Y79514D01*
X14222Y78994D01*
X14748Y78853D01*
Y82677D01*
X16748D01*
Y78853D01*
X17274Y78994D01*
X18175Y79514D01*
X18911Y80250D01*
X19388Y81077D01*
X19118Y81058D01*
X18866Y81024D01*
X18638Y80979D01*
X18434Y80925D01*
X18254Y80861D01*
X18098Y80787D01*
X17965Y80704D01*
X17857Y80610D01*
Y84744D01*
X17965Y84651D01*
X18098Y84567D01*
X18254Y84493D01*
X18434Y84429D01*
X18638Y84375D01*
X18866Y84331D01*
X19118Y84296D01*
X19685Y84258D01*
X20252Y84296D01*
X20504Y84331D01*
X20732Y84375D01*
X20936Y84429D01*
X21116Y84493D01*
X21273Y84567D01*
X21405Y84651D01*
X21513Y84744D01*
Y80610D01*
D02*
G37*
G36*
X-57939Y85906D02*
X-57765Y85796D01*
X-57567Y85704D01*
X-57346Y85632D01*
X-57102Y85579D01*
X-56834Y85545D01*
X-56542Y85531D01*
X-56228Y85535D01*
X-55890Y85559D01*
X-55528Y85601D01*
X-58042Y83087D01*
X-58000Y83449D01*
X-57972Y84101D01*
X-57986Y84393D01*
X-58020Y84661D01*
X-58073Y84905D01*
X-58145Y85126D01*
X-58237Y85324D01*
X-58347Y85498D01*
X-58477Y85649D01*
X-58090Y86036D01*
X-57939Y85906D01*
D02*
G37*
G36*
X-22622Y78853D02*
X-22096Y78994D01*
X-21291Y79459D01*
X-20791Y79282D01*
Y62087D01*
X-20791Y62087D01*
X-20699Y61626D01*
X-20438Y61235D01*
X-2779Y43576D01*
Y38506D01*
X-3241Y38314D01*
X-20713Y55787D01*
X-21064Y56021D01*
X-21478Y56103D01*
X-21478Y56103D01*
X-40357D01*
X-57202Y72948D01*
Y79031D01*
X-56815Y79338D01*
X-56562Y79192D01*
X-55611Y78937D01*
X-54626D01*
X-53675Y79192D01*
X-52822Y79684D01*
X-52125Y80381D01*
X-51633Y81234D01*
X-51550Y81543D01*
X-51032D01*
X-50928Y81151D01*
X-50407Y80250D01*
X-49671Y79514D01*
X-48770Y78994D01*
X-48244Y78853D01*
Y82677D01*
X-46244D01*
Y78853D01*
X-45718Y78994D01*
X-44817Y79514D01*
X-44081Y80250D01*
X-43561Y81151D01*
X-43456Y81543D01*
X-42938D01*
X-42855Y81234D01*
X-42363Y80381D01*
X-41667Y79684D01*
X-40814Y79192D01*
X-39862Y78937D01*
X-38878D01*
X-37927Y79192D01*
X-37074Y79684D01*
X-36377Y80381D01*
X-35885Y81234D01*
X-35692Y81954D01*
X-35174D01*
X-34981Y81234D01*
X-34489Y80381D01*
X-33793Y79684D01*
X-32940Y79192D01*
X-31988Y78937D01*
X-31004D01*
X-30053Y79192D01*
X-29200Y79684D01*
X-28503Y80381D01*
X-28011Y81234D01*
X-27928Y81543D01*
X-27410D01*
X-27305Y81151D01*
X-26785Y80250D01*
X-26049Y79514D01*
X-25148Y78994D01*
X-24622Y78853D01*
Y82677D01*
X-22622D01*
Y78853D01*
D02*
G37*
G36*
X-6125Y80247D02*
X-6660Y79647D01*
X-6878Y79367D01*
X-7062Y79101D01*
X-7213Y78849D01*
X-7330Y78611D01*
X-7413Y78386D01*
X-7464Y78176D01*
X-7480Y77979D01*
X-8268Y77979D01*
X-8284Y78176D01*
X-8335Y78386D01*
X-8418Y78611D01*
X-8535Y78849D01*
X-8686Y79101D01*
X-8870Y79367D01*
X-9088Y79647D01*
X-9623Y80247D01*
X-9941Y80568D01*
X-5807Y80569D01*
X-6125Y80247D01*
D02*
G37*
G36*
X-13999D02*
X-14534Y79647D01*
X-14752Y79367D01*
X-14936Y79101D01*
X-15087Y78849D01*
X-15204Y78611D01*
X-15287Y78386D01*
X-15338Y78176D01*
X-15354Y77979D01*
X-16142Y77979D01*
X-16158Y78176D01*
X-16209Y78386D01*
X-16292Y78611D01*
X-16409Y78849D01*
X-16560Y79101D01*
X-16744Y79367D01*
X-16962Y79647D01*
X-17497Y80247D01*
X-17815Y80568D01*
X-13681Y80569D01*
X-13999Y80247D01*
D02*
G37*
G36*
X88724Y60051D02*
X88663Y60096D01*
X88590Y60118D01*
X88507D01*
X88412Y60096D01*
X88306Y60051D01*
X88190Y59985D01*
X88061Y59896D01*
X87922Y59784D01*
X87610Y59495D01*
X87054Y60051D01*
X87209Y60213D01*
X87454Y60502D01*
X87544Y60631D01*
X87610Y60747D01*
X87655Y60853D01*
X87677Y60948D01*
Y61031D01*
X87655Y61104D01*
X87610Y61165D01*
X88724Y60051D01*
D02*
G37*
G36*
X90522Y52166D02*
X90070Y52163D01*
X89266Y52117D01*
X88915Y52073D01*
X88597Y52015D01*
X88312Y51944D01*
X88061Y51858D01*
X87843Y51758D01*
X87659Y51645D01*
X87508Y51518D01*
X86951Y52075D01*
X87078Y52226D01*
X87191Y52410D01*
X87291Y52628D01*
X87377Y52879D01*
X87448Y53164D01*
X87506Y53482D01*
X87550Y53833D01*
X87596Y54637D01*
X87599Y55089D01*
X90522Y52166D01*
D02*
G37*
G36*
X-86951Y50288D02*
X-87078Y50137D01*
X-87191Y49952D01*
X-87291Y49735D01*
X-87377Y49483D01*
X-87448Y49199D01*
X-87506Y48880D01*
X-87550Y48529D01*
X-87596Y47726D01*
X-87599Y47274D01*
X-90522Y50197D01*
X-90070Y50199D01*
X-89266Y50245D01*
X-88915Y50289D01*
X-88597Y50347D01*
X-88312Y50419D01*
X-88061Y50504D01*
X-87843Y50604D01*
X-87659Y50717D01*
X-87508Y50845D01*
X-86951Y50288D01*
D02*
G37*
G36*
X-80247Y48993D02*
X-79647Y48458D01*
X-79367Y48240D01*
X-79101Y48056D01*
X-78849Y47906D01*
X-78611Y47789D01*
X-78386Y47705D01*
X-78176Y47655D01*
X-77979Y47638D01*
X-77979Y46850D01*
X-78176Y46834D01*
X-78386Y46784D01*
X-78611Y46700D01*
X-78849Y46583D01*
X-79101Y46432D01*
X-79367Y46248D01*
X-79647Y46031D01*
X-80247Y45495D01*
X-80568Y45177D01*
X-80569Y49311D01*
X-80247Y48993D01*
D02*
G37*
G36*
X-86951Y42414D02*
X-87078Y42263D01*
X-87191Y42078D01*
X-87291Y41861D01*
X-87377Y41609D01*
X-87448Y41325D01*
X-87506Y41006D01*
X-87550Y40655D01*
X-87596Y39852D01*
X-87599Y39400D01*
X-90522Y42323D01*
X-90070Y42325D01*
X-89266Y42371D01*
X-88915Y42415D01*
X-88597Y42473D01*
X-88312Y42545D01*
X-88061Y42630D01*
X-87843Y42730D01*
X-87659Y42843D01*
X-87508Y42971D01*
X-86951Y42414D01*
D02*
G37*
G36*
X-22457Y38652D02*
X-22524Y38628D01*
X-22583Y38588D01*
X-22634Y38532D01*
X-22677Y38460D01*
X-22713Y38372D01*
X-22740Y38269D01*
X-22760Y38149D01*
X-22772Y38013D01*
X-22775Y37861D01*
X-23563D01*
X-23567Y38013D01*
X-23579Y38149D01*
X-23598Y38269D01*
X-23626Y38372D01*
X-23661Y38460D01*
X-23704Y38532D01*
X-23755Y38588D01*
X-23813Y38628D01*
X-23880Y38652D01*
X-23954Y38660D01*
X-22382Y38660D01*
X-22457Y38652D01*
D02*
G37*
G36*
X-80247Y41119D02*
X-79647Y40584D01*
X-79367Y40366D01*
X-79101Y40182D01*
X-78849Y40032D01*
X-78611Y39915D01*
X-78386Y39831D01*
X-78176Y39781D01*
X-77979Y39764D01*
X-77979Y38976D01*
X-78176Y38960D01*
X-78386Y38910D01*
X-78611Y38826D01*
X-78849Y38709D01*
X-79101Y38558D01*
X-79367Y38374D01*
X-79647Y38157D01*
X-80247Y37621D01*
X-80568Y37303D01*
X-80569Y41437D01*
X-80247Y41119D01*
D02*
G37*
G36*
X-22772Y37439D02*
X-22760Y37303D01*
X-22740Y37183D01*
X-22713Y37079D01*
X-22677Y36991D01*
X-22634Y36919D01*
X-22583Y36863D01*
X-22524Y36823D01*
X-22457Y36799D01*
X-22382Y36791D01*
X-23957D01*
X-23882Y36799D01*
X-23815Y36823D01*
X-23756Y36863D01*
X-23705Y36919D01*
X-23661Y36991D01*
X-23626Y37079D01*
X-23598Y37183D01*
X-23579Y37303D01*
X-23567Y37439D01*
X-23563Y37591D01*
X-22775D01*
X-22772Y37439D01*
D02*
G37*
G36*
X-20823Y35559D02*
X-20799Y35492D01*
X-20759Y35433D01*
X-20703Y35382D01*
X-20631Y35339D01*
X-20543Y35303D01*
X-20439Y35276D01*
X-20319Y35256D01*
X-20184Y35244D01*
X-20032Y35240D01*
Y34453D01*
X-20184Y34449D01*
X-20319Y34437D01*
X-20439Y34418D01*
X-20543Y34390D01*
X-20631Y34354D01*
X-20703Y34311D01*
X-20759Y34260D01*
X-20799Y34201D01*
X-20823Y34134D01*
X-20831Y34059D01*
Y35634D01*
X-20823Y35559D01*
D02*
G37*
G36*
X79591Y49378D02*
X79192Y48688D01*
X78937Y47736D01*
Y46752D01*
X79192Y45801D01*
X79684Y44948D01*
X80381Y44251D01*
X81234Y43759D01*
X81954Y43566D01*
Y43048D01*
X81234Y42855D01*
X80381Y42363D01*
X79684Y41667D01*
X79192Y40814D01*
X78937Y39862D01*
Y38878D01*
X79192Y37927D01*
X79684Y37074D01*
X80381Y36377D01*
X81234Y35885D01*
X81954Y35692D01*
Y35174D01*
X81234Y34981D01*
X80381Y34489D01*
X79684Y33793D01*
X79192Y32940D01*
X79128Y32700D01*
X64722D01*
X64531Y33162D01*
X64931Y33563D01*
X65352D01*
X66004Y33833D01*
X66502Y34331D01*
X66772Y34982D01*
Y35687D01*
X66502Y36338D01*
X66004Y36837D01*
X65352Y37106D01*
X64648D01*
X63996Y36837D01*
X63498Y36338D01*
X63228Y35687D01*
Y35266D01*
X62666Y34704D01*
X27561D01*
X27369Y35166D01*
X42082Y49878D01*
X79366D01*
X79591Y49378D01*
D02*
G37*
G36*
X87659Y27095D02*
X87843Y26982D01*
X88061Y26882D01*
X88312Y26797D01*
X88597Y26725D01*
X88915Y26667D01*
X89266Y26623D01*
X90070Y26577D01*
X90522Y26575D01*
X87599Y23652D01*
X87596Y24104D01*
X87550Y24907D01*
X87506Y25258D01*
X87448Y25577D01*
X87377Y25861D01*
X87291Y26113D01*
X87191Y26330D01*
X87078Y26515D01*
X86951Y26666D01*
X87508Y27223D01*
X87659Y27095D01*
D02*
G37*
G36*
X79616Y57296D02*
X79192Y56562D01*
X78937Y55611D01*
Y54626D01*
X79192Y53675D01*
X79684Y52822D01*
X79757Y52749D01*
X79566Y52287D01*
X41583D01*
X41122Y52195D01*
X40731Y51934D01*
X40731Y51934D01*
X11123Y22326D01*
X10581Y22491D01*
X10561Y22587D01*
X10334Y22927D01*
Y31019D01*
X10648Y31228D01*
X11352D01*
X12004Y31498D01*
X12502Y31996D01*
X12772Y32648D01*
Y33352D01*
X12502Y34004D01*
X12004Y34502D01*
X11352Y34772D01*
X10648D01*
X10334Y34981D01*
Y53182D01*
X14948Y57796D01*
X79422D01*
X79616Y57296D01*
D02*
G37*
G36*
X-11241Y20435D02*
X-11247Y20491D01*
X-11265Y20541D01*
X-11295Y20586D01*
X-11338Y20624D01*
X-11392Y20656D01*
X-11458Y20683D01*
X-11536Y20704D01*
X-11627Y20719D01*
X-11701Y20725D01*
X-11775Y20719D01*
X-11865Y20704D01*
X-11943Y20683D01*
X-12010Y20656D01*
X-12064Y20624D01*
X-12106Y20586D01*
X-12136Y20541D01*
X-12154Y20491D01*
X-12160Y20435D01*
Y21616D01*
X-12154Y21560D01*
X-12136Y21510D01*
X-12106Y21465D01*
X-12064Y21427D01*
X-12010Y21395D01*
X-11943Y21368D01*
X-11865Y21347D01*
X-11775Y21333D01*
X-11701Y21326D01*
X-11627Y21333D01*
X-11536Y21347D01*
X-11458Y21368D01*
X-11392Y21395D01*
X-11338Y21427D01*
X-11295Y21465D01*
X-11265Y21510D01*
X-11247Y21560D01*
X-11241Y21616D01*
Y20435D01*
D02*
G37*
G36*
X-7466Y19017D02*
X-7516Y18999D01*
X-7560Y18968D01*
X-7598Y18926D01*
X-7631Y18872D01*
X-7658Y18806D01*
X-7678Y18727D01*
X-7693Y18637D01*
X-7702Y18535D01*
X-7705Y18420D01*
X-8295D01*
X-8298Y18535D01*
X-8307Y18637D01*
X-8322Y18727D01*
X-8343Y18806D01*
X-8369Y18872D01*
X-8402Y18926D01*
X-8440Y18968D01*
X-8484Y18999D01*
X-8534Y19017D01*
X-8591Y19023D01*
X-7409D01*
X-7466Y19017D01*
D02*
G37*
G36*
X79591Y25756D02*
X79192Y25066D01*
X78937Y24114D01*
Y23130D01*
X79192Y22178D01*
X79684Y21326D01*
X80381Y20629D01*
X81234Y20137D01*
X81954Y19944D01*
Y19426D01*
X81234Y19233D01*
X80381Y18741D01*
X79684Y18045D01*
X79192Y17192D01*
X78937Y16240D01*
Y15256D01*
X79192Y14304D01*
X79684Y13452D01*
X80381Y12755D01*
X81234Y12263D01*
X81954Y12070D01*
Y11552D01*
X81234Y11359D01*
X81019Y11236D01*
X79690Y12564D01*
X79299Y12825D01*
X78839Y12917D01*
X78839Y12917D01*
X73630D01*
X73422Y13417D01*
X73502Y13496D01*
X73772Y14148D01*
Y14852D01*
X73526Y15445D01*
X73632Y15629D01*
X73859Y15848D01*
X74148Y15728D01*
X74852D01*
X75504Y15998D01*
X76002Y16496D01*
X76272Y17148D01*
Y17852D01*
X76002Y18504D01*
X75504Y19002D01*
X74852Y19272D01*
X74148D01*
X73704Y19088D01*
X73204Y19363D01*
Y20849D01*
X73792Y21437D01*
X74213D01*
X74865Y21707D01*
X75363Y22205D01*
X75633Y22856D01*
Y23561D01*
X75363Y24212D01*
X74865Y24710D01*
X74213Y24980D01*
X73509D01*
X72857Y24710D01*
X72359Y24212D01*
X72089Y23561D01*
Y23140D01*
X71149Y22199D01*
X70887Y21808D01*
X70796Y21347D01*
X70796Y21347D01*
Y15801D01*
X70498Y15504D01*
X70228Y14852D01*
Y14148D01*
X70498Y13496D01*
X70578Y13417D01*
X70370Y12917D01*
X67499D01*
X64564Y15852D01*
X64174Y16113D01*
X63713Y16204D01*
X63713Y16204D01*
X51000D01*
X51000Y16204D01*
X50539Y16113D01*
X50148Y15852D01*
X37287Y2990D01*
X37126Y3030D01*
X36972Y3276D01*
X36933Y3593D01*
X37003Y3662D01*
X37093Y3881D01*
X37225Y4078D01*
X37271Y4311D01*
X37362Y4530D01*
Y4767D01*
X37409Y5000D01*
Y14379D01*
X37909Y14586D01*
X37996Y14498D01*
X38648Y14228D01*
X39352D01*
X40004Y14498D01*
X40502Y14996D01*
X40772Y15648D01*
Y16352D01*
X40502Y17004D01*
X40004Y17502D01*
X39352Y17772D01*
X38648D01*
X37996Y17502D01*
X37909Y17414D01*
X37409Y17621D01*
Y23000D01*
X37362Y23233D01*
Y23470D01*
X37271Y23689D01*
X37225Y23922D01*
X37093Y24119D01*
X37003Y24338D01*
X36835Y24506D01*
X36703Y24703D01*
X36506Y24835D01*
X36338Y25003D01*
X36119Y25093D01*
X35922Y25225D01*
X35689Y25271D01*
X35470Y25362D01*
X35233D01*
X35000Y25409D01*
X34767Y25362D01*
X34530D01*
X34311Y25271D01*
X34078Y25225D01*
X33881Y25093D01*
X33662Y25003D01*
X33494Y24835D01*
X33297Y24703D01*
X33165Y24506D01*
X32997Y24338D01*
X32907Y24119D01*
X32775Y23922D01*
X32729Y23689D01*
X32638Y23470D01*
Y23233D01*
X32592Y23000D01*
Y5000D01*
X32638Y4767D01*
Y4530D01*
X32729Y4311D01*
X32775Y4078D01*
X32907Y3881D01*
X32997Y3662D01*
X33165Y3494D01*
X33297Y3297D01*
X33324Y3279D01*
X33172Y2779D01*
X30534D01*
X30469Y2965D01*
X30450Y3279D01*
X30574Y3361D01*
X30793Y3452D01*
X30961Y3620D01*
X31158Y3752D01*
X31289Y3949D01*
X31457Y4117D01*
X31548Y4336D01*
X31680Y4533D01*
X31726Y4766D01*
X31817Y4985D01*
Y5222D01*
X31863Y5455D01*
Y15550D01*
X31817Y15782D01*
Y16020D01*
X31726Y16239D01*
X31680Y16471D01*
X31548Y16669D01*
X31457Y16888D01*
X31289Y17055D01*
X31158Y17253D01*
X30961Y17384D01*
X30793Y17552D01*
X30574Y17643D01*
X30376Y17775D01*
X30144Y17821D01*
X29925Y17912D01*
X29687D01*
X29455Y17958D01*
X29222Y17912D01*
X28985D01*
X28766Y17821D01*
X28533Y17775D01*
X28336Y17643D01*
X28117Y17552D01*
X27949Y17384D01*
X27752Y17253D01*
X27620Y17055D01*
X27452Y16888D01*
X27361Y16669D01*
X27229Y16471D01*
X27183Y16239D01*
X27092Y16020D01*
Y15782D01*
X27046Y15550D01*
Y5455D01*
X27092Y5222D01*
Y4985D01*
X27183Y4766D01*
X27229Y4533D01*
X27361Y4336D01*
X27452Y4117D01*
X27620Y3949D01*
X27752Y3752D01*
X27949Y3620D01*
X28117Y3452D01*
X28336Y3361D01*
X28459Y3279D01*
X28441Y2965D01*
X28376Y2779D01*
X13135D01*
X12944Y3241D01*
X15077Y5374D01*
X15447Y5301D01*
X15946Y4802D01*
X16597Y4533D01*
X17093D01*
X17312Y4205D01*
X17732Y3924D01*
X18228Y3825D01*
X22772D01*
X23268Y3924D01*
X23688Y4205D01*
X23969Y4626D01*
X24068Y5122D01*
Y8189D01*
X23969Y8685D01*
X23688Y9106D01*
X23268Y9387D01*
X22772Y9486D01*
X18228D01*
X17732Y9387D01*
X17704Y9368D01*
X17204Y9635D01*
Y10676D01*
X17551Y10861D01*
X17704Y10898D01*
X18228Y10794D01*
X19500D01*
Y13841D01*
Y16887D01*
X18228D01*
X17704Y16783D01*
X17551Y16820D01*
X17204Y17005D01*
Y19573D01*
X23888Y26256D01*
X79366D01*
X79591Y25756D01*
D02*
G37*
G36*
X-6003Y10269D02*
X-5977Y9820D01*
X-5969Y9781D01*
X-5960Y9752D01*
X-5950Y9734D01*
X-6649D01*
X-6638Y9752D01*
X-6629Y9781D01*
X-6621Y9820D01*
X-6614Y9869D01*
X-6603Y9998D01*
X-6595Y10269D01*
X-6594Y10380D01*
X-6004D01*
X-6003Y10269D01*
D02*
G37*
G36*
X-2891Y10266D02*
X-2869Y9948D01*
X-2859Y9889D01*
X-2848Y9838D01*
X-2834Y9796D01*
X-2819Y9762D01*
X-2802Y9736D01*
X-3506Y9725D01*
X-3493Y9746D01*
X-3482Y9777D01*
X-3472Y9817D01*
X-3463Y9865D01*
X-3450Y9989D01*
X-3442Y10147D01*
X-3439Y10342D01*
X-2892Y10366D01*
X-2891Y10266D01*
D02*
G37*
G36*
X-4435Y10342D02*
X-4434Y10240D01*
X-4411Y9865D01*
X-4402Y9817D01*
X-4392Y9777D01*
X-4381Y9746D01*
X-4368Y9725D01*
X-5072Y9736D01*
X-5055Y9762D01*
X-5040Y9796D01*
X-5026Y9838D01*
X-5015Y9889D01*
X-5005Y9948D01*
X-4990Y10090D01*
X-4983Y10266D01*
X-4982Y10366D01*
X-4435Y10342D01*
D02*
G37*
G36*
X-22449Y12332D02*
X-22341Y12025D01*
X-22366Y11988D01*
X-22401Y11814D01*
X-22469Y11649D01*
Y11472D01*
X-22503Y11297D01*
X-22469Y11123D01*
Y10945D01*
X-22401Y10780D01*
X-22366Y10606D01*
X-22267Y10458D01*
X-22199Y10294D01*
X-22073Y10168D01*
X-21974Y10020D01*
X-21586Y9631D01*
X-21000Y9240D01*
X-20309Y9102D01*
X-18862D01*
X-16150Y6391D01*
X-16341Y5929D01*
X-27530D01*
X-33664Y12063D01*
X-33473Y12525D01*
X-31315D01*
X-30981Y12025D01*
X-31078Y11791D01*
Y11086D01*
X-30809Y10435D01*
X-30310Y9936D01*
X-29659Y9667D01*
X-28954D01*
X-28303Y9936D01*
X-27805Y10435D01*
X-27535Y11086D01*
Y11791D01*
X-27632Y12025D01*
X-27298Y12525D01*
X-22628D01*
X-22449Y12332D01*
D02*
G37*
G36*
X17759Y6900D02*
X17776Y6887D01*
X17845Y6843D01*
X17917Y6804D01*
X17994Y6772D01*
X18075Y6745D01*
X18160Y6725D01*
X18250Y6710D01*
X18344Y6701D01*
X18442Y6698D01*
Y5911D01*
X18344Y5908D01*
X18250Y5899D01*
X18160Y5884D01*
X18075Y5863D01*
X17994Y5837D01*
X17917Y5804D01*
X17845Y5766D01*
X17776Y5722D01*
X17759Y5708D01*
Y5517D01*
X17751Y5592D01*
X17727Y5659D01*
X17716Y5675D01*
X17712Y5672D01*
X17652Y5615D01*
Y5750D01*
X17631Y5769D01*
X17559Y5812D01*
X17471Y5848D01*
X17367Y5875D01*
X17247Y5895D01*
X17111Y5907D01*
X16960Y5911D01*
Y6698D01*
X17111Y6702D01*
X17247Y6714D01*
X17367Y6734D01*
X17471Y6761D01*
X17559Y6797D01*
X17631Y6840D01*
X17652Y6859D01*
Y6993D01*
X17712Y6937D01*
X17716Y6934D01*
X17727Y6950D01*
X17751Y7017D01*
X17759Y7092D01*
Y6900D01*
D02*
G37*
G36*
X-2740Y7445D02*
X-2743Y7431D01*
X-2746Y7411D01*
X-2751Y7349D01*
X-2756Y7147D01*
X-2756Y7093D01*
X-2736Y6721D01*
X-3563D01*
X-3559Y6728D01*
X-3556Y6742D01*
X-3553Y6763D01*
X-3548Y6824D01*
X-3543Y7026D01*
X-3543Y7080D01*
X-3563Y7452D01*
X-2736D01*
X-2740Y7445D01*
D02*
G37*
G36*
X66149Y10861D02*
X66539Y10600D01*
X67000Y10509D01*
X78340D01*
X79316Y9533D01*
X79192Y9318D01*
X78937Y8366D01*
Y7382D01*
X79192Y6431D01*
X79591Y5740D01*
X79366Y5240D01*
X78463D01*
X75222Y8481D01*
X74831Y8743D01*
X74370Y8834D01*
X74370Y8834D01*
X64500D01*
X64039Y8743D01*
X63648Y8481D01*
X63387Y8091D01*
X63387Y8090D01*
X60001Y4704D01*
X58558D01*
X58351Y5204D01*
X58978Y5831D01*
X59550Y6822D01*
X59732Y7500D01*
X55500D01*
X51268D01*
X51450Y6822D01*
X52022Y5831D01*
X52649Y5204D01*
X52442Y4704D01*
X43061D01*
X42869Y5166D01*
X51499Y13796D01*
X63214D01*
X66149Y10861D01*
D02*
G37*
G36*
X4313Y4315D02*
X4306Y4318D01*
X4293Y4321D01*
X4273Y4323D01*
X4213Y4327D01*
X3944Y4331D01*
X3571Y4311D01*
Y5138D01*
X3579Y5134D01*
X3592Y5131D01*
X3613Y5128D01*
X3674Y5123D01*
X3877Y5118D01*
X3929Y5118D01*
X3985Y5118D01*
X4285Y5137D01*
X4293Y5142D01*
X4313Y4315D01*
D02*
G37*
G36*
X90522Y4922D02*
X90070Y4919D01*
X89266Y4873D01*
X88915Y4829D01*
X88597Y4771D01*
X88312Y4700D01*
X88061Y4614D01*
X87843Y4514D01*
X87659Y4401D01*
X87507Y4274D01*
X86951Y4831D01*
X87078Y4981D01*
X87191Y5166D01*
X87291Y5384D01*
X87377Y5635D01*
X87448Y5920D01*
X87506Y6238D01*
X87550Y6589D01*
X87596Y7393D01*
X87599Y7845D01*
X90522Y4922D01*
D02*
G37*
G36*
X3559Y4295D02*
X3556Y4282D01*
X3553Y4261D01*
X3548Y4200D01*
X3543Y3997D01*
X3543Y3930D01*
X2756D01*
X2736Y4303D01*
X3563D01*
X3559Y4295D01*
D02*
G37*
G36*
X-5890D02*
X-5893Y4282D01*
X-5896Y4261D01*
X-5901Y4200D01*
X-5905Y3997D01*
X-5906Y3943D01*
X-5886Y3571D01*
X-6713D01*
X-6709Y3579D01*
X-6706Y3592D01*
X-6702Y3613D01*
X-6698Y3674D01*
X-6693Y3877D01*
X-6693Y3931D01*
X-6713Y4303D01*
X-5886D01*
X-5890Y4295D01*
D02*
G37*
G36*
X-6721Y2736D02*
X-6728Y2740D01*
X-6742Y2743D01*
X-6763Y2746D01*
X-6824Y2751D01*
X-7026Y2756D01*
X-7080Y2756D01*
X-7452Y2736D01*
Y3563D01*
X-7445Y3559D01*
X-7431Y3556D01*
X-7411Y3553D01*
X-7349Y3548D01*
X-7147Y3543D01*
X-7093Y3543D01*
X-6721Y3563D01*
Y2736D01*
D02*
G37*
G36*
X794Y3556D02*
X1301Y3347D01*
X1849D01*
X2292Y3530D01*
X2328Y3494D01*
X2861Y3274D01*
X3347D01*
Y2890D01*
X3556Y2383D01*
X3563Y2377D01*
X3556Y2370D01*
X3346Y1863D01*
Y1315D01*
X3556Y809D01*
X3570Y794D01*
X3556Y781D01*
X3347Y274D01*
Y-274D01*
X3530Y-717D01*
X3530Y-718D01*
X3556Y-781D01*
X3944Y-1168D01*
X3950Y-1171D01*
X3951Y-1159D01*
X4318Y-1146D01*
X4312Y-1321D01*
X4450Y-1378D01*
X4724D01*
Y-1771D01*
X4450D01*
X4293Y-1837D01*
X4288Y-1972D01*
X4280Y-1967D01*
X4265Y-1963D01*
X4244Y-1959D01*
X4216Y-1956D01*
X4093Y-1949D01*
X4024Y-1948D01*
X3944Y-1981D01*
X3556Y-2369D01*
X3530Y-2432D01*
X3530Y-2432D01*
X3347Y-2875D01*
Y-3347D01*
X2875D01*
X2432Y-3530D01*
X2432Y-3530D01*
X2369Y-3556D01*
X1981Y-3944D01*
X1971Y-3969D01*
X1988Y-4303D01*
X1833D01*
X1771Y-4450D01*
Y-4724D01*
X1378D01*
Y-4450D01*
X1317Y-4303D01*
X1161D01*
X1165Y-4295D01*
X1168Y-4282D01*
X1171Y-4261D01*
X1176Y-4200D01*
X1181Y-3997D01*
X1181Y-3974D01*
X1168Y-3944D01*
X781Y-3556D01*
X718Y-3530D01*
X717Y-3530D01*
X274Y-3347D01*
X-274D01*
X-781Y-3556D01*
X-787Y-3563D01*
X-794Y-3556D01*
X-1301Y-3347D01*
X-1849D01*
X-2355Y-3556D01*
X-2362Y-3563D01*
X-2369Y-3556D01*
X-2875Y-3347D01*
X-3347D01*
Y-2875D01*
X-3556Y-2369D01*
X-3563Y-2362D01*
X-3556Y-2355D01*
X-3347Y-1849D01*
Y-1301D01*
X-3556Y-794D01*
X-3563Y-787D01*
X-3556Y-781D01*
X-3347Y-274D01*
Y274D01*
X-3556Y781D01*
X-3563Y787D01*
X-3556Y794D01*
X-3347Y1301D01*
Y1849D01*
X-3556Y2355D01*
X-3563Y2362D01*
X-3556Y2369D01*
X-3347Y2875D01*
Y3347D01*
X-2875D01*
X-2369Y3556D01*
X-2362Y3563D01*
X-2355Y3556D01*
X-1849Y3347D01*
X-1301D01*
X-794Y3556D01*
X-787Y3563D01*
X-781Y3556D01*
X-274Y3347D01*
X274D01*
X781Y3556D01*
X787Y3563D01*
X794Y3556D01*
D02*
G37*
G36*
X65136Y5899D02*
X65228Y5818D01*
Y5148D01*
X65498Y4496D01*
X65996Y3998D01*
X66648Y3728D01*
X67352D01*
X67584Y3824D01*
X68084Y3490D01*
Y3292D01*
X68353Y2641D01*
X68852Y2143D01*
X69503Y1873D01*
X70208D01*
X70797Y2117D01*
X71045Y1973D01*
X71228Y1805D01*
Y1148D01*
X70968Y758D01*
X70411D01*
X69829Y642D01*
X69336Y312D01*
X69006Y-182D01*
X68890Y-764D01*
Y-2126D01*
X71888D01*
Y-4126D01*
X68890D01*
Y-5488D01*
X69006Y-6070D01*
X69159Y-6300D01*
X69142Y-6312D01*
X68861Y-6732D01*
X68762Y-7228D01*
Y-11772D01*
X68861Y-12268D01*
X69142Y-12688D01*
X69142Y-12811D01*
X68861Y-13232D01*
X68763Y-13728D01*
Y-18272D01*
X68861Y-18768D01*
X69141Y-19187D01*
X68861Y-19606D01*
X68763Y-20102D01*
Y-24646D01*
X68861Y-25142D01*
X69142Y-25563D01*
X69184Y-25590D01*
Y-28657D01*
X68750Y-29092D01*
X59634D01*
Y-27366D01*
X51366D01*
Y-34510D01*
X50904Y-34701D01*
X20076Y-3873D01*
X19685Y-3612D01*
X19224Y-3520D01*
X19224Y-3520D01*
X10770D01*
X10687Y-3396D01*
Y-2903D01*
X10770Y-2779D01*
X28076D01*
X37648Y-12352D01*
X37648Y-12352D01*
X38039Y-12613D01*
X38500Y-12704D01*
X51543D01*
X51648Y-13096D01*
X52192Y-14038D01*
X52962Y-14808D01*
X53904Y-15352D01*
X54956Y-15634D01*
X56044D01*
X57096Y-15352D01*
X57446Y-15149D01*
X59149Y-16851D01*
X59539Y-17113D01*
X60000Y-17204D01*
X61577D01*
Y-18272D01*
X61676Y-18768D01*
X61956Y-19187D01*
X61676Y-19606D01*
X61577Y-20102D01*
Y-21170D01*
X59634D01*
Y-20956D01*
X59352Y-19904D01*
X58808Y-18962D01*
X58038Y-18192D01*
X57096Y-17648D01*
X56044Y-17366D01*
X54956D01*
X53904Y-17648D01*
X52962Y-18192D01*
X52192Y-18962D01*
X51648Y-19904D01*
X51366Y-20956D01*
Y-22044D01*
X51648Y-23096D01*
X52192Y-24038D01*
X52962Y-24808D01*
X53904Y-25352D01*
X54956Y-25634D01*
X56044D01*
X57096Y-25352D01*
X58038Y-24808D01*
X58808Y-24038D01*
X59064Y-23595D01*
X59222Y-23578D01*
X61577D01*
Y-24646D01*
X61676Y-25142D01*
X61957Y-25563D01*
X62378Y-25844D01*
X62874Y-25942D01*
X65941D01*
X66437Y-25844D01*
X66858Y-25563D01*
X67139Y-25142D01*
X67238Y-24646D01*
Y-20102D01*
X67139Y-19606D01*
X66859Y-19187D01*
X67139Y-18768D01*
X67238Y-18272D01*
Y-13728D01*
X67139Y-13232D01*
X66858Y-12811D01*
X67063Y-12381D01*
X67139Y-12268D01*
X67238Y-11772D01*
Y-7228D01*
X67139Y-6732D01*
X66865Y-6323D01*
X67089Y-5987D01*
X67189Y-5488D01*
Y-764D01*
X67089Y-265D01*
X66806Y159D01*
X66383Y441D01*
X65884Y541D01*
X62931D01*
X62432Y441D01*
X62009Y159D01*
X61726Y-265D01*
X61720Y-296D01*
X59457D01*
X59352Y96D01*
X58808Y1038D01*
X58050Y1796D01*
X58054Y1904D01*
X58159Y2296D01*
X60500D01*
X60500Y2296D01*
X60961Y2387D01*
X61352Y2648D01*
X64780Y6077D01*
X65136Y5899D01*
D02*
G37*
G36*
X-19184Y2147D02*
X-19251Y2076D01*
X-19311Y2003D01*
X-19364Y1929D01*
X-19410Y1855D01*
X-19448Y1778D01*
X-19480Y1701D01*
X-19504Y1623D01*
X-19521Y1543D01*
X-19531Y1462D01*
X-19534Y1380D01*
X-20508Y2354D01*
X-20426Y2357D01*
X-20345Y2367D01*
X-20265Y2384D01*
X-20187Y2408D01*
X-20109Y2440D01*
X-20033Y2478D01*
X-19958Y2524D01*
X-19885Y2577D01*
X-19812Y2637D01*
X-19741Y2704D01*
X-19184Y2147D01*
D02*
G37*
G36*
X-49907Y1704D02*
X-50114Y1204D01*
X-79128D01*
X-79192Y1444D01*
X-79684Y2296D01*
X-80381Y2993D01*
X-81234Y3485D01*
X-81954Y3678D01*
Y4196D01*
X-81234Y4389D01*
X-80381Y4881D01*
X-79684Y5578D01*
X-79192Y6431D01*
X-79128Y6670D01*
X-54873D01*
X-49907Y1704D01*
D02*
G37*
G36*
X-27810Y-1393D02*
X-28001Y-1855D01*
X-42942D01*
X-53523Y8726D01*
X-53913Y8987D01*
X-54374Y9078D01*
X-54374Y9078D01*
X-79128D01*
X-79192Y9318D01*
X-79684Y10171D01*
X-80381Y10867D01*
X-81234Y11359D01*
X-81954Y11552D01*
Y12070D01*
X-81234Y12263D01*
X-80381Y12755D01*
X-79684Y13452D01*
X-79192Y14304D01*
X-78937Y15256D01*
Y16240D01*
X-79192Y17192D01*
X-79684Y18045D01*
X-80381Y18741D01*
X-81234Y19233D01*
X-81954Y19426D01*
Y19944D01*
X-81234Y20137D01*
X-80381Y20629D01*
X-79684Y21326D01*
X-79192Y22178D01*
X-78937Y23130D01*
Y24114D01*
X-79192Y25066D01*
X-79684Y25919D01*
X-80381Y26615D01*
X-81234Y27107D01*
X-81954Y27300D01*
Y27818D01*
X-81234Y28011D01*
X-80381Y28503D01*
X-79684Y29200D01*
X-79192Y30053D01*
X-79128Y30292D01*
X-59495D01*
X-27810Y-1393D01*
D02*
G37*
G36*
X58743Y-790D02*
X58769Y-857D01*
X58812Y-915D01*
X58873Y-966D01*
X58950Y-1009D01*
X59046Y-1044D01*
X59158Y-1071D01*
X59288Y-1091D01*
X59435Y-1102D01*
X59599Y-1106D01*
Y-1894D01*
X59435Y-1898D01*
X59288Y-1909D01*
X59158Y-1929D01*
X59046Y-1956D01*
X58950Y-1991D01*
X58873Y-2034D01*
X58812Y-2085D01*
X58769Y-2143D01*
X58743Y-2210D01*
X58734Y-2284D01*
Y-716D01*
X58743Y-790D01*
D02*
G37*
G36*
X52266Y-2284D02*
X52257Y-2210D01*
X52231Y-2143D01*
X52188Y-2085D01*
X52127Y-2034D01*
X52050Y-1991D01*
X51954Y-1956D01*
X51842Y-1929D01*
X51712Y-1909D01*
X51565Y-1898D01*
X51401Y-1894D01*
Y-1106D01*
X51565Y-1102D01*
X51712Y-1091D01*
X51842Y-1071D01*
X51954Y-1044D01*
X52050Y-1009D01*
X52127Y-966D01*
X52188Y-915D01*
X52231Y-857D01*
X52257Y-790D01*
X52266Y-716D01*
Y-2284D01*
D02*
G37*
G36*
X62454Y-2287D02*
X62446Y-2213D01*
X62422Y-2146D01*
X62383Y-2087D01*
X62327Y-2035D01*
X62255Y-1992D01*
X62167Y-1957D01*
X62063Y-1929D01*
X61943Y-1909D01*
X61806Y-1898D01*
X61654Y-1894D01*
Y-1106D01*
X61808Y-1102D01*
X61945Y-1091D01*
X62066Y-1071D01*
X62171Y-1044D01*
X62260Y-1008D01*
X62333Y-965D01*
X62390Y-915D01*
X62430Y-856D01*
X62455Y-789D01*
X62463Y-715D01*
X62454Y-2287D01*
D02*
G37*
G36*
X-87596Y-481D02*
X-87550Y-1285D01*
X-87506Y-1636D01*
X-87448Y-1955D01*
X-87377Y-2239D01*
X-87291Y-2490D01*
X-87191Y-2708D01*
X-87078Y-2893D01*
X-86951Y-3044D01*
X-87508Y-3600D01*
X-87659Y-3473D01*
X-87843Y-3360D01*
X-88061Y-3260D01*
X-88312Y-3175D01*
X-88597Y-3103D01*
X-88915Y-3045D01*
X-89266Y-3001D01*
X-90070Y-2955D01*
X-90522Y-2953D01*
X-87599Y-30D01*
X-87596Y-481D01*
D02*
G37*
G36*
X39834Y-5723D02*
X39767Y-5794D01*
X39707Y-5867D01*
X39654Y-5941D01*
X39608Y-6016D01*
X39570Y-6092D01*
X39538Y-6169D01*
X39514Y-6247D01*
X39497Y-6327D01*
X39487Y-6408D01*
X39484Y-6490D01*
X38510Y-5516D01*
X38592Y-5513D01*
X38673Y-5503D01*
X38752Y-5486D01*
X38831Y-5462D01*
X38908Y-5430D01*
X38985Y-5392D01*
X39059Y-5346D01*
X39133Y-5293D01*
X39206Y-5233D01*
X39277Y-5166D01*
X39834Y-5723D01*
D02*
G37*
G36*
X64801Y-5966D02*
X65195D01*
X65120Y-5974D01*
X65053Y-5998D01*
X64994Y-6038D01*
X64943Y-6094D01*
X64900Y-6166D01*
X64864Y-6254D01*
X64837Y-6357D01*
X64836Y-6362D01*
X64837Y-6367D01*
X64864Y-6471D01*
X64900Y-6559D01*
X64943Y-6631D01*
X64994Y-6687D01*
X65053Y-6727D01*
X65120Y-6751D01*
X65195Y-6759D01*
X64801D01*
X64801Y-6765D01*
X64014D01*
X64014Y-6759D01*
X63620D01*
X63695Y-6751D01*
X63762Y-6727D01*
X63821Y-6687D01*
X63872Y-6631D01*
X63915Y-6559D01*
X63951Y-6471D01*
X63978Y-6367D01*
X63979Y-6362D01*
X63978Y-6357D01*
X63951Y-6254D01*
X63915Y-6166D01*
X63872Y-6094D01*
X63821Y-6038D01*
X63762Y-5998D01*
X63695Y-5974D01*
X63620Y-5966D01*
X64014D01*
X64014Y-5959D01*
X64801D01*
X64801Y-5966D01*
D02*
G37*
G36*
X52266Y-12284D02*
X52257Y-12210D01*
X52231Y-12143D01*
X52188Y-12085D01*
X52127Y-12034D01*
X52050Y-11991D01*
X51954Y-11956D01*
X51842Y-11929D01*
X51712Y-11909D01*
X51565Y-11898D01*
X51401Y-11894D01*
Y-11106D01*
X51565Y-11102D01*
X51712Y-11091D01*
X51842Y-11071D01*
X51954Y-11044D01*
X52050Y-11009D01*
X52127Y-10966D01*
X52188Y-10915D01*
X52231Y-10857D01*
X52257Y-10790D01*
X52266Y-10716D01*
Y-12284D01*
D02*
G37*
G36*
X-23038Y-12287D02*
X-23014Y-12354D01*
X-22974Y-12413D01*
X-22918Y-12465D01*
X-22846Y-12508D01*
X-22758Y-12543D01*
X-22654Y-12571D01*
X-22535Y-12591D01*
X-22399Y-12602D01*
X-22247Y-12606D01*
Y-13394D01*
X-22399Y-13398D01*
X-22535Y-13409D01*
X-22654Y-13429D01*
X-22758Y-13457D01*
X-22846Y-13492D01*
X-22918Y-13535D01*
X-22974Y-13587D01*
X-23014Y-13646D01*
X-23038Y-13713D01*
X-23046Y-13787D01*
Y-12213D01*
X-23038Y-12287D01*
D02*
G37*
G36*
X88442Y-17815D02*
X88334Y-17721D01*
X88202Y-17638D01*
X88045Y-17564D01*
X87865Y-17500D01*
X87661Y-17446D01*
X87433Y-17402D01*
X87181Y-17367D01*
X86614Y-17328D01*
X86047Y-17367D01*
X85795Y-17402D01*
X85567Y-17446D01*
X85363Y-17500D01*
X85183Y-17564D01*
X85027Y-17638D01*
X84894Y-17721D01*
X84786Y-17815D01*
Y-13681D01*
X84894Y-13775D01*
X85027Y-13858D01*
X85183Y-13932D01*
X85363Y-13996D01*
X85567Y-14050D01*
X85795Y-14095D01*
X86047Y-14129D01*
X86614Y-14168D01*
X87181Y-14129D01*
X87433Y-14095D01*
X87661Y-14050D01*
X87865Y-13996D01*
X88045Y-13932D01*
X88202Y-13858D01*
X88334Y-13775D01*
X88442Y-13681D01*
Y-17815D01*
D02*
G37*
G36*
X-84786D02*
X-84894Y-17721D01*
X-85027Y-17638D01*
X-85183Y-17564D01*
X-85363Y-17500D01*
X-85567Y-17446D01*
X-85795Y-17402D01*
X-86047Y-17367D01*
X-86614Y-17328D01*
X-87181Y-17367D01*
X-87433Y-17402D01*
X-87661Y-17446D01*
X-87865Y-17500D01*
X-88045Y-17564D01*
X-88202Y-17638D01*
X-88334Y-17721D01*
X-88442Y-17815D01*
Y-13681D01*
X-88334Y-13775D01*
X-88202Y-13858D01*
X-88045Y-13932D01*
X-87865Y-13996D01*
X-87661Y-14050D01*
X-87433Y-14095D01*
X-87181Y-14129D01*
X-86614Y-14168D01*
X-86047Y-14129D01*
X-85795Y-14095D01*
X-85567Y-14050D01*
X-85363Y-13996D01*
X-85183Y-13932D01*
X-85027Y-13858D01*
X-84894Y-13775D01*
X-84786Y-13681D01*
Y-17815D01*
D02*
G37*
G36*
X58295Y-13291D02*
X58266Y-13356D01*
X58255Y-13428D01*
X58262Y-13507D01*
X58287Y-13592D01*
X58330Y-13685D01*
X58390Y-13783D01*
X58468Y-13889D01*
X58564Y-14001D01*
X58677Y-14120D01*
X58120Y-14677D01*
X58001Y-14563D01*
X57889Y-14468D01*
X57783Y-14390D01*
X57685Y-14330D01*
X57592Y-14287D01*
X57507Y-14263D01*
X57428Y-14255D01*
X57356Y-14266D01*
X57291Y-14295D01*
X57233Y-14341D01*
X58341Y-13233D01*
X58295Y-13291D01*
D02*
G37*
G36*
X-24287Y-15848D02*
X-24354Y-15872D01*
X-24413Y-15912D01*
X-24465Y-15968D01*
X-24508Y-16040D01*
X-24543Y-16127D01*
X-24571Y-16231D01*
X-24590Y-16351D01*
X-24602Y-16487D01*
X-24606Y-16639D01*
X-25394D01*
X-25398Y-16487D01*
X-25409Y-16351D01*
X-25429Y-16231D01*
X-25457Y-16127D01*
X-25492Y-16040D01*
X-25535Y-15968D01*
X-25587Y-15912D01*
X-25646Y-15872D01*
X-25713Y-15848D01*
X-25787Y-15840D01*
X-24213D01*
X-24287Y-15848D01*
D02*
G37*
G36*
X62405Y-16787D02*
X62397Y-16713D01*
X62373Y-16646D01*
X62333Y-16587D01*
X62277Y-16535D01*
X62205Y-16492D01*
X62117Y-16457D01*
X62013Y-16429D01*
X61893Y-16409D01*
X61757Y-16398D01*
X61605Y-16394D01*
Y-15606D01*
X61757Y-15602D01*
X61893Y-15590D01*
X62013Y-15571D01*
X62117Y-15543D01*
X62205Y-15508D01*
X62277Y-15465D01*
X62333Y-15413D01*
X62373Y-15354D01*
X62397Y-15287D01*
X62405Y-15213D01*
Y-16787D01*
D02*
G37*
G36*
X-24602Y-17408D02*
X-24590Y-17544D01*
X-24571Y-17664D01*
X-24543Y-17768D01*
X-24508Y-17856D01*
X-24465Y-17928D01*
X-24413Y-17984D01*
X-24354Y-18023D01*
X-24287Y-18047D01*
X-24213Y-18056D01*
X-25787D01*
X-25713Y-18047D01*
X-25646Y-18023D01*
X-25587Y-17984D01*
X-25535Y-17928D01*
X-25492Y-17856D01*
X-25457Y-17768D01*
X-25429Y-17664D01*
X-25409Y-17544D01*
X-25398Y-17408D01*
X-25394Y-17256D01*
X-24606D01*
X-24602Y-17408D01*
D02*
G37*
G36*
X88442Y-25689D02*
X88334Y-25596D01*
X88202Y-25512D01*
X88045Y-25438D01*
X87865Y-25374D01*
X87661Y-25320D01*
X87433Y-25276D01*
X87181Y-25241D01*
X86614Y-25202D01*
X86047Y-25241D01*
X85795Y-25276D01*
X85567Y-25320D01*
X85363Y-25374D01*
X85183Y-25438D01*
X85027Y-25512D01*
X84894Y-25596D01*
X84786Y-25689D01*
Y-21555D01*
X84894Y-21649D01*
X85027Y-21732D01*
X85183Y-21806D01*
X85363Y-21870D01*
X85567Y-21924D01*
X85795Y-21969D01*
X86047Y-22003D01*
X86614Y-22042D01*
X87181Y-22003D01*
X87433Y-21969D01*
X87661Y-21924D01*
X87865Y-21870D01*
X88045Y-21806D01*
X88202Y-21732D01*
X88334Y-21649D01*
X88442Y-21555D01*
Y-25689D01*
D02*
G37*
G36*
X-84786D02*
X-84894Y-25596D01*
X-85027Y-25512D01*
X-85183Y-25438D01*
X-85363Y-25374D01*
X-85567Y-25320D01*
X-85795Y-25276D01*
X-86047Y-25241D01*
X-86614Y-25202D01*
X-87181Y-25241D01*
X-87433Y-25276D01*
X-87661Y-25320D01*
X-87865Y-25374D01*
X-88045Y-25438D01*
X-88202Y-25512D01*
X-88334Y-25596D01*
X-88442Y-25689D01*
Y-21555D01*
X-88334Y-21649D01*
X-88202Y-21732D01*
X-88045Y-21806D01*
X-87865Y-21870D01*
X-87661Y-21924D01*
X-87433Y-21969D01*
X-87181Y-22003D01*
X-86614Y-22042D01*
X-86047Y-22003D01*
X-85795Y-21969D01*
X-85567Y-21924D01*
X-85363Y-21870D01*
X-85183Y-21806D01*
X-85027Y-21732D01*
X-84894Y-21649D01*
X-84786Y-21555D01*
Y-25689D01*
D02*
G37*
G36*
X58817Y-21660D02*
X58824Y-21728D01*
X58851Y-21787D01*
X58898Y-21838D01*
X58964Y-21882D01*
X59050Y-21917D01*
X59155Y-21945D01*
X59281Y-21964D01*
X59426Y-21976D01*
X59591Y-21980D01*
X59387Y-22768D01*
X59216Y-22772D01*
X58921Y-22803D01*
X58797Y-22830D01*
X58689Y-22865D01*
X58596Y-22907D01*
X58519Y-22958D01*
X58458Y-23016D01*
X58412Y-23082D01*
X58382Y-23156D01*
X58830Y-21585D01*
X58817Y-21660D01*
D02*
G37*
G36*
X62405Y-23161D02*
X62397Y-23087D01*
X62373Y-23020D01*
X62333Y-22961D01*
X62277Y-22909D01*
X62205Y-22866D01*
X62117Y-22831D01*
X62013Y-22803D01*
X61893Y-22783D01*
X61757Y-22772D01*
X61605Y-22768D01*
Y-21980D01*
X61757Y-21976D01*
X61893Y-21964D01*
X62013Y-21945D01*
X62117Y-21917D01*
X62205Y-21882D01*
X62277Y-21839D01*
X62333Y-21787D01*
X62373Y-21728D01*
X62397Y-21661D01*
X62405Y-21587D01*
Y-23161D01*
D02*
G37*
G36*
X-20095Y-29287D02*
X-20071Y-29354D01*
X-20031Y-29413D01*
X-19975Y-29465D01*
X-19903Y-29508D01*
X-19815Y-29543D01*
X-19711Y-29571D01*
X-19591Y-29591D01*
X-19455Y-29602D01*
X-19303Y-29606D01*
Y-30394D01*
X-19455Y-30398D01*
X-19591Y-30409D01*
X-19711Y-30429D01*
X-19815Y-30457D01*
X-19903Y-30492D01*
X-19975Y-30535D01*
X-20031Y-30587D01*
X-20071Y-30646D01*
X-20095Y-30713D01*
X-20103Y-30787D01*
Y-29213D01*
X-20095Y-29287D01*
D02*
G37*
G36*
X-24287Y-31953D02*
X-24354Y-31977D01*
X-24413Y-32016D01*
X-24465Y-32072D01*
X-24508Y-32144D01*
X-24543Y-32232D01*
X-24571Y-32336D01*
X-24590Y-32456D01*
X-24602Y-32592D01*
X-24606Y-32744D01*
X-25394D01*
X-25398Y-32592D01*
X-25409Y-32456D01*
X-25429Y-32336D01*
X-25457Y-32232D01*
X-25492Y-32144D01*
X-25535Y-32072D01*
X-25587Y-32016D01*
X-25646Y-31977D01*
X-25713Y-31953D01*
X-25787Y-31945D01*
X-24213D01*
X-24287Y-31953D01*
D02*
G37*
G36*
X-35392Y-10204D02*
X-35478Y-10638D01*
Y-12000D01*
X-32480D01*
Y-13000D01*
X-31480D01*
Y-16884D01*
X-31045D01*
X-30907Y-17032D01*
X-30709Y-17335D01*
Y-22756D01*
X-19291D01*
Y-17244D01*
X-23796D01*
Y-16667D01*
X-23524D01*
X-23024Y-16567D01*
X-22601Y-16285D01*
X-22318Y-15861D01*
X-22219Y-15362D01*
Y-14204D01*
X-13000D01*
X-13000Y-14204D01*
X-12539Y-14113D01*
X-12149Y-13851D01*
X-9540Y-11243D01*
X-9078Y-11435D01*
Y-20875D01*
X-16999Y-28796D01*
X-19291D01*
Y-27244D01*
X-30709D01*
Y-32527D01*
X-30709D01*
X-30849Y-32880D01*
X-31263Y-33116D01*
X-31480D01*
Y-36000D01*
X-29483D01*
Y-34638D01*
X-29598Y-34056D01*
X-29928Y-33562D01*
X-30386Y-33256D01*
X-30391Y-33220D01*
X-30090Y-32756D01*
X-26204D01*
Y-33333D01*
X-26476D01*
X-26976Y-33432D01*
X-27399Y-33715D01*
X-27682Y-34139D01*
X-27781Y-34638D01*
Y-39362D01*
X-27682Y-39862D01*
X-27399Y-40285D01*
X-26976Y-40567D01*
X-26476Y-40667D01*
X-23524D01*
X-23024Y-40567D01*
X-22601Y-40285D01*
X-22318Y-39862D01*
X-22219Y-39362D01*
Y-34638D01*
X-22318Y-34139D01*
X-22601Y-33715D01*
X-23024Y-33432D01*
X-23524Y-33333D01*
X-23796D01*
Y-32756D01*
X-19291D01*
Y-31204D01*
X-16500D01*
X-16500Y-31204D01*
X-16039Y-31113D01*
X-15649Y-30852D01*
X-7965Y-23168D01*
X-7503Y-23360D01*
Y-29800D01*
X-13851Y-36149D01*
X-14113Y-36539D01*
X-14204Y-37000D01*
X-14204Y-37000D01*
Y-59942D01*
X-14704Y-60149D01*
X-15331Y-59522D01*
X-16322Y-58950D01*
X-17000Y-58768D01*
Y-63000D01*
Y-67232D01*
X-16322Y-67050D01*
X-15331Y-66478D01*
X-14966Y-66820D01*
X-15113Y-67039D01*
X-15204Y-67500D01*
X-15204Y-67500D01*
Y-67661D01*
X-15207Y-67687D01*
X-15208Y-67694D01*
X-15502Y-67987D01*
X-15772Y-68638D01*
Y-69343D01*
X-15502Y-69994D01*
X-15004Y-70493D01*
X-14352Y-70763D01*
X-13648D01*
X-12996Y-70493D01*
X-12498Y-69994D01*
X-12228Y-69343D01*
Y-68638D01*
X-12498Y-67987D01*
X-12641Y-67844D01*
X-12149Y-67352D01*
X-12149Y-67352D01*
X-11887Y-66961D01*
X-11796Y-66500D01*
Y-65659D01*
X-11404Y-65554D01*
X-11296Y-65550D01*
X-10538Y-66308D01*
X-9596Y-66852D01*
X-8544Y-67134D01*
X-7456D01*
X-6404Y-66852D01*
X-5462Y-66308D01*
X-4692Y-65538D01*
X-4148Y-64596D01*
X-3866Y-63544D01*
Y-62456D01*
X-4148Y-61404D01*
X-4692Y-60462D01*
X-5462Y-59692D01*
X-6404Y-59148D01*
X-7456Y-58866D01*
X-8544D01*
X-9596Y-59148D01*
X-10538Y-59692D01*
X-11296Y-60450D01*
X-11404Y-60446D01*
X-11796Y-60341D01*
Y-37499D01*
X-5448Y-31151D01*
X-5448Y-31151D01*
X-5187Y-30760D01*
X-5095Y-30299D01*
Y-22261D01*
X-4633Y-22070D01*
X5912Y-32616D01*
X5721Y-33077D01*
X2228D01*
X1732Y-33176D01*
X1642Y-33236D01*
X1188Y-33457D01*
X768Y-33176D01*
X272Y-33078D01*
X-11D01*
X-228Y-32753D01*
Y-32048D01*
X-498Y-31397D01*
X-996Y-30899D01*
X-1648Y-30629D01*
X-2352D01*
X-3004Y-30899D01*
X-3502Y-31397D01*
X-3772Y-32048D01*
Y-32753D01*
X-3989Y-33078D01*
X-4272D01*
X-4768Y-33176D01*
X-5189Y-33457D01*
X-5469Y-33878D01*
X-5568Y-34374D01*
Y-37441D01*
X-5469Y-37937D01*
X-5189Y-38358D01*
X-4768Y-38639D01*
X-4272Y-38738D01*
X272D01*
X768Y-38639D01*
X858Y-38579D01*
X1312Y-38358D01*
X1732Y-38639D01*
X2228Y-38737D01*
X6772D01*
X7268Y-38639D01*
X7688Y-38358D01*
X7970Y-37937D01*
X8068Y-37441D01*
Y-35425D01*
X8530Y-35233D01*
X11077Y-37780D01*
X10899Y-38136D01*
X10818Y-38228D01*
X10148D01*
X9496Y-38498D01*
X8998Y-38996D01*
X8728Y-39648D01*
Y-40352D01*
X8998Y-41004D01*
X9130Y-41136D01*
Y-41666D01*
X8909Y-41888D01*
X8068D01*
Y-41559D01*
X7970Y-41063D01*
X7688Y-40642D01*
X7268Y-40361D01*
X6772Y-40262D01*
X2228D01*
X1732Y-40361D01*
X1642Y-40421D01*
X1188Y-40642D01*
X768Y-40361D01*
X272Y-40263D01*
X-4272D01*
X-4768Y-40361D01*
X-5189Y-40642D01*
X-5469Y-41063D01*
X-5568Y-41559D01*
Y-44626D01*
X-5469Y-45122D01*
X-5189Y-45543D01*
X-4768Y-45824D01*
X-4272Y-45923D01*
X-3204D01*
Y-47500D01*
X-3204Y-47500D01*
X-3113Y-47961D01*
X-2851Y-48351D01*
X-1852Y-49352D01*
X-1852Y-49352D01*
X-1461Y-49613D01*
X-1000Y-49704D01*
X4501D01*
X10796Y-55999D01*
Y-62000D01*
X10796Y-62000D01*
X10887Y-62461D01*
X11148Y-62852D01*
X16693Y-68396D01*
X16410Y-68820D01*
X15970Y-68638D01*
X15030D01*
X14162Y-68997D01*
X13497Y-69662D01*
X13138Y-70530D01*
Y-71470D01*
X13497Y-72338D01*
X14162Y-73003D01*
X15030Y-73362D01*
X15970D01*
X16838Y-73003D01*
X17503Y-72338D01*
X17862Y-71470D01*
Y-70530D01*
X17680Y-70090D01*
X18104Y-69807D01*
X28590Y-80294D01*
X28503Y-80381D01*
X28011Y-81234D01*
X27928Y-81543D01*
X27410D01*
X27305Y-81151D01*
X26785Y-80250D01*
X26049Y-79514D01*
X25148Y-78994D01*
X24622Y-78853D01*
Y-82677D01*
X22622D01*
Y-78853D01*
X22096Y-78994D01*
X21195Y-79514D01*
X20459Y-80250D01*
X19982Y-81077D01*
X20252Y-81058D01*
X20504Y-81024D01*
X20732Y-80979D01*
X20936Y-80925D01*
X21116Y-80861D01*
X21273Y-80787D01*
X21405Y-80704D01*
X21513Y-80610D01*
Y-84744D01*
X21405Y-84651D01*
X21273Y-84567D01*
X21116Y-84493D01*
X20936Y-84429D01*
X20732Y-84375D01*
X20504Y-84331D01*
X20252Y-84296D01*
X19685Y-84258D01*
X19118Y-84296D01*
X18866Y-84331D01*
X18638Y-84375D01*
X18434Y-84429D01*
X18254Y-84493D01*
X18098Y-84567D01*
X17965Y-84651D01*
X17857Y-84744D01*
Y-80610D01*
X17965Y-80704D01*
X18098Y-80787D01*
X18254Y-80861D01*
X18434Y-80925D01*
X18638Y-80979D01*
X18866Y-81024D01*
X19118Y-81058D01*
X19388Y-81077D01*
X18911Y-80250D01*
X18175Y-79514D01*
X17274Y-78994D01*
X16748Y-78853D01*
Y-82677D01*
X14748D01*
Y-78853D01*
X14222Y-78994D01*
X13321Y-79514D01*
X12585Y-80250D01*
X12065Y-81151D01*
X11960Y-81543D01*
X11442D01*
X11359Y-81234D01*
X10867Y-80381D01*
X10170Y-79684D01*
X9318Y-79192D01*
X9078Y-79128D01*
Y-78374D01*
X9078Y-78374D01*
X8987Y-77913D01*
X8781Y-77605D01*
X8921Y-77344D01*
X9088Y-77192D01*
X9605Y-77406D01*
X10310D01*
X10961Y-77136D01*
X11459Y-76637D01*
X11729Y-75986D01*
Y-75281D01*
X11459Y-74630D01*
X10961Y-74132D01*
X10310Y-73862D01*
X9605D01*
X8953Y-74132D01*
X8455Y-74630D01*
X8185Y-75281D01*
Y-75986D01*
X8390Y-76480D01*
X7966Y-76763D01*
X6852Y-75648D01*
X6461Y-75387D01*
X6000Y-75296D01*
X6000Y-75296D01*
X-25501D01*
X-31951Y-68846D01*
Y-58345D01*
X-31951Y-58345D01*
X-32042Y-57884D01*
X-32303Y-57494D01*
X-32303Y-57494D01*
X-42796Y-47001D01*
Y-12999D01*
X-39501Y-9704D01*
X-35683D01*
X-35392Y-10204D01*
D02*
G37*
G36*
X-1367Y-33163D02*
X-1417Y-33228D01*
X-1462Y-33296D01*
X-1500Y-33369D01*
X-1532Y-33446D01*
X-1559Y-33527D01*
X-1563Y-33543D01*
X-1543Y-33617D01*
X-1508Y-33705D01*
X-1465Y-33777D01*
X-1413Y-33833D01*
X-1354Y-33873D01*
X-1287Y-33897D01*
X-1213Y-33905D01*
X-2787D01*
X-2713Y-33897D01*
X-2646Y-33873D01*
X-2587Y-33833D01*
X-2535Y-33777D01*
X-2492Y-33705D01*
X-2457Y-33617D01*
X-2437Y-33543D01*
X-2441Y-33527D01*
X-2468Y-33446D01*
X-2500Y-33369D01*
X-2538Y-33296D01*
X-2583Y-33228D01*
X-2633Y-33163D01*
X-2689Y-33103D01*
X-1311D01*
X-1367Y-33163D01*
D02*
G37*
G36*
X77113Y3184D02*
X77113Y3184D01*
X77504Y2923D01*
X77964Y2831D01*
X77964Y2831D01*
X79566D01*
X79757Y2369D01*
X79684Y2296D01*
X79192Y1444D01*
X78937Y492D01*
Y-492D01*
X79192Y-1444D01*
X79684Y-2296D01*
X80381Y-2993D01*
X81234Y-3485D01*
X81954Y-3678D01*
Y-4196D01*
X81234Y-4389D01*
X80381Y-4881D01*
X79684Y-5578D01*
X79192Y-6430D01*
X78937Y-7382D01*
Y-8366D01*
X79192Y-9318D01*
X79684Y-10170D01*
X80381Y-10867D01*
X81234Y-11359D01*
X81543Y-11442D01*
Y-11960D01*
X81151Y-12065D01*
X80250Y-12585D01*
X79514Y-13321D01*
X78994Y-14222D01*
X78853Y-14748D01*
X82677D01*
Y-16748D01*
X78853D01*
X78994Y-17274D01*
X79514Y-18175D01*
X80250Y-18911D01*
X81139Y-19424D01*
X81165Y-19533D01*
Y-19837D01*
X81139Y-19946D01*
X80250Y-20459D01*
X79514Y-21195D01*
X78994Y-22096D01*
X78853Y-22622D01*
X82677D01*
Y-24622D01*
X78853D01*
X78994Y-25148D01*
X79514Y-26049D01*
X80250Y-26785D01*
X81151Y-27305D01*
X81543Y-27410D01*
Y-27928D01*
X81234Y-28011D01*
X80381Y-28503D01*
X79684Y-29200D01*
X79192Y-30053D01*
X78937Y-31004D01*
Y-31988D01*
X79192Y-32940D01*
X79591Y-33630D01*
X79366Y-34130D01*
X77000D01*
X77000Y-34130D01*
X76539Y-34222D01*
X76148Y-34483D01*
X73336Y-37296D01*
X53499D01*
X52299Y-36096D01*
X52490Y-35634D01*
X59634D01*
Y-33909D01*
X69748D01*
X70669Y-33725D01*
X71451Y-33203D01*
X73296Y-31358D01*
X73818Y-30577D01*
X74001Y-29655D01*
Y-25590D01*
X74043Y-25563D01*
X74324Y-25142D01*
X74423Y-24646D01*
Y-20102D01*
X74324Y-19606D01*
X74044Y-19187D01*
X74324Y-18768D01*
X74423Y-18272D01*
Y-13728D01*
X74324Y-13232D01*
X74043Y-12811D01*
X74260Y-12364D01*
X74324Y-12268D01*
X74423Y-11772D01*
Y-7228D01*
X74324Y-6732D01*
X74282Y-6669D01*
X74440Y-6564D01*
X74770Y-6070D01*
X74791Y-5962D01*
X75148Y-5772D01*
X75852D01*
X76504Y-5502D01*
X77002Y-5004D01*
X77272Y-4352D01*
Y-3648D01*
X77002Y-2996D01*
X76504Y-2498D01*
X75852Y-2228D01*
X75148D01*
X74885Y-2053D01*
Y-764D01*
X74770Y-182D01*
X74440Y312D01*
X74429Y423D01*
X74502Y496D01*
X74772Y1148D01*
Y1852D01*
X74502Y2504D01*
X74004Y3002D01*
X73352Y3272D01*
X72648D01*
X72058Y3028D01*
X71811Y3172D01*
X71627Y3340D01*
Y3997D01*
X71357Y4648D01*
X70859Y5147D01*
X70208Y5416D01*
X69503D01*
X69272Y5321D01*
X68772Y5655D01*
Y5852D01*
X68706Y6010D01*
X68984Y6426D01*
X73871D01*
X77113Y3184D01*
D02*
G37*
G36*
X-24602Y-33513D02*
X-24590Y-33649D01*
X-24571Y-33768D01*
X-24543Y-33873D01*
X-24508Y-33960D01*
X-24465Y-34032D01*
X-24413Y-34088D01*
X-24354Y-34128D01*
X-24287Y-34152D01*
X-24213Y-34160D01*
X-25787D01*
X-25713Y-34152D01*
X-25646Y-34128D01*
X-25587Y-34088D01*
X-25535Y-34032D01*
X-25492Y-33960D01*
X-25457Y-33873D01*
X-25429Y-33768D01*
X-25409Y-33649D01*
X-25398Y-33513D01*
X-25394Y-33361D01*
X-24606D01*
X-24602Y-33513D01*
D02*
G37*
G36*
X90522Y-34449D02*
X90070Y-34451D01*
X89266Y-34497D01*
X88915Y-34541D01*
X88597Y-34599D01*
X88312Y-34671D01*
X88061Y-34756D01*
X87843Y-34856D01*
X87659Y-34969D01*
X87507Y-35096D01*
X86951Y-34540D01*
X87078Y-34389D01*
X87191Y-34204D01*
X87291Y-33986D01*
X87377Y-33735D01*
X87448Y-33450D01*
X87506Y-33132D01*
X87550Y-32781D01*
X87596Y-31977D01*
X87599Y-31526D01*
X90522Y-34449D01*
D02*
G37*
G36*
X1759Y-36695D02*
X1751Y-36620D01*
X1727Y-36553D01*
X1687Y-36494D01*
X1631Y-36443D01*
X1559Y-36400D01*
X1471Y-36364D01*
X1367Y-36337D01*
X1250Y-36318D01*
X1133Y-36337D01*
X1029Y-36364D01*
X941Y-36400D01*
X869Y-36443D01*
X813Y-36494D01*
X773Y-36553D01*
X749Y-36620D01*
X741Y-36695D01*
Y-35120D01*
X749Y-35195D01*
X773Y-35262D01*
X813Y-35321D01*
X869Y-35372D01*
X941Y-35416D01*
X1029Y-35451D01*
X1133Y-35478D01*
X1250Y-35498D01*
X1367Y-35478D01*
X1471Y-35451D01*
X1559Y-35416D01*
X1631Y-35372D01*
X1687Y-35321D01*
X1727Y-35262D01*
X1751Y-35195D01*
X1759Y-35120D01*
Y-36695D01*
D02*
G37*
G36*
X7249Y-42380D02*
X7273Y-42447D01*
X7313Y-42506D01*
X7369Y-42557D01*
X7441Y-42600D01*
X7529Y-42636D01*
X7633Y-42663D01*
X7753Y-42683D01*
X7889Y-42695D01*
X8041Y-42699D01*
Y-43486D01*
X7889Y-43490D01*
X7753Y-43502D01*
X7633Y-43522D01*
X7529Y-43549D01*
X7441Y-43585D01*
X7369Y-43628D01*
X7313Y-43679D01*
X7273Y-43738D01*
X7249Y-43805D01*
X7241Y-43880D01*
Y-42305D01*
X7249Y-42380D01*
D02*
G37*
G36*
X-1287Y-45104D02*
X-1354Y-45128D01*
X-1413Y-45168D01*
X-1465Y-45224D01*
X-1508Y-45296D01*
X-1543Y-45383D01*
X-1571Y-45487D01*
X-1591Y-45607D01*
X-1602Y-45743D01*
X-1606Y-45895D01*
X-2394D01*
X-2398Y-45743D01*
X-2410Y-45607D01*
X-2429Y-45487D01*
X-2457Y-45383D01*
X-2492Y-45296D01*
X-2535Y-45224D01*
X-2587Y-45168D01*
X-2646Y-45128D01*
X-2713Y-45104D01*
X-2787Y-45096D01*
X-1213D01*
X-1287Y-45104D01*
D02*
G37*
G36*
X87659Y-43771D02*
X87843Y-43885D01*
X88061Y-43984D01*
X88312Y-44070D01*
X88597Y-44141D01*
X88915Y-44199D01*
X89266Y-44243D01*
X90070Y-44289D01*
X90522Y-44292D01*
X87599Y-47215D01*
X87596Y-46763D01*
X87550Y-45959D01*
X87506Y-45608D01*
X87448Y-45290D01*
X87377Y-45005D01*
X87291Y-44754D01*
X87191Y-44536D01*
X87078Y-44352D01*
X86951Y-44201D01*
X87508Y-43644D01*
X87659Y-43771D01*
D02*
G37*
G36*
Y-51645D02*
X87843Y-51758D01*
X88061Y-51858D01*
X88312Y-51944D01*
X88597Y-52015D01*
X88915Y-52073D01*
X89266Y-52117D01*
X90070Y-52163D01*
X90522Y-52166D01*
X87599Y-55089D01*
X87596Y-54637D01*
X87550Y-53833D01*
X87506Y-53482D01*
X87448Y-53164D01*
X87377Y-52879D01*
X87291Y-52628D01*
X87191Y-52410D01*
X87078Y-52226D01*
X86951Y-52075D01*
X87508Y-51518D01*
X87659Y-51645D01*
D02*
G37*
G36*
X61073Y-52131D02*
X61073Y-52131D01*
X61463Y-52392D01*
X61924Y-52484D01*
X61924Y-52484D01*
X79366D01*
X79591Y-52984D01*
X79192Y-53675D01*
X78937Y-54626D01*
Y-55611D01*
X79192Y-56562D01*
X79684Y-57415D01*
X80381Y-58111D01*
X81234Y-58604D01*
X81954Y-58796D01*
Y-59314D01*
X81234Y-59507D01*
X80381Y-59999D01*
X79684Y-60696D01*
X79192Y-61549D01*
X79128Y-61788D01*
X67491D01*
X15243Y-9540D01*
X15435Y-9078D01*
X18020D01*
X61073Y-52131D01*
D02*
G37*
G36*
X35731Y-63605D02*
X35740Y-63699D01*
X35755Y-63789D01*
X35776Y-63874D01*
X35802Y-63955D01*
X35835Y-64032D01*
X35873Y-64104D01*
X35917Y-64173D01*
X35968Y-64237D01*
X36024Y-64297D01*
X34646D01*
X34702Y-64237D01*
X34752Y-64173D01*
X34796Y-64104D01*
X34835Y-64032D01*
X34867Y-63955D01*
X34894Y-63874D01*
X34914Y-63789D01*
X34929Y-63699D01*
X34938Y-63605D01*
X34941Y-63507D01*
X35728D01*
X35731Y-63605D01*
D02*
G37*
G36*
X-13604Y-67607D02*
X-13589Y-67797D01*
X-13575Y-67879D01*
X-13557Y-67954D01*
X-13535Y-68020D01*
X-13510Y-68078D01*
X-13480Y-68128D01*
X-13446Y-68170D01*
X-13409Y-68204D01*
X-14591D01*
X-14554Y-68170D01*
X-14520Y-68128D01*
X-14490Y-68078D01*
X-14465Y-68020D01*
X-14443Y-67954D01*
X-14425Y-67879D01*
X-14412Y-67797D01*
X-14402Y-67706D01*
X-14394Y-67500D01*
X-13606D01*
X-13604Y-67607D01*
D02*
G37*
G36*
X4148Y-19851D02*
X4149Y-19851D01*
X4539Y-20113D01*
X5000Y-20204D01*
X9762D01*
X10106Y-20704D01*
X10078Y-20775D01*
X9881Y-20907D01*
X9662Y-20997D01*
X9494Y-21165D01*
X9297Y-21297D01*
X9165Y-21494D01*
X8997Y-21662D01*
X8907Y-21881D01*
X8775Y-22078D01*
X8729Y-22311D01*
X8638Y-22530D01*
Y-22767D01*
X8591Y-23000D01*
X8638Y-23233D01*
Y-23470D01*
X8729Y-23689D01*
X8775Y-23922D01*
X8907Y-24119D01*
X8997Y-24338D01*
X9165Y-24506D01*
X9297Y-24703D01*
X22591Y-37998D01*
Y-60500D01*
X22638Y-60733D01*
Y-60970D01*
X22729Y-61189D01*
X22775Y-61422D01*
X22907Y-61619D01*
X22997Y-61838D01*
X23165Y-62006D01*
X23297Y-62203D01*
X23494Y-62335D01*
X23662Y-62503D01*
X23881Y-62593D01*
X24078Y-62725D01*
X24311Y-62771D01*
X24530Y-62862D01*
X24767D01*
X25000Y-62909D01*
X25233Y-62862D01*
X25470D01*
X25689Y-62771D01*
X25922Y-62725D01*
X26119Y-62593D01*
X26338Y-62503D01*
X26506Y-62335D01*
X26703Y-62203D01*
X26835Y-62006D01*
X27003Y-61838D01*
X27093Y-61619D01*
X27225Y-61422D01*
X27271Y-61189D01*
X27362Y-60970D01*
Y-60733D01*
X27408Y-60500D01*
Y-52887D01*
X27909Y-52787D01*
X27998Y-53004D01*
X28496Y-53502D01*
X29148Y-53772D01*
X29852D01*
X29876Y-53762D01*
X30292Y-54040D01*
Y-66703D01*
X29998Y-66996D01*
X29728Y-67648D01*
Y-68352D01*
X29998Y-69004D01*
X30496Y-69502D01*
X31148Y-69772D01*
X31063Y-70237D01*
X30368D01*
X21704Y-61573D01*
Y-40000D01*
X21704Y-40000D01*
X21613Y-39539D01*
X21351Y-39149D01*
X21351Y-39149D01*
X1204Y-19001D01*
Y-17561D01*
X1666Y-17369D01*
X4148Y-19851D01*
D02*
G37*
G36*
X55529Y-78176D02*
X55579Y-78386D01*
X55663Y-78611D01*
X55780Y-78849D01*
X55930Y-79101D01*
X56114Y-79367D01*
X56332Y-79647D01*
X56867Y-80247D01*
X57185Y-80568D01*
X53051D01*
X53369Y-80247D01*
X53905Y-79647D01*
X54122Y-79367D01*
X54306Y-79101D01*
X54457Y-78849D01*
X54574Y-78611D01*
X54658Y-78386D01*
X54708Y-78176D01*
X54725Y-77979D01*
X55512D01*
X55529Y-78176D01*
D02*
G37*
G36*
X44352Y-79204D02*
X44536Y-79317D01*
X44754Y-79417D01*
X45005Y-79503D01*
X45290Y-79574D01*
X45608Y-79632D01*
X45959Y-79676D01*
X46763Y-79722D01*
X47215Y-79725D01*
X44292Y-82648D01*
X44289Y-82196D01*
X44243Y-81392D01*
X44199Y-81041D01*
X44141Y-80723D01*
X44070Y-80438D01*
X43984Y-80187D01*
X43885Y-79969D01*
X43771Y-79785D01*
X43644Y-79634D01*
X44201Y-79077D01*
X44352Y-79204D01*
D02*
G37*
G36*
X25596Y-84894D02*
X25512Y-85027D01*
X25438Y-85183D01*
X25374Y-85363D01*
X25320Y-85567D01*
X25276Y-85795D01*
X25241Y-86047D01*
X25202Y-86614D01*
X25241Y-87181D01*
X25276Y-87433D01*
X25320Y-87661D01*
X25374Y-87865D01*
X25438Y-88045D01*
X25512Y-88202D01*
X25596Y-88334D01*
X25689Y-88442D01*
X21555D01*
X21649Y-88334D01*
X21732Y-88202D01*
X21806Y-88045D01*
X21870Y-87865D01*
X21924Y-87661D01*
X21969Y-87433D01*
X22003Y-87181D01*
X22042Y-86614D01*
X22003Y-86047D01*
X21969Y-85795D01*
X21924Y-85567D01*
X21870Y-85363D01*
X21806Y-85183D01*
X21732Y-85027D01*
X21649Y-84894D01*
X21555Y-84786D01*
X25689D01*
X25596Y-84894D01*
D02*
G37*
G36*
X17721D02*
X17638Y-85027D01*
X17564Y-85183D01*
X17500Y-85363D01*
X17446Y-85567D01*
X17402Y-85795D01*
X17367Y-86047D01*
X17328Y-86614D01*
X17367Y-87181D01*
X17402Y-87433D01*
X17446Y-87661D01*
X17500Y-87865D01*
X17564Y-88045D01*
X17638Y-88202D01*
X17721Y-88334D01*
X17815Y-88442D01*
X13681D01*
X13775Y-88334D01*
X13858Y-88202D01*
X13932Y-88045D01*
X13996Y-87865D01*
X14050Y-87661D01*
X14095Y-87433D01*
X14129Y-87181D01*
X14168Y-86614D01*
X14129Y-86047D01*
X14095Y-85795D01*
X14050Y-85567D01*
X13996Y-85363D01*
X13932Y-85183D01*
X13858Y-85027D01*
X13775Y-84894D01*
X13681Y-84786D01*
X17815D01*
X17721Y-84894D01*
D02*
G37*
G36*
X58719Y-87508D02*
X58591Y-87659D01*
X58478Y-87843D01*
X58378Y-88061D01*
X58293Y-88312D01*
X58221Y-88597D01*
X58163Y-88915D01*
X58119Y-89266D01*
X58073Y-90070D01*
X58071Y-90522D01*
X55148Y-87599D01*
X55600Y-87596D01*
X56403Y-87550D01*
X56755Y-87506D01*
X57073Y-87448D01*
X57357Y-87377D01*
X57609Y-87291D01*
X57827Y-87191D01*
X58011Y-87078D01*
X58162Y-86951D01*
X58719Y-87508D01*
D02*
G37*
G36*
X50845D02*
X50717Y-87659D01*
X50604Y-87843D01*
X50504Y-88061D01*
X50419Y-88312D01*
X50347Y-88597D01*
X50289Y-88915D01*
X50245Y-89266D01*
X50199Y-90070D01*
X50197Y-90522D01*
X47274Y-87599D01*
X47726Y-87596D01*
X48529Y-87550D01*
X48881Y-87506D01*
X49199Y-87448D01*
X49483Y-87377D01*
X49735Y-87291D01*
X49953Y-87191D01*
X50137Y-87078D01*
X50288Y-86951D01*
X50845Y-87508D01*
D02*
G37*
%LPC*%
G36*
X50686Y75553D02*
X49981D01*
X49330Y75283D01*
X48832Y74785D01*
X48562Y74134D01*
Y73429D01*
X48832Y72778D01*
X49330Y72280D01*
X49981Y72010D01*
X50686D01*
X51337Y72280D01*
X51836Y72778D01*
X52105Y73429D01*
Y74134D01*
X51836Y74785D01*
X51337Y75283D01*
X50686Y75553D01*
D02*
G37*
G36*
X22772Y16887D02*
X21500D01*
Y14841D01*
X24285D01*
Y15374D01*
X24170Y15953D01*
X23842Y16444D01*
X23351Y16772D01*
X22772Y16887D01*
D02*
G37*
G36*
X24285Y12841D02*
X21500D01*
Y10794D01*
X22772D01*
X23351Y10909D01*
X23842Y11237D01*
X24170Y11728D01*
X24285Y12307D01*
Y12841D01*
D02*
G37*
G36*
X56500Y12732D02*
Y9500D01*
X59732D01*
X59550Y10178D01*
X58978Y11169D01*
X58169Y11978D01*
X57178Y12550D01*
X56500Y12732D01*
D02*
G37*
G36*
X54500D02*
X53822Y12550D01*
X52831Y11978D01*
X52022Y11169D01*
X51450Y10178D01*
X51268Y9500D01*
X54500D01*
Y12732D01*
D02*
G37*
G36*
X-66681Y15810D02*
X-67386D01*
X-68037Y15540D01*
X-68535Y15041D01*
X-68805Y14390D01*
Y13686D01*
X-68535Y13034D01*
X-68037Y12536D01*
X-67386Y12266D01*
X-66681D01*
X-66030Y12536D01*
X-65531Y13034D01*
X-65262Y13686D01*
Y14390D01*
X-65531Y15041D01*
X-66030Y15540D01*
X-66681Y15810D01*
D02*
G37*
G36*
X-33480Y-14000D02*
X-35478D01*
Y-15362D01*
X-35362Y-15944D01*
X-35032Y-16438D01*
X-34539Y-16768D01*
X-33957Y-16884D01*
X-33480D01*
Y-14000D01*
D02*
G37*
G36*
Y-33116D02*
X-33957D01*
X-34539Y-33232D01*
X-35032Y-33562D01*
X-35362Y-34056D01*
X-35478Y-34638D01*
Y-36000D01*
X-33480D01*
Y-33116D01*
D02*
G37*
G36*
X-29483Y-38000D02*
X-31480D01*
Y-40884D01*
X-31004D01*
X-30422Y-40768D01*
X-29928Y-40438D01*
X-29598Y-39944D01*
X-29483Y-39362D01*
Y-38000D01*
D02*
G37*
G36*
X-33480D02*
X-35478D01*
Y-39362D01*
X-35362Y-39944D01*
X-35032Y-40438D01*
X-34539Y-40768D01*
X-33957Y-40884D01*
X-33480D01*
Y-38000D01*
D02*
G37*
G36*
X-19648Y-47228D02*
X-20352D01*
X-21004Y-47498D01*
X-21502Y-47996D01*
X-21772Y-48648D01*
Y-49352D01*
X-21502Y-50004D01*
X-21004Y-50502D01*
X-20352Y-50772D01*
X-19648D01*
X-18996Y-50502D01*
X-18498Y-50004D01*
X-18228Y-49352D01*
Y-48648D01*
X-18498Y-47996D01*
X-18996Y-47498D01*
X-19648Y-47228D01*
D02*
G37*
G36*
X-18868Y-51949D02*
X-19573D01*
X-20224Y-52219D01*
X-20722Y-52717D01*
X-20992Y-53368D01*
Y-54073D01*
X-20722Y-54724D01*
X-20224Y-55222D01*
X-19573Y-55492D01*
X-18868D01*
X-18217Y-55222D01*
X-17718Y-54724D01*
X-17449Y-54073D01*
Y-53368D01*
X-17718Y-52717D01*
X-18217Y-52219D01*
X-18868Y-51949D01*
D02*
G37*
G36*
X-648Y-53728D02*
X-1352D01*
X-2004Y-53998D01*
X-2502Y-54496D01*
X-2772Y-55148D01*
Y-55852D01*
X-2502Y-56504D01*
X-2004Y-57002D01*
X-1352Y-57272D01*
X-648D01*
X4Y-57002D01*
X502Y-56504D01*
X772Y-55852D01*
Y-55148D01*
X502Y-54496D01*
X4Y-53998D01*
X-648Y-53728D01*
D02*
G37*
G36*
X-19000Y-58768D02*
X-19678Y-58950D01*
X-20669Y-59522D01*
X-21478Y-60331D01*
X-22050Y-61322D01*
X-22232Y-62000D01*
X-19000D01*
Y-58768D01*
D02*
G37*
G36*
X-25648Y-60728D02*
X-26352D01*
X-27004Y-60998D01*
X-27502Y-61496D01*
X-27772Y-62148D01*
Y-62852D01*
X-27502Y-63504D01*
X-27004Y-64002D01*
X-26352Y-64272D01*
X-25648D01*
X-24996Y-64002D01*
X-24498Y-63504D01*
X-24228Y-62852D01*
Y-62148D01*
X-24498Y-61496D01*
X-24996Y-60998D01*
X-25648Y-60728D01*
D02*
G37*
G36*
X6134Y-58866D02*
X-2134D01*
Y-67134D01*
X6134D01*
Y-58866D01*
D02*
G37*
G36*
X-19000Y-64000D02*
X-22232D01*
X-22050Y-64678D01*
X-21478Y-65669D01*
X-20669Y-66478D01*
X-19678Y-67050D01*
X-19000Y-67232D01*
Y-64000D01*
D02*
G37*
%LPD*%
G36*
X-31436Y26189D02*
X-31503Y26166D01*
X-31562Y26126D01*
X-31613Y26071D01*
X-31656Y26000D01*
X-31692Y25914D01*
X-31715Y25825D01*
X-31707Y25792D01*
X-31681Y25711D01*
X-31648Y25634D01*
X-31610Y25561D01*
X-31566Y25493D01*
X-31515Y25429D01*
X-31459Y25369D01*
X-32148Y24666D01*
X-32122Y24639D01*
X-31755D01*
X-31751Y24487D01*
X-31739Y24351D01*
X-31719Y24231D01*
X-31718Y24227D01*
X-31459Y23963D01*
X-31515Y23903D01*
X-31527Y23888D01*
X-31503Y23872D01*
X-31436Y23848D01*
X-31361Y23840D01*
X-31565D01*
X-31566Y23839D01*
X-31610Y23770D01*
X-31648Y23698D01*
X-31681Y23621D01*
X-31707Y23540D01*
X-31728Y23455D01*
X-31743Y23365D01*
X-31752Y23271D01*
X-31755Y23173D01*
X-32542D01*
X-32545Y23271D01*
X-32554Y23365D01*
X-32568Y23455D01*
X-32589Y23540D01*
X-32616Y23621D01*
X-32648Y23698D01*
X-32687Y23770D01*
X-32731Y23839D01*
X-32732Y23840D01*
X-32936D01*
X-32861Y23848D01*
X-32794Y23872D01*
X-32770Y23888D01*
X-32781Y23903D01*
X-32837Y23963D01*
X-32579Y24227D01*
X-32577Y24231D01*
X-32558Y24351D01*
X-32546Y24487D01*
X-32542Y24639D01*
X-32175D01*
X-32148Y24666D01*
X-32837Y25369D01*
X-32781Y25429D01*
X-32731Y25493D01*
X-32687Y25561D01*
X-32648Y25634D01*
X-32616Y25711D01*
X-32589Y25792D01*
X-32581Y25825D01*
X-32605Y25914D01*
X-32640Y26000D01*
X-32684Y26071D01*
X-32735Y26126D01*
X-32794Y26166D01*
X-32861Y26189D01*
X-32936Y26197D01*
X-31361D01*
X-31436Y26189D01*
D02*
G37*
D12*
X-98425Y98425D02*
X98425D01*
Y-98425D02*
Y98425D01*
X-98425Y-98425D02*
X98425D01*
X-98425D02*
Y98425D01*
D13*
X14449Y59000D02*
X86559D01*
X9130Y53681D02*
X14449Y59000D01*
X7850Y54602D02*
X16240Y62992D01*
X82677D01*
X6299Y59299D02*
X15000Y68000D01*
X-3839Y59339D02*
Y86713D01*
X-7874Y59374D02*
X3150Y48350D01*
Y9449D02*
Y48350D01*
X-3839Y86713D02*
X0Y90551D01*
X-7874Y59374D02*
Y82677D01*
X-3839Y59339D02*
X4724Y50776D01*
X15000Y68000D02*
X58000D01*
X72000Y14500D02*
Y21347D01*
X-33155Y-69345D02*
X-26000Y-76500D01*
X-44000Y-47500D02*
X-33155Y-58345D01*
Y-69345D02*
Y-58345D01*
X-40000Y-8500D02*
X-13000D01*
X-44000Y-12500D02*
X-40000Y-8500D01*
X-44000Y-47500D02*
Y-12500D01*
X-26000Y-76500D02*
X6000D01*
X-54000Y-75500D02*
X-51280Y-78220D01*
X-54000Y-75500D02*
Y-71000D01*
X-51280Y-86516D02*
Y-78220D01*
Y-86516D02*
X-47244Y-90551D01*
Y-82677D02*
Y-71000D01*
X-13000Y-66500D02*
Y-37000D01*
X-14000Y-68991D02*
Y-67500D01*
X-13000Y-66500D01*
X9408Y-43093D02*
X10335Y-42165D01*
Y-40165D01*
X4500Y-43093D02*
X9408D01*
X10335Y-40165D02*
X10500Y-40000D01*
X6000Y-76500D02*
X7874Y-78374D01*
X13000Y20691D02*
X25809Y33500D01*
X63165D02*
X65000Y35335D01*
X25809Y33500D02*
X63165D01*
X51000Y15000D02*
X63713D01*
X37575Y1575D02*
X51000Y15000D01*
X63713D02*
X67000Y11713D01*
X9449Y9449D02*
Y22126D01*
X7850Y21915D02*
X7874Y21891D01*
X9130Y22445D02*
Y53681D01*
X7874Y9449D02*
Y21891D01*
X9130Y22445D02*
X9449Y22126D01*
X7850Y21915D02*
Y54602D01*
X72000Y21347D02*
X73861Y23208D01*
X56374Y-22374D02*
X64407D01*
X55500Y-21500D02*
X56374Y-22374D01*
X19224Y-4724D02*
X53000Y-38500D01*
X9449Y-4724D02*
X19224D01*
X53000Y-38500D02*
X73835D01*
X9449Y-6299D02*
X18753D01*
X61924Y-51280D02*
X86713D01*
X18519Y-7874D02*
X61924Y-51280D01*
X55860Y-43406D02*
X86713D01*
X9449Y-7874D02*
X18519D01*
X18753Y-6299D02*
X55860Y-43406D01*
X77000Y-35335D02*
X86713D01*
X73835Y-38500D02*
X77000Y-35335D01*
X12000Y-62000D02*
Y-55500D01*
X31496Y-82677D02*
Y-81496D01*
X12000Y-62000D02*
X31496Y-81496D01*
X-1000Y-48500D02*
X5000D01*
X12000Y-55500D01*
X-2000Y-47500D02*
X-1000Y-48500D01*
X-13000Y-37000D02*
X-6299Y-30299D01*
X86713Y-35335D02*
X90551Y-31496D01*
X67000Y11713D02*
X78839D01*
X64500Y7630D02*
X74370D01*
X60500Y3500D02*
X64500Y7500D01*
Y7630D01*
X38048Y238D02*
X41309Y3500D01*
X60500D01*
X38500Y-6500D02*
X43500Y-1500D01*
X55500D01*
X64407Y-3126D02*
Y-3067D01*
X55500Y-1500D02*
X62840D01*
X64407Y-3067D01*
X-18229Y13729D02*
X-12374Y7874D01*
X-68739Y47244D02*
X-35224Y13729D01*
X-17525Y15009D02*
X-11964Y9449D01*
X-35224Y13729D02*
X-18229D01*
X-70768Y51083D02*
X-34694Y15009D01*
X-17525D01*
X64407Y-9500D02*
Y-3126D01*
X55500Y-11500D02*
X60000Y-16000D01*
X64407D01*
X-25000Y-13000D02*
X-13000D01*
X-9449Y-9449D01*
X-25000Y-20000D02*
Y-13000D01*
Y-37000D02*
Y-30000D01*
X-4724Y-20276D02*
Y-9449D01*
Y-20276D02*
X14500Y-39500D01*
X-1575Y-19735D02*
X18500Y-39810D01*
X-1575Y-19735D02*
Y-9449D01*
X16500Y-61690D02*
Y-39619D01*
X14500Y-61500D02*
Y-39500D01*
X-3150Y-19969D02*
X16500Y-39619D01*
X-3150Y-19969D02*
Y-9449D01*
X18500Y-61881D02*
Y-39810D01*
X-2000Y-35908D02*
Y-32401D01*
Y-47500D02*
Y-43093D01*
Y-35908D02*
X4500D01*
X-6299Y-30299D02*
Y-9449D01*
X-32148Y27836D02*
X-31831Y28154D01*
X-32148Y21318D02*
Y27836D01*
X-19449Y18743D02*
Y34385D01*
X-23169Y34847D02*
X-19910D01*
X-19449Y34385D01*
Y18743D02*
X-12219Y11512D01*
X-7874Y9449D02*
Y11051D01*
X-8335Y11512D02*
X-7874Y11051D01*
X-12219Y11512D02*
X-8335D01*
X-11964Y9449D02*
X-9449D01*
X-12374Y7874D02*
X-9449D01*
X-13504Y6299D02*
X-9449D01*
X-13799Y6594D02*
X-13504Y6299D01*
X-66513Y43209D02*
X-28028Y4724D01*
X-9449D01*
X-24614Y-500D02*
X-17500D01*
X-82677Y39370D02*
X-64484D01*
X-86713Y43209D02*
X-66513D01*
X-64484Y39370D02*
X-24614Y-500D01*
X-20518Y1370D02*
X-18738Y3150D01*
X-9449D01*
X1575Y0D02*
Y832D01*
Y-4724D02*
Y0D01*
X3128Y-1553D01*
X4703D02*
X4724Y-1575D01*
X3128Y-1553D02*
X4703D01*
X3150Y2407D02*
Y4724D01*
X1575Y832D02*
X3150Y2407D01*
X4710Y4724D02*
X4724Y4739D01*
X3150Y4724D02*
X4710D01*
X38500Y-11500D02*
X55500D01*
X-7874Y-21374D02*
Y-9449D01*
X-16500Y-30000D02*
X-7874Y-21374D01*
X-25000Y-30000D02*
X-16500D01*
X-23169Y34847D02*
Y41500D01*
X19804Y6304D02*
X20500Y7000D01*
X16949Y6304D02*
X19804D01*
X10937Y4746D02*
X14500Y8309D01*
X9471Y6321D02*
X10702D01*
X11721Y9221D02*
Y21220D01*
X11150Y3150D02*
X16000Y8000D01*
X10396Y7896D02*
X11721Y9221D01*
X13000Y8619D02*
Y20691D01*
X9471Y7896D02*
X10396D01*
X9471Y4746D02*
X10937D01*
X10702Y6321D02*
X13000Y8619D01*
X16000Y8000D02*
Y20071D01*
X9449Y3150D02*
X11150D01*
X14500Y8309D02*
Y20381D01*
X13750Y-12250D02*
X47291Y-45791D01*
Y-57792D02*
Y-45791D01*
X43209Y-53500D02*
Y-44209D01*
X-3150Y6299D02*
Y7874D01*
X-6299Y3150D02*
Y4724D01*
X-7874Y3150D02*
X-6299D01*
X13449Y-9449D02*
X66992Y-62992D01*
X82677D01*
X-82677Y31496D02*
X-58996D01*
X-82677Y7874D02*
X-54374D01*
X-43441Y-3059D01*
X7874Y-82677D02*
Y-78374D01*
X40067Y-75500D02*
X47244Y-82677D01*
X14500Y-61500D02*
X28500Y-75500D01*
X40067D01*
X28809Y-74000D02*
X46000D01*
X53941Y-71441D02*
X58957Y-76457D01*
X29869Y-71441D02*
X53941D01*
X50221Y-72720D02*
X55118Y-77618D01*
X29340Y-72720D02*
X50221D01*
X18500Y-61881D02*
X29340Y-72720D01*
X20500Y-62071D02*
X29869Y-71441D01*
X16500Y-61690D02*
X28809Y-74000D01*
X46000D02*
X51083Y-79083D01*
X31496Y-67996D02*
Y-38496D01*
Y-67996D02*
X31500Y-68000D01*
X20500Y-62071D02*
Y-40000D01*
X0Y-19500D02*
X20500Y-40000D01*
X47244Y-90551D02*
X51083Y-86713D01*
Y-79083D01*
X55118Y-82677D02*
Y-77618D01*
X58957Y-86713D02*
Y-76457D01*
X55118Y-90551D02*
X58957Y-86713D01*
X86713Y-51280D02*
X90551Y-55118D01*
X86713Y-43406D02*
X90551Y-47244D01*
X77964Y4036D02*
X86713D01*
X74370Y7630D02*
X77964Y4036D01*
X78839Y11713D02*
X82677Y7874D01*
X86713Y4036D02*
X90551Y7874D01*
X25615Y31496D02*
X82677D01*
X14500Y20381D02*
X25615Y31496D01*
X16000Y20071D02*
X23389Y27461D01*
X86713D01*
X90551Y23622D01*
X11721Y21220D02*
X41583Y51083D01*
X86516D02*
X90551Y55118D01*
X41583Y51083D02*
X86516D01*
X-86713D02*
X-70768D01*
X-90551Y47244D02*
X-86713Y51083D01*
X-82677Y47244D02*
X-68739D01*
X-90551Y39370D02*
X-86713Y43209D01*
X-58996Y31496D02*
X-25721Y-1780D01*
X58000Y68000D02*
X62992Y72992D01*
Y82677D01*
X6299Y9449D02*
Y59299D01*
X86559Y59000D02*
X90551Y62992D01*
X-15748Y61248D02*
Y82677D01*
X4724Y9449D02*
Y50776D01*
X-11713Y59213D02*
X1575Y45925D01*
Y9449D02*
Y45925D01*
X-11713Y59213D02*
Y86713D01*
X-7874Y90551D01*
X0Y9449D02*
Y45500D01*
X-15748Y61248D02*
X0Y45500D01*
X-19587Y62087D02*
X-1575Y44075D01*
X-19587Y86713D02*
X-15748Y90551D01*
X-19587Y62087D02*
Y86713D01*
X-43441Y-3059D02*
X-16059D01*
X-45161Y-4339D02*
X-15339D01*
X-49500Y0D02*
X-45161Y-4339D01*
X-82677Y0D02*
X-49500D01*
X-47000Y-5618D02*
X-14437D01*
X-86713Y-3839D02*
X-48779D01*
X-47000Y-5618D01*
X-90551Y0D02*
X-86713Y-3839D01*
X-81803Y-7000D02*
X-13590D01*
X-82677Y-7874D02*
X-81803Y-7000D01*
X-12889Y-6299D02*
X-9449D01*
X8750Y-12250D02*
X13750D01*
X5000Y-19000D02*
X12000D01*
X35335Y-65000D02*
Y-40525D01*
X6000Y-17500D02*
X12309D01*
X35335Y-40525D01*
X9000Y-14500D02*
X13500D01*
X12619Y-16000D02*
X39370Y-42751D01*
X13500Y-14500D02*
X43209Y-44209D01*
X7000Y-16000D02*
X12619D01*
X39370Y-68500D02*
Y-42751D01*
X12000Y-19000D02*
X31496Y-38496D01*
X9449Y-9449D02*
X13449D01*
X0Y-19500D02*
Y-9449D01*
X1575Y-15575D02*
X5000Y-19000D01*
X3150Y-14650D02*
X6000Y-17500D01*
X4724Y-13724D02*
X7000Y-16000D01*
X1575Y-15575D02*
Y-9449D01*
X3150Y-14650D02*
Y-9449D01*
X4724Y-13724D02*
Y-9449D01*
X9449Y1575D02*
X37575D01*
X-1575Y9449D02*
Y44075D01*
X9449Y7874D02*
X9471Y7896D01*
X-25721Y-1780D02*
X-16780D01*
X-12374Y-7874D02*
X-9449D01*
X-13000Y-8500D02*
X-12374Y-7874D01*
X-13590Y-7000D02*
X-12889Y-6299D01*
X-14437Y-5618D02*
X-13543Y-4724D01*
X-9449D01*
X-15339Y-4339D02*
X-14150Y-3150D01*
X-9449D01*
X-16780Y-1780D02*
X-15000Y0D01*
X-16059Y-3059D02*
X-14575Y-1575D01*
X-9449D01*
X-15000Y0D02*
X-9449D01*
X-17500Y-500D02*
X-15425Y1575D01*
X-9449D01*
X6299Y-11799D02*
X9000Y-14500D01*
X6299Y-11799D02*
Y-9449D01*
X7874Y-11374D02*
X8750Y-12250D01*
X7874Y-11374D02*
Y-9449D01*
X28575Y-1575D02*
X38500Y-11500D01*
X9718Y238D02*
X38048D01*
X9480Y0D02*
X9718Y238D01*
X9449Y0D02*
X9480D01*
X9449Y-1575D02*
X28575D01*
X9449Y4724D02*
X9471Y4746D01*
X9449Y6299D02*
X9471Y6321D01*
X-90713Y91837D02*
X-90413Y91987D01*
X-89963Y92436D01*
Y89287D01*
D23*
X-47244Y-71000D02*
D03*
Y-63815D02*
D03*
X-54000Y-71000D02*
D03*
Y-63815D02*
D03*
X-2000Y-35908D02*
D03*
Y-43093D02*
D03*
X20500Y13840D02*
D03*
Y6656D02*
D03*
X-8500Y28211D02*
D03*
Y21026D02*
D03*
X4500Y-35908D02*
D03*
Y-43093D02*
D03*
D24*
X-7874Y6299D02*
D03*
X-9449Y9449D02*
D03*
X-7874D02*
D03*
X-6299D02*
D03*
X-4724D02*
D03*
X-3150D02*
D03*
X-1575D02*
D03*
X0D02*
D03*
X1575D02*
D03*
X3150D02*
D03*
X4724D02*
D03*
X6299D02*
D03*
X7874D02*
D03*
X9449D02*
D03*
X-9449Y7874D02*
D03*
X-7874D02*
D03*
X-6299D02*
D03*
X-4724D02*
D03*
X-3150D02*
D03*
X-1575D02*
D03*
X0D02*
D03*
X1575D02*
D03*
X3150D02*
D03*
X4724D02*
D03*
X6299D02*
D03*
X7874D02*
D03*
X9449D02*
D03*
X-9449Y6299D02*
D03*
X-6299D02*
D03*
X-4724D02*
D03*
X-3150D02*
D03*
X-1575D02*
D03*
X0D02*
D03*
X1575D02*
D03*
X3150D02*
D03*
X4724D02*
D03*
X6299D02*
D03*
X7874D02*
D03*
X9449D02*
D03*
X-9449Y4724D02*
D03*
X-7874D02*
D03*
X-6299D02*
D03*
X-4724D02*
D03*
X-3150D02*
D03*
X-1575D02*
D03*
X0D02*
D03*
X1575D02*
D03*
X3150D02*
D03*
X4724D02*
D03*
X6299D02*
D03*
X7874D02*
D03*
X9449D02*
D03*
X-9449Y3150D02*
D03*
X-7874D02*
D03*
X-6299D02*
D03*
X-4724D02*
D03*
X4724D02*
D03*
X6299D02*
D03*
X7874D02*
D03*
X9449D02*
D03*
X-9449Y1575D02*
D03*
X-7874D02*
D03*
X-6299D02*
D03*
X-4724D02*
D03*
X4724D02*
D03*
X6299D02*
D03*
X7874D02*
D03*
X9449D02*
D03*
X-9449Y0D02*
D03*
X-7874D02*
D03*
X-6299D02*
D03*
X-4724D02*
D03*
X4724D02*
D03*
X6299D02*
D03*
X7874D02*
D03*
X9449D02*
D03*
X-9449Y-1575D02*
D03*
X-7874D02*
D03*
X-6299D02*
D03*
X-4724D02*
D03*
X4724D02*
D03*
X6299D02*
D03*
X7874D02*
D03*
X9449D02*
D03*
X-9449Y-3150D02*
D03*
X-7874D02*
D03*
X-6299D02*
D03*
X-4724D02*
D03*
X4724D02*
D03*
X6299D02*
D03*
X7874D02*
D03*
X9449D02*
D03*
X-9449Y-4724D02*
D03*
X-7874D02*
D03*
X-6299D02*
D03*
X-4724D02*
D03*
X-3150D02*
D03*
X-1575D02*
D03*
X0D02*
D03*
X1575D02*
D03*
X3150D02*
D03*
X4724D02*
D03*
X6299D02*
D03*
X7874D02*
D03*
X9449D02*
D03*
X-9449Y-6299D02*
D03*
X-7874D02*
D03*
X-6299D02*
D03*
X-4724D02*
D03*
X-3150D02*
D03*
X-1575D02*
D03*
X0D02*
D03*
X1575D02*
D03*
X3150D02*
D03*
X4724D02*
D03*
X6299D02*
D03*
X7874D02*
D03*
X9449D02*
D03*
X-9449Y-7874D02*
D03*
X-7874D02*
D03*
X-6299D02*
D03*
X-4724D02*
D03*
X-3150D02*
D03*
X-1575D02*
D03*
X0D02*
D03*
X1575D02*
D03*
X3150D02*
D03*
X4724D02*
D03*
X6299D02*
D03*
X7874D02*
D03*
X9449D02*
D03*
X-9449Y-9449D02*
D03*
X-7874D02*
D03*
X-6299D02*
D03*
X-4724D02*
D03*
X-3150D02*
D03*
X-1575D02*
D03*
X0D02*
D03*
X1575D02*
D03*
X3150D02*
D03*
X4724D02*
D03*
X6299D02*
D03*
X7874D02*
D03*
X9449D02*
D03*
D25*
X-23169Y28154D02*
D03*
X-31831Y34847D02*
D03*
X-23169D02*
D03*
X-31831Y28154D02*
D03*
D26*
X-25000Y-30000D02*
D03*
Y-20000D02*
D03*
D27*
X86614Y-86614D02*
D03*
X-86614D02*
D03*
X86614Y86614D02*
D03*
D28*
X64407Y-22374D02*
D03*
X71593D02*
D03*
X71592Y-9500D02*
D03*
X64407D02*
D03*
X64407Y-16000D02*
D03*
X71593D02*
D03*
D29*
X-24350Y21000D02*
D03*
X-31831D02*
D03*
X64407Y-3126D02*
D03*
X71888D02*
D03*
X-29961Y41500D02*
D03*
X-22480D02*
D03*
X-32480Y-13000D02*
D03*
X-25000D02*
D03*
X-32480Y-37000D02*
D03*
X-25000D02*
D03*
D30*
X-15000Y28506D02*
D03*
Y21026D02*
D03*
D46*
X-47244Y-63815D02*
X-42845D01*
X-54000D02*
X-47244D01*
X-41000Y-73500D02*
Y-65660D01*
X-42845Y-63815D02*
X-41000Y-65660D01*
X25000Y-60500D02*
Y-37000D01*
X11000Y-23000D02*
X25000Y-37000D01*
X-47244Y82677D02*
Y90551D01*
X-23622Y82677D02*
Y90551D01*
X71592Y-22374D02*
Y-9500D01*
X69748Y-31500D02*
X71593Y-29655D01*
Y-22374D01*
X55500Y-31500D02*
X69748D01*
X82677Y-15748D02*
X90551D01*
X82677Y-23622D02*
X90551D01*
X23622Y-90551D02*
Y-82677D01*
Y-95878D02*
Y-90551D01*
X23000Y-96500D02*
X23622Y-95878D01*
X15748Y-90551D02*
Y-82677D01*
Y-95748D02*
Y-90551D01*
Y-95748D02*
X16000Y-96000D01*
X15748Y82677D02*
X23622D01*
X-90551Y-15748D02*
X-82677D01*
X29455Y5455D02*
Y15550D01*
X35000Y5000D02*
Y23000D01*
X15748Y82677D02*
Y90551D01*
X23622D01*
Y82677D02*
Y90551D01*
X90551Y-23622D02*
Y-15748D01*
X15748Y-82677D02*
X23622D01*
X-90551Y-23622D02*
Y-15748D01*
Y-23622D02*
X-82677D01*
Y-15748D01*
D47*
X-15000Y21026D02*
X-8500D01*
X-8000Y14916D02*
Y20526D01*
X-8500Y21026D02*
X-8000Y20526D01*
Y14916D02*
X-6299Y13215D01*
Y9449D02*
Y13215D01*
D48*
X-20309Y10909D02*
X-18113D01*
X-13799Y6594D01*
X-20697Y11297D02*
X-20309Y10909D01*
X-8197Y26169D02*
X-8000Y26366D01*
X-13000Y25972D02*
X-12803Y26169D01*
X-8197D01*
D49*
X-40805Y55022D02*
X-21478D01*
X-55232Y90551D02*
X-55118D01*
X-3165Y9465D02*
X-3150Y9449D01*
X-21478Y55022D02*
X-3165Y36709D01*
Y9465D02*
Y36709D01*
X-58284Y85843D02*
X-55118Y82677D01*
X-58284Y87500D02*
X-55232Y90551D01*
X-58284Y85843D02*
Y87500D01*
Y79512D02*
X-55118Y82677D01*
X-58284Y72500D02*
X-40805Y55022D01*
X-58284Y72500D02*
Y79512D01*
X-14139Y45500D02*
Y45500D01*
X-22118Y53478D02*
X-14139Y45500D01*
Y45500D02*
X-13048Y44409D01*
X-59827Y71861D02*
Y79512D01*
X-41445Y53478D02*
X-22118D01*
X-4709Y9715D02*
Y36069D01*
X-4724Y9699D02*
X-4709Y9715D01*
X-13048Y44409D02*
X-4709Y36069D01*
X-4724Y9449D02*
Y9699D01*
X-59941Y87500D02*
X-59827D01*
X-62992Y90551D02*
X-59941Y87500D01*
X-59827Y85843D02*
Y87500D01*
X-62992Y82677D02*
X-59827Y79512D01*
Y71861D02*
X-41445Y53478D01*
X-62992Y82677D02*
X-59827Y85843D01*
D50*
X90551Y62992D02*
D03*
X-82677D02*
D03*
D51*
X82677D02*
D03*
X90551Y55118D02*
D03*
X82677D02*
D03*
X90551Y47244D02*
D03*
X82677D02*
D03*
X90551Y39370D02*
D03*
X82677D02*
D03*
X90551Y31496D02*
D03*
X82677D02*
D03*
X90551Y23622D02*
D03*
X82677D02*
D03*
X90551Y15748D02*
D03*
X82677D02*
D03*
X90551Y7874D02*
D03*
X82677D02*
D03*
X90551Y0D02*
D03*
X82677D02*
D03*
X90551Y-7874D02*
D03*
X82677D02*
D03*
X90551Y-15748D02*
D03*
X82677D02*
D03*
X90551Y-23622D02*
D03*
X82677D02*
D03*
X90551Y-31496D02*
D03*
X82677D02*
D03*
X90551Y-39370D02*
D03*
X82677D02*
D03*
X90551Y-47244D02*
D03*
X82677D02*
D03*
X90551Y-55118D02*
D03*
X82677D02*
D03*
X90551Y-62992D02*
D03*
X82677D02*
D03*
X-62992Y-90551D02*
D03*
X-55118Y-82677D02*
D03*
Y-90551D02*
D03*
X-47244Y-82677D02*
D03*
Y-90551D02*
D03*
X-39370Y-82677D02*
D03*
Y-90551D02*
D03*
X-31496Y-82677D02*
D03*
Y-90551D02*
D03*
X-23622Y-82677D02*
D03*
Y-90551D02*
D03*
X-15748Y-82677D02*
D03*
Y-90551D02*
D03*
X-7874Y-82677D02*
D03*
Y-90551D02*
D03*
X0Y-82677D02*
D03*
Y-90551D02*
D03*
X7874Y-82677D02*
D03*
Y-90551D02*
D03*
X15748Y-82677D02*
D03*
Y-90551D02*
D03*
X23622Y-82677D02*
D03*
Y-90551D02*
D03*
X31496Y-82677D02*
D03*
Y-90551D02*
D03*
X39370Y-82677D02*
D03*
Y-90551D02*
D03*
X47244Y-82677D02*
D03*
Y-90551D02*
D03*
X55118Y-82677D02*
D03*
Y-90551D02*
D03*
X62992Y-82677D02*
D03*
Y-90551D02*
D03*
X-90551Y-62992D02*
D03*
X-82677D02*
D03*
X-90551Y-55118D02*
D03*
X-82677D02*
D03*
X-90551Y-47244D02*
D03*
X-82677D02*
D03*
X-90551Y-39370D02*
D03*
X-82677D02*
D03*
X-90551Y-31496D02*
D03*
X-82677D02*
D03*
X-90551Y-23622D02*
D03*
X-82677D02*
D03*
X-90551Y-15748D02*
D03*
X-82677D02*
D03*
X-90551Y-7874D02*
D03*
X-82677D02*
D03*
X-90551Y0D02*
D03*
X-82677D02*
D03*
X-90551Y7874D02*
D03*
X-82677D02*
D03*
X-90551Y15748D02*
D03*
X-82677D02*
D03*
X-90551Y23622D02*
D03*
X-82677D02*
D03*
X-90551Y31496D02*
D03*
X-82677D02*
D03*
X-90551Y39370D02*
D03*
X-82677D02*
D03*
X-90551Y47244D02*
D03*
X-82677D02*
D03*
X-90551Y55118D02*
D03*
X-82677D02*
D03*
X-90551Y62992D02*
D03*
X-62992Y82677D02*
D03*
X-55118Y90551D02*
D03*
Y82677D02*
D03*
X-47244Y90551D02*
D03*
Y82677D02*
D03*
X-39370Y90551D02*
D03*
Y82677D02*
D03*
X-31496Y90551D02*
D03*
Y82677D02*
D03*
X-23622Y90551D02*
D03*
Y82677D02*
D03*
X-15748Y90551D02*
D03*
Y82677D02*
D03*
X-7874Y90551D02*
D03*
Y82677D02*
D03*
X0Y90551D02*
D03*
Y82677D02*
D03*
X7874Y90551D02*
D03*
Y82677D02*
D03*
X15748Y90551D02*
D03*
Y82677D02*
D03*
X23622Y90551D02*
D03*
Y82677D02*
D03*
X31496Y90551D02*
D03*
Y82677D02*
D03*
X39370Y90551D02*
D03*
Y82677D02*
D03*
X47244Y90551D02*
D03*
Y82677D02*
D03*
X55118Y90551D02*
D03*
Y82677D02*
D03*
X62992Y90551D02*
D03*
Y82677D02*
D03*
D52*
X55500Y-31500D02*
D03*
D53*
Y-21500D02*
D03*
Y-11500D02*
D03*
Y-1500D02*
D03*
Y8500D02*
D03*
D54*
X-18000Y-63000D02*
D03*
X-8000D02*
D03*
D55*
X2000D02*
D03*
D56*
X-62992Y-82677D02*
D03*
Y90551D02*
D03*
D57*
X-43500Y7500D02*
D03*
X18500Y73000D02*
D03*
X-70500Y17000D02*
D03*
X-72000Y27000D02*
D03*
X74500Y17500D02*
D03*
X72000Y14500D02*
D03*
X-14000Y-68991D02*
D03*
X9957Y-75634D02*
D03*
X10500Y-40000D02*
D03*
X11332Y-44077D02*
D03*
X40500Y-9500D02*
D03*
X39000Y16000D02*
D03*
X50334Y73782D02*
D03*
X11000Y33000D02*
D03*
X72500Y-57000D02*
D03*
X54500Y-47000D02*
D03*
X30500Y-23000D02*
D03*
X18500Y-11000D02*
D03*
X30500Y-9500D02*
D03*
X39500Y-18500D02*
D03*
X-29307Y11438D02*
D03*
X-20697Y11297D02*
D03*
X-2000Y-32401D02*
D03*
X-32148Y24666D02*
D03*
X-20518Y1370D02*
D03*
X24500Y15000D02*
D03*
X16949Y6304D02*
D03*
X25298Y4768D02*
D03*
X47291Y-57792D02*
D03*
X43209Y-53500D02*
D03*
X-73000Y4500D02*
D03*
X-72531Y-51509D02*
D03*
X75500Y-4000D02*
D03*
X48000Y-67000D02*
D03*
X29500Y-52000D02*
D03*
X12000Y-51390D02*
D03*
X-20000Y-49000D02*
D03*
X73000Y1500D02*
D03*
X69855Y3645D02*
D03*
X67000Y5500D02*
D03*
X-1000Y-55500D02*
D03*
X-63500Y-52000D02*
D03*
X39370Y-68500D02*
D03*
X35335Y-65000D02*
D03*
X55118Y-64000D02*
D03*
X-26000Y-62500D02*
D03*
X-19220Y-53720D02*
D03*
X-67033Y14038D02*
D03*
X65000Y35335D02*
D03*
X59154Y-70500D02*
D03*
X69000Y-73000D02*
D03*
X44500Y-76000D02*
D03*
X73861Y23208D02*
D03*
X31500Y-68000D02*
D03*
X-67000Y35500D02*
D03*
X38500Y-6500D02*
D03*
D58*
X96500Y69000D02*
D03*
Y39000D02*
D03*
Y9000D02*
D03*
Y-21000D02*
D03*
Y-51000D02*
D03*
Y-81000D02*
D03*
X89000Y-96000D02*
D03*
X74000Y84000D02*
D03*
X81500Y69000D02*
D03*
X74000Y-66000D02*
D03*
X81500Y-81000D02*
D03*
X74000Y-96000D02*
D03*
X66500Y69000D02*
D03*
Y39000D02*
D03*
X59000Y24000D02*
D03*
Y-96000D02*
D03*
X51500Y39000D02*
D03*
X44000Y-96000D02*
D03*
X29000Y24000D02*
D03*
Y-66000D02*
D03*
Y-96000D02*
D03*
X14000Y54000D02*
D03*
Y-96000D02*
D03*
X-1000D02*
D03*
X-16000Y54000D02*
D03*
Y-96000D02*
D03*
X-23500Y69000D02*
D03*
X-31000Y-96000D02*
D03*
X-38500Y69000D02*
D03*
X-46000Y54000D02*
D03*
X-38500Y39000D02*
D03*
Y-21000D02*
D03*
X-46000Y-96000D02*
D03*
X-61000Y54000D02*
D03*
X-53500Y-21000D02*
D03*
X-61000Y-66000D02*
D03*
Y-96000D02*
D03*
X-76000Y84000D02*
D03*
X-68500Y69000D02*
D03*
X-76000Y-66000D02*
D03*
Y-96000D02*
D03*
X-91000Y84000D02*
D03*
X-83500Y69000D02*
D03*
Y-81000D02*
D03*
X-91000Y-96000D02*
D03*
D59*
X25000Y-60500D02*
D03*
X15500Y-71000D02*
D03*
X-41000Y-73500D02*
D03*
X29455Y5455D02*
D03*
Y15550D02*
D03*
X35000Y5000D02*
D03*
Y23000D02*
D03*
X11000Y-23000D02*
D03*
D60*
X-8500Y32000D02*
D03*
X-15000D02*
D03*
X-20455Y8390D02*
D03*
D61*
X4724Y7888D02*
D03*
Y4739D02*
D03*
X4724Y1589D02*
D03*
X4724Y3164D02*
D03*
Y6314D02*
D03*
X-3150Y-4724D02*
D03*
X-6299Y0D02*
D03*
Y-3150D02*
D03*
Y-6299D02*
D03*
X-3150D02*
D03*
X0D02*
D03*
X-7874Y-7874D02*
D03*
X3150Y-6299D02*
D03*
X6299Y1575D02*
D03*
X7874D02*
D03*
X4724Y-3150D02*
D03*
Y-6299D02*
D03*
Y0D02*
D03*
Y-7874D02*
D03*
X6299Y-4724D02*
D03*
X7874D02*
D03*
X4724D02*
D03*
X6299Y-6299D02*
D03*
Y3150D02*
D03*
Y6299D02*
D03*
Y-7874D02*
D03*
X7874Y6299D02*
D03*
X6299Y0D02*
D03*
Y-1575D02*
D03*
Y4724D02*
D03*
Y-3150D02*
D03*
X7874Y7874D02*
D03*
X-4724Y1575D02*
D03*
X-7874Y0D02*
D03*
X-4724D02*
D03*
X-6299Y3150D02*
D03*
X-4724Y-3150D02*
D03*
Y-1575D02*
D03*
Y-4724D02*
D03*
Y-7874D02*
D03*
X-7874Y4724D02*
D03*
X-4724Y6299D02*
D03*
Y-6299D02*
D03*
Y7874D02*
D03*
Y3150D02*
D03*
X-6299Y1575D02*
D03*
X-4724Y4724D02*
D03*
X-6299D02*
D03*
X-7874Y3150D02*
D03*
X7874Y-3150D02*
D03*
X4724Y-1575D02*
D03*
X-1575Y-4724D02*
D03*
X-3150Y4724D02*
D03*
X-1575Y-6299D02*
D03*
X1575Y7874D02*
D03*
X-3150D02*
D03*
X3150D02*
D03*
X-1575D02*
D03*
X-7874Y6299D02*
D03*
X-6299Y7874D02*
D03*
X0D02*
D03*
X6299D02*
D03*
X0Y6299D02*
D03*
Y4724D02*
D03*
X-1575Y-7874D02*
D03*
X-6299D02*
D03*
X-3150D02*
D03*
X0D02*
D03*
X1575D02*
D03*
X3150D02*
D03*
X7874D02*
D03*
Y-6299D02*
D03*
X1575D02*
D03*
X-7874D02*
D03*
Y-4724D02*
D03*
X-6299D02*
D03*
X-7874Y-3150D02*
D03*
Y-1575D02*
D03*
X-6299D02*
D03*
X-7874Y1575D02*
D03*
X0Y-4724D02*
D03*
X3150D02*
D03*
X7874Y-1575D02*
D03*
Y0D02*
D03*
Y3150D02*
D03*
Y4724D02*
D03*
X3150Y6299D02*
D03*
X1575D02*
D03*
X-1575D02*
D03*
X1575Y-4724D02*
D03*
X3150Y4724D02*
D03*
X1575D02*
D03*
X-1575D02*
D03*
X-3150Y6299D02*
D03*
X-6299D02*
D03*
X-7874Y7874D02*
D03*
M02*
