G04*
G04 #@! TF.GenerationSoftware,Altium Limited,Altium Designer,22.3.1 (43)*
G04*
G04 Layer_Color=2752767*
%FSLAX25Y25*%
%MOIN*%
G70*
G04*
G04 #@! TF.SameCoordinates,697392F4-E1DC-46BD-99ED-7115868F3DC7*
G04*
G04*
G04 #@! TF.FilePolarity,Positive*
G04*
G01*
G75*
%ADD12C,0.00394*%
%ADD70C,0.00200*%
D12*
X-98425Y98425D02*
X98425D01*
Y-98425D02*
Y98425D01*
X-98425Y-98425D02*
X98425D01*
X-98425D02*
Y98425D01*
D70*
X4324Y7489D02*
Y7089D01*
X5124D01*
Y7489D01*
X5524D01*
Y8288D01*
X5124D01*
Y8688D01*
X4324D01*
Y8288D01*
X3924D01*
Y7489D01*
X4324D01*
X-8274Y-8274D02*
Y-8674D01*
X-7474D01*
Y-8274D01*
X-7074D01*
Y-7474D01*
X-7474D01*
Y-7074D01*
X-8274D01*
Y-7474D01*
X-8674D01*
Y-8274D01*
X-8274D01*
X7474Y1175D02*
Y775D01*
X8274D01*
Y1175D01*
X8674D01*
Y1975D01*
X8274D01*
Y2375D01*
X7474D01*
Y1975D01*
X7074D01*
Y1175D01*
X7474D01*
X4324Y-8274D02*
Y-8674D01*
X5124D01*
Y-8274D01*
X5524D01*
Y-7474D01*
X5124D01*
Y-7074D01*
X4324D01*
Y-7474D01*
X3924D01*
Y-8274D01*
X4324D01*
X7474Y-5124D02*
Y-5524D01*
X8274D01*
Y-5124D01*
X8674D01*
Y-4324D01*
X8274D01*
Y-3924D01*
X7474D01*
Y-4324D01*
X7074D01*
Y-5124D01*
X7474D01*
X5899Y-8274D02*
Y-8674D01*
X6699D01*
Y-8274D01*
X7099D01*
Y-7474D01*
X6699D01*
Y-7074D01*
X5899D01*
Y-7474D01*
X5499D01*
Y-8274D01*
X5899D01*
X7474Y5899D02*
Y5499D01*
X8274D01*
Y5899D01*
X8674D01*
Y6699D01*
X8274D01*
Y7099D01*
X7474D01*
Y6699D01*
X7074D01*
Y5899D01*
X7474D01*
Y7474D02*
Y7074D01*
X8274D01*
Y7474D01*
X8674D01*
Y8274D01*
X8274D01*
Y8674D01*
X7474D01*
Y8274D01*
X7074D01*
Y7474D01*
X7474D01*
X-8274Y-400D02*
Y-800D01*
X-7474D01*
Y-400D01*
X-7074D01*
Y400D01*
X-7474D01*
Y800D01*
X-8274D01*
Y400D01*
X-8674D01*
Y-400D01*
X-8274D01*
X-5124Y-8274D02*
Y-8674D01*
X-4324D01*
Y-8274D01*
X-3924D01*
Y-7474D01*
X-4324D01*
Y-7074D01*
X-5124D01*
Y-7474D01*
X-5524D01*
Y-8274D01*
X-5124D01*
X-8274Y4324D02*
Y3924D01*
X-7474D01*
Y4324D01*
X-7074D01*
Y5124D01*
X-7474D01*
Y5524D01*
X-8274D01*
Y5124D01*
X-8674D01*
Y4324D01*
X-8274D01*
X-6699D02*
Y3924D01*
X-5899D01*
Y4324D01*
X-5499D01*
Y5124D01*
X-5899D01*
Y5524D01*
X-6699D01*
Y5124D01*
X-7099D01*
Y4324D01*
X-6699D01*
X-8274Y2750D02*
Y2350D01*
X-7474D01*
Y2750D01*
X-7074D01*
Y3550D01*
X-7474D01*
Y3950D01*
X-8274D01*
Y3550D01*
X-8674D01*
Y2750D01*
X-8274D01*
X7474Y-3550D02*
Y-3950D01*
X8274D01*
Y-3550D01*
X8674D01*
Y-2750D01*
X8274D01*
Y-2350D01*
X7474D01*
Y-2750D01*
X7074D01*
Y-3550D01*
X7474D01*
X1175Y7474D02*
Y7074D01*
X1975D01*
Y7474D01*
X2375D01*
Y8274D01*
X1975D01*
Y8674D01*
X1175D01*
Y8274D01*
X775D01*
Y7474D01*
X1175D01*
X2750D02*
Y7074D01*
X3550D01*
Y7474D01*
X3950D01*
Y8274D01*
X3550D01*
Y8674D01*
X2750D01*
Y8274D01*
X2350D01*
Y7474D01*
X2750D01*
X-1975D02*
Y7074D01*
X-1175D01*
Y7474D01*
X-775D01*
Y8274D01*
X-1175D01*
Y8674D01*
X-1975D01*
Y8274D01*
X-2375D01*
Y7474D01*
X-1975D01*
X-8274Y5899D02*
Y5499D01*
X-7474D01*
Y5899D01*
X-7074D01*
Y6699D01*
X-7474D01*
Y7099D01*
X-8274D01*
Y6699D01*
X-8674D01*
Y5899D01*
X-8274D01*
X-400Y7474D02*
Y7074D01*
X400D01*
Y7474D01*
X800D01*
Y8274D01*
X400D01*
Y8674D01*
X-400D01*
Y8274D01*
X-800D01*
Y7474D01*
X-400D01*
X5899D02*
Y7074D01*
X6699D01*
Y7474D01*
X7099D01*
Y8274D01*
X6699D01*
Y8674D01*
X5899D01*
Y8274D01*
X5499D01*
Y7474D01*
X5899D01*
X-1975Y-8274D02*
Y-8674D01*
X-1175D01*
Y-8274D01*
X-775D01*
Y-7474D01*
X-1175D01*
Y-7074D01*
X-1975D01*
Y-7474D01*
X-2375D01*
Y-8274D01*
X-1975D01*
X-6699D02*
Y-8674D01*
X-5899D01*
Y-8274D01*
X-5499D01*
Y-7474D01*
X-5899D01*
Y-7074D01*
X-6699D01*
Y-7474D01*
X-7099D01*
Y-8274D01*
X-6699D01*
X-3550D02*
Y-8674D01*
X-2750D01*
Y-8274D01*
X-2350D01*
Y-7474D01*
X-2750D01*
Y-7074D01*
X-3550D01*
Y-7474D01*
X-3950D01*
Y-8274D01*
X-3550D01*
X-400D02*
Y-8674D01*
X400D01*
Y-8274D01*
X800D01*
Y-7474D01*
X400D01*
Y-7074D01*
X-400D01*
Y-7474D01*
X-800D01*
Y-8274D01*
X-400D01*
X1175D02*
Y-8674D01*
X1975D01*
Y-8274D01*
X2375D01*
Y-7474D01*
X1975D01*
Y-7074D01*
X1175D01*
Y-7474D01*
X775D01*
Y-8274D01*
X1175D01*
X2750D02*
Y-8674D01*
X3550D01*
Y-8274D01*
X3950D01*
Y-7474D01*
X3550D01*
Y-7074D01*
X2750D01*
Y-7474D01*
X2350D01*
Y-8274D01*
X2750D01*
X7474D02*
Y-8674D01*
X8274D01*
Y-8274D01*
X8674D01*
Y-7474D01*
X8274D01*
Y-7074D01*
X7474D01*
Y-7474D01*
X7074D01*
Y-8274D01*
X7474D01*
Y-6699D02*
Y-7099D01*
X8274D01*
Y-6699D01*
X8674D01*
Y-5899D01*
X8274D01*
Y-5499D01*
X7474D01*
Y-5899D01*
X7074D01*
Y-6699D01*
X7474D01*
X-8274D02*
Y-7099D01*
X-7474D01*
Y-6699D01*
X-7074D01*
Y-5899D01*
X-7474D01*
Y-5499D01*
X-8274D01*
Y-5899D01*
X-8674D01*
Y-6699D01*
X-8274D01*
Y-5124D02*
Y-5524D01*
X-7474D01*
Y-5124D01*
X-7074D01*
Y-4324D01*
X-7474D01*
Y-3924D01*
X-8274D01*
Y-4324D01*
X-8674D01*
Y-5124D01*
X-8274D01*
Y-3550D02*
Y-3950D01*
X-7474D01*
Y-3550D01*
X-7074D01*
Y-2750D01*
X-7474D01*
Y-2350D01*
X-8274D01*
Y-2750D01*
X-8674D01*
Y-3550D01*
X-8274D01*
Y-1975D02*
Y-2375D01*
X-7474D01*
Y-1975D01*
X-7074D01*
Y-1175D01*
X-7474D01*
Y-775D01*
X-8274D01*
Y-1175D01*
X-8674D01*
Y-1975D01*
X-8274D01*
Y1175D02*
Y775D01*
X-7474D01*
Y1175D01*
X-7074D01*
Y1975D01*
X-7474D01*
Y2375D01*
X-8274D01*
Y1975D01*
X-8674D01*
Y1175D01*
X-8274D01*
X7474Y-1975D02*
Y-2375D01*
X8274D01*
Y-1975D01*
X8674D01*
Y-1175D01*
X8274D01*
Y-775D01*
X7474D01*
Y-1175D01*
X7074D01*
Y-1975D01*
X7474D01*
Y-400D02*
Y-800D01*
X8274D01*
Y-400D01*
X8674D01*
Y400D01*
X8274D01*
Y800D01*
X7474D01*
Y400D01*
X7074D01*
Y-400D01*
X7474D01*
Y2750D02*
Y2350D01*
X8274D01*
Y2750D01*
X8674D01*
Y3550D01*
X8274D01*
Y3950D01*
X7474D01*
Y3550D01*
X7074D01*
Y2750D01*
X7474D01*
Y4324D02*
Y3924D01*
X8274D01*
Y4324D01*
X8674D01*
Y5124D01*
X8274D01*
Y5524D01*
X7474D01*
Y5124D01*
X7074D01*
Y4324D01*
X7474D01*
X-8274Y7474D02*
Y7074D01*
X-7474D01*
Y7474D01*
X-7074D01*
Y8274D01*
X-7474D01*
Y8674D01*
X-8274D01*
Y8274D01*
X-8674D01*
Y7474D01*
X-8274D01*
M02*
