G04*
G04 #@! TF.GenerationSoftware,Altium Limited,Altium Designer,22.3.1 (43)*
G04*
G04 Layer_Color=8421504*
%FSLAX25Y25*%
%MOIN*%
G70*
G04*
G04 #@! TF.SameCoordinates,697392F4-E1DC-46BD-99ED-7115868F3DC7*
G04*
G04*
G04 #@! TF.FilePolarity,Positive*
G04*
G01*
G75*
%ADD12C,0.00394*%
G04:AMPARAMS|DCode=23|XSize=40.35mil|YSize=55.12mil|CornerRadius=4.84mil|HoleSize=0mil|Usage=FLASHONLY|Rotation=90.000|XOffset=0mil|YOffset=0mil|HoleType=Round|Shape=RoundedRectangle|*
%AMROUNDEDRECTD23*
21,1,0.04035,0.04543,0,0,90.0*
21,1,0.03067,0.05512,0,0,90.0*
1,1,0.00969,0.02272,0.01534*
1,1,0.00969,0.02272,-0.01534*
1,1,0.00969,-0.02272,-0.01534*
1,1,0.00969,-0.02272,0.01534*
%
%ADD23ROUNDEDRECTD23*%
%ADD24C,0.00902*%
%ADD25R,0.04724X0.03937*%
%ADD26R,0.09843X0.03937*%
%ADD27C,0.03937*%
G04:AMPARAMS|DCode=28|XSize=40.35mil|YSize=55.12mil|CornerRadius=4.84mil|HoleSize=0mil|Usage=FLASHONLY|Rotation=0.000|XOffset=0mil|YOffset=0mil|HoleType=Round|Shape=RoundedRectangle|*
%AMROUNDEDRECTD28*
21,1,0.04035,0.04543,0,0,0.0*
21,1,0.03067,0.05512,0,0,0.0*
1,1,0.00969,0.01534,-0.02272*
1,1,0.00969,-0.01534,-0.02272*
1,1,0.00969,-0.01534,0.02272*
1,1,0.00969,0.01534,0.02272*
%
%ADD28ROUNDEDRECTD28*%
G04:AMPARAMS|DCode=29|XSize=39.37mil|YSize=57.09mil|CornerRadius=4.92mil|HoleSize=0mil|Usage=FLASHONLY|Rotation=180.000|XOffset=0mil|YOffset=0mil|HoleType=Round|Shape=RoundedRectangle|*
%AMROUNDEDRECTD29*
21,1,0.03937,0.04724,0,0,180.0*
21,1,0.02953,0.05709,0,0,180.0*
1,1,0.00984,-0.01476,0.02362*
1,1,0.00984,0.01476,0.02362*
1,1,0.00984,0.01476,-0.02362*
1,1,0.00984,-0.01476,-0.02362*
%
%ADD29ROUNDEDRECTD29*%
G04:AMPARAMS|DCode=30|XSize=39.37mil|YSize=57.09mil|CornerRadius=4.92mil|HoleSize=0mil|Usage=FLASHONLY|Rotation=270.000|XOffset=0mil|YOffset=0mil|HoleType=Round|Shape=RoundedRectangle|*
%AMROUNDEDRECTD30*
21,1,0.03937,0.04724,0,0,270.0*
21,1,0.02953,0.05709,0,0,270.0*
1,1,0.00984,-0.02362,-0.01476*
1,1,0.00984,-0.02362,0.01476*
1,1,0.00984,0.02362,0.01476*
1,1,0.00984,0.02362,-0.01476*
%
%ADD30ROUNDEDRECTD30*%
D12*
X-98425Y98425D02*
X98425D01*
Y-98425D02*
Y98425D01*
X-98425Y-98425D02*
X98425D01*
X-98425D02*
Y98425D01*
D23*
X-47244Y-71000D02*
D03*
Y-63815D02*
D03*
X-54000Y-71000D02*
D03*
Y-63815D02*
D03*
X-2000Y-35908D02*
D03*
Y-43093D02*
D03*
X20500Y13840D02*
D03*
Y6656D02*
D03*
X-8500Y28211D02*
D03*
Y21026D02*
D03*
X4500Y-35908D02*
D03*
Y-43093D02*
D03*
D24*
X-7874Y6299D02*
D03*
X-9449Y9449D02*
D03*
X-7874D02*
D03*
X-6299D02*
D03*
X-4724D02*
D03*
X-3150D02*
D03*
X-1575D02*
D03*
X0D02*
D03*
X1575D02*
D03*
X3150D02*
D03*
X4724D02*
D03*
X6299D02*
D03*
X7874D02*
D03*
X9449D02*
D03*
X-9449Y7874D02*
D03*
X-7874D02*
D03*
X-6299D02*
D03*
X-4724D02*
D03*
X-3150D02*
D03*
X-1575D02*
D03*
X0D02*
D03*
X1575D02*
D03*
X3150D02*
D03*
X4724D02*
D03*
X6299D02*
D03*
X7874D02*
D03*
X9449D02*
D03*
X-9449Y6299D02*
D03*
X-6299D02*
D03*
X-4724D02*
D03*
X-3150D02*
D03*
X-1575D02*
D03*
X0D02*
D03*
X1575D02*
D03*
X3150D02*
D03*
X4724D02*
D03*
X6299D02*
D03*
X7874D02*
D03*
X9449D02*
D03*
X-9449Y4724D02*
D03*
X-7874D02*
D03*
X-6299D02*
D03*
X-4724D02*
D03*
X-3150D02*
D03*
X-1575D02*
D03*
X0D02*
D03*
X1575D02*
D03*
X3150D02*
D03*
X4724D02*
D03*
X6299D02*
D03*
X7874D02*
D03*
X9449D02*
D03*
X-9449Y3150D02*
D03*
X-7874D02*
D03*
X-6299D02*
D03*
X-4724D02*
D03*
X4724D02*
D03*
X6299D02*
D03*
X7874D02*
D03*
X9449D02*
D03*
X-9449Y1575D02*
D03*
X-7874D02*
D03*
X-6299D02*
D03*
X-4724D02*
D03*
X4724D02*
D03*
X6299D02*
D03*
X7874D02*
D03*
X9449D02*
D03*
X-9449Y0D02*
D03*
X-7874D02*
D03*
X-6299D02*
D03*
X-4724D02*
D03*
X4724D02*
D03*
X6299D02*
D03*
X7874D02*
D03*
X9449D02*
D03*
X-9449Y-1575D02*
D03*
X-7874D02*
D03*
X-6299D02*
D03*
X-4724D02*
D03*
X4724D02*
D03*
X6299D02*
D03*
X7874D02*
D03*
X9449D02*
D03*
X-9449Y-3150D02*
D03*
X-7874D02*
D03*
X-6299D02*
D03*
X-4724D02*
D03*
X4724D02*
D03*
X6299D02*
D03*
X7874D02*
D03*
X9449D02*
D03*
X-9449Y-4724D02*
D03*
X-7874D02*
D03*
X-6299D02*
D03*
X-4724D02*
D03*
X-3150D02*
D03*
X-1575D02*
D03*
X0D02*
D03*
X1575D02*
D03*
X3150D02*
D03*
X4724D02*
D03*
X6299D02*
D03*
X7874D02*
D03*
X9449D02*
D03*
X-9449Y-6299D02*
D03*
X-7874D02*
D03*
X-6299D02*
D03*
X-4724D02*
D03*
X-3150D02*
D03*
X-1575D02*
D03*
X0D02*
D03*
X1575D02*
D03*
X3150D02*
D03*
X4724D02*
D03*
X6299D02*
D03*
X7874D02*
D03*
X9449D02*
D03*
X-9449Y-7874D02*
D03*
X-7874D02*
D03*
X-6299D02*
D03*
X-4724D02*
D03*
X-3150D02*
D03*
X-1575D02*
D03*
X0D02*
D03*
X1575D02*
D03*
X3150D02*
D03*
X4724D02*
D03*
X6299D02*
D03*
X7874D02*
D03*
X9449D02*
D03*
X-9449Y-9449D02*
D03*
X-7874D02*
D03*
X-6299D02*
D03*
X-4724D02*
D03*
X-3150D02*
D03*
X-1575D02*
D03*
X0D02*
D03*
X1575D02*
D03*
X3150D02*
D03*
X4724D02*
D03*
X6299D02*
D03*
X7874D02*
D03*
X9449D02*
D03*
D25*
X-23169Y28154D02*
D03*
X-31831Y34847D02*
D03*
X-23169D02*
D03*
X-31831Y28154D02*
D03*
D26*
X-25000Y-30000D02*
D03*
Y-20000D02*
D03*
D27*
X86614Y-86614D02*
D03*
X-86614D02*
D03*
X86614Y86614D02*
D03*
D28*
X64407Y-22374D02*
D03*
X71593D02*
D03*
X71592Y-9500D02*
D03*
X64407D02*
D03*
X64407Y-16000D02*
D03*
X71593D02*
D03*
D29*
X-24350Y21000D02*
D03*
X-31831D02*
D03*
X64407Y-3126D02*
D03*
X71888D02*
D03*
X-29961Y41500D02*
D03*
X-22480D02*
D03*
X-32480Y-13000D02*
D03*
X-25000D02*
D03*
X-32480Y-37000D02*
D03*
X-25000D02*
D03*
D30*
X-15000Y28506D02*
D03*
Y21026D02*
D03*
M02*
