M48
;Layer_Color=9474304
;FILE_FORMAT=2:5
INCH,LZ
;TYPE=PLATED
T1F00S00C0.00394
%
T01
X-0006299Y-0006299
X-0004724
X-000315
X-0001575
X0
X0001575
X000315
X0004724
X0006299
Y-0004724
Y-000315
Y-0001575
Y0
Y0001575
Y000315
Y0004724
Y0006299
X0004724Y0006314
X000315Y0006299
X0001575
X0
X-0001575
X-0004724Y0004724
X-0006299Y000315
Y0001575
Y0
Y-0001575
Y-000315
Y-0004724
Y0006299
M30
