M48
;Layer_Color=9474304
;FILE_FORMAT=2:5
INCH,LZ
;TYPE=PLATED
T1F00S00C0.00394
T2F00S00C0.00800
T3F00S00C0.01181
T4F00S00C0.01968
T5F00S00C0.03543
T6F00S00C0.03937
%
T01
X-0004724Y-0004724
X-000315
X-0001575
X0
X0001575
X000315
X0004724
Y-000315
Y-0001575
Y0
X0004724Y0001589
X0004724Y0003164
Y0004739
X000315Y0004724
X0001575
X0
X-0001575
X-000315
Y0006299
X-0004724
Y0007874
X-000315
X-0006299
X-0004724Y000315
Y0001575
Y0
Y-0001575
Y-000315
T02
X-0020455Y000839
X-0015Y0032
X-00085
T03
X-0091Y-0096
X-0076
X-0061
X-0046
X-0061Y-0066
X-0076
X-0072531Y-0051509
X-00635Y-0052
X-00835Y-0081
X-0031Y-0096
X-0016
X-0001
X0014
X0029
X0044
X0059
X0074
X0089
X00965Y-0081
X00815
X0069Y-0073
X0074Y-0066
X00725Y-0057
X0055118Y-0064
X0048Y-0067
X0047291Y-0057792
X0043209Y-00535
X00295Y-0052
X0029Y-0066
X00315Y-0068
X0035335Y-0065
X003937Y-00685
X00445Y-0076
X0059154Y-00705
X00545Y-0047
X00965Y-0051
X0012Y-005139
X-0001Y-00555
X-001922Y-005372
X-002Y-0049
X-0026Y-00625
X-0014Y-0068991
X0009957Y-0075634
X0011332Y-0044077
X00105Y-004
X-0002Y-0032401
X00305Y-0023
Y-00095
X00405
X00385Y-00065
X00395Y-00185
X00185Y-0011
X0016949Y0006304
X0025298Y0004768
X00245Y0015
X0029Y0024
X0039Y0016
X0059Y0024
X0073861Y0023208
X00745Y00175
X0072Y00145
X0069855Y0003645
X0067Y00055
X0073Y00015
X00755Y-0004
X00965Y0009
Y0039
Y0069
X00815
X00665
X0050334Y0073782
X00185Y0073
X0014Y0054
X0011Y0033
X00515Y0039
X00665
X0065Y0035335
X0074Y0084
X-00235Y0069
X-00385
Y0039
X-0032148Y0024666
X-0029307Y0011438
X-0020697Y0011297
X-0020518Y000137
X-00385Y-0021
X-0016Y0054
X00965Y-0021
X-00535
X-00435Y00075
X-0067033Y0014038
X-00705Y0017
X-0072Y0027
X-0067Y00355
X-0061Y0054
X-0046
X-00685Y0069
X-00835
X-0076Y0084
X-0091
X-0073Y00045
T04
X-0041Y-00735
X00155Y-0071
X0025Y-00605
X0011Y-0023
X0029455Y0005455
X0035Y0005
X0029455Y001555
X0035Y0023
T05
X-0062992Y-0090551
Y-0082677
X-0055118
Y-0090551
X-0047244
Y-0082677
X-0082677Y-0062992
X-0090551
Y-0055118
X-0082677
Y-0047244
X-0090551
X-003937Y-0082677
Y-0090551
X-0031496
Y-0082677
X-0023622
Y-0090551
X-0015748
Y-0082677
X-0007874
Y-0090551
X0
Y-0082677
X0007874
Y-0090551
X0015748
Y-0082677
X0023622
Y-0090551
X0031496
Y-0082677
X003937
Y-0090551
X0047244
Y-0082677
X0055118
Y-0090551
X0062992
Y-0082677
X0082677Y-0062992
Y-0055118
Y-0047244
X0090551
Y-0055118
Y-0062992
Y-003937
Y-0031496
Y-0023622
Y-0015748
X0082677
Y-0023622
Y-0031496
Y-003937
Y-0007874
Y0
X0090551
Y-0007874
Y0007874
Y0015748
Y0023622
Y0031496
Y003937
Y0047244
X0082677
Y003937
Y0031496
Y0023622
Y0015748
Y0007874
Y0055118
Y0062992
X0090551
Y0055118
X0062992Y0082677
X0055118
X0047244
Y0090551
X0055118
X0062992
X003937
X0031496
X0023622
X0015748
Y0082677
X0023622
X0031496
X003937
X0007874
X0
Y0090551
X0007874
X-0007874
X-0015748
X-0023622
X-0031496
X-003937
Y0082677
X-0031496
X-0023622
X-0015748
X-0007874
X-0047244
Y0090551
X-0055118
X-0062992
Y0082677
X-0055118
X-0082677Y0062992
Y0055118
X-0090551
Y0062992
Y0047244
Y003937
Y0031496
Y0023622
Y0015748
Y0007874
X-0082677
Y0015748
Y0023622
Y0031496
Y003937
Y0047244
Y0
Y-0007874
X-0090551
Y0
Y-0015748
Y-0023622
Y-0031496
Y-003937
X-0082677
Y-0031496
Y-0023622
Y-0015748
T06
X-0018Y-0063
X-0008
X0002
X00555Y-00315
Y-00215
Y-00115
Y-00015
Y00085
M30
