G04*
G04 #@! TF.GenerationSoftware,Altium Limited,Altium Designer,19.0.11 (319)*
G04*
G04 Layer_Color=16711935*
%FSLAX25Y25*%
%MOIN*%
G70*
G01*
G75*
G04:AMPARAMS|DCode=109|XSize=47.37mil|YSize=47.37mil|CornerRadius=23.68mil|HoleSize=0mil|Usage=FLASHONLY|Rotation=0.000|XOffset=0mil|YOffset=0mil|HoleType=Round|Shape=RoundedRectangle|*
%AMROUNDEDRECTD109*
21,1,0.04737,0.00000,0,0,0.0*
21,1,0.00000,0.04737,0,0,0.0*
1,1,0.04737,0.00000,0.00000*
1,1,0.04737,0.00000,0.00000*
1,1,0.04737,0.00000,0.00000*
1,1,0.04737,0.00000,0.00000*
%
%ADD109ROUNDEDRECTD109*%
%ADD111R,0.06312X0.04737*%
%ADD117R,0.04737X0.06312*%
%ADD129R,0.05524X0.03950*%
%ADD130R,0.03950X0.05524*%
%ADD134C,0.02800*%
%ADD138P,0.07360X8X67.5*%
%ADD139P,0.11690X8X247.5*%
%ADD144P,0.07360X8X337.5*%
%ADD146P,0.11690X8X157.5*%
%ADD148P,0.09092X8X67.5*%
%ADD149P,0.09092X8X337.5*%
%ADD150R,0.08477X0.08477*%
%ADD154P,0.06866X8X67.5*%
%ADD197R,0.02965X0.06706*%
%ADD198R,0.07099X0.07887*%
%ADD199R,0.07099X0.08674*%
%ADD200R,0.07887X0.07099*%
%ADD201R,0.08674X0.07099*%
%ADD202R,0.06312X0.02847*%
%ADD203R,0.06706X0.02965*%
%ADD204R,0.03162X0.03162*%
%ADD205C,0.18422*%
%ADD206C,0.26296*%
%ADD207C,0.03524*%
%ADD208P,0.07360X8X67.5*%
%ADD209O,0.30236X0.21377*%
%ADD210C,0.12000*%
%ADD211C,0.12518*%
%ADD212C,0.40800*%
%ADD213P,0.07360X8X337.5*%
%ADD214C,0.16062*%
%ADD215C,0.14800*%
%ADD216P,0.10824X8X67.5*%
%ADD217P,0.10824X8X337.5*%
%ADD218C,0.10154*%
%ADD219C,0.06218*%
%ADD220C,0.06674*%
D109*
X383081Y53200D02*
D03*
X589066Y525200D02*
D03*
X330316Y372600D02*
D03*
X219631Y514270D02*
D03*
D111*
X409247Y186900D02*
D03*
X400585Y190640D02*
D03*
Y183160D02*
D03*
X409247Y171900D02*
D03*
X400585Y175640D02*
D03*
Y168160D02*
D03*
X409247Y156900D02*
D03*
X400585Y160640D02*
D03*
Y153160D02*
D03*
X409247Y141900D02*
D03*
X400585Y145640D02*
D03*
Y138160D02*
D03*
D117*
X360516Y57169D02*
D03*
X364256Y65831D02*
D03*
X356776D02*
D03*
X239216Y77131D02*
D03*
X235476Y68469D02*
D03*
X242956D02*
D03*
X209216Y77131D02*
D03*
X205476Y68469D02*
D03*
X212956D02*
D03*
X315516Y57169D02*
D03*
X319256Y65831D02*
D03*
X311776D02*
D03*
X220476Y54331D02*
D03*
X227956D02*
D03*
X224216Y45669D02*
D03*
X345516Y57169D02*
D03*
X349256Y65831D02*
D03*
X341776D02*
D03*
X346081Y454369D02*
D03*
X349821Y463031D02*
D03*
X342341D02*
D03*
X330516Y57169D02*
D03*
X334256Y65831D02*
D03*
X326776D02*
D03*
X306516Y454447D02*
D03*
X310256Y463109D02*
D03*
X302776D02*
D03*
X270516Y57169D02*
D03*
X274256Y65831D02*
D03*
X266776D02*
D03*
X285516Y57169D02*
D03*
X289256Y65831D02*
D03*
X281776D02*
D03*
X255081Y57200D02*
D03*
X258821Y65862D02*
D03*
X251341D02*
D03*
X300516Y57169D02*
D03*
X304256Y65831D02*
D03*
X296776D02*
D03*
D129*
X367516Y246857D02*
D03*
Y253943D02*
D03*
X313016Y72957D02*
D03*
Y80043D02*
D03*
X328016Y72957D02*
D03*
Y80043D02*
D03*
X553926Y226957D02*
D03*
Y234043D02*
D03*
X345516Y42957D02*
D03*
Y50043D02*
D03*
X220116Y76343D02*
D03*
Y69257D02*
D03*
X305516Y72957D02*
D03*
Y80043D02*
D03*
X249216Y26957D02*
D03*
Y34043D02*
D03*
X315516Y42957D02*
D03*
Y50043D02*
D03*
X167081Y460244D02*
D03*
Y467330D02*
D03*
X358016Y72957D02*
D03*
Y80043D02*
D03*
X350516Y72957D02*
D03*
Y80043D02*
D03*
X365516Y72957D02*
D03*
Y80043D02*
D03*
X547226Y234243D02*
D03*
Y227157D02*
D03*
X360516Y42957D02*
D03*
Y50043D02*
D03*
X235216Y48357D02*
D03*
Y55443D02*
D03*
X228316Y76343D02*
D03*
Y69257D02*
D03*
X198116Y41043D02*
D03*
Y33957D02*
D03*
X343016Y72957D02*
D03*
Y80043D02*
D03*
X360316Y253843D02*
D03*
Y246757D02*
D03*
X484726Y64443D02*
D03*
Y57357D02*
D03*
X323516Y50043D02*
D03*
Y42957D02*
D03*
X308516Y50043D02*
D03*
Y42957D02*
D03*
X283016Y72957D02*
D03*
Y80043D02*
D03*
X300516Y42957D02*
D03*
Y50043D02*
D03*
X278516D02*
D03*
Y42957D02*
D03*
X259516Y148357D02*
D03*
Y155443D02*
D03*
X335516Y72957D02*
D03*
Y80043D02*
D03*
X293516Y50043D02*
D03*
Y42957D02*
D03*
X228316Y91743D02*
D03*
Y84657D02*
D03*
X263516Y50043D02*
D03*
Y42957D02*
D03*
X268016Y72957D02*
D03*
Y80043D02*
D03*
X298016Y72957D02*
D03*
Y80043D02*
D03*
X320516Y72957D02*
D03*
Y80043D02*
D03*
X338516Y50043D02*
D03*
Y42957D02*
D03*
X330516D02*
D03*
Y50043D02*
D03*
X268716Y148357D02*
D03*
Y155443D02*
D03*
X275516Y72957D02*
D03*
Y80043D02*
D03*
X270516Y42957D02*
D03*
Y50043D02*
D03*
X219916Y95043D02*
D03*
Y87957D02*
D03*
X212716D02*
D03*
Y95043D02*
D03*
X239216Y84657D02*
D03*
Y91743D02*
D03*
X374516Y246857D02*
D03*
Y253943D02*
D03*
X290516Y72957D02*
D03*
Y80043D02*
D03*
X381616Y246857D02*
D03*
Y253943D02*
D03*
X285516Y42957D02*
D03*
Y50043D02*
D03*
X353516D02*
D03*
Y42957D02*
D03*
X260516Y72957D02*
D03*
Y80043D02*
D03*
X248516Y50043D02*
D03*
Y42957D02*
D03*
X255516D02*
D03*
Y50043D02*
D03*
X253016Y72957D02*
D03*
Y80043D02*
D03*
X213216Y55443D02*
D03*
Y48357D02*
D03*
D130*
X578159Y43500D02*
D03*
X571073D02*
D03*
X591673Y233110D02*
D03*
X598759D02*
D03*
X495659Y98300D02*
D03*
X488573D02*
D03*
X591573Y226410D02*
D03*
X598659D02*
D03*
X151495Y476700D02*
D03*
X158581D02*
D03*
X495559Y387100D02*
D03*
X488473D02*
D03*
X349427Y470700D02*
D03*
X342341D02*
D03*
X495659Y230300D02*
D03*
X488573D02*
D03*
X356624Y385700D02*
D03*
X349538D02*
D03*
X495659Y338100D02*
D03*
X488573D02*
D03*
X458283Y49000D02*
D03*
X465369D02*
D03*
X495659Y186400D02*
D03*
X488573D02*
D03*
X574669Y211500D02*
D03*
X567583D02*
D03*
X425583Y104600D02*
D03*
X432669D02*
D03*
X470683Y49000D02*
D03*
X477769D02*
D03*
X302776Y478778D02*
D03*
X309862D02*
D03*
X495159Y495600D02*
D03*
X488073D02*
D03*
X390112Y383700D02*
D03*
X383027D02*
D03*
X425483Y96700D02*
D03*
X432569D02*
D03*
X425483Y112000D02*
D03*
X432569D02*
D03*
X393759Y171900D02*
D03*
X386673D02*
D03*
X425373Y169900D02*
D03*
X432459D02*
D03*
X281059Y138000D02*
D03*
X273973D02*
D03*
X425373Y179900D02*
D03*
X432459D02*
D03*
X342341Y478700D02*
D03*
X349427D02*
D03*
X432459Y159900D02*
D03*
X425373D02*
D03*
X393459Y186900D02*
D03*
X386373D02*
D03*
X309862Y471278D02*
D03*
X302776D02*
D03*
X281059Y121100D02*
D03*
X273973D02*
D03*
X432569Y119700D02*
D03*
X425483D02*
D03*
X273973Y128600D02*
D03*
X281059D02*
D03*
X393759Y141900D02*
D03*
X386673D02*
D03*
X393759Y156900D02*
D03*
X386673D02*
D03*
X432459Y149900D02*
D03*
X425373D02*
D03*
D134*
X583916Y520700D02*
D03*
X561316Y464800D02*
D03*
Y479800D02*
D03*
X552316Y432800D02*
D03*
Y422800D02*
D03*
X561316Y320800D02*
D03*
Y310800D02*
D03*
X553316Y280800D02*
D03*
X568316D02*
D03*
X553316Y270800D02*
D03*
X568316D02*
D03*
X560316Y168800D02*
D03*
Y158800D02*
D03*
X552316Y119800D02*
D03*
Y134800D02*
D03*
X520016Y528000D02*
D03*
X537316Y503800D02*
D03*
X543916Y520700D02*
D03*
X529316Y454800D02*
D03*
X536316Y406800D02*
D03*
Y391800D02*
D03*
X537316Y344800D02*
D03*
Y359800D02*
D03*
X528316Y239800D02*
D03*
Y254800D02*
D03*
X545316Y183800D02*
D03*
Y198800D02*
D03*
X528316Y144800D02*
D03*
X545316Y168800D02*
D03*
Y158800D02*
D03*
X537316Y79800D02*
D03*
Y94800D02*
D03*
X521116Y54600D02*
D03*
X535416Y39100D02*
D03*
X511416Y503200D02*
D03*
X487816Y487400D02*
D03*
X496416Y160700D02*
D03*
X513216Y143300D02*
D03*
X496416Y158200D02*
D03*
X457316Y503800D02*
D03*
X471416Y496200D02*
D03*
X457316Y447800D02*
D03*
Y456800D02*
D03*
X481606Y432300D02*
D03*
Y438100D02*
D03*
X457316Y342800D02*
D03*
X465416Y351200D02*
D03*
X457316Y303800D02*
D03*
X480716Y280500D02*
D03*
X465016Y270200D02*
D03*
X471716Y270300D02*
D03*
X480716Y286500D02*
D03*
X457316Y192800D02*
D03*
X465416Y200700D02*
D03*
Y198200D02*
D03*
X457316Y151800D02*
D03*
X464516Y119900D02*
D03*
X473716Y120300D02*
D03*
X480916Y134500D02*
D03*
X425716Y504700D02*
D03*
X425916Y494700D02*
D03*
X431416Y520700D02*
D03*
X425916Y486700D02*
D03*
X449116Y447200D02*
D03*
X433916Y400700D02*
D03*
X447916Y296400D02*
D03*
X449716Y270200D02*
D03*
Y176400D02*
D03*
X449116Y142200D02*
D03*
X447916Y150600D02*
D03*
X441516Y119300D02*
D03*
X434116Y46200D02*
D03*
X408916Y494700D02*
D03*
Y486700D02*
D03*
Y478700D02*
D03*
X393916Y320700D02*
D03*
Y310700D02*
D03*
X408016Y135800D02*
D03*
X359916Y350700D02*
D03*
X359416Y360200D02*
D03*
X383416Y335200D02*
D03*
X376616Y159400D02*
D03*
X376516Y127600D02*
D03*
X375616Y118300D02*
D03*
X384116Y94700D02*
D03*
X352416Y328700D02*
D03*
X352516Y223650D02*
D03*
X327916Y214200D02*
D03*
X329116Y199800D02*
D03*
X335716Y128200D02*
D03*
X345016Y110400D02*
D03*
X329516Y95100D02*
D03*
X354116Y38700D02*
D03*
X297716Y408500D02*
D03*
X295716Y350100D02*
D03*
X320316Y206900D02*
D03*
X305416Y95100D02*
D03*
X281216Y406500D02*
D03*
X271916Y383700D02*
D03*
X279916D02*
D03*
X287916D02*
D03*
X264081Y350700D02*
D03*
X263081Y317700D02*
D03*
X264216Y182500D02*
D03*
X289416Y55300D02*
D03*
X226016Y95400D02*
D03*
X224416Y64400D02*
D03*
X584316Y69800D02*
D03*
X561316Y474800D02*
D03*
Y469800D02*
D03*
Y459800D02*
D03*
X552316Y442800D02*
D03*
Y437800D02*
D03*
Y427800D02*
D03*
X561316Y325800D02*
D03*
Y315800D02*
D03*
Y305800D02*
D03*
X553316Y290800D02*
D03*
X568316D02*
D03*
X553316Y285800D02*
D03*
X568316D02*
D03*
X553316Y275800D02*
D03*
X568316D02*
D03*
X567916Y221400D02*
D03*
X560316Y163800D02*
D03*
Y153800D02*
D03*
Y148800D02*
D03*
X552316Y129800D02*
D03*
Y124800D02*
D03*
Y114800D02*
D03*
X537316Y513800D02*
D03*
Y508800D02*
D03*
Y498800D02*
D03*
Y493800D02*
D03*
X529316Y429800D02*
D03*
X536316Y401800D02*
D03*
Y396800D02*
D03*
Y386800D02*
D03*
X537316Y354800D02*
D03*
Y349800D02*
D03*
Y339800D02*
D03*
X529316Y301800D02*
D03*
Y277800D02*
D03*
X528316Y249800D02*
D03*
Y244800D02*
D03*
Y234800D02*
D03*
X545316Y203800D02*
D03*
Y193800D02*
D03*
Y188800D02*
D03*
Y163800D02*
D03*
Y153800D02*
D03*
Y148800D02*
D03*
X528316Y121800D02*
D03*
X537316Y99800D02*
D03*
Y89800D02*
D03*
Y84800D02*
D03*
X544316Y69800D02*
D03*
X543716Y35100D02*
D03*
X513416Y445700D02*
D03*
X513616Y427800D02*
D03*
X513316Y292800D02*
D03*
X513416Y275000D02*
D03*
X496416Y155700D02*
D03*
Y153200D02*
D03*
X513416Y125500D02*
D03*
X504316Y69800D02*
D03*
X511716Y60900D02*
D03*
X471416Y498700D02*
D03*
Y493700D02*
D03*
X457316Y450800D02*
D03*
Y453800D02*
D03*
X481706Y441000D02*
D03*
X481606Y435200D02*
D03*
X480116Y418900D02*
D03*
X464516Y420900D02*
D03*
X471716Y421100D02*
D03*
X464116Y402400D02*
D03*
X465416Y353700D02*
D03*
X457316Y345800D02*
D03*
X465416Y348700D02*
D03*
X457316Y339800D02*
D03*
Y306800D02*
D03*
Y297800D02*
D03*
Y300800D02*
D03*
X480716Y289400D02*
D03*
Y283500D02*
D03*
Y277800D02*
D03*
X480016Y267800D02*
D03*
X457416Y259800D02*
D03*
X463416Y251400D02*
D03*
X465416Y195700D02*
D03*
X457316Y186800D02*
D03*
Y189800D02*
D03*
Y154800D02*
D03*
Y145800D02*
D03*
Y148800D02*
D03*
X471516Y139800D02*
D03*
X480916Y140300D02*
D03*
Y137500D02*
D03*
Y131500D02*
D03*
Y129000D02*
D03*
X455716Y113500D02*
D03*
X481816Y51300D02*
D03*
X457516Y53400D02*
D03*
X473816Y52800D02*
D03*
X479616Y54000D02*
D03*
X423916Y525700D02*
D03*
X431416D02*
D03*
X423916Y515700D02*
D03*
X431416D02*
D03*
X425916Y490700D02*
D03*
Y482700D02*
D03*
X433616Y419600D02*
D03*
X433916Y370700D02*
D03*
Y340700D02*
D03*
X447816Y299400D02*
D03*
X449716Y294000D02*
D03*
X439616Y201000D02*
D03*
X423916Y190000D02*
D03*
X432616Y90200D02*
D03*
X424516Y27000D02*
D03*
X408916Y490700D02*
D03*
Y482700D02*
D03*
X393916Y474700D02*
D03*
X408916D02*
D03*
X393916Y315700D02*
D03*
Y305700D02*
D03*
X417316Y198000D02*
D03*
X407416Y181800D02*
D03*
X407816Y162550D02*
D03*
X393816Y164500D02*
D03*
X393216Y89200D02*
D03*
X408316Y67200D02*
D03*
X401216Y50700D02*
D03*
X383416Y337700D02*
D03*
Y330200D02*
D03*
Y332700D02*
D03*
X367516Y250400D02*
D03*
X369116Y225900D02*
D03*
X369916Y229900D02*
D03*
X384516Y228800D02*
D03*
X360316Y220200D02*
D03*
X384316Y209800D02*
D03*
X367816Y212800D02*
D03*
X376716Y163900D02*
D03*
X375816Y156100D02*
D03*
X376516Y124800D02*
D03*
X385916Y125400D02*
D03*
X361616Y107400D02*
D03*
X368716Y109200D02*
D03*
X329216Y172100D02*
D03*
X345916Y163400D02*
D03*
X329916Y164900D02*
D03*
X343916Y155400D02*
D03*
X344416Y106200D02*
D03*
X337516Y60400D02*
D03*
X297616Y401500D02*
D03*
X296616Y392900D02*
D03*
X304216Y163100D02*
D03*
X306081Y139300D02*
D03*
X312216Y92500D02*
D03*
X321416D02*
D03*
X298016Y37900D02*
D03*
X281216Y404400D02*
D03*
X287416Y405500D02*
D03*
X272416Y397200D02*
D03*
X271916Y386700D02*
D03*
X279916D02*
D03*
X287916D02*
D03*
X271916Y377700D02*
D03*
X279916D02*
D03*
X287916D02*
D03*
X271916Y380700D02*
D03*
X279916D02*
D03*
X287916D02*
D03*
X272316Y365800D02*
D03*
X289316Y186500D02*
D03*
X289616Y162200D02*
D03*
X280616Y149100D02*
D03*
X263916Y60300D02*
D03*
X257316Y377400D02*
D03*
X241416Y370700D02*
D03*
X233916Y373200D02*
D03*
X231416Y370700D02*
D03*
X614316Y359800D02*
D03*
Y199800D02*
D03*
Y79800D02*
D03*
X563916Y520700D02*
D03*
X566316Y464800D02*
D03*
Y479800D02*
D03*
X562316Y432800D02*
D03*
X567316D02*
D03*
X562316Y422800D02*
D03*
X567316D02*
D03*
X566316Y320800D02*
D03*
Y310800D02*
D03*
X563316Y280800D02*
D03*
Y270800D02*
D03*
X565316Y168800D02*
D03*
Y158800D02*
D03*
X562316Y119800D02*
D03*
Y134800D02*
D03*
X567316Y119800D02*
D03*
Y134800D02*
D03*
X556316Y464800D02*
D03*
Y479800D02*
D03*
X557316Y422800D02*
D03*
X556316Y320800D02*
D03*
Y310800D02*
D03*
X558316Y280800D02*
D03*
Y270800D02*
D03*
X555316Y168800D02*
D03*
Y158800D02*
D03*
X557316Y119800D02*
D03*
Y134800D02*
D03*
X547316Y503800D02*
D03*
X546316Y464800D02*
D03*
Y479800D02*
D03*
X551316Y464800D02*
D03*
Y479800D02*
D03*
X547316Y432800D02*
D03*
Y422800D02*
D03*
X546316Y391800D02*
D03*
X547316Y344800D02*
D03*
Y359800D02*
D03*
X546316Y320800D02*
D03*
Y310800D02*
D03*
X551316Y320800D02*
D03*
Y310800D02*
D03*
X548316Y280800D02*
D03*
Y270800D02*
D03*
Y239800D02*
D03*
Y254800D02*
D03*
X547426Y223500D02*
D03*
X550316Y168800D02*
D03*
Y158800D02*
D03*
X547316Y119800D02*
D03*
Y134800D02*
D03*
Y79800D02*
D03*
Y94800D02*
D03*
X542316Y503800D02*
D03*
X541316Y406800D02*
D03*
Y391800D02*
D03*
X542316Y344800D02*
D03*
Y359800D02*
D03*
X538316Y239800D02*
D03*
Y254800D02*
D03*
X543316Y239800D02*
D03*
Y254800D02*
D03*
X540316Y183800D02*
D03*
Y198800D02*
D03*
X542316Y79800D02*
D03*
Y94800D02*
D03*
X532316Y503800D02*
D03*
Y454800D02*
D03*
X535316D02*
D03*
X531316Y406800D02*
D03*
Y391800D02*
D03*
X532316Y344800D02*
D03*
Y359800D02*
D03*
X533316Y239800D02*
D03*
Y254800D02*
D03*
X530316Y183800D02*
D03*
Y198800D02*
D03*
X535316Y183800D02*
D03*
Y198800D02*
D03*
X531316Y144800D02*
D03*
X534316D02*
D03*
X532316Y79800D02*
D03*
Y94800D02*
D03*
X523916Y520700D02*
D03*
X527316Y503800D02*
D03*
X523316Y454800D02*
D03*
X526316D02*
D03*
Y406800D02*
D03*
Y391800D02*
D03*
X527316Y344800D02*
D03*
Y359800D02*
D03*
X525316Y183800D02*
D03*
Y198800D02*
D03*
X522316Y144800D02*
D03*
X525316D02*
D03*
X527316Y79800D02*
D03*
Y94800D02*
D03*
X525416Y54700D02*
D03*
X506416Y495700D02*
D03*
Y520700D02*
D03*
Y510700D02*
D03*
X507216Y143300D02*
D03*
X510216D02*
D03*
X509016Y46600D02*
D03*
X498916Y520700D02*
D03*
Y510700D02*
D03*
Y160700D02*
D03*
Y158200D02*
D03*
X491416Y520700D02*
D03*
Y510700D02*
D03*
X493916Y160700D02*
D03*
Y158200D02*
D03*
X493516Y32300D02*
D03*
X483916Y520700D02*
D03*
X476416D02*
D03*
X468916Y496200D02*
D03*
Y520700D02*
D03*
X466316Y447800D02*
D03*
Y456800D02*
D03*
X467916Y351200D02*
D03*
X466316Y303800D02*
D03*
X467916Y200700D02*
D03*
Y198200D02*
D03*
X466316Y151800D02*
D03*
X469916Y111000D02*
D03*
X460316Y503800D02*
D03*
X463316D02*
D03*
X461416Y520700D02*
D03*
X460316Y447800D02*
D03*
Y456800D02*
D03*
X463316Y447800D02*
D03*
Y456800D02*
D03*
X462916Y351200D02*
D03*
X460316Y303800D02*
D03*
X463316D02*
D03*
X458616Y270200D02*
D03*
X462916Y200700D02*
D03*
Y198200D02*
D03*
X460316Y151800D02*
D03*
X463316D02*
D03*
X458716Y119900D02*
D03*
X453916Y520700D02*
D03*
X451516Y440400D02*
D03*
X452716Y310800D02*
D03*
X452116Y159000D02*
D03*
X452516Y119900D02*
D03*
X446416Y520700D02*
D03*
X446116Y447000D02*
D03*
X445516Y286800D02*
D03*
X447316Y263400D02*
D03*
X446716Y144200D02*
D03*
X445316Y111700D02*
D03*
X445516Y136300D02*
D03*
X435616Y262400D02*
D03*
X438916Y192500D02*
D03*
X430916Y494700D02*
D03*
Y486700D02*
D03*
X427716Y128400D02*
D03*
X430816Y135600D02*
D03*
X420916Y478700D02*
D03*
X415216Y504700D02*
D03*
X413916Y494700D02*
D03*
Y478700D02*
D03*
X413416Y358400D02*
D03*
X410416Y166600D02*
D03*
X412516Y136000D02*
D03*
X403916Y494700D02*
D03*
X406416Y520700D02*
D03*
Y510700D02*
D03*
X403916Y486700D02*
D03*
Y478700D02*
D03*
X397916Y335700D02*
D03*
X396416Y318200D02*
D03*
X397616Y328200D02*
D03*
X395516Y216200D02*
D03*
X387916Y303700D02*
D03*
X388116Y127400D02*
D03*
X380916Y335200D02*
D03*
X380416Y296700D02*
D03*
Y294200D02*
D03*
X382916D02*
D03*
X370416Y350700D02*
D03*
X371116Y215400D02*
D03*
X373716Y152800D02*
D03*
X374216Y167000D02*
D03*
X373016Y120400D02*
D03*
X365416Y350700D02*
D03*
X365016Y208100D02*
D03*
X362216Y110700D02*
D03*
X357916Y336200D02*
D03*
X358916Y319200D02*
D03*
X355516Y198600D02*
D03*
Y142100D02*
D03*
X356416Y54200D02*
D03*
X350316Y86100D02*
D03*
X341716Y208400D02*
D03*
Y95400D02*
D03*
X331316Y326200D02*
D03*
X335216Y206800D02*
D03*
X331816Y120000D02*
D03*
X315316Y478800D02*
D03*
X326116Y199800D02*
D03*
X316516Y191000D02*
D03*
X317716Y199800D02*
D03*
X306216Y375000D02*
D03*
X303216Y159600D02*
D03*
X294316Y408500D02*
D03*
X292516Y350100D02*
D03*
X291716Y191900D02*
D03*
X283916Y383700D02*
D03*
X286016Y136400D02*
D03*
X275916Y383700D02*
D03*
X274916Y366600D02*
D03*
X278516Y367600D02*
D03*
X256081Y129700D02*
D03*
X246316Y56500D02*
D03*
X238116Y360100D02*
D03*
X228316Y80600D02*
D03*
X220116D02*
D03*
X213916Y528200D02*
D03*
X203116Y63500D02*
D03*
X178916Y71200D02*
D03*
X614316Y499800D02*
D03*
Y389800D02*
D03*
Y229800D02*
D03*
X594316Y499800D02*
D03*
X582226Y213400D02*
D03*
X571116Y211200D02*
D03*
X575216Y35200D02*
D03*
X566316Y474800D02*
D03*
Y469800D02*
D03*
Y459800D02*
D03*
X562316Y442800D02*
D03*
X567316D02*
D03*
X562316Y437800D02*
D03*
X567316D02*
D03*
X562316Y427800D02*
D03*
X567316D02*
D03*
X566316Y325800D02*
D03*
Y315800D02*
D03*
Y305800D02*
D03*
X563316Y290800D02*
D03*
Y285800D02*
D03*
Y275800D02*
D03*
X565316Y163800D02*
D03*
Y153800D02*
D03*
Y148800D02*
D03*
X562316Y129800D02*
D03*
X567316D02*
D03*
X562316Y124800D02*
D03*
X567316D02*
D03*
X562316Y114800D02*
D03*
X567316D02*
D03*
X564316Y69800D02*
D03*
X556316Y474800D02*
D03*
Y469800D02*
D03*
Y459800D02*
D03*
X557316Y442800D02*
D03*
Y437800D02*
D03*
Y427800D02*
D03*
X556316Y325800D02*
D03*
Y315800D02*
D03*
Y305800D02*
D03*
X558316Y290800D02*
D03*
Y285800D02*
D03*
Y275800D02*
D03*
X556926Y218000D02*
D03*
X555316Y163800D02*
D03*
Y153800D02*
D03*
Y148800D02*
D03*
X557316Y129800D02*
D03*
Y124800D02*
D03*
Y114800D02*
D03*
X547316Y513800D02*
D03*
Y508800D02*
D03*
Y498800D02*
D03*
Y493800D02*
D03*
X546316Y474800D02*
D03*
X551316D02*
D03*
X546316Y469800D02*
D03*
X551316D02*
D03*
X546316Y459800D02*
D03*
X551316D02*
D03*
X547316Y442800D02*
D03*
Y437800D02*
D03*
Y427800D02*
D03*
X546316Y396800D02*
D03*
Y386800D02*
D03*
X547316Y354800D02*
D03*
Y349800D02*
D03*
Y339800D02*
D03*
X546316Y325800D02*
D03*
X551316D02*
D03*
X546316Y315800D02*
D03*
X551316D02*
D03*
X546316Y305800D02*
D03*
X551316D02*
D03*
X548316Y290800D02*
D03*
Y285800D02*
D03*
Y275800D02*
D03*
Y249800D02*
D03*
Y244800D02*
D03*
X550316Y163800D02*
D03*
Y153800D02*
D03*
Y148800D02*
D03*
X547316Y129800D02*
D03*
Y124800D02*
D03*
Y114800D02*
D03*
Y99800D02*
D03*
Y89800D02*
D03*
Y84800D02*
D03*
X548216Y25500D02*
D03*
X542316Y513800D02*
D03*
Y508800D02*
D03*
Y498800D02*
D03*
Y493800D02*
D03*
X541316Y401800D02*
D03*
Y396800D02*
D03*
Y386800D02*
D03*
X542316Y354800D02*
D03*
Y349800D02*
D03*
Y339800D02*
D03*
X538316Y249800D02*
D03*
X543316D02*
D03*
X538316Y244800D02*
D03*
X543316D02*
D03*
X538316Y234800D02*
D03*
X540316Y203800D02*
D03*
Y193800D02*
D03*
Y188800D02*
D03*
X542316Y99800D02*
D03*
Y89800D02*
D03*
Y84800D02*
D03*
X532316Y513800D02*
D03*
Y508800D02*
D03*
Y498800D02*
D03*
Y493800D02*
D03*
Y429800D02*
D03*
X535316D02*
D03*
X531316Y401800D02*
D03*
Y396800D02*
D03*
Y386800D02*
D03*
X532316Y354800D02*
D03*
Y349800D02*
D03*
Y339800D02*
D03*
Y301800D02*
D03*
X535316D02*
D03*
X532316Y277800D02*
D03*
X535316D02*
D03*
X533316Y249800D02*
D03*
Y244800D02*
D03*
Y234800D02*
D03*
X530316Y203800D02*
D03*
X535316D02*
D03*
X530316Y193800D02*
D03*
X535316D02*
D03*
X530316Y188800D02*
D03*
X535316D02*
D03*
X531316Y121800D02*
D03*
X534316D02*
D03*
X532316Y99800D02*
D03*
Y89800D02*
D03*
Y84800D02*
D03*
X530316Y61000D02*
D03*
X531316Y52700D02*
D03*
X531216Y28700D02*
D03*
X534916Y25100D02*
D03*
X527316Y513800D02*
D03*
Y508800D02*
D03*
Y498800D02*
D03*
Y493800D02*
D03*
X523316Y429800D02*
D03*
X526316D02*
D03*
Y401800D02*
D03*
Y396800D02*
D03*
Y386800D02*
D03*
X527316Y354800D02*
D03*
Y349800D02*
D03*
Y339800D02*
D03*
X523316Y301800D02*
D03*
X526316D02*
D03*
X523316Y277800D02*
D03*
X526316D02*
D03*
X525316Y203800D02*
D03*
Y193800D02*
D03*
Y188800D02*
D03*
X522316Y121800D02*
D03*
X525316D02*
D03*
X527316Y99800D02*
D03*
Y89800D02*
D03*
Y84800D02*
D03*
X524316Y69800D02*
D03*
X526416Y36900D02*
D03*
X516316Y53700D02*
D03*
X506416Y525700D02*
D03*
Y515700D02*
D03*
X508116Y445700D02*
D03*
X510816D02*
D03*
X508316Y427800D02*
D03*
X511016D02*
D03*
X507316Y292800D02*
D03*
X510316D02*
D03*
X507416Y275000D02*
D03*
X510416D02*
D03*
X507416Y125500D02*
D03*
X510416D02*
D03*
X498916Y525700D02*
D03*
Y515700D02*
D03*
Y155700D02*
D03*
Y153200D02*
D03*
X491416Y525700D02*
D03*
Y515700D02*
D03*
X493916Y155700D02*
D03*
Y153200D02*
D03*
X490516Y27600D02*
D03*
X483916Y525700D02*
D03*
Y515700D02*
D03*
X484316Y379800D02*
D03*
Y219800D02*
D03*
Y99800D02*
D03*
X484516Y53700D02*
D03*
X476416Y525700D02*
D03*
Y515700D02*
D03*
X468916Y525700D02*
D03*
Y515700D02*
D03*
X466416Y498700D02*
D03*
X468916D02*
D03*
X466416Y493700D02*
D03*
X468916D02*
D03*
X466316Y450800D02*
D03*
Y453800D02*
D03*
X467916Y353700D02*
D03*
Y348700D02*
D03*
X466316Y306800D02*
D03*
Y297800D02*
D03*
Y300800D02*
D03*
X467916Y195700D02*
D03*
X466316Y154800D02*
D03*
Y145800D02*
D03*
Y148800D02*
D03*
X461416Y525700D02*
D03*
Y515700D02*
D03*
X460316Y450800D02*
D03*
Y453800D02*
D03*
X463316Y450800D02*
D03*
Y453800D02*
D03*
X458616Y420800D02*
D03*
X459616Y379200D02*
D03*
X462916Y353700D02*
D03*
Y348700D02*
D03*
X460316Y306800D02*
D03*
X463316D02*
D03*
X460316Y297800D02*
D03*
Y300800D02*
D03*
X463316Y297800D02*
D03*
Y300800D02*
D03*
X460416Y218500D02*
D03*
X462916Y195700D02*
D03*
X460316Y154800D02*
D03*
X463316D02*
D03*
X460316Y145800D02*
D03*
Y148800D02*
D03*
X463316Y145800D02*
D03*
Y148800D02*
D03*
X462116Y75200D02*
D03*
X453916Y525700D02*
D03*
Y515700D02*
D03*
X452616Y481100D02*
D03*
X454616Y484400D02*
D03*
X455316Y428400D02*
D03*
Y81800D02*
D03*
X451716Y73900D02*
D03*
X446416Y525700D02*
D03*
Y515700D02*
D03*
X443716Y467850D02*
D03*
X446116Y453600D02*
D03*
X444916Y300000D02*
D03*
X445516Y291000D02*
D03*
X442316Y169000D02*
D03*
X446116Y125800D02*
D03*
X439116Y450000D02*
D03*
X438716Y309000D02*
D03*
X435716Y165500D02*
D03*
X435816Y115800D02*
D03*
X430916Y490700D02*
D03*
Y482700D02*
D03*
X431216Y283600D02*
D03*
X430816Y138600D02*
D03*
X430116Y131700D02*
D03*
X413916Y525700D02*
D03*
X413081Y514700D02*
D03*
X413916Y482700D02*
D03*
Y474700D02*
D03*
X415116Y362700D02*
D03*
X412916Y193900D02*
D03*
X410216Y74700D02*
D03*
X406416Y525700D02*
D03*
Y515700D02*
D03*
X403916Y490700D02*
D03*
Y482700D02*
D03*
Y474700D02*
D03*
X406716Y194900D02*
D03*
X405316Y130600D02*
D03*
X398916Y474700D02*
D03*
X396416Y313200D02*
D03*
Y308200D02*
D03*
X396916Y58800D02*
D03*
X388916Y474700D02*
D03*
X387916Y341200D02*
D03*
X387616Y300900D02*
D03*
X389916Y186400D02*
D03*
X386616Y163500D02*
D03*
X389516Y166000D02*
D03*
X390216Y141900D02*
D03*
X387916Y130500D02*
D03*
X390416Y89200D02*
D03*
Y84600D02*
D03*
X380916Y337700D02*
D03*
Y330200D02*
D03*
Y332700D02*
D03*
X380416Y291700D02*
D03*
Y98500D02*
D03*
X379216Y81400D02*
D03*
X382316Y77500D02*
D03*
X382816Y69400D02*
D03*
X374516Y250400D02*
D03*
X371516Y204300D02*
D03*
X371416Y201600D02*
D03*
X374016Y170900D02*
D03*
X370916Y141600D02*
D03*
X373716Y139200D02*
D03*
X370516Y122600D02*
D03*
X372016Y125200D02*
D03*
X371116Y106800D02*
D03*
X363816Y105200D02*
D03*
X354416Y348700D02*
D03*
X354216Y180700D02*
D03*
X354816Y155400D02*
D03*
X357416Y105200D02*
D03*
X354316Y93000D02*
D03*
X358816D02*
D03*
X354316Y29800D02*
D03*
X350116Y107200D02*
D03*
X346716Y83200D02*
D03*
X342616Y244800D02*
D03*
X339916Y222000D02*
D03*
X331216Y321900D02*
D03*
X330616Y179700D02*
D03*
X334716Y177800D02*
D03*
X332316Y172800D02*
D03*
X333616Y124700D02*
D03*
X326116Y164000D02*
D03*
X326416Y155700D02*
D03*
X322816Y60100D02*
D03*
X328081Y362700D02*
D03*
X314716Y353000D02*
D03*
X318016Y140300D02*
D03*
X315516Y92500D02*
D03*
X318316D02*
D03*
X318016Y37800D02*
D03*
X308116Y92500D02*
D03*
X308016Y60200D02*
D03*
X299016Y387300D02*
D03*
X303166Y139300D02*
D03*
X294416Y401500D02*
D03*
X291116Y395600D02*
D03*
X294116Y347800D02*
D03*
X293216Y195500D02*
D03*
X283216Y396800D02*
D03*
X283916Y386700D02*
D03*
Y377700D02*
D03*
Y380700D02*
D03*
X274916Y413400D02*
D03*
X278216D02*
D03*
X274616Y405400D02*
D03*
X276716D02*
D03*
X278716Y396700D02*
D03*
X275916Y386700D02*
D03*
Y377700D02*
D03*
Y380700D02*
D03*
X274316Y148300D02*
D03*
X278516Y60400D02*
D03*
X268116Y413200D02*
D03*
X271316Y413300D02*
D03*
X243916Y373200D02*
D03*
X245716Y361500D02*
D03*
X245316Y89600D02*
D03*
X244316Y29800D02*
D03*
X236416Y370700D02*
D03*
X238916Y373200D02*
D03*
X203081Y60700D02*
D03*
X337016Y454000D02*
D03*
X328816D02*
D03*
X331616D02*
D03*
X334216D02*
D03*
X354081Y478700D02*
D03*
X109081Y359700D02*
D03*
X268081Y313700D02*
D03*
X264081Y340700D02*
D03*
X310716Y412800D02*
D03*
X302016Y165300D02*
D03*
X303116Y169300D02*
D03*
X313416Y175000D02*
D03*
X325116Y96200D02*
D03*
X583316Y236600D02*
D03*
X309716Y174600D02*
D03*
X324116Y93500D02*
D03*
X588016Y226200D02*
D03*
X174081Y467330D02*
D03*
X177081D02*
D03*
X218081Y441700D02*
D03*
X222081Y438700D02*
D03*
X131081Y396700D02*
D03*
X95081Y86094D02*
D03*
X121081Y92700D02*
D03*
X134081Y84700D02*
D03*
X125081Y118700D02*
D03*
X183816Y101200D02*
D03*
X395116Y103200D02*
D03*
X352216Y135600D02*
D03*
X404116Y102600D02*
D03*
X399316Y107400D02*
D03*
X349316Y139000D02*
D03*
X140081Y99700D02*
D03*
X137081Y96700D02*
D03*
X119081Y106700D02*
D03*
X386081D02*
D03*
X377116Y115800D02*
D03*
X389716Y114600D02*
D03*
X318316Y106000D02*
D03*
X310081Y112968D02*
D03*
X330334Y132782D02*
D03*
X311081Y105700D02*
D03*
X315081D02*
D03*
X310081Y126700D02*
D03*
X328416Y121000D02*
D03*
X325016Y138900D02*
D03*
X327616Y141800D02*
D03*
X139081Y113700D02*
D03*
Y93700D02*
D03*
X125081Y121700D02*
D03*
X285216Y199600D02*
D03*
X258081Y183700D02*
D03*
X362316Y152600D02*
D03*
Y149700D02*
D03*
Y146800D02*
D03*
Y143600D02*
D03*
X196566Y167216D02*
D03*
X179081Y160700D02*
D03*
X80531Y173700D02*
D03*
X177081Y157700D02*
D03*
X258081Y106700D02*
D03*
X262016Y103000D02*
D03*
X81081Y119700D02*
D03*
X84081D02*
D03*
X141081Y131700D02*
D03*
X132081Y127700D02*
D03*
X71081Y134700D02*
D03*
X151081Y170700D02*
D03*
X148081Y150700D02*
D03*
X95081Y134700D02*
D03*
X86081D02*
D03*
X81081D02*
D03*
X66081D02*
D03*
X96081Y174700D02*
D03*
X45081Y458700D02*
D03*
Y448700D02*
D03*
Y438700D02*
D03*
Y428700D02*
D03*
X51081Y463700D02*
D03*
Y453700D02*
D03*
Y443700D02*
D03*
Y433700D02*
D03*
X57081Y428700D02*
D03*
Y458700D02*
D03*
X63081Y463700D02*
D03*
Y433700D02*
D03*
X69081Y428700D02*
D03*
Y458700D02*
D03*
X75081Y463700D02*
D03*
X74081Y433700D02*
D03*
X81081Y428700D02*
D03*
X87081Y433700D02*
D03*
X93081Y428700D02*
D03*
X99081Y433700D02*
D03*
X81081Y458700D02*
D03*
X87081Y463700D02*
D03*
X93081Y458700D02*
D03*
X99081Y463700D02*
D03*
Y453700D02*
D03*
Y443700D02*
D03*
X105081Y428700D02*
D03*
X111081Y433700D02*
D03*
X117081Y428700D02*
D03*
X123081Y433700D02*
D03*
X129081Y428700D02*
D03*
X105081Y438700D02*
D03*
Y448700D02*
D03*
Y458700D02*
D03*
X111081Y443700D02*
D03*
Y453700D02*
D03*
Y463700D02*
D03*
X117081Y458700D02*
D03*
Y448700D02*
D03*
Y438700D02*
D03*
X123081Y443700D02*
D03*
Y453700D02*
D03*
Y463700D02*
D03*
X129081Y438700D02*
D03*
Y448700D02*
D03*
X135081Y433700D02*
D03*
Y443700D02*
D03*
X136081Y453700D02*
D03*
X364416Y309700D02*
D03*
X360916D02*
D03*
X367916D02*
D03*
X380416Y299200D02*
D03*
X382916Y296700D02*
D03*
Y291700D02*
D03*
X350897Y293600D02*
D03*
X382916Y299200D02*
D03*
X194081Y190700D02*
D03*
X198404Y165377D02*
D03*
X202081Y161700D02*
D03*
X200242Y163539D02*
D03*
X302081Y130700D02*
D03*
X289081Y119700D02*
D03*
X187081Y176700D02*
D03*
X444081Y67700D02*
D03*
Y48700D02*
D03*
X473716Y75300D02*
D03*
X326081Y331700D02*
D03*
X323081D02*
D03*
X355081Y369700D02*
D03*
Y372700D02*
D03*
X187416Y101200D02*
D03*
X279081Y109900D02*
D03*
X287081Y116700D02*
D03*
X288081Y113700D02*
D03*
X282066Y109900D02*
D03*
X361416Y180350D02*
D03*
X98081Y86094D02*
D03*
X99081Y81700D02*
D03*
Y77700D02*
D03*
X393081Y360700D02*
D03*
X397081D02*
D03*
X393081Y355700D02*
D03*
X397081D02*
D03*
X393081Y350700D02*
D03*
X397081D02*
D03*
X393081Y346700D02*
D03*
X397081D02*
D03*
X240316Y360100D02*
D03*
X236016D02*
D03*
X267916Y366000D02*
D03*
X269416Y367500D02*
D03*
X268616Y358900D02*
D03*
X266416D02*
D03*
X391266Y147100D02*
D03*
X405716Y177550D02*
D03*
X408310Y177715D02*
D03*
X445401Y138986D02*
D03*
X371566Y65800D02*
D03*
X437716Y106800D02*
D03*
X471316Y84700D02*
D03*
X421516Y104100D02*
D03*
X471316Y86900D02*
D03*
X369266Y65800D02*
D03*
X440716Y461600D02*
D03*
X433916Y450550D02*
D03*
X435316Y452650D02*
D03*
X433916Y300150D02*
D03*
X435316Y298550D02*
D03*
X433916Y302250D02*
D03*
X430016Y128400D02*
D03*
X347316Y110400D02*
D03*
X363816Y180350D02*
D03*
X393666Y147100D02*
D03*
X406016Y147550D02*
D03*
X405516Y162550D02*
D03*
X432616Y87800D02*
D03*
Y92500D02*
D03*
X437716Y104600D02*
D03*
X345616Y177950D02*
D03*
X408081Y147700D02*
D03*
X345616Y180150D02*
D03*
X45081Y420700D02*
D03*
Y410700D02*
D03*
Y400700D02*
D03*
Y390700D02*
D03*
Y380700D02*
D03*
Y370700D02*
D03*
Y360700D02*
D03*
Y350700D02*
D03*
Y340700D02*
D03*
Y330700D02*
D03*
X51081Y325700D02*
D03*
Y335700D02*
D03*
Y345700D02*
D03*
Y355700D02*
D03*
Y365700D02*
D03*
Y375700D02*
D03*
Y385700D02*
D03*
Y395700D02*
D03*
Y405700D02*
D03*
Y415700D02*
D03*
X57081Y420700D02*
D03*
X69081D02*
D03*
X81081D02*
D03*
X93081D02*
D03*
X105081D02*
D03*
X117081D02*
D03*
X129081D02*
D03*
X57081Y390700D02*
D03*
Y380700D02*
D03*
Y370700D02*
D03*
Y360700D02*
D03*
Y350700D02*
D03*
Y340700D02*
D03*
Y330700D02*
D03*
X63081Y385700D02*
D03*
Y375700D02*
D03*
Y365700D02*
D03*
Y355700D02*
D03*
Y345700D02*
D03*
Y335700D02*
D03*
Y325700D02*
D03*
X69081Y390700D02*
D03*
Y380700D02*
D03*
Y370700D02*
D03*
Y360700D02*
D03*
Y350700D02*
D03*
Y340700D02*
D03*
Y330700D02*
D03*
X75081Y325700D02*
D03*
Y335700D02*
D03*
Y365700D02*
D03*
Y375700D02*
D03*
Y385700D02*
D03*
X81081Y390700D02*
D03*
Y380700D02*
D03*
Y370700D02*
D03*
Y340700D02*
D03*
Y330700D02*
D03*
X87081Y385700D02*
D03*
Y375700D02*
D03*
Y365700D02*
D03*
Y335700D02*
D03*
Y325700D02*
D03*
X93081Y330700D02*
D03*
Y340700D02*
D03*
Y350700D02*
D03*
Y360700D02*
D03*
Y370700D02*
D03*
Y380700D02*
D03*
Y390700D02*
D03*
X99081Y385700D02*
D03*
Y375700D02*
D03*
Y365700D02*
D03*
Y395700D02*
D03*
Y405700D02*
D03*
Y415700D02*
D03*
X105081Y410700D02*
D03*
Y400700D02*
D03*
Y390700D02*
D03*
Y380700D02*
D03*
Y370700D02*
D03*
X111081Y415700D02*
D03*
Y405700D02*
D03*
Y395700D02*
D03*
X117081Y410700D02*
D03*
X123081Y415700D02*
D03*
Y406700D02*
D03*
X241081Y470700D02*
D03*
Y460700D02*
D03*
Y450700D02*
D03*
Y440700D02*
D03*
X246081Y455700D02*
D03*
X256081D02*
D03*
X266081D02*
D03*
X251081Y460700D02*
D03*
X261081D02*
D03*
X251081Y451700D02*
D03*
X261081Y450700D02*
D03*
Y440700D02*
D03*
X266081Y445700D02*
D03*
X156081Y305700D02*
D03*
Y316700D02*
D03*
Y325700D02*
D03*
Y338700D02*
D03*
X165081D02*
D03*
Y325700D02*
D03*
Y316700D02*
D03*
X173081Y338700D02*
D03*
Y325700D02*
D03*
Y316700D02*
D03*
X180081Y338700D02*
D03*
Y332700D02*
D03*
Y325700D02*
D03*
Y316700D02*
D03*
Y310700D02*
D03*
Y305700D02*
D03*
X187081Y332700D02*
D03*
Y325700D02*
D03*
Y316700D02*
D03*
Y305700D02*
D03*
Y338700D02*
D03*
X219081Y380700D02*
D03*
Y373700D02*
D03*
X213081Y376700D02*
D03*
Y368700D02*
D03*
X207081Y372700D02*
D03*
Y363700D02*
D03*
X201081Y368700D02*
D03*
Y357700D02*
D03*
X196081Y363700D02*
D03*
Y352700D02*
D03*
X189081Y360700D02*
D03*
Y355700D02*
D03*
Y350700D02*
D03*
X151081Y279700D02*
D03*
Y269700D02*
D03*
Y259700D02*
D03*
X161081Y279700D02*
D03*
X171081D02*
D03*
X181081D02*
D03*
X191081D02*
D03*
X181081Y269700D02*
D03*
X191081D02*
D03*
X181081Y259700D02*
D03*
X191081D02*
D03*
X181081Y249700D02*
D03*
X191081D02*
D03*
X243081Y530700D02*
D03*
Y521700D02*
D03*
Y499700D02*
D03*
Y508700D02*
D03*
Y514700D02*
D03*
X252081Y519700D02*
D03*
Y514700D02*
D03*
Y510700D02*
D03*
X261081Y521700D02*
D03*
Y514700D02*
D03*
Y508700D02*
D03*
Y499700D02*
D03*
Y530700D02*
D03*
X271081D02*
D03*
Y521700D02*
D03*
Y514700D02*
D03*
Y508700D02*
D03*
Y499700D02*
D03*
X281081Y530700D02*
D03*
Y521700D02*
D03*
Y514700D02*
D03*
Y508700D02*
D03*
Y499700D02*
D03*
X291081Y530700D02*
D03*
Y521700D02*
D03*
Y514700D02*
D03*
Y508700D02*
D03*
Y499700D02*
D03*
X301081Y530700D02*
D03*
Y521700D02*
D03*
Y514700D02*
D03*
Y508700D02*
D03*
Y499700D02*
D03*
X311081Y521700D02*
D03*
Y514700D02*
D03*
Y508700D02*
D03*
Y499700D02*
D03*
X318081Y530700D02*
D03*
Y514700D02*
D03*
Y508700D02*
D03*
Y499700D02*
D03*
X146081Y540700D02*
D03*
X191081D02*
D03*
X231081D02*
D03*
X276081D02*
D03*
X322081D02*
D03*
X376081D02*
D03*
X426081D02*
D03*
X471081D02*
D03*
X506081D02*
D03*
X541081D02*
D03*
X581081D02*
D03*
X621081Y395700D02*
D03*
Y365700D02*
D03*
Y240700D02*
D03*
Y205700D02*
D03*
Y110700D02*
D03*
Y75700D02*
D03*
X46081Y151700D02*
D03*
Y129700D02*
D03*
Y102700D02*
D03*
Y80700D02*
D03*
X76081Y25700D02*
D03*
X101081D02*
D03*
X126081D02*
D03*
X146081D02*
D03*
X196081D02*
D03*
X261081D02*
D03*
X557294Y432800D02*
D03*
D138*
X417916Y189900D02*
D03*
Y139900D02*
D03*
X167081Y181700D02*
D03*
Y151700D02*
D03*
D139*
X482126Y197800D02*
D03*
Y243500D02*
D03*
Y504200D02*
D03*
Y349200D02*
D03*
Y396800D02*
D03*
Y88200D02*
D03*
D144*
X187316Y32032D02*
D03*
X157316D02*
D03*
X239216D02*
D03*
X209216D02*
D03*
D146*
X179081Y444700D02*
D03*
D148*
X444716Y93700D02*
D03*
X587816Y43500D02*
D03*
Y33500D02*
D03*
X226081Y159700D02*
D03*
Y119700D02*
D03*
X416816Y49800D02*
D03*
X502426Y57300D02*
D03*
D149*
X356481Y396865D02*
D03*
X346481D02*
D03*
X390112Y396669D02*
D03*
X380113D02*
D03*
X305294Y235267D02*
D03*
X430216Y211200D02*
D03*
D150*
X260081Y196015D02*
D03*
D154*
X588081Y59700D02*
D03*
X581081Y377700D02*
D03*
X321081Y273700D02*
D03*
X115081Y31700D02*
D03*
D197*
X158581Y446070D02*
D03*
X153581D02*
D03*
X148581D02*
D03*
X143581D02*
D03*
Y467330D02*
D03*
X148581D02*
D03*
X153581D02*
D03*
X158581D02*
D03*
D198*
X326989Y520850D02*
D03*
X315965D02*
D03*
D199*
X346289D02*
D03*
X335265D02*
D03*
D200*
X320816Y459388D02*
D03*
Y470412D02*
D03*
D201*
X332816Y459688D02*
D03*
Y470712D02*
D03*
D202*
X457183Y57300D02*
D03*
Y62300D02*
D03*
Y67300D02*
D03*
Y72300D02*
D03*
X476869D02*
D03*
Y67300D02*
D03*
Y62300D02*
D03*
Y57300D02*
D03*
D203*
X583256Y233100D02*
D03*
Y228100D02*
D03*
Y223100D02*
D03*
Y218100D02*
D03*
X561996D02*
D03*
Y223100D02*
D03*
Y228100D02*
D03*
Y233100D02*
D03*
D204*
X322805Y447700D02*
D03*
X313357D02*
D03*
X329357D02*
D03*
X338805D02*
D03*
D205*
X332420Y351409D02*
D03*
D206*
X154081Y524700D02*
D03*
D207*
X261516Y140300D02*
D03*
X266516D02*
D03*
X261516Y135300D02*
D03*
X266516D02*
D03*
X261516Y130300D02*
D03*
X266516D02*
D03*
X261516Y125300D02*
D03*
X266516D02*
D03*
X261516Y120300D02*
D03*
X266516D02*
D03*
D208*
X417916Y179900D02*
D03*
Y169900D02*
D03*
Y159900D02*
D03*
Y149900D02*
D03*
X167081Y171700D02*
D03*
Y161700D02*
D03*
D209*
X252081Y444952D02*
D03*
Y467393D02*
D03*
Y504007D02*
D03*
Y526448D02*
D03*
X165081Y250952D02*
D03*
Y273393D02*
D03*
Y310007D02*
D03*
Y332448D02*
D03*
D210*
X306396Y526464D02*
D03*
X345766Y536306D02*
D03*
X340845Y438078D02*
D03*
X311317D02*
D03*
X326081D02*
D03*
D211*
X56081Y228153D02*
D03*
X76081D02*
D03*
X197518Y274795D02*
D03*
Y254795D02*
D03*
X438116Y489000D02*
D03*
X418116D02*
D03*
Y520000D02*
D03*
X438116D02*
D03*
X219290Y254795D02*
D03*
Y274795D02*
D03*
X178916Y522000D02*
D03*
X198916D02*
D03*
X590916Y301500D02*
D03*
X610916D02*
D03*
X590916Y460800D02*
D03*
X610916D02*
D03*
X590916Y321500D02*
D03*
X610916D02*
D03*
X590916Y152300D02*
D03*
X610916D02*
D03*
X56081Y286814D02*
D03*
X76081D02*
D03*
X56081Y206381D02*
D03*
X76081D02*
D03*
X121967Y507700D02*
D03*
Y527700D02*
D03*
X56081Y308586D02*
D03*
X76081D02*
D03*
X100195Y507700D02*
D03*
Y527700D02*
D03*
X590916Y440800D02*
D03*
X610916D02*
D03*
X590916Y132300D02*
D03*
X610916D02*
D03*
D212*
X58081Y37700D02*
D03*
X608711Y529334D02*
D03*
X58081D02*
D03*
X608711Y37700D02*
D03*
D213*
X177316Y32032D02*
D03*
X167316D02*
D03*
X229216D02*
D03*
X219216D02*
D03*
D214*
X198404Y264794D02*
D03*
X218404D02*
D03*
X600916Y460800D02*
D03*
Y440800D02*
D03*
Y321500D02*
D03*
Y301500D02*
D03*
X101081Y517700D02*
D03*
X121081D02*
D03*
X600916Y152300D02*
D03*
Y132300D02*
D03*
X66081Y207267D02*
D03*
Y227267D02*
D03*
Y287700D02*
D03*
Y307700D02*
D03*
D215*
X502126Y197800D02*
D03*
Y243500D02*
D03*
Y504200D02*
D03*
Y349200D02*
D03*
Y396800D02*
D03*
Y88200D02*
D03*
X179081Y424700D02*
D03*
D216*
X444716Y103700D02*
D03*
X226081Y149700D02*
D03*
Y139700D02*
D03*
Y129700D02*
D03*
X416816Y119800D02*
D03*
Y109800D02*
D03*
Y99800D02*
D03*
Y89800D02*
D03*
Y79800D02*
D03*
Y69800D02*
D03*
Y59800D02*
D03*
X502426Y47300D02*
D03*
D217*
X375294Y235267D02*
D03*
X365294D02*
D03*
X355294D02*
D03*
X345294D02*
D03*
X335294D02*
D03*
X325294D02*
D03*
X315294D02*
D03*
X273016Y34000D02*
D03*
X283016D02*
D03*
X293016D02*
D03*
X303016D02*
D03*
X313016D02*
D03*
X323016D02*
D03*
X333016D02*
D03*
X343016D02*
D03*
X420216Y211200D02*
D03*
X410216D02*
D03*
D218*
X260081Y235385D02*
D03*
D219*
X379016Y36100D02*
D03*
X398701D02*
D03*
D220*
X375079Y25470D02*
D03*
X402638D02*
D03*
M02*
