G04*
G04 #@! TF.GenerationSoftware,Altium Limited,Altium Designer,19.0.11 (319)*
G04*
G04 Layer_Color=32896*
%FSLAX25Y25*%
%MOIN*%
G70*
G01*
G75*
%ADD12C,0.00680*%
%ADD16C,0.00600*%
%ADD17C,0.00500*%
D12*
X511649Y59199D02*
X512216Y58632D01*
X511649Y55800D02*
Y59199D01*
X511083Y55800D02*
X511649D01*
X511083D02*
X512216D01*
X239514Y27099D02*
X240081Y26532D01*
X239514Y23700D02*
Y27099D01*
X238948Y23700D02*
X239514D01*
X238948D02*
X240081D01*
X463749Y27999D02*
X464316Y27432D01*
X463749Y24600D02*
Y27999D01*
X463183Y24600D02*
X463749D01*
X463183D02*
X464316D01*
X377349Y452299D02*
X377916Y451732D01*
X377349Y448900D02*
Y452299D01*
X376783Y448900D02*
X377349D01*
X376783D02*
X377916D01*
X375849Y228099D02*
X376416Y227532D01*
X375849Y224700D02*
Y228099D01*
X375283Y224700D02*
X375849D01*
X375283D02*
X376416D01*
X445349Y87899D02*
X445916Y87332D01*
X445349Y84500D02*
Y87899D01*
X444783Y84500D02*
X445349D01*
X444783D02*
X445916D01*
X410449Y121299D02*
X411016Y120732D01*
X410449Y117900D02*
Y121299D01*
X409883Y117900D02*
X410449D01*
X409883D02*
X411016D01*
X274349Y27199D02*
X274916Y26632D01*
X274349Y23800D02*
Y27199D01*
X273783Y23800D02*
X274349D01*
X273783D02*
X274916D01*
X187514Y27099D02*
X188081Y26532D01*
X187514Y23700D02*
Y27099D01*
X186948Y23700D02*
X187514D01*
X186948D02*
X188081D01*
X588649Y52599D02*
X589216Y52032D01*
X588649Y49200D02*
Y52599D01*
X588083Y49200D02*
X588649D01*
X588083D02*
X589216D01*
X415449Y412699D02*
X416016Y412132D01*
X415449Y409300D02*
Y412699D01*
X414883Y409300D02*
X415449D01*
X414883D02*
X416016D01*
X410949Y204599D02*
X411516Y204032D01*
X410949Y201200D02*
Y204599D01*
X410383Y201200D02*
X410949D01*
X410383D02*
X411516D01*
D16*
X369878Y249219D02*
Y251581D01*
X365154Y249219D02*
Y251581D01*
X315378Y75319D02*
Y77681D01*
X310654Y75319D02*
Y77681D01*
X573435Y45862D02*
X575797D01*
X573435Y41138D02*
X575797D01*
X594035Y230748D02*
X596397D01*
X594035Y235472D02*
X596397D01*
X490935Y100662D02*
X493297D01*
X490935Y95938D02*
X493297D01*
X330378Y75319D02*
Y77681D01*
X325654Y75319D02*
Y77681D01*
X593935Y224048D02*
X596297D01*
X593935Y228772D02*
X596297D01*
X153857Y474338D02*
X156219D01*
X153857Y479062D02*
X156219D01*
X556288Y229319D02*
Y231681D01*
X551564Y229319D02*
Y231681D01*
X347878Y45319D02*
Y47681D01*
X343154Y45319D02*
Y47681D01*
X217754Y71619D02*
Y73981D01*
X222478Y71619D02*
Y73981D01*
X307878Y75319D02*
Y77681D01*
X303154Y75319D02*
Y77681D01*
X251578Y29319D02*
Y31681D01*
X246854Y29319D02*
Y31681D01*
X317878Y45319D02*
Y47681D01*
X313154Y45319D02*
Y47681D01*
X169443Y462606D02*
Y464968D01*
X164719Y462606D02*
Y464968D01*
X360378Y75319D02*
Y77681D01*
X355654Y75319D02*
Y77681D01*
X352878Y75319D02*
Y77681D01*
X348154Y75319D02*
Y77681D01*
X367878Y75319D02*
Y77681D01*
X363154Y75319D02*
Y77681D01*
X544864Y229519D02*
Y231881D01*
X549588Y229519D02*
Y231881D01*
X362878Y45319D02*
Y47681D01*
X358154Y45319D02*
Y47681D01*
X354916Y58900D02*
Y62100D01*
Y58900D02*
X357116D01*
X366116D02*
Y62100D01*
X363916Y58900D02*
X366116D01*
X237578Y50719D02*
Y53081D01*
X232854Y50719D02*
Y53081D01*
X404316Y181300D02*
X407516D01*
Y183500D01*
X404316Y192500D02*
X407516D01*
Y190300D02*
Y192500D01*
X225954Y71619D02*
Y73981D01*
X230678Y71619D02*
Y73981D01*
X244816Y72200D02*
Y75400D01*
X242616D02*
X244816D01*
X233616Y72200D02*
Y75400D01*
X235816D01*
X214816Y72200D02*
Y75400D01*
X212616D02*
X214816D01*
X203616Y72200D02*
Y75400D01*
X205816D01*
X195754Y36319D02*
Y38681D01*
X200478Y36319D02*
Y38681D01*
X490835Y389462D02*
X493197D01*
X490835Y384738D02*
X493197D01*
X344703Y473062D02*
X347065D01*
X344703Y468338D02*
X347065D01*
X345378Y75319D02*
Y77681D01*
X340654Y75319D02*
Y77681D01*
X357954Y249119D02*
Y251481D01*
X362678Y249119D02*
Y251481D01*
X490935Y232662D02*
X493297D01*
X490935Y227938D02*
X493297D01*
X351900Y388062D02*
X354262D01*
X351900Y383338D02*
X354262D01*
X490935Y340462D02*
X493297D01*
X490935Y335738D02*
X493297D01*
X460645Y46638D02*
X463007D01*
X460645Y51362D02*
X463007D01*
X490935Y188762D02*
X493297D01*
X490935Y184038D02*
X493297D01*
X482364Y59719D02*
Y62081D01*
X487088Y59719D02*
Y62081D01*
X569945Y213862D02*
X572307D01*
X569945Y209138D02*
X572307D01*
X309916Y58900D02*
Y62100D01*
Y58900D02*
X312116D01*
X321116D02*
Y62100D01*
X318916Y58900D02*
X321116D01*
X227616Y47400D02*
X229816D01*
Y50600D01*
X218616Y47400D02*
X220816D01*
X218616D02*
Y50600D01*
X427945Y102238D02*
X430307D01*
X427945Y106962D02*
X430307D01*
X473045Y46638D02*
X475407D01*
X473045Y51362D02*
X475407D01*
X330516Y29000D02*
X335516D01*
X338016Y31500D01*
Y36500D01*
X335516Y39000D02*
X338016Y36500D01*
X318016Y31500D02*
X320516Y29000D01*
X325516D01*
X328016Y31500D01*
Y36500D01*
X325516Y39000D02*
X328016Y36500D01*
X320516Y39000D02*
X325516D01*
X318016Y36500D02*
X320516Y39000D01*
X328016Y31500D02*
X330516Y29000D01*
X328016Y36500D02*
X330516Y39000D01*
X335516D01*
X300516Y29000D02*
X305516D01*
X308016Y31500D01*
Y36500D01*
X305516Y39000D02*
X308016Y36500D01*
Y31500D02*
X310516Y29000D01*
X315516D01*
X318016Y31500D01*
Y36500D01*
X315516Y39000D02*
X318016Y36500D01*
X310516Y39000D02*
X315516D01*
X308016Y36500D02*
X310516Y39000D01*
X288016Y31500D02*
X290516Y29000D01*
X295516D01*
X298016Y31500D01*
Y36500D01*
X295516Y39000D02*
X298016Y36500D01*
X290516Y39000D02*
X295516D01*
X288016Y36500D02*
X290516Y39000D01*
X298016Y31500D02*
X300516Y29000D01*
X298016Y36500D02*
X300516Y39000D01*
X305516D01*
X270516Y29000D02*
X275516D01*
X278016Y31500D01*
Y36500D01*
X275516Y39000D02*
X278016Y36500D01*
Y31500D02*
X280516Y29000D01*
X285516D01*
X288016Y31500D01*
Y36500D01*
X285516Y39000D02*
X288016Y36500D01*
X280516Y39000D02*
X285516D01*
X278016Y36500D02*
X280516Y39000D01*
X268016Y31500D02*
Y36500D01*
Y31500D02*
X270516Y29000D01*
X268016Y36500D02*
X270516Y39000D01*
X275516D01*
X340516Y29000D02*
X345516D01*
X348016Y31500D01*
Y36500D01*
X345516Y39000D02*
X348016Y36500D01*
X338016Y31500D02*
X340516Y29000D01*
X338016Y36500D02*
X340516Y39000D01*
X345516D01*
X321154Y45319D02*
Y47681D01*
X325878Y45319D02*
Y47681D01*
X306154Y45319D02*
Y47681D01*
X310878Y45319D02*
Y47681D01*
X285378Y75319D02*
Y77681D01*
X280654Y75319D02*
Y77681D01*
X305138Y476416D02*
X307500D01*
X305138Y481140D02*
X307500D01*
X302878Y45319D02*
Y47681D01*
X298154Y45319D02*
Y47681D01*
X460926Y74400D02*
X473126D01*
X460926Y55200D02*
X473126D01*
X276154Y45319D02*
Y47681D01*
X280878Y45319D02*
Y47681D01*
X261878Y150719D02*
Y153081D01*
X257154Y150719D02*
Y153081D01*
X490435Y497962D02*
X492797D01*
X490435Y493238D02*
X492797D01*
X337878Y75319D02*
Y77681D01*
X333154Y75319D02*
Y77681D01*
X291154Y45319D02*
Y47681D01*
X295878Y45319D02*
Y47681D01*
X339916Y58900D02*
Y62100D01*
Y58900D02*
X342116D01*
X351116D02*
Y62100D01*
X348916Y58900D02*
X351116D01*
X385388Y386062D02*
X387751D01*
X385388Y381338D02*
X387751D01*
X225954Y87019D02*
Y89381D01*
X230678Y87019D02*
Y89381D01*
X427845Y94338D02*
X430207D01*
X427845Y99062D02*
X430207D01*
X261154Y45319D02*
Y47681D01*
X265878Y45319D02*
Y47681D01*
X270378Y75319D02*
Y77681D01*
X265654Y75319D02*
Y77681D01*
X300378Y75319D02*
Y77681D01*
X295654Y75319D02*
Y77681D01*
X427845Y109638D02*
X430207D01*
X427845Y114362D02*
X430207D01*
X322878Y75319D02*
Y77681D01*
X318154Y75319D02*
Y77681D01*
X336154Y45319D02*
Y47681D01*
X340878Y45319D02*
Y47681D01*
X404316Y166300D02*
X407516D01*
Y168500D01*
X404316Y177500D02*
X407516D01*
Y175300D02*
Y177500D01*
X389035Y174262D02*
X391397D01*
X389035Y169538D02*
X391397D01*
X332878Y45319D02*
Y47681D01*
X328154Y45319D02*
Y47681D01*
X427735Y167538D02*
X430097D01*
X427735Y172262D02*
X430097D01*
X271078Y150719D02*
Y153081D01*
X266354Y150719D02*
Y153081D01*
X277878Y75319D02*
Y77681D01*
X273154Y75319D02*
Y77681D01*
X404316Y151300D02*
X407516D01*
Y153500D01*
X404316Y162500D02*
X407516D01*
Y160300D02*
Y162500D01*
X276335Y140362D02*
X278697D01*
X276335Y135638D02*
X278697D01*
X272878Y45319D02*
Y47681D01*
X268154Y45319D02*
Y47681D01*
X427735Y177538D02*
X430097D01*
X427735Y182262D02*
X430097D01*
X344703Y476338D02*
X347065D01*
X344703Y481062D02*
X347065D01*
X427735Y162262D02*
X430097D01*
X427735Y157538D02*
X430097D01*
X388735Y189262D02*
X391097D01*
X388735Y184538D02*
X391097D01*
X305138Y473640D02*
X307500D01*
X305138Y468916D02*
X307500D01*
X217554Y90319D02*
Y92681D01*
X222278Y90319D02*
Y92681D01*
X215078Y90319D02*
Y92681D01*
X210354Y90319D02*
Y92681D01*
X276335Y123462D02*
X278697D01*
X276335Y118738D02*
X278697D01*
X241578Y87019D02*
Y89381D01*
X236854Y87019D02*
Y89381D01*
X324916Y58900D02*
Y62100D01*
Y58900D02*
X327116D01*
X336116D02*
Y62100D01*
X333916Y58900D02*
X336116D01*
X376878Y249219D02*
Y251581D01*
X372154Y249219D02*
Y251581D01*
X427845Y122062D02*
X430207D01*
X427845Y117338D02*
X430207D01*
X276335Y126238D02*
X278697D01*
X276335Y130962D02*
X278697D01*
X264916Y58900D02*
Y62100D01*
Y58900D02*
X267116D01*
X276116D02*
Y62100D01*
X273916Y58900D02*
X276116D01*
X292878Y75319D02*
Y77681D01*
X288154Y75319D02*
Y77681D01*
X383978Y249219D02*
Y251581D01*
X379254Y249219D02*
Y251581D01*
X287878Y45319D02*
Y47681D01*
X283154Y45319D02*
Y47681D01*
X351154Y45319D02*
Y47681D01*
X355878Y45319D02*
Y47681D01*
X279916Y58900D02*
Y62100D01*
Y58900D02*
X282116D01*
X291116D02*
Y62100D01*
X288916Y58900D02*
X291116D01*
X389035Y144262D02*
X391397D01*
X389035Y139538D02*
X391397D01*
X262878Y75319D02*
Y77681D01*
X258154Y75319D02*
Y77681D01*
X404316Y136300D02*
X407516D01*
Y138500D01*
X404316Y147500D02*
X407516D01*
Y145300D02*
Y147500D01*
X389035Y159262D02*
X391397D01*
X389035Y154538D02*
X391397D01*
X246154Y45319D02*
Y47681D01*
X250878Y45319D02*
Y47681D01*
X427735Y152262D02*
X430097D01*
X427735Y147538D02*
X430097D01*
X249481Y58931D02*
Y62131D01*
Y58931D02*
X251681D01*
X260681D02*
Y62131D01*
X258481Y58931D02*
X260681D01*
X257878Y45319D02*
Y47681D01*
X253154Y45319D02*
Y47681D01*
X294916Y58900D02*
Y62100D01*
Y58900D02*
X297116D01*
X306116D02*
Y62100D01*
X303916Y58900D02*
X306116D01*
X255378Y75319D02*
Y77681D01*
X250654Y75319D02*
Y77681D01*
X210854Y50719D02*
Y53081D01*
X215578Y50719D02*
Y53081D01*
D17*
X285783Y121600D02*
Y123199D01*
X285383Y121200D02*
X285783Y121600D01*
X284583Y121200D02*
X285383D01*
X284183Y121600D02*
X284583Y121200D01*
X284183Y121600D02*
Y123199D01*
X284583Y123599D01*
X285383D01*
X285783Y123199D01*
X287782Y121200D02*
X288182Y121600D01*
X286982Y121200D02*
X287782D01*
X286582Y121600D02*
X286982Y121200D01*
X286582Y121600D02*
Y122000D01*
X286982Y122400D01*
X287382D01*
X286982D02*
X287382D01*
X286582Y122800D02*
X286982Y122400D01*
X286582Y122800D02*
Y123199D01*
X286982Y123599D01*
X287782D01*
X288182Y123199D01*
X288982Y121600D02*
X289381Y121200D01*
X290181D01*
X290581Y121600D01*
Y123199D01*
X290181Y123599D02*
X290581Y123199D01*
X289381Y123599D02*
X290181D01*
X288982Y123199D02*
X289381Y123599D01*
X259281Y163398D02*
Y164598D01*
Y163398D02*
X259681Y162998D01*
X260080D01*
X260480Y163398D01*
Y164198D01*
X260080Y164598D02*
X260480Y164198D01*
X258481Y164598D02*
X260080D01*
X258081Y164198D02*
X258481Y164598D01*
X258081Y163398D02*
Y164198D01*
Y163398D02*
X258481Y162998D01*
X260080Y160599D02*
X260480Y160999D01*
Y161799D01*
X260080Y162199D02*
X260480Y161799D01*
X259681Y162199D02*
X260080D01*
X258081Y160599D02*
X259681Y162199D01*
X258081Y160599D02*
Y162199D01*
Y159400D02*
X258481Y159800D01*
X258081Y158600D02*
Y159400D01*
Y158600D02*
X258481Y158200D01*
X260080D01*
X260480Y158600D01*
Y159400D01*
X260080Y159800D02*
X260480Y159400D01*
X285783Y127200D02*
Y127600D01*
X284183Y129199D02*
X285783Y127600D01*
X284183Y129199D02*
Y129599D01*
X285783D01*
X287782D02*
X288182Y129199D01*
X286982Y129599D02*
X287782D01*
X286582Y129199D02*
X286982Y129599D01*
X286582Y128799D02*
Y129199D01*
Y128799D02*
X288182Y127200D01*
X286582D02*
X288182D01*
X288982D02*
X289781Y128000D01*
X289381D02*
X290581D01*
X288982Y128400D02*
X289381Y128000D01*
X288982Y128400D02*
Y129199D01*
X289381Y129599D01*
X290581D01*
Y127200D02*
Y129599D01*
X268781Y163099D02*
Y164298D01*
X268381Y164698D02*
X268781Y164298D01*
X267981Y164698D02*
X268381D01*
X267581Y164298D02*
X267981Y164698D01*
X267581Y163498D02*
Y164298D01*
Y163498D02*
X267981Y163099D01*
X268781D01*
X269580Y163898D01*
X269980Y164698D01*
X269580Y161099D02*
X269980Y161499D01*
X267581D02*
X269980D01*
X267581D02*
Y161899D01*
Y161099D02*
Y161899D01*
Y160300D02*
X268381Y159500D01*
Y158700D02*
Y159900D01*
X268781Y160300D01*
X269580D01*
X269980Y159900D01*
Y158700D02*
Y159900D01*
X267581Y158700D02*
X269980D01*
X276283Y142200D02*
X276682Y142600D01*
X275483Y142200D02*
X276283D01*
X275083Y142600D02*
X275483Y142200D01*
X275083Y142600D02*
Y143400D01*
X275483Y143800D01*
X275883D01*
X276682Y143400D01*
Y144599D01*
X275083D02*
X276682D01*
X278282D02*
X278682Y144199D01*
X278282Y142200D02*
Y144599D01*
X277882Y142200D02*
X278282D01*
X277882D02*
X278682D01*
X279482D02*
X280281Y143000D01*
X279881D02*
X281081D01*
X279482Y143400D02*
X279881Y143000D01*
X279482Y143400D02*
Y144199D01*
X279881Y144599D01*
X281081D01*
Y142200D02*
Y144599D01*
X154182Y480700D02*
Y481100D01*
X152582Y482699D02*
X154182Y481100D01*
X152582Y482699D02*
Y483099D01*
X154182D01*
X154981Y481100D02*
X155381Y480700D01*
X156181D01*
X156581Y481100D01*
Y482699D01*
X156181Y483099D02*
X156581Y482699D01*
X155381Y483099D02*
X156181D01*
X154981Y482699D02*
X155381Y483099D01*
X540530Y229038D02*
X540930Y228639D01*
X540530Y229038D02*
Y229838D01*
X540930Y230238D01*
X541730D01*
X542130Y229838D01*
Y229438D02*
Y229838D01*
X541730Y228639D02*
X542130Y229438D01*
X541730Y228639D02*
X542929D01*
Y230238D01*
X542529Y226639D02*
X542929Y227039D01*
X540530D02*
X542929D01*
X540530D02*
Y227439D01*
Y226639D02*
Y227439D01*
Y225439D02*
X540930Y225839D01*
X540530Y224640D02*
Y225439D01*
Y224640D02*
X540930Y224240D01*
X542529D01*
X542929Y224640D01*
Y225439D01*
X542529Y225839D02*
X542929Y225439D01*
X553182Y237200D02*
Y237600D01*
X551582Y239199D02*
X553182Y237600D01*
X551582Y239199D02*
Y239599D01*
X553182D01*
X553981Y237200D02*
X554781Y238000D01*
X554381D02*
X555581D01*
X553981Y238400D02*
X554381Y238000D01*
X553981Y238400D02*
Y239199D01*
X554381Y239599D01*
X555581D01*
Y237200D02*
Y239599D01*
X591683Y220900D02*
X593283D01*
X592083Y222099D02*
X593283Y220900D01*
X592083Y219700D02*
Y222099D01*
X595282D02*
X595682Y221699D01*
X594482Y222099D02*
X595282D01*
X594082Y221699D02*
X594482Y222099D01*
X594082Y221300D02*
Y221699D01*
Y221300D02*
X595682Y219700D01*
X594082D02*
X595682D01*
X596482D02*
X597281Y220500D01*
X596881D02*
X598081D01*
X596482Y220900D02*
X596881Y220500D01*
X596482Y220900D02*
Y221699D01*
X596881Y222099D01*
X598081D01*
Y219700D02*
Y222099D01*
X592383Y237700D02*
X592783Y238100D01*
X591583Y237700D02*
X592383D01*
X591183Y238100D02*
X591583Y237700D01*
X591183Y238100D02*
Y238500D01*
X591583Y238900D01*
X591983D01*
X591583D02*
X591983D01*
X591183Y239300D02*
X591583Y238900D01*
X591183Y239300D02*
Y239699D01*
X591583Y240099D01*
X592383D01*
X592783Y239699D01*
X594782Y240099D02*
X595182Y239699D01*
X593982Y240099D02*
X594782D01*
X593582Y239699D02*
X593982Y240099D01*
X593582Y239300D02*
Y239699D01*
Y239300D02*
X595182Y237700D01*
X593582D02*
X595182D01*
X595982D02*
X596781Y238500D01*
X596381D02*
X597581D01*
X595982Y238900D02*
X596381Y238500D01*
X595982Y238900D02*
Y239699D01*
X596381Y240099D01*
X597581D01*
Y237700D02*
Y240099D01*
X195383Y46599D02*
X195783Y46199D01*
X195383Y44200D02*
Y46599D01*
X194983Y44200D02*
X195383D01*
X194983D02*
X195783D01*
X196982Y45400D02*
X198182D01*
X196582Y45000D02*
X196982Y45400D01*
X196582Y44600D02*
Y45000D01*
Y44600D02*
X196982Y44200D01*
X197782D01*
X198182Y44600D01*
Y45400D01*
X197382Y46199D02*
X198182Y45400D01*
X196582Y46599D02*
X197382Y46199D01*
X198982Y44600D02*
X199381Y44200D01*
X200181D01*
X200581Y44600D01*
Y46199D01*
X200181Y46599D02*
X200581Y46199D01*
X199381Y46599D02*
X200181D01*
X198982Y46199D02*
X199381Y46599D01*
X157480Y438800D02*
X157880Y439200D01*
X158680D01*
X159080Y438800D01*
Y438400D02*
Y438800D01*
X158680Y438000D02*
X159080Y438400D01*
X158280Y438000D02*
X158680D01*
X158280D02*
X158680D01*
X159080Y437600D01*
Y437201D02*
Y437600D01*
X158680Y436801D02*
X159080Y437201D01*
X157880Y436801D02*
X158680D01*
X157480Y437201D02*
X157880Y436801D01*
X156681D02*
Y438800D01*
X156281Y439200D02*
X156681Y438800D01*
X155481Y439200D02*
X156281D01*
X155081Y438800D02*
X155481Y439200D01*
X155081Y436801D02*
Y438800D01*
X575734Y236736D02*
X576134Y237136D01*
X574934Y236736D02*
X575734D01*
X574534Y237136D02*
X574934Y236736D01*
X574534Y237136D02*
Y237936D01*
X574934Y238335D01*
X575334D01*
X576134Y237936D01*
Y239135D01*
X574534D02*
X576134D01*
X576933Y237136D02*
Y239135D01*
Y237136D02*
X577333Y236736D01*
X578133D01*
X578533Y237136D01*
Y239135D01*
X316688Y475836D02*
X317488D01*
X317888Y476236D02*
Y476635D01*
X317488Y475836D02*
X317888Y476236D01*
X317488Y475836D02*
X317888Y475436D01*
Y475036D02*
Y475436D01*
X317488Y474636D02*
X317888Y475036D01*
X316688Y474636D02*
X317488D01*
X316288Y475036D02*
X316688Y474636D01*
X316288Y475036D02*
Y475436D01*
X316688Y475836D01*
X316288Y476236D02*
X316688Y475836D01*
X316288Y476236D02*
Y476635D01*
X316688Y477035D01*
X317488D01*
X317888Y476635D01*
X319887Y474636D02*
X320287Y475036D01*
X319088Y474636D02*
X319887D01*
X318688Y475036D02*
X319088Y474636D01*
X318688Y475036D02*
Y475436D01*
X319088Y475836D01*
X319487D01*
X319088D02*
X319487D01*
X318688Y476236D02*
X319088Y475836D01*
X318688Y476236D02*
Y476635D01*
X319088Y477035D01*
X319887D01*
X320287Y476635D01*
X321886Y477035D02*
X322286Y476635D01*
X321886Y474636D02*
Y477035D01*
X321487Y474636D02*
X321886D01*
X321487D02*
X322286D01*
X323086Y475036D02*
X323486Y474636D01*
X324286D01*
X324686Y475036D01*
Y476635D01*
X324286Y477035D02*
X324686Y476635D01*
X323486Y477035D02*
X324286D01*
X323086Y476635D02*
X323486Y477035D01*
X329084Y477400D02*
X329883D01*
X330283Y477799D02*
Y478199D01*
X329883Y477400D02*
X330283Y477799D01*
X329883Y477400D02*
X330283Y477000D01*
Y476600D02*
Y477000D01*
X329883Y476200D02*
X330283Y476600D01*
X329084Y476200D02*
X329883D01*
X328684Y476600D02*
X329084Y476200D01*
X328684Y476600D02*
Y477000D01*
X329084Y477400D01*
X328684Y477799D02*
X329084Y477400D01*
X328684Y477799D02*
Y478199D01*
X329084Y478599D01*
X329883D01*
X330283Y478199D01*
X332283Y476200D02*
X332682Y476600D01*
X331483Y476200D02*
X332283D01*
X331083Y476600D02*
X331483Y476200D01*
X331083Y476600D02*
Y477000D01*
X331483Y477400D01*
X331883D01*
X331483D02*
X331883D01*
X331083Y477799D02*
X331483Y477400D01*
X331083Y477799D02*
Y478199D01*
X331483Y478599D01*
X332283D01*
X332682Y478199D01*
X334282Y478599D02*
X334682Y478199D01*
X334282Y476200D02*
Y478599D01*
X333882Y476200D02*
X334282D01*
X333882D02*
X334682D01*
X335482D02*
X336281Y477000D01*
X335881D02*
X337081D01*
X335482Y477400D02*
X335881Y477000D01*
X335482Y477400D02*
Y478199D01*
X335881Y478599D01*
X337081D01*
Y476200D02*
Y478599D01*
X354781Y460999D02*
Y461799D01*
X355181Y460599D02*
X355580D01*
X354781Y460999D02*
X355181Y460599D01*
X354381D02*
X354781Y460999D01*
X353981Y460599D02*
X354381D01*
X353581Y460999D02*
X353981Y460599D01*
X353581Y460999D02*
Y461799D01*
X353981Y462199D01*
X354381D01*
X354781Y461799D01*
X355181Y462199D01*
X355580D01*
X355980Y461799D01*
Y460999D02*
Y461799D01*
X355580Y460599D02*
X355980Y460999D01*
X353581Y459400D02*
X353981Y459800D01*
X353581D02*
X354381Y459000D01*
X353581Y458600D02*
Y459400D01*
Y458600D02*
X353981Y458200D01*
X355580D01*
X355980Y458600D01*
Y459400D01*
X355580Y459800D02*
X355980Y459400D01*
X353981Y459800D02*
X355580D01*
X354383Y471599D02*
X354783Y471199D01*
X353584Y471599D02*
X354383D01*
X353184Y471199D02*
X353584Y471599D01*
X353184Y470800D02*
Y471199D01*
Y470800D02*
X354783Y469200D01*
X353184D02*
X354783D01*
X356783D02*
X357182Y469600D01*
X355983Y469200D02*
X356783D01*
X355583Y469600D02*
X355983Y469200D01*
X355583Y469600D02*
Y470000D01*
X355983Y470400D01*
X356383D01*
X355983D02*
X356383D01*
X355583Y470800D02*
X355983Y470400D01*
X355583Y470800D02*
Y471199D01*
X355983Y471599D01*
X356783D01*
X357182Y471199D01*
X358782Y471599D02*
X359182Y471199D01*
X358782Y469200D02*
Y471599D01*
X358382Y469200D02*
X358782D01*
X358382D02*
X359182D01*
X359981D02*
X360781Y470000D01*
X360381D02*
X361581D01*
X359981Y470400D02*
X360381Y470000D01*
X359981Y470400D02*
Y471199D01*
X360381Y471599D01*
X361581D01*
Y469200D02*
Y471599D01*
X333381Y436702D02*
Y437902D01*
Y436702D02*
X333781Y436302D01*
X334181D01*
X334581Y436702D01*
Y437502D01*
X334181Y437902D02*
X334581Y437502D01*
X333381Y437902D02*
X334181D01*
X332582Y437102D02*
X333381Y437902D01*
X332182Y436302D02*
X332582Y437102D01*
X334181Y440301D02*
X334581Y439901D01*
Y439101D02*
Y439901D01*
X334181Y438701D02*
X334581Y439101D01*
X333781Y438701D02*
X334181D01*
X333381Y439101D02*
X333781Y438701D01*
X333381Y439101D02*
Y439501D01*
Y439101D02*
Y439501D01*
X332981Y438701D02*
X333381Y439101D01*
X332582Y438701D02*
X332981D01*
X332182Y439101D02*
X332582Y438701D01*
X332182Y439101D02*
Y439901D01*
X332582Y440301D01*
X332182Y441500D02*
Y442700D01*
Y441500D02*
X332582Y441100D01*
X334181D01*
X334581Y441500D01*
Y442700D01*
X332182D02*
X334581D01*
X296981Y461599D02*
X298580D01*
X296581Y461998D02*
X296981Y461599D01*
X296581Y461998D02*
Y462798D01*
X296981Y463198D01*
X298580D01*
X298980Y462798D01*
Y461998D02*
Y462798D01*
X298580Y461599D02*
X298980Y461998D01*
X298580Y459599D02*
X298980Y459999D01*
X296581D02*
X298980D01*
X296581D02*
Y460399D01*
Y459599D02*
Y460399D01*
Y458400D02*
X296981Y458799D01*
X296581D02*
X297381Y458000D01*
X296581Y457600D02*
Y458400D01*
Y457600D02*
X296981Y457200D01*
X298580D01*
X298980Y457600D01*
Y458400D01*
X298580Y458799D02*
X298980Y458400D01*
X296981Y458799D02*
X298580D01*
X291584Y471400D02*
X292783D01*
X291184Y471000D02*
X291584Y471400D01*
X291184Y470600D02*
Y471000D01*
Y470600D02*
X291584Y470200D01*
X292383D01*
X292783Y470600D01*
Y471400D01*
X291984Y472199D02*
X292783Y471400D01*
X291184Y472599D02*
X291984Y472199D01*
X294783Y470200D02*
X295182Y470600D01*
X293983Y470200D02*
X294783D01*
X293583Y470600D02*
X293983Y470200D01*
X293583Y470600D02*
Y471000D01*
X293983Y471400D01*
X294383D01*
X293983D02*
X294383D01*
X293583Y471799D02*
X293983Y471400D01*
X293583Y471799D02*
Y472199D01*
X293983Y472599D01*
X294783D01*
X295182Y472199D01*
X296782Y472599D02*
X297182Y472199D01*
X296782Y470200D02*
Y472599D01*
X296382Y470200D02*
X296782D01*
X296382D02*
X297182D01*
X297982D02*
X298781Y471000D01*
X298381D02*
X299581D01*
X297982Y471400D02*
X298381Y471000D01*
X297982Y471400D02*
Y472199D01*
X298381Y472599D01*
X299581D01*
Y470200D02*
Y472599D01*
X317881Y437202D02*
Y438002D01*
X317082Y438402D02*
X317481D01*
X317881Y438002D01*
X318281Y438402D01*
X318681D01*
X319081Y438002D01*
Y437202D02*
Y438002D01*
X318681Y436802D02*
X319081Y437202D01*
X318281Y436802D02*
X318681D01*
X317881Y437202D02*
X318281Y436802D01*
X317481D02*
X317881Y437202D01*
X317082Y436802D02*
X317481D01*
X316682Y437202D02*
X317082Y436802D01*
X316682Y437202D02*
Y438002D01*
X317082Y438402D01*
X318681Y440801D02*
X319081Y440401D01*
Y439601D02*
Y440401D01*
X318681Y439201D02*
X319081Y439601D01*
X318281Y439201D02*
X318681D01*
X317881Y439601D02*
X318281Y439201D01*
X317881Y439601D02*
Y440001D01*
Y439601D02*
Y440001D01*
X317481Y439201D02*
X317881Y439601D01*
X317082Y439201D02*
X317481D01*
X316682Y439601D02*
X317082Y439201D01*
X316682Y439601D02*
Y440401D01*
X317082Y440801D01*
X316682Y442000D02*
Y443200D01*
Y442000D02*
X317082Y441600D01*
X318681D01*
X319081Y442000D01*
Y443200D01*
X316682D02*
X319081D01*
X342383Y485099D02*
X342783Y484699D01*
X342383Y482700D02*
Y485099D01*
X341984Y482700D02*
X342383D01*
X341984D02*
X342783D01*
X344783D02*
X345182Y483100D01*
X343983Y482700D02*
X344783D01*
X343583Y483100D02*
X343983Y482700D01*
X343583Y483100D02*
Y483500D01*
X343983Y483900D01*
X344383D01*
X343983D02*
X344383D01*
X343583Y484299D02*
X343983Y483900D01*
X343583Y484299D02*
Y484699D01*
X343983Y485099D01*
X344783D01*
X345182Y484699D01*
X346782Y485099D02*
X347182Y484699D01*
X346782Y482700D02*
Y485099D01*
X346382Y482700D02*
X346782D01*
X346382D02*
X347182D01*
X347982D02*
X348781Y483500D01*
X348381D02*
X349581D01*
X347982Y483900D02*
X348381Y483500D01*
X347982Y483900D02*
Y484699D01*
X348381Y485099D01*
X349581D01*
Y482700D02*
Y485099D01*
X302383Y483200D02*
X302783Y483600D01*
X301584Y483200D02*
X302383D01*
X301184Y483600D02*
X301584Y483200D01*
X301184Y483600D02*
Y484400D01*
X301584Y484800D01*
X301984D01*
X302783Y484400D01*
Y485599D01*
X301184D02*
X302783D01*
X304783Y483200D02*
X305182Y483600D01*
X303983Y483200D02*
X304783D01*
X303583Y483600D02*
X303983Y483200D01*
X303583Y483600D02*
Y484000D01*
X303983Y484400D01*
X304383D01*
X303983D02*
X304383D01*
X303583Y484800D02*
X303983Y484400D01*
X303583Y484800D02*
Y485199D01*
X303983Y485599D01*
X304783D01*
X305182Y485199D01*
X306782Y485599D02*
X307182Y485199D01*
X306782Y483200D02*
Y485599D01*
X306382Y483200D02*
X306782D01*
X306382D02*
X307182D01*
X307981D02*
X308781Y484000D01*
X308381D02*
X309581D01*
X307981Y484400D02*
X308381Y484000D01*
X307981Y484400D02*
Y485199D01*
X308381Y485599D01*
X309581D01*
Y483200D02*
Y485599D01*
X467980Y76200D02*
Y76600D01*
X469580Y78199D01*
Y78599D01*
X467980D02*
X469580D01*
X467180Y76600D02*
Y78599D01*
X466781Y76200D02*
X467180Y76600D01*
X465981Y76200D02*
X466781D01*
X465581Y76600D02*
X465981Y76200D01*
X465581Y76600D02*
Y78599D01*
X488581Y61898D02*
X488981Y61498D01*
X488581Y61898D02*
Y62698D01*
X488981Y63098D01*
X489781D01*
X490180Y62698D01*
Y62298D02*
Y62698D01*
X489781Y61498D02*
X490180Y62298D01*
X489781Y61498D02*
X490980D01*
Y63098D01*
X490580Y59099D02*
X490980Y59499D01*
Y60299D01*
X490580Y60699D02*
X490980Y60299D01*
X490180Y60699D02*
X490580D01*
X488581Y59099D02*
X490180Y60699D01*
X488581Y59099D02*
Y60699D01*
Y58300D02*
X489381Y57500D01*
Y56700D02*
Y57900D01*
X489781Y58300D01*
X490580D01*
X490980Y57900D01*
Y56700D02*
Y57900D01*
X488581Y56700D02*
X490980D01*
X459083Y43900D02*
X460283D01*
X458683Y43500D02*
X459083Y43900D01*
X458683Y43100D02*
Y43500D01*
Y43100D02*
X459083Y42700D01*
X459883D01*
X460283Y43100D01*
Y43900D01*
X459483Y44699D02*
X460283Y43900D01*
X458683Y45099D02*
X459483Y44699D01*
X462282Y45099D02*
X462682Y44699D01*
X461482Y45099D02*
X462282D01*
X461082Y44699D02*
X461482Y45099D01*
X461082Y44299D02*
Y44699D01*
Y44299D02*
X462682Y42700D01*
X461082D02*
X462682D01*
X463482D02*
X464281Y43500D01*
X463881D02*
X465081D01*
X463482Y43900D02*
X463881Y43500D01*
X463482Y43900D02*
Y44699D01*
X463881Y45099D01*
X465081D01*
Y42700D02*
Y45099D01*
X471583Y43900D02*
X472383D01*
X472783Y44299D02*
Y44699D01*
X472383Y43900D02*
X472783Y44299D01*
X472383Y43900D02*
X472783Y43500D01*
Y43100D02*
Y43500D01*
X472383Y42700D02*
X472783Y43100D01*
X471583Y42700D02*
X472383D01*
X471183Y43100D02*
X471583Y42700D01*
X471183Y43100D02*
Y43500D01*
X471583Y43900D01*
X471183Y44299D02*
X471583Y43900D01*
X471183Y44299D02*
Y44699D01*
X471583Y45099D01*
X472383D01*
X472783Y44699D01*
X474782Y45099D02*
X475182Y44699D01*
X473982Y45099D02*
X474782D01*
X473582Y44699D02*
X473982Y45099D01*
X473582Y44299D02*
Y44699D01*
Y44299D02*
X475182Y42700D01*
X473582D02*
X475182D01*
X475982Y43100D02*
X476381Y42700D01*
X477181D01*
X477581Y43100D01*
Y44699D01*
X477181Y45099D02*
X477581Y44699D01*
X476381Y45099D02*
X477181D01*
X475982Y44699D02*
X476381Y45099D01*
X567006Y207249D02*
X567406Y206849D01*
X567006Y204850D02*
Y207249D01*
X566606Y204850D02*
X567006D01*
X566606D02*
X567406D01*
X569005Y207249D02*
X569405Y206849D01*
X569005Y204850D02*
Y207249D01*
X568605Y204850D02*
X569005D01*
X568605D02*
X569405D01*
X570205D02*
X571004Y205650D01*
X570605D02*
X571804D01*
X570205Y206050D02*
X570605Y205650D01*
X570205Y206050D02*
Y206849D01*
X570605Y207249D01*
X571804D01*
Y204850D02*
Y207249D01*
X168580Y475099D02*
X168980Y475498D01*
Y476298D01*
X168580Y476698D02*
X168980Y476298D01*
X168181Y476698D02*
X168580D01*
X166581Y475099D02*
X168181Y476698D01*
X166581Y475099D02*
Y476698D01*
X168580Y473099D02*
X168980Y473499D01*
X166581D02*
X168980D01*
X166581D02*
Y473899D01*
Y473099D02*
Y473899D01*
Y472300D02*
X167381Y471500D01*
Y470700D02*
Y471900D01*
X167781Y472300D01*
X168580D01*
X168980Y471900D01*
Y470700D02*
Y471900D01*
X166581Y470700D02*
X168980D01*
X253166Y28753D02*
X253566Y28353D01*
X253166Y28753D02*
Y29552D01*
X253566Y29952D01*
X253965D01*
X254365Y29552D01*
Y29152D02*
Y29552D01*
Y29152D02*
Y29552D01*
X254765Y29952D01*
X255165D01*
X255565Y29552D01*
Y28753D02*
Y29552D01*
X255165Y28353D02*
X255565Y28753D01*
X254365Y25954D02*
Y27153D01*
X253965Y27553D02*
X254365Y27153D01*
X253566Y27553D02*
X253965D01*
X253166Y27153D02*
X253566Y27553D01*
X253166Y26354D02*
Y27153D01*
Y26354D02*
X253566Y25954D01*
X254365D01*
X255165Y26753D01*
X255565Y27553D01*
X253166Y24754D02*
X253566Y25154D01*
X253166Y23954D02*
Y24754D01*
Y23954D02*
X253566Y23554D01*
X255165D01*
X255565Y23954D01*
Y24754D01*
X255165Y25154D02*
X255565Y24754D01*
X238282Y61700D02*
X238682Y62100D01*
X237482Y61700D02*
X238282D01*
X237082Y62100D02*
X237482Y61700D01*
X237082Y62100D02*
Y62900D01*
X237482Y63299D01*
X237882D01*
X238682Y62900D01*
Y64099D01*
X237082D02*
X238682D01*
X239881D02*
X241081D01*
X239481Y63699D02*
X239881Y64099D01*
X239481Y62100D02*
Y63699D01*
Y62100D02*
X239881Y61700D01*
X241081D01*
Y64099D01*
X237981Y99498D02*
X239580D01*
X237581Y99898D02*
X237981Y99498D01*
X237581Y99898D02*
Y100698D01*
X237981Y101098D01*
X239580D01*
X239980Y100698D01*
Y99898D02*
Y100698D01*
X239580Y99498D02*
X239980Y99898D01*
X237581Y97499D02*
X237981Y97099D01*
X237581Y97499D02*
Y98299D01*
X237981Y98699D01*
X238781D01*
X239181Y98299D01*
Y97899D02*
Y98299D01*
X238781Y97099D02*
X239181Y97899D01*
X238781Y97099D02*
X239980D01*
Y98699D01*
X237581Y96299D02*
X238381Y95500D01*
Y94700D02*
Y95900D01*
X238781Y96299D01*
X239580D01*
X239980Y95900D01*
Y94700D02*
Y95900D01*
X237581Y94700D02*
X239980D01*
X229281Y99898D02*
Y100698D01*
X229681Y99498D02*
X230080D01*
X229281Y99898D02*
X229681Y99498D01*
X228881D02*
X229281Y99898D01*
X228481Y99498D02*
X228881D01*
X228081Y99898D02*
X228481Y99498D01*
X228081Y99898D02*
Y100698D01*
X228481Y101098D01*
X228881D01*
X229281Y100698D01*
X229681Y101098D01*
X230080D01*
X230480Y100698D01*
Y99898D02*
Y100698D01*
X230080Y99498D02*
X230480Y99898D01*
X228081Y97499D02*
X228481Y97099D01*
X228081Y97499D02*
Y98299D01*
X228481Y98699D01*
X229281D01*
X229681Y98299D01*
Y97899D02*
Y98299D01*
X229281Y97099D02*
X229681Y97899D01*
X229281Y97099D02*
X230480D01*
Y98699D01*
X228081Y95900D02*
X228481Y96299D01*
X228081Y95100D02*
Y95900D01*
Y95100D02*
X228481Y94700D01*
X230080D01*
X230480Y95100D01*
Y95900D01*
X230080Y96299D02*
X230480Y95900D01*
X221982Y40400D02*
X222782D01*
X223182Y40799D02*
Y41199D01*
X222782Y40400D02*
X223182Y40799D01*
X222782Y40400D02*
X223182Y40000D01*
Y39600D02*
Y40000D01*
X222782Y39200D02*
X223182Y39600D01*
X221982Y39200D02*
X222782D01*
X221582Y39600D02*
X221982Y39200D01*
X221582Y39600D02*
Y40000D01*
X221982Y40400D01*
X221582Y40799D02*
X221982Y40400D01*
X221582Y40799D02*
Y41199D01*
X221982Y41599D01*
X222782D01*
X223182Y41199D01*
X224381Y41599D02*
X225581D01*
X223982Y41199D02*
X224381Y41599D01*
X223982Y39600D02*
Y41199D01*
Y39600D02*
X224381Y39200D01*
X225581D01*
Y41599D01*
X207982Y62900D02*
X209182D01*
X207582Y62500D02*
X207982Y62900D01*
X207582Y62100D02*
Y62500D01*
Y62100D02*
X207982Y61700D01*
X208782D01*
X209182Y62100D01*
Y62900D01*
X208382Y63699D02*
X209182Y62900D01*
X207582Y64099D02*
X208382Y63699D01*
X210381Y64099D02*
X211581D01*
X209982Y63699D02*
X210381Y64099D01*
X209982Y62100D02*
Y63699D01*
Y62100D02*
X210381Y61700D01*
X211581D01*
Y64099D01*
X213580Y103498D02*
X213980Y103898D01*
X211581D02*
X213980D01*
X211581D02*
Y104298D01*
Y103498D02*
Y104298D01*
Y101499D02*
X211981Y101099D01*
X211581Y101499D02*
Y102299D01*
X211981Y102699D01*
X212781D01*
X213180Y102299D01*
Y101899D02*
Y102299D01*
X212781Y101099D02*
X213180Y101899D01*
X212781Y101099D02*
X213980D01*
Y102699D01*
X211581Y100299D02*
X212381Y99500D01*
Y98700D02*
Y99900D01*
X212781Y100299D01*
X213580D01*
X213980Y99900D01*
Y98700D02*
Y99900D01*
X211581Y98700D02*
X213980D01*
X220281Y103398D02*
Y104598D01*
Y103398D02*
X220680Y102998D01*
X221080D01*
X221480Y103398D01*
Y104198D01*
X221080Y104598D02*
X221480Y104198D01*
X219481Y104598D02*
X221080D01*
X219081Y104198D02*
X219481Y104598D01*
X219081Y103398D02*
Y104198D01*
Y103398D02*
X219481Y102998D01*
X219081Y100999D02*
X219481Y100599D01*
X219081Y100999D02*
Y101799D01*
X219481Y102199D01*
X220281D01*
X220680Y101799D01*
Y101399D02*
Y101799D01*
X220281Y100599D02*
X220680Y101399D01*
X220281Y100599D02*
X221480D01*
Y102199D01*
X219081Y99400D02*
X219481Y99800D01*
X219081Y98600D02*
Y99400D01*
Y98600D02*
X219481Y98200D01*
X221080D01*
X221480Y98600D01*
Y99400D01*
X221080Y99800D02*
X221480Y99400D01*
X425683Y124900D02*
X426883D01*
X427283Y125299D01*
Y125699D01*
X426883Y126099D02*
X427283Y125699D01*
X426083Y126099D02*
X426883D01*
X425683Y125699D02*
X426083Y126099D01*
X425683Y124100D02*
Y125699D01*
Y124100D02*
X426083Y123700D01*
X426883D01*
X427283Y124100D01*
X428482Y124900D02*
X429682D01*
X428082Y124500D02*
X428482Y124900D01*
X428082Y124100D02*
Y124500D01*
Y124100D02*
X428482Y123700D01*
X429282D01*
X429682Y124100D01*
Y124900D01*
X428882Y125699D02*
X429682Y124900D01*
X428082Y126099D02*
X428882Y125699D01*
X430482Y124100D02*
X430881Y123700D01*
X431681D01*
X432081Y124100D01*
Y125699D01*
X431681Y126099D02*
X432081Y125699D01*
X430881Y126099D02*
X431681D01*
X430482Y125699D02*
X430881Y126099D01*
X436282Y101200D02*
X436682Y101600D01*
X435482Y101200D02*
X436282D01*
X435082Y101600D02*
X435482Y101200D01*
X435082Y101600D02*
Y102400D01*
X435482Y102799D01*
X435882D01*
X436682Y102400D01*
Y103599D01*
X435082D02*
X436682D01*
X437481Y101200D02*
X439081D01*
Y103599D01*
X437681Y96301D02*
X438081D01*
X436082Y94701D02*
X437681Y96301D01*
X435682Y94701D02*
X436082D01*
X435682D02*
Y96301D01*
X438081Y97101D02*
Y98700D01*
X435682D02*
X438081D01*
X436782Y111200D02*
X437182Y111600D01*
X435982Y111200D02*
X436782D01*
X435582Y111600D02*
X435982Y111200D01*
X435582Y111600D02*
Y112000D01*
X435982Y112400D01*
X436382D01*
X435982D02*
X436382D01*
X435582Y112799D02*
X435982Y112400D01*
X435582Y112799D02*
Y113199D01*
X435982Y113599D01*
X436782D01*
X437182Y113199D01*
X437982Y111200D02*
X439581D01*
Y113599D01*
X355381Y247202D02*
Y248002D01*
X354582Y248402D02*
X354981D01*
X355381Y248002D01*
X355781Y248402D01*
X356181D01*
X356581Y248002D01*
Y247202D02*
Y248002D01*
X356181Y246802D02*
X356581Y247202D01*
X355781Y246802D02*
X356181D01*
X355381Y247202D02*
X355781Y246802D01*
X354981D02*
X355381Y247202D01*
X354582Y246802D02*
X354981D01*
X354182Y247202D02*
X354582Y246802D01*
X354182Y247202D02*
Y248002D01*
X354582Y248402D01*
X355381Y249601D02*
Y250801D01*
Y249601D02*
X355781Y249201D01*
X356181D01*
X356581Y249601D01*
Y250401D01*
X356181Y250801D02*
X356581Y250401D01*
X355381Y250801D02*
X356181D01*
X354582Y250001D02*
X355381Y250801D01*
X354182Y249201D02*
X354582Y250001D01*
X356181Y251601D02*
X356581Y252000D01*
Y252800D01*
X356181Y253200D02*
X356581Y252800D01*
X354582Y253200D02*
X356181D01*
X354182Y252800D02*
X354582Y253200D01*
X354182Y252000D02*
Y252800D01*
Y252000D02*
X354582Y251601D01*
X365082Y242400D02*
X366682D01*
X365482Y243599D02*
X366682Y242400D01*
X365482Y241200D02*
Y243599D01*
X367481Y241200D02*
X369081D01*
Y243599D01*
X372482Y242400D02*
X373682D01*
X372082Y242000D02*
X372482Y242400D01*
X372082Y241600D02*
Y242000D01*
Y241600D02*
X372482Y241200D01*
X373282D01*
X373682Y241600D01*
Y242400D01*
X372882Y243199D02*
X373682Y242400D01*
X372082Y243599D02*
X372882Y243199D01*
X374482Y241200D02*
X376081D01*
Y243599D01*
X379782D02*
X380182Y243199D01*
X378982Y243599D02*
X379782D01*
X378582Y243199D02*
X378982Y243599D01*
X378582Y242799D02*
Y243199D01*
Y242799D02*
X380182Y241200D01*
X378582D02*
X380182D01*
X380981D02*
X382581D01*
Y243599D01*
X374070Y64339D02*
Y65538D01*
X373670Y65938D02*
X374070Y65538D01*
X373270Y65938D02*
X373670D01*
X372870Y65538D02*
X373270Y65938D01*
X372870Y64738D02*
Y65538D01*
Y64738D02*
X373270Y64339D01*
X374070D01*
X374869Y65138D01*
X375269Y65938D01*
X374869Y62339D02*
X375269Y62739D01*
X372870D02*
X375269D01*
X372870D02*
Y63139D01*
Y62339D02*
Y63139D01*
X375269Y59940D02*
Y61140D01*
X374869Y61539D02*
X375269Y61140D01*
X373270Y61539D02*
X374869D01*
X372870Y61140D02*
X373270Y61539D01*
X372870Y59940D02*
Y61140D01*
Y59940D02*
X375269D01*
X274381Y46399D02*
Y47465D01*
Y46399D02*
X275181Y47199D01*
X273581D02*
X275181D01*
X273581Y44800D02*
X273848D01*
X274914Y45866D01*
X275181D01*
Y44800D02*
Y45866D01*
X273581Y44266D02*
X274114Y43733D01*
Y43200D02*
Y44000D01*
X274381Y44266D01*
X274914D01*
X275181Y44000D01*
Y43200D02*
Y44000D01*
X273581Y43200D02*
X275181D01*
X275781Y87998D02*
Y89198D01*
X275381Y89598D02*
X275781Y89198D01*
X274981Y89598D02*
X275381D01*
X274581Y89198D02*
X274981Y89598D01*
X274581Y88398D02*
Y89198D01*
Y88398D02*
X274981Y87998D01*
X275781D01*
X276580Y88798D01*
X276980Y89598D01*
X275781Y85599D02*
Y86799D01*
X275381Y87199D02*
X275781Y86799D01*
X274981Y87199D02*
X275381D01*
X274581Y86799D02*
X274981Y87199D01*
X274581Y85999D02*
Y86799D01*
Y85999D02*
X274981Y85599D01*
X275781D01*
X276580Y86399D01*
X276980Y87199D01*
X274581Y84800D02*
X275381Y84000D01*
Y83200D02*
Y84400D01*
X275781Y84800D01*
X276580D01*
X276980Y84400D01*
Y83200D02*
Y84400D01*
X274581Y83200D02*
X276980D01*
X376170Y64339D02*
X376570D01*
X378169Y65938D01*
X378569D01*
Y64339D02*
Y65938D01*
X378169Y62339D02*
X378569Y62739D01*
X376170D02*
X378569D01*
X376170D02*
Y63139D01*
Y62339D02*
Y63139D01*
X378569Y59940D02*
Y61140D01*
X378169Y61539D02*
X378569Y61140D01*
X376570Y61539D02*
X378169D01*
X376170Y61140D02*
X376570Y61539D01*
X376170Y59940D02*
Y61140D01*
Y59940D02*
X378569D01*
X288581Y46665D02*
X288848Y46399D01*
X288581Y46665D02*
Y47199D01*
X288848Y47465D01*
X289381D01*
X289647Y47199D01*
Y46932D02*
Y47199D01*
X289381Y46399D02*
X289647Y46932D01*
X289381Y46399D02*
X290180D01*
Y47465D01*
X288581Y44800D02*
X288848D01*
X289914Y45866D01*
X290180D01*
Y44800D02*
Y45866D01*
X288581Y44266D02*
X289114Y43733D01*
Y43200D02*
Y44000D01*
X289381Y44266D01*
X289914D01*
X290180Y44000D01*
Y43200D02*
Y44000D01*
X288581Y43200D02*
X290180D01*
X289081Y87998D02*
X289481D01*
X291080Y89598D01*
X291480D01*
Y87998D02*
Y89598D01*
X290281Y85599D02*
Y86799D01*
X289881Y87199D02*
X290281Y86799D01*
X289481Y87199D02*
X289881D01*
X289081Y86799D02*
X289481Y87199D01*
X289081Y85999D02*
Y86799D01*
Y85999D02*
X289481Y85599D01*
X290281D01*
X291080Y86399D01*
X291480Y87199D01*
X289081Y84800D02*
X289881Y84000D01*
Y83200D02*
Y84400D01*
X290281Y84800D01*
X291080D01*
X291480Y84400D01*
Y83200D02*
Y84400D01*
X289081Y83200D02*
X291480D01*
X380670Y64738D02*
Y65538D01*
X381069Y64339D02*
X381469D01*
X380670Y64738D02*
X381069Y64339D01*
X380270D02*
X380670Y64738D01*
X379870Y64339D02*
X380270D01*
X379470Y64738D02*
X379870Y64339D01*
X379470Y64738D02*
Y65538D01*
X379870Y65938D01*
X380270D01*
X380670Y65538D01*
X381069Y65938D01*
X381469D01*
X381869Y65538D01*
Y64738D02*
Y65538D01*
X381469Y64339D02*
X381869Y64738D01*
X381469Y62339D02*
X381869Y62739D01*
X379470D02*
X381869D01*
X379470D02*
Y63139D01*
Y62339D02*
Y63139D01*
X381869Y59940D02*
Y61140D01*
X381469Y61539D02*
X381869Y61140D01*
X379870Y61539D02*
X381469D01*
X379470Y61140D02*
X379870Y61539D01*
X379470Y59940D02*
Y61140D01*
Y59940D02*
X381869D01*
X304381Y46399D02*
Y47199D01*
X304114Y47465D02*
X304381Y47199D01*
X303848Y47465D02*
X304114D01*
X303581Y47199D02*
X303848Y47465D01*
X303581Y46665D02*
Y47199D01*
Y46665D02*
X303848Y46399D01*
X304381D01*
X304914Y46932D01*
X305181Y47465D01*
X303581Y44800D02*
X303848D01*
X304914Y45866D01*
X305181D01*
Y44800D02*
Y45866D01*
X303581Y44266D02*
X304114Y43733D01*
Y43200D02*
Y44000D01*
X304381Y44266D01*
X304914D01*
X305181Y44000D01*
Y43200D02*
Y44000D01*
X303581Y43200D02*
X305181D01*
X305781Y88398D02*
Y89198D01*
X306181Y87998D02*
X306580D01*
X305781Y88398D02*
X306181Y87998D01*
X305381D02*
X305781Y88398D01*
X304981Y87998D02*
X305381D01*
X304581Y88398D02*
X304981Y87998D01*
X304581Y88398D02*
Y89198D01*
X304981Y89598D01*
X305381D01*
X305781Y89198D01*
X306181Y89598D01*
X306580D01*
X306980Y89198D01*
Y88398D02*
Y89198D01*
X306580Y87998D02*
X306980Y88398D01*
X305781Y85599D02*
Y86799D01*
X305381Y87199D02*
X305781Y86799D01*
X304981Y87199D02*
X305381D01*
X304581Y86799D02*
X304981Y87199D01*
X304581Y85999D02*
Y86799D01*
Y85999D02*
X304981Y85599D01*
X305781D01*
X306580Y86399D01*
X306980Y87199D01*
X304581Y84800D02*
X305381Y84000D01*
Y83200D02*
Y84400D01*
X305781Y84800D01*
X306580D01*
X306980Y84400D01*
Y83200D02*
Y84400D01*
X304581Y83200D02*
X306980D01*
X383970Y64738D02*
Y65938D01*
Y64738D02*
X384369Y64339D01*
X384769D01*
X385169Y64738D01*
Y65538D01*
X384769Y65938D02*
X385169Y65538D01*
X383170Y65938D02*
X384769D01*
X382770Y65538D02*
X383170Y65938D01*
X382770Y64738D02*
Y65538D01*
Y64738D02*
X383170Y64339D01*
X384769Y62339D02*
X385169Y62739D01*
X382770D02*
X385169D01*
X382770D02*
Y63139D01*
Y62339D02*
Y63139D01*
X385169Y59940D02*
Y61140D01*
X384769Y61539D02*
X385169Y61140D01*
X383170Y61539D02*
X384769D01*
X382770Y61140D02*
X383170Y61539D01*
X382770Y59940D02*
Y61140D01*
Y59940D02*
X385169D01*
X318581Y46899D02*
X318848D01*
X319914Y47965D01*
X320180D01*
Y46899D02*
Y47965D01*
X318581Y45300D02*
X318848D01*
X319914Y46366D01*
X320180D01*
Y45300D02*
Y46366D01*
X318581Y44766D02*
X319114Y44233D01*
Y43700D02*
Y44500D01*
X319381Y44766D01*
X319914D01*
X320180Y44500D01*
Y43700D02*
Y44500D01*
X318581Y43700D02*
X320180D01*
X320281Y88398D02*
Y89598D01*
Y88398D02*
X320680Y87998D01*
X321080D01*
X321480Y88398D01*
Y89198D01*
X321080Y89598D02*
X321480Y89198D01*
X319481Y89598D02*
X321080D01*
X319081Y89198D02*
X319481Y89598D01*
X319081Y88398D02*
Y89198D01*
Y88398D02*
X319481Y87998D01*
X320281Y85599D02*
Y86799D01*
X319881Y87199D02*
X320281Y86799D01*
X319481Y87199D02*
X319881D01*
X319081Y86799D02*
X319481Y87199D01*
X319081Y85999D02*
Y86799D01*
Y85999D02*
X319481Y85599D01*
X320281D01*
X321080Y86399D01*
X321480Y87199D01*
X319081Y84800D02*
X319881Y84000D01*
Y83200D02*
Y84400D01*
X320281Y84800D01*
X321080D01*
X321480Y84400D01*
Y83200D02*
Y84400D01*
X319081Y83200D02*
X321480D01*
X386470Y64442D02*
X388069D01*
X386070Y64842D02*
X386470Y64442D01*
X386070Y64842D02*
Y65641D01*
X386470Y66041D01*
X388069D01*
X388469Y65641D01*
Y64842D02*
Y65641D01*
X388069Y64442D02*
X388469Y64842D01*
X388069Y62043D02*
X388469Y62442D01*
Y63242D01*
X388069Y63642D02*
X388469Y63242D01*
X387669Y63642D02*
X388069D01*
X386070Y62043D02*
X387669Y63642D01*
X386070Y62043D02*
Y63642D01*
X388469Y59643D02*
Y60843D01*
X388069Y61243D02*
X388469Y60843D01*
X386470Y61243D02*
X388069D01*
X386070Y60843D02*
X386470Y61243D01*
X386070Y59643D02*
Y60843D01*
Y59643D02*
X388469D01*
X334381Y47165D02*
Y47699D01*
X334647Y46899D02*
X334914D01*
X334381Y47165D02*
X334647Y46899D01*
X334114D02*
X334381Y47165D01*
X333848Y46899D02*
X334114D01*
X333581Y47165D02*
X333848Y46899D01*
X333581Y47165D02*
Y47699D01*
X333848Y47965D01*
X334114D01*
X334381Y47699D01*
X334647Y47965D01*
X334914D01*
X335180Y47699D01*
Y47165D02*
Y47699D01*
X334914Y46899D02*
X335180Y47165D01*
X333581Y45300D02*
X333848D01*
X334914Y46366D01*
X335180D01*
Y45300D02*
Y46366D01*
X333581Y44766D02*
X334114Y44233D01*
Y43700D02*
Y44500D01*
X334381Y44766D01*
X334914D01*
X335180Y44500D01*
Y43700D02*
Y44500D01*
X333581Y43700D02*
X335180D01*
X334981Y87998D02*
X336580D01*
X334581Y88398D02*
X334981Y87998D01*
X334581Y88398D02*
Y89198D01*
X334981Y89598D01*
X336580D01*
X336980Y89198D01*
Y88398D02*
Y89198D01*
X336580Y87998D02*
X336980Y88398D01*
X334581Y85599D02*
X334981D01*
X336580Y87199D01*
X336980D01*
Y85599D02*
Y87199D01*
X334581Y84800D02*
X335381Y84000D01*
Y83200D02*
Y84400D01*
X335781Y84800D01*
X336580D01*
X336980Y84400D01*
Y83200D02*
Y84400D01*
X334581Y83200D02*
X336980D01*
X391369Y65235D02*
X391769Y65635D01*
X389370D02*
X391769D01*
X389370D02*
Y66035D01*
Y65235D02*
Y66035D01*
X391369Y62836D02*
X391769Y63235D01*
Y64035D01*
X391369Y64435D02*
X391769Y64035D01*
X390969Y64435D02*
X391369D01*
X389370Y62836D02*
X390969Y64435D01*
X389370Y62836D02*
Y64435D01*
X391769Y60436D02*
Y61636D01*
X391369Y62036D02*
X391769Y61636D01*
X389770Y62036D02*
X391369D01*
X389370Y61636D02*
X389770Y62036D01*
X389370Y60436D02*
Y61636D01*
Y60436D02*
X391769D01*
X349381Y47165D02*
Y47965D01*
Y47165D02*
X349647Y46899D01*
X349914D01*
X350181Y47165D01*
Y47699D01*
X349914Y47965D02*
X350181Y47699D01*
X348848Y47965D02*
X349914D01*
X348581Y47699D02*
X348848Y47965D01*
X348581Y47165D02*
Y47699D01*
Y47165D02*
X348848Y46899D01*
X348581Y45300D02*
X348848D01*
X349914Y46366D01*
X350181D01*
Y45300D02*
Y46366D01*
X348581Y44766D02*
X349114Y44233D01*
Y43700D02*
Y44500D01*
X349381Y44766D01*
X349914D01*
X350181Y44500D01*
Y43700D02*
Y44500D01*
X348581Y43700D02*
X350181D01*
X353080Y88498D02*
X353480Y88898D01*
X351081D02*
X353480D01*
X351081D02*
Y89298D01*
Y88498D02*
Y89298D01*
Y86099D02*
X351481D01*
X353080Y87699D01*
X353480D01*
Y86099D02*
Y87699D01*
X351081Y85300D02*
X351881Y84500D01*
Y83700D02*
Y84900D01*
X352281Y85300D01*
X353080D01*
X353480Y84900D01*
Y83700D02*
Y84900D01*
X351081Y83700D02*
X353480D01*
X394669Y64442D02*
X395069Y64842D01*
Y65641D01*
X394669Y66041D02*
X395069Y65641D01*
X394269Y66041D02*
X394669D01*
X392670Y64442D02*
X394269Y66041D01*
X392670Y64442D02*
Y66041D01*
X394669Y62043D02*
X395069Y62442D01*
Y63242D01*
X394669Y63642D02*
X395069Y63242D01*
X394269Y63642D02*
X394669D01*
X392670Y62043D02*
X394269Y63642D01*
X392670Y62043D02*
Y63642D01*
X395069Y59643D02*
Y60843D01*
X394669Y61243D02*
X395069Y60843D01*
X393070Y61243D02*
X394669D01*
X392670Y60843D02*
X393070Y61243D01*
X392670Y59643D02*
Y60843D01*
Y59643D02*
X395069D01*
X364348Y47399D02*
X365414D01*
X364081Y47665D02*
X364348Y47399D01*
X364081Y47665D02*
Y48199D01*
X364348Y48465D01*
X365414D01*
X365681Y48199D01*
Y47665D02*
Y48199D01*
X365414Y47399D02*
X365681Y47665D01*
X364881Y46066D02*
Y46599D01*
X365147Y45800D02*
X365414D01*
X364881Y46066D02*
X365147Y45800D01*
X364614D02*
X364881Y46066D01*
X364348Y45800D02*
X364614D01*
X364081Y46066D02*
X364348Y45800D01*
X364081Y46066D02*
Y46599D01*
X364348Y46866D01*
X364614D01*
X364881Y46599D01*
X365147Y46866D01*
X365414D01*
X365681Y46599D01*
Y46066D02*
Y46599D01*
X365414Y45800D02*
X365681Y46066D01*
X364081Y45266D02*
X364614Y44733D01*
Y44200D02*
Y45000D01*
X364881Y45266D01*
X365414D01*
X365681Y45000D01*
Y44200D02*
Y45000D01*
X364081Y44200D02*
X365681D01*
X366580Y87998D02*
X366980Y88398D01*
Y89198D01*
X366580Y89598D02*
X366980Y89198D01*
X366180Y89598D02*
X366580D01*
X364581Y87998D02*
X366180Y89598D01*
X364581Y87998D02*
Y89598D01*
Y85599D02*
X364981D01*
X366580Y87199D01*
X366980D01*
Y85599D02*
Y87199D01*
X364581Y84800D02*
X365381Y84000D01*
Y83200D02*
Y84400D01*
X365781Y84800D01*
X366580D01*
X366980Y84400D01*
Y83200D02*
Y84400D01*
X364581Y83200D02*
X366980D01*
X356581Y87998D02*
X356981D01*
X358580Y89598D01*
X358980D01*
Y87998D02*
Y89598D01*
X356581Y85599D02*
X356981D01*
X358580Y87199D01*
X358980D01*
Y85599D02*
Y87199D01*
X356581Y84400D02*
X356981Y84800D01*
X356581Y83600D02*
Y84400D01*
Y83600D02*
X356981Y83200D01*
X358580D01*
X358980Y83600D01*
Y84400D01*
X358580Y84800D02*
X358980Y84400D01*
X343281Y87998D02*
Y89198D01*
X342881Y89598D02*
X343281Y89198D01*
X342481Y89598D02*
X342881D01*
X342081Y89198D02*
X342481Y89598D01*
X342081Y88398D02*
Y89198D01*
Y88398D02*
X342481Y87998D01*
X343281D01*
X344080Y88798D01*
X344480Y89598D01*
X342081Y85599D02*
X342481D01*
X344080Y87199D01*
X344480D01*
Y85599D02*
Y87199D01*
X342081Y84400D02*
X342481Y84800D01*
X342081Y83600D02*
Y84400D01*
Y83600D02*
X342481Y83200D01*
X344080D01*
X344480Y83600D01*
Y84400D01*
X344080Y84800D02*
X344480Y84400D01*
X326581Y88398D02*
X326981Y87998D01*
X326581Y88398D02*
Y89198D01*
X326981Y89598D01*
X327781D01*
X328181Y89198D01*
Y88798D02*
Y89198D01*
X327781Y87998D02*
X328181Y88798D01*
X327781Y87998D02*
X328980D01*
Y89598D01*
X326581Y85599D02*
X326981D01*
X328580Y87199D01*
X328980D01*
Y85599D02*
Y87199D01*
X326581Y84400D02*
X326981Y84800D01*
X326581Y83600D02*
Y84400D01*
Y83600D02*
X326981Y83200D01*
X328580D01*
X328980Y83600D01*
Y84400D01*
X328580Y84800D02*
X328980Y84400D01*
X312781Y87998D02*
Y89598D01*
Y87998D02*
X313980Y89198D01*
X311581D02*
X313980D01*
X311581Y85599D02*
X311981D01*
X313580Y87199D01*
X313980D01*
Y85599D02*
Y87199D01*
X311581Y84400D02*
X311981Y84800D01*
X311581Y83600D02*
Y84400D01*
Y83600D02*
X311981Y83200D01*
X313580D01*
X313980Y83600D01*
Y84400D01*
X313580Y84800D02*
X313980Y84400D01*
X296581Y88398D02*
X296981Y87998D01*
X296581Y88398D02*
Y89198D01*
X296981Y89598D01*
X297381D01*
X297781Y89198D01*
Y88798D02*
Y89198D01*
Y88798D02*
Y89198D01*
X298181Y89598D01*
X298580D01*
X298980Y89198D01*
Y88398D02*
Y89198D01*
X298580Y87998D02*
X298980Y88398D01*
X296581Y85599D02*
X296981D01*
X298580Y87199D01*
X298980D01*
Y85599D02*
Y87199D01*
X296581Y84400D02*
X296981Y84800D01*
X296581Y83600D02*
Y84400D01*
Y83600D02*
X296981Y83200D01*
X298580D01*
X298980Y83600D01*
Y84400D01*
X298580Y84800D02*
X298980Y84400D01*
X283580Y87998D02*
X283980Y88398D01*
Y89198D01*
X283580Y89598D02*
X283980Y89198D01*
X283180Y89598D02*
X283580D01*
X281581Y87998D02*
X283180Y89598D01*
X281581Y87998D02*
Y89598D01*
Y85599D02*
X281981D01*
X283580Y87199D01*
X283980D01*
Y85599D02*
Y87199D01*
X281581Y84400D02*
X281981Y84800D01*
X281581Y83600D02*
Y84400D01*
Y83600D02*
X281981Y83200D01*
X283580D01*
X283980Y83600D01*
Y84400D01*
X283580Y84800D02*
X283980Y84400D01*
X269080Y87998D02*
X269480Y88398D01*
X267081D02*
X269480D01*
X267081D02*
Y88798D01*
Y87998D02*
Y88798D01*
Y85599D02*
X267481D01*
X269080Y87199D01*
X269480D01*
Y85599D02*
Y87199D01*
X267081Y84400D02*
X267481Y84800D01*
X267081Y83600D02*
Y84400D01*
Y83600D02*
X267481Y83200D01*
X269080D01*
X269480Y83600D01*
Y84400D01*
X269080Y84800D02*
X269480Y84400D01*
X336584Y513900D02*
X337783D01*
X336184Y513500D02*
X336584Y513900D01*
X336184Y513100D02*
Y513500D01*
Y513100D02*
X336584Y512700D01*
X337383D01*
X337783Y513100D01*
Y513900D01*
X336983Y514699D02*
X337783Y513900D01*
X336184Y515099D02*
X336983Y514699D01*
X339783Y515099D02*
X340182Y514699D01*
X338983Y515099D02*
X339783D01*
X338583Y514699D02*
X338983Y515099D01*
X338583Y514300D02*
Y514699D01*
Y514300D02*
X340182Y512700D01*
X338583D02*
X340182D01*
X341782Y515099D02*
X342182Y514699D01*
X341782Y512700D02*
Y515099D01*
X341382Y512700D02*
X341782D01*
X341382D02*
X342182D01*
X342982D02*
X343781Y513500D01*
X343381D02*
X344581D01*
X342982Y513900D02*
X343381Y513500D01*
X342982Y513900D02*
Y514699D01*
X343381Y515099D01*
X344581D01*
Y512700D02*
Y515099D01*
X317084Y513900D02*
X318283D01*
X318683Y514300D01*
Y514699D01*
X318283Y515099D02*
X318683Y514699D01*
X317483Y515099D02*
X318283D01*
X317084Y514699D02*
X317483Y515099D01*
X317084Y513100D02*
Y514699D01*
Y513100D02*
X317483Y512700D01*
X318283D01*
X318683Y513100D01*
X320283Y515099D02*
X320682Y514699D01*
X320283Y512700D02*
Y515099D01*
X319883Y512700D02*
X320283D01*
X319883D02*
X320682D01*
X322282Y515099D02*
X322682Y514699D01*
X322282Y512700D02*
Y515099D01*
X321882Y512700D02*
X322282D01*
X321882D02*
X322682D01*
X323481Y513100D02*
X323881Y512700D01*
X324681D01*
X325081Y513100D01*
Y514699D01*
X324681Y515099D02*
X325081Y514699D01*
X323881Y515099D02*
X324681D01*
X323481Y514699D02*
X323881Y515099D01*
X384511Y379196D02*
X384911Y379596D01*
X385711D01*
X386111Y379196D01*
Y378796D02*
Y379196D01*
X385711Y378396D02*
X386111Y378796D01*
X385311Y378396D02*
X385711D01*
X385311D02*
X385711D01*
X386111Y377996D01*
Y377596D02*
Y377996D01*
X385711Y377196D02*
X386111Y377596D01*
X384911Y377196D02*
X385711D01*
X384511Y377596D02*
X384911Y377196D01*
X382112Y379196D02*
X382512Y379596D01*
X383312D01*
X383712Y379196D01*
Y378796D02*
Y379196D01*
X383312Y378396D02*
X383712Y378796D01*
X382912Y378396D02*
X383312D01*
X382912D02*
X383312D01*
X383712Y377996D01*
Y377596D02*
Y377996D01*
X383312Y377196D02*
X383712Y377596D01*
X382512Y377196D02*
X383312D01*
X382112Y377596D02*
X382512Y377196D01*
X380912Y379596D02*
X381312Y379196D01*
X380113Y379596D02*
X380912D01*
X379713Y379196D02*
X380113Y379596D01*
X379713Y377596D02*
Y379196D01*
Y377596D02*
X380113Y377196D01*
X380912D01*
X381312Y377596D01*
X565906Y46950D02*
X566306Y47350D01*
X565107Y46950D02*
X565906D01*
X564707Y47350D02*
X565107Y46950D01*
X564707Y47350D02*
Y48150D01*
X565107Y48550D01*
X565507D01*
X566306Y48150D01*
Y49349D01*
X564707D02*
X566306D01*
X568305Y46950D02*
X568705Y47350D01*
X567506Y46950D02*
X568305D01*
X567106Y47350D02*
X567506Y46950D01*
X567106Y47350D02*
Y47750D01*
X567506Y48150D01*
X567906D01*
X567506D02*
X567906D01*
X567106Y48550D02*
X567506Y48150D01*
X567106Y48550D02*
Y48949D01*
X567506Y49349D01*
X568305D01*
X568705Y48949D01*
X569505Y47350D02*
X569905Y46950D01*
X570705D01*
X571105Y47350D01*
Y48949D01*
X570705Y49349D02*
X571105Y48949D01*
X569905Y49349D02*
X570705D01*
X569505Y48949D02*
X569905Y49349D01*
X350823Y391996D02*
Y392396D01*
Y391996D02*
X352422Y390396D01*
Y389996D02*
Y390396D01*
X350823Y389996D02*
X352422D01*
X348424Y391996D02*
X348824Y392396D01*
X349623D01*
X350023Y391996D01*
Y391596D02*
Y391996D01*
X349623Y391196D02*
X350023Y391596D01*
X349223Y391196D02*
X349623D01*
X349223D02*
X349623D01*
X350023Y390796D01*
Y390396D02*
Y390796D01*
X349623Y389996D02*
X350023Y390396D01*
X348824Y389996D02*
X349623D01*
X348424Y390396D02*
X348824Y389996D01*
X347224Y392396D02*
X347624Y391996D01*
X346424Y392396D02*
X347224D01*
X346024Y391996D02*
X346424Y392396D01*
X346024Y390396D02*
Y391996D01*
Y390396D02*
X346424Y389996D01*
X347224D01*
X347624Y390396D01*
X480025Y103850D02*
X481224D01*
X481624Y104249D01*
Y104649D01*
X481224Y105049D02*
X481624Y104649D01*
X480425Y105049D02*
X481224D01*
X480025Y104649D02*
X480425Y105049D01*
X480025Y103050D02*
Y104649D01*
Y103050D02*
X480425Y102650D01*
X481224D01*
X481624Y103050D01*
X483624Y102650D02*
X484023Y103050D01*
X482824Y102650D02*
X483624D01*
X482424Y103050D02*
X482824Y102650D01*
X482424Y103050D02*
Y103450D01*
X482824Y103850D01*
X483224D01*
X482824D02*
X483224D01*
X482424Y104249D02*
X482824Y103850D01*
X482424Y104249D02*
Y104649D01*
X482824Y105049D01*
X483624D01*
X484023Y104649D01*
X485623Y105049D02*
X486023Y104649D01*
X485623Y102650D02*
Y105049D01*
X485223Y102650D02*
X485623D01*
X485223D02*
X486023D01*
X486823Y103050D02*
X487222Y102650D01*
X488022D01*
X488422Y103050D01*
Y104649D01*
X488022Y105049D02*
X488422Y104649D01*
X487222Y105049D02*
X488022D01*
X486823Y104649D02*
X487222Y105049D01*
X482524Y179450D02*
Y181049D01*
X482124Y179050D02*
X482524Y179450D01*
X481324Y179050D02*
X482124D01*
X480925Y179450D02*
X481324Y179050D01*
X480925Y179450D02*
Y181049D01*
X481324Y181449D01*
X482124D01*
X482524Y181049D01*
X483324Y180250D02*
X484923D01*
X483724Y181449D02*
X484923Y180250D01*
X483724Y179050D02*
Y181449D01*
X486523D02*
X486923Y181049D01*
X486523Y179050D02*
Y181449D01*
X486123Y179050D02*
X486523D01*
X486123D02*
X486923D01*
X487722Y179450D02*
X488122Y179050D01*
X488922D01*
X489322Y179450D01*
Y181049D01*
X488922Y181449D02*
X489322Y181049D01*
X488122Y181449D02*
X488922D01*
X487722Y181049D02*
X488122Y181449D01*
X482617Y224949D02*
X483017Y224549D01*
X482617Y222550D02*
Y224949D01*
X482218Y222550D02*
X482617D01*
X482218D02*
X483017D01*
X483817Y223750D02*
X485416D01*
X484217Y224949D02*
X485416Y223750D01*
X484217Y222550D02*
Y224949D01*
X487016D02*
X487416Y224549D01*
X487016Y222550D02*
Y224949D01*
X486616Y222550D02*
X487016D01*
X486616D02*
X487416D01*
X488215Y222950D02*
X488615Y222550D01*
X489415D01*
X489815Y222950D01*
Y224549D01*
X489415Y224949D02*
X489815Y224549D01*
X488615Y224949D02*
X489415D01*
X488215Y224549D02*
X488615Y224949D01*
X482124Y332749D02*
X482524Y332349D01*
X481324Y332749D02*
X482124D01*
X480925Y332349D02*
X481324Y332749D01*
X480925Y331949D02*
Y332349D01*
Y331949D02*
X482524Y330350D01*
X480925D02*
X482524D01*
X483324Y331550D02*
X484923D01*
X483724Y332749D02*
X484923Y331550D01*
X483724Y330350D02*
Y332749D01*
X486523D02*
X486923Y332349D01*
X486523Y330350D02*
Y332749D01*
X486123Y330350D02*
X486523D01*
X486123D02*
X486923D01*
X487722Y330750D02*
X488122Y330350D01*
X488922D01*
X489322Y330750D01*
Y332349D01*
X488922Y332749D02*
X489322Y332349D01*
X488122Y332749D02*
X488922D01*
X487722Y332349D02*
X488122Y332749D01*
X481424Y379650D02*
X481824Y380050D01*
X480624Y379650D02*
X481424D01*
X480225Y380050D02*
X480624Y379650D01*
X480225Y380050D02*
Y380450D01*
X480624Y380850D01*
X481024D01*
X480624D02*
X481024D01*
X480225Y381249D02*
X480624Y380850D01*
X480225Y381249D02*
Y381649D01*
X480624Y382049D01*
X481424D01*
X481824Y381649D01*
X482624Y380850D02*
X484223D01*
X483024Y382049D02*
X484223Y380850D01*
X483024Y379650D02*
Y382049D01*
X485823D02*
X486223Y381649D01*
X485823Y379650D02*
Y382049D01*
X485423Y379650D02*
X485823D01*
X485423D02*
X486223D01*
X487022Y380050D02*
X487422Y379650D01*
X488222D01*
X488622Y380050D01*
Y381649D01*
X488222Y382049D02*
X488622Y381649D01*
X487422Y382049D02*
X488222D01*
X487022Y381649D02*
X487422Y382049D01*
X480025Y489250D02*
X481624D01*
X480425Y490449D02*
X481624Y489250D01*
X480425Y488050D02*
Y490449D01*
X482424Y489250D02*
X484023D01*
X482824Y490449D02*
X484023Y489250D01*
X482824Y488050D02*
Y490449D01*
X485623D02*
X486023Y490049D01*
X485623Y488050D02*
Y490449D01*
X485223Y488050D02*
X485623D01*
X485223D02*
X486023D01*
X486823Y488450D02*
X487222Y488050D01*
X488022D01*
X488422Y488450D01*
Y490049D01*
X488022Y490449D02*
X488422Y490049D01*
X487222Y490449D02*
X488022D01*
X486823Y490049D02*
X487222Y490449D01*
X349883Y56099D02*
X350283Y55699D01*
X349883Y53700D02*
Y56099D01*
X349483Y53700D02*
X349883D01*
X349483D02*
X350283D01*
X351482Y54900D02*
X352282D01*
X352682Y55300D02*
Y55699D01*
X352282Y54900D02*
X352682Y55300D01*
X352282Y54900D02*
X352682Y54500D01*
Y54100D02*
Y54500D01*
X352282Y53700D02*
X352682Y54100D01*
X351482Y53700D02*
X352282D01*
X351082Y54100D02*
X351482Y53700D01*
X351082Y54100D02*
Y54500D01*
X351482Y54900D01*
X351082Y55300D02*
X351482Y54900D01*
X351082Y55300D02*
Y55699D01*
X351482Y56099D01*
X352282D01*
X352682Y55699D01*
X353482Y53700D02*
X354281Y54500D01*
X353881D02*
X355081D01*
X353482Y54900D02*
X353881Y54500D01*
X353482Y54900D02*
Y55699D01*
X353881Y56099D01*
X355081D01*
Y53700D02*
Y56099D01*
X335883D02*
X336283Y55699D01*
X335083Y56099D02*
X335883D01*
X334683Y55699D02*
X335083Y56099D01*
X334683Y55300D02*
Y55699D01*
Y55300D02*
X336283Y53700D01*
X334683D02*
X336283D01*
X337482Y54900D02*
X338282D01*
X338682Y55300D02*
Y55699D01*
X338282Y54900D02*
X338682Y55300D01*
X338282Y54900D02*
X338682Y54500D01*
Y54100D02*
Y54500D01*
X338282Y53700D02*
X338682Y54100D01*
X337482Y53700D02*
X338282D01*
X337082Y54100D02*
X337482Y53700D01*
X337082Y54100D02*
Y54500D01*
X337482Y54900D01*
X337082Y55300D02*
X337482Y54900D01*
X337082Y55300D02*
Y55699D01*
X337482Y56099D01*
X338282D01*
X338682Y55699D01*
X339481Y53700D02*
X340281Y54500D01*
X339881D02*
X341081D01*
X339481Y54900D02*
X339881Y54500D01*
X339481Y54900D02*
Y55699D01*
X339881Y56099D01*
X341081D01*
Y53700D02*
Y56099D01*
X321383Y54200D02*
X321783Y54600D01*
X320583Y54200D02*
X321383D01*
X320183Y54600D02*
X320583Y54200D01*
X320183Y54600D02*
Y55400D01*
X320583Y55800D01*
X320983D01*
X321783Y55400D01*
Y56599D01*
X320183D02*
X321783D01*
X322982Y55400D02*
X323782D01*
X324182Y55800D02*
Y56199D01*
X323782Y55400D02*
X324182Y55800D01*
X323782Y55400D02*
X324182Y55000D01*
Y54600D02*
Y55000D01*
X323782Y54200D02*
X324182Y54600D01*
X322982Y54200D02*
X323782D01*
X322582Y54600D02*
X322982Y54200D01*
X322582Y54600D02*
Y55000D01*
X322982Y55400D01*
X322582Y55800D02*
X322982Y55400D01*
X322582Y55800D02*
Y56199D01*
X322982Y56599D01*
X323782D01*
X324182Y56199D01*
X324981Y54200D02*
X325781Y55000D01*
X325381D02*
X326581D01*
X324981Y55400D02*
X325381Y55000D01*
X324981Y55400D02*
Y56199D01*
X325381Y56599D01*
X326581D01*
Y54200D02*
Y56599D01*
X305583Y54900D02*
X306383D01*
X306783Y55300D02*
Y55699D01*
X306383Y54900D02*
X306783Y55300D01*
X306383Y54900D02*
X306783Y54500D01*
Y54100D02*
Y54500D01*
X306383Y53700D02*
X306783Y54100D01*
X305583Y53700D02*
X306383D01*
X305183Y54100D02*
X305583Y53700D01*
X305183Y54100D02*
Y54500D01*
X305583Y54900D01*
X305183Y55300D02*
X305583Y54900D01*
X305183Y55300D02*
Y55699D01*
X305583Y56099D01*
X306383D01*
X306783Y55699D01*
X307982Y54900D02*
X308782D01*
X309182Y55300D02*
Y55699D01*
X308782Y54900D02*
X309182Y55300D01*
X308782Y54900D02*
X309182Y54500D01*
Y54100D02*
Y54500D01*
X308782Y53700D02*
X309182Y54100D01*
X307982Y53700D02*
X308782D01*
X307582Y54100D02*
X307982Y53700D01*
X307582Y54100D02*
Y54500D01*
X307982Y54900D01*
X307582Y55300D02*
X307982Y54900D01*
X307582Y55300D02*
Y55699D01*
X307982Y56099D01*
X308782D01*
X309182Y55699D01*
X309981Y53700D02*
X310781Y54500D01*
X310381D02*
X311581D01*
X309981Y54900D02*
X310381Y54500D01*
X309981Y54900D02*
Y55699D01*
X310381Y56099D01*
X311581D01*
Y53700D02*
Y56099D01*
X289883Y55599D02*
X290283Y55199D01*
X289084Y55599D02*
X289883D01*
X288684Y55199D02*
X289084Y55599D01*
X288684Y54800D02*
Y55199D01*
Y54800D02*
X290283Y53200D01*
X288684D02*
X290283D01*
X292682Y53600D02*
Y55199D01*
X292283Y53200D02*
X292682Y53600D01*
X291483Y53200D02*
X292283D01*
X291083Y53600D02*
X291483Y53200D01*
X291083Y53600D02*
Y55199D01*
X291483Y55599D01*
X292283D01*
X292682Y55199D01*
X294282Y55599D02*
X294682Y55199D01*
X294282Y53200D02*
Y55599D01*
X293882Y53200D02*
X294282D01*
X293882D02*
X294682D01*
X295481D02*
X296281Y54000D01*
X295881D02*
X297081D01*
X295481Y54400D02*
X295881Y54000D01*
X295481Y54400D02*
Y55199D01*
X295881Y55599D01*
X297081D01*
Y53200D02*
Y55599D01*
X275383Y53700D02*
X275783Y54100D01*
X274584Y53700D02*
X275383D01*
X274184Y54100D02*
X274584Y53700D01*
X274184Y54100D02*
Y54500D01*
X274584Y54900D01*
X274984D01*
X274584D02*
X274984D01*
X274184Y55300D02*
X274584Y54900D01*
X274184Y55300D02*
Y55699D01*
X274584Y56099D01*
X275383D01*
X275783Y55699D01*
X276583Y54900D02*
X278182D01*
X276983Y56099D02*
X278182Y54900D01*
X276983Y53700D02*
Y56099D01*
X279782D02*
X280182Y55699D01*
X279782Y53700D02*
Y56099D01*
X279382Y53700D02*
X279782D01*
X279382D02*
X280182D01*
X280981D02*
X281781Y54500D01*
X281381D02*
X282581D01*
X280981Y54900D02*
X281381Y54500D01*
X280981Y54900D02*
Y55699D01*
X281381Y56099D01*
X282581D01*
Y53700D02*
Y56099D01*
X258684Y54900D02*
X260283D01*
X259084Y56099D02*
X260283Y54900D01*
X259084Y53700D02*
Y56099D01*
X261083Y54900D02*
X262682D01*
X261483Y56099D02*
X262682Y54900D01*
X261483Y53700D02*
Y56099D01*
X264282D02*
X264682Y55699D01*
X264282Y53700D02*
Y56099D01*
X263882Y53700D02*
X264282D01*
X263882D02*
X264682D01*
X265481D02*
X266281Y54500D01*
X265881D02*
X267081D01*
X265481Y54900D02*
X265881Y54500D01*
X265481Y54900D02*
Y55699D01*
X265881Y56099D01*
X267081D01*
Y53700D02*
Y56099D01*
X220681Y59902D02*
X221081Y59502D01*
Y58703D02*
Y59502D01*
X220681Y58303D02*
X221081Y58703D01*
X219881Y58303D02*
X220681D01*
X219482Y58703D02*
X219881Y58303D01*
X219482Y58703D02*
Y59103D01*
X219881Y59902D01*
X218682D02*
X219881D01*
X218682Y58303D02*
Y59902D01*
X220681Y62301D02*
X221081Y61902D01*
Y61102D02*
Y61902D01*
X220681Y60702D02*
X221081Y61102D01*
X219881Y60702D02*
X220681D01*
X219482Y61102D02*
X219881Y60702D01*
X219482Y61102D02*
Y61502D01*
X219881Y62301D01*
X218682D02*
X219881D01*
X218682Y60702D02*
Y62301D01*
Y63901D02*
X219082Y64301D01*
X218682Y63901D02*
X221081D01*
Y63501D02*
Y63901D01*
Y63501D02*
Y64301D01*
X220281Y65900D02*
X221081Y65101D01*
X220281Y65500D02*
Y66700D01*
X219881Y65101D02*
X220281Y65500D01*
X219082Y65101D02*
X219881D01*
X218682Y65500D02*
X219082Y65101D01*
X218682Y65500D02*
Y66700D01*
X221081D01*
X228381Y58703D02*
Y59902D01*
Y58703D02*
X228781Y58303D01*
X229181D01*
X229581Y58703D01*
Y59502D01*
X229181Y59902D02*
X229581Y59502D01*
X228381Y59902D02*
X229181D01*
X227582Y59103D02*
X228381Y59902D01*
X227182Y58303D02*
X227582Y59103D01*
X229181Y62301D02*
X229581Y61902D01*
Y61102D02*
Y61902D01*
X229181Y60702D02*
X229581Y61102D01*
X228381Y60702D02*
X229181D01*
X227981Y61102D02*
X228381Y60702D01*
X227981Y61102D02*
Y61502D01*
X228381Y62301D01*
X227182D02*
X228381D01*
X227182Y60702D02*
Y62301D01*
Y63901D02*
X227582Y64301D01*
X227182Y63901D02*
X229581D01*
Y63501D02*
Y63901D01*
Y63501D02*
Y64301D01*
X228781Y65900D02*
X229581Y65101D01*
X228781Y65500D02*
Y66700D01*
X228381Y65101D02*
X228781Y65500D01*
X227582Y65101D02*
X228381D01*
X227182Y65500D02*
X227582Y65101D01*
X227182Y65500D02*
Y66700D01*
X229581D01*
X234081Y43998D02*
X234481D01*
X236080Y45597D01*
X236480D01*
Y43998D02*
Y45597D01*
X234081Y41998D02*
X234481Y41599D01*
X234081Y41998D02*
Y42798D01*
X234481Y43198D01*
X235281D01*
X235680Y42798D01*
Y42398D02*
Y42798D01*
X235281Y41599D02*
X235680Y42398D01*
X235281Y41599D02*
X236480D01*
Y43198D01*
X236080Y39599D02*
X236480Y39999D01*
X234081D02*
X236480D01*
X234081D02*
Y40399D01*
Y39599D02*
Y40399D01*
Y38800D02*
X234881Y38000D01*
Y37200D02*
Y38400D01*
X235281Y38800D01*
X236080D01*
X236480Y38400D01*
Y37200D02*
Y38400D01*
X234081Y37200D02*
X236480D01*
X212781Y44398D02*
Y45197D01*
X213180Y43998D02*
X213580D01*
X212781Y44398D02*
X213180Y43998D01*
X212381D02*
X212781Y44398D01*
X211981Y43998D02*
X212381D01*
X211581Y44398D02*
X211981Y43998D01*
X211581Y44398D02*
Y45197D01*
X211981Y45597D01*
X212381D01*
X212781Y45197D01*
X213180Y45597D01*
X213580D01*
X213980Y45197D01*
Y44398D02*
Y45197D01*
X213580Y43998D02*
X213980Y44398D01*
X211581Y41998D02*
X211981Y41599D01*
X211581Y41998D02*
Y42798D01*
X211981Y43198D01*
X212781D01*
X213180Y42798D01*
Y42398D02*
Y42798D01*
X212781Y41599D02*
X213180Y42398D01*
X212781Y41599D02*
X213980D01*
Y43198D01*
X213580Y39599D02*
X213980Y39999D01*
X211581D02*
X213980D01*
X211581D02*
Y40399D01*
Y39599D02*
Y40399D01*
Y38800D02*
X212381Y38000D01*
Y37200D02*
Y38400D01*
X212781Y38800D01*
X213580D01*
X213980Y38400D01*
Y37200D02*
Y38400D01*
X211581Y37200D02*
X213980D01*
X390883Y194099D02*
X391283Y193699D01*
X390883Y191700D02*
Y194099D01*
X390483Y191700D02*
X390883D01*
X390483D02*
X391283D01*
X393282D02*
X393682Y192100D01*
X392482Y191700D02*
X393282D01*
X392082Y192100D02*
X392482Y191700D01*
X392082Y192100D02*
Y192500D01*
X392482Y192900D01*
X392882D01*
X392482D02*
X392882D01*
X392082Y193299D02*
X392482Y192900D01*
X392082Y193299D02*
Y193699D01*
X392482Y194099D01*
X393282D01*
X393682Y193699D01*
X394881Y194099D02*
X396081D01*
X394481Y193699D02*
X394881Y194099D01*
X394481Y192100D02*
Y193699D01*
Y192100D02*
X394881Y191700D01*
X396081D01*
Y194099D01*
X425383Y184200D02*
X425783Y184600D01*
X424584Y184200D02*
X425383D01*
X424184Y184600D02*
X424584Y184200D01*
X424184Y184600D02*
Y185000D01*
X424584Y185400D01*
X424984D01*
X424584D02*
X424984D01*
X424184Y185800D02*
X424584Y185400D01*
X424184Y185800D02*
Y186199D01*
X424584Y186599D01*
X425383D01*
X425783Y186199D01*
X426983Y185400D02*
X428182D01*
X426583Y185000D02*
X426983Y185400D01*
X426583Y184600D02*
Y185000D01*
Y184600D02*
X426983Y184200D01*
X427783D01*
X428182Y184600D01*
Y185400D01*
X427383Y186199D02*
X428182Y185400D01*
X426583Y186599D02*
X427383Y186199D01*
X429782Y186599D02*
X430182Y186199D01*
X429782Y184200D02*
Y186599D01*
X429382Y184200D02*
X429782D01*
X429382D02*
X430182D01*
X430981D02*
X431781Y185000D01*
X431381D02*
X432581D01*
X430981Y185400D02*
X431381Y185000D01*
X430981Y185400D02*
Y186199D01*
X431381Y186599D01*
X432581D01*
Y184200D02*
Y186599D01*
X382281Y189998D02*
Y191597D01*
Y189998D02*
X383480Y191197D01*
X381081D02*
X383480D01*
X382281Y187599D02*
Y188798D01*
X381881Y189198D02*
X382281Y188798D01*
X381481Y189198D02*
X381881D01*
X381081Y188798D02*
X381481Y189198D01*
X381081Y187998D02*
Y188798D01*
Y187998D02*
X381481Y187599D01*
X382281D01*
X383080Y188398D01*
X383480Y189198D01*
X383080Y185599D02*
X383480Y185999D01*
X381081D02*
X383480D01*
X381081D02*
Y186399D01*
Y185599D02*
Y186399D01*
Y184800D02*
X381881Y184000D01*
Y183200D02*
Y184400D01*
X382281Y184800D01*
X383080D01*
X383480Y184400D01*
Y183200D02*
Y184400D01*
X381081Y183200D02*
X383480D01*
X390883Y176200D02*
X391283Y176600D01*
X390083Y176200D02*
X390883D01*
X389683Y176600D02*
X390083Y176200D01*
X389683Y176600D02*
Y177000D01*
X390083Y177400D01*
X390483D01*
X390083D02*
X390483D01*
X389683Y177799D02*
X390083Y177400D01*
X389683Y177799D02*
Y178199D01*
X390083Y178599D01*
X390883D01*
X391283Y178199D01*
X393282Y176200D02*
X393682Y176600D01*
X392482Y176200D02*
X393282D01*
X392082Y176600D02*
X392482Y176200D01*
X392082Y176600D02*
Y177000D01*
X392482Y177400D01*
X392882D01*
X392482D02*
X392882D01*
X392082Y177799D02*
X392482Y177400D01*
X392082Y177799D02*
Y178199D01*
X392482Y178599D01*
X393282D01*
X393682Y178199D01*
X394881Y178599D02*
X396081D01*
X394481Y178199D02*
X394881Y178599D01*
X394481Y176600D02*
Y178199D01*
Y176600D02*
X394881Y176200D01*
X396081D01*
Y178599D01*
X425383Y173700D02*
X425783Y174100D01*
X424584Y173700D02*
X425383D01*
X424184Y174100D02*
X424584Y173700D01*
X424184Y174100D02*
Y174900D01*
X424584Y175299D01*
X424984D01*
X425783Y174900D01*
Y176099D01*
X424184D02*
X425783D01*
X426983Y174900D02*
X428182D01*
X426583Y174500D02*
X426983Y174900D01*
X426583Y174100D02*
Y174500D01*
Y174100D02*
X426983Y173700D01*
X427783D01*
X428182Y174100D01*
Y174900D01*
X427383Y175699D02*
X428182Y174900D01*
X426583Y176099D02*
X427383Y175699D01*
X429782Y176099D02*
X430182Y175699D01*
X429782Y173700D02*
Y176099D01*
X429382Y173700D02*
X429782D01*
X429382D02*
X430182D01*
X430981D02*
X431781Y174500D01*
X431381D02*
X432581D01*
X430981Y174900D02*
X431381Y174500D01*
X430981Y174900D02*
Y175699D01*
X431381Y176099D01*
X432581D01*
Y173700D02*
Y176099D01*
X382281Y174498D02*
Y175697D01*
X381881Y176097D02*
X382281Y175697D01*
X381481Y176097D02*
X381881D01*
X381081Y175697D02*
X381481Y176097D01*
X381081Y174898D02*
Y175697D01*
Y174898D02*
X381481Y174498D01*
X382281D01*
X383080Y175297D01*
X383480Y176097D01*
X382281Y172099D02*
Y173298D01*
X381881Y173698D02*
X382281Y173298D01*
X381481Y173698D02*
X381881D01*
X381081Y173298D02*
X381481Y173698D01*
X381081Y172498D02*
Y173298D01*
Y172498D02*
X381481Y172099D01*
X382281D01*
X383080Y172898D01*
X383480Y173698D01*
X383080Y170099D02*
X383480Y170499D01*
X381081D02*
X383480D01*
X381081D02*
Y170899D01*
Y170099D02*
Y170899D01*
Y169300D02*
X381881Y168500D01*
Y167700D02*
Y168900D01*
X382281Y169300D01*
X383080D01*
X383480Y168900D01*
Y167700D02*
Y168900D01*
X381081Y167700D02*
X383480D01*
X390883Y161200D02*
X391283Y161600D01*
X390083Y161200D02*
X390883D01*
X389683Y161600D02*
X390083Y161200D01*
X389683Y161600D02*
Y162400D01*
X390083Y162799D01*
X390483D01*
X391283Y162400D01*
Y163599D01*
X389683D02*
X391283D01*
X393282Y161200D02*
X393682Y161600D01*
X392482Y161200D02*
X393282D01*
X392082Y161600D02*
X392482Y161200D01*
X392082Y161600D02*
Y162000D01*
X392482Y162400D01*
X392882D01*
X392482D02*
X392882D01*
X392082Y162799D02*
X392482Y162400D01*
X392082Y162799D02*
Y163199D01*
X392482Y163599D01*
X393282D01*
X393682Y163199D01*
X394881Y163599D02*
X396081D01*
X394481Y163199D02*
X394881Y163599D01*
X394481Y161600D02*
Y163199D01*
Y161600D02*
X394881Y161200D01*
X396081D01*
Y163599D01*
X425783Y163700D02*
Y164100D01*
X424184Y165699D02*
X425783Y164100D01*
X424184Y165699D02*
Y166099D01*
X425783D01*
X426983Y164900D02*
X428182D01*
X426583Y164500D02*
X426983Y164900D01*
X426583Y164100D02*
Y164500D01*
Y164100D02*
X426983Y163700D01*
X427783D01*
X428182Y164100D01*
Y164900D01*
X427383Y165699D02*
X428182Y164900D01*
X426583Y166099D02*
X427383Y165699D01*
X429782Y166099D02*
X430182Y165699D01*
X429782Y163700D02*
Y166099D01*
X429382Y163700D02*
X429782D01*
X429382D02*
X430182D01*
X430981D02*
X431781Y164500D01*
X431381D02*
X432581D01*
X430981Y164900D02*
X431381Y164500D01*
X430981Y164900D02*
Y165699D01*
X431381Y166099D01*
X432581D01*
Y163700D02*
Y166099D01*
X382281Y159398D02*
Y160197D01*
X382680Y158998D02*
X383080D01*
X382281Y159398D02*
X382680Y158998D01*
X381881D02*
X382281Y159398D01*
X381481Y158998D02*
X381881D01*
X381081Y159398D02*
X381481Y158998D01*
X381081Y159398D02*
Y160197D01*
X381481Y160597D01*
X381881D01*
X382281Y160197D01*
X382680Y160597D01*
X383080D01*
X383480Y160197D01*
Y159398D02*
Y160197D01*
X383080Y158998D02*
X383480Y159398D01*
X382281Y156599D02*
Y157798D01*
X381881Y158198D02*
X382281Y157798D01*
X381481Y158198D02*
X381881D01*
X381081Y157798D02*
X381481Y158198D01*
X381081Y156998D02*
Y157798D01*
Y156998D02*
X381481Y156599D01*
X382281D01*
X383080Y157398D01*
X383480Y158198D01*
X383080Y154599D02*
X383480Y154999D01*
X381081D02*
X383480D01*
X381081D02*
Y155399D01*
Y154599D02*
Y155399D01*
Y153799D02*
X381881Y153000D01*
Y152200D02*
Y153400D01*
X382281Y153799D01*
X383080D01*
X383480Y153400D01*
Y152200D02*
Y153400D01*
X381081Y152200D02*
X383480D01*
X399783Y132200D02*
Y132600D01*
X398183Y134199D02*
X399783Y132600D01*
X398183Y134199D02*
Y134599D01*
X399783D01*
X401782Y132200D02*
X402182Y132600D01*
X400982Y132200D02*
X401782D01*
X400582Y132600D02*
X400982Y132200D01*
X400582Y132600D02*
Y133000D01*
X400982Y133400D01*
X401382D01*
X400982D02*
X401382D01*
X400582Y133800D02*
X400982Y133400D01*
X400582Y133800D02*
Y134199D01*
X400982Y134599D01*
X401782D01*
X402182Y134199D01*
X403381Y134599D02*
X404581D01*
X402981Y134199D02*
X403381Y134599D01*
X402981Y132600D02*
Y134199D01*
Y132600D02*
X403381Y132200D01*
X404581D01*
Y134599D01*
X425184Y154900D02*
X426383D01*
X426783Y155299D01*
Y155699D01*
X426383Y156099D02*
X426783Y155699D01*
X425584Y156099D02*
X426383D01*
X425184Y155699D02*
X425584Y156099D01*
X425184Y154100D02*
Y155699D01*
Y154100D02*
X425584Y153700D01*
X426383D01*
X426783Y154100D01*
X427983Y154900D02*
X429182D01*
X427583Y154500D02*
X427983Y154900D01*
X427583Y154100D02*
Y154500D01*
Y154100D02*
X427983Y153700D01*
X428783D01*
X429182Y154100D01*
Y154900D01*
X428383Y155699D02*
X429182Y154900D01*
X427583Y156099D02*
X428383Y155699D01*
X430782Y156099D02*
X431182Y155699D01*
X430782Y153700D02*
Y156099D01*
X430382Y153700D02*
X430782D01*
X430382D02*
X431182D01*
X431981D02*
X432781Y154500D01*
X432381D02*
X433581D01*
X431981Y154900D02*
X432381Y154500D01*
X431981Y154900D02*
Y155699D01*
X432381Y156099D01*
X433581D01*
Y153700D02*
Y156099D01*
X381481Y143998D02*
X383080D01*
X381081Y144398D02*
X381481Y143998D01*
X381081Y144398D02*
Y145197D01*
X381481Y145597D01*
X383080D01*
X383480Y145197D01*
Y144398D02*
Y145197D01*
X383080Y143998D02*
X383480Y144398D01*
X381081Y141599D02*
X381481D01*
X383080Y143198D01*
X383480D01*
Y141599D02*
Y143198D01*
X383080Y139599D02*
X383480Y139999D01*
X381081D02*
X383480D01*
X381081D02*
Y140399D01*
Y139599D02*
Y140399D01*
Y138799D02*
X381881Y138000D01*
Y137200D02*
Y138400D01*
X382281Y138799D01*
X383080D01*
X383480Y138400D01*
Y137200D02*
Y138400D01*
X381081Y137200D02*
X383480D01*
X245581Y61484D02*
X245981Y61084D01*
X245581Y61484D02*
Y62284D01*
X245981Y62683D01*
X246781D01*
X247181Y62284D01*
Y61884D02*
Y62284D01*
X246781Y61084D02*
X247181Y61884D01*
X246781Y61084D02*
X247980D01*
Y62683D01*
X247580Y59085D02*
X247980Y59485D01*
X245581D02*
X247980D01*
X245581D02*
Y59884D01*
Y59085D02*
Y59884D01*
X247980Y56685D02*
Y57885D01*
X247580Y58285D02*
X247980Y57885D01*
X245981Y58285D02*
X247580D01*
X245581Y57885D02*
X245981Y58285D01*
X245581Y56685D02*
Y57885D01*
Y56685D02*
X247980D01*
X256681Y34902D02*
X257081D01*
X255082Y33302D02*
X256681Y34902D01*
X254682Y33302D02*
X255082D01*
X254682D02*
Y34902D01*
X256681Y37301D02*
X257081Y36901D01*
Y36101D02*
Y36901D01*
X256681Y35701D02*
X257081Y36101D01*
X255881Y35701D02*
X256681D01*
X255482Y36101D02*
X255881Y35701D01*
X255482Y36101D02*
Y36501D01*
X255881Y37301D01*
X254682D02*
X255881D01*
X254682Y35701D02*
Y37301D01*
X256281Y38900D02*
X257081Y38101D01*
X256281Y38500D02*
Y39700D01*
X255881Y38101D02*
X256281Y38500D01*
X255082Y38101D02*
X255881D01*
X254682Y38500D02*
X255082Y38101D01*
X254682Y38500D02*
Y39700D01*
X257081D01*
X260281Y88398D02*
Y89198D01*
X260681Y87998D02*
X261080D01*
X260281Y88398D02*
X260681Y87998D01*
X259881D02*
X260281Y88398D01*
X259481Y87998D02*
X259881D01*
X259081Y88398D02*
X259481Y87998D01*
X259081Y88398D02*
Y89198D01*
X259481Y89598D01*
X259881D01*
X260281Y89198D01*
X260681Y89598D01*
X261080D01*
X261480Y89198D01*
Y88398D02*
Y89198D01*
X261080Y87998D02*
X261480Y88398D01*
X259081Y85999D02*
X259481Y85599D01*
X259081Y85999D02*
Y86799D01*
X259481Y87199D01*
X260281D01*
X260681Y86799D01*
Y86399D02*
Y86799D01*
X260281Y85599D02*
X260681Y86399D01*
X260281Y85599D02*
X261480D01*
Y87199D01*
X259081Y84800D02*
X259881Y84000D01*
Y83200D02*
Y84400D01*
X260281Y84800D01*
X261080D01*
X261480Y84400D01*
Y83200D02*
Y84400D01*
X259081Y83200D02*
X261480D01*
X252481Y87998D02*
X254080D01*
X252081Y88398D02*
X252481Y87998D01*
X252081Y88398D02*
Y89198D01*
X252481Y89598D01*
X254080D01*
X254480Y89198D01*
Y88398D02*
Y89198D01*
X254080Y87998D02*
X254480Y88398D01*
X252081Y85599D02*
X252481D01*
X254080Y87199D01*
X254480D01*
Y85599D02*
Y87199D01*
X252081Y84400D02*
X252481Y84800D01*
X252081Y83600D02*
Y84400D01*
Y83600D02*
X252481Y83200D01*
X254080D01*
X254480Y83600D01*
Y84400D01*
X254080Y84800D02*
X254480Y84400D01*
X242081Y48898D02*
X242481Y48498D01*
X242081Y48898D02*
Y49698D01*
X242481Y50098D01*
X242881D01*
X243281Y49698D01*
Y49298D02*
Y49698D01*
Y49298D02*
Y49698D01*
X243681Y50098D01*
X244080D01*
X244480Y49698D01*
Y48898D02*
Y49698D01*
X244080Y48498D02*
X244480Y48898D01*
X243281Y46099D02*
Y47299D01*
X242881Y47699D02*
X243281Y47299D01*
X242481Y47699D02*
X242881D01*
X242081Y47299D02*
X242481Y47699D01*
X242081Y46499D02*
Y47299D01*
Y46499D02*
X242481Y46099D01*
X243281D01*
X244080Y46899D01*
X244480Y47699D01*
X242081Y45300D02*
X242881Y44500D01*
Y43700D02*
Y44900D01*
X243281Y45300D01*
X244080D01*
X244480Y44900D01*
Y43700D02*
Y44900D01*
X242081Y43700D02*
X244480D01*
X160924Y448826D02*
Y464574D01*
X141238Y448826D02*
Y464574D01*
X160333Y448826D02*
X160924D01*
X160333Y464574D02*
X160924D01*
X141238D02*
X141829D01*
X141238Y448826D02*
X141829D01*
X155412D02*
X156790D01*
X150490D02*
X151672D01*
X145372D02*
X146750D01*
X155412Y464574D02*
X156790D01*
X150490D02*
X151672D01*
X145372D02*
X146750D01*
X319868Y444944D02*
Y450456D01*
X314538D02*
X322018D01*
X314538Y444944D02*
X322018D01*
X452065Y58501D02*
X453246Y57320D01*
X452065Y56139D02*
Y58501D01*
Y56139D02*
X452853Y56926D01*
X453246Y57320D01*
X452853Y56926D02*
Y57320D01*
X452459Y57713D02*
X452853Y57320D01*
X452459Y56926D02*
Y57713D01*
X564752Y235443D02*
X580500D01*
X564752Y215757D02*
X580500D01*
Y234852D02*
Y235443D01*
X564752Y234852D02*
Y235443D01*
Y215757D02*
Y216348D01*
X580500Y215757D02*
Y216348D01*
Y229931D02*
Y231309D01*
Y225009D02*
Y226191D01*
Y219891D02*
Y221269D01*
X564752Y229931D02*
Y231309D01*
Y225009D02*
Y226191D01*
Y219891D02*
Y221269D01*
X332294Y444944D02*
Y450456D01*
X330144Y444944D02*
X337624D01*
X330144Y450456D02*
X337624D01*
M02*
