G04*
G04 #@! TF.GenerationSoftware,Altium Limited,Altium Designer,19.0.11 (319)*
G04*
G04 Layer_Color=128*
%FSLAX25Y25*%
%MOIN*%
G70*
G01*
G75*
G04:AMPARAMS|DCode=51|XSize=39.37mil|YSize=39.37mil|CornerRadius=19.68mil|HoleSize=0mil|Usage=FLASHONLY|Rotation=0.000|XOffset=0mil|YOffset=0mil|HoleType=Round|Shape=RoundedRectangle|*
%AMROUNDEDRECTD51*
21,1,0.03937,0.00000,0,0,0.0*
21,1,0.00000,0.03937,0,0,0.0*
1,1,0.03937,0.00000,0.00000*
1,1,0.03937,0.00000,0.00000*
1,1,0.03937,0.00000,0.00000*
1,1,0.03937,0.00000,0.00000*
%
%ADD51ROUNDEDRECTD51*%
%ADD53R,0.05512X0.03937*%
%ADD59R,0.03937X0.05512*%
%ADD71R,0.04724X0.03150*%
%ADD72R,0.03150X0.04724*%
%ADD187R,0.02165X0.05906*%
%ADD188R,0.06299X0.07087*%
%ADD189R,0.06299X0.07874*%
%ADD190R,0.07087X0.06299*%
%ADD191R,0.07874X0.06299*%
%ADD192R,0.05512X0.02047*%
%ADD193R,0.05906X0.02165*%
%ADD194R,0.02362X0.02362*%
D51*
X383081Y53200D02*
D03*
X589066Y525200D02*
D03*
X330316Y372600D02*
D03*
X219631Y514270D02*
D03*
D53*
X409247Y186900D02*
D03*
X400585Y190640D02*
D03*
Y183160D02*
D03*
X409247Y171900D02*
D03*
X400585Y175640D02*
D03*
Y168160D02*
D03*
X409247Y156900D02*
D03*
X400585Y160640D02*
D03*
Y153160D02*
D03*
X409247Y141900D02*
D03*
X400585Y145640D02*
D03*
Y138160D02*
D03*
D59*
X360516Y57169D02*
D03*
X364256Y65831D02*
D03*
X356776D02*
D03*
X239216Y77131D02*
D03*
X235476Y68469D02*
D03*
X242956D02*
D03*
X209216Y77131D02*
D03*
X205476Y68469D02*
D03*
X212956D02*
D03*
X315516Y57169D02*
D03*
X319256Y65831D02*
D03*
X311776D02*
D03*
X220476Y54331D02*
D03*
X227956D02*
D03*
X224216Y45669D02*
D03*
X345516Y57169D02*
D03*
X349256Y65831D02*
D03*
X341776D02*
D03*
X346081Y454369D02*
D03*
X349821Y463031D02*
D03*
X342341D02*
D03*
X330516Y57169D02*
D03*
X334256Y65831D02*
D03*
X326776D02*
D03*
X306516Y454447D02*
D03*
X310256Y463109D02*
D03*
X302776D02*
D03*
X270516Y57169D02*
D03*
X274256Y65831D02*
D03*
X266776D02*
D03*
X285516Y57169D02*
D03*
X289256Y65831D02*
D03*
X281776D02*
D03*
X255081Y57200D02*
D03*
X258821Y65862D02*
D03*
X251341D02*
D03*
X300516Y57169D02*
D03*
X304256Y65831D02*
D03*
X296776D02*
D03*
D71*
X367516Y246857D02*
D03*
Y253943D02*
D03*
X313016Y72957D02*
D03*
Y80043D02*
D03*
X328016Y72957D02*
D03*
Y80043D02*
D03*
X553926Y226957D02*
D03*
Y234043D02*
D03*
X345516Y42957D02*
D03*
Y50043D02*
D03*
X220116Y76343D02*
D03*
Y69257D02*
D03*
X305516Y72957D02*
D03*
Y80043D02*
D03*
X249216Y26957D02*
D03*
Y34043D02*
D03*
X315516Y42957D02*
D03*
Y50043D02*
D03*
X167081Y460244D02*
D03*
Y467330D02*
D03*
X358016Y72957D02*
D03*
Y80043D02*
D03*
X350516Y72957D02*
D03*
Y80043D02*
D03*
X365516Y72957D02*
D03*
Y80043D02*
D03*
X547226Y234243D02*
D03*
Y227157D02*
D03*
X360516Y42957D02*
D03*
Y50043D02*
D03*
X235216Y48357D02*
D03*
Y55443D02*
D03*
X228316Y76343D02*
D03*
Y69257D02*
D03*
X198116Y41043D02*
D03*
Y33957D02*
D03*
X343016Y72957D02*
D03*
Y80043D02*
D03*
X360316Y253843D02*
D03*
Y246757D02*
D03*
X484726Y64443D02*
D03*
Y57357D02*
D03*
X323516Y50043D02*
D03*
Y42957D02*
D03*
X308516Y50043D02*
D03*
Y42957D02*
D03*
X283016Y72957D02*
D03*
Y80043D02*
D03*
X300516Y42957D02*
D03*
Y50043D02*
D03*
X278516D02*
D03*
Y42957D02*
D03*
X259516Y148357D02*
D03*
Y155443D02*
D03*
X335516Y72957D02*
D03*
Y80043D02*
D03*
X293516Y50043D02*
D03*
Y42957D02*
D03*
X228316Y91743D02*
D03*
Y84657D02*
D03*
X263516Y50043D02*
D03*
Y42957D02*
D03*
X268016Y72957D02*
D03*
Y80043D02*
D03*
X298016Y72957D02*
D03*
Y80043D02*
D03*
X320516Y72957D02*
D03*
Y80043D02*
D03*
X338516Y50043D02*
D03*
Y42957D02*
D03*
X330516D02*
D03*
Y50043D02*
D03*
X268716Y148357D02*
D03*
Y155443D02*
D03*
X275516Y72957D02*
D03*
Y80043D02*
D03*
X270516Y42957D02*
D03*
Y50043D02*
D03*
X219916Y95043D02*
D03*
Y87957D02*
D03*
X212716D02*
D03*
Y95043D02*
D03*
X239216Y84657D02*
D03*
Y91743D02*
D03*
X374516Y246857D02*
D03*
Y253943D02*
D03*
X290516Y72957D02*
D03*
Y80043D02*
D03*
X381616Y246857D02*
D03*
Y253943D02*
D03*
X285516Y42957D02*
D03*
Y50043D02*
D03*
X353516D02*
D03*
Y42957D02*
D03*
X260516Y72957D02*
D03*
Y80043D02*
D03*
X248516Y50043D02*
D03*
Y42957D02*
D03*
X255516D02*
D03*
Y50043D02*
D03*
X253016Y72957D02*
D03*
Y80043D02*
D03*
X213216Y55443D02*
D03*
Y48357D02*
D03*
D72*
X578159Y43500D02*
D03*
X571073D02*
D03*
X591673Y233110D02*
D03*
X598759D02*
D03*
X495659Y98300D02*
D03*
X488573D02*
D03*
X591573Y226410D02*
D03*
X598659D02*
D03*
X151495Y476700D02*
D03*
X158581D02*
D03*
X495559Y387100D02*
D03*
X488473D02*
D03*
X349427Y470700D02*
D03*
X342341D02*
D03*
X495659Y230300D02*
D03*
X488573D02*
D03*
X356624Y385700D02*
D03*
X349538D02*
D03*
X495659Y338100D02*
D03*
X488573D02*
D03*
X458283Y49000D02*
D03*
X465369D02*
D03*
X495659Y186400D02*
D03*
X488573D02*
D03*
X574669Y211500D02*
D03*
X567583D02*
D03*
X425583Y104600D02*
D03*
X432669D02*
D03*
X470683Y49000D02*
D03*
X477769D02*
D03*
X302776Y478778D02*
D03*
X309862D02*
D03*
X495159Y495600D02*
D03*
X488073D02*
D03*
X390112Y383700D02*
D03*
X383027D02*
D03*
X425483Y96700D02*
D03*
X432569D02*
D03*
X425483Y112000D02*
D03*
X432569D02*
D03*
X393759Y171900D02*
D03*
X386673D02*
D03*
X425373Y169900D02*
D03*
X432459D02*
D03*
X281059Y138000D02*
D03*
X273973D02*
D03*
X425373Y179900D02*
D03*
X432459D02*
D03*
X342341Y478700D02*
D03*
X349427D02*
D03*
X432459Y159900D02*
D03*
X425373D02*
D03*
X393459Y186900D02*
D03*
X386373D02*
D03*
X309862Y471278D02*
D03*
X302776D02*
D03*
X281059Y121100D02*
D03*
X273973D02*
D03*
X432569Y119700D02*
D03*
X425483D02*
D03*
X273973Y128600D02*
D03*
X281059D02*
D03*
X393759Y141900D02*
D03*
X386673D02*
D03*
X393759Y156900D02*
D03*
X386673D02*
D03*
X432459Y149900D02*
D03*
X425373D02*
D03*
D187*
X158581Y446070D02*
D03*
X153581D02*
D03*
X148581D02*
D03*
X143581D02*
D03*
Y467330D02*
D03*
X148581D02*
D03*
X153581D02*
D03*
X158581D02*
D03*
D188*
X326989Y520850D02*
D03*
X315965D02*
D03*
D189*
X346289D02*
D03*
X335265D02*
D03*
D190*
X320816Y459388D02*
D03*
Y470412D02*
D03*
D191*
X332816Y459688D02*
D03*
Y470712D02*
D03*
D192*
X457183Y57300D02*
D03*
Y62300D02*
D03*
Y67300D02*
D03*
Y72300D02*
D03*
X476869D02*
D03*
Y67300D02*
D03*
Y62300D02*
D03*
Y57300D02*
D03*
D193*
X583256Y233100D02*
D03*
Y228100D02*
D03*
Y223100D02*
D03*
Y218100D02*
D03*
X561996D02*
D03*
Y223100D02*
D03*
Y228100D02*
D03*
Y233100D02*
D03*
D194*
X322805Y447700D02*
D03*
X313357D02*
D03*
X329357D02*
D03*
X338805D02*
D03*
M02*
