G04 ================== begin FILE IDENTIFICATION RECORD ==================*
G04 Layout Name:  PC-1161-P-R1 GANGES CM PCB.brd*
G04 Film Name:    SST*
G04 File Format:  Gerber RS274X*
G04 File Origin:  Cadence Allegro 17.2-S081*
G04 Origin Date:  Thu Nov 09 14:48:03 2023*
G04 *
G04 Layer:  MANUFACTURING/PHOTOPLOT_OUTLINE*
G04 Layer:  BOARD GEOMETRY/DESIGN_OUTLINE*
G04 Layer:  REF DES/SILKSCREEN_TOP*
G04 Layer:  PACKAGE GEOMETRY/SILKSCREEN_TOP*
G04 Layer:  BOARD GEOMETRY/SILKSCREEN_TOP*
G04 Layer:  BOARD GEOMETRY/OUTLINE*
G04 *
G04 Offset:    (0.00 0.00)*
G04 Mirror:    No*
G04 Mode:      Positive*
G04 Rotation:  0*
G04 FullContactRelief:  No*
G04 UndefLineWidth:     10.00*
G04 ================== end FILE IDENTIFICATION RECORD ====================*
%FSLAX25Y25*MOIN*%
%IR0*IPPOS*OFA0.00000B0.00000*MIA0B0*SFA1.00000B1.00000*%
%ADD10C,.012*%
%ADD11C,.01*%
G75*
%LPD*%
G75*
G54D10*
G01X2953Y-86235D02*
X3245Y-86735D01*
X3595Y-87068D01*
X4003Y-87235D01*
X4470Y-87068D01*
X4820Y-86735D01*
X5170Y-86235D01*
X5287Y-85568D01*
Y-82235D01*
G01X7337Y-86235D02*
X7687Y-86818D01*
X8153Y-87152D01*
X8678Y-87235D01*
X9145Y-87152D01*
X9612Y-86735D01*
X9903Y-86235D01*
X9962Y-85735D01*
X9845Y-85152D01*
X9437Y-84735D01*
X9028Y-84568D01*
X8503D01*
G01X9028D02*
X9378Y-84318D01*
X9670Y-83902D01*
X9787Y-83402D01*
X9670Y-82902D01*
X9378Y-82485D01*
X8853Y-82235D01*
X8328Y-82318D01*
X7803Y-82652D01*
G01X21870Y-27406D02*
X22162Y-27906D01*
X22512Y-28239D01*
X22920Y-28406D01*
X23387Y-28239D01*
X23737Y-27906D01*
X24087Y-27406D01*
X24204Y-26739D01*
Y-23406D01*
G01X27537Y-28406D02*
Y-23406D01*
X26837Y-24406D01*
G01Y-28406D02*
X28237D01*
G01X25083Y-59500D02*
Y-54500D01*
X26483D01*
X26950Y-54750D01*
X27300Y-55333D01*
X27417Y-56000D01*
X27300Y-56667D01*
X27008Y-57167D01*
X26483Y-57417D01*
X25083D01*
G01X32033Y-54917D02*
X31683Y-54667D01*
X31275Y-54500D01*
X30808D01*
X30283Y-54750D01*
X29875Y-55167D01*
X29583Y-55667D01*
X29350Y-56500D01*
X29292Y-57250D01*
X29408Y-58000D01*
X29583Y-58500D01*
X29933Y-59000D01*
X30342Y-59333D01*
X30750Y-59500D01*
X31158D01*
X31567Y-59333D01*
X31917Y-59083D01*
X32208Y-58750D01*
G01X34492Y-57833D02*
X36008D01*
G01X39750Y-59500D02*
Y-54500D01*
X39050Y-55500D01*
G01Y-59500D02*
X40450D01*
G01X44250D02*
Y-54500D01*
X43550Y-55500D01*
G01Y-59500D02*
X44950D01*
G01X47642Y-57417D02*
X48050Y-56833D01*
X48400Y-56500D01*
X48867Y-56333D01*
X49275Y-56500D01*
X49567Y-56833D01*
X49800Y-57333D01*
X49858Y-57917D01*
X49800Y-58417D01*
X49567Y-58917D01*
X49217Y-59333D01*
X48808Y-59500D01*
X48342Y-59333D01*
X47933Y-58833D01*
X47700Y-58083D01*
X47642Y-57250D01*
X47758Y-56167D01*
X47933Y-55583D01*
X48225Y-55000D01*
X48633Y-54583D01*
X49042Y-54500D01*
X49450Y-54667D01*
X49742Y-55083D01*
G01X53250Y-59500D02*
Y-54500D01*
X52550Y-55500D01*
G01Y-59500D02*
X53950D01*
G01X56992Y-57833D02*
X58508D01*
G01X61083Y-59500D02*
Y-54500D01*
X62483D01*
X62950Y-54750D01*
X63300Y-55333D01*
X63417Y-56000D01*
X63300Y-56667D01*
X63008Y-57167D01*
X62483Y-57417D01*
X61083D01*
G01X65992Y-57833D02*
X67508D01*
G01X70083Y-59500D02*
Y-54500D01*
X71542D01*
X72008Y-54750D01*
X72300Y-55083D01*
X72417Y-55750D01*
X72300Y-56417D01*
X71950Y-56833D01*
X71542Y-57083D01*
X70083D01*
G01X71542D02*
X72417Y-59500D01*
G01X75750D02*
Y-54500D01*
X75050Y-55500D01*
G01Y-59500D02*
X76450D01*
G01X71253Y-47001D02*
Y-42001D01*
X72712D01*
X73178Y-42251D01*
X73470Y-42584D01*
X73587Y-43251D01*
X73470Y-43918D01*
X73120Y-44334D01*
X72712Y-44584D01*
X71253D01*
G01X72712D02*
X73587Y-47001D01*
G01X75812Y-42834D02*
X76162Y-42334D01*
X76570Y-42084D01*
X77037Y-42001D01*
X77620Y-42168D01*
X78028Y-42584D01*
X78145Y-43084D01*
X78087Y-43584D01*
X77853Y-44001D01*
X76687Y-44834D01*
X76162Y-45418D01*
X75812Y-46251D01*
X75695Y-47001D01*
X78145D01*
G01X75083Y-21500D02*
X75375Y-22000D01*
X75725Y-22333D01*
X76133Y-22500D01*
X76600Y-22333D01*
X76950Y-22000D01*
X77300Y-21500D01*
X77417Y-20833D01*
Y-17500D01*
G01X79642Y-18333D02*
X79992Y-17833D01*
X80400Y-17583D01*
X80867Y-17500D01*
X81450Y-17667D01*
X81858Y-18083D01*
X81975Y-18583D01*
X81917Y-19083D01*
X81683Y-19500D01*
X80517Y-20333D01*
X79992Y-20917D01*
X79642Y-21750D01*
X79525Y-22500D01*
X81975D01*
G01X67753Y-26611D02*
Y-21611D01*
X69212D01*
X69678Y-21861D01*
X69970Y-22194D01*
X70087Y-22861D01*
X69970Y-23528D01*
X69620Y-23944D01*
X69212Y-24194D01*
X67753D01*
G01X69212D02*
X70087Y-26611D01*
G01X73420D02*
Y-21611D01*
X72720Y-22611D01*
G01Y-26611D02*
X74120D01*
G01X90805Y-55253D02*
X91305Y-55603D01*
X91555Y-56011D01*
X91638Y-56478D01*
X91471Y-57061D01*
X91055Y-57469D01*
X90555Y-57586D01*
X90055Y-57528D01*
X89638Y-57294D01*
X88805Y-56128D01*
X88221Y-55603D01*
X87388Y-55253D01*
X86638Y-55136D01*
Y-57586D01*
G54D11*
G01X19558Y-18192D02*
X-22961D01*
Y-54610D01*
X19558D01*
Y-18192D01*
G01X82008Y-78143D02*
X13110D01*
Y-120662D01*
X82008D01*
X96457D01*
Y-78143D01*
X82008D01*
G01X0Y-98425D02*
Y0D01*
X106299D01*
Y-98425D01*
X0D01*
G01D02*
Y0D01*
X106299D01*
Y-98425D01*
X0D01*
G01X79158Y-58154D02*
X102780D01*
Y-24689D01*
X79158D01*
X78173D01*
Y-58154D01*
X79158D01*
G01X88016Y-24689D02*
Y-26658D01*
X80142D01*
Y-56185D01*
X88016D01*
Y-58154D01*
G01X74978Y-35623D02*
X63954D01*
X63560D01*
Y-40741D01*
X63954D01*
X74978D01*
Y-35623D01*
G01Y-28733D02*
X63954D01*
X63560D01*
Y-33851D01*
X63954D01*
X74978D01*
Y-28733D01*
G01X87425Y-26588D02*
X92425D01*
X91425Y-25829D01*
G01X87425D02*
Y-27348D01*
M02*
