G04 ================== begin FILE IDENTIFICATION RECORD ==================*
G04 Layout Name:  pc-1161-P ganges current measurement card.brd*
G04 Film Name:    BOTTOM*
G04 File Format:  Gerber RS274X*
G04 File Origin:  Cadence Allegro 17.4-S029*
G04 Origin Date:  Tue Aug  8 14:56:17 2023*
G04 *
G04 Layer:  MANUFACTURING/PHOTOPLOT_OUTLINE*
G04 Layer:  BOARD GEOMETRY/CUTOUT*
G04 Layer:  BOARD GEOMETRY/DESIGN_OUTLINE*
G04 Layer:  BOARD GEOMETRY/SOLDERMASK_BOTTOM*
G04 Layer:  BOARD GEOMETRY/OUTLINE*
G04 Layer:  ETCH/BOTTOM*
G04 Layer:  PIN/BOTTOM*
G04 Layer:  VIA CLASS/BOTTOM*
G04 *
G04 Offset:    (0.00 0.00)*
G04 Mirror:    No*
G04 Mode:      Positive*
G04 Rotation:  0*
G04 FullContactRelief:  No*
G04 UndefLineWidth:     10.00*
G04 ================== end FILE IDENTIFICATION RECORD ====================*
%FSLAX25Y25*MOIN*%
%IR0*IPPOS*OFA0.00000B0.00000*MIA0B0*SFA1.00000B1.00000*%
%ADD15C,.035*%
%ADD11C,.0315*%
%ADD19C,.07087*%
%ADD13R,.13268X.0748*%
%ADD20R,.07087X.07087*%
%ADD14O,.04X.08*%
%AMMACRO17*
21,1,.04724,.03543,0.0,0.0,179.969*%
%ADD17MACRO17*%
%ADD21C,.153*%
%ADD16R,.04331X.0315*%
%ADD12C,.11811*%
%ADD10R,.11811X.11811*%
%ADD18R,.01102X.05787*%
%ADD22C,.01*%
%ADD23C,.02*%
%ADD24C,.03*%
%ADD25C,.05*%
%ADD26C,.06*%
%ADD27C,.025*%
%ADD28C,.005*%
G75*
%LPD*%
G75*
G36*
G01X5799Y-17500D02*
X30606D01*
X32486Y-19381D01*
G03X33293Y-19994I2652J2654D01*
G01X35818Y-22519D01*
G03X35278Y-24072I1961J-1552D01*
G01Y-29858D01*
G03X35325Y-30342I2501J-1D01*
G01X35328Y-30361D01*
Y-30970D01*
X35299Y-31000D01*
X19799D01*
X16799Y-34000D01*
X2799D01*
X1799Y-33000D01*
Y-21500D01*
X5799Y-17500D01*
G37*
G36*
G01X37476Y-32360D02*
X38799D01*
Y-37000D01*
X27799Y-48000D01*
X3299D01*
X1799Y-46500D01*
Y-39500D01*
X4299Y-37000D01*
X32799D01*
X36298Y-33502D01*
X36335D01*
X37476Y-32360D01*
G37*
G54D10*
X24803Y-87985D03*
X10503Y-28035D03*
G54D20*
X90945Y-48477D03*
G54D11*
X4299Y-93500D03*
X5299Y-5500D03*
X81299Y-14000D03*
G54D12*
X10503Y-43035D03*
X54803Y-87985D03*
X39803D03*
X84803D03*
X69803D03*
G54D21*
X94488Y-11811D03*
G54D22*
G01X44236Y-26965D02*
Y-37063D01*
X42799Y-38500D01*
G01X36558Y-35741D02*
X38330Y-33969D01*
G01D02*
Y-26965D01*
G01X36299Y-3500D02*
X36221Y-3578D01*
Y-9894D01*
X36362Y-10035D01*
G01X42299Y-19000D02*
Y-21809D01*
X42268Y-21840D01*
Y-26965D01*
G01X38190Y-16728D02*
X38330Y-16588D01*
Y-10035D01*
G01X42268D02*
Y-13968D01*
X43800Y-15500D01*
X50299D01*
X53740Y-18941D01*
Y-24205D01*
G01X44236Y-10035D02*
Y-4392D01*
X46660Y-1968D01*
X58469D01*
X61023Y-4522D01*
Y-24205D01*
G01X32500Y-21500D02*
X33240D01*
G01D02*
X36362Y-24622D01*
Y-26965D01*
G01X53740Y-24205D02*
X53149D01*
G01X0Y-98425D02*
Y0D01*
X106299D01*
Y-98425D01*
X0D01*
G01D02*
Y0D01*
X106299D01*
Y-98425D01*
X0D01*
G54D13*
X24799Y-42972D03*
Y-22028D03*
G54D23*
G01X39803Y-87985D02*
X46315Y-81473D01*
Y-66500D01*
G01X41394Y-79000D02*
Y-66500D01*
G01X54500Y-37000D02*
Y-48999D01*
X51236Y-52263D01*
Y-66500D01*
G01X53740Y-31685D02*
X54500Y-32445D01*
Y-37000D01*
G01X60820Y-38161D02*
Y-50681D01*
X56157Y-55344D01*
Y-66500D01*
G01X61023Y-31685D02*
Y-37958D01*
X60820Y-38161D01*
G01D02*
X60799Y-38182D01*
G54D14*
X31551Y-66500D03*
X36472D03*
X41394D03*
X46315D03*
X51236D03*
X56157D03*
X61079D03*
X66000D03*
G54D24*
G01X31551D02*
Y-57448D01*
X48299Y-40700D01*
Y-21250D01*
X46049Y-19000D01*
X42299D01*
G01X36299Y-3500D02*
X28059D01*
X27299Y-4260D01*
G54D15*
X41394Y-79000D03*
X42799Y-38500D03*
X54500Y-37000D03*
X36299Y-3500D03*
X42299Y-19000D03*
X66000Y-44285D03*
X60799Y-38182D03*
G54D25*
G01X90945Y-58477D02*
X84803Y-64619D01*
Y-87985D01*
G01X99606Y-56139D02*
X97268Y-58477D01*
X90945D01*
G54D16*
X53740Y-31685D03*
Y-24205D03*
X61023Y-31685D03*
Y-24205D03*
G54D26*
G01X99606Y-48659D02*
X91127D01*
X90945Y-48477D01*
G54D17*
X27299Y-11740D03*
Y-4260D03*
X99606Y-48659D03*
Y-56139D03*
G54D27*
G01X42299Y-19000D02*
X40025Y-16728D01*
X38190D01*
G01X27299Y-11740D02*
X30151D01*
X35139Y-16728D01*
X38190D01*
G01X66000Y-66500D02*
Y-44285D01*
G54D18*
X38330Y-26965D03*
X40299D03*
X42268D03*
X44236D03*
Y-10035D03*
X42268D03*
X40299D03*
X38330D03*
X36362Y-26965D03*
Y-10035D03*
G54D28*
G01X61079Y-66500D02*
X66000D01*
G54D19*
X90945Y-58477D03*
M02*
