G04 ================== begin FILE IDENTIFICATION RECORD ==================*
G04 Layout Name:  pc-1161-P ganges current measurement card.brd*
G04 Film Name:    SSB*
G04 File Format:  Gerber RS274X*
G04 File Origin:  Cadence Allegro 17.4-S029*
G04 Origin Date:  Tue Aug  8 14:56:17 2023*
G04 *
G04 Layer:  MANUFACTURING/PHOTOPLOT_OUTLINE*
G04 Layer:  BOARD GEOMETRY/DESIGN_OUTLINE*
G04 Layer:  REF DES/SILKSCREEN_BOTTOM*
G04 Layer:  PACKAGE GEOMETRY/SILKSCREEN_BOTTOM*
G04 Layer:  BOARD GEOMETRY/SILKSCREEN_BOTTOM*
G04 Layer:  BOARD GEOMETRY/OUTLINE*
G04 *
G04 Offset:    (0.00 0.00)*
G04 Mirror:    No*
G04 Mode:      Positive*
G04 Rotation:  0*
G04 FullContactRelief:  No*
G04 UndefLineWidth:     10.00*
G04 ================== end FILE IDENTIFICATION RECORD ====================*
%FSLAX25Y25*MOIN*%
%IR0*IPPOS*OFA0.00000B0.00000*MIA0B0*SFA1.00000B1.00000*%
%ADD10C,.012*%
%ADD11C,.005*%
%ADD12C,.01*%
%ADD13C,.00787*%
G75*
%LPD*%
G75*
G54D10*
G01X21417Y-66500D02*
X21125Y-67000D01*
X20775Y-67333D01*
X20367Y-67500D01*
X19900Y-67333D01*
X19550Y-67000D01*
X19200Y-66500D01*
X19083Y-65833D01*
Y-62500D01*
G01X15050Y-67500D02*
Y-62500D01*
X17208Y-66083D01*
X14292D01*
G01X19724Y-3039D02*
X20074Y-2789D01*
X20482Y-2622D01*
X20949D01*
X21474Y-2872D01*
X21882Y-3289D01*
X22174Y-3789D01*
X22407Y-4622D01*
X22465Y-5372D01*
X22349Y-6122D01*
X22174Y-6622D01*
X21824Y-7122D01*
X21415Y-7455D01*
X21007Y-7622D01*
X20599D01*
X20190Y-7455D01*
X19840Y-7205D01*
X19549Y-6872D01*
G01X17615Y-3455D02*
X17265Y-2955D01*
X16857Y-2705D01*
X16390Y-2622D01*
X15807Y-2789D01*
X15399Y-3205D01*
X15282Y-3705D01*
X15340Y-4205D01*
X15574Y-4622D01*
X16740Y-5455D01*
X17265Y-6039D01*
X17615Y-6872D01*
X17732Y-7622D01*
X15282D01*
G01X40914Y-46302D02*
Y-41302D01*
X39455D01*
X38989Y-41552D01*
X38697Y-41885D01*
X38580Y-42552D01*
X38697Y-43219D01*
X39047Y-43635D01*
X39455Y-43885D01*
X40914D01*
G01X39455D02*
X38580Y-46302D01*
G01X36530Y-45302D02*
X36180Y-45885D01*
X35714Y-46219D01*
X35189Y-46302D01*
X34722Y-46219D01*
X34255Y-45802D01*
X33964Y-45302D01*
X33905Y-44802D01*
X34022Y-44219D01*
X34430Y-43802D01*
X34839Y-43635D01*
X35364D01*
G01X34839D02*
X34489Y-43385D01*
X34197Y-42969D01*
X34080Y-42469D01*
X34197Y-41969D01*
X34489Y-41552D01*
X35014Y-41302D01*
X35539Y-41385D01*
X36064Y-41719D01*
G01X54214Y-20068D02*
Y-15068D01*
X52755D01*
X52289Y-15318D01*
X51997Y-15651D01*
X51880Y-16318D01*
X51997Y-16985D01*
X52347Y-17401D01*
X52755Y-17651D01*
X54214D01*
G01X52755D02*
X51880Y-20068D01*
G01X49830Y-19318D02*
X49480Y-19735D01*
X49072Y-19985D01*
X48547Y-20068D01*
X48022Y-19901D01*
X47614Y-19568D01*
X47322Y-18985D01*
X47264Y-18318D01*
X47380Y-17651D01*
X47672Y-17235D01*
X48080Y-16901D01*
X48489Y-16818D01*
X48897Y-16901D01*
X49422Y-17235D01*
X49247Y-15068D01*
X47672D01*
G01X54332Y-5000D02*
Y-8583D01*
X54099Y-9333D01*
X53632Y-9833D01*
X53049Y-10000D01*
X52466Y-9833D01*
X51999Y-9333D01*
X51766Y-8583D01*
Y-5000D01*
G01X48549Y-10000D02*
Y-5000D01*
X49249Y-6000D01*
G01Y-10000D02*
X47849D01*
G01X64054Y-20463D02*
Y-15463D01*
X62595D01*
X62129Y-15713D01*
X61837Y-16046D01*
X61720Y-16713D01*
X61837Y-17380D01*
X62187Y-17796D01*
X62595Y-18046D01*
X64054D01*
G01X62595D02*
X61720Y-20463D01*
G01X57687D02*
Y-15463D01*
X59845Y-19046D01*
X56929D01*
G01X100562Y-39155D02*
X100912Y-38905D01*
X101320Y-38738D01*
X101787D01*
X102312Y-38988D01*
X102720Y-39405D01*
X103012Y-39905D01*
X103245Y-40738D01*
X103303Y-41488D01*
X103187Y-42238D01*
X103012Y-42738D01*
X102662Y-43238D01*
X102253Y-43571D01*
X101845Y-43738D01*
X101437D01*
X101028Y-43571D01*
X100678Y-43321D01*
X100387Y-42988D01*
G01X97345Y-43738D02*
Y-38738D01*
X98045Y-39738D01*
G01Y-43738D02*
X96645D01*
G54D11*
G01X17456Y-44902D02*
Y-20098D01*
G01X32142Y-44902D02*
Y-20098D01*
G01X46205Y-12594D02*
Y-24406D01*
G01X34393Y-12594D02*
Y-24406D01*
G54D12*
G01X0Y-98425D02*
Y0D01*
X106299D01*
Y-98425D01*
X0D01*
G01D02*
Y0D01*
X106299D01*
Y-98425D01*
X0D01*
G01X69937Y-59610D02*
Y-73390D01*
X27614D01*
Y-59610D01*
X69937D01*
G01X27614Y-71421D02*
X28598D01*
Y-72406D01*
X68953D01*
G01X56299Y-22236D02*
Y-33260D01*
Y-33654D01*
X51181D01*
Y-33260D01*
Y-22236D01*
X56299D01*
G01X24149Y-14102D02*
Y-1897D01*
X30449D01*
Y-14102D01*
X24149D01*
G01X68953Y-72406D02*
Y-71421D01*
X69937D01*
G01X63582Y-22236D02*
Y-33260D01*
Y-33654D01*
X58464D01*
Y-33260D01*
Y-22236D01*
X63582D01*
G01X102756Y-46297D02*
Y-58502D01*
X96456D01*
Y-46297D01*
X102756D01*
G54D13*
G01X35771Y-4720D02*
G03I-393J0D01*
M02*
