G04 Layer: TopLayer*
G04 EasyEDA v6.4.25, 2022-01-11T00:03:50+05:30*
G04 e79d8a0691a342feb3cd135c88b6c30b,bb4acb9064584a23a31515f2769df67a,10*
G04 Gerber Generator version 0.2*
G04 Scale: 100 percent, Rotated: No, Reflected: No *
G04 Dimensions in millimeters *
G04 leading zeros omitted , absolute positions ,4 integer and 5 decimal *
%FSLAX45Y45*%
%MOMM*%

%ADD10C,0.2540*%
%ADD11C,0.5740*%
%ADD12C,0.6100*%
%ADD13R,1.1000X1.0000*%
%ADD14R,1.0000X1.1000*%
%ADD15R,0.9600X0.8800*%
%ADD16R,1.0000X0.8999*%
%ADD19C,1.5240*%
%ADD20R,1.7000X1.7000*%
%ADD21C,1.7000*%
%ADD22C,1.8000*%

%LPD*%
G36*
X1793748Y6444234D02*
G01*
X1789887Y6445046D01*
X1786585Y6447231D01*
X1761947Y6471869D01*
X1759712Y6475171D01*
X1758950Y6480048D01*
X1754073Y6480810D01*
X1750771Y6483045D01*
X1725523Y6508292D01*
X1723288Y6511594D01*
X1722526Y6515455D01*
X1722526Y6552590D01*
X1722018Y6557772D01*
X1722475Y6561988D01*
X1724609Y6565595D01*
X1728012Y6568084D01*
X1732127Y6568948D01*
X1758950Y6568948D01*
X1758950Y6616293D01*
X1757375Y6615633D01*
X1745640Y6608673D01*
X1734921Y6600190D01*
X1725422Y6590385D01*
X1722170Y6585966D01*
X1718919Y6583121D01*
X1714754Y6581851D01*
X1710486Y6582460D01*
X1706829Y6584797D01*
X1610360Y6681266D01*
X1608734Y6683400D01*
X1603603Y6694779D01*
X1598168Y6702552D01*
X1591411Y6709308D01*
X1583639Y6714744D01*
X1575003Y6718757D01*
X1566011Y6721195D01*
X1562150Y6723227D01*
X1559458Y6726681D01*
X1558493Y6731000D01*
X1559458Y6735318D01*
X1562150Y6738772D01*
X1566011Y6740804D01*
X1575003Y6743242D01*
X1583639Y6747256D01*
X1591411Y6752691D01*
X1598168Y6759448D01*
X1603603Y6767220D01*
X1607616Y6775856D01*
X1610106Y6785000D01*
X1610918Y6794500D01*
X1610106Y6803999D01*
X1607616Y6813143D01*
X1603603Y6821779D01*
X1598168Y6829552D01*
X1591411Y6836308D01*
X1583639Y6841744D01*
X1575003Y6845757D01*
X1566011Y6848195D01*
X1562150Y6850227D01*
X1559458Y6853681D01*
X1558493Y6858000D01*
X1559458Y6862318D01*
X1562150Y6865772D01*
X1566011Y6867804D01*
X1575003Y6870242D01*
X1583639Y6874256D01*
X1591411Y6879691D01*
X1598168Y6886448D01*
X1603603Y6894220D01*
X1606702Y6900824D01*
X1540510Y6900824D01*
X1540510Y6859270D01*
X1539748Y6855358D01*
X1537512Y6852107D01*
X1534261Y6849872D01*
X1530350Y6849109D01*
X1436217Y6849109D01*
X1432306Y6849872D01*
X1429004Y6852107D01*
X1426819Y6855358D01*
X1426057Y6859270D01*
X1426057Y6900824D01*
X1375410Y6900824D01*
X1371498Y6901586D01*
X1368247Y6903770D01*
X1366012Y6907072D01*
X1365250Y6910984D01*
X1366012Y6914845D01*
X1368247Y6918147D01*
X1389278Y6939229D01*
X1392580Y6941413D01*
X1396492Y6942175D01*
X1426667Y6942175D01*
X1428800Y6945680D01*
X1432153Y6948068D01*
X1436217Y6948881D01*
X1530350Y6948881D01*
X1534363Y6948068D01*
X1537766Y6945680D01*
X1539900Y6942175D01*
X1606702Y6942175D01*
X1603603Y6948779D01*
X1598168Y6956552D01*
X1594053Y6960666D01*
X1591868Y6963968D01*
X1591056Y6967880D01*
X1591868Y6971741D01*
X1594053Y6975043D01*
X1879549Y7260539D01*
X1882698Y7262672D01*
X1886457Y7263485D01*
X1890217Y7262875D01*
X1898853Y7259675D01*
X1912721Y7256525D01*
X1926843Y7255154D01*
X1941068Y7255611D01*
X1955088Y7257897D01*
X1968703Y7261910D01*
X1981707Y7267702D01*
X1993849Y7275068D01*
X2004974Y7283907D01*
X2014829Y7294118D01*
X2023313Y7305497D01*
X2030323Y7317892D01*
X2035657Y7331049D01*
X2039264Y7344816D01*
X2041042Y7358888D01*
X2041042Y7373112D01*
X2039264Y7387183D01*
X2035657Y7400950D01*
X2030323Y7414107D01*
X2023313Y7426502D01*
X2014829Y7437881D01*
X2004974Y7448092D01*
X1995017Y7455966D01*
X1992375Y7459167D01*
X1991258Y7463180D01*
X1991766Y7467295D01*
X1993950Y7470851D01*
X1997303Y7473238D01*
X2001367Y7474102D01*
X2065934Y7474102D01*
X2069744Y7473340D01*
X2072995Y7471257D01*
X2075180Y7468158D01*
X2076094Y7464399D01*
X2075535Y7460589D01*
X2074214Y7456728D01*
X2073503Y7450429D01*
X2073503Y7414869D01*
X2135530Y7414869D01*
X2135530Y7463942D01*
X2136343Y7467803D01*
X2138527Y7471105D01*
X2141829Y7473340D01*
X2145690Y7474102D01*
X2223109Y7474102D01*
X2226970Y7473340D01*
X2230272Y7471105D01*
X2232456Y7467803D01*
X2233269Y7463942D01*
X2233269Y7414869D01*
X2295296Y7414869D01*
X2295296Y7450429D01*
X2294585Y7456728D01*
X2293264Y7460589D01*
X2292705Y7464399D01*
X2293620Y7468158D01*
X2295804Y7471257D01*
X2299055Y7473340D01*
X2302865Y7474102D01*
X2863951Y7474102D01*
X2867812Y7473340D01*
X2871114Y7471105D01*
X2873298Y7467803D01*
X2874111Y7463942D01*
X2874111Y7053224D01*
X2873298Y7049363D01*
X2871114Y7046061D01*
X2867812Y7043877D01*
X2863951Y7043064D01*
X2860040Y7043877D01*
X2856738Y7046061D01*
X2801975Y7100824D01*
X2795727Y7105954D01*
X2789072Y7109510D01*
X2777693Y7112812D01*
X2774746Y7115048D01*
X2772765Y7118197D01*
X2772105Y7121855D01*
X2772105Y7128306D01*
X2771394Y7134656D01*
X2769463Y7140092D01*
X2766415Y7145020D01*
X2762300Y7149084D01*
X2757424Y7152182D01*
X2751937Y7154113D01*
X2745638Y7154824D01*
X2646781Y7154824D01*
X2640431Y7154113D01*
X2634996Y7152182D01*
X2630068Y7149084D01*
X2626004Y7145020D01*
X2624785Y7143140D01*
X2621991Y7140194D01*
X2618232Y7138568D01*
X2614168Y7138568D01*
X2610408Y7140194D01*
X2607614Y7143140D01*
X2606395Y7145020D01*
X2602331Y7149084D01*
X2597404Y7152182D01*
X2591968Y7154113D01*
X2585618Y7154824D01*
X2567533Y7154824D01*
X2567533Y7107732D01*
X2610104Y7107732D01*
X2614015Y7106970D01*
X2617317Y7104786D01*
X2619502Y7101484D01*
X2620264Y7097572D01*
X2620264Y7050227D01*
X2619502Y7046315D01*
X2617317Y7043013D01*
X2614015Y7040829D01*
X2610104Y7040067D01*
X2567533Y7040067D01*
X2567533Y6992975D01*
X2585618Y6992975D01*
X2591968Y6993686D01*
X2597404Y6995617D01*
X2602331Y6998716D01*
X2606395Y7002780D01*
X2607614Y7004659D01*
X2610408Y7007606D01*
X2614168Y7009231D01*
X2618232Y7009231D01*
X2621991Y7007606D01*
X2624785Y7004659D01*
X2626004Y7002780D01*
X2630068Y6998716D01*
X2634996Y6995617D01*
X2640431Y6993686D01*
X2646781Y6992975D01*
X2745638Y6992975D01*
X2751937Y6993686D01*
X2757424Y6995617D01*
X2762300Y6998716D01*
X2766415Y7002780D01*
X2769057Y7006996D01*
X2771495Y7009688D01*
X2774746Y7011314D01*
X2778353Y7011720D01*
X2781858Y7010857D01*
X2784856Y7008774D01*
X2789936Y7003694D01*
X2792120Y7000392D01*
X2792933Y6996480D01*
X2792933Y6962851D01*
X2792069Y6958787D01*
X2789631Y6955434D01*
X2786075Y6953250D01*
X2781960Y6952742D01*
X2777947Y6953910D01*
X2772257Y6956958D01*
X2765044Y6959142D01*
X2757017Y6959955D01*
X2625445Y6959955D01*
X2617419Y6959142D01*
X2610205Y6956958D01*
X2603500Y6953402D01*
X2597302Y6948271D01*
X2587396Y6938365D01*
X2582265Y6932117D01*
X2578709Y6925462D01*
X2577236Y6920738D01*
X2575153Y6916978D01*
X2571750Y6914388D01*
X2567533Y6913524D01*
X2486761Y6913524D01*
X2480462Y6912813D01*
X2474976Y6910882D01*
X2470099Y6907784D01*
X2465984Y6903720D01*
X2462936Y6898792D01*
X2461006Y6893356D01*
X2460294Y6887006D01*
X2460294Y6880555D01*
X2459634Y6876897D01*
X2457653Y6873748D01*
X2454706Y6871512D01*
X2443327Y6868210D01*
X2436672Y6864654D01*
X2430424Y6859524D01*
X2018131Y6447231D01*
X2014829Y6445046D01*
X2010918Y6444234D01*
X1890826Y6444234D01*
X1887067Y6444945D01*
X1883867Y6447028D01*
X1881632Y6450126D01*
X1880666Y6453835D01*
X1881174Y6457645D01*
X1883054Y6460947D01*
X1885594Y6463944D01*
X1892909Y6475425D01*
X1895043Y6480048D01*
X1847850Y6480048D01*
X1847850Y6454394D01*
X1847088Y6450533D01*
X1844852Y6447231D01*
X1841601Y6445046D01*
X1837689Y6444234D01*
G37*

%LPC*%
G36*
X1847850Y6568948D02*
G01*
X1895195Y6568948D01*
X1889455Y6579412D01*
X1881378Y6590385D01*
X1871878Y6600190D01*
X1861159Y6608673D01*
X1849424Y6615633D01*
X1847850Y6616293D01*
G37*
G36*
X2486761Y6992975D02*
G01*
X2504846Y6992975D01*
X2504846Y7040067D01*
X2460294Y7040067D01*
X2460294Y7019493D01*
X2461006Y7013143D01*
X2462936Y7007707D01*
X2465984Y7002780D01*
X2470099Y6998716D01*
X2474976Y6995617D01*
X2480462Y6993686D01*
G37*
G36*
X2460294Y7107732D02*
G01*
X2504846Y7107732D01*
X2504846Y7154824D01*
X2486761Y7154824D01*
X2480462Y7154113D01*
X2474976Y7152182D01*
X2470099Y7149084D01*
X2465984Y7145020D01*
X2462936Y7140092D01*
X2461006Y7134656D01*
X2460294Y7128306D01*
G37*
G36*
X2233269Y7255103D02*
G01*
X2268829Y7255103D01*
X2275128Y7255814D01*
X2280615Y7257694D01*
X2285492Y7260793D01*
X2289606Y7264908D01*
X2292705Y7269784D01*
X2294585Y7275271D01*
X2295296Y7281570D01*
X2295296Y7317130D01*
X2233269Y7317130D01*
G37*
G36*
X2099970Y7255103D02*
G01*
X2135530Y7255103D01*
X2135530Y7317130D01*
X2073503Y7317130D01*
X2073503Y7281570D01*
X2074214Y7275271D01*
X2076094Y7269784D01*
X2079193Y7264908D01*
X2083307Y7260793D01*
X2088184Y7257694D01*
X2093671Y7255814D01*
G37*

%LPD*%
G36*
X2097328Y6392722D02*
G01*
X2093468Y6393484D01*
X2090166Y6395669D01*
X2087930Y6398971D01*
X2087168Y6402882D01*
X2087930Y6406743D01*
X2090166Y6410045D01*
X2447594Y6767474D01*
X2450541Y6769557D01*
X2454097Y6770420D01*
X2457653Y6770014D01*
X2460904Y6768388D01*
X2463342Y6765696D01*
X2465984Y6761480D01*
X2470099Y6757416D01*
X2474976Y6754317D01*
X2480462Y6752386D01*
X2486761Y6751675D01*
X2585618Y6751675D01*
X2591968Y6752386D01*
X2597404Y6754317D01*
X2602331Y6757416D01*
X2606395Y6761480D01*
X2607614Y6763359D01*
X2610408Y6766306D01*
X2614168Y6767931D01*
X2618232Y6767931D01*
X2621991Y6766306D01*
X2624785Y6763359D01*
X2626004Y6761480D01*
X2630068Y6757416D01*
X2634996Y6754317D01*
X2640431Y6752386D01*
X2646781Y6751675D01*
X2664866Y6751675D01*
X2664866Y6798767D01*
X2656687Y6798767D01*
X2652623Y6799580D01*
X2649220Y6802018D01*
X2647086Y6805574D01*
X2646578Y6809689D01*
X2647746Y6813702D01*
X2649931Y6817817D01*
X2652166Y6825081D01*
X2652928Y6833108D01*
X2652928Y6856272D01*
X2653690Y6860184D01*
X2655925Y6863486D01*
X2659227Y6865670D01*
X2663088Y6866432D01*
X2664866Y6866432D01*
X2664866Y6872579D01*
X2665628Y6876440D01*
X2667812Y6879742D01*
X2671114Y6881977D01*
X2675026Y6882739D01*
X2717393Y6882739D01*
X2721254Y6881977D01*
X2724556Y6879742D01*
X2726791Y6876440D01*
X2727553Y6872579D01*
X2727553Y6866432D01*
X2741879Y6866432D01*
X2745790Y6865670D01*
X2749042Y6863486D01*
X2751277Y6860184D01*
X2752039Y6856272D01*
X2752039Y6808927D01*
X2751277Y6805015D01*
X2749042Y6801713D01*
X2745790Y6799529D01*
X2741879Y6798767D01*
X2727553Y6798767D01*
X2727553Y6751675D01*
X2741879Y6751675D01*
X2745790Y6750913D01*
X2749042Y6748729D01*
X2751277Y6745427D01*
X2752039Y6741515D01*
X2752039Y6695084D01*
X2751277Y6691172D01*
X2749042Y6687870D01*
X2745790Y6685686D01*
X2741879Y6684924D01*
X2727553Y6684924D01*
X2727553Y6637832D01*
X2741879Y6637832D01*
X2745790Y6637070D01*
X2749042Y6634886D01*
X2751277Y6631584D01*
X2752039Y6627672D01*
X2752039Y6580327D01*
X2751277Y6576415D01*
X2749042Y6573113D01*
X2745790Y6570929D01*
X2741879Y6570167D01*
X2727553Y6570167D01*
X2727553Y6523075D01*
X2741879Y6523075D01*
X2745790Y6522313D01*
X2749042Y6520129D01*
X2751277Y6516827D01*
X2752039Y6512915D01*
X2752039Y6467246D01*
X2751277Y6463385D01*
X2749042Y6460083D01*
X2745790Y6457899D01*
X2741879Y6457086D01*
X2738018Y6457899D01*
X2734716Y6460083D01*
X2667812Y6526936D01*
X2665628Y6530238D01*
X2664866Y6534150D01*
X2664866Y6570167D01*
X2663088Y6570167D01*
X2659227Y6570929D01*
X2655925Y6573113D01*
X2653690Y6576415D01*
X2652928Y6580327D01*
X2652928Y6603492D01*
X2652166Y6611518D01*
X2649931Y6618731D01*
X2647746Y6622897D01*
X2646578Y6626910D01*
X2647086Y6631025D01*
X2649220Y6634581D01*
X2652623Y6637020D01*
X2656687Y6637832D01*
X2664866Y6637832D01*
X2664866Y6684924D01*
X2646781Y6684924D01*
X2640431Y6684213D01*
X2634996Y6682282D01*
X2630068Y6679184D01*
X2626004Y6675120D01*
X2624785Y6673240D01*
X2621991Y6670294D01*
X2618232Y6668668D01*
X2614168Y6668668D01*
X2610408Y6670294D01*
X2607614Y6673240D01*
X2606395Y6675120D01*
X2602331Y6679184D01*
X2597404Y6682282D01*
X2591968Y6684213D01*
X2585618Y6684924D01*
X2486761Y6684924D01*
X2480462Y6684213D01*
X2474976Y6682282D01*
X2470099Y6679184D01*
X2465984Y6675120D01*
X2462936Y6670192D01*
X2461006Y6664756D01*
X2460294Y6658406D01*
X2460294Y6651955D01*
X2459634Y6648297D01*
X2457653Y6645148D01*
X2454706Y6642912D01*
X2443327Y6639610D01*
X2436672Y6636054D01*
X2430424Y6630924D01*
X2195169Y6395669D01*
X2191867Y6393484D01*
X2188006Y6392722D01*
G37*

%LPD*%
G36*
X1493723Y5053838D02*
G01*
X1480159Y5057495D01*
X1476298Y5059527D01*
X1473606Y5062982D01*
X1472641Y5067300D01*
X1473606Y5071618D01*
X1476298Y5075072D01*
X1480159Y5077104D01*
X1489151Y5079542D01*
X1497787Y5083556D01*
X1503172Y5087315D01*
X1507134Y5088991D01*
X1511401Y5088890D01*
X1513382Y5087924D01*
X1512417Y5089906D01*
X1512316Y5094173D01*
X1513992Y5098135D01*
X1517751Y5103520D01*
X1521764Y5112156D01*
X1524254Y5121300D01*
X1525066Y5130800D01*
X1524254Y5140299D01*
X1521764Y5149443D01*
X1517751Y5158079D01*
X1512316Y5165852D01*
X1505559Y5172608D01*
X1497787Y5178044D01*
X1489151Y5182057D01*
X1480159Y5184495D01*
X1476298Y5186527D01*
X1473606Y5189982D01*
X1472641Y5194300D01*
X1473606Y5198618D01*
X1476298Y5202072D01*
X1480159Y5204104D01*
X1489151Y5206542D01*
X1497787Y5210556D01*
X1505559Y5215991D01*
X1512316Y5222748D01*
X1517751Y5230520D01*
X1520850Y5237124D01*
X1445514Y5237124D01*
X1445514Y5195570D01*
X1444752Y5191658D01*
X1442567Y5188407D01*
X1439265Y5186172D01*
X1435354Y5185410D01*
X1322984Y5185410D01*
X1319072Y5186172D01*
X1315770Y5188407D01*
X1313586Y5191658D01*
X1312824Y5195570D01*
X1312824Y5237124D01*
X1237538Y5237124D01*
X1240586Y5230520D01*
X1246022Y5222748D01*
X1252778Y5215991D01*
X1260551Y5210556D01*
X1269187Y5206542D01*
X1278178Y5204104D01*
X1282090Y5202072D01*
X1284732Y5198618D01*
X1285697Y5194300D01*
X1284732Y5189982D01*
X1282090Y5186527D01*
X1278178Y5184495D01*
X1269187Y5182057D01*
X1260551Y5178044D01*
X1249222Y5170170D01*
X1245362Y5169408D01*
X998423Y5169408D01*
X994359Y5170220D01*
X991006Y5172659D01*
X988872Y5176215D01*
X988314Y5180279D01*
X988314Y5267248D01*
X987602Y5273548D01*
X985672Y5279034D01*
X982624Y5283911D01*
X978509Y5288026D01*
X973632Y5291074D01*
X968146Y5293004D01*
X961847Y5293715D01*
X866952Y5293715D01*
X860653Y5293004D01*
X855167Y5291074D01*
X850290Y5288026D01*
X846328Y5284063D01*
X843076Y5281879D01*
X839165Y5281117D01*
X835304Y5281879D01*
X832002Y5284063D01*
X829767Y5287365D01*
X829005Y5291277D01*
X829005Y5478322D01*
X829767Y5482234D01*
X832002Y5485536D01*
X835304Y5487720D01*
X839165Y5488482D01*
X843076Y5487720D01*
X846328Y5485536D01*
X850290Y5481574D01*
X855167Y5478526D01*
X860653Y5476595D01*
X866952Y5475884D01*
X961847Y5475884D01*
X968146Y5476595D01*
X973632Y5478526D01*
X978509Y5481574D01*
X982624Y5485688D01*
X985672Y5490565D01*
X987602Y5496052D01*
X988314Y5502351D01*
X988314Y5589219D01*
X987602Y5595569D01*
X985672Y5601004D01*
X982624Y5605932D01*
X978509Y5609996D01*
X973632Y5613095D01*
X968146Y5614974D01*
X962050Y5615686D01*
X958494Y5616752D01*
X955598Y5618988D01*
X953668Y5622137D01*
X953008Y5625795D01*
X953008Y5727547D01*
X953617Y5730951D01*
X955294Y5733999D01*
X959154Y5738672D01*
X962710Y5745327D01*
X966012Y5756706D01*
X968248Y5759653D01*
X971448Y5761634D01*
X975106Y5762294D01*
X981506Y5762294D01*
X987856Y5763006D01*
X993292Y5764936D01*
X998219Y5767984D01*
X1002284Y5772099D01*
X1005382Y5776976D01*
X1007313Y5782462D01*
X1008024Y5788761D01*
X1008024Y5887618D01*
X1007313Y5893968D01*
X1005382Y5899404D01*
X1002284Y5904331D01*
X998219Y5908395D01*
X996340Y5909614D01*
X993394Y5912408D01*
X991768Y5916168D01*
X991768Y5920232D01*
X993394Y5923991D01*
X996340Y5926785D01*
X998219Y5928004D01*
X1002284Y5932068D01*
X1005382Y5936996D01*
X1007313Y5942431D01*
X1008024Y5948781D01*
X1008024Y6047638D01*
X1007313Y6053937D01*
X1005382Y6059424D01*
X1002284Y6064300D01*
X998219Y6068415D01*
X993292Y6071463D01*
X987856Y6073394D01*
X981506Y6074105D01*
X978509Y6074105D01*
X974598Y6074867D01*
X971296Y6077102D01*
X969111Y6080353D01*
X968349Y6084265D01*
X968349Y6475730D01*
X969111Y6479641D01*
X971296Y6482892D01*
X974598Y6485128D01*
X978509Y6485890D01*
X1002334Y6485890D01*
X1012291Y6486753D01*
X1021486Y6489242D01*
X1030071Y6493256D01*
X1037894Y6498691D01*
X1044600Y6505448D01*
X1050036Y6513220D01*
X1054100Y6521856D01*
X1056538Y6531000D01*
X1057351Y6540500D01*
X1056538Y6549999D01*
X1054100Y6559143D01*
X1050036Y6567779D01*
X1044600Y6575552D01*
X1037894Y6582308D01*
X1030071Y6587744D01*
X1021486Y6591757D01*
X1012494Y6594195D01*
X1008583Y6596227D01*
X1005890Y6599681D01*
X1004925Y6604000D01*
X1005890Y6608318D01*
X1008583Y6611772D01*
X1012494Y6613804D01*
X1021486Y6616242D01*
X1030071Y6620256D01*
X1037894Y6625691D01*
X1044600Y6632448D01*
X1050036Y6640220D01*
X1053134Y6646824D01*
X986942Y6646824D01*
X986942Y6605270D01*
X986180Y6601358D01*
X983996Y6598107D01*
X980694Y6595872D01*
X976782Y6595109D01*
X903528Y6595109D01*
X899668Y6595872D01*
X896366Y6598107D01*
X875487Y6618986D01*
X873252Y6622288D01*
X872490Y6626148D01*
X872490Y6646824D01*
X851814Y6646824D01*
X847953Y6647586D01*
X844651Y6649770D01*
X830224Y6664198D01*
X827989Y6667500D01*
X827227Y6671411D01*
X827989Y6675272D01*
X830224Y6678574D01*
X836828Y6685229D01*
X840130Y6687413D01*
X844042Y6688175D01*
X874420Y6688175D01*
X876655Y6690461D01*
X879500Y6691884D01*
X882650Y6692392D01*
X976782Y6692392D01*
X979932Y6691884D01*
X982776Y6690461D01*
X985012Y6688175D01*
X1057452Y6688175D01*
X1059688Y6690461D01*
X1062532Y6691884D01*
X1065631Y6692392D01*
X1125982Y6692392D01*
X1134008Y6693153D01*
X1141222Y6695389D01*
X1147876Y6698945D01*
X1154125Y6704025D01*
X1346758Y6896658D01*
X1350467Y6899046D01*
X1354836Y6899605D01*
X1359052Y6898284D01*
X1362303Y6895287D01*
X1368399Y6886397D01*
X1375105Y6879691D01*
X1382928Y6874256D01*
X1391513Y6870242D01*
X1400505Y6867804D01*
X1404416Y6865772D01*
X1407109Y6862318D01*
X1408074Y6858000D01*
X1407109Y6853681D01*
X1404416Y6850227D01*
X1400505Y6848195D01*
X1391513Y6845757D01*
X1382928Y6841744D01*
X1375105Y6836308D01*
X1368399Y6829552D01*
X1362964Y6821779D01*
X1358900Y6813143D01*
X1356461Y6803999D01*
X1355648Y6794500D01*
X1356461Y6785000D01*
X1358900Y6775856D01*
X1363319Y6766407D01*
X1364284Y6762394D01*
X1363573Y6758381D01*
X1361287Y6754926D01*
X1312113Y6705701D01*
X1306982Y6699453D01*
X1303426Y6692798D01*
X1301242Y6685584D01*
X1300429Y6677558D01*
X1300429Y6648958D01*
X1301242Y6640931D01*
X1303426Y6633667D01*
X1306982Y6627012D01*
X1312113Y6620764D01*
X1354836Y6578041D01*
X1358087Y6575399D01*
X1360779Y6571894D01*
X1361795Y6567576D01*
X1360830Y6563258D01*
X1358900Y6559143D01*
X1356461Y6549999D01*
X1355648Y6540500D01*
X1356461Y6531000D01*
X1358900Y6521856D01*
X1362964Y6513220D01*
X1368399Y6505448D01*
X1375105Y6498691D01*
X1382928Y6493256D01*
X1391513Y6489242D01*
X1400708Y6486753D01*
X1410665Y6485890D01*
X1434541Y6485890D01*
X1438402Y6485128D01*
X1441704Y6482892D01*
X1443888Y6479641D01*
X1444701Y6475730D01*
X1444701Y6408826D01*
X1443888Y6404914D01*
X1441704Y6401663D01*
X1440129Y6400038D01*
X1434490Y6392011D01*
X1430324Y6383070D01*
X1427784Y6373571D01*
X1426921Y6363817D01*
X1427784Y6354013D01*
X1430324Y6344513D01*
X1434490Y6335623D01*
X1440129Y6327597D01*
X1447038Y6320637D01*
X1455115Y6314998D01*
X1464005Y6310833D01*
X1473504Y6308293D01*
X1483309Y6307429D01*
X1493062Y6308293D01*
X1502562Y6310833D01*
X1511452Y6314998D01*
X1519529Y6320637D01*
X1526489Y6327597D01*
X1532128Y6335623D01*
X1536242Y6344513D01*
X1538782Y6354013D01*
X1539646Y6363817D01*
X1538782Y6373571D01*
X1536242Y6383070D01*
X1532128Y6392011D01*
X1526489Y6400038D01*
X1524863Y6401663D01*
X1522679Y6404914D01*
X1521917Y6408826D01*
X1521917Y6475730D01*
X1522679Y6479641D01*
X1524863Y6482892D01*
X1528165Y6485128D01*
X1532077Y6485890D01*
X1555902Y6485890D01*
X1565808Y6486753D01*
X1579321Y6490411D01*
X1583131Y6489903D01*
X1586484Y6487972D01*
X1588871Y6484975D01*
X1589989Y6481267D01*
X1590751Y6473393D01*
X1592935Y6466128D01*
X1596491Y6459474D01*
X1601622Y6453225D01*
X1727707Y6327140D01*
X1733956Y6322060D01*
X1740611Y6318504D01*
X1747824Y6316268D01*
X1755851Y6315506D01*
X1831339Y6315506D01*
X1835048Y6314795D01*
X1838248Y6312814D01*
X1840484Y6309766D01*
X1841500Y6306108D01*
X1840433Y6296202D01*
X1839671Y6293205D01*
X1838045Y6290614D01*
X1835708Y6288582D01*
X1832711Y6286703D01*
X1828596Y6282639D01*
X1825498Y6277711D01*
X1823618Y6272276D01*
X1822907Y6265926D01*
X1822907Y6220460D01*
X1822196Y6216802D01*
X1820214Y6213602D01*
X1817217Y6211366D01*
X1813560Y6210350D01*
X1802638Y6209436D01*
X1793189Y6206896D01*
X1784299Y6202730D01*
X1776222Y6197092D01*
X1769313Y6190183D01*
X1763674Y6182106D01*
X1759508Y6173216D01*
X1756968Y6163716D01*
X1756105Y6153912D01*
X1756968Y6144158D01*
X1759508Y6134658D01*
X1763674Y6125718D01*
X1769313Y6117691D01*
X1776222Y6110732D01*
X1784299Y6105093D01*
X1793189Y6100978D01*
X1802638Y6098438D01*
X1813712Y6097524D01*
X1817573Y6096406D01*
X1820722Y6093866D01*
X1822602Y6090259D01*
X1822907Y6085941D01*
X1822907Y6007049D01*
X1823618Y6000750D01*
X1825548Y5995263D01*
X1828647Y5990386D01*
X1832711Y5986272D01*
X1835454Y5984544D01*
X1837994Y5982309D01*
X1839671Y5979312D01*
X1840230Y5975959D01*
X1840230Y5569864D01*
X1839468Y5566003D01*
X1837232Y5562701D01*
X1650695Y5376164D01*
X1647799Y5374132D01*
X1644396Y5373217D01*
X1636369Y5372506D01*
X1626870Y5369966D01*
X1617980Y5365800D01*
X1609902Y5360162D01*
X1602994Y5353253D01*
X1597355Y5345176D01*
X1593189Y5336286D01*
X1590649Y5326786D01*
X1589786Y5316982D01*
X1590649Y5307228D01*
X1593189Y5297728D01*
X1597355Y5288788D01*
X1602994Y5280761D01*
X1604568Y5279186D01*
X1606753Y5275884D01*
X1607566Y5271973D01*
X1607566Y5167376D01*
X1606753Y5163464D01*
X1604568Y5160213D01*
X1529486Y5085130D01*
X1525879Y5082794D01*
X1521663Y5082133D01*
X1518158Y5083149D01*
X1519123Y5079644D01*
X1518513Y5075428D01*
X1516176Y5071821D01*
X1501190Y5056835D01*
X1497787Y5054600D01*
G37*

%LPC*%
G36*
X1237538Y5278475D02*
G01*
X1312824Y5278475D01*
X1312824Y5364124D01*
X1237538Y5364124D01*
X1240586Y5357520D01*
X1246022Y5349748D01*
X1252778Y5342991D01*
X1260551Y5337556D01*
X1269187Y5333542D01*
X1278178Y5331104D01*
X1282090Y5329072D01*
X1284732Y5325618D01*
X1285697Y5321300D01*
X1284732Y5316982D01*
X1282090Y5313527D01*
X1278178Y5311495D01*
X1269187Y5309057D01*
X1260551Y5305044D01*
X1252778Y5299608D01*
X1246022Y5292852D01*
X1240586Y5285079D01*
G37*
G36*
X1445514Y5278475D02*
G01*
X1520850Y5278475D01*
X1517751Y5285079D01*
X1512316Y5292852D01*
X1505559Y5299608D01*
X1497787Y5305044D01*
X1489151Y5309057D01*
X1480159Y5311495D01*
X1476298Y5313527D01*
X1473606Y5316982D01*
X1472641Y5321300D01*
X1473606Y5325618D01*
X1476298Y5329072D01*
X1480159Y5331104D01*
X1489151Y5333542D01*
X1497787Y5337556D01*
X1505559Y5342991D01*
X1512316Y5349748D01*
X1517751Y5357520D01*
X1520850Y5364124D01*
X1445514Y5364124D01*
G37*
G36*
X1237538Y5405475D02*
G01*
X1312824Y5405475D01*
X1312824Y5491124D01*
X1237538Y5491124D01*
X1240586Y5484520D01*
X1246022Y5476748D01*
X1252778Y5469991D01*
X1260551Y5464556D01*
X1269187Y5460542D01*
X1278178Y5458104D01*
X1282090Y5456072D01*
X1284732Y5452618D01*
X1285697Y5448300D01*
X1284732Y5443982D01*
X1282090Y5440527D01*
X1278178Y5438495D01*
X1269187Y5436057D01*
X1260551Y5432044D01*
X1252778Y5426608D01*
X1246022Y5419852D01*
X1240586Y5412079D01*
G37*
G36*
X1445514Y5405475D02*
G01*
X1520850Y5405475D01*
X1517751Y5412079D01*
X1512316Y5419852D01*
X1505559Y5426608D01*
X1497787Y5432044D01*
X1489151Y5436057D01*
X1480159Y5438495D01*
X1476298Y5440527D01*
X1473606Y5443982D01*
X1472641Y5448300D01*
X1473606Y5452618D01*
X1476298Y5456072D01*
X1480159Y5458104D01*
X1489151Y5460542D01*
X1497787Y5464556D01*
X1505559Y5469991D01*
X1512316Y5476748D01*
X1517751Y5484520D01*
X1520850Y5491124D01*
X1445514Y5491124D01*
G37*
G36*
X1445514Y5532475D02*
G01*
X1520850Y5532475D01*
X1517751Y5539079D01*
X1512316Y5546852D01*
X1505559Y5553608D01*
X1497787Y5559044D01*
X1489151Y5563057D01*
X1480159Y5565495D01*
X1476298Y5567527D01*
X1473606Y5570982D01*
X1472641Y5575300D01*
X1473606Y5579618D01*
X1476298Y5583072D01*
X1480159Y5585104D01*
X1489151Y5587542D01*
X1497787Y5591556D01*
X1505559Y5596991D01*
X1512316Y5603748D01*
X1517751Y5611520D01*
X1520850Y5618124D01*
X1445514Y5618124D01*
G37*
G36*
X1237538Y5532475D02*
G01*
X1312824Y5532475D01*
X1312824Y5618124D01*
X1237538Y5618124D01*
X1240586Y5611520D01*
X1246022Y5603748D01*
X1252778Y5596991D01*
X1260551Y5591556D01*
X1269187Y5587542D01*
X1278178Y5585104D01*
X1282090Y5583072D01*
X1284732Y5579618D01*
X1285697Y5575300D01*
X1284732Y5570982D01*
X1282090Y5567527D01*
X1278178Y5565495D01*
X1269187Y5563057D01*
X1260551Y5559044D01*
X1252778Y5553608D01*
X1246022Y5546852D01*
X1240586Y5539079D01*
G37*
G36*
X1237538Y5659475D02*
G01*
X1312824Y5659475D01*
X1312824Y5745124D01*
X1237538Y5745124D01*
X1240586Y5738520D01*
X1246022Y5730748D01*
X1252778Y5723991D01*
X1260551Y5718556D01*
X1269187Y5714542D01*
X1278178Y5712104D01*
X1282090Y5710072D01*
X1284732Y5706618D01*
X1285697Y5702300D01*
X1284732Y5697982D01*
X1282090Y5694527D01*
X1278178Y5692495D01*
X1269187Y5690057D01*
X1260551Y5686044D01*
X1252778Y5680608D01*
X1246022Y5673852D01*
X1240586Y5666079D01*
G37*
G36*
X1445514Y5659475D02*
G01*
X1520850Y5659475D01*
X1517751Y5666079D01*
X1512316Y5673852D01*
X1505559Y5680608D01*
X1497787Y5686044D01*
X1489151Y5690057D01*
X1480159Y5692495D01*
X1476298Y5694527D01*
X1473606Y5697982D01*
X1472641Y5702300D01*
X1473606Y5706618D01*
X1476298Y5710072D01*
X1480159Y5712104D01*
X1489151Y5714542D01*
X1497787Y5718556D01*
X1505559Y5723991D01*
X1512316Y5730748D01*
X1517751Y5738520D01*
X1520850Y5745124D01*
X1445514Y5745124D01*
G37*
G36*
X1237538Y5786475D02*
G01*
X1312824Y5786475D01*
X1312824Y5820410D01*
X1288288Y5820410D01*
X1278382Y5819546D01*
X1269187Y5817057D01*
X1260551Y5813044D01*
X1252778Y5807608D01*
X1246022Y5800852D01*
X1240586Y5793079D01*
G37*
G36*
X1445514Y5786475D02*
G01*
X1520850Y5786475D01*
X1517751Y5793079D01*
X1512316Y5800852D01*
X1505559Y5807608D01*
X1497787Y5813044D01*
X1489151Y5817057D01*
X1479956Y5819546D01*
X1470050Y5820410D01*
X1445514Y5820410D01*
G37*

%LPD*%
G36*
X2254504Y3725926D02*
G01*
X2250135Y3726891D01*
X2246680Y3729583D01*
X2244648Y3733546D01*
X2244496Y3737965D01*
X2246274Y3742029D01*
X2249576Y3744976D01*
X2259177Y3750259D01*
X2270963Y3758793D01*
X2281580Y3768750D01*
X2290876Y3779977D01*
X2298649Y3792270D01*
X2304846Y3805428D01*
X2309368Y3819296D01*
X2312060Y3833571D01*
X2312974Y3848100D01*
X2312060Y3862628D01*
X2309368Y3876903D01*
X2304846Y3890772D01*
X2298649Y3903929D01*
X2290876Y3916222D01*
X2281580Y3927449D01*
X2270963Y3937406D01*
X2259177Y3945940D01*
X2246426Y3952951D01*
X2242108Y3954678D01*
X2238756Y3956862D01*
X2236520Y3960164D01*
X2235708Y3964127D01*
X2235708Y4117543D01*
X2234895Y4125569D01*
X2232710Y4132834D01*
X2229154Y4139488D01*
X2224074Y4145737D01*
X2094687Y4275074D01*
X2092502Y4278376D01*
X2091740Y4282236D01*
X2092502Y4286148D01*
X2094687Y4289450D01*
X2548229Y4742942D01*
X2553360Y4749190D01*
X2556916Y4755845D01*
X2559100Y4763109D01*
X2559913Y4771136D01*
X2559913Y4962398D01*
X2559100Y4970424D01*
X2556916Y4977688D01*
X2553360Y4984343D01*
X2548229Y4990592D01*
X2522016Y5016804D01*
X2519781Y5020106D01*
X2519019Y5023967D01*
X2519019Y5278780D01*
X2518257Y5286806D01*
X2516022Y5294020D01*
X2512466Y5300675D01*
X2507386Y5306923D01*
X2469286Y5345023D01*
X2467051Y5348427D01*
X2466340Y5352491D01*
X2467305Y5356504D01*
X2470861Y5364124D01*
X2393289Y5364124D01*
X2389784Y5361381D01*
X2385415Y5360416D01*
X2273046Y5360416D01*
X2268677Y5361381D01*
X2265172Y5364124D01*
X2230729Y5364124D01*
X2226818Y5364886D01*
X2223566Y5367070D01*
X2221992Y5368645D01*
X2219756Y5371947D01*
X2218994Y5375808D01*
X2218994Y5395315D01*
X2219756Y5399227D01*
X2221992Y5402529D01*
X2225294Y5404713D01*
X2229154Y5405475D01*
X2262886Y5405475D01*
X2262886Y5491124D01*
X2229154Y5491124D01*
X2225294Y5491886D01*
X2221992Y5494070D01*
X2219756Y5497372D01*
X2218994Y5501284D01*
X2218994Y5522315D01*
X2219756Y5526227D01*
X2221992Y5529529D01*
X2225294Y5531713D01*
X2229154Y5532475D01*
X2262886Y5532475D01*
X2262886Y5618124D01*
X2229154Y5618124D01*
X2225294Y5618886D01*
X2221992Y5621070D01*
X2219756Y5624372D01*
X2218994Y5628284D01*
X2218994Y5649315D01*
X2219756Y5653227D01*
X2221992Y5656529D01*
X2225294Y5658713D01*
X2229154Y5659475D01*
X2262886Y5659475D01*
X2262886Y5745124D01*
X2229154Y5745124D01*
X2225294Y5745886D01*
X2221992Y5748070D01*
X2219756Y5751372D01*
X2218994Y5755284D01*
X2218994Y5776315D01*
X2219756Y5780227D01*
X2221992Y5783529D01*
X2225294Y5785713D01*
X2229154Y5786475D01*
X2262886Y5786475D01*
X2262886Y5820410D01*
X2238349Y5820410D01*
X2230018Y5819698D01*
X2225903Y5820206D01*
X2222296Y5822289D01*
X2219858Y5825693D01*
X2218994Y5829808D01*
X2218994Y5872124D01*
X2219756Y5875985D01*
X2221992Y5879287D01*
X2228443Y5885738D01*
X2233574Y5891987D01*
X2237130Y5898642D01*
X2239314Y5905906D01*
X2240127Y5913932D01*
X2240127Y6206286D01*
X2240889Y6210198D01*
X2243074Y6213500D01*
X2248560Y6218986D01*
X2251862Y6221171D01*
X2255774Y6221933D01*
X2358847Y6221933D01*
X2362708Y6221171D01*
X2366010Y6218986D01*
X2368245Y6215684D01*
X2369007Y6211773D01*
X2369007Y6187084D01*
X2369718Y6180734D01*
X2371598Y6175298D01*
X2374696Y6170371D01*
X2378811Y6166307D01*
X2383688Y6163208D01*
X2389174Y6161328D01*
X2395474Y6160617D01*
X2451100Y6160617D01*
X2454757Y6159906D01*
X2457907Y6157976D01*
X2460142Y6155029D01*
X2461209Y6151473D01*
X2460904Y6147816D01*
X2459431Y6142228D01*
X2458567Y6132474D01*
X2459329Y6123432D01*
X2458872Y6119317D01*
X2456738Y6115710D01*
X2453335Y6113272D01*
X2449220Y6112408D01*
X2395524Y6112408D01*
X2389174Y6111697D01*
X2383739Y6109766D01*
X2378811Y6106718D01*
X2374747Y6102604D01*
X2371648Y6097727D01*
X2369718Y6092240D01*
X2369007Y6085941D01*
X2369007Y6007049D01*
X2369718Y6000750D01*
X2371648Y5995263D01*
X2374747Y5990386D01*
X2378811Y5986272D01*
X2383739Y5983224D01*
X2389174Y5981293D01*
X2395524Y5980582D01*
X2454351Y5980582D01*
X2460701Y5981293D01*
X2463393Y5982258D01*
X2467000Y5982817D01*
X2470556Y5982055D01*
X2473655Y5980074D01*
X2475839Y5977178D01*
X2476855Y5973622D01*
X2477109Y5970828D01*
X2479294Y5963615D01*
X2482850Y5956960D01*
X2487980Y5950712D01*
X2528163Y5910529D01*
X2534361Y5905449D01*
X2541066Y5901893D01*
X2548280Y5899658D01*
X2556306Y5898896D01*
X2749550Y5898896D01*
X2757576Y5899658D01*
X2764840Y5901893D01*
X2771495Y5905449D01*
X2777693Y5910529D01*
X2856738Y5989574D01*
X2860040Y5991758D01*
X2863951Y5992571D01*
X2867812Y5991758D01*
X2871114Y5989574D01*
X2873298Y5986272D01*
X2874111Y5982411D01*
X2874111Y3736086D01*
X2873298Y3732174D01*
X2871114Y3728872D01*
X2867812Y3726687D01*
X2863951Y3725926D01*
X2508504Y3725926D01*
X2504135Y3726891D01*
X2500325Y3730193D01*
X2499461Y3728872D01*
X2496159Y3726687D01*
X2492298Y3725926D01*
X2409901Y3725926D01*
X2406040Y3726687D01*
X2401570Y3729583D01*
X2398064Y3726891D01*
X2393696Y3725926D01*
G37*

%LPC*%
G36*
X2502458Y3743960D02*
G01*
X2503576Y3744976D01*
X2513177Y3750259D01*
X2524963Y3758793D01*
X2535580Y3768750D01*
X2544876Y3779977D01*
X2552649Y3792270D01*
X2554782Y3796741D01*
X2502458Y3796741D01*
G37*
G36*
X2399741Y3743960D02*
G01*
X2399741Y3796741D01*
X2347417Y3796741D01*
X2349550Y3792270D01*
X2357323Y3779977D01*
X2366619Y3768750D01*
X2377236Y3758793D01*
X2389022Y3750259D01*
X2398623Y3744976D01*
G37*
G36*
X2347417Y3899458D02*
G01*
X2399741Y3899458D01*
X2399741Y3951833D01*
X2389022Y3945940D01*
X2377236Y3937406D01*
X2366619Y3927449D01*
X2357323Y3916222D01*
X2349550Y3903929D01*
G37*
G36*
X2502458Y3899458D02*
G01*
X2554782Y3899458D01*
X2552649Y3903929D01*
X2544876Y3916222D01*
X2535580Y3927449D01*
X2524963Y3937406D01*
X2513177Y3945940D01*
X2502458Y3951833D01*
G37*
G36*
X2795981Y4154474D02*
G01*
X2805734Y4155338D01*
X2815234Y4157878D01*
X2824124Y4161993D01*
X2832201Y4167632D01*
X2839161Y4174591D01*
X2844800Y4182618D01*
X2848914Y4191558D01*
X2851454Y4201058D01*
X2852318Y4210812D01*
X2851454Y4220616D01*
X2848914Y4230116D01*
X2844800Y4239006D01*
X2839161Y4247083D01*
X2837535Y4248658D01*
X2835351Y4251960D01*
X2834589Y4255820D01*
X2834589Y4387850D01*
X2833776Y4395876D01*
X2831592Y4403090D01*
X2828036Y4409744D01*
X2822905Y4415993D01*
X2796692Y4442206D01*
X2794457Y4445508D01*
X2793695Y4449419D01*
X2793695Y4510938D01*
X2792984Y4517237D01*
X2791104Y4522724D01*
X2788005Y4527600D01*
X2783890Y4531715D01*
X2779014Y4534814D01*
X2773527Y4536694D01*
X2767228Y4537405D01*
X2668371Y4537405D01*
X2662072Y4536694D01*
X2656586Y4534814D01*
X2651709Y4531715D01*
X2647594Y4527600D01*
X2644495Y4522724D01*
X2642616Y4517237D01*
X2641904Y4510938D01*
X2641904Y4422089D01*
X2642616Y4415739D01*
X2644495Y4410303D01*
X2647594Y4405376D01*
X2651709Y4401312D01*
X2656586Y4398213D01*
X2662072Y4396333D01*
X2668371Y4395622D01*
X2729890Y4395622D01*
X2733802Y4394809D01*
X2737053Y4392625D01*
X2746197Y4383532D01*
X2748381Y4380230D01*
X2749143Y4376369D01*
X2749143Y4325162D01*
X2752394Y4323943D01*
X2755036Y4321657D01*
X2756763Y4318609D01*
X2757373Y4315206D01*
X2757373Y4277817D01*
X2756763Y4274413D01*
X2755036Y4271365D01*
X2752394Y4269079D01*
X2749143Y4267860D01*
X2749143Y4245102D01*
X2748686Y4242054D01*
X2742996Y4230116D01*
X2740456Y4220616D01*
X2739593Y4210812D01*
X2740456Y4201058D01*
X2742996Y4191558D01*
X2747162Y4182618D01*
X2752801Y4174591D01*
X2759710Y4167632D01*
X2767787Y4161993D01*
X2776677Y4157878D01*
X2786176Y4155338D01*
G37*
G36*
X2668371Y4225594D02*
G01*
X2686456Y4225594D01*
X2686456Y4267657D01*
X2641904Y4267657D01*
X2641904Y4252061D01*
X2642616Y4245762D01*
X2644495Y4240276D01*
X2647594Y4235399D01*
X2651709Y4231284D01*
X2656586Y4228236D01*
X2662072Y4226306D01*
G37*
G36*
X2641904Y4325366D02*
G01*
X2686456Y4325366D01*
X2686456Y4367428D01*
X2668371Y4367428D01*
X2662072Y4366717D01*
X2656586Y4364786D01*
X2651709Y4361688D01*
X2647594Y4357624D01*
X2644495Y4352696D01*
X2642616Y4347260D01*
X2641904Y4340910D01*
G37*
G36*
X2395575Y5405475D02*
G01*
X2470861Y5405475D01*
X2467813Y5412079D01*
X2462377Y5419852D01*
X2455621Y5426608D01*
X2447848Y5432044D01*
X2439212Y5436057D01*
X2430221Y5438495D01*
X2426309Y5440527D01*
X2423668Y5443982D01*
X2422702Y5448300D01*
X2423668Y5452618D01*
X2426309Y5456072D01*
X2430221Y5458104D01*
X2439212Y5460542D01*
X2447848Y5464556D01*
X2455621Y5469991D01*
X2462377Y5476748D01*
X2467813Y5484520D01*
X2470861Y5491124D01*
X2395575Y5491124D01*
G37*
G36*
X2395575Y5532475D02*
G01*
X2470861Y5532475D01*
X2467813Y5539079D01*
X2462377Y5546852D01*
X2455621Y5553608D01*
X2447848Y5559044D01*
X2439212Y5563057D01*
X2430221Y5565495D01*
X2426309Y5567527D01*
X2423668Y5570982D01*
X2422702Y5575300D01*
X2423668Y5579618D01*
X2426309Y5583072D01*
X2430221Y5585104D01*
X2439212Y5587542D01*
X2447848Y5591556D01*
X2455621Y5596991D01*
X2462377Y5603748D01*
X2467813Y5611520D01*
X2470861Y5618124D01*
X2395575Y5618124D01*
G37*
G36*
X2395575Y5659475D02*
G01*
X2470861Y5659475D01*
X2467813Y5666079D01*
X2462377Y5673852D01*
X2455621Y5680608D01*
X2447848Y5686044D01*
X2439212Y5690057D01*
X2430221Y5692495D01*
X2426309Y5694527D01*
X2423668Y5697982D01*
X2422702Y5702300D01*
X2423668Y5706618D01*
X2426309Y5710072D01*
X2430221Y5712104D01*
X2439212Y5714542D01*
X2447848Y5718556D01*
X2455621Y5723991D01*
X2462377Y5730748D01*
X2467813Y5738520D01*
X2470861Y5745124D01*
X2395575Y5745124D01*
G37*
G36*
X2395575Y5786475D02*
G01*
X2470861Y5786475D01*
X2467813Y5793079D01*
X2462377Y5800852D01*
X2455621Y5807608D01*
X2447848Y5813044D01*
X2439212Y5817057D01*
X2430018Y5819546D01*
X2420112Y5820410D01*
X2395575Y5820410D01*
G37*

%LPD*%
G36*
X736092Y3725926D02*
G01*
X732180Y3726687D01*
X728878Y3728872D01*
X726694Y3732174D01*
X725932Y3736086D01*
X725932Y6639559D01*
X726897Y6643878D01*
X729640Y6647434D01*
X733602Y6649415D01*
X738073Y6649516D01*
X742137Y6647738D01*
X745032Y6644335D01*
X748487Y6637832D01*
X753618Y6631584D01*
X806907Y6578295D01*
X809193Y6574891D01*
X809904Y6570827D01*
X808939Y6566814D01*
X805383Y6559143D01*
X802894Y6549999D01*
X802081Y6540500D01*
X802894Y6531000D01*
X805383Y6521856D01*
X809396Y6513220D01*
X814832Y6505448D01*
X821588Y6498691D01*
X829360Y6493256D01*
X837996Y6489242D01*
X847191Y6486753D01*
X857097Y6485890D01*
X880973Y6485890D01*
X884834Y6485128D01*
X888136Y6482892D01*
X890320Y6479641D01*
X891133Y6475730D01*
X891133Y6091377D01*
X890676Y6088430D01*
X888187Y6079693D01*
X885952Y6076746D01*
X882751Y6074765D01*
X879094Y6074105D01*
X872693Y6074105D01*
X866343Y6073394D01*
X860907Y6071463D01*
X855980Y6068415D01*
X851916Y6064300D01*
X848817Y6059424D01*
X846886Y6053937D01*
X846175Y6047638D01*
X846175Y6015177D01*
X845413Y6011265D01*
X843229Y6007963D01*
X763473Y5928207D01*
X758342Y5921959D01*
X754786Y5915304D01*
X752602Y5908090D01*
X751789Y5900064D01*
X751789Y4854651D01*
X752602Y4846624D01*
X754786Y4839360D01*
X758342Y4832705D01*
X763473Y4826457D01*
X828192Y4761738D01*
X829767Y4760417D01*
X832510Y4756912D01*
X833475Y4752594D01*
X833475Y4661154D01*
X834186Y4654854D01*
X836117Y4649368D01*
X839216Y4644491D01*
X843280Y4640376D01*
X847496Y4637735D01*
X850188Y4635296D01*
X851814Y4632045D01*
X852220Y4628438D01*
X851357Y4624933D01*
X843127Y4614672D01*
X839571Y4608017D01*
X837387Y4600752D01*
X836574Y4592726D01*
X836574Y4447184D01*
X835914Y4443526D01*
X833932Y4440326D01*
X830986Y4438091D01*
X827430Y4437075D01*
X819353Y4436262D01*
X813968Y4434382D01*
X809091Y4431284D01*
X804976Y4427220D01*
X801928Y4422292D01*
X799998Y4416856D01*
X799287Y4410506D01*
X799287Y4301693D01*
X799998Y4295343D01*
X801928Y4289907D01*
X804976Y4284980D01*
X809091Y4280916D01*
X813968Y4277817D01*
X819454Y4275886D01*
X825753Y4275175D01*
X924610Y4275175D01*
X930960Y4275886D01*
X936396Y4277817D01*
X941324Y4280916D01*
X945387Y4284980D01*
X948486Y4289907D01*
X950417Y4295343D01*
X951128Y4301693D01*
X951128Y4410506D01*
X950417Y4416856D01*
X948486Y4422292D01*
X945387Y4427220D01*
X941324Y4431284D01*
X936396Y4434382D01*
X931011Y4436262D01*
X922985Y4437075D01*
X919378Y4438091D01*
X916432Y4440326D01*
X914450Y4443526D01*
X913790Y4447184D01*
X913790Y4573066D01*
X914552Y4576927D01*
X916787Y4580229D01*
X941374Y4604816D01*
X946454Y4611065D01*
X950010Y4617720D01*
X953312Y4629099D01*
X955548Y4632045D01*
X958748Y4634026D01*
X962406Y4634687D01*
X968806Y4634687D01*
X975156Y4635398D01*
X980592Y4637328D01*
X985519Y4640376D01*
X989584Y4644491D01*
X992682Y4649368D01*
X994613Y4654854D01*
X995324Y4661154D01*
X995324Y4760010D01*
X994613Y4766360D01*
X992682Y4771796D01*
X989584Y4776724D01*
X985519Y4780788D01*
X980592Y4783886D01*
X975156Y4785817D01*
X968806Y4786528D01*
X962406Y4786528D01*
X958748Y4787188D01*
X955548Y4789119D01*
X953312Y4792116D01*
X950620Y4801565D01*
X950214Y4805324D01*
X951179Y4808982D01*
X953414Y4811979D01*
X956614Y4814011D01*
X960323Y4814671D01*
X968806Y4814671D01*
X975156Y4815382D01*
X980592Y4817313D01*
X985519Y4820412D01*
X989584Y4824476D01*
X992682Y4829403D01*
X994613Y4834839D01*
X995324Y4841189D01*
X995324Y4859223D01*
X948232Y4859223D01*
X948232Y4831080D01*
X947419Y4827016D01*
X944981Y4823612D01*
X941425Y4821478D01*
X937310Y4820920D01*
X933297Y4822088D01*
X929182Y4824323D01*
X921918Y4826508D01*
X913892Y4827320D01*
X890727Y4827320D01*
X886815Y4828082D01*
X883513Y4830267D01*
X881329Y4833569D01*
X880567Y4837480D01*
X880567Y4859223D01*
X844092Y4859223D01*
X840181Y4860036D01*
X836930Y4862220D01*
X832002Y4867148D01*
X829767Y4870450D01*
X829005Y4874310D01*
X829005Y4911801D01*
X829767Y4915662D01*
X832002Y4918964D01*
X835304Y4921148D01*
X839165Y4921961D01*
X880567Y4921961D01*
X880567Y4966512D01*
X859993Y4966512D01*
X853643Y4965801D01*
X848207Y4963871D01*
X844550Y4961636D01*
X840536Y4960162D01*
X836269Y4960467D01*
X832459Y4962550D01*
X829919Y4966004D01*
X829005Y4970221D01*
X829005Y5156352D01*
X829767Y5160213D01*
X832002Y5163515D01*
X835304Y5165750D01*
X839165Y5166512D01*
X843076Y5165750D01*
X846328Y5163515D01*
X850290Y5159603D01*
X855167Y5156504D01*
X860653Y5154625D01*
X867562Y5153812D01*
X870813Y5152898D01*
X873607Y5150916D01*
X875588Y5148122D01*
X876553Y5144211D01*
X878789Y5136896D01*
X882345Y5130241D01*
X887476Y5123992D01*
X907643Y5103825D01*
X913841Y5098745D01*
X920546Y5095189D01*
X923340Y5094325D01*
X927100Y5092192D01*
X929640Y5088737D01*
X930554Y5084521D01*
X929589Y5080304D01*
X926795Y5074259D01*
X924255Y5064760D01*
X923391Y5055006D01*
X924255Y5045202D01*
X926795Y5035702D01*
X930960Y5026812D01*
X936599Y5018786D01*
X943508Y5011826D01*
X951585Y5006187D01*
X960475Y5002022D01*
X969975Y4999482D01*
X979779Y4998618D01*
X989533Y4999482D01*
X999032Y5002022D01*
X1007922Y5006187D01*
X1016000Y5011826D01*
X1022959Y5018786D01*
X1028598Y5026812D01*
X1032713Y5035702D01*
X1035253Y5045202D01*
X1036116Y5055006D01*
X1035253Y5064760D01*
X1032713Y5074259D01*
X1031138Y5077714D01*
X1030173Y5081676D01*
X1030833Y5085638D01*
X1033018Y5089093D01*
X1036370Y5091379D01*
X1040333Y5092192D01*
X1245362Y5092192D01*
X1249273Y5091430D01*
X1260551Y5083556D01*
X1269187Y5079542D01*
X1278178Y5077104D01*
X1282090Y5075072D01*
X1284732Y5071618D01*
X1285697Y5067300D01*
X1284732Y5062982D01*
X1282090Y5059527D01*
X1278178Y5057495D01*
X1269187Y5055057D01*
X1260551Y5051044D01*
X1252778Y5045608D01*
X1246022Y5038852D01*
X1240586Y5031079D01*
X1236573Y5022443D01*
X1234084Y5013299D01*
X1233271Y5003800D01*
X1234084Y4994300D01*
X1236573Y4985156D01*
X1240586Y4976520D01*
X1246022Y4968748D01*
X1252778Y4961991D01*
X1260551Y4956556D01*
X1269187Y4952542D01*
X1278178Y4950104D01*
X1282090Y4948072D01*
X1284732Y4944618D01*
X1285697Y4940300D01*
X1284732Y4935982D01*
X1282090Y4932527D01*
X1278178Y4930495D01*
X1269187Y4928057D01*
X1260551Y4924044D01*
X1252778Y4918608D01*
X1246022Y4911852D01*
X1240586Y4904079D01*
X1236573Y4895443D01*
X1234084Y4886299D01*
X1233271Y4876800D01*
X1234084Y4867300D01*
X1236573Y4858156D01*
X1240586Y4849520D01*
X1246022Y4841748D01*
X1252778Y4834991D01*
X1260551Y4829556D01*
X1269187Y4825542D01*
X1278382Y4823053D01*
X1288288Y4822190D01*
X1384858Y4822190D01*
X1388719Y4821428D01*
X1392021Y4819192D01*
X1394206Y4815941D01*
X1395018Y4812030D01*
X1395018Y4531817D01*
X1394206Y4527905D01*
X1392021Y4524654D01*
X1390446Y4523028D01*
X1384808Y4515002D01*
X1380642Y4506061D01*
X1378102Y4496562D01*
X1377238Y4486808D01*
X1378102Y4477004D01*
X1380642Y4467504D01*
X1384808Y4458614D01*
X1390446Y4450588D01*
X1397355Y4443628D01*
X1405432Y4437989D01*
X1414322Y4433824D01*
X1423822Y4431284D01*
X1433626Y4430420D01*
X1443380Y4431284D01*
X1452880Y4433824D01*
X1461770Y4437989D01*
X1469847Y4443628D01*
X1476806Y4450588D01*
X1482445Y4458614D01*
X1486560Y4467504D01*
X1489100Y4477004D01*
X1489964Y4486808D01*
X1489100Y4496562D01*
X1486560Y4506061D01*
X1482445Y4515002D01*
X1476806Y4523028D01*
X1475181Y4524654D01*
X1472996Y4527905D01*
X1472234Y4531817D01*
X1472234Y4813198D01*
X1473149Y4817465D01*
X1475841Y4820970D01*
X1479753Y4823002D01*
X1489151Y4825542D01*
X1497787Y4829556D01*
X1505559Y4834991D01*
X1512316Y4841748D01*
X1517751Y4849520D01*
X1521764Y4858156D01*
X1524254Y4867300D01*
X1525066Y4876800D01*
X1524254Y4886299D01*
X1521764Y4895443D01*
X1520037Y4899202D01*
X1519123Y4903165D01*
X1519834Y4907229D01*
X1522069Y4910632D01*
X1992884Y5381447D01*
X1996186Y5383631D01*
X2000046Y5384444D01*
X2003958Y5383631D01*
X2007209Y5381447D01*
X2009444Y5378145D01*
X2010206Y5374284D01*
X2010206Y4987696D01*
X2011019Y4979670D01*
X2013204Y4972405D01*
X2018792Y4962194D01*
X2019300Y4958486D01*
X2018436Y4954879D01*
X2016353Y4951831D01*
X1154176Y4089654D01*
X1149045Y4083405D01*
X1145489Y4076750D01*
X1143304Y4069486D01*
X1142492Y4061460D01*
X1142492Y3974185D01*
X1141730Y3970274D01*
X1139494Y3966972D01*
X1136243Y3964787D01*
X1132332Y3964025D01*
X1091692Y3964025D01*
X1085342Y3963314D01*
X1079906Y3961384D01*
X1074978Y3958285D01*
X1070914Y3954221D01*
X1067816Y3949293D01*
X1065885Y3943858D01*
X1065174Y3937508D01*
X1065174Y3758692D01*
X1065885Y3752342D01*
X1067816Y3746906D01*
X1071219Y3741470D01*
X1072692Y3737406D01*
X1072337Y3733139D01*
X1070254Y3729380D01*
X1066800Y3726840D01*
X1062634Y3725926D01*
G37*

%LPC*%
G36*
X1005789Y4275175D02*
G01*
X1023823Y4275175D01*
X1023823Y4322267D01*
X979271Y4322267D01*
X979271Y4301693D01*
X979982Y4295343D01*
X981913Y4289907D01*
X985012Y4284980D01*
X989076Y4280916D01*
X994003Y4277817D01*
X999439Y4275886D01*
G37*
G36*
X1086561Y4275175D02*
G01*
X1104646Y4275175D01*
X1110945Y4275886D01*
X1116431Y4277817D01*
X1121308Y4280916D01*
X1125423Y4284980D01*
X1128471Y4289907D01*
X1130401Y4295343D01*
X1131112Y4301693D01*
X1131112Y4322267D01*
X1086561Y4322267D01*
G37*
G36*
X1086561Y4389932D02*
G01*
X1131112Y4389932D01*
X1131112Y4410506D01*
X1130401Y4416856D01*
X1128471Y4422292D01*
X1125423Y4427220D01*
X1121308Y4431284D01*
X1116431Y4434382D01*
X1110945Y4436313D01*
X1104646Y4437024D01*
X1086561Y4437024D01*
G37*
G36*
X979271Y4389932D02*
G01*
X1023823Y4389932D01*
X1023823Y4437024D01*
X1005789Y4437024D01*
X999439Y4436313D01*
X994003Y4434382D01*
X989076Y4431284D01*
X985012Y4427220D01*
X981913Y4422292D01*
X979982Y4416856D01*
X979271Y4410506D01*
G37*
G36*
X948232Y4921961D02*
G01*
X995324Y4921961D01*
X995324Y4940046D01*
X994613Y4946345D01*
X992682Y4951831D01*
X989584Y4956708D01*
X985519Y4960823D01*
X980592Y4963871D01*
X975156Y4965801D01*
X968806Y4966512D01*
X948232Y4966512D01*
G37*

%LPD*%
D10*
X2329233Y5765789D02*
G01*
X2288491Y5806531D01*
X2288491Y6179479D01*
X2329233Y5765789D02*
G01*
X2329233Y5638789D01*
X2696187Y6718289D02*
G01*
X2696187Y6832589D01*
X2696187Y6603989D02*
G01*
X2696187Y6718289D01*
X914402Y4890607D02*
G01*
X914402Y4968712D01*
X914402Y4968712D02*
G01*
X831268Y5051846D01*
X831268Y5278008D01*
X1324358Y5771098D01*
X1055194Y4356089D02*
G01*
X1055194Y4749815D01*
X914402Y4890607D01*
X1324358Y5771098D02*
G01*
X1373863Y5771098D01*
X1379171Y5765789D01*
X1186614Y6667489D02*
G01*
X1186614Y5908842D01*
X1324358Y5771098D01*
X1803402Y6871883D02*
G01*
X1532892Y6871883D01*
X1483286Y6921489D01*
X1483286Y6921489D02*
G01*
X1440614Y6921489D01*
X1186614Y6667489D01*
X929718Y6667489D02*
G01*
X1186614Y6667489D01*
X2329233Y5384789D02*
G01*
X2447165Y5384789D01*
X2584020Y5247934D01*
X2584020Y4455454D01*
X2669847Y4369628D01*
X2717802Y4369628D01*
X2717802Y4296501D02*
G01*
X2717802Y4114789D01*
X2451102Y3848089D01*
X2717802Y4308083D02*
G01*
X2717802Y4296501D01*
X2717802Y4308083D02*
G01*
X2717802Y4369628D01*
X2536217Y7073889D02*
G01*
X2363396Y7073889D01*
X2184402Y7252883D01*
X2329233Y5511789D02*
G01*
X2329233Y5384789D01*
X2329233Y5638789D02*
G01*
X2329233Y5511789D01*
X1803402Y6871883D02*
G01*
X2184402Y7252883D01*
X1803402Y6524487D02*
G01*
X1803402Y6871883D01*
X2184402Y7365989D02*
G01*
X2184402Y7252883D01*
X1379171Y5384789D02*
G01*
X1379171Y5257789D01*
X1379171Y5511789D02*
G01*
X1379171Y5384789D01*
X1379171Y5638789D02*
G01*
X1379171Y5511789D01*
X1379171Y5765789D02*
G01*
X1379171Y5638789D01*
X914402Y4710597D02*
G01*
X914402Y4632467D01*
X914402Y4632467D02*
G01*
X875184Y4593249D01*
X875184Y4356089D01*
X914402Y4749662D02*
G01*
X914402Y4710597D01*
X1930402Y7365989D02*
G01*
X1551917Y6987504D01*
X1382981Y6987504D01*
X1126467Y6730989D01*
X828017Y6730989D01*
X780569Y6683542D01*
X780569Y6659260D01*
X899340Y6540489D01*
X929718Y6540489D01*
X2424915Y6260556D02*
G01*
X2235558Y6260556D01*
X2201496Y6226495D01*
X914402Y4749662D02*
G01*
X914402Y4788702D01*
X2032916Y4282252D02*
G01*
X2521282Y4770617D01*
X2521282Y4962921D01*
X2480414Y5003789D01*
X2197102Y3848089D02*
G01*
X2197102Y4118066D01*
X2032916Y4282252D01*
X1750722Y4190989D02*
G01*
X1750722Y4269120D01*
X1763854Y4282252D01*
X2032916Y4282252D01*
X2531950Y6294617D02*
G01*
X2531950Y6479428D01*
X2514907Y6260556D02*
G01*
X2531950Y6277599D01*
X2531950Y6294617D01*
X2531950Y6294617D02*
G01*
X2594917Y6294617D01*
X2201496Y6226495D02*
G01*
X2201496Y5913414D01*
X2180389Y5892307D01*
X2180389Y5355630D01*
X2214222Y5321797D01*
X2437894Y5321797D01*
X2480414Y5279278D01*
X2480414Y5003789D01*
X2329233Y5003789D02*
G01*
X2480414Y5003789D01*
X927102Y6037265D02*
G01*
X790399Y5900562D01*
X790399Y4854133D01*
X855830Y4788702D01*
X914402Y4788702D01*
X1968807Y6260556D02*
G01*
X2002868Y6294617D01*
X2048817Y6294617D01*
X2201496Y6226495D02*
G01*
X2138809Y6226495D01*
X2138809Y6226495D02*
G01*
X2080694Y6226495D01*
X2048817Y6260556D02*
G01*
X2080694Y6228679D01*
X2080694Y6226495D01*
X2048817Y6260556D02*
G01*
X2048817Y6294617D01*
X2048817Y6226495D02*
G01*
X2048817Y6260556D01*
X1968807Y6260556D02*
G01*
X1968807Y6294617D01*
X1968807Y6226495D02*
G01*
X1968807Y6260556D01*
X1878815Y6226495D02*
G01*
X1878815Y6294617D01*
X1878815Y6294617D02*
G01*
X1968807Y6294617D01*
X2424915Y6260556D02*
G01*
X2424915Y6294617D01*
X2424915Y6226495D02*
G01*
X2424915Y6260556D01*
X2684909Y6226495D02*
G01*
X2626794Y6226495D01*
X2594917Y6260556D02*
G01*
X2626794Y6228679D01*
X2626794Y6226495D01*
X2594917Y6260556D02*
G01*
X2594917Y6294617D01*
X2594917Y6226495D02*
G01*
X2594917Y6260556D01*
X2514907Y6260556D02*
G01*
X2514907Y6294617D01*
X2514907Y6226495D02*
G01*
X2514907Y6260556D01*
X2424915Y6294617D02*
G01*
X2514907Y6294617D01*
X927102Y6037265D02*
G01*
X927102Y6076330D01*
X927102Y5998199D02*
G01*
X927102Y6037265D01*
X1672592Y4190989D02*
G01*
X1750722Y4190989D01*
X929718Y6540489D02*
G01*
X929718Y6078946D01*
X927102Y6076330D01*
X979756Y5130789D02*
G01*
X979756Y5054996D01*
X979756Y5130789D02*
G01*
X935281Y5130789D01*
X914402Y5151668D01*
X1379171Y5130789D02*
G01*
X979756Y5130789D01*
X914402Y5223779D02*
G01*
X914402Y5151668D01*
X1379171Y5003789D02*
G01*
X1502768Y5003789D01*
X1646151Y5147172D01*
X1646151Y5316997D01*
X1676402Y7365989D02*
G01*
X1231902Y6921489D01*
X929718Y6921489D01*
X1878840Y6046485D02*
G01*
X1878840Y5549686D01*
X1646151Y5316997D01*
X1812470Y6153927D02*
G01*
X1929513Y6153927D01*
X1968832Y6114608D01*
X1968832Y6046485D02*
G01*
X1968832Y6114608D01*
X1968832Y6046485D02*
G01*
X1968832Y5412018D01*
X1433603Y4876789D01*
X1433603Y4486798D02*
G01*
X1433603Y4876789D01*
X1433603Y4876789D02*
G01*
X1379171Y4876789D01*
X929718Y6794489D02*
G01*
X894107Y6794489D01*
X791999Y6896597D01*
X791999Y6937491D01*
X1220497Y7365989D01*
X1422402Y7365989D01*
X1832587Y4190989D02*
G01*
X1933755Y4190989D01*
X2003910Y4120835D01*
X2795958Y4210827D02*
G01*
X2795958Y4388347D01*
X2717802Y4466503D01*
X2514932Y6046485D02*
G01*
X2514932Y6132464D01*
X1483286Y6540489D02*
G01*
X1483286Y6363807D01*
X2514932Y5978362D02*
G01*
X2555801Y5937493D01*
X2750060Y5937493D01*
X2831518Y6018951D01*
X2831518Y7016689D01*
X2774317Y7073889D01*
X2514932Y6046485D02*
G01*
X2514932Y5978362D01*
X2696212Y7073889D02*
G01*
X2774317Y7073889D01*
X2594917Y6046485D02*
G01*
X2594917Y5978362D01*
X2536192Y6832589D02*
G01*
X2614322Y6832589D01*
X2614322Y6832589D02*
G01*
X2614322Y6910720D01*
X2624940Y6921337D01*
X2757502Y6921337D01*
X2790649Y6888190D01*
X2790649Y6035893D01*
X2733118Y5978362D01*
X2594917Y5978362D01*
X2507363Y6832589D02*
G01*
X2536192Y6832589D01*
X2507363Y6832589D02*
G01*
X2458087Y6832589D01*
X2458087Y6832589D02*
G01*
X2031138Y6405641D01*
X1773557Y6405641D01*
X1683920Y6495277D01*
X1683920Y6553113D01*
X1569544Y6667489D01*
X1483286Y6667489D01*
X2684909Y6046485D02*
G01*
X2743024Y6046485D01*
X2536192Y6603989D02*
G01*
X2614322Y6603989D01*
X2614322Y6603989D02*
G01*
X2614322Y6525859D01*
X2743024Y6397157D01*
X2743024Y6046485D01*
X2497152Y6603989D02*
G01*
X2536192Y6603989D01*
X2497152Y6603989D02*
G01*
X2458087Y6603989D01*
X1483286Y6794489D02*
G01*
X1455473Y6794489D01*
X1339039Y6678056D01*
X1339039Y6648439D01*
X1382473Y6605005D01*
X1574218Y6605005D01*
X1628574Y6550649D01*
X1628574Y6480901D01*
X1755371Y6354104D01*
X2208202Y6354104D01*
X2458087Y6603989D01*
X2077570Y4958450D02*
G01*
X2048817Y4987178D01*
X2048817Y6046485D01*
X2329233Y4876789D02*
G01*
X2159205Y4876789D01*
X2077570Y4958450D01*
X1181102Y3966199D02*
G01*
X1181102Y4061983D01*
X2077570Y4958450D01*
X1181102Y3848089D02*
G01*
X1181102Y3966199D01*
X2181125Y5130789D02*
G01*
X2181075Y5130739D01*
X2181075Y4967417D01*
X2210869Y4937622D01*
X2457350Y4937622D01*
X2480414Y4914559D01*
X2480414Y4845370D01*
X2027811Y4392767D01*
X1725551Y4392767D01*
X1435102Y4102318D01*
X1435102Y3848089D01*
X2181125Y5130789D02*
G01*
X2138809Y5173106D01*
X2138809Y6046485D01*
X2329233Y5130789D02*
G01*
X2181125Y5130789D01*
X927102Y5838205D02*
G01*
X927102Y5760100D01*
X927102Y5760100D02*
G01*
X914402Y5747400D01*
X914402Y5545800D01*
D11*
X2237905Y4876800D02*
G01*
X2420556Y4876800D01*
X2237905Y5003800D02*
G01*
X2420556Y5003800D01*
X2237905Y5130800D02*
G01*
X2420556Y5130800D01*
X2237905Y5257800D02*
G01*
X2420556Y5257800D01*
X2237905Y5384800D02*
G01*
X2420556Y5384800D01*
X2237905Y5511800D02*
G01*
X2420556Y5511800D01*
X2237905Y5638800D02*
G01*
X2420556Y5638800D01*
X2237905Y5765800D02*
G01*
X2420556Y5765800D01*
X1287843Y4876800D02*
G01*
X1470494Y4876800D01*
X1287843Y5003800D02*
G01*
X1470494Y5003800D01*
X1287843Y5130800D02*
G01*
X1470494Y5130800D01*
X1287843Y5257800D02*
G01*
X1470494Y5257800D01*
X1287843Y5384800D02*
G01*
X1470494Y5384800D01*
X1287843Y5511800D02*
G01*
X1470494Y5511800D01*
X1287843Y5638800D02*
G01*
X1470494Y5638800D01*
X1287843Y5765800D02*
G01*
X1470494Y5765800D01*
X1410207Y6540500D02*
G01*
X1556359Y6540500D01*
X1410207Y6667500D02*
G01*
X1556359Y6667500D01*
X1410207Y6794500D02*
G01*
X1556359Y6794500D01*
X1410207Y6921500D02*
G01*
X1556359Y6921500D01*
X856640Y6540500D02*
G01*
X1002792Y6540500D01*
X856640Y6667500D02*
G01*
X1002792Y6667500D01*
X856640Y6794500D02*
G01*
X1002792Y6794500D01*
X856640Y6921500D02*
G01*
X1002792Y6921500D01*
D13*
G01*
X914400Y4890592D03*
G01*
X914400Y4710582D03*
D14*
G01*
X1055192Y4356100D03*
G01*
X875182Y4356100D03*
G36*
X962400Y5501800D02*
G01*
X866399Y5501800D01*
X866399Y5589800D01*
X962400Y5589800D01*
G37*
D15*
G01*
X914400Y5223789D03*
D16*
G01*
X2717800Y4296511D03*
G01*
X2717800Y4466513D03*
G36*
X2108799Y6086500D02*
G01*
X2168799Y6086500D01*
X2168799Y6006500D01*
X2108799Y6006500D01*
G37*
G36*
X2108799Y6266500D02*
G01*
X2168799Y6266500D01*
X2168799Y6186500D01*
X2108799Y6186500D01*
G37*
G36*
X2028819Y6086485D02*
G01*
X2068819Y6086485D01*
X2068819Y6006485D01*
X2028819Y6006485D01*
G37*
G36*
X2028799Y6266500D02*
G01*
X2068799Y6266500D01*
X2068799Y6186500D01*
X2028799Y6186500D01*
G37*
G36*
X1948820Y6086485D02*
G01*
X1988820Y6086485D01*
X1988820Y6006485D01*
X1948820Y6006485D01*
G37*
G36*
X1948799Y6266500D02*
G01*
X1988799Y6266500D01*
X1988799Y6186500D01*
X1948799Y6186500D01*
G37*
G36*
X1848799Y6266500D02*
G01*
X1908799Y6266500D01*
X1908799Y6186500D01*
X1848799Y6186500D01*
G37*
G36*
X1848820Y6086485D02*
G01*
X1908820Y6086485D01*
X1908820Y6006485D01*
X1848820Y6006485D01*
G37*
G36*
X2654899Y6086500D02*
G01*
X2714899Y6086500D01*
X2714899Y6006500D01*
X2654899Y6006500D01*
G37*
G36*
X2654899Y6266500D02*
G01*
X2714899Y6266500D01*
X2714899Y6186500D01*
X2654899Y6186500D01*
G37*
G36*
X2574919Y6086485D02*
G01*
X2614919Y6086485D01*
X2614919Y6006485D01*
X2574919Y6006485D01*
G37*
G36*
X2574899Y6266500D02*
G01*
X2614899Y6266500D01*
X2614899Y6186500D01*
X2574899Y6186500D01*
G37*
G36*
X2494920Y6086485D02*
G01*
X2534920Y6086485D01*
X2534920Y6006485D01*
X2494920Y6006485D01*
G37*
G36*
X2494899Y6266500D02*
G01*
X2534899Y6266500D01*
X2534899Y6186500D01*
X2494899Y6186500D01*
G37*
G36*
X2394899Y6266500D02*
G01*
X2454899Y6266500D01*
X2454899Y6186500D01*
X2394899Y6186500D01*
G37*
G36*
X2394920Y6086485D02*
G01*
X2454920Y6086485D01*
X2454920Y6006485D01*
X2394920Y6006485D01*
G37*
D13*
G01*
X927100Y5998210D03*
G01*
X927100Y5838215D03*
G36*
X1782607Y4246001D02*
G01*
X1882607Y4246001D01*
X1882607Y4135998D01*
X1782607Y4135998D01*
G37*
G36*
X1622607Y4246001D02*
G01*
X1722607Y4246001D01*
X1722607Y4135998D01*
X1622607Y4135998D01*
G37*
D14*
G01*
X2536190Y7073900D03*
G01*
X2696184Y7073900D03*
G36*
X2646207Y6887601D02*
G01*
X2746207Y6887601D01*
X2746207Y6777598D01*
X2646207Y6777598D01*
G37*
G36*
X2486207Y6887601D02*
G01*
X2586207Y6887601D01*
X2586207Y6777598D01*
X2486207Y6777598D01*
G37*
G36*
X2646207Y6659001D02*
G01*
X2746207Y6659001D01*
X2746207Y6548998D01*
X2646207Y6548998D01*
G37*
G36*
X2486207Y6659001D02*
G01*
X2586207Y6659001D01*
X2586207Y6548998D01*
X2486207Y6548998D01*
G37*
D19*
G01*
X1803400Y4524502D03*
G01*
X1803400Y6524497D03*
D20*
G01*
X2184400Y7366000D03*
D21*
G01*
X1930400Y7366000D03*
G01*
X1676400Y7366000D03*
G01*
X1422400Y7366000D03*
D22*
G01*
X2451100Y3848100D03*
G01*
X2197100Y3848100D03*
G01*
X1943100Y3848100D03*
G01*
X1689100Y3848100D03*
G01*
X1435100Y3848100D03*
G36*
X1091100Y3938099D02*
G01*
X1271099Y3938099D01*
X1271099Y3758100D01*
X1091100Y3758100D01*
G37*
D12*
G01*
X2288489Y6179489D03*
G01*
X2696184Y6718300D03*
G01*
X2531948Y6479438D03*
G01*
X979754Y5055006D03*
G01*
X1646148Y5317007D03*
G01*
X1812467Y6153937D03*
G01*
X1433601Y4486808D03*
G01*
X2795955Y4210837D03*
G01*
X2003907Y4120845D03*
G01*
X2514930Y6132474D03*
G01*
X1483283Y6363817D03*
M02*
