G04 Layer: BottomSilkLayer*
G04 EasyEDA v6.4.25, 2022-01-11T00:03:50+05:30*
G04 e79d8a0691a342feb3cd135c88b6c30b,bb4acb9064584a23a31515f2769df67a,10*
G04 Gerber Generator version 0.2*
G04 Scale: 100 percent, Rotated: No, Reflected: No *
G04 Dimensions in millimeters *
G04 leading zeros omitted , absolute positions ,4 integer and 5 decimal *
%FSLAX45Y45*%
%MOMM*%

%ADD10C,0.2540*%
%ADD24C,0.1524*%
%ADD25C,0.2032*%

%LPD*%
D25*
X2306718Y5856681D02*
G01*
X2311262Y5865771D01*
X2320353Y5874862D01*
X2329446Y5879409D01*
X2347628Y5879409D01*
X2356718Y5874862D01*
X2365809Y5865771D01*
X2370353Y5856681D01*
X2374900Y5843046D01*
X2374900Y5820318D01*
X2370353Y5806681D01*
X2365809Y5797590D01*
X2356718Y5788499D01*
X2347628Y5783953D01*
X2329446Y5783953D01*
X2320353Y5788499D01*
X2311262Y5797590D01*
X2306718Y5806681D01*
X2276718Y5879409D02*
G01*
X2276718Y5783953D01*
X2276718Y5879409D02*
G01*
X2235809Y5879409D01*
X2222172Y5874862D01*
X2217628Y5870318D01*
X2213081Y5861227D01*
X2213081Y5852137D01*
X2217628Y5843046D01*
X2222172Y5838499D01*
X2235809Y5833953D01*
X2276718Y5833953D01*
X2244900Y5833953D02*
G01*
X2213081Y5783953D01*
X2178537Y5856681D02*
G01*
X2178537Y5861227D01*
X2173991Y5870318D01*
X2169447Y5874862D01*
X2160353Y5879409D01*
X2142172Y5879409D01*
X2133081Y5874862D01*
X2128537Y5870318D01*
X2123991Y5861227D01*
X2123991Y5852137D01*
X2128537Y5843046D01*
X2137628Y5829409D01*
X2183081Y5783953D01*
X2119447Y5783953D01*
X2080353Y5879409D02*
G01*
X2030354Y5879409D01*
X2057628Y5843046D01*
X2043991Y5843046D01*
X2034900Y5838499D01*
X2030354Y5833953D01*
X2025810Y5820318D01*
X2025810Y5811227D01*
X2030354Y5797590D01*
X2039447Y5788499D01*
X2053081Y5783953D01*
X2066719Y5783953D01*
X2080353Y5788499D01*
X2084900Y5793046D01*
X2089447Y5802137D01*
X1968538Y5879409D02*
G01*
X1982172Y5874862D01*
X1991263Y5861227D01*
X1995810Y5838499D01*
X1995810Y5824862D01*
X1991263Y5802137D01*
X1982172Y5788499D01*
X1968538Y5783953D01*
X1959447Y5783953D01*
X1945810Y5788499D01*
X1936719Y5802137D01*
X1932172Y5824862D01*
X1932172Y5838499D01*
X1936719Y5861227D01*
X1945810Y5874862D01*
X1959447Y5879409D01*
X1968538Y5879409D01*
X1897628Y5856681D02*
G01*
X1897628Y5861227D01*
X1893082Y5870318D01*
X1888538Y5874862D01*
X1879447Y5879409D01*
X1861263Y5879409D01*
X1852173Y5874862D01*
X1847629Y5870318D01*
X1843082Y5861227D01*
X1843082Y5852137D01*
X1847629Y5843046D01*
X1856719Y5829409D01*
X1902172Y5783953D01*
X1838538Y5783953D01*
X1738538Y5879409D02*
G01*
X1738538Y5783953D01*
X1674901Y5879409D02*
G01*
X1674901Y5783953D01*
X1738538Y5833953D02*
G01*
X1674901Y5833953D01*
X1617629Y5879409D02*
G01*
X1626720Y5874862D01*
X1635810Y5865771D01*
X1640354Y5856681D01*
X1644901Y5843046D01*
X1644901Y5820318D01*
X1640354Y5806681D01*
X1635810Y5797590D01*
X1626720Y5788499D01*
X1617629Y5783953D01*
X1599448Y5783953D01*
X1590354Y5788499D01*
X1581264Y5797590D01*
X1576720Y5806681D01*
X1572173Y5820318D01*
X1572173Y5843046D01*
X1576720Y5856681D01*
X1581264Y5865771D01*
X1590354Y5874862D01*
X1599448Y5879409D01*
X1617629Y5879409D01*
X1542173Y5879409D02*
G01*
X1542173Y5783953D01*
X1542173Y5783953D02*
G01*
X1487629Y5783953D01*
X1457629Y5879409D02*
G01*
X1457629Y5783953D01*
X1457629Y5879409D02*
G01*
X1425811Y5879409D01*
X1412173Y5874862D01*
X1403083Y5865771D01*
X1398539Y5856681D01*
X1393992Y5843046D01*
X1393992Y5820318D01*
X1398539Y5806681D01*
X1403083Y5797590D01*
X1412173Y5788499D01*
X1425811Y5783953D01*
X1457629Y5783953D01*
X1363992Y5879409D02*
G01*
X1363992Y5783953D01*
X1363992Y5879409D02*
G01*
X1304902Y5879409D01*
X1363992Y5833953D02*
G01*
X1327630Y5833953D01*
X1363992Y5783953D02*
G01*
X1304902Y5783953D01*
X1274902Y5879409D02*
G01*
X1274902Y5783953D01*
X1274902Y5879409D02*
G01*
X1233992Y5879409D01*
X1220355Y5874862D01*
X1215811Y5870318D01*
X1211265Y5861227D01*
X1211265Y5852137D01*
X1215811Y5843046D01*
X1220355Y5838499D01*
X1233992Y5833953D01*
X1274902Y5833953D01*
X1243083Y5833953D02*
G01*
X1211265Y5783953D01*
D24*
X4242815Y6731000D02*
G01*
X4164838Y6731000D01*
X4149343Y6736079D01*
X4138929Y6746494D01*
X4133850Y6762242D01*
X4133850Y6772655D01*
X4138929Y6788150D01*
X4149343Y6798563D01*
X4164838Y6803644D01*
X4242815Y6803644D01*
X4242815Y6848347D02*
G01*
X4242815Y6905497D01*
X4201159Y6874510D01*
X4201159Y6890004D01*
X4196079Y6900418D01*
X4191000Y6905497D01*
X4175252Y6910831D01*
X4164838Y6910831D01*
X4149343Y6905497D01*
X4138929Y6895084D01*
X4133850Y6879589D01*
X4133850Y6864095D01*
X4138929Y6848347D01*
X4144009Y6843268D01*
X4154424Y6837934D01*
D10*
X2153386Y4524502D02*
G01*
X2153386Y4724501D01*
X1453387Y4724501D01*
X1453387Y4524502D01*
X2153386Y4524502D01*
G75*
G01
X2903398Y5774512D02*
G03X2903398Y5774512I-1099998J0D01*
M02*
