G04 Layer: BottomLayer*
G04 EasyEDA v6.4.25, 2022-01-11T00:03:50+05:30*
G04 e79d8a0691a342feb3cd135c88b6c30b,bb4acb9064584a23a31515f2769df67a,10*
G04 Gerber Generator version 0.2*
G04 Scale: 100 percent, Rotated: No, Reflected: No *
G04 Dimensions in millimeters *
G04 leading zeros omitted , absolute positions ,4 integer and 5 decimal *
%FSLAX45Y45*%
%MOMM*%

%ADD10C,0.2540*%
%ADD12C,0.6100*%
%ADD19C,1.5240*%
%ADD20R,1.7000X1.7000*%
%ADD21C,1.7000*%
%ADD22C,1.8000*%

%LPD*%
G36*
X1878177Y6133896D02*
G01*
X1874062Y6134760D01*
X1870710Y6137198D01*
X1868576Y6140805D01*
X1868068Y6144971D01*
X1868830Y6153912D01*
X1867966Y6163716D01*
X1865426Y6173216D01*
X1861312Y6182106D01*
X1855673Y6190183D01*
X1848713Y6197092D01*
X1840636Y6202730D01*
X1831746Y6206896D01*
X1822246Y6209436D01*
X1814220Y6210147D01*
X1810816Y6211062D01*
X1807921Y6213094D01*
X1464005Y6557009D01*
X1461770Y6560312D01*
X1461008Y6564172D01*
X1461008Y7255459D01*
X1461770Y7259269D01*
X1463852Y7262520D01*
X1467053Y7264755D01*
X1473708Y7267702D01*
X1485849Y7275068D01*
X1496974Y7283907D01*
X1506829Y7294118D01*
X1515313Y7305497D01*
X1522323Y7317892D01*
X1527657Y7331049D01*
X1531264Y7344816D01*
X1533042Y7358888D01*
X1533042Y7373112D01*
X1531264Y7387183D01*
X1527657Y7400950D01*
X1522323Y7414107D01*
X1515313Y7426502D01*
X1506829Y7437881D01*
X1496974Y7448092D01*
X1487017Y7455966D01*
X1484376Y7459167D01*
X1483258Y7463180D01*
X1483766Y7467295D01*
X1485950Y7470851D01*
X1489303Y7473238D01*
X1493367Y7474102D01*
X1605635Y7474102D01*
X1609801Y7473188D01*
X1613204Y7470698D01*
X1615287Y7466990D01*
X1615694Y7462723D01*
X1614322Y7458709D01*
X1611426Y7455611D01*
X1607261Y7452715D01*
X1596745Y7443165D01*
X1587550Y7432344D01*
X1579778Y7420406D01*
X1573631Y7407605D01*
X1569161Y7394143D01*
X1566418Y7380173D01*
X1565503Y7366000D01*
X1566418Y7351826D01*
X1569161Y7337856D01*
X1573631Y7324394D01*
X1579778Y7311593D01*
X1587550Y7299655D01*
X1596745Y7288834D01*
X1607261Y7279284D01*
X1618894Y7271207D01*
X1632305Y7264247D01*
X1635201Y7261961D01*
X1637131Y7258812D01*
X1637792Y7255205D01*
X1637792Y7120178D01*
X1638604Y7112152D01*
X1640789Y7104938D01*
X1644345Y7098284D01*
X1649475Y7092035D01*
X2533700Y6207760D01*
X2535986Y6204356D01*
X2536698Y6200394D01*
X2536647Y6197854D01*
X2535732Y6193790D01*
X2533294Y6190488D01*
X2529687Y6188405D01*
X2525623Y6187897D01*
X2514955Y6188811D01*
X2505151Y6187998D01*
X2495651Y6185458D01*
X2486761Y6181293D01*
X2478684Y6175654D01*
X2471775Y6168694D01*
X2466136Y6160668D01*
X2461971Y6151727D01*
X2459228Y6141466D01*
X2457196Y6137554D01*
X2453690Y6134862D01*
X2449372Y6133896D01*
G37*

%LPC*%
G36*
X1847850Y6432854D02*
G01*
X1855419Y6436664D01*
X1866646Y6444386D01*
X1876806Y6453530D01*
X1885594Y6463944D01*
X1892909Y6475425D01*
X1895043Y6480048D01*
X1847850Y6480048D01*
G37*
G36*
X1758950Y6432854D02*
G01*
X1758950Y6480048D01*
X1711756Y6480048D01*
X1713890Y6475425D01*
X1721205Y6463944D01*
X1729993Y6453530D01*
X1740154Y6444386D01*
X1751380Y6436664D01*
G37*
G36*
X1711604Y6568948D02*
G01*
X1758950Y6568948D01*
X1758950Y6616293D01*
X1757375Y6615633D01*
X1745640Y6608673D01*
X1734921Y6600190D01*
X1725422Y6590385D01*
X1717344Y6579412D01*
G37*
G36*
X1847850Y6568948D02*
G01*
X1895195Y6568948D01*
X1889455Y6579412D01*
X1881378Y6590385D01*
X1871878Y6600190D01*
X1861159Y6608673D01*
X1849424Y6615633D01*
X1847850Y6616293D01*
G37*

%LPD*%
G36*
X2000504Y3725926D02*
G01*
X1996135Y3726891D01*
X1992680Y3729583D01*
X1990648Y3733546D01*
X1990496Y3737965D01*
X1992274Y3742029D01*
X1995576Y3744976D01*
X2005177Y3750259D01*
X2016963Y3758793D01*
X2027580Y3768750D01*
X2036876Y3779977D01*
X2044649Y3792270D01*
X2050846Y3805428D01*
X2055368Y3819296D01*
X2058060Y3833571D01*
X2058974Y3848100D01*
X2058060Y3862628D01*
X2055368Y3876903D01*
X2050846Y3890772D01*
X2044649Y3903929D01*
X2036876Y3916222D01*
X2027580Y3927449D01*
X2016963Y3937406D01*
X2005177Y3945940D01*
X1992426Y3952951D01*
X1988108Y3954678D01*
X1984756Y3956862D01*
X1982520Y3960164D01*
X1981707Y3964127D01*
X1981707Y4055414D01*
X1982571Y4059529D01*
X1985010Y4062933D01*
X1988667Y4065066D01*
X1992833Y4065524D01*
X2003958Y4064457D01*
X2013712Y4065320D01*
X2023211Y4067860D01*
X2032101Y4072026D01*
X2040128Y4077665D01*
X2041753Y4079240D01*
X2045055Y4081475D01*
X2048916Y4082237D01*
X2705455Y4082237D01*
X2713482Y4082999D01*
X2720746Y4085234D01*
X2727401Y4088790D01*
X2733598Y4093870D01*
X2791409Y4151680D01*
X2794304Y4153712D01*
X2797708Y4154627D01*
X2805734Y4155338D01*
X2815234Y4157878D01*
X2824124Y4161993D01*
X2832201Y4167632D01*
X2839161Y4174591D01*
X2844800Y4182618D01*
X2848914Y4191558D01*
X2851454Y4201058D01*
X2852318Y4210812D01*
X2851454Y4220616D01*
X2848914Y4230116D01*
X2844800Y4239006D01*
X2839161Y4247083D01*
X2832201Y4253992D01*
X2824124Y4259630D01*
X2815234Y4263796D01*
X2805734Y4266336D01*
X2795981Y4267200D01*
X2786176Y4266336D01*
X2776677Y4263796D01*
X2767787Y4259630D01*
X2759710Y4253992D01*
X2752801Y4247083D01*
X2747162Y4239006D01*
X2742996Y4230116D01*
X2740456Y4220616D01*
X2739745Y4212590D01*
X2738831Y4209186D01*
X2736799Y4206290D01*
X2692958Y4162399D01*
X2689656Y4160215D01*
X2685745Y4159453D01*
X2048916Y4159453D01*
X2045055Y4160215D01*
X2041753Y4162399D01*
X2040128Y4164025D01*
X2032101Y4169664D01*
X2023211Y4173829D01*
X2013712Y4176369D01*
X2003958Y4177182D01*
X1992833Y4176166D01*
X1988667Y4176623D01*
X1985010Y4178757D01*
X1982571Y4182160D01*
X1981707Y4186275D01*
X1981707Y5019548D01*
X1980895Y5027574D01*
X1978710Y5034788D01*
X1975154Y5041442D01*
X1970074Y5047691D01*
X1756714Y5261051D01*
X1754479Y5264353D01*
X1753717Y5268214D01*
X1754479Y5272125D01*
X1756714Y5275427D01*
X1760016Y5277612D01*
X1763877Y5278374D01*
X1781962Y5278374D01*
X1789988Y5279186D01*
X1797202Y5281371D01*
X1803857Y5284927D01*
X1810105Y5290058D01*
X2602280Y6082182D01*
X2607360Y6088430D01*
X2610916Y6095085D01*
X2613152Y6102350D01*
X2613914Y6110376D01*
X2613914Y6220256D01*
X2613152Y6228283D01*
X2610916Y6235547D01*
X2607360Y6242202D01*
X2602280Y6248450D01*
X1718005Y7132726D01*
X1715770Y7135977D01*
X1715007Y7139889D01*
X1715007Y7255459D01*
X1715770Y7259269D01*
X1717852Y7262520D01*
X1721053Y7264755D01*
X1727707Y7267702D01*
X1739849Y7275068D01*
X1750974Y7283907D01*
X1760829Y7294118D01*
X1769313Y7305497D01*
X1776323Y7317892D01*
X1781657Y7331049D01*
X1785264Y7344816D01*
X1787042Y7358888D01*
X1787042Y7373112D01*
X1785264Y7387183D01*
X1781657Y7400950D01*
X1776323Y7414107D01*
X1769313Y7426502D01*
X1760829Y7437881D01*
X1750974Y7448092D01*
X1741017Y7455966D01*
X1738375Y7459167D01*
X1737258Y7463180D01*
X1737766Y7467295D01*
X1739950Y7470851D01*
X1743303Y7473238D01*
X1747367Y7474102D01*
X1859635Y7474102D01*
X1863801Y7473188D01*
X1867204Y7470698D01*
X1869287Y7466990D01*
X1869693Y7462723D01*
X1868322Y7458709D01*
X1865426Y7455611D01*
X1861261Y7452715D01*
X1850745Y7443165D01*
X1841550Y7432344D01*
X1833778Y7420406D01*
X1827631Y7407605D01*
X1823161Y7394143D01*
X1820418Y7380173D01*
X1819503Y7366000D01*
X1820418Y7351826D01*
X1823161Y7337856D01*
X1827631Y7324394D01*
X1833778Y7311593D01*
X1841550Y7299655D01*
X1850745Y7288834D01*
X1861261Y7279284D01*
X1872894Y7271207D01*
X1886305Y7264247D01*
X1889201Y7261961D01*
X1891131Y7258812D01*
X1891792Y7255205D01*
X1891792Y7081469D01*
X1892604Y7073442D01*
X1894789Y7066229D01*
X1898345Y7059574D01*
X1903475Y7053325D01*
X2472791Y6483959D01*
X2474823Y6481114D01*
X2475738Y6477660D01*
X2476449Y6469634D01*
X2478989Y6460134D01*
X2483154Y6451244D01*
X2488793Y6443218D01*
X2495702Y6436258D01*
X2503779Y6430619D01*
X2512669Y6426454D01*
X2522169Y6423914D01*
X2531973Y6423050D01*
X2541727Y6423914D01*
X2551226Y6426454D01*
X2560116Y6430619D01*
X2568194Y6436258D01*
X2575153Y6443218D01*
X2580792Y6451244D01*
X2584907Y6460134D01*
X2587447Y6469634D01*
X2588310Y6479438D01*
X2587447Y6489192D01*
X2584907Y6498691D01*
X2580792Y6507632D01*
X2575153Y6515658D01*
X2568194Y6522618D01*
X2560116Y6528257D01*
X2551226Y6532422D01*
X2541727Y6534962D01*
X2533700Y6535623D01*
X2530297Y6536537D01*
X2527401Y6538569D01*
X1972005Y7094016D01*
X1969770Y7097268D01*
X1969007Y7101179D01*
X1969007Y7255459D01*
X1969770Y7259269D01*
X1971852Y7262520D01*
X1975053Y7264755D01*
X1981707Y7267702D01*
X1993849Y7275068D01*
X2004974Y7283907D01*
X2014829Y7294118D01*
X2023313Y7305497D01*
X2030323Y7317892D01*
X2035657Y7331049D01*
X2039264Y7344816D01*
X2041042Y7358888D01*
X2041042Y7373112D01*
X2039264Y7387183D01*
X2035657Y7400950D01*
X2030323Y7414107D01*
X2023313Y7426502D01*
X2014829Y7437881D01*
X2004974Y7448092D01*
X1995017Y7455966D01*
X1992375Y7459167D01*
X1991258Y7463180D01*
X1991766Y7467295D01*
X1993950Y7470851D01*
X1997303Y7473238D01*
X2001367Y7474102D01*
X2065934Y7474102D01*
X2069744Y7473340D01*
X2072995Y7471257D01*
X2075180Y7468158D01*
X2076094Y7464399D01*
X2075535Y7460589D01*
X2074214Y7456728D01*
X2073503Y7450429D01*
X2073503Y7414869D01*
X2135530Y7414869D01*
X2135530Y7463942D01*
X2136343Y7467803D01*
X2138527Y7471105D01*
X2141829Y7473340D01*
X2145690Y7474102D01*
X2223109Y7474102D01*
X2226970Y7473340D01*
X2230272Y7471105D01*
X2232456Y7467803D01*
X2233269Y7463942D01*
X2233269Y7414869D01*
X2295296Y7414869D01*
X2295296Y7450429D01*
X2294585Y7456728D01*
X2293264Y7460589D01*
X2292705Y7464399D01*
X2293620Y7468158D01*
X2295804Y7471257D01*
X2299055Y7473340D01*
X2302865Y7474102D01*
X2863951Y7474102D01*
X2867812Y7473340D01*
X2871114Y7471105D01*
X2873298Y7467803D01*
X2874111Y7463942D01*
X2874111Y3736086D01*
X2873298Y3732174D01*
X2871114Y3728872D01*
X2867812Y3726687D01*
X2863951Y3725926D01*
X2508504Y3725926D01*
X2504135Y3726891D01*
X2500325Y3730193D01*
X2499461Y3728872D01*
X2496159Y3726687D01*
X2492298Y3725926D01*
X2409901Y3725926D01*
X2406040Y3726687D01*
X2401570Y3729583D01*
X2398064Y3726891D01*
X2393696Y3725926D01*
X2254504Y3725926D01*
X2250135Y3726891D01*
X2246680Y3729583D01*
X2244648Y3733546D01*
X2244496Y3737965D01*
X2246274Y3742029D01*
X2249576Y3744976D01*
X2259177Y3750259D01*
X2270963Y3758793D01*
X2281580Y3768750D01*
X2290876Y3779977D01*
X2298649Y3792270D01*
X2304846Y3805428D01*
X2309368Y3819296D01*
X2312060Y3833571D01*
X2312974Y3848100D01*
X2312060Y3862628D01*
X2309368Y3876903D01*
X2304846Y3890772D01*
X2298649Y3903929D01*
X2290876Y3916222D01*
X2281580Y3927449D01*
X2270963Y3937406D01*
X2259177Y3945940D01*
X2246426Y3952951D01*
X2232914Y3958336D01*
X2218791Y3961942D01*
X2204364Y3963771D01*
X2189835Y3963771D01*
X2175408Y3961942D01*
X2161286Y3958336D01*
X2147773Y3952951D01*
X2135022Y3945940D01*
X2123236Y3937406D01*
X2112619Y3927449D01*
X2103323Y3916222D01*
X2095550Y3903929D01*
X2089353Y3890772D01*
X2084832Y3876903D01*
X2082139Y3862628D01*
X2081225Y3848100D01*
X2082139Y3833571D01*
X2084832Y3819296D01*
X2089353Y3805428D01*
X2095550Y3792270D01*
X2103323Y3779977D01*
X2112619Y3768750D01*
X2123236Y3758793D01*
X2135022Y3750259D01*
X2144623Y3744976D01*
X2147925Y3742029D01*
X2149703Y3737965D01*
X2149551Y3733546D01*
X2147570Y3729583D01*
X2144064Y3726891D01*
X2139696Y3725926D01*
G37*

%LPC*%
G36*
X2502458Y3743960D02*
G01*
X2503576Y3744976D01*
X2513177Y3750259D01*
X2524963Y3758793D01*
X2535580Y3768750D01*
X2544876Y3779977D01*
X2552649Y3792270D01*
X2554782Y3796741D01*
X2502458Y3796741D01*
G37*
G36*
X2399741Y3743960D02*
G01*
X2399741Y3796741D01*
X2347417Y3796741D01*
X2349550Y3792270D01*
X2357323Y3779977D01*
X2366619Y3768750D01*
X2377236Y3758793D01*
X2389022Y3750259D01*
X2398623Y3744976D01*
G37*
G36*
X2502458Y3899458D02*
G01*
X2554782Y3899458D01*
X2552649Y3903929D01*
X2544876Y3916222D01*
X2535580Y3927449D01*
X2524963Y3937406D01*
X2513177Y3945940D01*
X2502458Y3951833D01*
G37*
G36*
X2347417Y3899458D02*
G01*
X2399741Y3899458D01*
X2399741Y3951833D01*
X2389022Y3945940D01*
X2377236Y3937406D01*
X2366619Y3927449D01*
X2357323Y3916222D01*
X2349550Y3903929D01*
G37*
G36*
X2233269Y7255103D02*
G01*
X2268829Y7255103D01*
X2275128Y7255814D01*
X2280615Y7257694D01*
X2285492Y7260793D01*
X2289606Y7264908D01*
X2292705Y7269784D01*
X2294585Y7275271D01*
X2295296Y7281570D01*
X2295296Y7317130D01*
X2233269Y7317130D01*
G37*
G36*
X2099970Y7255103D02*
G01*
X2135530Y7255103D01*
X2135530Y7317130D01*
X2073503Y7317130D01*
X2073503Y7281570D01*
X2074214Y7275271D01*
X2076094Y7269784D01*
X2079193Y7264908D01*
X2083307Y7260793D01*
X2088184Y7257694D01*
X2093671Y7255814D01*
G37*

%LPD*%
D10*
X2288491Y6179479D02*
G01*
X2148410Y6179479D01*
X1803402Y6524487D01*
X2184402Y7365989D02*
G01*
X2297534Y7365989D01*
X2297534Y7365989D02*
G01*
X2297534Y7116942D01*
X2696187Y6718289D01*
X1930402Y7365989D02*
G01*
X1930402Y7080976D01*
X2531950Y6479428D01*
X1803402Y4524491D02*
G01*
X1272898Y5054996D01*
X979756Y5054996D01*
X1676402Y7365989D02*
G01*
X1676402Y7119686D01*
X2575308Y6220780D01*
X2575308Y6109858D01*
X1782447Y5316997D01*
X1646151Y5316997D01*
X1943102Y3848089D02*
G01*
X1943102Y5020045D01*
X1646151Y5316997D01*
X1422402Y7365989D02*
G01*
X1422402Y6543995D01*
X1812470Y6153927D01*
X1689102Y3848089D02*
G01*
X1689102Y4231299D01*
X1433603Y4486798D01*
X2795958Y4210827D02*
G01*
X2705966Y4120835D01*
X2003910Y4120835D01*
X1483286Y6363807D02*
G01*
X1751789Y6095304D01*
X2477772Y6095304D01*
X2514932Y6132464D01*
D19*
G01*
X1803400Y4524502D03*
G01*
X1803400Y6524497D03*
D20*
G01*
X2184400Y7366000D03*
D21*
G01*
X1930400Y7366000D03*
G01*
X1676400Y7366000D03*
G01*
X1422400Y7366000D03*
D22*
G01*
X2451100Y3848100D03*
G01*
X2197100Y3848100D03*
G01*
X1943100Y3848100D03*
G01*
X1689100Y3848100D03*
G01*
X1435100Y3848100D03*
G36*
X1091100Y3938099D02*
G01*
X1271099Y3938099D01*
X1271099Y3758100D01*
X1091100Y3758100D01*
G37*
D12*
G01*
X2288489Y6179489D03*
G01*
X2696184Y6718300D03*
G01*
X2531948Y6479438D03*
G01*
X979754Y5055006D03*
G01*
X1646148Y5317007D03*
G01*
X1812467Y6153937D03*
G01*
X1433601Y4486808D03*
G01*
X2795955Y4210837D03*
G01*
X2003907Y4120845D03*
G01*
X2514930Y6132474D03*
G01*
X1483283Y6363817D03*
M02*
