M48
METRIC,LZ,000.000
;FILE_FORMAT=3:3
;TYPE=PLATED
;Layer: Drill PTH
;EasyEDA v6.4.25, 2022-01-11T00:03:50+05:30
;e79d8a0691a342feb3cd135c88b6c30b,bb4acb9064584a23a31515f2769df67a,10
;Gerber Generator version 0.2
;Holesize 1 = 0.306 mm
T01C0.306
;Holesize 2 = 0.915 mm
T02C0.915
;Holesize 3 = 1.101 mm
T03C1.101
;Holesize 4 = 1.200 mm
T04C1.200
%
G05
G90
T01
X022885Y061795
X026962Y067183
X025319Y064794
X009798Y050550
X016461Y053170
X018125Y061539
X014336Y044868
X027960Y042108
X020039Y041208
X025149Y061325
X014833Y063638
T02
X018034Y045245
X018034Y065245
T03
X021844Y073660
X019304Y073660
X016764Y073660
X014224Y073660
T04
X024511Y038481
X021971Y038481
X019431Y038481
X016891Y038481
X014351Y038481
X011811Y038481
M30
