G04 Layer: TopSilkLayer*
G04 EasyEDA v6.4.25, 2022-01-11T00:03:50+05:30*
G04 e79d8a0691a342feb3cd135c88b6c30b,bb4acb9064584a23a31515f2769df67a,10*
G04 Gerber Generator version 0.2*
G04 Scale: 100 percent, Rotated: No, Reflected: No *
G04 Dimensions in millimeters *
G04 leading zeros omitted , absolute positions ,4 integer and 5 decimal *
%FSLAX45Y45*%
%MOMM*%

%ADD10C,0.2540*%
%ADD24C,0.1524*%
%ADD25C,0.2032*%
%ADD26C,0.2030*%
%ADD27C,0.1500*%
%ADD28C,0.3000*%

%LPD*%
D25*
X1175512Y4267200D02*
G01*
X1239265Y4285487D01*
X1175512Y4303521D02*
G01*
X1239265Y4285487D01*
X1175512Y4303521D02*
G01*
X1239265Y4321810D01*
X1175512Y4339844D02*
G01*
X1239265Y4321810D01*
X1175512Y4369815D02*
G01*
X1239265Y4388104D01*
X1175512Y4406392D02*
G01*
X1239265Y4388104D01*
X1175512Y4406392D02*
G01*
X1239265Y4424426D01*
X1175512Y4442713D02*
G01*
X1239265Y4424426D01*
X1175512Y4472686D02*
G01*
X1239265Y4490720D01*
X1175512Y4509007D02*
G01*
X1239265Y4490720D01*
X1175512Y4509007D02*
G01*
X1239265Y4527295D01*
X1175512Y4545329D02*
G01*
X1239265Y4527295D01*
X1216405Y4579873D02*
G01*
X1220978Y4575302D01*
X1225550Y4579873D01*
X1220978Y4584445D01*
X1216405Y4579873D01*
X1175512Y4618989D02*
G01*
X1239265Y4646168D01*
X1175512Y4673600D02*
G01*
X1239265Y4646168D01*
X1257300Y4637278D01*
X1266444Y4628134D01*
X1271015Y4618989D01*
X1271015Y4614418D01*
X1175512Y4726178D02*
G01*
X1180084Y4717287D01*
X1189228Y4708144D01*
X1202689Y4703571D01*
X1211834Y4703571D01*
X1225550Y4708144D01*
X1234694Y4717287D01*
X1239265Y4726178D01*
X1239265Y4739894D01*
X1234694Y4749037D01*
X1225550Y4758181D01*
X1211834Y4762754D01*
X1202689Y4762754D01*
X1189228Y4758181D01*
X1180084Y4749037D01*
X1175512Y4739894D01*
X1175512Y4726178D01*
X1175512Y4792726D02*
G01*
X1220978Y4792726D01*
X1234694Y4797297D01*
X1239265Y4806187D01*
X1239265Y4819904D01*
X1234694Y4829047D01*
X1220978Y4842763D01*
X1175512Y4842763D02*
G01*
X1239265Y4842763D01*
X1143762Y4886197D02*
G01*
X1220978Y4886197D01*
X1234694Y4890770D01*
X1239265Y4899913D01*
X1239265Y4909057D01*
X1175512Y4872736D02*
G01*
X1175512Y4904486D01*
X1175512Y4939029D02*
G01*
X1220978Y4939029D01*
X1234694Y4943602D01*
X1239265Y4952745D01*
X1239265Y4966207D01*
X1234694Y4975352D01*
X1220978Y4989068D01*
X1175512Y4989068D02*
G01*
X1239265Y4989068D01*
X1143762Y5019039D02*
G01*
X1239265Y5019039D01*
X1189228Y5019039D02*
G01*
X1180084Y5028184D01*
X1175512Y5037073D01*
X1175512Y5050789D01*
X1180084Y5059934D01*
X1189228Y5069078D01*
X1202689Y5073650D01*
X1211834Y5073650D01*
X1225550Y5069078D01*
X1234694Y5059934D01*
X1239265Y5050789D01*
X1239265Y5037073D01*
X1234694Y5028184D01*
X1225550Y5019039D01*
X1202689Y5103621D02*
G01*
X1202689Y5158231D01*
X1193800Y5158231D01*
X1184655Y5153660D01*
X1180084Y5149087D01*
X1175512Y5139944D01*
X1175512Y5126228D01*
X1180084Y5117084D01*
X1189228Y5108194D01*
X1202689Y5103621D01*
X1211834Y5103621D01*
X1225550Y5108194D01*
X1234694Y5117084D01*
X1239265Y5126228D01*
X1239265Y5139944D01*
X1234694Y5149087D01*
X1225550Y5158231D01*
X1216405Y5192776D02*
G01*
X1220978Y5188204D01*
X1225550Y5192776D01*
X1220978Y5197094D01*
X1216405Y5192776D01*
X1189228Y5281676D02*
G01*
X1180084Y5272531D01*
X1175512Y5263642D01*
X1175512Y5249926D01*
X1180084Y5240781D01*
X1189228Y5231637D01*
X1202689Y5227320D01*
X1211834Y5227320D01*
X1225550Y5231637D01*
X1234694Y5240781D01*
X1239265Y5249926D01*
X1239265Y5263642D01*
X1234694Y5272531D01*
X1225550Y5281676D01*
X1175512Y5334507D02*
G01*
X1180084Y5325363D01*
X1189228Y5316220D01*
X1202689Y5311647D01*
X1211834Y5311647D01*
X1225550Y5316220D01*
X1234694Y5325363D01*
X1239265Y5334507D01*
X1239265Y5348223D01*
X1234694Y5357113D01*
X1225550Y5366257D01*
X1211834Y5370829D01*
X1202689Y5370829D01*
X1189228Y5366257D01*
X1180084Y5357113D01*
X1175512Y5348223D01*
X1175512Y5334507D01*
X1175512Y5400802D02*
G01*
X1239265Y5400802D01*
X1193800Y5400802D02*
G01*
X1180084Y5414518D01*
X1175512Y5423662D01*
X1175512Y5437123D01*
X1180084Y5446268D01*
X1193800Y5450839D01*
X1239265Y5450839D01*
X1193800Y5450839D02*
G01*
X1180084Y5464555D01*
X1175512Y5473445D01*
X1175512Y5487162D01*
X1180084Y5496305D01*
X1193800Y5500878D01*
X1239265Y5500878D01*
X1125473Y5612637D02*
G01*
X1271015Y5530850D01*
X1143762Y5706363D02*
G01*
X1239265Y5642610D01*
X1143762Y5642610D02*
G01*
X1143762Y5706363D01*
X1239265Y5642610D02*
G01*
X1239265Y5706363D01*
X1202689Y5736336D02*
G01*
X1202689Y5790945D01*
X1193800Y5790945D01*
X1184655Y5786373D01*
X1180084Y5781802D01*
X1175512Y5772657D01*
X1175512Y5758942D01*
X1180084Y5750052D01*
X1189228Y5740907D01*
X1202689Y5736336D01*
X1211834Y5736336D01*
X1225550Y5740907D01*
X1234694Y5750052D01*
X1239265Y5758942D01*
X1239265Y5772657D01*
X1234694Y5781802D01*
X1225550Y5790945D01*
X1175512Y5820918D02*
G01*
X1239265Y5820918D01*
X1193800Y5820918D02*
G01*
X1180084Y5834379D01*
X1175512Y5843523D01*
X1175512Y5857239D01*
X1180084Y5866384D01*
X1193800Y5870955D01*
X1239265Y5870955D01*
X1175512Y5923534D02*
G01*
X1180084Y5914389D01*
X1189228Y5905500D01*
X1202689Y5900928D01*
X1211834Y5900928D01*
X1225550Y5905500D01*
X1234694Y5914389D01*
X1239265Y5923534D01*
X1239265Y5937250D01*
X1234694Y5946394D01*
X1225550Y5955284D01*
X1211834Y5959855D01*
X1202689Y5959855D01*
X1189228Y5955284D01*
X1180084Y5946394D01*
X1175512Y5937250D01*
X1175512Y5923534D01*
X1143762Y5989828D02*
G01*
X1239265Y5989828D01*
X1143762Y5989828D02*
G01*
X1239265Y6026404D01*
X1143762Y6062726D02*
G01*
X1239265Y6026404D01*
X1143762Y6062726D02*
G01*
X1239265Y6062726D01*
X1175512Y6115304D02*
G01*
X1180084Y6106413D01*
X1189228Y6097270D01*
X1202689Y6092697D01*
X1211834Y6092697D01*
X1225550Y6097270D01*
X1234694Y6106413D01*
X1239265Y6115304D01*
X1239265Y6129020D01*
X1234694Y6138163D01*
X1225550Y6147307D01*
X1211834Y6151626D01*
X1202689Y6151626D01*
X1189228Y6147307D01*
X1180084Y6138163D01*
X1175512Y6129020D01*
X1175512Y6115304D01*
X1143762Y6236207D02*
G01*
X1239265Y6236207D01*
X1189228Y6236207D02*
G01*
X1180084Y6227318D01*
X1175512Y6218173D01*
X1175512Y6204457D01*
X1180084Y6195313D01*
X1189228Y6186170D01*
X1202689Y6181852D01*
X1211834Y6181852D01*
X1225550Y6186170D01*
X1234694Y6195313D01*
X1239265Y6204457D01*
X1239265Y6218173D01*
X1234694Y6227318D01*
X1225550Y6236207D01*
X1143762Y6266179D02*
G01*
X1148334Y6270752D01*
X1143762Y6275323D01*
X1139189Y6270752D01*
X1143762Y6266179D01*
X1175512Y6270752D02*
G01*
X1239265Y6270752D01*
X1143762Y6341871D02*
G01*
X1143762Y6332728D01*
X1148334Y6323584D01*
X1161795Y6319012D01*
X1239265Y6319012D01*
X1175512Y6305295D02*
G01*
X1175512Y6337300D01*
X1143762Y6408165D02*
G01*
X1143762Y6399021D01*
X1148334Y6389878D01*
X1161795Y6385305D01*
X1239265Y6385305D01*
X1175512Y6371844D02*
G01*
X1175512Y6403594D01*
X2528061Y5118100D02*
G01*
X2623565Y5118100D01*
X2528061Y5118100D02*
G01*
X2528061Y5149850D01*
X2532634Y5163565D01*
X2541524Y5172710D01*
X2550668Y5177281D01*
X2564384Y5181854D01*
X2586990Y5181854D01*
X2600706Y5177281D01*
X2609850Y5172710D01*
X2618993Y5163565D01*
X2623565Y5149850D01*
X2623565Y5118100D01*
X2541524Y5275326D02*
G01*
X2532634Y5266181D01*
X2528061Y5252720D01*
X2528061Y5234431D01*
X2532634Y5220715D01*
X2541524Y5211826D01*
X2550668Y5211826D01*
X2559811Y5216397D01*
X2564384Y5220715D01*
X2568956Y5229860D01*
X2578100Y5257292D01*
X2582418Y5266181D01*
X2586990Y5270754D01*
X2596134Y5275326D01*
X2609850Y5275326D01*
X2618993Y5266181D01*
X2623565Y5252720D01*
X2623565Y5234431D01*
X2618993Y5220715D01*
X2609850Y5211826D01*
X2528061Y5314442D02*
G01*
X2528061Y5364479D01*
X2564384Y5337302D01*
X2564384Y5350763D01*
X2568956Y5359907D01*
X2573527Y5364479D01*
X2586990Y5369052D01*
X2596134Y5369052D01*
X2609850Y5364479D01*
X2618993Y5355336D01*
X2623565Y5341620D01*
X2623565Y5328157D01*
X2618993Y5314442D01*
X2614422Y5309870D01*
X2605277Y5305297D01*
X2550668Y5403595D02*
G01*
X2546095Y5403595D01*
X2537206Y5408168D01*
X2532634Y5412739D01*
X2528061Y5421629D01*
X2528061Y5439918D01*
X2532634Y5449062D01*
X2537206Y5453634D01*
X2546095Y5458205D01*
X2555240Y5458205D01*
X2564384Y5453634D01*
X2578100Y5444489D01*
X2623565Y5399023D01*
X2623565Y5462523D01*
X2528061Y5501639D02*
G01*
X2528061Y5551678D01*
X2564384Y5524500D01*
X2564384Y5538215D01*
X2568956Y5547105D01*
X2573527Y5551678D01*
X2586990Y5556250D01*
X2596134Y5556250D01*
X2609850Y5551678D01*
X2618993Y5542534D01*
X2623565Y5529071D01*
X2623565Y5515355D01*
X2618993Y5501639D01*
X2614422Y5497068D01*
X2605277Y5492750D01*
X2546095Y5586221D02*
G01*
X2541524Y5595365D01*
X2528061Y5609081D01*
X2623565Y5609081D01*
X2680461Y4838700D02*
G01*
X2775965Y4838700D01*
X2680461Y4838700D02*
G01*
X2680461Y4879594D01*
X2685034Y4893310D01*
X2689606Y4897881D01*
X2698495Y4902454D01*
X2707640Y4902454D01*
X2716784Y4897881D01*
X2721356Y4893310D01*
X2725927Y4879594D01*
X2725927Y4838700D01*
X2725927Y4870450D02*
G01*
X2775965Y4902454D01*
X2680461Y4964176D02*
G01*
X2775965Y4964176D01*
X2680461Y4932426D02*
G01*
X2680461Y4995926D01*
X2703068Y5094223D02*
G01*
X2693924Y5089652D01*
X2685034Y5080507D01*
X2680461Y5071363D01*
X2680461Y5053329D01*
X2685034Y5044186D01*
X2693924Y5035042D01*
X2703068Y5030470D01*
X2716784Y5025897D01*
X2739390Y5025897D01*
X2753106Y5030470D01*
X2762250Y5035042D01*
X2771393Y5044186D01*
X2775965Y5053329D01*
X2775965Y5071363D01*
X2771393Y5080507D01*
X2762250Y5089652D01*
X2753106Y5094223D01*
X2680461Y5194045D02*
G01*
X2775965Y5194045D01*
X2680461Y5194045D02*
G01*
X2775965Y5230621D01*
X2680461Y5266944D02*
G01*
X2775965Y5230621D01*
X2680461Y5266944D02*
G01*
X2775965Y5266944D01*
X2680461Y5324094D02*
G01*
X2685034Y5314950D01*
X2693924Y5306060D01*
X2703068Y5301487D01*
X2716784Y5296915D01*
X2739390Y5296915D01*
X2753106Y5301487D01*
X2762250Y5306060D01*
X2771393Y5314950D01*
X2775965Y5324094D01*
X2775965Y5342381D01*
X2771393Y5351526D01*
X2762250Y5360415D01*
X2753106Y5364987D01*
X2739390Y5369560D01*
X2716784Y5369560D01*
X2703068Y5364987D01*
X2693924Y5360415D01*
X2685034Y5351526D01*
X2680461Y5342381D01*
X2680461Y5324094D01*
X2680461Y5399531D02*
G01*
X2775965Y5399531D01*
X2680461Y5399531D02*
G01*
X2680461Y5431536D01*
X2685034Y5444997D01*
X2693924Y5454142D01*
X2703068Y5458713D01*
X2716784Y5463286D01*
X2739390Y5463286D01*
X2753106Y5458713D01*
X2762250Y5454142D01*
X2771393Y5444997D01*
X2775965Y5431536D01*
X2775965Y5399531D01*
X2680461Y5493257D02*
G01*
X2748534Y5493257D01*
X2762250Y5497829D01*
X2771393Y5506973D01*
X2775965Y5520436D01*
X2775965Y5529579D01*
X2771393Y5543295D01*
X2762250Y5552439D01*
X2748534Y5556757D01*
X2680461Y5556757D01*
X2680461Y5586984D02*
G01*
X2775965Y5586984D01*
X2775965Y5586984D02*
G01*
X2775965Y5641339D01*
X2680461Y5671312D02*
G01*
X2775965Y5671312D01*
X2680461Y5671312D02*
G01*
X2680461Y5730494D01*
X2725927Y5671312D02*
G01*
X2725927Y5707887D01*
X2775965Y5671312D02*
G01*
X2775965Y5730494D01*
X1484376Y7137145D02*
G01*
X1493265Y7146289D01*
X1497837Y7160005D01*
X1497837Y7178294D01*
X1493265Y7191755D01*
X1484376Y7200900D01*
X1475231Y7200900D01*
X1466087Y7196328D01*
X1461515Y7191755D01*
X1456944Y7182612D01*
X1447800Y7155434D01*
X1443481Y7146289D01*
X1438910Y7141718D01*
X1429765Y7137145D01*
X1416050Y7137145D01*
X1406905Y7146289D01*
X1402334Y7160005D01*
X1402334Y7178294D01*
X1406905Y7191755D01*
X1416050Y7200900D01*
X1475231Y7039102D02*
G01*
X1484376Y7043673D01*
X1493265Y7052818D01*
X1497837Y7061708D01*
X1497837Y7079995D01*
X1493265Y7089139D01*
X1484376Y7098284D01*
X1475231Y7102602D01*
X1461515Y7107173D01*
X1438910Y7107173D01*
X1425194Y7102602D01*
X1416050Y7098284D01*
X1406905Y7089139D01*
X1402334Y7079995D01*
X1402334Y7061708D01*
X1406905Y7052818D01*
X1416050Y7043673D01*
X1425194Y7039102D01*
X1497837Y7009129D02*
G01*
X1402334Y7009129D01*
X1402334Y7009129D02*
G01*
X1402334Y6954520D01*
X1700276Y7124445D02*
G01*
X1709165Y7133589D01*
X1713737Y7147305D01*
X1713737Y7165594D01*
X1709165Y7179055D01*
X1700276Y7188200D01*
X1691131Y7188200D01*
X1681987Y7183628D01*
X1677415Y7179055D01*
X1672844Y7169912D01*
X1663700Y7142734D01*
X1659381Y7133589D01*
X1654810Y7129018D01*
X1645665Y7124445D01*
X1631950Y7124445D01*
X1622805Y7133589D01*
X1618234Y7147305D01*
X1618234Y7165594D01*
X1622805Y7179055D01*
X1631950Y7188200D01*
X1713737Y7094473D02*
G01*
X1618234Y7094473D01*
X1713737Y7094473D02*
G01*
X1713737Y7062723D01*
X1709165Y7049008D01*
X1700276Y7040118D01*
X1691131Y7035545D01*
X1677415Y7030973D01*
X1654810Y7030973D01*
X1641094Y7035545D01*
X1631950Y7040118D01*
X1622805Y7049008D01*
X1618234Y7062723D01*
X1618234Y7094473D01*
X1713737Y6964679D02*
G01*
X1618234Y7001002D01*
X1713737Y6964679D02*
G01*
X1618234Y6928104D01*
X1650237Y6987286D02*
G01*
X1650237Y6941820D01*
X1967738Y7200900D02*
G01*
X1872234Y7164578D01*
X1967738Y7128255D02*
G01*
X1872234Y7164578D01*
X1945131Y7029958D02*
G01*
X1954275Y7034529D01*
X1963165Y7043673D01*
X1967738Y7052818D01*
X1967738Y7070852D01*
X1963165Y7079995D01*
X1954275Y7089139D01*
X1945131Y7093712D01*
X1931415Y7098284D01*
X1908810Y7098284D01*
X1895094Y7093712D01*
X1885950Y7089139D01*
X1876805Y7079995D01*
X1872234Y7070852D01*
X1872234Y7052818D01*
X1876805Y7043673D01*
X1885950Y7034529D01*
X1895094Y7029958D01*
X1945131Y6931913D02*
G01*
X1954275Y6936231D01*
X1963165Y6945376D01*
X1967738Y6954520D01*
X1967738Y6972808D01*
X1963165Y6981697D01*
X1954275Y6990842D01*
X1945131Y6995413D01*
X1931415Y6999986D01*
X1908810Y6999986D01*
X1895094Y6995413D01*
X1885950Y6990842D01*
X1876805Y6981697D01*
X1872234Y6972808D01*
X1872234Y6954520D01*
X1876805Y6945376D01*
X1885950Y6936231D01*
X1895094Y6931913D01*
X2199131Y7132828D02*
G01*
X2208275Y7137145D01*
X2217165Y7146289D01*
X2221738Y7155434D01*
X2221738Y7173721D01*
X2217165Y7182612D01*
X2208275Y7191755D01*
X2199131Y7196328D01*
X2185415Y7200900D01*
X2162809Y7200900D01*
X2149093Y7196328D01*
X2139950Y7191755D01*
X2130806Y7182612D01*
X2126234Y7173721D01*
X2126234Y7155434D01*
X2130806Y7146289D01*
X2139950Y7137145D01*
X2149093Y7132828D01*
X2162809Y7132828D01*
X2162809Y7155434D02*
G01*
X2162809Y7132828D01*
X2221738Y7102602D02*
G01*
X2126234Y7102602D01*
X2221738Y7102602D02*
G01*
X2126234Y7039102D01*
X2221738Y7039102D02*
G01*
X2126234Y7039102D01*
X2221738Y7009129D02*
G01*
X2126234Y7009129D01*
X2221738Y7009129D02*
G01*
X2221738Y6977379D01*
X2217165Y6963663D01*
X2208275Y6954520D01*
X2199131Y6949947D01*
X2185415Y6945376D01*
X2162809Y6945376D01*
X2149093Y6949947D01*
X2139950Y6954520D01*
X2130806Y6963663D01*
X2126234Y6977379D01*
X2126234Y7009129D01*
X2694431Y3932428D02*
G01*
X2703575Y3936745D01*
X2712465Y3945889D01*
X2717038Y3955034D01*
X2717038Y3973321D01*
X2712465Y3982212D01*
X2703575Y3991355D01*
X2694431Y3995928D01*
X2680715Y4000500D01*
X2658109Y4000500D01*
X2644393Y3995928D01*
X2635250Y3991355D01*
X2626106Y3982212D01*
X2621534Y3973321D01*
X2621534Y3955034D01*
X2626106Y3945889D01*
X2635250Y3936745D01*
X2644393Y3932428D01*
X2658109Y3932428D01*
X2658109Y3955034D02*
G01*
X2658109Y3932428D01*
X2717038Y3902202D02*
G01*
X2621534Y3902202D01*
X2717038Y3902202D02*
G01*
X2621534Y3838702D01*
X2717038Y3838702D02*
G01*
X2621534Y3838702D01*
X2717038Y3808729D02*
G01*
X2621534Y3808729D01*
X2717038Y3808729D02*
G01*
X2717038Y3776979D01*
X2712465Y3763263D01*
X2703575Y3754120D01*
X2694431Y3749547D01*
X2680715Y3744976D01*
X2658109Y3744976D01*
X2644393Y3749547D01*
X2635250Y3754120D01*
X2626106Y3763263D01*
X2621534Y3776979D01*
X2621534Y3808729D01*
X2310638Y4279900D02*
G01*
X2215134Y4243578D01*
X2310638Y4207255D02*
G01*
X2215134Y4243578D01*
X2288031Y4108957D02*
G01*
X2297175Y4113529D01*
X2306065Y4122673D01*
X2310638Y4131818D01*
X2310638Y4149852D01*
X2306065Y4158995D01*
X2297175Y4168139D01*
X2288031Y4172712D01*
X2274315Y4177284D01*
X2251709Y4177284D01*
X2237993Y4172712D01*
X2228850Y4168139D01*
X2219706Y4158995D01*
X2215134Y4149852D01*
X2215134Y4131818D01*
X2219706Y4122673D01*
X2228850Y4113529D01*
X2237993Y4108957D01*
X2288031Y4010913D02*
G01*
X2297175Y4015231D01*
X2306065Y4024376D01*
X2310638Y4033520D01*
X2310638Y4051807D01*
X2306065Y4060697D01*
X2297175Y4069842D01*
X2288031Y4074413D01*
X2274315Y4078986D01*
X2251709Y4078986D01*
X2237993Y4074413D01*
X2228850Y4069842D01*
X2219706Y4060697D01*
X2215134Y4051807D01*
X2215134Y4033520D01*
X2219706Y4024376D01*
X2228850Y4015231D01*
X2237993Y4010913D01*
X2017775Y4190745D02*
G01*
X2026665Y4199889D01*
X2031238Y4213605D01*
X2031238Y4231894D01*
X2026665Y4245355D01*
X2017775Y4254500D01*
X2008631Y4254500D01*
X1999488Y4249928D01*
X1994915Y4245355D01*
X1990343Y4236212D01*
X1981200Y4209034D01*
X1976881Y4199889D01*
X1972309Y4195318D01*
X1963165Y4190745D01*
X1949450Y4190745D01*
X1940306Y4199889D01*
X1935734Y4213605D01*
X1935734Y4231894D01*
X1940306Y4245355D01*
X1949450Y4254500D01*
X2031238Y4160773D02*
G01*
X1935734Y4160773D01*
X2031238Y4160773D02*
G01*
X2031238Y4129023D01*
X2026665Y4115307D01*
X2017775Y4106418D01*
X2008631Y4101845D01*
X1994915Y4097273D01*
X1972309Y4097273D01*
X1958593Y4101845D01*
X1949450Y4106418D01*
X1940306Y4115307D01*
X1935734Y4129023D01*
X1935734Y4160773D01*
X2031238Y4030979D02*
G01*
X1935734Y4067302D01*
X2031238Y4030979D02*
G01*
X1935734Y3994404D01*
X1967738Y4053586D02*
G01*
X1967738Y4008120D01*
X1373123Y4076954D02*
G01*
X1364234Y4067810D01*
X1359662Y4054094D01*
X1359662Y4035805D01*
X1364234Y4022344D01*
X1373123Y4013200D01*
X1382268Y4013200D01*
X1391412Y4017771D01*
X1395984Y4022344D01*
X1400555Y4031487D01*
X1409700Y4058665D01*
X1414018Y4067810D01*
X1418589Y4072381D01*
X1427734Y4076954D01*
X1441450Y4076954D01*
X1450594Y4067810D01*
X1455165Y4054094D01*
X1455165Y4035805D01*
X1450594Y4022344D01*
X1441450Y4013200D01*
X1359662Y4134104D02*
G01*
X1364234Y4124960D01*
X1373123Y4115815D01*
X1382268Y4111497D01*
X1395984Y4106926D01*
X1418589Y4106926D01*
X1432305Y4111497D01*
X1441450Y4115815D01*
X1450594Y4124960D01*
X1455165Y4134104D01*
X1455165Y4152392D01*
X1450594Y4161281D01*
X1441450Y4170426D01*
X1432305Y4174997D01*
X1418589Y4179570D01*
X1395984Y4179570D01*
X1382268Y4174997D01*
X1373123Y4170426D01*
X1364234Y4161281D01*
X1359662Y4152392D01*
X1359662Y4134104D01*
X1436878Y4147820D02*
G01*
X1464055Y4174997D01*
X1359662Y4209542D02*
G01*
X1455165Y4232402D01*
X1359662Y4255007D02*
G01*
X1455165Y4232402D01*
X1359662Y4255007D02*
G01*
X1455165Y4277868D01*
X1359662Y4300473D02*
G01*
X1455165Y4277868D01*
X1676654Y4075176D02*
G01*
X1667510Y4084065D01*
X1653794Y4088637D01*
X1635505Y4088637D01*
X1622044Y4084065D01*
X1612900Y4075176D01*
X1612900Y4066031D01*
X1617471Y4056887D01*
X1622044Y4052315D01*
X1631187Y4047744D01*
X1658365Y4038600D01*
X1667510Y4034281D01*
X1672081Y4029710D01*
X1676654Y4020565D01*
X1676654Y4006850D01*
X1667510Y3997705D01*
X1653794Y3993134D01*
X1635505Y3993134D01*
X1622044Y3997705D01*
X1612900Y4006850D01*
X1774697Y4066031D02*
G01*
X1770126Y4075176D01*
X1760981Y4084065D01*
X1752092Y4088637D01*
X1733804Y4088637D01*
X1724660Y4084065D01*
X1715515Y4075176D01*
X1711197Y4066031D01*
X1706626Y4052315D01*
X1706626Y4029710D01*
X1711197Y4015994D01*
X1715515Y4006850D01*
X1724660Y3997705D01*
X1733804Y3993134D01*
X1752092Y3993134D01*
X1760981Y3997705D01*
X1770126Y4006850D01*
X1774697Y4015994D01*
X1804670Y4088637D02*
G01*
X1804670Y3993134D01*
X1804670Y3993134D02*
G01*
X1859279Y3993134D01*
X902462Y3781044D02*
G01*
X902462Y3831081D01*
X938784Y3803650D01*
X938784Y3817365D01*
X943355Y3826510D01*
X947928Y3831081D01*
X961389Y3835654D01*
X970534Y3835654D01*
X984250Y3831081D01*
X993394Y3821937D01*
X997965Y3808221D01*
X997965Y3794505D01*
X993394Y3781044D01*
X988821Y3776471D01*
X979678Y3771900D01*
X925068Y3870197D02*
G01*
X920495Y3870197D01*
X911605Y3874515D01*
X907034Y3879087D01*
X902462Y3888231D01*
X902462Y3906520D01*
X907034Y3915410D01*
X911605Y3919981D01*
X920495Y3924554D01*
X929639Y3924554D01*
X938784Y3919981D01*
X952500Y3911092D01*
X997965Y3865626D01*
X997965Y3929126D01*
X902462Y3959097D02*
G01*
X997965Y3959097D01*
X902462Y4022852D02*
G01*
X965962Y3959097D01*
X943355Y3981957D02*
G01*
X997965Y4022852D01*
D24*
X4191508Y6932421D02*
G01*
X4201922Y6937755D01*
X4212336Y6948170D01*
X4217415Y6958329D01*
X4217415Y6979158D01*
X4212336Y6989571D01*
X4201922Y6999986D01*
X4191508Y7005320D01*
X4175759Y7010400D01*
X4149852Y7010400D01*
X4134358Y7005320D01*
X4123943Y6999986D01*
X4113529Y6989571D01*
X4108450Y6979158D01*
X4108450Y6958329D01*
X4113529Y6948170D01*
X4123943Y6937755D01*
X4134358Y6932421D01*
X4196588Y6898131D02*
G01*
X4201922Y6887718D01*
X4217415Y6872223D01*
X4108450Y6872223D01*
X4214622Y6933692D02*
G01*
X4219956Y6923278D01*
X4230370Y6912863D01*
X4240529Y6907784D01*
X4261358Y6907784D01*
X4271772Y6912863D01*
X4282186Y6923278D01*
X4287520Y6933692D01*
X4292600Y6949439D01*
X4292600Y6975347D01*
X4287520Y6990842D01*
X4282186Y7001255D01*
X4271772Y7011670D01*
X4261358Y7016750D01*
X4240529Y7016750D01*
X4230370Y7011670D01*
X4219956Y7001255D01*
X4214622Y6990842D01*
X4175252Y6933692D02*
G01*
X4175252Y6928612D01*
X4169918Y6918197D01*
X4164838Y6912863D01*
X4154424Y6907784D01*
X4133595Y6907784D01*
X4123181Y6912863D01*
X4118102Y6918197D01*
X4112768Y6928612D01*
X4112768Y6939026D01*
X4118102Y6949439D01*
X4128515Y6964934D01*
X4180331Y7016750D01*
X4107688Y7016750D01*
X4202684Y6832600D02*
G01*
X4311650Y6832600D01*
X4202684Y6832600D02*
G01*
X4202684Y6868921D01*
X4207763Y6884670D01*
X4218177Y6894829D01*
X4228591Y6900163D01*
X4244340Y6905244D01*
X4270247Y6905244D01*
X4285741Y6900163D01*
X4296156Y6894829D01*
X4306570Y6884670D01*
X4311650Y6868921D01*
X4311650Y6832600D01*
X4223511Y6939534D02*
G01*
X4218177Y6949947D01*
X4202684Y6965695D01*
X4311650Y6965695D01*
X4152900Y6780784D02*
G01*
X4152900Y6889750D01*
X4080256Y6780784D02*
G01*
X4080256Y6889750D01*
X4152900Y6832600D02*
G01*
X4080256Y6832600D01*
X4045965Y6801612D02*
G01*
X4035552Y6796278D01*
X4019804Y6780784D01*
X4019804Y6889750D01*
X4025900Y6897115D02*
G01*
X4025900Y6788150D01*
X4098543Y6897115D02*
G01*
X4098543Y6788150D01*
X4025900Y6845300D02*
G01*
X4098543Y6845300D01*
X4138168Y6871208D02*
G01*
X4138168Y6876287D01*
X4143247Y6886702D01*
X4148581Y6892036D01*
X4158995Y6897115D01*
X4179570Y6897115D01*
X4189984Y6892036D01*
X4195318Y6886702D01*
X4200397Y6876287D01*
X4200397Y6865873D01*
X4195318Y6855460D01*
X4184904Y6839965D01*
X4132834Y6788150D01*
X4205731Y6788150D01*
X4217415Y7023100D02*
G01*
X4108450Y7023100D01*
X4108450Y7023100D02*
G01*
X4108450Y6960870D01*
X4217415Y6926579D02*
G01*
X4108450Y6926579D01*
X4217415Y6926579D02*
G01*
X4217415Y6859015D01*
X4165600Y6926579D02*
G01*
X4165600Y6884923D01*
X4108450Y6926579D02*
G01*
X4108450Y6859015D01*
X4217415Y6824726D02*
G01*
X4108450Y6824726D01*
X4217415Y6824726D02*
G01*
X4217415Y6788150D01*
X4212336Y6772655D01*
X4201922Y6762242D01*
X4191508Y6757162D01*
X4175759Y6751828D01*
X4149852Y6751828D01*
X4134358Y6757162D01*
X4123943Y6762242D01*
X4113529Y6772655D01*
X4108450Y6788150D01*
X4108450Y6824726D01*
X4196588Y6717537D02*
G01*
X4201922Y6707123D01*
X4217415Y6691629D01*
X4108450Y6691629D01*
X4191000Y6897115D02*
G01*
X4191000Y6788150D01*
X4191000Y6897115D02*
G01*
X4237736Y6897115D01*
X4253229Y6892036D01*
X4258563Y6886702D01*
X4263643Y6876287D01*
X4263643Y6865873D01*
X4258563Y6855460D01*
X4253229Y6850379D01*
X4237736Y6845300D01*
X4191000Y6845300D01*
X4227322Y6845300D02*
G01*
X4263643Y6788150D01*
X4297934Y6876287D02*
G01*
X4308347Y6881621D01*
X4324095Y6897115D01*
X4324095Y6788150D01*
X4051300Y6884415D02*
G01*
X4051300Y6775450D01*
X4051300Y6884415D02*
G01*
X4098036Y6884415D01*
X4113529Y6879336D01*
X4118863Y6874002D01*
X4123943Y6863587D01*
X4123943Y6853173D01*
X4118863Y6842760D01*
X4113529Y6837679D01*
X4098036Y6832600D01*
X4051300Y6832600D01*
X4087622Y6832600D02*
G01*
X4123943Y6775450D01*
X4163568Y6858508D02*
G01*
X4163568Y6863587D01*
X4168647Y6874002D01*
X4173981Y6879336D01*
X4184395Y6884415D01*
X4204970Y6884415D01*
X4215384Y6879336D01*
X4220718Y6874002D01*
X4225797Y6863587D01*
X4225797Y6853173D01*
X4220718Y6842760D01*
X4210304Y6827265D01*
X4158234Y6775450D01*
X4231131Y6775450D01*
X4164584Y6934200D02*
G01*
X4273550Y6934200D01*
X4164584Y6934200D02*
G01*
X4164584Y6980936D01*
X4169663Y6996429D01*
X4174997Y7001763D01*
X4185411Y7006844D01*
X4195825Y7006844D01*
X4206240Y7001763D01*
X4211320Y6996429D01*
X4216400Y6980936D01*
X4216400Y6934200D01*
X4216400Y6970521D02*
G01*
X4273550Y7006844D01*
X4164584Y7051547D02*
G01*
X4164584Y7108697D01*
X4206240Y7077710D01*
X4206240Y7093204D01*
X4211320Y7103618D01*
X4216400Y7108697D01*
X4232147Y7114031D01*
X4242561Y7114031D01*
X4258056Y7108697D01*
X4268470Y7098284D01*
X4273550Y7082789D01*
X4273550Y7067295D01*
X4268470Y7051547D01*
X4263390Y7046468D01*
X4252975Y7041134D01*
X4000500Y6820915D02*
G01*
X4000500Y6711950D01*
X4000500Y6820915D02*
G01*
X4047236Y6820915D01*
X4062729Y6815836D01*
X4068063Y6810502D01*
X4073143Y6800087D01*
X4073143Y6789673D01*
X4068063Y6779260D01*
X4062729Y6774179D01*
X4047236Y6769100D01*
X4000500Y6769100D01*
X4036822Y6769100D02*
G01*
X4073143Y6711950D01*
X4159504Y6820915D02*
G01*
X4107434Y6748271D01*
X4185411Y6748271D01*
X4159504Y6820915D02*
G01*
X4159504Y6711950D01*
X4200143Y6919721D02*
G01*
X4189729Y6930136D01*
X4174236Y6935215D01*
X4153408Y6935215D01*
X4137913Y6930136D01*
X4127500Y6919721D01*
X4127500Y6909308D01*
X4132579Y6898894D01*
X4137913Y6893560D01*
X4148327Y6888479D01*
X4179570Y6878065D01*
X4189729Y6872986D01*
X4195063Y6867652D01*
X4200143Y6857237D01*
X4200143Y6841744D01*
X4189729Y6831329D01*
X4174236Y6826250D01*
X4153408Y6826250D01*
X4137913Y6831329D01*
X4127500Y6841744D01*
X4234434Y6935215D02*
G01*
X4234434Y6826250D01*
X4307331Y6935215D02*
G01*
X4307331Y6826250D01*
X4234434Y6883400D02*
G01*
X4307331Y6883400D01*
X4341622Y6935215D02*
G01*
X4341622Y6826250D01*
X4341622Y6935215D02*
G01*
X4388358Y6935215D01*
X4403852Y6930136D01*
X4409186Y6924802D01*
X4414265Y6914387D01*
X4414265Y6903973D01*
X4409186Y6893560D01*
X4403852Y6888479D01*
X4388358Y6883400D01*
X4341622Y6883400D01*
X4377943Y6883400D02*
G01*
X4414265Y6826250D01*
X4484877Y6935215D02*
G01*
X4484877Y6826250D01*
X4448556Y6935215D02*
G01*
X4521200Y6935215D01*
X4555490Y6914387D02*
G01*
X4565904Y6919721D01*
X4581652Y6935215D01*
X4581652Y6826250D01*
X4098543Y6919721D02*
G01*
X4088129Y6930136D01*
X4072636Y6935215D01*
X4051808Y6935215D01*
X4036313Y6930136D01*
X4025900Y6919721D01*
X4025900Y6909308D01*
X4030979Y6898894D01*
X4036313Y6893560D01*
X4046727Y6888479D01*
X4077970Y6878065D01*
X4088129Y6872986D01*
X4093463Y6867652D01*
X4098543Y6857237D01*
X4098543Y6841744D01*
X4088129Y6831329D01*
X4072636Y6826250D01*
X4051808Y6826250D01*
X4036313Y6831329D01*
X4025900Y6841744D01*
X4132834Y6935215D02*
G01*
X4132834Y6826250D01*
X4205731Y6935215D02*
G01*
X4205731Y6826250D01*
X4132834Y6883400D02*
G01*
X4205731Y6883400D01*
X4240022Y6935215D02*
G01*
X4240022Y6826250D01*
X4240022Y6935215D02*
G01*
X4286758Y6935215D01*
X4302252Y6930136D01*
X4307586Y6924802D01*
X4312665Y6914387D01*
X4312665Y6903973D01*
X4307586Y6893560D01*
X4302252Y6888479D01*
X4286758Y6883400D01*
X4240022Y6883400D01*
X4276343Y6883400D02*
G01*
X4312665Y6826250D01*
X4383277Y6935215D02*
G01*
X4383277Y6826250D01*
X4346956Y6935215D02*
G01*
X4419600Y6935215D01*
X4459224Y6909308D02*
G01*
X4459224Y6914387D01*
X4464304Y6924802D01*
X4469638Y6930136D01*
X4480052Y6935215D01*
X4500879Y6935215D01*
X4511040Y6930136D01*
X4516374Y6924802D01*
X4521454Y6914387D01*
X4521454Y6903973D01*
X4516374Y6893560D01*
X4505959Y6878065D01*
X4453890Y6826250D01*
X4526788Y6826250D01*
X4123943Y6894321D02*
G01*
X4113529Y6904736D01*
X4098036Y6909815D01*
X4077208Y6909815D01*
X4061713Y6904736D01*
X4051300Y6894321D01*
X4051300Y6883908D01*
X4056379Y6873494D01*
X4061713Y6868160D01*
X4072127Y6863079D01*
X4103370Y6852665D01*
X4113529Y6847586D01*
X4118863Y6842252D01*
X4123943Y6831837D01*
X4123943Y6816344D01*
X4113529Y6805929D01*
X4098036Y6800850D01*
X4077208Y6800850D01*
X4061713Y6805929D01*
X4051300Y6816344D01*
X4158234Y6909815D02*
G01*
X4158234Y6800850D01*
X4231131Y6909815D02*
G01*
X4231131Y6800850D01*
X4158234Y6858000D02*
G01*
X4231131Y6858000D01*
X4265422Y6909815D02*
G01*
X4265422Y6800850D01*
X4265422Y6909815D02*
G01*
X4312158Y6909815D01*
X4327652Y6904736D01*
X4332986Y6899402D01*
X4338065Y6888987D01*
X4338065Y6878573D01*
X4332986Y6868160D01*
X4327652Y6863079D01*
X4312158Y6858000D01*
X4265422Y6858000D01*
X4301743Y6858000D02*
G01*
X4338065Y6800850D01*
X4408677Y6909815D02*
G01*
X4408677Y6800850D01*
X4372356Y6909815D02*
G01*
X4445000Y6909815D01*
X4489704Y6909815D02*
G01*
X4546854Y6909815D01*
X4515865Y6868160D01*
X4531359Y6868160D01*
X4541774Y6863079D01*
X4546854Y6858000D01*
X4552188Y6842252D01*
X4552188Y6831837D01*
X4546854Y6816344D01*
X4536440Y6805929D01*
X4520945Y6800850D01*
X4505452Y6800850D01*
X4489704Y6805929D01*
X4484624Y6811010D01*
X4479290Y6821423D01*
X3986784Y6807200D02*
G01*
X4064761Y6807200D01*
X4080256Y6812279D01*
X4090670Y6822694D01*
X4095750Y6838442D01*
X4095750Y6848855D01*
X4090670Y6864350D01*
X4080256Y6874763D01*
X4064761Y6879844D01*
X3986784Y6879844D01*
X4007611Y6914134D02*
G01*
X4002277Y6924547D01*
X3986784Y6940295D01*
X4095750Y6940295D01*
X4050284Y6896100D02*
G01*
X4128261Y6896100D01*
X4143756Y6901179D01*
X4154170Y6911594D01*
X4159250Y6927342D01*
X4159250Y6937755D01*
X4154170Y6953250D01*
X4143756Y6963663D01*
X4128261Y6968744D01*
X4050284Y6968744D01*
X4076191Y7008368D02*
G01*
X4071111Y7008368D01*
X4060697Y7013447D01*
X4055363Y7018781D01*
X4050284Y7029195D01*
X4050284Y7049770D01*
X4055363Y7060184D01*
X4060697Y7065518D01*
X4071111Y7070597D01*
X4081525Y7070597D01*
X4091940Y7065518D01*
X4107434Y7055104D01*
X4159250Y7003034D01*
X4159250Y7075931D01*
G36*
X814171Y5254802D02*
G01*
X814171Y5224322D01*
X851153Y5224322D01*
X851153Y5254802D01*
G37*
G36*
X977646Y5254802D02*
G01*
X977646Y5224322D01*
X1014628Y5224322D01*
X1014628Y5254802D01*
G37*
G36*
X2681782Y4393488D02*
G01*
X2717800Y4367530D01*
X2753817Y4392523D01*
G37*
D10*
X974402Y4635599D02*
G01*
X854400Y4635599D01*
X994402Y4840597D02*
G01*
X994402Y4940599D01*
X834397Y4840597D02*
G01*
X834397Y4940599D01*
X994402Y4760589D02*
G01*
X994402Y4660600D01*
X834397Y4760589D02*
G01*
X834397Y4660600D01*
X974402Y4965600D02*
G01*
X854400Y4965600D01*
X994402Y4945600D02*
G01*
X994402Y4940599D01*
X834397Y4945598D02*
G01*
X834397Y4940599D01*
X994402Y4655599D02*
G01*
X994402Y4660600D01*
X834397Y4655601D02*
G01*
X834397Y4660600D01*
X800199Y4296097D02*
G01*
X800199Y4416099D01*
X1005197Y4276097D02*
G01*
X1105199Y4276097D01*
X1005197Y4436102D02*
G01*
X1105199Y4436102D01*
X925189Y4276097D02*
G01*
X825200Y4276097D01*
X925189Y4436102D02*
G01*
X825200Y4436102D01*
X1130200Y4296097D02*
G01*
X1130200Y4416099D01*
X1110200Y4276097D02*
G01*
X1105199Y4276097D01*
X1110198Y4436102D02*
G01*
X1105199Y4436102D01*
X820199Y4276097D02*
G01*
X825200Y4276097D01*
X820201Y4436102D02*
G01*
X825200Y4436102D01*
D24*
X821778Y5247180D02*
G01*
X821778Y5522419D01*
X821778Y5522419D02*
G01*
X846079Y5522419D01*
X1007021Y5247180D02*
G01*
X1007021Y5522419D01*
X1007021Y5522419D02*
G01*
X982720Y5522419D01*
X821778Y5288119D02*
G01*
X1007021Y5288119D01*
D10*
X1274399Y7239000D02*
G01*
X1274399Y7493000D01*
X2332400Y7239000D02*
G01*
X1274399Y7239000D01*
X2055047Y7239000D02*
G01*
X2055047Y7493000D01*
X2332400Y7493000D02*
G01*
X1274399Y7493000D01*
X2332400Y7239000D02*
G01*
X2332400Y7493000D01*
D25*
X1244600Y3975100D02*
G01*
X1054100Y3975100D01*
X1054100Y3721100D01*
X2578100Y3721100D01*
X2578100Y3975100D01*
D26*
X2578100Y3975100D02*
G01*
X1244600Y3975100D01*
D27*
X2790799Y4344499D02*
G01*
X2790799Y4229501D01*
X2645801Y4229501D01*
X2645801Y4349501D01*
X2644800Y4411499D02*
G01*
X2644800Y4535500D01*
X2789798Y4535500D01*
X2789798Y4411499D01*
X2790799Y4229501D02*
G01*
X2790799Y4226499D01*
X2770799Y4206499D01*
X2668800Y4206499D01*
X2665801Y4209501D01*
X2645801Y4229501D01*
D10*
X1828800Y6286500D02*
G01*
X2188799Y6286500D01*
X2188799Y5986500D01*
X1828800Y5986500D01*
X1828800Y6286500D01*
X2374900Y6286500D02*
G01*
X2734899Y6286500D01*
X2734899Y5986500D01*
X2374900Y5986500D01*
X2374900Y6286500D01*
X847097Y5763204D02*
G01*
X1007102Y5763204D01*
X1006591Y5948265D02*
G01*
X1006591Y6073261D01*
X846587Y5948265D02*
G01*
X846587Y6073261D01*
X1007102Y5888207D02*
G01*
X1007102Y5763204D01*
X847097Y5888207D02*
G01*
X847097Y5763204D01*
X846587Y6073261D02*
G01*
X1006591Y6073261D01*
X1597604Y4271002D02*
G01*
X1597604Y4110997D01*
X1782665Y4111508D02*
G01*
X1907661Y4111508D01*
X1782665Y4271512D02*
G01*
X1907661Y4271512D01*
X1722607Y4110997D02*
G01*
X1597604Y4110997D01*
X1722607Y4271002D02*
G01*
X1597604Y4271002D01*
X1907661Y4271512D02*
G01*
X1907661Y4111508D01*
X2771195Y6993897D02*
G01*
X2771195Y7153902D01*
X2586134Y7153391D02*
G01*
X2461138Y7153391D01*
X2586134Y6993387D02*
G01*
X2461138Y6993387D01*
X2646192Y7153902D02*
G01*
X2771195Y7153902D01*
X2646192Y6993897D02*
G01*
X2771195Y6993897D01*
X2461138Y6993387D02*
G01*
X2461138Y7153391D01*
X2461204Y6912602D02*
G01*
X2461204Y6752597D01*
X2646265Y6753108D02*
G01*
X2771261Y6753108D01*
X2646265Y6913112D02*
G01*
X2771261Y6913112D01*
X2586207Y6752597D02*
G01*
X2461204Y6752597D01*
X2586207Y6912602D02*
G01*
X2461204Y6912602D01*
X2771261Y6913112D02*
G01*
X2771261Y6753108D01*
X2461204Y6684002D02*
G01*
X2461204Y6523997D01*
X2646265Y6524508D02*
G01*
X2771261Y6524508D01*
X2646265Y6684512D02*
G01*
X2771261Y6684512D01*
X2586207Y6523997D02*
G01*
X2461204Y6523997D01*
X2586207Y6684002D02*
G01*
X2461204Y6684002D01*
X2771261Y6684512D02*
G01*
X2771261Y6524508D01*
D24*
X2186340Y4798679D02*
G01*
X1522059Y4798679D01*
X1522059Y5843920D01*
X2186340Y5843920D01*
X2186340Y4798679D01*
X1358640Y6478379D02*
G01*
X1054359Y6478379D01*
X1054359Y6983620D01*
X1358640Y6983620D01*
X1358640Y6478379D01*
D10*
G75*
G01*
X974402Y4965601D02*
G02*
X994402Y4945601I0J-20000D01*
G75*
G01*
X854400Y4965601D02*
G03*
X834398Y4945598I0J-20003D01*
G75*
G01*
X974402Y4635599D02*
G03*
X994402Y4655599I0J20000D01*
G75*
G01*
X854400Y4635599D02*
G02*
X834398Y4655602I0J20003D01*
G75*
G01*
X1130201Y4296098D02*
G02*
X1110201Y4276098I-20000J0D01*
G75*
G01*
X1130201Y4416100D02*
G03*
X1110198Y4436102I-20003J0D01*
G75*
G01*
X800199Y4296098D02*
G03*
X820199Y4276098I20000J0D01*
G75*
G01*
X800199Y4416100D02*
G02*
X820202Y4436102I20003J0D01*
D28*
G75*
G01
X2126107Y4876800D02*
G03X2126107Y4876800I-15011J0D01*
G75*
G01
X2344242Y4802861D02*
G03X2344242Y4802861I-15011J0D01*
G75*
G01
X1298423Y6540500D02*
G03X1298423Y6540500I-15011J0D01*
G75*
G01
X1498295Y6466561D02*
G03X1498295Y6466561I-15011J0D01*
M02*
