G04 ================== begin FILE IDENTIFICATION RECORD ==================*
G04 Layout Name:  PC-1160-P-R1 GANGES RTC CARD PCB.brd*
G04 Film Name:    SSB*
G04 File Format:  Gerber RS274X*
G04 File Origin:  Cadence Allegro 17.2-S081*
G04 Origin Date:  Thu Nov 09 14:27:41 2023*
G04 *
G04 Layer:  MANUFACTURING/PHOTOPLOT_OUTLINE*
G04 Layer:  BOARD GEOMETRY/DESIGN_OUTLINE*
G04 Layer:  REF DES/SILKSCREEN_BOTTOM*
G04 Layer:  PACKAGE GEOMETRY/SILKSCREEN_BOTTOM*
G04 Layer:  BOARD GEOMETRY/SILKSCREEN_BOTTOM*
G04 Layer:  BOARD GEOMETRY/OUTLINE*
G04 *
G04 Offset:    (0.000 0.000)*
G04 Mirror:    No*
G04 Mode:      Positive*
G04 Rotation:  0*
G04 FullContactRelief:  No*
G04 UndefLineWidth:     10.000*
G04 ================== end FILE IDENTIFICATION RECORD ====================*
%FSLAX25Y25*MOIN*%
%IR0*IPPOS*OFA0.00000B0.00000*MIA0B0*SFA1.00000B1.00000*%
%ADD10C,.005*%
%ADD11C,.00787*%
%ADD12C,.012*%
%ADD13C,.01*%
G75*
%LPD*%
G75*
G54D10*
G01X56177Y82127D02*
Y93939D01*
G01X67989Y82127D02*
Y93939D01*
G01X132134Y81627D02*
Y93439D01*
G01X143946Y81627D02*
Y93439D01*
G54D11*
G01X67398Y74253D02*
G03I-394J0D01*
G01X143355Y73753D02*
G03I-394J0D01*
G54D12*
G01X10658Y29385D02*
X10366Y28885D01*
X10016Y28552D01*
X9608Y28385D01*
X9142Y28552D01*
X8792Y28885D01*
X8442Y29385D01*
X8325Y30051D01*
Y33385D01*
G01X5108Y28385D02*
X4992Y29468D01*
X4816Y30385D01*
X4583Y31218D01*
X4292Y32135D01*
X3825Y33385D01*
X6158D01*
G01X6081Y75177D02*
X6431Y75427D01*
X6840Y75594D01*
X7306D01*
X7831Y75344D01*
X8240Y74927D01*
X8531Y74427D01*
X8765Y73594D01*
X8823Y72844D01*
X8706Y72094D01*
X8531Y71594D01*
X8181Y71094D01*
X7773Y70760D01*
X7365Y70594D01*
X6956D01*
X6548Y70760D01*
X6198Y71010D01*
X5906Y71343D01*
G01X2865Y70594D02*
Y75594D01*
X3565Y74594D01*
G01Y70594D02*
X2165D01*
G01X12620Y43469D02*
Y38469D01*
X11920Y39469D01*
G01Y43469D02*
X13320D01*
G01X48198Y33112D02*
X48548Y33362D01*
X48956Y33529D01*
X49422D01*
X49948Y33279D01*
X50356Y32862D01*
X50648Y32362D01*
X50881Y31529D01*
X50939Y30779D01*
X50823Y30029D01*
X50648Y29529D01*
X50298Y29029D01*
X49889Y28695D01*
X49481Y28529D01*
X49073D01*
X48664Y28695D01*
X48314Y28945D01*
X48022Y29278D01*
G01X46264Y29529D02*
X45914Y28945D01*
X45448Y28612D01*
X44923Y28529D01*
X44456Y28612D01*
X43989Y29029D01*
X43698Y29529D01*
X43639Y30029D01*
X43756Y30612D01*
X44164Y31029D01*
X44573Y31195D01*
X45098D01*
G01X44573D02*
X44223Y31445D01*
X43931Y31862D01*
X43814Y32362D01*
X43931Y32862D01*
X44223Y33279D01*
X44748Y33529D01*
X45273Y33445D01*
X45798Y33112D01*
G01X68517Y64128D02*
Y69128D01*
X67059D01*
X66592Y68878D01*
X66300Y68545D01*
X66184Y67878D01*
X66300Y67212D01*
X66650Y66795D01*
X67059Y66545D01*
X68517D01*
G01X67059D02*
X66184Y64128D01*
G01X64134Y64878D02*
X63784Y64462D01*
X63375Y64212D01*
X62851Y64128D01*
X62326Y64295D01*
X61917Y64628D01*
X61626Y65212D01*
X61567Y65878D01*
X61684Y66545D01*
X61976Y66962D01*
X62384Y67295D01*
X62792Y67378D01*
X63201Y67295D01*
X63726Y66962D01*
X63550Y69128D01*
X61976D01*
G01X45878Y61176D02*
Y66176D01*
X44420D01*
X43953Y65926D01*
X43662Y65592D01*
X43545Y64926D01*
X43662Y64259D01*
X44012Y63842D01*
X44420Y63592D01*
X45878D01*
G01X44420D02*
X43545Y61176D01*
G01X41320Y63259D02*
X40912Y63842D01*
X40562Y64176D01*
X40095Y64342D01*
X39687Y64176D01*
X39395Y63842D01*
X39162Y63342D01*
X39103Y62759D01*
X39162Y62259D01*
X39395Y61759D01*
X39745Y61342D01*
X40153Y61176D01*
X40620Y61342D01*
X41028Y61842D01*
X41262Y62592D01*
X41320Y63426D01*
X41203Y64509D01*
X41028Y65092D01*
X40737Y65676D01*
X40328Y66092D01*
X39920Y66176D01*
X39512Y66009D01*
X39220Y65592D01*
G01X40055Y106982D02*
X40405Y107232D01*
X40813Y107399D01*
X41280D01*
X41805Y107148D01*
X42213Y106732D01*
X42505Y106232D01*
X42738Y105399D01*
X42796Y104649D01*
X42680Y103899D01*
X42505Y103398D01*
X42155Y102898D01*
X41746Y102565D01*
X41338Y102399D01*
X40930D01*
X40521Y102565D01*
X40171Y102815D01*
X39880Y103148D01*
G01X37946Y106565D02*
X37596Y107065D01*
X37188Y107315D01*
X36721Y107399D01*
X36138Y107232D01*
X35730Y106815D01*
X35613Y106315D01*
X35671Y105815D01*
X35905Y105399D01*
X37071Y104565D01*
X37596Y103982D01*
X37946Y103148D01*
X38063Y102399D01*
X35613D01*
G01X102134Y63980D02*
Y68980D01*
X100617Y64813D01*
X99100Y68980D01*
Y63980D01*
G01X96117D02*
X96584Y64063D01*
X96992Y64396D01*
X97342Y64896D01*
X97576Y65480D01*
X97692Y66146D01*
Y66813D01*
X97576Y67479D01*
X97342Y68063D01*
X96992Y68563D01*
X96584Y68896D01*
X96117Y68980D01*
X95651Y68896D01*
X95242Y68563D01*
X94892Y68063D01*
X94659Y67479D01*
X94542Y66813D01*
Y66146D01*
X94659Y65480D01*
X94892Y64896D01*
X95242Y64396D01*
X95651Y64063D01*
X96117Y63980D01*
G01X91617Y68980D02*
Y63980D01*
G01X92959Y68980D02*
X90276D01*
G01X87117Y63980D02*
X87584Y64063D01*
X87992Y64396D01*
X88342Y64896D01*
X88576Y65480D01*
X88692Y66146D01*
Y66813D01*
X88576Y67479D01*
X88342Y68063D01*
X87992Y68563D01*
X87584Y68896D01*
X87117Y68980D01*
X86651Y68896D01*
X86242Y68563D01*
X85892Y68063D01*
X85659Y67479D01*
X85542Y66813D01*
Y66146D01*
X85659Y65480D01*
X85892Y64896D01*
X86242Y64396D01*
X86651Y64063D01*
X87117Y63980D01*
G01X83784D02*
Y68980D01*
X82326D01*
X81859Y68729D01*
X81567Y68396D01*
X81450Y67730D01*
X81567Y67063D01*
X81917Y66646D01*
X82326Y66396D01*
X83784D01*
G01X82326D02*
X81450Y63980D01*
G01X78876Y65646D02*
X77359D01*
G01X73151Y66646D02*
X72917Y66896D01*
X72742Y67313D01*
X72626Y67896D01*
X72742Y68396D01*
X72976Y68729D01*
X73384Y68980D01*
X74959D01*
Y63980D01*
X73034D01*
X72626Y64313D01*
X72392Y64813D01*
X72276Y65396D01*
X72392Y65979D01*
X72742Y66479D01*
X73151Y66646D01*
X74959D01*
G01X79056Y81861D02*
Y78278D01*
X78823Y77527D01*
X78356Y77027D01*
X77773Y76861D01*
X77190Y77027D01*
X76723Y77527D01*
X76490Y78278D01*
Y81861D01*
G01X73273Y76861D02*
Y81861D01*
X73973Y80861D01*
G01Y76861D02*
X72573D01*
G01X103120Y43969D02*
Y38969D01*
X102420Y39969D01*
G01Y43969D02*
X103820D01*
G01X101793Y43665D02*
X102201Y43582D01*
X102668Y43332D01*
X102960Y42915D01*
X103076Y42332D01*
X102960Y41748D01*
X102610Y41248D01*
X102085Y40998D01*
X101501D01*
X101151Y40832D01*
X100860Y40415D01*
X100743Y39832D01*
X100918Y39248D01*
X101326Y38832D01*
X101793Y38665D01*
X102260Y38832D01*
X102668Y39248D01*
X102843Y39832D01*
X102726Y40415D01*
X102435Y40832D01*
X102085Y40998D01*
X101501D01*
X100976Y41248D01*
X100626Y41748D01*
X100510Y42332D01*
X100626Y42915D01*
X100918Y43332D01*
X101385Y43582D01*
X101793Y43665D01*
G01X122514Y64214D02*
Y69214D01*
X121056D01*
X120589Y68964D01*
X120297Y68630D01*
X120180Y67964D01*
X120297Y67297D01*
X120647Y66880D01*
X121056Y66630D01*
X122514D01*
G01X121056D02*
X120180Y64214D01*
G01X117956Y68380D02*
X117606Y68880D01*
X117197Y69130D01*
X116730Y69214D01*
X116147Y69047D01*
X115739Y68630D01*
X115622Y68130D01*
X115681Y67630D01*
X115914Y67214D01*
X117081Y66380D01*
X117606Y65797D01*
X117956Y64964D01*
X118072Y64214D01*
X115622D01*
G01X113081Y58414D02*
X112789Y57914D01*
X112439Y57580D01*
X112031Y57414D01*
X111564Y57580D01*
X111214Y57914D01*
X110864Y58414D01*
X110748Y59080D01*
Y62414D01*
G01X108406Y57997D02*
X107998Y57580D01*
X107531Y57414D01*
X107064Y57580D01*
X106656Y58080D01*
X106364Y58831D01*
X106248Y59581D01*
Y60497D01*
X106364Y61247D01*
X106656Y61914D01*
X107006Y62247D01*
X107414Y62414D01*
X107881Y62247D01*
X108231Y61914D01*
X108464Y61414D01*
X108581Y60747D01*
X108464Y60164D01*
X108173Y59581D01*
X107823Y59247D01*
X107414Y59164D01*
X106948Y59330D01*
X106598Y59747D01*
X106248Y60497D01*
G01X113513Y93485D02*
X113863Y93735D01*
X114271Y93902D01*
X114738D01*
X115263Y93652D01*
X115671Y93235D01*
X115963Y92735D01*
X116196Y91902D01*
X116255Y91152D01*
X116138Y90402D01*
X115963Y89902D01*
X115613Y89402D01*
X115205Y89069D01*
X114796Y88902D01*
X114388D01*
X113980Y89069D01*
X113630Y89319D01*
X113338Y89652D01*
G01X109596Y88902D02*
Y93902D01*
X111755Y90319D01*
X108838D01*
G01X183831Y60042D02*
Y65042D01*
X182314Y60876D01*
X180797Y65042D01*
Y60042D01*
G01X177814D02*
X178281Y60126D01*
X178689Y60459D01*
X179039Y60959D01*
X179272Y61542D01*
X179389Y62209D01*
Y62876D01*
X179272Y63542D01*
X179039Y64126D01*
X178689Y64626D01*
X178281Y64959D01*
X177814Y65042D01*
X177348Y64959D01*
X176939Y64626D01*
X176589Y64126D01*
X176356Y63542D01*
X176239Y62876D01*
Y62209D01*
X176356Y61542D01*
X176589Y60959D01*
X176939Y60459D01*
X177348Y60126D01*
X177814Y60042D01*
G01X173314Y65042D02*
Y60042D01*
G01X174656Y65042D02*
X171972D01*
G01X168814Y60042D02*
X169281Y60126D01*
X169689Y60459D01*
X170039Y60959D01*
X170272Y61542D01*
X170389Y62209D01*
Y62876D01*
X170272Y63542D01*
X170039Y64126D01*
X169689Y64626D01*
X169281Y64959D01*
X168814Y65042D01*
X168348Y64959D01*
X167939Y64626D01*
X167589Y64126D01*
X167356Y63542D01*
X167239Y62876D01*
Y62209D01*
X167356Y61542D01*
X167589Y60959D01*
X167939Y60459D01*
X168348Y60126D01*
X168814Y60042D01*
G01X165481D02*
Y65042D01*
X164022D01*
X163556Y64792D01*
X163264Y64459D01*
X163147Y63792D01*
X163264Y63126D01*
X163614Y62709D01*
X164022Y62459D01*
X165481D01*
G01X164022D02*
X163147Y60042D01*
G01X160572Y61709D02*
X159056D01*
G01X156772Y60042D02*
X155314Y65042D01*
X153856Y60042D01*
G01X154381Y61792D02*
X156247D01*
G01X147875Y64201D02*
Y69201D01*
X146417D01*
X145950Y68951D01*
X145659Y68617D01*
X145542Y67951D01*
X145659Y67284D01*
X146009Y66868D01*
X146417Y66617D01*
X147875D01*
G01X146417D02*
X145542Y64201D01*
G01X143492Y65201D02*
X143142Y64617D01*
X142675Y64284D01*
X142150Y64201D01*
X141684Y64284D01*
X141217Y64701D01*
X140925Y65201D01*
X140867Y65701D01*
X140984Y66284D01*
X141392Y66701D01*
X141800Y66868D01*
X142325D01*
G01X141800D02*
X141450Y67118D01*
X141159Y67534D01*
X141042Y68034D01*
X141159Y68534D01*
X141450Y68951D01*
X141975Y69201D01*
X142500Y69118D01*
X143025Y68784D01*
G01X156337Y84481D02*
Y80897D01*
X156104Y80147D01*
X155637Y79647D01*
X155054Y79481D01*
X154470Y79647D01*
X154004Y80147D01*
X153770Y80897D01*
Y84481D01*
G01X151662Y83647D02*
X151312Y84147D01*
X150904Y84397D01*
X150437Y84481D01*
X149854Y84314D01*
X149445Y83897D01*
X149329Y83397D01*
X149387Y82897D01*
X149620Y82481D01*
X150787Y81647D01*
X151312Y81064D01*
X151662Y80230D01*
X151779Y79481D01*
X149329D01*
G01X197160Y12976D02*
X196752Y13060D01*
X196285Y13310D01*
X195993Y13726D01*
X195877Y14310D01*
X195993Y14893D01*
X196343Y15393D01*
X196868Y15643D01*
X197452D01*
X197802Y15810D01*
X198093Y16226D01*
X198210Y16810D01*
X198035Y17393D01*
X197627Y17810D01*
X197160Y17976D01*
X196693Y17810D01*
X196285Y17393D01*
X196110Y16810D01*
X196227Y16226D01*
X196518Y15810D01*
X196868Y15643D01*
X197452D01*
X197977Y15393D01*
X198327Y14893D01*
X198443Y14310D01*
X198327Y13726D01*
X198035Y13310D01*
X197568Y13060D01*
X197160Y12976D01*
G01X192293Y44165D02*
X192701Y44082D01*
X193168Y43832D01*
X193460Y43415D01*
X193576Y42832D01*
X193460Y42248D01*
X193110Y41748D01*
X192585Y41498D01*
X192001D01*
X191651Y41332D01*
X191360Y40915D01*
X191243Y40332D01*
X191418Y39748D01*
X191826Y39332D01*
X192293Y39165D01*
X192760Y39332D01*
X193168Y39748D01*
X193343Y40332D01*
X193226Y40915D01*
X192935Y41332D01*
X192585Y41498D01*
X192001D01*
X191476Y41748D01*
X191126Y42248D01*
X191010Y42832D01*
X191126Y43415D01*
X191418Y43832D01*
X191885Y44082D01*
X192293Y44165D01*
G01X212707Y93400D02*
Y98400D01*
X211249D01*
X210782Y98150D01*
X210490Y97817D01*
X210374Y97150D01*
X210490Y96483D01*
X210840Y96067D01*
X211249Y95817D01*
X212707D01*
G01X211249D02*
X210374Y93400D01*
G01X207040D02*
Y98400D01*
X207740Y97400D01*
G01Y93400D02*
X206340D01*
G01X202540D02*
Y98400D01*
X203240Y97400D01*
G01Y93400D02*
X201840D01*
G01X214287Y80518D02*
Y85518D01*
X212828D01*
X212362Y85268D01*
X212070Y84935D01*
X211953Y84268D01*
X212070Y83601D01*
X212420Y83185D01*
X212828Y82935D01*
X214287D01*
G01X212828D02*
X211953Y80518D01*
G01X208620D02*
Y85518D01*
X209320Y84518D01*
G01Y80518D02*
X207920D01*
G01X204120Y85518D02*
X204587Y85352D01*
X204937Y84935D01*
X205170Y84435D01*
X205345Y83768D01*
X205403Y83018D01*
X205345Y82268D01*
X205170Y81601D01*
X204937Y81101D01*
X204587Y80685D01*
X204120Y80518D01*
X203654Y80685D01*
X203303Y81101D01*
X203070Y81601D01*
X202895Y82268D01*
X202837Y83018D01*
X202895Y83768D01*
X203070Y84435D01*
X203303Y84935D01*
X203654Y85352D01*
X204120Y85518D01*
G01X222469Y61127D02*
Y66127D01*
X221010D01*
X220544Y65877D01*
X220252Y65544D01*
X220135Y64877D01*
X220252Y64211D01*
X220602Y63794D01*
X221010Y63544D01*
X222469D01*
G01X221010D02*
X220135Y61127D01*
G01X217794Y61710D02*
X217385Y61294D01*
X216919Y61127D01*
X216452Y61294D01*
X216044Y61794D01*
X215752Y62544D01*
X215635Y63294D01*
Y64211D01*
X215752Y64960D01*
X216044Y65627D01*
X216394Y65961D01*
X216802Y66127D01*
X217269Y65961D01*
X217619Y65627D01*
X217852Y65127D01*
X217969Y64460D01*
X217852Y63877D01*
X217560Y63294D01*
X217210Y62960D01*
X216802Y62877D01*
X216335Y63044D01*
X215985Y63461D01*
X215635Y64211D01*
G01X250626Y57576D02*
Y62576D01*
X249167D01*
X248701Y62326D01*
X248409Y61993D01*
X248292Y61326D01*
X248409Y60659D01*
X248759Y60243D01*
X249167Y59993D01*
X250626D01*
G01X249167D02*
X248292Y57576D01*
G01X245076D02*
X244959Y58659D01*
X244784Y59576D01*
X244551Y60409D01*
X244259Y61326D01*
X243792Y62576D01*
X246126D01*
G01X237228Y77660D02*
Y82660D01*
X235770D01*
X235303Y82410D01*
X235012Y82076D01*
X234895Y81410D01*
X235012Y80743D01*
X235362Y80326D01*
X235770Y80076D01*
X237228D01*
G01X235770D02*
X234895Y77660D01*
G01X231562D02*
X231154Y77743D01*
X230687Y77993D01*
X230395Y78410D01*
X230278Y78993D01*
X230395Y79576D01*
X230745Y80076D01*
X231270Y80326D01*
X231853D01*
X232204Y80493D01*
X232495Y80910D01*
X232612Y81493D01*
X232437Y82076D01*
X232028Y82493D01*
X231562Y82660D01*
X231095Y82493D01*
X230687Y82076D01*
X230512Y81493D01*
X230628Y80910D01*
X230920Y80493D01*
X231270Y80326D01*
X231853D01*
X232378Y80076D01*
X232728Y79576D01*
X232845Y78993D01*
X232728Y78410D01*
X232437Y77993D01*
X231970Y77743D01*
X231562Y77660D01*
G01X226326Y112976D02*
X226676Y113226D01*
X227085Y113393D01*
X227551D01*
X228076Y113143D01*
X228485Y112726D01*
X228776Y112226D01*
X229010Y111393D01*
X229068Y110643D01*
X228951Y109893D01*
X228776Y109393D01*
X228426Y108893D01*
X228018Y108560D01*
X227610Y108393D01*
X227202D01*
X226793Y108560D01*
X226443Y108810D01*
X226151Y109143D01*
G01X223226Y108393D02*
X223110Y109476D01*
X222935Y110393D01*
X222701Y111226D01*
X222410Y112143D01*
X221943Y113393D01*
X224276D01*
G01X250079Y109993D02*
Y106410D01*
X249846Y105659D01*
X249380Y105160D01*
X248796Y104993D01*
X248213Y105160D01*
X247746Y105659D01*
X247513Y106410D01*
Y109993D01*
G01X245579Y105993D02*
X245230Y105410D01*
X244763Y105076D01*
X244238Y104993D01*
X243771Y105076D01*
X243304Y105493D01*
X243013Y105993D01*
X242954Y106493D01*
X243071Y107076D01*
X243479Y107493D01*
X243888Y107660D01*
X244413D01*
G01X243888D02*
X243538Y107910D01*
X243246Y108326D01*
X243129Y108826D01*
X243246Y109326D01*
X243538Y109743D01*
X244063Y109993D01*
X244588Y109910D01*
X245113Y109576D01*
G01X261241Y33466D02*
Y38466D01*
X259782D01*
X259316Y38216D01*
X259024Y37883D01*
X258907Y37216D01*
X259024Y36550D01*
X259374Y36133D01*
X259782Y35883D01*
X261241D01*
G01X259782D02*
X258907Y33466D01*
G01X255574Y38466D02*
Y33466D01*
G01X256915Y38466D02*
X254232D01*
G01X249791Y38050D02*
X250140Y38300D01*
X250549Y38466D01*
X251015D01*
X251541Y38216D01*
X251949Y37800D01*
X252241Y37300D01*
X252474Y36466D01*
X252532Y35716D01*
X252415Y34966D01*
X252241Y34466D01*
X251891Y33966D01*
X251482Y33633D01*
X251074Y33466D01*
X250666D01*
X250257Y33633D01*
X249907Y33883D01*
X249615Y34216D01*
G01X265101Y79119D02*
X265451Y79369D01*
X265859Y79536D01*
X266326D01*
X266851Y79286D01*
X267259Y78869D01*
X267551Y78369D01*
X267784Y77536D01*
X267842Y76786D01*
X267726Y76036D01*
X267551Y75536D01*
X267201Y75036D01*
X266792Y74702D01*
X266384Y74536D01*
X265976D01*
X265567Y74702D01*
X265217Y74952D01*
X264926Y75286D01*
G01X263167D02*
X262817Y74869D01*
X262409Y74619D01*
X261884Y74536D01*
X261359Y74702D01*
X260951Y75036D01*
X260659Y75619D01*
X260601Y76286D01*
X260717Y76952D01*
X261009Y77369D01*
X261417Y77702D01*
X261826Y77786D01*
X262234Y77702D01*
X262759Y77369D01*
X262584Y79536D01*
X261009D01*
G01X264590Y113049D02*
Y115299D01*
X265756Y118049D01*
G01X263423D02*
X264590Y115299D01*
G01X260090Y113049D02*
Y118049D01*
X260789Y117049D01*
G01Y113049D02*
X259389D01*
G01X297259Y31097D02*
X302259D01*
Y32497D01*
X302008Y32963D01*
X301425Y33313D01*
X300759Y33430D01*
X300092Y33313D01*
X299592Y33022D01*
X299342Y32497D01*
Y31097D01*
G01X301842Y38047D02*
X302092Y37697D01*
X302259Y37288D01*
Y36822D01*
X302008Y36297D01*
X301592Y35888D01*
X301092Y35597D01*
X300259Y35363D01*
X299509Y35305D01*
X298759Y35422D01*
X298258Y35597D01*
X297758Y35947D01*
X297425Y36355D01*
X297259Y36763D01*
Y37172D01*
X297425Y37580D01*
X297675Y37930D01*
X298008Y38222D01*
G01X298925Y40505D02*
Y42022D01*
G01X297259Y45763D02*
X302259D01*
X301259Y45063D01*
G01X297259D02*
Y46463D01*
G01Y50263D02*
X302259D01*
X301259Y49563D01*
G01X297259D02*
Y50963D01*
G01X299342Y53655D02*
X299925Y54063D01*
X300259Y54413D01*
X300425Y54880D01*
X300259Y55288D01*
X299925Y55580D01*
X299425Y55813D01*
X298842Y55872D01*
X298342Y55813D01*
X297842Y55580D01*
X297425Y55230D01*
X297259Y54822D01*
X297425Y54355D01*
X297925Y53947D01*
X298675Y53713D01*
X299509Y53655D01*
X300592Y53772D01*
X301175Y53947D01*
X301759Y54238D01*
X302175Y54647D01*
X302259Y55055D01*
X302092Y55463D01*
X301675Y55755D01*
G01X302259Y59263D02*
X302092Y58797D01*
X301675Y58447D01*
X301175Y58213D01*
X300508Y58038D01*
X299758Y57980D01*
X299008Y58038D01*
X298342Y58213D01*
X297842Y58447D01*
X297425Y58797D01*
X297259Y59263D01*
X297425Y59730D01*
X297842Y60080D01*
X298342Y60313D01*
X299008Y60488D01*
X299758Y60547D01*
X300508Y60488D01*
X301175Y60313D01*
X301675Y60080D01*
X302092Y59730D01*
X302259Y59263D01*
G01X298925Y63005D02*
Y64522D01*
G01X297259Y67097D02*
X302259D01*
Y68497D01*
X302008Y68963D01*
X301425Y69313D01*
X300759Y69430D01*
X300092Y69313D01*
X299592Y69022D01*
X299342Y68497D01*
Y67097D01*
G01X298925Y72005D02*
Y73522D01*
G01X297259Y76097D02*
X302259D01*
Y77555D01*
X302008Y78022D01*
X301675Y78313D01*
X301009Y78430D01*
X300342Y78313D01*
X299925Y77963D01*
X299675Y77555D01*
Y76097D01*
G01Y77555D02*
X297259Y78430D01*
G01Y81763D02*
X302259D01*
X301259Y81063D01*
G01X297259D02*
Y82463D01*
G01X286333Y13172D02*
Y18172D01*
X287033Y17172D01*
G01Y13172D02*
X285633D01*
G01X291894Y30905D02*
X291602Y30405D01*
X291252Y30072D01*
X290844Y29905D01*
X290377Y30072D01*
X290027Y30405D01*
X289677Y30905D01*
X289560Y31572D01*
Y34905D01*
G01X287335Y31989D02*
X286927Y32572D01*
X286577Y32905D01*
X286110Y33072D01*
X285702Y32905D01*
X285410Y32572D01*
X285177Y32072D01*
X285119Y31489D01*
X285177Y30989D01*
X285410Y30489D01*
X285760Y30072D01*
X286169Y29905D01*
X286635Y30072D01*
X287044Y30572D01*
X287277Y31322D01*
X287335Y32155D01*
X287219Y33239D01*
X287044Y33822D01*
X286752Y34405D01*
X286344Y34822D01*
X285935Y34905D01*
X285527Y34739D01*
X285235Y34322D01*
G01X294430Y88528D02*
X294780Y88778D01*
X295189Y88945D01*
X295655D01*
X296180Y88695D01*
X296589Y88278D01*
X296880Y87778D01*
X297114Y86945D01*
X297172Y86195D01*
X297055Y85445D01*
X296880Y84945D01*
X296530Y84445D01*
X296122Y84112D01*
X295714Y83945D01*
X295305D01*
X294897Y84112D01*
X294547Y84362D01*
X294255Y84695D01*
G01X292322Y86028D02*
X291914Y86612D01*
X291564Y86945D01*
X291097Y87112D01*
X290689Y86945D01*
X290397Y86612D01*
X290164Y86112D01*
X290105Y85528D01*
X290164Y85028D01*
X290397Y84528D01*
X290747Y84112D01*
X291155Y83945D01*
X291622Y84112D01*
X292030Y84611D01*
X292264Y85362D01*
X292322Y86195D01*
X292205Y87278D01*
X292030Y87862D01*
X291739Y88445D01*
X291330Y88862D01*
X290922Y88945D01*
X290514Y88778D01*
X290222Y88362D01*
G01X296400Y116074D02*
X296750Y116324D01*
X297158Y116491D01*
X297625D01*
X298150Y116240D01*
X298558Y115824D01*
X298850Y115324D01*
X299083Y114491D01*
X299142Y113741D01*
X299025Y112991D01*
X298850Y112490D01*
X298500Y111990D01*
X298091Y111657D01*
X297683Y111491D01*
X297275D01*
X296866Y111657D01*
X296516Y111907D01*
X296225Y112240D01*
G01X293183Y111491D02*
X292775Y111574D01*
X292308Y111824D01*
X292016Y112240D01*
X291900Y112824D01*
X292016Y113407D01*
X292366Y113907D01*
X292891Y114157D01*
X293475D01*
X293825Y114324D01*
X294116Y114740D01*
X294233Y115324D01*
X294058Y115907D01*
X293650Y116324D01*
X293183Y116491D01*
X292716Y116324D01*
X292308Y115907D01*
X292133Y115324D01*
X292250Y114740D01*
X292541Y114324D01*
X292891Y114157D01*
X293475D01*
X294000Y113907D01*
X294350Y113407D01*
X294466Y112824D01*
X294350Y112240D01*
X294058Y111824D01*
X293591Y111574D01*
X293183Y111491D01*
G54D13*
G01X0Y122047D02*
Y0D01*
X307087D01*
Y122047D01*
X0D01*
G01Y0D02*
Y122047D01*
X307087D01*
Y0D01*
X0D01*
G01X58114Y29295D02*
X14413D01*
Y30476D01*
Y32051D01*
Y50949D01*
Y52524D01*
Y53705D01*
X58114D01*
X78193D01*
X98469D01*
X98665D01*
Y53508D01*
Y29886D01*
Y29295D01*
X98075D01*
X78587D01*
X77799D01*
X59295D01*
X58114D01*
G01X16150Y78862D02*
Y66657D01*
X9850D01*
Y78862D01*
X16150D01*
G01X14413Y45043D02*
X16776D01*
Y52130D01*
X96303D01*
Y45634D01*
G01X36934Y26166D02*
X49139D01*
Y19866D01*
X36934D01*
Y26166D01*
G01X60287Y73173D02*
Y62149D01*
Y61755D01*
X55169D01*
Y62149D01*
Y73173D01*
X60287D01*
G01X53397D02*
Y62149D01*
Y61755D01*
X48279D01*
Y62149D01*
Y73173D01*
X53397D01*
G01X51305Y100548D02*
Y88342D01*
X45005D01*
Y100548D01*
X51305D01*
G01X148614Y29795D02*
X104913D01*
Y30976D01*
Y32551D01*
Y51449D01*
Y53024D01*
Y54205D01*
X148614D01*
X168693D01*
X188969D01*
X189165D01*
Y54008D01*
Y30386D01*
Y29795D01*
X188575D01*
X169087D01*
X168299D01*
X149795D01*
X148614D01*
G01X104913Y45543D02*
X107276D01*
Y52630D01*
X186803D01*
Y46134D01*
G01X98665Y45043D02*
X96303D01*
Y45831D01*
G01X125916Y97820D02*
Y85614D01*
X119616D01*
Y97820D01*
X125916D01*
G01X138102Y73174D02*
Y62150D01*
Y61756D01*
X132984D01*
Y62150D01*
Y73174D01*
X138102D01*
G01X131385D02*
Y62150D01*
Y61756D01*
X126267D01*
Y62150D01*
Y73174D01*
X131385D01*
G01X240839Y27346D02*
X284540D01*
Y26165D01*
Y24590D01*
Y5692D01*
Y4117D01*
Y2936D01*
X240839D01*
X220760D01*
X200484D01*
X200288D01*
Y3133D01*
Y26756D01*
Y27346D01*
X200878D01*
X220366D01*
X221154D01*
X239658D01*
X240839D01*
G01X284540Y11598D02*
X282177D01*
Y4511D01*
X202650D01*
Y11007D01*
G01X200288Y11598D02*
X202650D01*
Y10810D01*
G01X189165Y45543D02*
X186803D01*
Y46331D01*
G01X231850Y65480D02*
Y76504D01*
Y76898D01*
X236968D01*
Y76504D01*
Y65480D01*
X231850D01*
G01X223189Y68432D02*
Y79456D01*
Y79850D01*
X228307D01*
Y79456D01*
Y68432D01*
X223189D01*
G01X241102Y70008D02*
X252126D01*
X252520D01*
Y64890D01*
X252126D01*
X241102D01*
Y70008D01*
G01X215118Y93236D02*
Y104260D01*
Y104654D01*
X220236D01*
Y104260D01*
Y93236D01*
X215118D01*
G01X216496Y70992D02*
Y82016D01*
Y82410D01*
X221614D01*
Y82016D01*
Y70992D01*
X216496D01*
G01X244646Y83196D02*
X229291D01*
Y104063D01*
X244646D01*
Y83196D01*
G01X243310Y100519D02*
G03I-1420J0D01*
G01X242677Y106424D02*
X230472D01*
Y112724D01*
X242677D01*
Y106424D01*
G01X258819Y74535D02*
X246614D01*
Y80835D01*
X258819D01*
Y74535D01*
G01X270236Y89496D02*
X282441D01*
Y83196D01*
X270236D01*
Y89496D01*
G01X269843Y92252D02*
X288347D01*
Y105638D01*
X269843D01*
Y92252D01*
G01X254685Y94614D02*
Y104410D01*
G02X256063Y107213I9483J-2921D01*
G02X268465Y103276I5576J-3937D01*
G01Y95008D01*
G02X254685Y94614I-6896J1D01*
G01X270236Y115087D02*
X282441D01*
Y108787D01*
X270236D01*
Y115087D01*
M02*
