G04 ================== begin FILE IDENTIFICATION RECORD ==================*
G04 Layout Name:  PC-1160-P-R1 GANGES RTC CARD PCB.brd*
G04 Film Name:    SST*
G04 File Format:  Gerber RS274X*
G04 File Origin:  Cadence Allegro 17.2-S081*
G04 Origin Date:  Thu Nov 09 14:27:41 2023*
G04 *
G04 Layer:  MANUFACTURING/PHOTOPLOT_OUTLINE*
G04 Layer:  BOARD GEOMETRY/DESIGN_OUTLINE*
G04 Layer:  REF DES/SILKSCREEN_TOP*
G04 Layer:  PACKAGE GEOMETRY/SILKSCREEN_TOP*
G04 Layer:  BOARD GEOMETRY/SILKSCREEN_TOP*
G04 Layer:  BOARD GEOMETRY/OUTLINE*
G04 *
G04 Offset:    (0.000 0.000)*
G04 Mirror:    No*
G04 Mode:      Positive*
G04 Rotation:  0*
G04 FullContactRelief:  No*
G04 UndefLineWidth:     10.000*
G04 ================== end FILE IDENTIFICATION RECORD ====================*
%FSLAX25Y25*MOIN*%
%IR0*IPPOS*OFA0.00000B0.00000*MIA0B0*SFA1.00000B1.00000*%
%ADD10C,.005*%
%ADD11C,.012*%
%ADD12C,.01*%
G75*
%LPD*%
G75*
G36*
G01X13214Y70114D02*
G03I-1804J-1D01*
G37*
G36*
G01X114115Y45126D02*
G03I-2784J0D01*
G37*
G36*
G01X225214Y67614D02*
G03I-1804J-1D01*
G37*
G54D10*
G01X53598Y85157D02*
X78402D01*
G01X53598Y99843D02*
X78402D01*
G01X129598Y85157D02*
X154402D01*
G01X129598Y99843D02*
X154402D01*
G54D11*
G01X23855Y27317D02*
X24147Y26817D01*
X24497Y26484D01*
X24905Y26317D01*
X25372Y26484D01*
X25722Y26817D01*
X26072Y27317D01*
X26189Y27984D01*
Y31317D01*
G01X28239Y27317D02*
X28588Y26734D01*
X29055Y26400D01*
X29580Y26317D01*
X30047Y26400D01*
X30514Y26817D01*
X30805Y27317D01*
X30864Y27817D01*
X30747Y28400D01*
X30339Y28817D01*
X29930Y28984D01*
X29405D01*
G01X29930D02*
X30280Y29234D01*
X30572Y29650D01*
X30689Y30150D01*
X30572Y30650D01*
X30280Y31067D01*
X29755Y31317D01*
X29230Y31234D01*
X28705Y30900D01*
G01X23552Y58838D02*
X24052Y58488D01*
X24303Y58080D01*
X24386Y57613D01*
X24219Y57030D01*
X23802Y56622D01*
X23302Y56505D01*
X22802Y56563D01*
X22386Y56797D01*
X21553Y57963D01*
X20969Y58488D01*
X20136Y58838D01*
X19386Y58955D01*
Y56505D01*
G01X20173Y87652D02*
X25173D01*
X24173Y88352D01*
G01X20173D02*
Y86952D01*
G01X18924Y93166D02*
X19215Y92666D01*
X19565Y92333D01*
X19974Y92166D01*
X20440Y92333D01*
X20790Y92666D01*
X21140Y93166D01*
X21257Y93833D01*
Y97166D01*
G01X23482Y96333D02*
X23832Y96833D01*
X24240Y97083D01*
X24707Y97166D01*
X25290Y97000D01*
X25699Y96583D01*
X25815Y96083D01*
X25757Y95583D01*
X25524Y95166D01*
X24357Y94333D01*
X23832Y93749D01*
X23482Y92916D01*
X23365Y92166D01*
X25815D01*
G01X36318Y105510D02*
X36609Y105010D01*
X36959Y104676D01*
X37368Y104510D01*
X37834Y104676D01*
X38184Y105010D01*
X38534Y105510D01*
X38651Y106176D01*
Y109510D01*
G01X42684Y104510D02*
Y109510D01*
X40526Y105927D01*
X43443D01*
G01X83885Y86698D02*
Y91698D01*
X85344D01*
X85810Y91448D01*
X86102Y91115D01*
X86219Y90448D01*
X86102Y89781D01*
X85752Y89365D01*
X85344Y89115D01*
X83885D01*
G01X85344D02*
X86219Y86698D01*
G01X89552D02*
Y91698D01*
X88852Y90698D01*
G01Y86698D02*
X90252D01*
G01X114803Y26333D02*
X115095Y25833D01*
X115445Y25500D01*
X115853Y25333D01*
X116320Y25500D01*
X116670Y25833D01*
X117020Y26333D01*
X117137Y27000D01*
Y30333D01*
G01X119187Y26083D02*
X119536Y25666D01*
X119945Y25416D01*
X120470Y25333D01*
X120995Y25500D01*
X121403Y25833D01*
X121695Y26416D01*
X121753Y27083D01*
X121637Y27750D01*
X121345Y28166D01*
X120936Y28500D01*
X120528Y28583D01*
X120120Y28500D01*
X119595Y28166D01*
X119770Y30333D01*
X121345D01*
G01X147507Y76404D02*
Y81404D01*
X148966D01*
X149432Y81154D01*
X149724Y80821D01*
X149841Y80154D01*
X149724Y79488D01*
X149374Y79071D01*
X148966Y78821D01*
X147507D01*
G01X148966D02*
X149841Y76404D01*
G01X153874D02*
Y81404D01*
X151716Y77821D01*
X154633D01*
G01X161160Y88799D02*
X161451Y88299D01*
X161801Y87966D01*
X162210Y87800D01*
X162676Y87966D01*
X163026Y88299D01*
X163376Y88799D01*
X163493Y89466D01*
Y92800D01*
G01X166826Y87800D02*
Y92800D01*
X166126Y91800D01*
G01Y87800D02*
X167526D01*
G01X293932Y33268D02*
X294165Y33518D01*
X294340Y33935D01*
X294457Y34518D01*
X294340Y35018D01*
X294107Y35352D01*
X293699Y35602D01*
X292124D01*
Y30602D01*
X294049D01*
X294457Y30935D01*
X294690Y31435D01*
X294807Y32018D01*
X294690Y32602D01*
X294340Y33102D01*
X293932Y33268D01*
X292124D01*
G01X297965Y35602D02*
Y30602D01*
G01X296624Y35602D02*
X299307D01*
G01X302465Y30602D02*
Y35602D01*
X301765Y34602D01*
G01Y30602D02*
X303165D01*
G01X300449Y48097D02*
X295449D01*
Y49497D01*
X295700Y49963D01*
X296283Y50313D01*
X296949Y50430D01*
X297616Y50313D01*
X298116Y50022D01*
X298366Y49497D01*
Y48097D01*
G01X295866Y55047D02*
X295616Y54697D01*
X295449Y54288D01*
Y53822D01*
X295700Y53297D01*
X296116Y52888D01*
X296616Y52597D01*
X297449Y52363D01*
X298199Y52305D01*
X298949Y52422D01*
X299450Y52597D01*
X299950Y52947D01*
X300283Y53355D01*
X300449Y53763D01*
Y54172D01*
X300283Y54580D01*
X300033Y54930D01*
X299700Y55222D01*
G01X298783Y57505D02*
Y59022D01*
G01X300449Y62763D02*
X295449D01*
X296449Y62063D01*
G01X300449D02*
Y63463D01*
G01Y67263D02*
X295449D01*
X296449Y66563D01*
G01X300449D02*
Y67963D01*
G01X298366Y70655D02*
X297783Y71063D01*
X297449Y71413D01*
X297283Y71880D01*
X297449Y72288D01*
X297783Y72580D01*
X298283Y72813D01*
X298866Y72872D01*
X299366Y72813D01*
X299866Y72580D01*
X300283Y72230D01*
X300449Y71822D01*
X300283Y71355D01*
X299783Y70947D01*
X299033Y70713D01*
X298199Y70655D01*
X297116Y70772D01*
X296533Y70947D01*
X295949Y71238D01*
X295533Y71647D01*
X295449Y72055D01*
X295616Y72463D01*
X296033Y72755D01*
G01X295449Y76263D02*
X295616Y75797D01*
X296033Y75447D01*
X296533Y75213D01*
X297200Y75038D01*
X297950Y74980D01*
X298700Y75038D01*
X299366Y75213D01*
X299866Y75447D01*
X300283Y75797D01*
X300449Y76263D01*
X300283Y76730D01*
X299866Y77080D01*
X299366Y77313D01*
X298700Y77488D01*
X297950Y77547D01*
X297200Y77488D01*
X296533Y77313D01*
X296033Y77080D01*
X295616Y76730D01*
X295449Y76263D01*
G01X298783Y80005D02*
Y81522D01*
G01X300449Y84097D02*
X295449D01*
Y85497D01*
X295700Y85963D01*
X296283Y86313D01*
X296949Y86430D01*
X297616Y86313D01*
X298116Y86022D01*
X298366Y85497D01*
Y84097D01*
G01X298783Y89005D02*
Y90522D01*
G01X300449Y93097D02*
X295449D01*
Y94555D01*
X295700Y95022D01*
X296033Y95313D01*
X296699Y95430D01*
X297366Y95313D01*
X297783Y94963D01*
X298033Y94555D01*
Y93097D01*
G01Y94555D02*
X300449Y95430D01*
G01Y98763D02*
X295449D01*
X296449Y98063D01*
G01X300449D02*
Y99463D01*
G01X289994Y74050D02*
X288594D01*
G01X289352Y72966D02*
Y75133D01*
G54D12*
G01X0Y122047D02*
Y0D01*
X307087D01*
Y122047D01*
X0D01*
G01Y0D02*
Y122047D01*
X307087D01*
Y0D01*
X0D01*
G01X93363Y22926D02*
X24465D01*
Y-19594D01*
X93363D01*
X107812D01*
Y22926D01*
X93363D01*
G01X11905Y55937D02*
X35528D01*
Y89402D01*
X11905D01*
X10921D01*
Y55937D01*
X11905D01*
G01X20764Y89402D02*
Y87434D01*
X12890D01*
Y57906D01*
X20764D01*
Y55937D01*
G01X83264Y138980D02*
Y102980D01*
X47264D01*
Y138980D01*
X77764D01*
X83264D01*
G01X181358Y22926D02*
X112460D01*
Y-19594D01*
X181358D01*
X195807D01*
Y22926D01*
X181358D01*
G01X159370Y138981D02*
Y102981D01*
X123370D01*
Y138981D01*
X153870D01*
X159370D01*
G01X191102Y73354D02*
G03X275465Y59574I43307J0D01*
G01X289528D01*
Y87134D01*
X275575D01*
X275492Y87051D01*
G03X191102Y73354I-41083J-13697D01*
M02*
