G04 ================== begin FILE IDENTIFICATION RECORD ==================*
G04 Layout Name:  PC-1160-P-R1 GANGES RTC CARD PCB.brd*
G04 Film Name:    TOP*
G04 File Format:  Gerber RS274X*
G04 File Origin:  Cadence Allegro 17.2-S081*
G04 Origin Date:  Thu Nov 09 14:27:41 2023*
G04 *
G04 Layer:  VIA CLASS/TOP*
G04 Layer:  PIN/TOP*
G04 Layer:  ETCH/TOP*
G04 Layer:  BOARD GEOMETRY/SOLDERMASK_TOP*
G04 Layer:  MANUFACTURING/PHOTOPLOT_OUTLINE*
G04 Layer:  BOARD GEOMETRY/OUTLINE*
G04 Layer:  BOARD GEOMETRY/DESIGN_OUTLINE*
G04 Layer:  BOARD GEOMETRY/CUTOUT*
G04 *
G04 Offset:    (0.000 0.000)*
G04 Mirror:    No*
G04 Mode:      Positive*
G04 Rotation:  0*
G04 FullContactRelief:  No*
G04 UndefLineWidth:     10.000*
G04 ================== end FILE IDENTIFICATION RECORD ====================*
%FSLAX25Y25*MOIN*%
%IR0*IPPOS*OFA0.00000B0.00000*MIA0B0*SFA1.00000B1.00000*%
%ADD14C,.11811*%
%ADD10C,.161421*%
%ADD11R,.11811X.11811*%
%ADD15R,.074799X.132681*%
%ADD16C,.035*%
%ADD13C,.07087*%
%ADD12R,.07087X.07087*%
%ADD17C,.062988*%
%ADD18C,.04*%
%ADD19C,.06*%
%ADD20C,.01*%
G75*
%LPD*%
G75*
G36*
G01X6890Y85634D02*
X24608D01*
X26576Y83666D01*
Y74807D01*
X25592Y73822D01*
X12796D01*
X10827Y71854D01*
Y40356D01*
X16733Y34450D01*
X40356D01*
X45278Y29529D01*
Y19090D01*
G03X42752Y13083I5880J-6006D01*
G03X45219Y7135I8406J0D01*
G01X45278Y7076D01*
Y4922D01*
X44294Y3937D01*
X30513D01*
X29529Y4922D01*
Y22639D01*
X25592Y26576D01*
X5906D01*
X1969Y30513D01*
Y80713D01*
X6890Y85634D01*
G37*
G36*
G01X16733Y68901D02*
X18702Y70870D01*
X85634D01*
X95477Y61027D01*
X179143D01*
X193907Y46262D01*
Y6890D01*
X191938Y4922D01*
X184064D01*
X181111Y7874D01*
Y42325D01*
X172252Y51184D01*
X109257D01*
X102367Y44294D01*
Y9843D01*
X100399Y7874D01*
X96461D01*
X93508Y10827D01*
Y38388D01*
X69885Y62011D01*
X19686D01*
X16733Y64964D01*
Y68901D01*
G37*
G36*
G01X125006Y80713D02*
X120085Y75791D01*
X40356D01*
X37403Y78744D01*
Y92524D01*
X39372Y94493D01*
X45278D01*
X46262Y93508D01*
Y84650D01*
X49215Y81697D01*
X104336D01*
X109257Y86618D01*
X123038D01*
X125006Y84650D01*
Y80713D01*
G37*
G36*
G01X196860Y118116D02*
X297259D01*
X300212Y115163D01*
Y87603D01*
X295290Y82681D01*
X262808D01*
X250012Y95477D01*
X213593D01*
X210640Y92524D01*
Y72838D01*
X240169Y43309D01*
Y14765D01*
X237216Y11812D01*
X225405D01*
X224420Y12796D01*
Y33466D01*
X191938Y65948D01*
Y113194D01*
X196860Y118116D01*
G37*
%LPC*%
G75*
G36*
G01X265627Y98945D02*
G02X267224Y95008I-4052J-3937D01*
G02X255925I-5650J0D01*
G02X257523Y98945I5650J0D01*
G02X255925Y102882I4052J3937D01*
G02X267224I5650J0D01*
G02X265627Y98945I-5650J0D01*
G37*
%LPD*%
G75*
G54D10*
X11812Y11812D03*
Y109257D03*
X103352D03*
X175205D03*
X295290Y11812D03*
G54D20*
G01X0Y122047D02*
Y0D01*
X307087D01*
Y122047D01*
X0D01*
G01Y0D02*
Y122047D01*
X307087D01*
Y0D01*
X0D01*
G54D11*
X36158Y13083D03*
X72870Y110094D03*
X124153Y13083D03*
X148976Y110095D03*
X279685Y73354D03*
G54D12*
X21500Y41500D03*
X21748Y77591D03*
X112000Y42000D03*
X277453Y15141D03*
G54D13*
X31500Y41500D03*
X21748Y67591D03*
X61500Y41500D03*
X51500D03*
X41500D03*
X81500D03*
X91500D03*
X71500D03*
X122000Y42000D03*
X152000D03*
X142000D03*
X132000D03*
X172000D03*
X182000D03*
X162000D03*
X217453Y15141D03*
X207453D03*
X227453D03*
X237453D03*
X247453D03*
X257453D03*
X267453D03*
G54D14*
X66158Y13083D03*
X51158D03*
X57870Y110094D03*
X96158Y13083D03*
X81158D03*
X154153D03*
X139153D03*
X133976Y110095D03*
X184153Y13083D03*
X169153D03*
X200945Y73354D03*
G54D15*
X55528Y92500D03*
X76472D03*
X152472D03*
X131528D03*
G54D16*
X43309Y90705D03*
X122766Y83666D03*
X218672Y87921D03*
X243439Y77685D03*
X256850Y67449D03*
X285984Y86346D03*
Y111937D03*
G54D17*
X261575Y102882D03*
Y95008D03*
G54D18*
G01X21748Y77591D02*
X11643D01*
X4922Y70870D01*
Y38388D01*
X12796Y30513D01*
X27133D01*
X36158Y21489D01*
Y13083D01*
G01X31500Y41500D02*
X21500D01*
G01X91500Y52827D02*
Y55161D01*
X79070Y67591D01*
X21748D01*
G01X51158Y13083D02*
Y31158D01*
X61500Y41500D01*
G01X66158Y13083D02*
Y36158D01*
X71500Y41500D01*
G01X43309Y90705D02*
Y80713D01*
X45278Y78744D01*
X107289D01*
X112210Y83666D01*
X122766D01*
G01X91500Y41500D02*
Y52827D01*
G01X81158Y13083D02*
Y35114D01*
X81500Y35456D01*
Y41500D01*
G01X91500Y52827D02*
X94778Y56105D01*
X179143D01*
X182000Y53248D01*
Y42000D01*
G01X112000D02*
X122000D01*
G01X139153Y13083D02*
X152000Y25930D01*
Y42000D01*
G01X154153Y13083D02*
X162000Y20930D01*
Y42000D01*
G01X172000D02*
Y15930D01*
X169153Y13083D01*
G01X200945Y73354D02*
X234500Y39799D01*
Y24000D01*
G01X200945Y73354D02*
G01X200945D02*
X205276Y77685D01*
G01X200945Y73354D02*
Y105244D01*
X207638Y111937D01*
X285984D01*
G01X205276Y77685D02*
X243439D01*
G01X218672Y87921D02*
X247795D01*
X256850Y78866D01*
Y67449D01*
G01X285984Y111937D02*
Y86346D01*
G54D19*
G01X55528Y92500D02*
Y107752D01*
X57870Y110094D01*
G01X76472Y92500D02*
Y106492D01*
X72870Y110094D01*
G01X152472Y92500D02*
Y106599D01*
X148976Y110095D01*
G01X131528Y92500D02*
Y107647D01*
X133976Y110095D01*
M02*
