G04 ================== begin FILE IDENTIFICATION RECORD ==================*
G04 Layout Name:  pc-1160-p ganges rtc card pcb.brd*
G04 Film Name:    BOTTOM*
G04 File Format:  Gerber RS274X*
G04 File Origin:  Cadence Allegro 17.4-S029*
G04 Origin Date:  Tue Aug  8 14:46:01 2023*
G04 *
G04 Layer:  MANUFACTURING/PHOTOPLOT_OUTLINE*
G04 Layer:  BOARD GEOMETRY/CUTOUT*
G04 Layer:  BOARD GEOMETRY/DESIGN_OUTLINE*
G04 Layer:  BOARD GEOMETRY/SOLDERMASK_BOTTOM*
G04 Layer:  BOARD GEOMETRY/OUTLINE*
G04 Layer:  ETCH/BOTTOM*
G04 Layer:  PIN/BOTTOM*
G04 Layer:  VIA CLASS/BOTTOM*
G04 *
G04 Offset:    (0.00 0.00)*
G04 Mirror:    No*
G04 Mode:      Positive*
G04 Rotation:  0*
G04 FullContactRelief:  No*
G04 UndefLineWidth:     10.00*
G04 ================== end FILE IDENTIFICATION RECORD ====================*
%FSLAX25Y25*MOIN*%
%IR0*IPPOS*OFA0.00000B0.00000*MIA0B0*SFA1.00000B1.00000*%
%AMMACRO12*
21,1,.04724,.03543,0.0,0.0,89.969*%
%ADD12MACRO12*%
%ADD13C,.035*%
%ADD26R,.09843X.11811*%
%ADD24C,.07087*%
%ADD20R,.13268X.0748*%
%ADD23C,.06299*%
%ADD16R,.0748X.13268*%
%ADD25R,.07087X.07087*%
%ADD14O,.04X.08*%
%AMMACRO18*
21,1,.04724,.03543,0.0,0.0,179.969*%
%ADD18MACRO18*%
%ADD15C,.153*%
%ADD19R,.0315X.04331*%
%ADD21R,.04331X.0315*%
%ADD10C,.11811*%
%ADD11R,.11811X.11811*%
%ADD17R,.01102X.05787*%
%ADD22R,.06693X.02559*%
%ADD27C,.01*%
%ADD28C,.02*%
%ADD29C,.03*%
%ADD30C,.04*%
%ADD31C,.05*%
%ADD32C,.015*%
%ADD33C,.025*%
%ADD34C,.08*%
%ADD35C,.005*%
G75*
%LPD*%
G75*
G36*
G01X-175000Y-7500D02*
X-169500D01*
X-167500Y-9500D01*
Y-29000D01*
X-169500Y-31000D01*
X-173500D01*
X-174000Y-30500D01*
Y-23000D01*
X-177500Y-19500D01*
Y-16232D01*
X-177493Y-16207D01*
G03X-177405Y-15551I-2414J658D01*
G01Y-14606D01*
X-177395Y-14576D01*
G03X-177176Y-13187I-4282J1387D01*
G03X-177378Y-11850I-4502J4D01*
G01X-177388Y-11821D01*
Y-9888D01*
X-175000Y-7500D01*
G37*
G36*
G01X-91002Y-23500D02*
X-89604D01*
Y-29792D01*
G03X-89557Y-30275I2501J0D01*
G01X-89554Y-30294D01*
Y-32448D01*
G03X-88674Y-34570I3001J1D01*
G01X-88000Y-35245D01*
Y-47000D01*
X-88500Y-47500D01*
Y-68000D01*
X-90000Y-69500D01*
X-103500D01*
X-105000Y-68000D01*
Y-41500D01*
X-91500Y-28000D01*
Y-27285D01*
X-91463Y-27233D01*
G03X-91003Y-25789I-2042J1446D01*
G01X-91002Y-23500D01*
G37*
G36*
G01X-84806Y-32842D02*
G03X-84736Y-32914I2187J2056D01*
G01X-83028Y-34622D01*
G03X-81075Y-35497I2123J2122D01*
G01X-80999Y-35501D01*
X-80500Y-36000D01*
X-78915D01*
X-78865Y-36034D01*
G03X-76500Y-36752I2364J3534D01*
G03X-75132Y-36526I0J4253D01*
G01X-75014Y-36486D01*
X-70000Y-41500D01*
Y-67500D01*
X-71500Y-69000D01*
X-83500D01*
X-85000Y-67500D01*
Y-35000D01*
X-85498Y-34502D01*
Y-33115D01*
G02X-84806Y-32842I400J0D01*
G37*
G36*
G01X-70500Y-2000D02*
X-40000D01*
X-39530Y-2471D01*
Y-2892D01*
G03X-37000Y-5393I2502J1D01*
G01Y-8000D01*
X-38498Y-9498D01*
X-46786D01*
G03X-48809Y-9979I2J-4502D01*
G01X-48851Y-10000D01*
X-49500D01*
X-54500Y-15000D01*
X-70500D01*
X-74000Y-11500D01*
Y-5500D01*
X-70500Y-2000D01*
G37*
G36*
G01X-65500Y19000D02*
X-45500D01*
X-44752Y18252D01*
Y14001D01*
G03X-43653Y11348I3752J0D01*
G01X-37401Y5096D01*
G03X-37167Y4882I2647J2659D01*
G02X-37099Y4344I-258J-306D01*
G03X-37562Y2896I2039J-1450D01*
G01Y0D01*
X-38462D01*
X-38964Y502D01*
X-43002D01*
X-43500Y1000D01*
X-69500D01*
X-72000Y3500D01*
Y12500D01*
X-65500Y19000D01*
G37*
G36*
G01X-61000Y43000D02*
X-46500D01*
X-45502Y42002D01*
Y34964D01*
X-45000Y34462D01*
Y33000D01*
X-48500Y29500D01*
X-62500D01*
X-63500Y30500D01*
Y40500D01*
X-61000Y43000D01*
G37*
G36*
G01X-44500Y107000D02*
X-28500D01*
X-25000Y103500D01*
Y94000D01*
X-27000Y92000D01*
X-45000D01*
X-46500Y90500D01*
Y90268D01*
X-46536Y90217D01*
G03X-46990Y88780I2047J-1437D01*
G01Y85630D01*
G03X-46500Y84143I2501J0D01*
G01Y80500D01*
X-45566Y79566D01*
X-45559Y79495D01*
G03X-45026Y77822I4231J426D01*
G01X-45000Y77777D01*
Y75656D01*
G03X-45612Y74016I1890J-1639D01*
G01Y63386D01*
G03X-45000Y61746I2502J-1D01*
G01Y56500D01*
X-38091Y49591D01*
X-38083Y49521D01*
G03X-37860Y48562I4225J477D01*
G01Y41772D01*
G03X-37000Y39294I4002J1D01*
G01Y36000D01*
X-38000Y35000D01*
X-42000D01*
X-43000Y36000D01*
Y36634D01*
X-42945Y36692D01*
G03X-41918Y39272I-2724J2579D01*
G03X-43000Y41908I-3752J0D01*
G01Y44000D01*
X-51000Y52000D01*
Y62947D01*
G03Y67761I-8054J2407D01*
G01Y100500D01*
X-44500Y107000D01*
G37*
G36*
G01X-18500D02*
X3445D01*
G02X3727Y106317I-1J-400D01*
G01X-901Y101688D01*
G03X-1925Y99319I2476J-2476D01*
G03X-3864Y96414I3501J-4436D01*
G01X-7314D01*
G03X-8464Y96694I-1150J-2222D01*
G01X-15158D01*
G03X-17660Y94192I0J-2502D01*
G01Y81634D01*
G03X-15158Y79132I2502J0D01*
G01X-9100D01*
X-5196Y75227D01*
G02X-5456Y74545I-283J-283D01*
G03X-5790Y74504I137J-2498D01*
G01X-5809Y74500D01*
X-6000D01*
X-6066Y74434D01*
X-6111Y74419D01*
G03X-7684Y72845I798J-2371D01*
G01X-7699Y72801D01*
X-13500Y67000D01*
X-17500D01*
X-21500Y71000D01*
Y104000D01*
X-18500Y107000D01*
G37*
G36*
G01X10824Y99074D02*
X14368Y99073D01*
G03X16870Y101573I1J2501D01*
G01X16872Y106297D01*
Y106298D01*
G03X16859Y106558I-2501J5D01*
G02X17256Y107000I398J42D01*
G01X27000D01*
X29500Y104500D01*
Y99422D01*
G02X28915Y99068I-400J0D01*
G03X27756Y99352I-1158J-2218D01*
G01X17914D01*
G03X15412Y96850I-1J-2501D01*
G01Y85040D01*
G03X17914Y82538I2501J-1D01*
G01X27756D01*
G03X28915Y82822I1J2502D01*
G02X29500Y82468I185J-354D01*
G01Y77500D01*
X26500Y74500D01*
X17060D01*
G02X16689Y75049I0J400D01*
G03X16870Y75982I-2321J934D01*
G01X16872Y80706D01*
Y80707D01*
G03X14372Y83209I-2502J0D01*
G01X10828Y83210D01*
G03X8600Y81848I-1J-2502D01*
G01X7037D01*
X5721Y83164D01*
X5843Y83304D01*
G03X7226Y87008I-4269J3704D01*
G03X5629Y90945I-5651J0D01*
G03X7226Y94882I-4054J3937D01*
G03X5984Y98417I-5652J0D01*
G01X5872Y98557D01*
X7750Y100436D01*
X8599D01*
G03X10824Y99074I2227J1140D01*
G37*
G54D10*
X-166889Y-61417D03*
X-136889D03*
X-151889D03*
X-121889D03*
X-79370Y-60594D03*
X-65603Y-8524D03*
X-59055Y65354D03*
X-20394Y-61417D03*
X-35394D03*
X9606D03*
X-5394D03*
G54D11*
X-181889D03*
X-94370Y-60594D03*
X-50394Y-61417D03*
X-65603Y6476D03*
X19685Y65354D03*
G54D20*
X-51000Y-6472D03*
Y14472D03*
G54D30*
G01X-181677Y-13187D02*
X-181889Y-12975D01*
Y-7872D01*
G01X-95866Y-16535D02*
X-122035D01*
X-133500Y-28000D01*
Y-32000D01*
G01X-121889Y-61417D02*
Y-49419D01*
X-96456Y-24015D01*
G01X-88566Y-16537D02*
X-82847D01*
X-79704Y-19680D01*
G01X-95866Y-16535D02*
X-92754Y-16537D01*
X-88566D01*
G01X-96456Y-24015D02*
X-106272D01*
G01X-95866D02*
X-96456D01*
G01X-36000Y-14000D02*
X-46786D01*
X-52466Y-19680D01*
X-79704D01*
G01X-33520Y24500D02*
X-32803D01*
G01D02*
X-29000D01*
G01X-42323Y94685D02*
X-47011D01*
X-48216Y93480D01*
Y54120D01*
X-41328Y47232D01*
G01X-27165Y101574D02*
X-29687Y101575D01*
X-40121D01*
X-42323Y99373D01*
Y94685D01*
G01X9606Y-61417D02*
Y-40551D01*
X17088Y-33071D01*
G01X15748Y-24409D02*
Y12252D01*
X5500Y22500D01*
G01X-11023Y69685D02*
X-16561D01*
G01X17088Y-33071D02*
X24409D01*
G01Y-25591D02*
X16929D01*
X15748Y-24409D01*
G01X25984Y78346D02*
X20078D01*
G01X25984Y103937D02*
X20078D01*
G54D21*
X-25591Y59449D03*
Y66929D03*
X-34252Y62401D03*
Y69881D03*
X-42323Y87205D03*
X-40945Y64961D03*
Y72441D03*
X-42323Y94685D03*
X-19457Y-5117D03*
X-13174D03*
X-19457Y2363D03*
X-13174D03*
G54D12*
X-181677Y-13187D03*
X-174197D03*
X-41000Y24500D03*
X-33520D03*
X-27165Y101574D03*
X-3543Y69685D03*
X-11023D03*
X-19685Y101574D03*
X12598Y78346D03*
X20078D03*
X12598Y103937D03*
X20078D03*
G54D31*
G01X-79094Y-60630D02*
Y-46066D01*
X-77528Y-44500D01*
G54D22*
X-34449Y87913D03*
Y82913D03*
Y77913D03*
Y92913D03*
X-11811Y77913D03*
Y82913D03*
Y87913D03*
Y92913D03*
G54D13*
X-174500Y-18500D03*
X-181889Y-7872D03*
X-164328Y-49200D03*
X-168264Y-44094D03*
X-169248Y-18696D03*
X-145472Y-12792D03*
X-120000Y-5000D03*
X-106272Y-24015D03*
X-86614Y-4000D03*
X-76500Y-32500D03*
X-64944Y-45264D03*
X-53136Y39370D03*
X-30000Y-48216D03*
X-32528Y-43000D03*
X-36000Y-14000D03*
X-29000Y24500D03*
X-25000Y7747D03*
X-33858Y50000D03*
X-41328Y47232D03*
Y79921D03*
X-6500Y-14000D03*
X5500Y22500D03*
X-3150Y59449D03*
X-16561Y69685D03*
X25984Y78346D03*
Y103937D03*
G54D32*
G01X-36000Y-14000D02*
X-33250D01*
X-28603Y-9353D01*
G01X-51000Y-6472D02*
X-35971D01*
X-34509Y-5010D01*
G01X-32803Y24500D02*
X-36477Y20826D01*
G01X-30571Y13038D02*
X-29533Y12000D01*
X-22000D01*
X-19457Y9457D01*
Y2363D01*
G01X-13174D02*
Y12174D01*
X-21534Y20534D01*
X-27344D01*
G54D14*
X-167949Y-32000D03*
X-163028D03*
X-158106D03*
X-153185D03*
X-148264D03*
X-143343D03*
X-138421D03*
X-133500D03*
X-37449D03*
X-32528D03*
X-27606D03*
X-22685D03*
X-25949Y47000D03*
X-21028D03*
X-17764Y-32000D03*
X-12843D03*
X-7921D03*
X-3000D03*
X-16106Y47000D03*
X-11185D03*
X-6264D03*
X-1343D03*
X3579D03*
X8500D03*
G54D23*
X1575Y87008D03*
Y94882D03*
G54D33*
G01X-173031Y-26476D02*
X-169094D01*
Y-18850D01*
X-169248Y-18696D01*
G01X-45669Y39272D02*
X-49606D01*
G01X-25000Y7747D02*
Y-11500D01*
X-37449Y-23949D01*
Y-32000D01*
G01X-41000Y24500D02*
Y14001D01*
X-34748Y7749D01*
X-33745D01*
G01D02*
X-25004Y7751D01*
X-25000Y7747D01*
G01X-37795Y39272D02*
X-41732D01*
Y46828D01*
X-41328Y47232D01*
G54D15*
X-149606Y0D03*
X0D03*
G54D24*
X15748Y-34409D03*
G54D34*
G01X-98472Y-44500D02*
Y-56252D01*
X-94370Y-60354D01*
Y-60594D01*
G01X-65151Y-8524D02*
X-65127Y-8500D01*
X-64162D01*
X-62134Y-6472D01*
X-51000D01*
G01X-65524Y-8897D02*
X-65151Y-8524D01*
G01X-65603Y6476D02*
X-65151D01*
X-57155Y14472D01*
X-51000D01*
G54D25*
X15748Y-24409D03*
G54D16*
X-98472Y-44500D03*
X-77528D03*
G54D35*
G01X-138421Y-32000D02*
X-133500D01*
G01X-94500Y-40500D02*
Y-40528D01*
G01X-82677Y-9500D02*
X-82614Y-9563D01*
Y-9968D01*
G01X-65151Y-8524D02*
X-65603D01*
G01X-3000Y-32000D02*
X-7921D01*
G01X15748Y-34409D02*
X17086Y-33071D01*
X17088D01*
G54D17*
X-86552Y-26898D03*
X-84583D03*
X-82614D03*
Y-9968D03*
X-84583D03*
X-86552D03*
X-88520Y-26898D03*
Y-9968D03*
X-80646Y-26898D03*
Y-9968D03*
X-34509Y2D03*
X-32540D03*
X-30571D03*
X-28603D03*
Y16932D03*
X-30571D03*
X-32540D03*
X-34509D03*
X-36477Y2D03*
Y16932D03*
G54D26*
X22835Y90945D03*
G54D27*
G01X-88520Y-26898D02*
Y-34520D01*
X-94500Y-40500D01*
G01Y-40528D02*
X-98472Y-44500D01*
G01X-77528D02*
Y-41606D01*
X-82874Y-36260D01*
Y-36126D01*
G01D02*
X-86552Y-32448D01*
Y-26898D01*
G01X-88520Y-9968D02*
Y-16491D01*
X-88566Y-16537D01*
G01X-86552Y-9968D02*
Y-4062D01*
X-86614Y-4000D01*
G01X-82614Y-26898D02*
Y-30792D01*
X-80906Y-32500D01*
X-76500D01*
G01X-87796Y1772D02*
X-84449D01*
X-82677Y0D01*
Y-9500D01*
G01X-87796Y8662D02*
X-82656D01*
X-80646Y6652D01*
Y-9968D01*
G01Y-26898D02*
Y-20622D01*
X-79704Y-19680D01*
G01X-28603Y-9353D02*
Y2D01*
G01X-34509Y-5010D02*
Y2D01*
G01X-36477Y20826D02*
Y16932D01*
G01X-34509D02*
Y8513D01*
X-33745Y7749D01*
G01X-30571Y2D02*
Y6678D01*
X-29499Y7750D01*
X-25000Y7747D01*
G01X-30571Y16932D02*
Y13038D01*
G01X-27344Y20534D02*
X-28603Y19275D01*
Y16932D01*
G01X-36477Y2D02*
Y3896D01*
X-47053Y14472D01*
G01D02*
X-51000D01*
G01X-196850Y-73622D02*
Y21654D01*
X-69685D01*
Y109448D01*
X31102D01*
Y-73622D01*
X-196850D01*
G54D18*
X-95866Y-24015D03*
Y-16535D03*
X24409Y-33071D03*
Y-25591D03*
G54D28*
G01X-174500Y-18500D02*
X-173031Y-19969D01*
Y-26476D01*
G01X-166889Y-61417D02*
X-153185Y-47713D01*
Y-32000D01*
G01X-164328Y-49200D02*
X-158106Y-42978D01*
Y-32000D01*
G01X-168264Y-44094D02*
X-163028Y-38858D01*
Y-32000D01*
G01X-145472Y-12792D02*
X-148264Y-15584D01*
Y-32000D01*
G01X-143343D02*
Y-20312D01*
X-114369Y8662D01*
X-95276D01*
G01Y1772D02*
X-113228D01*
X-120000Y-5000D01*
G01X-22685Y-32000D02*
Y-48708D01*
X-35394Y-61417D01*
G01X-30000Y-48216D02*
X-27606Y-45822D01*
Y-32000D01*
G01X-32528D02*
Y-43000D01*
G01X-25591Y59449D02*
X-21000D01*
G01X-40945Y64961D02*
X-38687D01*
X-36127Y62401D01*
X-34252D01*
G01X-34449Y87913D02*
X-41615D01*
X-42323Y87205D01*
G01X-34449Y82913D02*
X-29764D01*
X-25591Y78740D01*
Y66929D01*
G01X-34449Y77913D02*
X-34252Y77716D01*
Y69881D01*
G01X-7921Y-32000D02*
Y-18921D01*
X-6500Y-17500D01*
Y-14000D01*
G01X-13174Y-5117D02*
Y-31669D01*
X-12843Y-32000D01*
G01X-17764D02*
Y-20736D01*
X-19457Y-19043D01*
Y-5117D01*
G01X-21000Y59449D02*
X-16929D01*
G01X-19680Y77913D02*
X-11811D01*
G01X-16561Y69685D02*
X-19680Y72804D01*
Y77913D01*
G01D02*
X-19685Y77918D01*
Y101574D01*
G01X12598Y78346D02*
X5587D01*
X1575Y82358D01*
Y87008D01*
G01X-11811Y87913D02*
X670D01*
X1575Y87008D01*
G01X19685Y65354D02*
X9629D01*
X5300Y69683D01*
G01X-3543Y69685D02*
X-271Y69683D01*
X5300D01*
G01X-11811Y82913D02*
X-7930D01*
X5300Y69683D01*
G01X12598Y103937D02*
X6299D01*
X1575Y99212D01*
Y94882D01*
G01X-11811Y92913D02*
X-394D01*
X1575Y94882D01*
G54D19*
X-87796Y1772D03*
X-95276D03*
X-87796Y8662D03*
X-95276D03*
X-16929Y59449D03*
X-9449D03*
G54D29*
G01X-174197Y-13187D02*
X-169250Y-18104D01*
X-169248Y-18696D01*
G01X-37449Y-32000D02*
X-46760D01*
X-60024Y-45264D01*
X-64944D01*
G01X-49606Y39272D02*
X-53038D01*
X-53136Y39370D01*
G01X-25949Y47000D02*
Y51773D01*
X-34252Y60076D01*
Y62401D01*
G01X-33858Y50000D02*
Y41772D01*
X-31358Y39272D01*
X-12728D01*
X-11185Y40815D01*
Y47000D01*
G01X-40945Y72441D02*
Y79538D01*
X-41328Y79921D01*
G01X-21028Y47000D02*
Y59421D01*
X-21000Y59449D01*
G01X-27165Y101574D02*
Y96819D01*
X-31071Y92913D01*
X-34449D01*
G01X5500Y22500D02*
X-6264Y34264D01*
Y47000D01*
G01X-11185D02*
X-16106D01*
G01X-3150Y59449D02*
X-9449D01*
M02*
