G75*
%MOIN*%
%OFA0B0*%
%FSLAX25Y25*%
%IPPOS*%
%LPD*%
%AMOC8*
5,1,8,0,0,1.08239X$1,22.5*
%
%ADD10R,0.04724X0.03150*%
%ADD11R,0.03150X0.04724*%
%ADD12R,0.03937X0.05512*%
%ADD13R,0.01575X0.05315*%
%ADD14R,0.05906X0.07480*%
%ADD15R,0.07087X0.03937*%
%ADD16R,0.01100X0.04800*%
%ADD17R,0.04800X0.01100*%
%ADD18R,0.02165X0.04724*%
%ADD19R,0.07087X0.05118*%
%ADD20R,0.02362X0.00984*%
%ADD21R,0.00984X0.02362*%
%ADD22R,0.11811X0.06299*%
%ADD23R,0.24409X0.22835*%
%ADD24R,0.07874X0.13386*%
%ADD25R,0.04724X0.04724*%
%ADD26R,0.05512X0.03937*%
%ADD27R,0.12087X0.05984*%
%ADD28R,0.05984X0.12087*%
%ADD29R,0.01181X0.03169*%
%ADD30R,0.03169X0.01181*%
%ADD31C,0.00100*%
%ADD32R,0.08110X0.05000*%
%ADD33R,0.13386X0.07874*%
%ADD34R,0.06299X0.11811*%
%ADD35R,0.22835X0.24409*%
%ADD36R,0.05000X0.08110*%
%ADD37R,0.03150X0.03150*%
%ADD38R,0.26378X0.26378*%
%ADD39R,0.04724X0.07874*%
%ADD40R,0.07874X0.04724*%
%ADD41C,0.00378*%
%ADD42C,0.00930*%
%ADD43R,0.03268X0.02480*%
%ADD44R,0.03150X0.00984*%
%ADD45R,0.00984X0.03150*%
%ADD46R,0.07874X0.02756*%
%ADD47R,0.08661X0.04134*%
%ADD48R,0.03150X0.03937*%
%ADD49R,0.23622X0.13780*%
%ADD50R,0.01969X0.02559*%
%ADD51R,0.09843X0.23622*%
%ADD52R,0.04600X0.06300*%
%ADD53R,0.03300X0.05700*%
%ADD54R,0.05700X0.03300*%
%ADD55R,0.02480X0.03268*%
D10*
X0083200Y0077205D03*
X0083200Y0084291D03*
X0090900Y0084291D03*
X0090900Y0077205D03*
X0113300Y0077205D03*
X0113300Y0084291D03*
X0120800Y0084291D03*
X0120800Y0077205D03*
X0135100Y0077205D03*
X0135100Y0084291D03*
X0142900Y0084291D03*
X0142900Y0077205D03*
X0165100Y0077205D03*
X0165100Y0084291D03*
X0172600Y0084291D03*
X0172600Y0077205D03*
X0182500Y0060491D03*
X0182500Y0053405D03*
X0168900Y0054191D03*
X0168900Y0047105D03*
X0158900Y0047105D03*
X0158900Y0054191D03*
X0148900Y0054191D03*
X0148900Y0047105D03*
X0138900Y0047105D03*
X0138900Y0054191D03*
X0117000Y0054191D03*
X0117000Y0047105D03*
X0107000Y0047105D03*
X0107000Y0054191D03*
X0097000Y0054191D03*
X0097000Y0047105D03*
X0087000Y0047105D03*
X0087000Y0054191D03*
X0055000Y0091805D03*
X0055000Y0098891D03*
X0057000Y0110605D03*
X0057000Y0117691D03*
X0064300Y0117691D03*
X0064300Y0110605D03*
X0093800Y0136205D03*
X0100600Y0136205D03*
X0108500Y0136205D03*
X0108500Y0143291D03*
X0100600Y0143291D03*
X0093800Y0143291D03*
X0091100Y0160105D03*
X0091100Y0167191D03*
X0098100Y0167191D03*
X0105100Y0167191D03*
X0111800Y0167191D03*
X0111800Y0160105D03*
X0105100Y0160105D03*
X0098100Y0160105D03*
X0050500Y0192505D03*
X0050500Y0199591D03*
X0071100Y0264505D03*
X0071100Y0271591D03*
X0194211Y0351905D03*
X0194211Y0358991D03*
X0201361Y0359041D03*
X0201361Y0351955D03*
X0210100Y0351916D03*
X0216711Y0351905D03*
X0216711Y0358991D03*
X0210100Y0359002D03*
X0224411Y0358991D03*
X0224411Y0351905D03*
X0231311Y0353091D03*
X0232711Y0358305D03*
X0239611Y0358305D03*
X0238211Y0353091D03*
X0238211Y0346005D03*
X0231311Y0346005D03*
X0245500Y0345994D03*
X0245500Y0353080D03*
X0239611Y0365391D03*
X0232711Y0365391D03*
X0233111Y0377605D03*
X0239711Y0377605D03*
X0239711Y0384691D03*
X0233111Y0384691D03*
X0225711Y0394505D03*
X0225711Y0401591D03*
X0218211Y0398405D03*
X0218211Y0405491D03*
X0204611Y0405491D03*
X0197311Y0405491D03*
X0190600Y0405580D03*
X0190600Y0398494D03*
X0197311Y0398405D03*
X0204611Y0398405D03*
X0186711Y0391491D03*
X0186711Y0384405D03*
X0250200Y0324891D03*
X0250200Y0317805D03*
X0268200Y0328505D03*
X0268200Y0335591D03*
X0284300Y0336191D03*
X0284300Y0341905D03*
X0284300Y0348991D03*
X0284300Y0354005D03*
X0284300Y0361091D03*
X0291200Y0336191D03*
X0291200Y0329105D03*
X0284300Y0329105D03*
X0284600Y0320191D03*
X0284600Y0313105D03*
X0284600Y0307391D03*
X0275500Y0313105D03*
X0275500Y0320191D03*
X0284600Y0300305D03*
X0284500Y0295291D03*
X0291000Y0295291D03*
X0297800Y0295291D03*
X0297800Y0288205D03*
X0291000Y0288205D03*
X0284500Y0288205D03*
X0266900Y0285791D03*
X0266900Y0278705D03*
X0267000Y0270091D03*
X0267000Y0263005D03*
X0287100Y0263005D03*
X0287100Y0270091D03*
X0327000Y0288105D03*
X0327000Y0295191D03*
X0327400Y0328905D03*
X0327400Y0335991D03*
X0297800Y0336091D03*
X0297800Y0329005D03*
X0237700Y0258891D03*
X0231400Y0258991D03*
X0231400Y0251905D03*
X0237700Y0251805D03*
X0239900Y0213691D03*
X0246200Y0213691D03*
X0246200Y0206605D03*
X0239900Y0206605D03*
X0233300Y0206505D03*
X0235100Y0199691D03*
X0235100Y0192605D03*
X0244000Y0192705D03*
X0250700Y0192705D03*
X0257500Y0192705D03*
X0257500Y0199791D03*
X0250700Y0199791D03*
X0244000Y0199791D03*
X0253800Y0206605D03*
X0261300Y0206605D03*
X0264700Y0199891D03*
X0264700Y0192805D03*
X0271900Y0192805D03*
X0271900Y0199891D03*
X0261300Y0213691D03*
X0253800Y0213691D03*
X0233300Y0213591D03*
X0215500Y0186491D03*
X0215500Y0179405D03*
X0206900Y0163291D03*
X0206900Y0156205D03*
X0216100Y0106391D03*
X0216100Y0099305D03*
X0232500Y0085991D03*
X0232500Y0078905D03*
X0234000Y0060491D03*
X0234000Y0053405D03*
X0241500Y0053405D03*
X0241500Y0060491D03*
X0263500Y0060491D03*
X0271000Y0060491D03*
X0271000Y0053405D03*
X0263500Y0053405D03*
X0293000Y0053405D03*
X0293000Y0060491D03*
X0275700Y0083105D03*
X0275700Y0090191D03*
X0309700Y0091191D03*
X0309700Y0084105D03*
X0381100Y0120205D03*
X0381100Y0127291D03*
X0388600Y0127291D03*
X0388600Y0120205D03*
X0396100Y0120205D03*
X0396100Y0127291D03*
X0403600Y0127291D03*
X0403600Y0120205D03*
X0381110Y0161027D03*
X0381110Y0168113D03*
X0296800Y0192705D03*
X0296800Y0199791D03*
X0379600Y0270205D03*
X0379600Y0277291D03*
X0387100Y0277291D03*
X0387100Y0270205D03*
X0394600Y0270205D03*
X0394600Y0277291D03*
X0402100Y0277291D03*
X0402100Y0270205D03*
X0380710Y0313553D03*
X0380710Y0320639D03*
X0380600Y0421205D03*
X0380600Y0428291D03*
X0388100Y0428291D03*
X0388100Y0421205D03*
X0395600Y0421205D03*
X0395600Y0428291D03*
X0403100Y0428291D03*
X0403100Y0421205D03*
X0380310Y0466405D03*
X0380310Y0473491D03*
X0371100Y0483605D03*
X0371100Y0490691D03*
X0212000Y0060491D03*
X0212000Y0053405D03*
X0204500Y0053405D03*
X0204500Y0060491D03*
D11*
X0207857Y0067748D03*
X0214943Y0067748D03*
X0155843Y0095448D03*
X0155843Y0102748D03*
X0148757Y0102748D03*
X0148757Y0095448D03*
X0115743Y0119648D03*
X0108657Y0119648D03*
X0135057Y0173348D03*
X0142143Y0173348D03*
X0142143Y0181348D03*
X0135057Y0181348D03*
X0135057Y0189648D03*
X0142143Y0189648D03*
X0212257Y0153748D03*
X0219343Y0153748D03*
X0219243Y0136848D03*
X0212157Y0136848D03*
X0323457Y0131648D03*
X0330543Y0131648D03*
X0330719Y0125065D03*
X0323632Y0125065D03*
X0323732Y0117765D03*
X0330819Y0117765D03*
X0330819Y0110365D03*
X0323732Y0110365D03*
X0364446Y0120248D03*
X0364467Y0126348D03*
X0371554Y0126348D03*
X0371533Y0120248D03*
X0371554Y0133448D03*
X0371554Y0139848D03*
X0364467Y0139848D03*
X0364467Y0133448D03*
X0364467Y0150870D03*
X0371554Y0150870D03*
X0387867Y0167370D03*
X0394954Y0167370D03*
X0394854Y0175370D03*
X0387767Y0175370D03*
X0330243Y0176448D03*
X0330243Y0182948D03*
X0323157Y0182948D03*
X0323157Y0176448D03*
X0323157Y0169848D03*
X0330243Y0169848D03*
X0330743Y0155048D03*
X0323657Y0155048D03*
X0257143Y0251148D03*
X0250057Y0251148D03*
X0250057Y0258148D03*
X0257143Y0258148D03*
X0273957Y0270048D03*
X0281043Y0270048D03*
X0280543Y0279448D03*
X0285757Y0279548D03*
X0292843Y0279548D03*
X0292957Y0270048D03*
X0300043Y0270048D03*
X0273457Y0279448D03*
X0291257Y0319548D03*
X0298343Y0319548D03*
X0299743Y0360248D03*
X0292657Y0360248D03*
X0327257Y0373248D03*
X0334343Y0373248D03*
X0334343Y0380748D03*
X0327257Y0380748D03*
X0326857Y0388248D03*
X0333943Y0388248D03*
X0333943Y0395748D03*
X0326857Y0395748D03*
X0318043Y0396548D03*
X0310957Y0396548D03*
X0364767Y0420548D03*
X0371854Y0420548D03*
X0371854Y0427848D03*
X0364767Y0427848D03*
X0364767Y0435348D03*
X0371854Y0435348D03*
X0371854Y0442448D03*
X0364767Y0442448D03*
X0364867Y0453548D03*
X0371954Y0453548D03*
X0387667Y0473848D03*
X0394754Y0473848D03*
X0394754Y0481248D03*
X0387667Y0481248D03*
X0240543Y0392359D03*
X0233457Y0392359D03*
X0232357Y0371537D03*
X0239443Y0371537D03*
X0217654Y0345948D03*
X0210568Y0345948D03*
X0205254Y0345848D03*
X0198168Y0345848D03*
X0198157Y0338559D03*
X0205243Y0338559D03*
X0202845Y0329978D03*
X0209931Y0329978D03*
X0218857Y0322348D03*
X0225943Y0322348D03*
X0178868Y0326576D03*
X0178868Y0318076D03*
X0171781Y0318076D03*
X0164368Y0318076D03*
X0157281Y0318076D03*
X0157281Y0326576D03*
X0164368Y0326576D03*
X0171781Y0326576D03*
X0171781Y0335076D03*
X0164368Y0335076D03*
X0157281Y0335076D03*
X0157281Y0343176D03*
X0164368Y0343176D03*
X0171781Y0343176D03*
X0178868Y0343176D03*
X0178868Y0335076D03*
X0178968Y0352076D03*
X0171881Y0352076D03*
X0164368Y0352076D03*
X0157281Y0352076D03*
X0173768Y0384448D03*
X0173768Y0391448D03*
X0180854Y0391448D03*
X0180854Y0384448D03*
X0184254Y0398548D03*
X0184232Y0405548D03*
X0177146Y0405548D03*
X0177168Y0398548D03*
X0201057Y0421648D03*
X0208143Y0421648D03*
X0178868Y0309576D03*
X0171781Y0309576D03*
X0164368Y0309576D03*
X0157281Y0309576D03*
X0218057Y0258148D03*
X0225143Y0258148D03*
X0088043Y0264548D03*
X0080957Y0264548D03*
X0080957Y0271848D03*
X0088043Y0271848D03*
X0364667Y0276548D03*
X0371754Y0276548D03*
X0371833Y0269348D03*
X0364746Y0269348D03*
X0364667Y0283848D03*
X0371754Y0283848D03*
X0371754Y0290848D03*
X0364667Y0290848D03*
X0364767Y0303296D03*
X0371854Y0303296D03*
X0387867Y0319696D03*
X0394954Y0319696D03*
X0394854Y0327596D03*
X0387767Y0327596D03*
X0501067Y0056348D03*
X0508154Y0056348D03*
X0508154Y0046348D03*
X0501067Y0046348D03*
X0501067Y0036348D03*
X0508154Y0036348D03*
X0508154Y0026348D03*
X0501067Y0026348D03*
D12*
X0083260Y0070079D03*
X0090740Y0070079D03*
X0087000Y0061417D03*
X0113260Y0069679D03*
X0117000Y0061017D03*
X0120740Y0069679D03*
X0135160Y0069679D03*
X0142640Y0069679D03*
X0138900Y0061017D03*
X0165160Y0069679D03*
X0168900Y0061017D03*
X0172640Y0069679D03*
X0189760Y0060479D03*
X0197240Y0060479D03*
X0193500Y0051817D03*
X0219260Y0060479D03*
X0226740Y0060479D03*
X0223000Y0051817D03*
X0248760Y0060479D03*
X0256240Y0060479D03*
X0252500Y0051817D03*
X0278260Y0060479D03*
X0285740Y0060479D03*
X0282000Y0051817D03*
X0222100Y0204917D03*
X0218360Y0213579D03*
X0225840Y0213579D03*
X0448370Y0056072D03*
X0455850Y0056072D03*
X0465870Y0056072D03*
X0473350Y0056072D03*
X0469610Y0046624D03*
X0469610Y0036072D03*
X0465870Y0026624D03*
X0473350Y0026624D03*
X0455850Y0026624D03*
X0448370Y0026624D03*
X0452110Y0036072D03*
X0452110Y0046624D03*
D13*
X0323661Y0032648D03*
X0321102Y0032648D03*
X0318543Y0032648D03*
X0315983Y0032648D03*
X0313424Y0032648D03*
D14*
X0314606Y0022018D03*
X0322480Y0022018D03*
D15*
X0215500Y0163327D03*
X0215500Y0173169D03*
D16*
X0234451Y0182148D03*
X0236420Y0182148D03*
X0238388Y0182148D03*
X0240357Y0182148D03*
X0242325Y0182148D03*
X0244294Y0182148D03*
X0246262Y0182148D03*
X0248231Y0182148D03*
X0250199Y0182148D03*
X0252168Y0182148D03*
X0254136Y0182148D03*
X0256105Y0182148D03*
X0258073Y0182148D03*
X0260042Y0182148D03*
X0262010Y0182148D03*
X0263979Y0182148D03*
X0265947Y0182148D03*
X0267916Y0182148D03*
X0269884Y0182148D03*
X0271853Y0182148D03*
X0273821Y0182148D03*
X0275790Y0182148D03*
X0277758Y0182148D03*
X0279727Y0182148D03*
X0281695Y0182148D03*
X0283664Y0182148D03*
X0285632Y0182148D03*
X0287601Y0182148D03*
X0289569Y0182148D03*
X0291538Y0182148D03*
X0293506Y0182148D03*
X0295475Y0182148D03*
X0297443Y0182148D03*
X0299412Y0182148D03*
X0301380Y0182148D03*
X0303349Y0182148D03*
X0303349Y0097548D03*
X0301380Y0097548D03*
X0299412Y0097548D03*
X0297443Y0097548D03*
X0295475Y0097548D03*
X0293506Y0097548D03*
X0291538Y0097548D03*
X0289569Y0097548D03*
X0287601Y0097548D03*
X0285632Y0097548D03*
X0283664Y0097548D03*
X0281695Y0097548D03*
X0279727Y0097548D03*
X0277758Y0097548D03*
X0275790Y0097548D03*
X0273821Y0097548D03*
X0271853Y0097548D03*
X0269884Y0097548D03*
X0267916Y0097548D03*
X0265947Y0097548D03*
X0263979Y0097548D03*
X0262010Y0097548D03*
X0260042Y0097548D03*
X0258073Y0097548D03*
X0256105Y0097548D03*
X0254136Y0097548D03*
X0252168Y0097548D03*
X0250199Y0097548D03*
X0248231Y0097548D03*
X0246262Y0097548D03*
X0244294Y0097548D03*
X0242325Y0097548D03*
X0240357Y0097548D03*
X0238388Y0097548D03*
X0236420Y0097548D03*
X0234451Y0097548D03*
D17*
X0226600Y0105399D03*
X0226600Y0107368D03*
X0226600Y0109336D03*
X0226600Y0111305D03*
X0226600Y0113273D03*
X0226600Y0115242D03*
X0226600Y0117210D03*
X0226600Y0119179D03*
X0226600Y0121147D03*
X0226600Y0123116D03*
X0226600Y0125084D03*
X0226600Y0127053D03*
X0226600Y0129021D03*
X0226600Y0130990D03*
X0226600Y0132958D03*
X0226600Y0134927D03*
X0226600Y0136895D03*
X0226600Y0138864D03*
X0226600Y0140832D03*
X0226600Y0142801D03*
X0226600Y0144769D03*
X0226600Y0146738D03*
X0226600Y0148706D03*
X0226600Y0150675D03*
X0226600Y0152643D03*
X0226600Y0154612D03*
X0226600Y0156580D03*
X0226600Y0158549D03*
X0226600Y0160517D03*
X0226600Y0162486D03*
X0226600Y0164454D03*
X0226600Y0166423D03*
X0226600Y0168391D03*
X0226600Y0170360D03*
X0226600Y0172328D03*
X0226600Y0174297D03*
X0311200Y0174297D03*
X0311200Y0172328D03*
X0311200Y0170360D03*
X0311200Y0168391D03*
X0311200Y0166423D03*
X0311200Y0164454D03*
X0311200Y0162486D03*
X0311200Y0160517D03*
X0311200Y0158549D03*
X0311200Y0156580D03*
X0311200Y0154612D03*
X0311200Y0152643D03*
X0311200Y0150675D03*
X0311200Y0148706D03*
X0311200Y0146738D03*
X0311200Y0144769D03*
X0311200Y0142801D03*
X0311200Y0140832D03*
X0311200Y0138864D03*
X0311200Y0136895D03*
X0311200Y0134927D03*
X0311200Y0132958D03*
X0311200Y0130990D03*
X0311200Y0129021D03*
X0311200Y0127053D03*
X0311200Y0125084D03*
X0311200Y0123116D03*
X0311200Y0121147D03*
X0311200Y0119179D03*
X0311200Y0117210D03*
X0311200Y0115242D03*
X0311200Y0113273D03*
X0311200Y0111305D03*
X0311200Y0109336D03*
X0311200Y0107368D03*
X0311200Y0105399D03*
D18*
X0313460Y0052567D03*
X0317200Y0052567D03*
X0320940Y0052567D03*
X0320940Y0042330D03*
X0317200Y0042330D03*
X0313460Y0042330D03*
X0298540Y0301230D03*
X0294800Y0301230D03*
X0291060Y0301230D03*
X0291060Y0311466D03*
X0294800Y0311466D03*
X0298540Y0311466D03*
X0299640Y0342030D03*
X0295900Y0342030D03*
X0292160Y0342030D03*
X0292160Y0352266D03*
X0295900Y0352266D03*
X0299640Y0352266D03*
D19*
X0223574Y0085972D03*
X0223574Y0076524D03*
X0207826Y0076524D03*
X0207826Y0085972D03*
D20*
X0382461Y0139080D03*
X0382461Y0141049D03*
X0382461Y0143017D03*
X0382461Y0144986D03*
X0382461Y0146954D03*
X0382461Y0148923D03*
X0382461Y0150891D03*
X0382461Y0152860D03*
X0401359Y0152860D03*
X0401359Y0150891D03*
X0401359Y0148923D03*
X0401359Y0146954D03*
X0401359Y0144986D03*
X0401359Y0143017D03*
X0401359Y0141049D03*
X0401359Y0139080D03*
X0401359Y0291006D03*
X0401359Y0292975D03*
X0401359Y0294943D03*
X0401359Y0296912D03*
X0401359Y0298880D03*
X0401359Y0300849D03*
X0401359Y0302817D03*
X0401359Y0304786D03*
X0382461Y0304786D03*
X0382461Y0302817D03*
X0382461Y0300849D03*
X0382461Y0298880D03*
X0382461Y0296912D03*
X0382461Y0294943D03*
X0382461Y0292975D03*
X0382461Y0291006D03*
X0382361Y0441758D03*
X0382361Y0443727D03*
X0382361Y0445695D03*
X0382361Y0447664D03*
X0382361Y0449632D03*
X0382361Y0451601D03*
X0382361Y0453569D03*
X0382361Y0455538D03*
X0401259Y0455538D03*
X0401259Y0453569D03*
X0401259Y0451601D03*
X0401259Y0449632D03*
X0401259Y0447664D03*
X0401259Y0445695D03*
X0401259Y0443727D03*
X0401259Y0441758D03*
D21*
X0398700Y0439199D03*
X0396731Y0439199D03*
X0394763Y0439199D03*
X0392794Y0439199D03*
X0390826Y0439199D03*
X0388857Y0439199D03*
X0386889Y0439199D03*
X0384920Y0439199D03*
X0384920Y0458097D03*
X0386889Y0458097D03*
X0388857Y0458097D03*
X0390826Y0458097D03*
X0392794Y0458097D03*
X0394763Y0458097D03*
X0396731Y0458097D03*
X0398700Y0458097D03*
X0398800Y0307345D03*
X0396831Y0307345D03*
X0394863Y0307345D03*
X0392894Y0307345D03*
X0390926Y0307345D03*
X0388957Y0307345D03*
X0386989Y0307345D03*
X0385020Y0307345D03*
X0385020Y0288447D03*
X0386989Y0288447D03*
X0388957Y0288447D03*
X0390926Y0288447D03*
X0392894Y0288447D03*
X0394863Y0288447D03*
X0396831Y0288447D03*
X0398800Y0288447D03*
X0398800Y0155419D03*
X0396831Y0155419D03*
X0394863Y0155419D03*
X0392894Y0155419D03*
X0390926Y0155419D03*
X0388957Y0155419D03*
X0386989Y0155419D03*
X0385020Y0155419D03*
X0385020Y0136521D03*
X0386989Y0136521D03*
X0388957Y0136521D03*
X0390926Y0136521D03*
X0392894Y0136521D03*
X0394863Y0136521D03*
X0396831Y0136521D03*
X0398800Y0136521D03*
D22*
X0457610Y0129966D03*
X0457690Y0146874D03*
X0457690Y0164866D03*
X0494390Y0181730D03*
X0494390Y0199722D03*
X0497210Y0233004D03*
X0497210Y0250996D03*
X0458610Y0268100D03*
X0458610Y0286092D03*
X0458990Y0303700D03*
X0458990Y0321692D03*
X0496390Y0337604D03*
X0496390Y0355596D03*
X0495710Y0385152D03*
X0495710Y0403144D03*
X0458710Y0420352D03*
X0458710Y0438344D03*
X0458990Y0457652D03*
X0458990Y0475644D03*
X0496390Y0491752D03*
X0496390Y0509744D03*
X0102411Y0418544D03*
X0102411Y0400552D03*
X0457610Y0111974D03*
X0495910Y0095822D03*
X0495910Y0077830D03*
D23*
X0467643Y0086826D03*
X0485878Y0120970D03*
X0485957Y0155870D03*
X0466122Y0190726D03*
X0468943Y0242000D03*
X0486878Y0277096D03*
X0487257Y0312696D03*
X0468122Y0346600D03*
X0467443Y0394148D03*
X0486978Y0429348D03*
X0487257Y0466648D03*
X0468122Y0500748D03*
X0130679Y0409548D03*
D24*
X0417299Y0433148D03*
X0440921Y0433148D03*
X0440321Y0280296D03*
X0416699Y0280296D03*
X0416599Y0131070D03*
X0440221Y0131070D03*
D25*
X0485476Y0056348D03*
X0493744Y0056348D03*
X0493744Y0046348D03*
X0485476Y0046348D03*
X0485476Y0036348D03*
X0493744Y0036348D03*
X0493744Y0026348D03*
X0485476Y0026348D03*
X0275500Y0298714D03*
X0275500Y0306982D03*
X0275500Y0327314D03*
X0275500Y0335582D03*
X0211646Y0320418D03*
X0203378Y0320418D03*
X0218266Y0421648D03*
X0226534Y0421648D03*
X0361500Y0481561D03*
X0361500Y0489829D03*
X0156734Y0189648D03*
X0156734Y0181348D03*
X0156734Y0173348D03*
X0148466Y0173348D03*
X0148466Y0181348D03*
X0148466Y0189648D03*
D26*
X0142131Y0102888D03*
X0142131Y0095408D03*
X0133469Y0099148D03*
X0424886Y0032588D03*
X0424886Y0025108D03*
X0434335Y0028848D03*
D27*
X0530410Y0068454D03*
X0530410Y0098887D03*
X0530610Y0168854D03*
X0530610Y0199287D03*
X0530710Y0224680D03*
X0530710Y0255113D03*
X0530610Y0338880D03*
X0530610Y0369313D03*
X0530310Y0387031D03*
X0530310Y0417465D03*
D28*
X0516994Y0484648D03*
X0547427Y0484648D03*
X0123717Y0248559D03*
X0093283Y0248559D03*
D29*
X0198884Y0369393D03*
X0200853Y0369393D03*
X0202821Y0369393D03*
X0204790Y0369393D03*
X0206758Y0369393D03*
X0208727Y0369393D03*
X0210695Y0369393D03*
X0212664Y0369393D03*
X0214632Y0369393D03*
X0216601Y0369393D03*
X0218569Y0369393D03*
X0220538Y0369393D03*
X0220538Y0388703D03*
X0218569Y0388703D03*
X0216601Y0388703D03*
X0214632Y0388703D03*
X0212664Y0388703D03*
X0210695Y0388703D03*
X0208727Y0388703D03*
X0206758Y0388703D03*
X0204790Y0388703D03*
X0202821Y0388703D03*
X0200853Y0388703D03*
X0198884Y0388703D03*
D30*
X0196119Y0384954D03*
X0196119Y0382985D03*
X0196119Y0381017D03*
X0196119Y0379048D03*
X0196119Y0377080D03*
X0196119Y0375111D03*
X0196119Y0373143D03*
X0223303Y0373143D03*
X0223303Y0375111D03*
X0223303Y0377080D03*
X0223303Y0379048D03*
X0223303Y0381017D03*
X0223303Y0382985D03*
X0223303Y0384954D03*
D31*
X0219652Y0384991D02*
X0215272Y0384991D01*
X0215272Y0385052D02*
X0215272Y0379442D01*
X0219652Y0379442D01*
X0219652Y0385052D01*
X0215272Y0385052D01*
X0215272Y0384892D02*
X0219652Y0384892D01*
X0219652Y0384794D02*
X0215272Y0384794D01*
X0215272Y0384695D02*
X0219652Y0384695D01*
X0219652Y0384597D02*
X0215272Y0384597D01*
X0215272Y0384498D02*
X0219652Y0384498D01*
X0219652Y0384400D02*
X0215272Y0384400D01*
X0215272Y0384301D02*
X0219652Y0384301D01*
X0219652Y0384203D02*
X0215272Y0384203D01*
X0215272Y0384104D02*
X0219652Y0384104D01*
X0219652Y0384006D02*
X0215272Y0384006D01*
X0215272Y0383907D02*
X0219652Y0383907D01*
X0219652Y0383809D02*
X0215272Y0383809D01*
X0215272Y0383710D02*
X0219652Y0383710D01*
X0219652Y0383612D02*
X0215272Y0383612D01*
X0215272Y0383513D02*
X0219652Y0383513D01*
X0219652Y0383415D02*
X0215272Y0383415D01*
X0215272Y0383316D02*
X0219652Y0383316D01*
X0219652Y0383218D02*
X0215272Y0383218D01*
X0215272Y0383119D02*
X0219652Y0383119D01*
X0219652Y0383021D02*
X0215272Y0383021D01*
X0215272Y0382922D02*
X0219652Y0382922D01*
X0219652Y0382824D02*
X0215272Y0382824D01*
X0215272Y0382725D02*
X0219652Y0382725D01*
X0219652Y0382627D02*
X0215272Y0382627D01*
X0215272Y0382528D02*
X0219652Y0382528D01*
X0219652Y0382429D02*
X0215272Y0382429D01*
X0215272Y0382331D02*
X0219652Y0382331D01*
X0219652Y0382232D02*
X0215272Y0382232D01*
X0215272Y0382134D02*
X0219652Y0382134D01*
X0219652Y0382035D02*
X0215272Y0382035D01*
X0215272Y0381937D02*
X0219652Y0381937D01*
X0219652Y0381838D02*
X0215272Y0381838D01*
X0215272Y0381740D02*
X0219652Y0381740D01*
X0219652Y0381641D02*
X0215272Y0381641D01*
X0215272Y0381543D02*
X0219652Y0381543D01*
X0219652Y0381444D02*
X0215272Y0381444D01*
X0215272Y0381346D02*
X0219652Y0381346D01*
X0219652Y0381247D02*
X0215272Y0381247D01*
X0215272Y0381149D02*
X0219652Y0381149D01*
X0219652Y0381050D02*
X0215272Y0381050D01*
X0215272Y0380952D02*
X0219652Y0380952D01*
X0219652Y0380853D02*
X0215272Y0380853D01*
X0215272Y0380755D02*
X0219652Y0380755D01*
X0219652Y0380656D02*
X0215272Y0380656D01*
X0215272Y0380558D02*
X0219652Y0380558D01*
X0219652Y0380459D02*
X0215272Y0380459D01*
X0215272Y0380361D02*
X0219652Y0380361D01*
X0219652Y0380262D02*
X0215272Y0380262D01*
X0215272Y0380164D02*
X0219652Y0380164D01*
X0219652Y0380065D02*
X0215272Y0380065D01*
X0215272Y0379967D02*
X0219652Y0379967D01*
X0219652Y0379868D02*
X0215272Y0379868D01*
X0215272Y0379770D02*
X0219652Y0379770D01*
X0219652Y0379671D02*
X0215272Y0379671D01*
X0215272Y0379573D02*
X0219652Y0379573D01*
X0219652Y0379474D02*
X0215272Y0379474D01*
X0214485Y0379474D02*
X0210105Y0379474D01*
X0210105Y0379442D02*
X0210105Y0385052D01*
X0214485Y0385052D01*
X0214485Y0379442D01*
X0210105Y0379442D01*
X0210105Y0379573D02*
X0214485Y0379573D01*
X0214485Y0379671D02*
X0210105Y0379671D01*
X0210105Y0379770D02*
X0214485Y0379770D01*
X0214485Y0379868D02*
X0210105Y0379868D01*
X0210105Y0379967D02*
X0214485Y0379967D01*
X0214485Y0380065D02*
X0210105Y0380065D01*
X0210105Y0380164D02*
X0214485Y0380164D01*
X0214485Y0380262D02*
X0210105Y0380262D01*
X0210105Y0380361D02*
X0214485Y0380361D01*
X0214485Y0380459D02*
X0210105Y0380459D01*
X0210105Y0380558D02*
X0214485Y0380558D01*
X0214485Y0380656D02*
X0210105Y0380656D01*
X0210105Y0380755D02*
X0214485Y0380755D01*
X0214485Y0380853D02*
X0210105Y0380853D01*
X0210105Y0380952D02*
X0214485Y0380952D01*
X0214485Y0381050D02*
X0210105Y0381050D01*
X0210105Y0381149D02*
X0214485Y0381149D01*
X0214485Y0381247D02*
X0210105Y0381247D01*
X0210105Y0381346D02*
X0214485Y0381346D01*
X0214485Y0381444D02*
X0210105Y0381444D01*
X0210105Y0381543D02*
X0214485Y0381543D01*
X0214485Y0381641D02*
X0210105Y0381641D01*
X0210105Y0381740D02*
X0214485Y0381740D01*
X0214485Y0381838D02*
X0210105Y0381838D01*
X0210105Y0381937D02*
X0214485Y0381937D01*
X0214485Y0382035D02*
X0210105Y0382035D01*
X0210105Y0382134D02*
X0214485Y0382134D01*
X0214485Y0382232D02*
X0210105Y0382232D01*
X0210105Y0382331D02*
X0214485Y0382331D01*
X0214485Y0382429D02*
X0210105Y0382429D01*
X0210105Y0382528D02*
X0214485Y0382528D01*
X0214485Y0382627D02*
X0210105Y0382627D01*
X0210105Y0382725D02*
X0214485Y0382725D01*
X0214485Y0382824D02*
X0210105Y0382824D01*
X0210105Y0382922D02*
X0214485Y0382922D01*
X0214485Y0383021D02*
X0210105Y0383021D01*
X0210105Y0383119D02*
X0214485Y0383119D01*
X0214485Y0383218D02*
X0210105Y0383218D01*
X0210105Y0383316D02*
X0214485Y0383316D01*
X0214485Y0383415D02*
X0210105Y0383415D01*
X0210105Y0383513D02*
X0214485Y0383513D01*
X0214485Y0383612D02*
X0210105Y0383612D01*
X0210105Y0383710D02*
X0214485Y0383710D01*
X0214485Y0383809D02*
X0210105Y0383809D01*
X0210105Y0383907D02*
X0214485Y0383907D01*
X0214485Y0384006D02*
X0210105Y0384006D01*
X0210105Y0384104D02*
X0214485Y0384104D01*
X0214485Y0384203D02*
X0210105Y0384203D01*
X0210105Y0384301D02*
X0214485Y0384301D01*
X0214485Y0384400D02*
X0210105Y0384400D01*
X0210105Y0384498D02*
X0214485Y0384498D01*
X0214485Y0384597D02*
X0210105Y0384597D01*
X0210105Y0384695D02*
X0214485Y0384695D01*
X0214485Y0384794D02*
X0210105Y0384794D01*
X0210105Y0384892D02*
X0214485Y0384892D01*
X0214485Y0384991D02*
X0210105Y0384991D01*
X0209317Y0384991D02*
X0204937Y0384991D01*
X0204937Y0385052D02*
X0204937Y0379442D01*
X0209317Y0379442D01*
X0209317Y0385052D01*
X0204937Y0385052D01*
X0204937Y0384892D02*
X0209317Y0384892D01*
X0209317Y0384794D02*
X0204937Y0384794D01*
X0204937Y0384695D02*
X0209317Y0384695D01*
X0209317Y0384597D02*
X0204937Y0384597D01*
X0204937Y0384498D02*
X0209317Y0384498D01*
X0209317Y0384400D02*
X0204937Y0384400D01*
X0204937Y0384301D02*
X0209317Y0384301D01*
X0209317Y0384203D02*
X0204937Y0384203D01*
X0204937Y0384104D02*
X0209317Y0384104D01*
X0209317Y0384006D02*
X0204937Y0384006D01*
X0204937Y0383907D02*
X0209317Y0383907D01*
X0209317Y0383809D02*
X0204937Y0383809D01*
X0204937Y0383710D02*
X0209317Y0383710D01*
X0209317Y0383612D02*
X0204937Y0383612D01*
X0204937Y0383513D02*
X0209317Y0383513D01*
X0209317Y0383415D02*
X0204937Y0383415D01*
X0204937Y0383316D02*
X0209317Y0383316D01*
X0209317Y0383218D02*
X0204937Y0383218D01*
X0204937Y0383119D02*
X0209317Y0383119D01*
X0209317Y0383021D02*
X0204937Y0383021D01*
X0204937Y0382922D02*
X0209317Y0382922D01*
X0209317Y0382824D02*
X0204937Y0382824D01*
X0204937Y0382725D02*
X0209317Y0382725D01*
X0209317Y0382627D02*
X0204937Y0382627D01*
X0204937Y0382528D02*
X0209317Y0382528D01*
X0209317Y0382429D02*
X0204937Y0382429D01*
X0204937Y0382331D02*
X0209317Y0382331D01*
X0209317Y0382232D02*
X0204937Y0382232D01*
X0204937Y0382134D02*
X0209317Y0382134D01*
X0209317Y0382035D02*
X0204937Y0382035D01*
X0204937Y0381937D02*
X0209317Y0381937D01*
X0209317Y0381838D02*
X0204937Y0381838D01*
X0204937Y0381740D02*
X0209317Y0381740D01*
X0209317Y0381641D02*
X0204937Y0381641D01*
X0204937Y0381543D02*
X0209317Y0381543D01*
X0209317Y0381444D02*
X0204937Y0381444D01*
X0204937Y0381346D02*
X0209317Y0381346D01*
X0209317Y0381247D02*
X0204937Y0381247D01*
X0204937Y0381149D02*
X0209317Y0381149D01*
X0209317Y0381050D02*
X0204937Y0381050D01*
X0204937Y0380952D02*
X0209317Y0380952D01*
X0209317Y0380853D02*
X0204937Y0380853D01*
X0204937Y0380755D02*
X0209317Y0380755D01*
X0209317Y0380656D02*
X0204937Y0380656D01*
X0204937Y0380558D02*
X0209317Y0380558D01*
X0209317Y0380459D02*
X0204937Y0380459D01*
X0204937Y0380361D02*
X0209317Y0380361D01*
X0209317Y0380262D02*
X0204937Y0380262D01*
X0204937Y0380164D02*
X0209317Y0380164D01*
X0209317Y0380065D02*
X0204937Y0380065D01*
X0204937Y0379967D02*
X0209317Y0379967D01*
X0209317Y0379868D02*
X0204937Y0379868D01*
X0204937Y0379770D02*
X0209317Y0379770D01*
X0209317Y0379671D02*
X0204937Y0379671D01*
X0204937Y0379573D02*
X0209317Y0379573D01*
X0209317Y0379474D02*
X0204937Y0379474D01*
X0204150Y0379474D02*
X0199770Y0379474D01*
X0199770Y0379442D02*
X0199770Y0385052D01*
X0204150Y0385052D01*
X0204150Y0379442D01*
X0199770Y0379442D01*
X0199770Y0379573D02*
X0204150Y0379573D01*
X0204150Y0379671D02*
X0199770Y0379671D01*
X0199770Y0379770D02*
X0204150Y0379770D01*
X0204150Y0379868D02*
X0199770Y0379868D01*
X0199770Y0379967D02*
X0204150Y0379967D01*
X0204150Y0380065D02*
X0199770Y0380065D01*
X0199770Y0380164D02*
X0204150Y0380164D01*
X0204150Y0380262D02*
X0199770Y0380262D01*
X0199770Y0380361D02*
X0204150Y0380361D01*
X0204150Y0380459D02*
X0199770Y0380459D01*
X0199770Y0380558D02*
X0204150Y0380558D01*
X0204150Y0380656D02*
X0199770Y0380656D01*
X0199770Y0380755D02*
X0204150Y0380755D01*
X0204150Y0380853D02*
X0199770Y0380853D01*
X0199770Y0380952D02*
X0204150Y0380952D01*
X0204150Y0381050D02*
X0199770Y0381050D01*
X0199770Y0381149D02*
X0204150Y0381149D01*
X0204150Y0381247D02*
X0199770Y0381247D01*
X0199770Y0381346D02*
X0204150Y0381346D01*
X0204150Y0381444D02*
X0199770Y0381444D01*
X0199770Y0381543D02*
X0204150Y0381543D01*
X0204150Y0381641D02*
X0199770Y0381641D01*
X0199770Y0381740D02*
X0204150Y0381740D01*
X0204150Y0381838D02*
X0199770Y0381838D01*
X0199770Y0381937D02*
X0204150Y0381937D01*
X0204150Y0382035D02*
X0199770Y0382035D01*
X0199770Y0382134D02*
X0204150Y0382134D01*
X0204150Y0382232D02*
X0199770Y0382232D01*
X0199770Y0382331D02*
X0204150Y0382331D01*
X0204150Y0382429D02*
X0199770Y0382429D01*
X0199770Y0382528D02*
X0204150Y0382528D01*
X0204150Y0382627D02*
X0199770Y0382627D01*
X0199770Y0382725D02*
X0204150Y0382725D01*
X0204150Y0382824D02*
X0199770Y0382824D01*
X0199770Y0382922D02*
X0204150Y0382922D01*
X0204150Y0383021D02*
X0199770Y0383021D01*
X0199770Y0383119D02*
X0204150Y0383119D01*
X0204150Y0383218D02*
X0199770Y0383218D01*
X0199770Y0383316D02*
X0204150Y0383316D01*
X0204150Y0383415D02*
X0199770Y0383415D01*
X0199770Y0383513D02*
X0204150Y0383513D01*
X0204150Y0383612D02*
X0199770Y0383612D01*
X0199770Y0383710D02*
X0204150Y0383710D01*
X0204150Y0383809D02*
X0199770Y0383809D01*
X0199770Y0383907D02*
X0204150Y0383907D01*
X0204150Y0384006D02*
X0199770Y0384006D01*
X0199770Y0384104D02*
X0204150Y0384104D01*
X0204150Y0384203D02*
X0199770Y0384203D01*
X0199770Y0384301D02*
X0204150Y0384301D01*
X0204150Y0384400D02*
X0199770Y0384400D01*
X0199770Y0384498D02*
X0204150Y0384498D01*
X0204150Y0384597D02*
X0199770Y0384597D01*
X0199770Y0384695D02*
X0204150Y0384695D01*
X0204150Y0384794D02*
X0199770Y0384794D01*
X0199770Y0384892D02*
X0204150Y0384892D01*
X0204150Y0384991D02*
X0199770Y0384991D01*
X0199770Y0378654D02*
X0199770Y0373044D01*
X0204150Y0373044D01*
X0204150Y0378654D01*
X0199770Y0378654D01*
X0199770Y0378588D02*
X0204150Y0378588D01*
X0204150Y0378489D02*
X0199770Y0378489D01*
X0199770Y0378391D02*
X0204150Y0378391D01*
X0204150Y0378292D02*
X0199770Y0378292D01*
X0199770Y0378194D02*
X0204150Y0378194D01*
X0204150Y0378095D02*
X0199770Y0378095D01*
X0199770Y0377996D02*
X0204150Y0377996D01*
X0204150Y0377898D02*
X0199770Y0377898D01*
X0199770Y0377799D02*
X0204150Y0377799D01*
X0204150Y0377701D02*
X0199770Y0377701D01*
X0199770Y0377602D02*
X0204150Y0377602D01*
X0204150Y0377504D02*
X0199770Y0377504D01*
X0199770Y0377405D02*
X0204150Y0377405D01*
X0204150Y0377307D02*
X0199770Y0377307D01*
X0199770Y0377208D02*
X0204150Y0377208D01*
X0204150Y0377110D02*
X0199770Y0377110D01*
X0199770Y0377011D02*
X0204150Y0377011D01*
X0204150Y0376913D02*
X0199770Y0376913D01*
X0199770Y0376814D02*
X0204150Y0376814D01*
X0204150Y0376716D02*
X0199770Y0376716D01*
X0199770Y0376617D02*
X0204150Y0376617D01*
X0204150Y0376519D02*
X0199770Y0376519D01*
X0199770Y0376420D02*
X0204150Y0376420D01*
X0204150Y0376322D02*
X0199770Y0376322D01*
X0199770Y0376223D02*
X0204150Y0376223D01*
X0204150Y0376125D02*
X0199770Y0376125D01*
X0199770Y0376026D02*
X0204150Y0376026D01*
X0204150Y0375928D02*
X0199770Y0375928D01*
X0199770Y0375829D02*
X0204150Y0375829D01*
X0204150Y0375731D02*
X0199770Y0375731D01*
X0199770Y0375632D02*
X0204150Y0375632D01*
X0204150Y0375534D02*
X0199770Y0375534D01*
X0199770Y0375435D02*
X0204150Y0375435D01*
X0204150Y0375337D02*
X0199770Y0375337D01*
X0199770Y0375238D02*
X0204150Y0375238D01*
X0204150Y0375140D02*
X0199770Y0375140D01*
X0199770Y0375041D02*
X0204150Y0375041D01*
X0204150Y0374943D02*
X0199770Y0374943D01*
X0199770Y0374844D02*
X0204150Y0374844D01*
X0204150Y0374746D02*
X0199770Y0374746D01*
X0199770Y0374647D02*
X0204150Y0374647D01*
X0204150Y0374549D02*
X0199770Y0374549D01*
X0199770Y0374450D02*
X0204150Y0374450D01*
X0204150Y0374352D02*
X0199770Y0374352D01*
X0199770Y0374253D02*
X0204150Y0374253D01*
X0204150Y0374155D02*
X0199770Y0374155D01*
X0199770Y0374056D02*
X0204150Y0374056D01*
X0204150Y0373958D02*
X0199770Y0373958D01*
X0199770Y0373859D02*
X0204150Y0373859D01*
X0204150Y0373760D02*
X0199770Y0373760D01*
X0199770Y0373662D02*
X0204150Y0373662D01*
X0204150Y0373563D02*
X0199770Y0373563D01*
X0199770Y0373465D02*
X0204150Y0373465D01*
X0204150Y0373366D02*
X0199770Y0373366D01*
X0199770Y0373268D02*
X0204150Y0373268D01*
X0204150Y0373169D02*
X0199770Y0373169D01*
X0199770Y0373071D02*
X0204150Y0373071D01*
X0204937Y0373071D02*
X0209317Y0373071D01*
X0209317Y0373044D02*
X0209317Y0378654D01*
X0204937Y0378654D01*
X0204937Y0373044D01*
X0209317Y0373044D01*
X0209317Y0373169D02*
X0204937Y0373169D01*
X0204937Y0373268D02*
X0209317Y0373268D01*
X0209317Y0373366D02*
X0204937Y0373366D01*
X0204937Y0373465D02*
X0209317Y0373465D01*
X0209317Y0373563D02*
X0204937Y0373563D01*
X0204937Y0373662D02*
X0209317Y0373662D01*
X0209317Y0373760D02*
X0204937Y0373760D01*
X0204937Y0373859D02*
X0209317Y0373859D01*
X0209317Y0373958D02*
X0204937Y0373958D01*
X0204937Y0374056D02*
X0209317Y0374056D01*
X0209317Y0374155D02*
X0204937Y0374155D01*
X0204937Y0374253D02*
X0209317Y0374253D01*
X0209317Y0374352D02*
X0204937Y0374352D01*
X0204937Y0374450D02*
X0209317Y0374450D01*
X0209317Y0374549D02*
X0204937Y0374549D01*
X0204937Y0374647D02*
X0209317Y0374647D01*
X0209317Y0374746D02*
X0204937Y0374746D01*
X0204937Y0374844D02*
X0209317Y0374844D01*
X0209317Y0374943D02*
X0204937Y0374943D01*
X0204937Y0375041D02*
X0209317Y0375041D01*
X0209317Y0375140D02*
X0204937Y0375140D01*
X0204937Y0375238D02*
X0209317Y0375238D01*
X0209317Y0375337D02*
X0204937Y0375337D01*
X0204937Y0375435D02*
X0209317Y0375435D01*
X0209317Y0375534D02*
X0204937Y0375534D01*
X0204937Y0375632D02*
X0209317Y0375632D01*
X0209317Y0375731D02*
X0204937Y0375731D01*
X0204937Y0375829D02*
X0209317Y0375829D01*
X0209317Y0375928D02*
X0204937Y0375928D01*
X0204937Y0376026D02*
X0209317Y0376026D01*
X0209317Y0376125D02*
X0204937Y0376125D01*
X0204937Y0376223D02*
X0209317Y0376223D01*
X0209317Y0376322D02*
X0204937Y0376322D01*
X0204937Y0376420D02*
X0209317Y0376420D01*
X0209317Y0376519D02*
X0204937Y0376519D01*
X0204937Y0376617D02*
X0209317Y0376617D01*
X0209317Y0376716D02*
X0204937Y0376716D01*
X0204937Y0376814D02*
X0209317Y0376814D01*
X0209317Y0376913D02*
X0204937Y0376913D01*
X0204937Y0377011D02*
X0209317Y0377011D01*
X0209317Y0377110D02*
X0204937Y0377110D01*
X0204937Y0377208D02*
X0209317Y0377208D01*
X0209317Y0377307D02*
X0204937Y0377307D01*
X0204937Y0377405D02*
X0209317Y0377405D01*
X0209317Y0377504D02*
X0204937Y0377504D01*
X0204937Y0377602D02*
X0209317Y0377602D01*
X0209317Y0377701D02*
X0204937Y0377701D01*
X0204937Y0377799D02*
X0209317Y0377799D01*
X0209317Y0377898D02*
X0204937Y0377898D01*
X0204937Y0377996D02*
X0209317Y0377996D01*
X0209317Y0378095D02*
X0204937Y0378095D01*
X0204937Y0378194D02*
X0209317Y0378194D01*
X0209317Y0378292D02*
X0204937Y0378292D01*
X0204937Y0378391D02*
X0209317Y0378391D01*
X0209317Y0378489D02*
X0204937Y0378489D01*
X0204937Y0378588D02*
X0209317Y0378588D01*
X0210105Y0378588D02*
X0214485Y0378588D01*
X0214485Y0378654D02*
X0210105Y0378654D01*
X0210105Y0373044D01*
X0214485Y0373044D01*
X0214485Y0378654D01*
X0214485Y0378489D02*
X0210105Y0378489D01*
X0210105Y0378391D02*
X0214485Y0378391D01*
X0214485Y0378292D02*
X0210105Y0378292D01*
X0210105Y0378194D02*
X0214485Y0378194D01*
X0214485Y0378095D02*
X0210105Y0378095D01*
X0210105Y0377996D02*
X0214485Y0377996D01*
X0214485Y0377898D02*
X0210105Y0377898D01*
X0210105Y0377799D02*
X0214485Y0377799D01*
X0214485Y0377701D02*
X0210105Y0377701D01*
X0210105Y0377602D02*
X0214485Y0377602D01*
X0214485Y0377504D02*
X0210105Y0377504D01*
X0210105Y0377405D02*
X0214485Y0377405D01*
X0214485Y0377307D02*
X0210105Y0377307D01*
X0210105Y0377208D02*
X0214485Y0377208D01*
X0214485Y0377110D02*
X0210105Y0377110D01*
X0210105Y0377011D02*
X0214485Y0377011D01*
X0214485Y0376913D02*
X0210105Y0376913D01*
X0210105Y0376814D02*
X0214485Y0376814D01*
X0214485Y0376716D02*
X0210105Y0376716D01*
X0210105Y0376617D02*
X0214485Y0376617D01*
X0214485Y0376519D02*
X0210105Y0376519D01*
X0210105Y0376420D02*
X0214485Y0376420D01*
X0214485Y0376322D02*
X0210105Y0376322D01*
X0210105Y0376223D02*
X0214485Y0376223D01*
X0214485Y0376125D02*
X0210105Y0376125D01*
X0210105Y0376026D02*
X0214485Y0376026D01*
X0214485Y0375928D02*
X0210105Y0375928D01*
X0210105Y0375829D02*
X0214485Y0375829D01*
X0214485Y0375731D02*
X0210105Y0375731D01*
X0210105Y0375632D02*
X0214485Y0375632D01*
X0214485Y0375534D02*
X0210105Y0375534D01*
X0210105Y0375435D02*
X0214485Y0375435D01*
X0214485Y0375337D02*
X0210105Y0375337D01*
X0210105Y0375238D02*
X0214485Y0375238D01*
X0214485Y0375140D02*
X0210105Y0375140D01*
X0210105Y0375041D02*
X0214485Y0375041D01*
X0214485Y0374943D02*
X0210105Y0374943D01*
X0210105Y0374844D02*
X0214485Y0374844D01*
X0214485Y0374746D02*
X0210105Y0374746D01*
X0210105Y0374647D02*
X0214485Y0374647D01*
X0214485Y0374549D02*
X0210105Y0374549D01*
X0210105Y0374450D02*
X0214485Y0374450D01*
X0214485Y0374352D02*
X0210105Y0374352D01*
X0210105Y0374253D02*
X0214485Y0374253D01*
X0214485Y0374155D02*
X0210105Y0374155D01*
X0210105Y0374056D02*
X0214485Y0374056D01*
X0214485Y0373958D02*
X0210105Y0373958D01*
X0210105Y0373859D02*
X0214485Y0373859D01*
X0214485Y0373760D02*
X0210105Y0373760D01*
X0210105Y0373662D02*
X0214485Y0373662D01*
X0214485Y0373563D02*
X0210105Y0373563D01*
X0210105Y0373465D02*
X0214485Y0373465D01*
X0214485Y0373366D02*
X0210105Y0373366D01*
X0210105Y0373268D02*
X0214485Y0373268D01*
X0214485Y0373169D02*
X0210105Y0373169D01*
X0210105Y0373071D02*
X0214485Y0373071D01*
X0215272Y0373071D02*
X0219652Y0373071D01*
X0219652Y0373044D02*
X0219652Y0378654D01*
X0215272Y0378654D01*
X0215272Y0373044D01*
X0219652Y0373044D01*
X0219652Y0373169D02*
X0215272Y0373169D01*
X0215272Y0373268D02*
X0219652Y0373268D01*
X0219652Y0373366D02*
X0215272Y0373366D01*
X0215272Y0373465D02*
X0219652Y0373465D01*
X0219652Y0373563D02*
X0215272Y0373563D01*
X0215272Y0373662D02*
X0219652Y0373662D01*
X0219652Y0373760D02*
X0215272Y0373760D01*
X0215272Y0373859D02*
X0219652Y0373859D01*
X0219652Y0373958D02*
X0215272Y0373958D01*
X0215272Y0374056D02*
X0219652Y0374056D01*
X0219652Y0374155D02*
X0215272Y0374155D01*
X0215272Y0374253D02*
X0219652Y0374253D01*
X0219652Y0374352D02*
X0215272Y0374352D01*
X0215272Y0374450D02*
X0219652Y0374450D01*
X0219652Y0374549D02*
X0215272Y0374549D01*
X0215272Y0374647D02*
X0219652Y0374647D01*
X0219652Y0374746D02*
X0215272Y0374746D01*
X0215272Y0374844D02*
X0219652Y0374844D01*
X0219652Y0374943D02*
X0215272Y0374943D01*
X0215272Y0375041D02*
X0219652Y0375041D01*
X0219652Y0375140D02*
X0215272Y0375140D01*
X0215272Y0375238D02*
X0219652Y0375238D01*
X0219652Y0375337D02*
X0215272Y0375337D01*
X0215272Y0375435D02*
X0219652Y0375435D01*
X0219652Y0375534D02*
X0215272Y0375534D01*
X0215272Y0375632D02*
X0219652Y0375632D01*
X0219652Y0375731D02*
X0215272Y0375731D01*
X0215272Y0375829D02*
X0219652Y0375829D01*
X0219652Y0375928D02*
X0215272Y0375928D01*
X0215272Y0376026D02*
X0219652Y0376026D01*
X0219652Y0376125D02*
X0215272Y0376125D01*
X0215272Y0376223D02*
X0219652Y0376223D01*
X0219652Y0376322D02*
X0215272Y0376322D01*
X0215272Y0376420D02*
X0219652Y0376420D01*
X0219652Y0376519D02*
X0215272Y0376519D01*
X0215272Y0376617D02*
X0219652Y0376617D01*
X0219652Y0376716D02*
X0215272Y0376716D01*
X0215272Y0376814D02*
X0219652Y0376814D01*
X0219652Y0376913D02*
X0215272Y0376913D01*
X0215272Y0377011D02*
X0219652Y0377011D01*
X0219652Y0377110D02*
X0215272Y0377110D01*
X0215272Y0377208D02*
X0219652Y0377208D01*
X0219652Y0377307D02*
X0215272Y0377307D01*
X0215272Y0377405D02*
X0219652Y0377405D01*
X0219652Y0377504D02*
X0215272Y0377504D01*
X0215272Y0377602D02*
X0219652Y0377602D01*
X0219652Y0377701D02*
X0215272Y0377701D01*
X0215272Y0377799D02*
X0219652Y0377799D01*
X0219652Y0377898D02*
X0215272Y0377898D01*
X0215272Y0377996D02*
X0219652Y0377996D01*
X0219652Y0378095D02*
X0215272Y0378095D01*
X0215272Y0378194D02*
X0219652Y0378194D01*
X0219652Y0378292D02*
X0215272Y0378292D01*
X0215272Y0378391D02*
X0219652Y0378391D01*
X0219652Y0378489D02*
X0215272Y0378489D01*
X0215272Y0378588D02*
X0219652Y0378588D01*
D32*
X0177600Y0376457D03*
X0166600Y0376457D03*
X0155600Y0376457D03*
X0155600Y0362639D03*
X0166600Y0362639D03*
X0177600Y0362639D03*
X0093400Y0505639D03*
X0081800Y0505639D03*
X0081800Y0519457D03*
X0093400Y0519457D03*
D33*
X0106948Y0497270D03*
X0106948Y0473648D03*
X0153411Y0409159D03*
X0153411Y0385537D03*
D34*
X0141977Y0436904D03*
X0123867Y0436904D03*
X0073907Y0336748D03*
X0055915Y0336748D03*
X0119845Y0309356D03*
X0137955Y0309356D03*
D35*
X0064911Y0365016D03*
D36*
X0089191Y0369748D03*
X0089191Y0357748D03*
X0094191Y0345748D03*
X0094191Y0333748D03*
X0108009Y0333748D03*
X0108009Y0345748D03*
X0103009Y0357748D03*
X0103009Y0369748D03*
X0103009Y0381748D03*
X0089191Y0381748D03*
X0094191Y0321748D03*
X0094191Y0309748D03*
X0094191Y0297748D03*
X0108009Y0297748D03*
X0108009Y0309748D03*
X0108009Y0321748D03*
X0305691Y0331548D03*
X0319509Y0331548D03*
X0319509Y0290748D03*
X0305691Y0290748D03*
D37*
X0267500Y0212501D03*
X0267500Y0206595D03*
D38*
X0128900Y0335537D03*
X0132922Y0463085D03*
D39*
X0382311Y0339096D03*
X0394909Y0339096D03*
X0394909Y0186470D03*
X0382311Y0186470D03*
D40*
X0389810Y0493049D03*
X0389810Y0505647D03*
D41*
X0315604Y0390402D02*
X0315038Y0390402D01*
X0315604Y0390402D02*
X0315604Y0387630D01*
X0315038Y0387630D01*
X0315038Y0390402D01*
X0315038Y0388007D02*
X0315604Y0388007D01*
X0315604Y0388384D02*
X0315038Y0388384D01*
X0315038Y0388761D02*
X0315604Y0388761D01*
X0315604Y0389138D02*
X0315038Y0389138D01*
X0315038Y0389515D02*
X0315604Y0389515D01*
X0315604Y0389892D02*
X0315038Y0389892D01*
X0315038Y0390269D02*
X0315604Y0390269D01*
X0313636Y0390402D02*
X0313070Y0390402D01*
X0313636Y0390402D02*
X0313636Y0387630D01*
X0313070Y0387630D01*
X0313070Y0390402D01*
X0313070Y0388007D02*
X0313636Y0388007D01*
X0313636Y0388384D02*
X0313070Y0388384D01*
X0313070Y0388761D02*
X0313636Y0388761D01*
X0313636Y0389138D02*
X0313070Y0389138D01*
X0313070Y0389515D02*
X0313636Y0389515D01*
X0313636Y0389892D02*
X0313070Y0389892D01*
X0313070Y0390269D02*
X0313636Y0390269D01*
X0311667Y0390402D02*
X0311101Y0390402D01*
X0311667Y0390402D02*
X0311667Y0387630D01*
X0311101Y0387630D01*
X0311101Y0390402D01*
X0311101Y0388007D02*
X0311667Y0388007D01*
X0311667Y0388384D02*
X0311101Y0388384D01*
X0311101Y0388761D02*
X0311667Y0388761D01*
X0311667Y0389138D02*
X0311101Y0389138D01*
X0311101Y0389515D02*
X0311667Y0389515D01*
X0311667Y0389892D02*
X0311101Y0389892D01*
X0311101Y0390269D02*
X0311667Y0390269D01*
X0309699Y0390402D02*
X0309133Y0390402D01*
X0309699Y0390402D02*
X0309699Y0387630D01*
X0309133Y0387630D01*
X0309133Y0390402D01*
X0309133Y0388007D02*
X0309699Y0388007D01*
X0309699Y0388384D02*
X0309133Y0388384D01*
X0309133Y0388761D02*
X0309699Y0388761D01*
X0309699Y0389138D02*
X0309133Y0389138D01*
X0309133Y0389515D02*
X0309699Y0389515D01*
X0309699Y0389892D02*
X0309133Y0389892D01*
X0309133Y0390269D02*
X0309699Y0390269D01*
X0307730Y0390402D02*
X0307164Y0390402D01*
X0307730Y0390402D02*
X0307730Y0387630D01*
X0307164Y0387630D01*
X0307164Y0390402D01*
X0307164Y0388007D02*
X0307730Y0388007D01*
X0307730Y0388384D02*
X0307164Y0388384D01*
X0307164Y0388761D02*
X0307730Y0388761D01*
X0307730Y0389138D02*
X0307164Y0389138D01*
X0307164Y0389515D02*
X0307730Y0389515D01*
X0307730Y0389892D02*
X0307164Y0389892D01*
X0307164Y0390269D02*
X0307730Y0390269D01*
X0305762Y0390402D02*
X0305196Y0390402D01*
X0305762Y0390402D02*
X0305762Y0387630D01*
X0305196Y0387630D01*
X0305196Y0390402D01*
X0305196Y0388007D02*
X0305762Y0388007D01*
X0305762Y0388384D02*
X0305196Y0388384D01*
X0305196Y0388761D02*
X0305762Y0388761D01*
X0305762Y0389138D02*
X0305196Y0389138D01*
X0305196Y0389515D02*
X0305762Y0389515D01*
X0305762Y0389892D02*
X0305196Y0389892D01*
X0305196Y0390269D02*
X0305762Y0390269D01*
X0303518Y0385952D02*
X0303518Y0385386D01*
X0300746Y0385386D01*
X0300746Y0385952D01*
X0303518Y0385952D01*
X0303518Y0385763D02*
X0300746Y0385763D01*
X0303518Y0383984D02*
X0303518Y0383418D01*
X0300746Y0383418D01*
X0300746Y0383984D01*
X0303518Y0383984D01*
X0303518Y0383795D02*
X0300746Y0383795D01*
X0303518Y0382015D02*
X0303518Y0381449D01*
X0300746Y0381449D01*
X0300746Y0382015D01*
X0303518Y0382015D01*
X0303518Y0381826D02*
X0300746Y0381826D01*
X0303518Y0380047D02*
X0303518Y0379481D01*
X0300746Y0379481D01*
X0300746Y0380047D01*
X0303518Y0380047D01*
X0303518Y0379858D02*
X0300746Y0379858D01*
X0303518Y0378078D02*
X0303518Y0377512D01*
X0300746Y0377512D01*
X0300746Y0378078D01*
X0303518Y0378078D01*
X0303518Y0377889D02*
X0300746Y0377889D01*
X0303518Y0376110D02*
X0303518Y0375544D01*
X0300746Y0375544D01*
X0300746Y0376110D01*
X0303518Y0376110D01*
X0303518Y0375921D02*
X0300746Y0375921D01*
X0305196Y0373866D02*
X0305762Y0373866D01*
X0305762Y0371094D01*
X0305196Y0371094D01*
X0305196Y0373866D01*
X0305196Y0371471D02*
X0305762Y0371471D01*
X0305762Y0371848D02*
X0305196Y0371848D01*
X0305196Y0372225D02*
X0305762Y0372225D01*
X0305762Y0372602D02*
X0305196Y0372602D01*
X0305196Y0372979D02*
X0305762Y0372979D01*
X0305762Y0373356D02*
X0305196Y0373356D01*
X0305196Y0373733D02*
X0305762Y0373733D01*
X0307164Y0373866D02*
X0307730Y0373866D01*
X0307730Y0371094D01*
X0307164Y0371094D01*
X0307164Y0373866D01*
X0307164Y0371471D02*
X0307730Y0371471D01*
X0307730Y0371848D02*
X0307164Y0371848D01*
X0307164Y0372225D02*
X0307730Y0372225D01*
X0307730Y0372602D02*
X0307164Y0372602D01*
X0307164Y0372979D02*
X0307730Y0372979D01*
X0307730Y0373356D02*
X0307164Y0373356D01*
X0307164Y0373733D02*
X0307730Y0373733D01*
X0309133Y0373866D02*
X0309699Y0373866D01*
X0309699Y0371094D01*
X0309133Y0371094D01*
X0309133Y0373866D01*
X0309133Y0371471D02*
X0309699Y0371471D01*
X0309699Y0371848D02*
X0309133Y0371848D01*
X0309133Y0372225D02*
X0309699Y0372225D01*
X0309699Y0372602D02*
X0309133Y0372602D01*
X0309133Y0372979D02*
X0309699Y0372979D01*
X0309699Y0373356D02*
X0309133Y0373356D01*
X0309133Y0373733D02*
X0309699Y0373733D01*
X0311101Y0373866D02*
X0311667Y0373866D01*
X0311667Y0371094D01*
X0311101Y0371094D01*
X0311101Y0373866D01*
X0311101Y0371471D02*
X0311667Y0371471D01*
X0311667Y0371848D02*
X0311101Y0371848D01*
X0311101Y0372225D02*
X0311667Y0372225D01*
X0311667Y0372602D02*
X0311101Y0372602D01*
X0311101Y0372979D02*
X0311667Y0372979D01*
X0311667Y0373356D02*
X0311101Y0373356D01*
X0311101Y0373733D02*
X0311667Y0373733D01*
X0313070Y0373866D02*
X0313636Y0373866D01*
X0313636Y0371094D01*
X0313070Y0371094D01*
X0313070Y0373866D01*
X0313070Y0371471D02*
X0313636Y0371471D01*
X0313636Y0371848D02*
X0313070Y0371848D01*
X0313070Y0372225D02*
X0313636Y0372225D01*
X0313636Y0372602D02*
X0313070Y0372602D01*
X0313070Y0372979D02*
X0313636Y0372979D01*
X0313636Y0373356D02*
X0313070Y0373356D01*
X0313070Y0373733D02*
X0313636Y0373733D01*
X0315038Y0373866D02*
X0315604Y0373866D01*
X0315604Y0371094D01*
X0315038Y0371094D01*
X0315038Y0373866D01*
X0315038Y0371471D02*
X0315604Y0371471D01*
X0315604Y0371848D02*
X0315038Y0371848D01*
X0315038Y0372225D02*
X0315604Y0372225D01*
X0315604Y0372602D02*
X0315038Y0372602D01*
X0315038Y0372979D02*
X0315604Y0372979D01*
X0315604Y0373356D02*
X0315038Y0373356D01*
X0315038Y0373733D02*
X0315604Y0373733D01*
X0320054Y0375544D02*
X0320054Y0376110D01*
X0320054Y0375544D02*
X0317282Y0375544D01*
X0317282Y0376110D01*
X0320054Y0376110D01*
X0320054Y0375921D02*
X0317282Y0375921D01*
X0320054Y0377512D02*
X0320054Y0378078D01*
X0320054Y0377512D02*
X0317282Y0377512D01*
X0317282Y0378078D01*
X0320054Y0378078D01*
X0320054Y0377889D02*
X0317282Y0377889D01*
X0320054Y0379481D02*
X0320054Y0380047D01*
X0320054Y0379481D02*
X0317282Y0379481D01*
X0317282Y0380047D01*
X0320054Y0380047D01*
X0320054Y0379858D02*
X0317282Y0379858D01*
X0320054Y0381449D02*
X0320054Y0382015D01*
X0320054Y0381449D02*
X0317282Y0381449D01*
X0317282Y0382015D01*
X0320054Y0382015D01*
X0320054Y0381826D02*
X0317282Y0381826D01*
X0320054Y0383418D02*
X0320054Y0383984D01*
X0320054Y0383418D02*
X0317282Y0383418D01*
X0317282Y0383984D01*
X0320054Y0383984D01*
X0320054Y0383795D02*
X0317282Y0383795D01*
X0320054Y0385386D02*
X0320054Y0385952D01*
X0320054Y0385386D02*
X0317282Y0385386D01*
X0317282Y0385952D01*
X0320054Y0385952D01*
X0320054Y0385763D02*
X0317282Y0385763D01*
D42*
X0306215Y0384933D02*
X0306215Y0376563D01*
X0306215Y0384933D02*
X0314585Y0384933D01*
X0314585Y0376563D01*
X0306215Y0376563D01*
X0306215Y0377492D02*
X0314585Y0377492D01*
X0314585Y0378421D02*
X0306215Y0378421D01*
X0306215Y0379350D02*
X0314585Y0379350D01*
X0314585Y0380279D02*
X0306215Y0380279D01*
X0306215Y0381208D02*
X0314585Y0381208D01*
X0314585Y0382137D02*
X0306215Y0382137D01*
X0306215Y0383066D02*
X0314585Y0383066D01*
X0314585Y0383995D02*
X0306215Y0383995D01*
X0306215Y0384924D02*
X0314585Y0384924D01*
D43*
X0210911Y0397920D03*
X0210911Y0406976D03*
D44*
X0233536Y0328854D03*
X0233536Y0326885D03*
X0233536Y0324917D03*
X0233536Y0322948D03*
X0233536Y0320980D03*
X0233536Y0319011D03*
X0233536Y0317043D03*
X0244264Y0317043D03*
X0244264Y0319011D03*
X0244264Y0320980D03*
X0244264Y0322948D03*
X0244264Y0324917D03*
X0244264Y0326885D03*
X0244264Y0328854D03*
D45*
X0240869Y0331265D03*
X0238900Y0331265D03*
X0236931Y0331265D03*
X0236931Y0314631D03*
X0238900Y0314631D03*
X0240869Y0314631D03*
D46*
X0255494Y0300371D03*
X0255494Y0296040D03*
X0255494Y0291709D03*
X0255494Y0287379D03*
X0255494Y0283048D03*
X0255494Y0278717D03*
X0255494Y0274387D03*
X0255494Y0270056D03*
X0255494Y0265725D03*
X0217306Y0265725D03*
X0217306Y0270056D03*
X0217306Y0274387D03*
X0217306Y0278717D03*
X0217306Y0283048D03*
X0217306Y0287379D03*
X0217306Y0291709D03*
X0217306Y0296040D03*
X0217306Y0300371D03*
D47*
X0311600Y0275461D03*
X0311600Y0264635D03*
D48*
X0305596Y0270048D03*
D49*
X0070100Y0392226D03*
X0070100Y0439470D03*
D50*
X0292276Y0084709D03*
X0295425Y0084709D03*
X0298575Y0084709D03*
X0301724Y0084709D03*
X0301724Y0079787D03*
X0298575Y0079787D03*
X0295425Y0079787D03*
X0292276Y0079787D03*
D51*
X0307534Y0310348D03*
X0324463Y0310348D03*
X0324863Y0350848D03*
X0307934Y0350848D03*
D52*
X0145300Y0141548D03*
X0139300Y0141548D03*
X0133300Y0141548D03*
X0133300Y0121548D03*
X0139300Y0121548D03*
X0145300Y0121548D03*
D53*
X0113520Y0128048D03*
X0108600Y0128048D03*
X0103680Y0128048D03*
X0098760Y0128048D03*
X0093840Y0128048D03*
X0088920Y0128048D03*
X0084000Y0128048D03*
X0079080Y0128048D03*
X0074160Y0128048D03*
X0069240Y0128048D03*
X0064320Y0128048D03*
X0059400Y0128048D03*
X0059400Y0179648D03*
X0054480Y0179648D03*
X0049500Y0179648D03*
X0064320Y0179648D03*
X0069240Y0179648D03*
X0074160Y0179648D03*
X0079080Y0179648D03*
X0084000Y0179648D03*
X0088920Y0179648D03*
X0093840Y0179648D03*
X0098760Y0179648D03*
X0103680Y0179648D03*
X0108600Y0179648D03*
X0113520Y0179648D03*
D54*
X0119550Y0171098D03*
X0119550Y0166118D03*
X0119550Y0161198D03*
X0119550Y0156278D03*
X0119550Y0151358D03*
X0119550Y0146438D03*
X0119550Y0141518D03*
X0119550Y0136598D03*
D55*
X0090728Y0279048D03*
X0081672Y0279048D03*
M02*
