G04*
G04 #@! TF.GenerationSoftware,Altium Limited,Altium Designer,21.4.1 (30)*
G04*
G04 Layer_Physical_Order=1*
G04 Layer_Color=255*
%FSLAX44Y44*%
%MOMM*%
G71*
G04*
G04 #@! TF.SameCoordinates,32E730F9-F919-4429-9A71-2B0F18EA1AEE*
G04*
G04*
G04 #@! TF.FilePolarity,Positive*
G04*
G01*
G75*
%ADD13C,0.2000*%
%ADD23R,2.5000X1.0000*%
%ADD24R,1.2000X1.0000*%
G04:AMPARAMS|DCode=25|XSize=1.025mm|YSize=1.4mm|CornerRadius=0.123mm|HoleSize=0mm|Usage=FLASHONLY|Rotation=270.000|XOffset=0mm|YOffset=0mm|HoleType=Round|Shape=RoundedRectangle|*
%AMROUNDEDRECTD25*
21,1,1.0250,1.1540,0,0,270.0*
21,1,0.7790,1.4000,0,0,270.0*
1,1,0.2460,-0.5770,-0.3895*
1,1,0.2460,-0.5770,0.3895*
1,1,0.2460,0.5770,0.3895*
1,1,0.2460,0.5770,-0.3895*
%
%ADD25ROUNDEDRECTD25*%
G04:AMPARAMS|DCode=26|XSize=1.025mm|YSize=1.4mm|CornerRadius=0.123mm|HoleSize=0mm|Usage=FLASHONLY|Rotation=0.000|XOffset=0mm|YOffset=0mm|HoleType=Round|Shape=RoundedRectangle|*
%AMROUNDEDRECTD26*
21,1,1.0250,1.1540,0,0,0.0*
21,1,0.7790,1.4000,0,0,0.0*
1,1,0.2460,0.3895,-0.5770*
1,1,0.2460,-0.3895,-0.5770*
1,1,0.2460,-0.3895,0.5770*
1,1,0.2460,0.3895,0.5770*
%
%ADD26ROUNDEDRECTD26*%
G04:AMPARAMS|DCode=27|XSize=1mm|YSize=1.45mm|CornerRadius=0.125mm|HoleSize=0mm|Usage=FLASHONLY|Rotation=270.000|XOffset=0mm|YOffset=0mm|HoleType=Round|Shape=RoundedRectangle|*
%AMROUNDEDRECTD27*
21,1,1.0000,1.2000,0,0,270.0*
21,1,0.7500,1.4500,0,0,270.0*
1,1,0.2500,-0.6000,-0.3750*
1,1,0.2500,-0.6000,0.3750*
1,1,0.2500,0.6000,0.3750*
1,1,0.2500,0.6000,-0.3750*
%
%ADD27ROUNDEDRECTD27*%
G04:AMPARAMS|DCode=28|XSize=1mm|YSize=1.45mm|CornerRadius=0.125mm|HoleSize=0mm|Usage=FLASHONLY|Rotation=0.000|XOffset=0mm|YOffset=0mm|HoleType=Round|Shape=RoundedRectangle|*
%AMROUNDEDRECTD28*
21,1,1.0000,1.2000,0,0,0.0*
21,1,0.7500,1.4500,0,0,0.0*
1,1,0.2500,0.3750,-0.6000*
1,1,0.2500,-0.3750,-0.6000*
1,1,0.2500,-0.3750,0.6000*
1,1,0.2500,0.3750,0.6000*
%
%ADD28ROUNDEDRECTD28*%
%ADD29C,0.2290*%
%ADD30C,1.0000*%
%ADD46C,0.5000*%
%ADD47C,0.8000*%
%ADD48C,0.1600*%
%ADD49C,0.1500*%
%ADD50R,1.4000X1.4000*%
%ADD51C,1.4000*%
%ADD52R,1.4000X1.4000*%
G04:AMPARAMS|DCode=53|XSize=1.7mm|YSize=1.7mm|CornerRadius=0.85mm|HoleSize=0mm|Usage=FLASHONLY|Rotation=270.000|XOffset=0mm|YOffset=0mm|HoleType=Round|Shape=RoundedRectangle|*
%AMROUNDEDRECTD53*
21,1,1.7000,0.0000,0,0,270.0*
21,1,0.0000,1.7000,0,0,270.0*
1,1,1.7000,0.0000,0.0000*
1,1,1.7000,0.0000,0.0000*
1,1,1.7000,0.0000,0.0000*
1,1,1.7000,0.0000,0.0000*
%
%ADD53ROUNDEDRECTD53*%
%ADD54R,1.7000X1.7000*%
G04:AMPARAMS|DCode=55|XSize=1.7mm|YSize=1.7mm|CornerRadius=0.85mm|HoleSize=0mm|Usage=FLASHONLY|Rotation=180.000|XOffset=0mm|YOffset=0mm|HoleType=Round|Shape=RoundedRectangle|*
%AMROUNDEDRECTD55*
21,1,1.7000,0.0000,0,0,180.0*
21,1,0.0000,1.7000,0,0,180.0*
1,1,1.7000,0.0000,0.0000*
1,1,1.7000,0.0000,0.0000*
1,1,1.7000,0.0000,0.0000*
1,1,1.7000,0.0000,0.0000*
%
%ADD55ROUNDEDRECTD55*%
%ADD56R,1.7000X1.7000*%
%ADD57C,0.3000*%
%ADD58C,0.8000*%
%ADD59C,0.5000*%
%ADD60C,0.6000*%
%ADD61C,0.4064*%
G36*
X497313Y2687D02*
X2687D01*
Y497313D01*
X497313D01*
Y2687D01*
D02*
G37*
%LPC*%
G36*
X307460Y489196D02*
X306318Y488890D01*
X304142Y487634D01*
X302366Y485858D01*
X301355Y484107D01*
X301440Y484113D01*
X302080Y484200D01*
X302659Y484313D01*
X303178Y484450D01*
X303636Y484613D01*
X304032Y484800D01*
X304369Y485013D01*
X304644Y485250D01*
Y474750D01*
X304369Y474987D01*
X304032Y475200D01*
X303636Y475387D01*
X303178Y475550D01*
X302659Y475687D01*
X302080Y475800D01*
X301440Y475887D01*
X300000Y475986D01*
X298560Y475887D01*
X297920Y475800D01*
X297341Y475687D01*
X296822Y475550D01*
X296365Y475387D01*
X295968Y475200D01*
X295632Y474987D01*
X295356Y474750D01*
Y485250D01*
X295632Y485013D01*
X295968Y484800D01*
X296365Y484613D01*
X296822Y484450D01*
X297341Y484313D01*
X297920Y484200D01*
X298560Y484113D01*
X298645Y484107D01*
X297634Y485858D01*
X295858Y487634D01*
X293682Y488890D01*
X292540Y489196D01*
Y480000D01*
X290000D01*
Y477460D01*
X280804D01*
X281110Y476318D01*
X282366Y474142D01*
X284142Y472366D01*
X285893Y471355D01*
X285888Y471440D01*
X285800Y472080D01*
X285688Y472659D01*
X285550Y473178D01*
X285388Y473635D01*
X285200Y474032D01*
X284988Y474369D01*
X284750Y474644D01*
X295250D01*
X295013Y474369D01*
X294800Y474032D01*
X294613Y473635D01*
X294450Y473178D01*
X294313Y472659D01*
X294200Y472080D01*
X294113Y471440D01*
X294014Y470000D01*
X294113Y468560D01*
X294200Y467920D01*
X294313Y467341D01*
X294450Y466822D01*
X294613Y466365D01*
X294800Y465968D01*
X295013Y465631D01*
X295250Y465356D01*
X284750D01*
X284988Y465631D01*
X285200Y465968D01*
X285388Y466365D01*
X285550Y466822D01*
X285688Y467341D01*
X285800Y467920D01*
X285888Y468560D01*
X285893Y468645D01*
X284142Y467634D01*
X282366Y465858D01*
X281110Y463682D01*
X280804Y462540D01*
X290000D01*
Y460000D01*
X292540D01*
Y450804D01*
X293682Y451110D01*
X295858Y452366D01*
X297634Y454142D01*
X298645Y455893D01*
X298560Y455887D01*
X297920Y455800D01*
X297341Y455687D01*
X296822Y455550D01*
X296365Y455387D01*
X295968Y455200D01*
X295632Y454987D01*
X295356Y454750D01*
Y465250D01*
X295632Y465013D01*
X295968Y464800D01*
X296365Y464613D01*
X296822Y464450D01*
X297341Y464313D01*
X297920Y464200D01*
X298560Y464113D01*
X300000Y464014D01*
X301440Y464113D01*
X302080Y464200D01*
X302659Y464313D01*
X303178Y464450D01*
X303636Y464613D01*
X304032Y464800D01*
X304369Y465013D01*
X304644Y465250D01*
Y454750D01*
X304369Y454987D01*
X304032Y455200D01*
X303636Y455387D01*
X303178Y455550D01*
X302659Y455687D01*
X302080Y455800D01*
X301440Y455887D01*
X301355Y455893D01*
X302366Y454142D01*
X304142Y452366D01*
X306318Y451110D01*
X307460Y450804D01*
Y460000D01*
X310000D01*
Y462540D01*
X319196D01*
X318890Y463682D01*
X317634Y465858D01*
X315858Y467634D01*
X314107Y468645D01*
X314113Y468560D01*
X314200Y467920D01*
X314313Y467341D01*
X314450Y466822D01*
X314613Y466365D01*
X314800Y465968D01*
X315013Y465631D01*
X315250Y465356D01*
X304750D01*
X304988Y465631D01*
X305200Y465968D01*
X305388Y466365D01*
X305550Y466822D01*
X305688Y467341D01*
X305800Y467920D01*
X305888Y468560D01*
X305986Y470000D01*
X305888Y471440D01*
X305800Y472080D01*
X305688Y472659D01*
X305550Y473178D01*
X305388Y473635D01*
X305200Y474032D01*
X304988Y474369D01*
X304750Y474644D01*
X315250D01*
X315013Y474369D01*
X314800Y474032D01*
X314613Y473635D01*
X314450Y473178D01*
X314313Y472659D01*
X314200Y472080D01*
X314113Y471440D01*
X314107Y471355D01*
X315858Y472366D01*
X317634Y474142D01*
X318890Y476318D01*
X319196Y477460D01*
X310000D01*
Y480000D01*
X307460D01*
Y489196D01*
D02*
G37*
G36*
X312540D02*
Y482540D01*
X319196D01*
X318890Y483682D01*
X317634Y485858D01*
X315858Y487634D01*
X313682Y488890D01*
X312540Y489196D01*
D02*
G37*
G36*
X287460D02*
X286318Y488890D01*
X284142Y487634D01*
X282366Y485858D01*
X281110Y483682D01*
X280804Y482540D01*
X287460D01*
Y489196D01*
D02*
G37*
G36*
X192540D02*
Y482540D01*
X199196D01*
X198890Y483682D01*
X197634Y485858D01*
X195858Y487634D01*
X193682Y488890D01*
X192540Y489196D01*
D02*
G37*
G36*
X187460D02*
X186318Y488890D01*
X184142Y487634D01*
X182366Y485858D01*
X181110Y483682D01*
X180804Y482540D01*
X187460D01*
Y489196D01*
D02*
G37*
G36*
X132540D02*
Y482540D01*
X139196D01*
X138890Y483682D01*
X137634Y485858D01*
X135858Y487634D01*
X133682Y488890D01*
X132540Y489196D01*
D02*
G37*
G36*
X127460D02*
X126318Y488890D01*
X124142Y487634D01*
X122366Y485858D01*
X121110Y483682D01*
X120804Y482540D01*
X127460D01*
Y489196D01*
D02*
G37*
G36*
X25494Y488788D02*
X15590D01*
Y472790D01*
X25494D01*
Y473520D01*
X61320D01*
Y488520D01*
X25494D01*
Y488788D01*
D02*
G37*
G36*
X199196Y477460D02*
X180804D01*
X181110Y476318D01*
X182366Y474142D01*
X184142Y472366D01*
X185893Y471355D01*
X185887Y471440D01*
X185800Y472080D01*
X185687Y472659D01*
X185550Y473178D01*
X185387Y473635D01*
X185200Y474032D01*
X184987Y474369D01*
X184750Y474644D01*
X195250D01*
X195012Y474369D01*
X194800Y474032D01*
X194612Y473635D01*
X194450Y473178D01*
X194312Y472659D01*
X194200Y472080D01*
X194112Y471440D01*
X194107Y471355D01*
X195858Y472366D01*
X197634Y474142D01*
X198890Y476318D01*
X199196Y477460D01*
D02*
G37*
G36*
X139196D02*
X120804D01*
X121110Y476318D01*
X122366Y474142D01*
X124142Y472366D01*
X125893Y471355D01*
X125887Y471440D01*
X125800Y472080D01*
X125688Y472659D01*
X125550Y473178D01*
X125387Y473635D01*
X125200Y474032D01*
X124987Y474369D01*
X124750Y474644D01*
X135250D01*
X135013Y474369D01*
X134800Y474032D01*
X134613Y473635D01*
X134450Y473178D01*
X134312Y472659D01*
X134200Y472080D01*
X134113Y471440D01*
X134107Y471355D01*
X135858Y472366D01*
X137634Y474142D01*
X138890Y476318D01*
X139196Y477460D01*
D02*
G37*
G36*
X411185Y489000D02*
X408815D01*
X406526Y488387D01*
X404474Y487202D01*
X402798Y485526D01*
X401614Y483474D01*
X401000Y481185D01*
Y478815D01*
X401614Y476526D01*
X402798Y474474D01*
X404474Y472798D01*
X406526Y471613D01*
X408815Y471000D01*
X411185D01*
X413474Y471613D01*
X415526Y472798D01*
X417202Y474474D01*
X418387Y476526D01*
X419000Y478815D01*
Y481185D01*
X418387Y483474D01*
X417202Y485526D01*
X415526Y487202D01*
X413474Y488387D01*
X411185Y489000D01*
D02*
G37*
G36*
X391185D02*
X388815D01*
X386526Y488387D01*
X384474Y487202D01*
X382799Y485526D01*
X381614Y483474D01*
X381000Y481185D01*
Y478815D01*
X381614Y476526D01*
X382799Y474474D01*
X384474Y472798D01*
X386526Y471613D01*
X388815Y471000D01*
X391185D01*
X393474Y471613D01*
X395526Y472798D01*
X397202Y474474D01*
X398387Y476526D01*
X399000Y478815D01*
Y481185D01*
X398387Y483474D01*
X397202Y485526D01*
X395526Y487202D01*
X393474Y488387D01*
X391185Y489000D01*
D02*
G37*
G36*
X371185D02*
X368815D01*
X366526Y488387D01*
X364474Y487202D01*
X362799Y485526D01*
X361614Y483474D01*
X361000Y481185D01*
Y478815D01*
X361614Y476526D01*
X362799Y474474D01*
X364474Y472798D01*
X366526Y471613D01*
X368815Y471000D01*
X371185D01*
X373474Y471613D01*
X375526Y472798D01*
X377202Y474474D01*
X378387Y476526D01*
X379000Y478815D01*
Y481185D01*
X378387Y483474D01*
X377202Y485526D01*
X375526Y487202D01*
X373474Y488387D01*
X371185Y489000D01*
D02*
G37*
G36*
X351185D02*
X348815D01*
X346526Y488387D01*
X344474Y487202D01*
X342798Y485526D01*
X341613Y483474D01*
X341000Y481185D01*
Y478815D01*
X341613Y476526D01*
X342798Y474474D01*
X344474Y472798D01*
X346526Y471613D01*
X348815Y471000D01*
X351185D01*
X353474Y471613D01*
X355526Y472798D01*
X357202Y474474D01*
X358387Y476526D01*
X359000Y478815D01*
Y481185D01*
X358387Y483474D01*
X357202Y485526D01*
X355526Y487202D01*
X353474Y488387D01*
X351185Y489000D01*
D02*
G37*
G36*
X331185D02*
X328815D01*
X326526Y488387D01*
X324474Y487202D01*
X322798Y485526D01*
X321614Y483474D01*
X321000Y481185D01*
Y478815D01*
X321614Y476526D01*
X322798Y474474D01*
X324474Y472798D01*
X326526Y471613D01*
X328815Y471000D01*
X331185D01*
X333474Y471613D01*
X335526Y472798D01*
X337202Y474474D01*
X338387Y476526D01*
X339000Y478815D01*
Y481185D01*
X338387Y483474D01*
X337202Y485526D01*
X335526Y487202D01*
X333474Y488387D01*
X331185Y489000D01*
D02*
G37*
G36*
X271185D02*
X268815D01*
X266526Y488387D01*
X264474Y487202D01*
X262798Y485526D01*
X261613Y483474D01*
X261000Y481185D01*
Y478815D01*
X261613Y476526D01*
X262798Y474474D01*
X264474Y472798D01*
X266526Y471613D01*
X268815Y471000D01*
X271185D01*
X273474Y471613D01*
X275526Y472798D01*
X277202Y474474D01*
X278387Y476526D01*
X279000Y478815D01*
Y481185D01*
X278387Y483474D01*
X277202Y485526D01*
X275526Y487202D01*
X273474Y488387D01*
X271185Y489000D01*
D02*
G37*
G36*
X171185D02*
X168815D01*
X166526Y488387D01*
X164474Y487202D01*
X162798Y485526D01*
X161613Y483474D01*
X161000Y481185D01*
Y478815D01*
X161613Y476526D01*
X162798Y474474D01*
X164474Y472798D01*
X166526Y471613D01*
X168815Y471000D01*
X171185D01*
X173474Y471613D01*
X175526Y472798D01*
X177202Y474474D01*
X178387Y476526D01*
X179000Y478815D01*
Y481185D01*
X178387Y483474D01*
X177202Y485526D01*
X175526Y487202D01*
X173474Y488387D01*
X171185Y489000D01*
D02*
G37*
G36*
X151185D02*
X148815D01*
X146526Y488387D01*
X144474Y487202D01*
X142798Y485526D01*
X141613Y483474D01*
X141000Y481185D01*
Y478815D01*
X141613Y476526D01*
X142798Y474474D01*
X144474Y472798D01*
X146526Y471613D01*
X148815Y471000D01*
X151185D01*
X153474Y471613D01*
X155526Y472798D01*
X157202Y474474D01*
X158387Y476526D01*
X159000Y478815D01*
Y481185D01*
X158387Y483474D01*
X157202Y485526D01*
X155526Y487202D01*
X153474Y488387D01*
X151185Y489000D01*
D02*
G37*
G36*
X251185D02*
X248815D01*
X246526Y488387D01*
X244474Y487202D01*
X242798Y485526D01*
X241613Y483474D01*
X241042Y481343D01*
X240842Y481043D01*
X240620Y480715D01*
X240619Y480710D01*
X240616Y480705D01*
X240540Y480321D01*
X240461Y479935D01*
X240456Y478841D01*
X240345Y476922D01*
X240249Y476153D01*
X240125Y475468D01*
X239979Y474891D01*
X239822Y474429D01*
X239664Y474082D01*
X239521Y473851D01*
X239501Y473827D01*
X238087Y472413D01*
X237424Y471421D01*
X237191Y470250D01*
X237191Y470250D01*
Y467196D01*
X236018Y466710D01*
X235526Y467202D01*
X233474Y468387D01*
X231185Y469000D01*
X228815D01*
X226526Y468387D01*
X224579Y467262D01*
X223833Y467467D01*
X223309Y467684D01*
Y468983D01*
X223827Y469501D01*
X223851Y469521D01*
X224082Y469664D01*
X224429Y469822D01*
X224891Y469980D01*
X225468Y470125D01*
X226153Y470249D01*
X226922Y470345D01*
X228841Y470456D01*
X229935Y470461D01*
X230316Y470539D01*
X230705Y470616D01*
X230710Y470619D01*
X230715Y470620D01*
X231038Y470839D01*
X231343Y471042D01*
X233474Y471613D01*
X235526Y472798D01*
X237202Y474474D01*
X238386Y476526D01*
X239000Y478815D01*
Y481185D01*
X238386Y483474D01*
X237202Y485526D01*
X235526Y487202D01*
X233474Y488387D01*
X231185Y489000D01*
X228815D01*
X226526Y488387D01*
X224474Y487202D01*
X222798Y485526D01*
X221613Y483474D01*
X221042Y481343D01*
X220841Y481041D01*
X220620Y480715D01*
X220619Y480709D01*
X220616Y480705D01*
X220540Y480321D01*
X220461Y479935D01*
X220456Y478841D01*
X220345Y476922D01*
X220249Y476153D01*
X220125Y475468D01*
X219979Y474891D01*
X219822Y474429D01*
X219664Y474082D01*
X219521Y473851D01*
X219501Y473827D01*
X218087Y472413D01*
X217424Y471421D01*
X217191Y470250D01*
X217191Y470250D01*
Y467196D01*
X216018Y466710D01*
X215526Y467202D01*
X213474Y468387D01*
X211185Y469000D01*
X208815D01*
X206526Y468387D01*
X204579Y467262D01*
X203834Y467467D01*
X203309Y467684D01*
Y468983D01*
X206154Y471828D01*
X206526Y471613D01*
X208815Y471000D01*
X211185D01*
X213474Y471613D01*
X215526Y472798D01*
X217202Y474474D01*
X218386Y476526D01*
X219000Y478815D01*
Y481185D01*
X218386Y483474D01*
X217202Y485526D01*
X215526Y487202D01*
X213474Y488387D01*
X211185Y489000D01*
X208815D01*
X206526Y488387D01*
X204474Y487202D01*
X202798Y485526D01*
X201613Y483474D01*
X201000Y481185D01*
Y478815D01*
X201613Y476526D01*
X201828Y476154D01*
X198087Y472413D01*
X197424Y471421D01*
X197191Y470250D01*
X197191Y470250D01*
Y467960D01*
X196018Y467474D01*
X195858Y467634D01*
X194107Y468645D01*
X194112Y468560D01*
X194200Y467920D01*
X194312Y467341D01*
X194450Y466822D01*
X194612Y466365D01*
X194800Y465968D01*
X195012Y465631D01*
X195250Y465356D01*
X184750D01*
X184987Y465631D01*
X185200Y465968D01*
X185387Y466365D01*
X185550Y466822D01*
X185687Y467341D01*
X185800Y467920D01*
X185887Y468560D01*
X185893Y468645D01*
X184142Y467634D01*
X182366Y465858D01*
X181110Y463682D01*
X180804Y462540D01*
X190000D01*
Y460000D01*
X192540D01*
Y450804D01*
X193682Y451110D01*
X195858Y452366D01*
X196018Y452527D01*
X197191Y452040D01*
Y407700D01*
X197191Y407700D01*
X197424Y406530D01*
X198087Y405537D01*
X242941Y360683D01*
Y347956D01*
X241768Y347469D01*
X197464Y391774D01*
X196537Y392393D01*
X195445Y392610D01*
X147537D01*
X104815Y435332D01*
Y450778D01*
X105971Y451934D01*
X106526Y451613D01*
X108815Y451000D01*
X111185D01*
X113474Y451613D01*
X115526Y452798D01*
X117201Y454474D01*
X118386Y456526D01*
X119000Y458815D01*
Y461185D01*
X118386Y463474D01*
X117201Y465526D01*
X115526Y467202D01*
X113474Y468387D01*
X111185Y469000D01*
X108815D01*
X106526Y468387D01*
X105971Y468066D01*
X104815Y469223D01*
Y471068D01*
X105787Y472040D01*
X106526Y471613D01*
X108815Y471000D01*
X111185D01*
X113474Y471613D01*
X115526Y472798D01*
X117201Y474474D01*
X118386Y476526D01*
X119000Y478815D01*
Y481185D01*
X118386Y483474D01*
X117201Y485526D01*
X115526Y487202D01*
X113474Y488387D01*
X111185Y489000D01*
X108815D01*
X106526Y488387D01*
X104474Y487202D01*
X102798Y485526D01*
X101613Y483474D01*
X101000Y481185D01*
Y478815D01*
X101613Y476526D01*
X101827Y476155D01*
X100405Y474733D01*
X99012Y475025D01*
X99000Y475037D01*
Y489000D01*
X81000D01*
Y471000D01*
X94963D01*
X95185Y470778D01*
Y469223D01*
X94029Y468066D01*
X93474Y468387D01*
X91185Y469000D01*
X88815D01*
X86526Y468387D01*
X84474Y467202D01*
X82798Y465526D01*
X81613Y463474D01*
X81000Y461185D01*
Y458815D01*
X81613Y456526D01*
X82798Y454474D01*
X84474Y452798D01*
X86526Y451613D01*
X88815Y451000D01*
X91185D01*
X93474Y451613D01*
X94029Y451934D01*
X95185Y450778D01*
Y432526D01*
X95402Y431434D01*
X96021Y430508D01*
X142712Y383816D01*
X143639Y383198D01*
X144731Y382980D01*
X192639D01*
X212068Y363551D01*
X212068Y363551D01*
X214839Y360779D01*
X235185Y340434D01*
Y330195D01*
X234203Y329389D01*
X234180Y329394D01*
X230950D01*
Y321655D01*
X225870D01*
Y329394D01*
X222640D01*
X221169Y329101D01*
X220699Y328787D01*
X220632Y328887D01*
X219379Y329725D01*
X217900Y330019D01*
X214440D01*
Y322405D01*
X209360D01*
Y330019D01*
X205900D01*
X204928Y329826D01*
X203658Y330626D01*
Y337339D01*
X203658Y337339D01*
X203425Y338509D01*
X202762Y339502D01*
X202762Y339502D01*
X201590Y340673D01*
X200598Y341336D01*
X199427Y341569D01*
X199150Y342795D01*
Y345510D01*
X198950D01*
X198564Y346780D01*
X198993Y347067D01*
X199712Y348142D01*
X199964Y349410D01*
Y361410D01*
X199712Y362678D01*
X198993Y363753D01*
X197918Y364471D01*
X196650Y364724D01*
X189150D01*
X187882Y364471D01*
X186807Y363753D01*
X186089Y362678D01*
X185837Y361410D01*
Y349410D01*
X186089Y348142D01*
X186807Y347067D01*
X187236Y346780D01*
X186851Y345510D01*
X183150D01*
Y331510D01*
X197540D01*
Y329050D01*
X193690D01*
Y321510D01*
X191150D01*
Y318970D01*
X182610D01*
Y313970D01*
X182610Y313970D01*
X182608Y312701D01*
X181668Y312073D01*
X180830Y310819D01*
X180536Y309340D01*
Y305880D01*
X188150D01*
Y300800D01*
X180536D01*
Y297340D01*
X180830Y295861D01*
X181186Y295329D01*
X180507Y294059D01*
X176028D01*
X175887Y294227D01*
X175465Y295329D01*
X175962Y296072D01*
X176214Y297340D01*
Y309340D01*
X175962Y310608D01*
X175243Y311683D01*
X174168Y312401D01*
X173454Y312544D01*
X173222Y313350D01*
X174069Y314510D01*
X177150D01*
Y328510D01*
X161150D01*
Y314510D01*
X163200D01*
X163843Y313547D01*
Y312208D01*
X163057Y311683D01*
X162339Y310608D01*
X162087Y309340D01*
Y299149D01*
X160913Y298662D01*
X77413Y382163D01*
X76420Y382826D01*
X75250Y383059D01*
X75250Y383059D01*
X47446D01*
X46960Y384232D01*
X47202Y384474D01*
X48387Y386526D01*
X49000Y388815D01*
Y391185D01*
X48387Y393474D01*
X47202Y395526D01*
X45526Y397202D01*
X43474Y398387D01*
X41185Y399000D01*
X38815D01*
X36526Y398387D01*
X34474Y397202D01*
X32798Y395526D01*
X31613Y393474D01*
X31000Y391185D01*
Y388815D01*
X31613Y386526D01*
X32798Y384474D01*
X33040Y384232D01*
X32554Y383059D01*
X30000D01*
X30000Y383059D01*
X28829Y382826D01*
X27837Y382163D01*
X27837Y382163D01*
X23846Y378172D01*
X23474Y378387D01*
X21185Y379000D01*
X18815D01*
X16526Y378387D01*
X14474Y377202D01*
X12798Y375526D01*
X11613Y373474D01*
X11000Y371185D01*
Y368815D01*
X11613Y366526D01*
X12798Y364474D01*
X14474Y362798D01*
X16526Y361613D01*
X18815Y361000D01*
X21185D01*
X23474Y361613D01*
X25526Y362798D01*
X27202Y364474D01*
X28387Y366526D01*
X29000Y368815D01*
Y371185D01*
X28387Y373474D01*
X28172Y373846D01*
X31267Y376941D01*
X32554D01*
X33040Y375768D01*
X32798Y375526D01*
X31613Y373474D01*
X31000Y371185D01*
Y368815D01*
X31613Y366526D01*
X32798Y364474D01*
X33040Y364232D01*
X32554Y363059D01*
X30000D01*
X28829Y362826D01*
X27837Y362163D01*
X27837Y362163D01*
X23846Y358172D01*
X23474Y358387D01*
X21185Y359000D01*
X18815D01*
X16526Y358387D01*
X14474Y357202D01*
X12798Y355526D01*
X11613Y353474D01*
X11000Y351185D01*
Y348815D01*
X11613Y346526D01*
X12798Y344474D01*
X14474Y342798D01*
X16526Y341613D01*
X18815Y341000D01*
X21185D01*
X23474Y341613D01*
X25526Y342798D01*
X27202Y344474D01*
X28387Y346526D01*
X29000Y348815D01*
Y351185D01*
X28387Y353474D01*
X28172Y353846D01*
X31267Y356941D01*
X32554D01*
X33040Y355768D01*
X32798Y355526D01*
X31613Y353474D01*
X31000Y351185D01*
Y348815D01*
X31613Y346526D01*
X32798Y344474D01*
X34474Y342798D01*
X36526Y341613D01*
X38815Y341000D01*
X41185D01*
X43474Y341613D01*
X45526Y342798D01*
X47202Y344474D01*
X48387Y346526D01*
X48498Y346941D01*
X81983D01*
X94595Y334329D01*
X94069Y333059D01*
X48498D01*
X48387Y333474D01*
X47202Y335526D01*
X45526Y337202D01*
X43474Y338387D01*
X41185Y339000D01*
X38815D01*
X36526Y338387D01*
X34474Y337202D01*
X32798Y335526D01*
X31613Y333474D01*
X31000Y331185D01*
Y328815D01*
X31613Y326526D01*
X32798Y324474D01*
X34474Y322798D01*
X36526Y321614D01*
X38815Y321000D01*
X41185D01*
X43474Y321614D01*
X45526Y322798D01*
X47202Y324474D01*
X48387Y326526D01*
X48498Y326942D01*
X94483D01*
X173692Y247732D01*
X173206Y246559D01*
X139657D01*
X114052Y272163D01*
X113060Y272826D01*
X111889Y273059D01*
X111889Y273059D01*
X48498D01*
X48387Y273474D01*
X47202Y275526D01*
X45526Y277202D01*
X43474Y278387D01*
X41185Y279000D01*
X38815D01*
X36526Y278387D01*
X34474Y277202D01*
X32798Y275526D01*
X31613Y273474D01*
X31000Y271185D01*
Y268815D01*
X31613Y266526D01*
X32798Y264474D01*
X34474Y262799D01*
X36526Y261614D01*
X38815Y261000D01*
X41185D01*
X43474Y261614D01*
X45526Y262799D01*
X47202Y264474D01*
X48387Y266526D01*
X48498Y266942D01*
X110623D01*
X123236Y254329D01*
X122709Y253059D01*
X48498D01*
X48387Y253474D01*
X47202Y255526D01*
X45526Y257202D01*
X43474Y258387D01*
X41185Y259000D01*
X38815D01*
X36526Y258387D01*
X34474Y257202D01*
X32798Y255526D01*
X31613Y253474D01*
X31000Y251185D01*
Y248815D01*
X31613Y246526D01*
X32798Y244474D01*
X33040Y244232D01*
X32554Y243059D01*
X31267D01*
X28172Y246154D01*
X28387Y246526D01*
X29000Y248815D01*
Y251185D01*
X28387Y253474D01*
X27202Y255526D01*
X25526Y257202D01*
X23474Y258387D01*
X21185Y259000D01*
X18815D01*
X16526Y258387D01*
X14474Y257202D01*
X12798Y255526D01*
X11613Y253474D01*
X11000Y251185D01*
Y248815D01*
X11613Y246526D01*
X12798Y244474D01*
X14474Y242798D01*
X16526Y241613D01*
X18815Y241000D01*
X21185D01*
X23474Y241613D01*
X23846Y241828D01*
X27837Y237837D01*
X27837Y237837D01*
X28829Y237174D01*
X30000Y236941D01*
X32554D01*
X33040Y235768D01*
X32798Y235526D01*
X31613Y233474D01*
X31000Y231185D01*
Y228815D01*
X31613Y226526D01*
X32798Y224474D01*
X34474Y222798D01*
X36526Y221613D01*
X38815Y221000D01*
X41185D01*
X43474Y221613D01*
X45526Y222798D01*
X47202Y224474D01*
X48387Y226526D01*
X49000Y228815D01*
Y229161D01*
X143166D01*
X143652Y227988D01*
X136077Y220413D01*
X135414Y219421D01*
X135181Y218250D01*
X135181Y218250D01*
Y129350D01*
X135181Y129350D01*
X135414Y128180D01*
X136077Y127187D01*
X162728Y100536D01*
Y73863D01*
X162728Y73863D01*
X162961Y72693D01*
X163624Y71700D01*
X181797Y53527D01*
X182789Y52864D01*
X183960Y52631D01*
X183960Y52631D01*
X263973D01*
X266920Y49684D01*
X266788Y48457D01*
X266526Y48387D01*
X264474Y47202D01*
X262798Y45526D01*
X261613Y43474D01*
X261000Y41185D01*
Y38815D01*
X261613Y36526D01*
X262798Y34474D01*
X264474Y32798D01*
X266526Y31613D01*
X268815Y31000D01*
X271185D01*
X273474Y31613D01*
X275526Y32798D01*
X277202Y34474D01*
X278387Y36526D01*
X279000Y38815D01*
Y41185D01*
X278387Y43474D01*
X277202Y45526D01*
X275526Y47202D01*
X273474Y48387D01*
X273059Y48498D01*
Y50930D01*
X273059Y50930D01*
X272826Y52101D01*
X272804Y52134D01*
X273646Y53160D01*
X274296Y52890D01*
X276286D01*
X278123Y53651D01*
X279530Y55058D01*
X280291Y56895D01*
Y58885D01*
X279530Y60722D01*
X278123Y62129D01*
X276286Y62890D01*
X274296D01*
X272459Y62129D01*
X271052Y60722D01*
X270291Y58885D01*
Y56895D01*
X270386Y56666D01*
X269310Y55946D01*
X267403Y57853D01*
X266411Y58516D01*
X265240Y58749D01*
X265240Y58749D01*
X185227D01*
X168846Y75130D01*
Y101803D01*
X168846Y101803D01*
X168613Y102974D01*
X167950Y103966D01*
X167950Y103966D01*
X141299Y130617D01*
Y216983D01*
X149667Y225351D01*
X159365D01*
X160105Y224081D01*
X159886Y222980D01*
Y219520D01*
X167500D01*
Y216980D01*
X170040D01*
Y207116D01*
X170591D01*
X171642Y206516D01*
X172000Y205619D01*
X172000D01*
Y192200D01*
X201000D01*
Y206200D01*
X189559D01*
Y207666D01*
X190250D01*
X191518Y207919D01*
X192593Y208637D01*
X193311Y209712D01*
X193564Y210980D01*
Y213921D01*
X216980D01*
X216980Y213921D01*
X218151Y214154D01*
X219143Y214817D01*
X225768Y221442D01*
X226941Y220956D01*
Y196977D01*
X206823Y176859D01*
X201000D01*
Y180800D01*
X172000D01*
Y167381D01*
X172000D01*
X171642Y166484D01*
X170591Y165884D01*
X170040D01*
Y158560D01*
X175114D01*
Y162020D01*
X174820Y163499D01*
X173982Y164753D01*
X172819Y165530D01*
X172807Y165622D01*
X173571Y166800D01*
X183441D01*
Y165334D01*
X182750D01*
X181482Y165081D01*
X180407Y164363D01*
X179689Y163288D01*
X179436Y162020D01*
Y150020D01*
X179689Y148752D01*
X180407Y147677D01*
X181482Y146959D01*
X182750Y146706D01*
X190250D01*
X191518Y146959D01*
X192593Y147677D01*
X193311Y148752D01*
X193564Y150020D01*
Y162020D01*
X193311Y163288D01*
X192593Y164363D01*
X191518Y165081D01*
X190250Y165334D01*
X189559D01*
Y166800D01*
X201000D01*
Y170741D01*
X208090D01*
X208090Y170741D01*
X209261Y170974D01*
X210253Y171637D01*
X229768Y191152D01*
X230941Y190666D01*
Y174307D01*
X214817Y158183D01*
X214154Y157191D01*
X213921Y156020D01*
X213921Y156020D01*
Y97748D01*
X212651Y97222D01*
X211059Y98814D01*
X208541Y100268D01*
X206820Y100729D01*
Y89980D01*
Y79231D01*
X207182Y79328D01*
X207278Y79219D01*
X208000Y78232D01*
Y76605D01*
X208685Y74951D01*
X209951Y73685D01*
X211605Y73000D01*
X213395D01*
X215049Y73685D01*
X216315Y74951D01*
X217000Y76605D01*
Y76746D01*
X219143Y78889D01*
X219806Y79881D01*
X220039Y81052D01*
Y83226D01*
X221035Y83493D01*
X221309Y83502D01*
X223233Y81578D01*
X225627Y80196D01*
X228298Y79480D01*
X231062D01*
X233733Y80196D01*
X236127Y81578D01*
X238082Y83533D01*
X239464Y85927D01*
X240180Y88598D01*
Y91362D01*
X239464Y94033D01*
X238082Y96427D01*
X236127Y98382D01*
X233733Y99764D01*
X231062Y100480D01*
X228298D01*
X225627Y99764D01*
X223233Y98382D01*
X221309Y96458D01*
X221035Y96467D01*
X220039Y96734D01*
Y154753D01*
X236163Y170877D01*
X236163Y170877D01*
X236826Y171870D01*
X237059Y173040D01*
Y193456D01*
X238232Y193942D01*
X265018Y167157D01*
X264532Y165983D01*
X255660D01*
X254400Y165733D01*
X254171Y165580D01*
X253019Y165018D01*
X251950Y165732D01*
X250690Y165983D01*
X250349D01*
X249501Y167253D01*
X249750Y167855D01*
Y169645D01*
X249065Y171299D01*
X247799Y172565D01*
X246145Y173250D01*
X244355D01*
X242701Y172565D01*
X241435Y171299D01*
X240750Y169645D01*
Y167855D01*
X240999Y167253D01*
X240151Y165983D01*
X239150D01*
X237890Y165732D01*
X236821Y165018D01*
X236107Y163950D01*
X235857Y162690D01*
Y154900D01*
X236107Y153639D01*
X236821Y152571D01*
X237890Y151857D01*
X239150Y151606D01*
X250690D01*
X251950Y151857D01*
X252179Y152010D01*
X253331Y152571D01*
X254400Y151857D01*
X255660Y151607D01*
X267200D01*
X268460Y151857D01*
X269529Y152571D01*
X270243Y153640D01*
X270493Y154900D01*
Y160022D01*
X271667Y160508D01*
X278136Y154038D01*
X277683Y153135D01*
X277478Y152900D01*
X275775D01*
X274121Y152215D01*
X272855Y150949D01*
X272170Y149295D01*
Y147505D01*
X272855Y145851D01*
X273191Y145515D01*
Y144167D01*
X272628Y143604D01*
X270493D01*
Y144440D01*
X270243Y145700D01*
X269529Y146769D01*
X268460Y147483D01*
X267200Y147733D01*
X255660D01*
X254400Y147483D01*
X254171Y147330D01*
X253019Y146768D01*
X251950Y147482D01*
X250690Y147733D01*
X239150D01*
X237890Y147482D01*
X236821Y146768D01*
X236107Y145700D01*
X235857Y144440D01*
Y136650D01*
X236107Y135389D01*
X236821Y134321D01*
X237890Y133607D01*
X239150Y133356D01*
X241861D01*
Y129350D01*
X241861Y129350D01*
X242094Y128180D01*
X242757Y127187D01*
X245297Y124647D01*
X245297Y124647D01*
X246289Y123984D01*
X247460Y123751D01*
X261433D01*
X277421Y107763D01*
Y92520D01*
X277421Y92520D01*
X277654Y91349D01*
X278317Y90357D01*
X285927Y82747D01*
X285679Y81502D01*
X284701Y81097D01*
X283013Y79409D01*
X282100Y77203D01*
Y74816D01*
X283013Y72611D01*
X284701Y70924D01*
X286907Y70010D01*
X289293D01*
X291499Y70924D01*
X293187Y72611D01*
X293592Y73589D01*
X294837Y73837D01*
X322973Y45701D01*
X322798Y45526D01*
X321614Y43474D01*
X321000Y41185D01*
Y38815D01*
X321614Y36526D01*
X322798Y34474D01*
X324474Y32798D01*
X326526Y31613D01*
X328815Y31000D01*
X331185D01*
X333474Y31613D01*
X335526Y32798D01*
X337202Y34474D01*
X338387Y36526D01*
X339000Y38815D01*
Y41185D01*
X338387Y43474D01*
X337202Y45526D01*
X335526Y47202D01*
X333474Y48387D01*
X331185Y49000D01*
X328815D01*
X328429Y48896D01*
X323328Y53998D01*
X323814Y55171D01*
X350503D01*
X359501Y46173D01*
X359521Y46149D01*
X359664Y45918D01*
X359822Y45571D01*
X359980Y45109D01*
X360125Y44532D01*
X360249Y43847D01*
X360346Y43078D01*
X360456Y41159D01*
X360462Y40065D01*
X360540Y39683D01*
X360617Y39295D01*
X360620Y39290D01*
X360621Y39285D01*
X360839Y38961D01*
X361043Y38657D01*
X361614Y36526D01*
X362799Y34474D01*
X364474Y32798D01*
X366526Y31613D01*
X368815Y31000D01*
X371185D01*
X373474Y31613D01*
X375421Y32738D01*
X376165Y32534D01*
X376692Y32316D01*
Y31017D01*
X376174Y30499D01*
X376150Y30479D01*
X375918Y30336D01*
X375572Y30178D01*
X375109Y30020D01*
X374533Y29875D01*
X373848Y29751D01*
X373079Y29655D01*
X371159Y29544D01*
X370065Y29539D01*
X369686Y29461D01*
X369295Y29384D01*
X369291Y29381D01*
X369286Y29380D01*
X368963Y29162D01*
X368658Y28958D01*
X366526Y28387D01*
X364474Y27202D01*
X362799Y25526D01*
X361614Y23474D01*
X361000Y21185D01*
Y18815D01*
X361614Y16526D01*
X362799Y14474D01*
X364474Y12798D01*
X366526Y11613D01*
X368815Y11000D01*
X371185D01*
X373474Y11613D01*
X375526Y12798D01*
X377202Y14474D01*
X378387Y16526D01*
X378958Y18657D01*
X379158Y18957D01*
X379380Y19285D01*
X379381Y19290D01*
X379384Y19295D01*
X379460Y19679D01*
X379539Y20065D01*
X379544Y21159D01*
X379655Y23078D01*
X379751Y23847D01*
X379876Y24532D01*
X380021Y25109D01*
X380178Y25571D01*
X380337Y25917D01*
X380479Y26149D01*
X380499Y26173D01*
X381913Y27587D01*
X381913Y27587D01*
X382576Y28579D01*
X382809Y29750D01*
Y32804D01*
X383982Y33290D01*
X384474Y32798D01*
X386526Y31613D01*
X388815Y31000D01*
X391185D01*
X393474Y31613D01*
X395421Y32738D01*
X396165Y32534D01*
X396692Y32316D01*
Y31017D01*
X396174Y30499D01*
X396150Y30479D01*
X395918Y30336D01*
X395572Y30178D01*
X395109Y30020D01*
X394533Y29875D01*
X393848Y29751D01*
X393079Y29655D01*
X391159Y29544D01*
X390065Y29539D01*
X389686Y29461D01*
X389295Y29384D01*
X389291Y29381D01*
X389286Y29380D01*
X388963Y29162D01*
X388657Y28958D01*
X386526Y28387D01*
X384474Y27202D01*
X382799Y25526D01*
X381614Y23474D01*
X381000Y21185D01*
Y18815D01*
X381614Y16526D01*
X382799Y14474D01*
X384474Y12798D01*
X386526Y11613D01*
X388815Y11000D01*
X391185D01*
X393474Y11613D01*
X395526Y12798D01*
X397202Y14474D01*
X398387Y16526D01*
X398958Y18657D01*
X399158Y18957D01*
X399380Y19285D01*
X399381Y19290D01*
X399384Y19295D01*
X399460Y19679D01*
X399539Y20065D01*
X399544Y21159D01*
X399655Y23078D01*
X399751Y23847D01*
X399875Y24532D01*
X400021Y25109D01*
X400178Y25571D01*
X400337Y25917D01*
X400479Y26149D01*
X400499Y26173D01*
X401913Y27587D01*
X401913Y27587D01*
X402576Y28579D01*
X402809Y29750D01*
Y32804D01*
X403982Y33290D01*
X404474Y32798D01*
X406526Y31613D01*
X408815Y31000D01*
X411185D01*
X413474Y31613D01*
X415526Y32798D01*
X417202Y34474D01*
X418387Y36526D01*
X419000Y38815D01*
Y41185D01*
X418387Y43474D01*
X417202Y45526D01*
X415526Y47202D01*
X413474Y48387D01*
X411185Y49000D01*
X408815D01*
X406526Y48387D01*
X404474Y47202D01*
X403982Y46710D01*
X402809Y47196D01*
Y55800D01*
X402809Y55800D01*
X402576Y56970D01*
X401913Y57963D01*
X386783Y73093D01*
X385790Y73756D01*
X384620Y73989D01*
X384620Y73989D01*
X355177D01*
X354471Y75045D01*
X354500Y75115D01*
Y76905D01*
X353815Y78559D01*
X353059Y79315D01*
Y138416D01*
X354232Y138902D01*
X356692Y136443D01*
Y117415D01*
X355935Y116659D01*
X355250Y115005D01*
Y113215D01*
X355935Y111561D01*
X357201Y110295D01*
X358855Y109610D01*
X360645D01*
X362299Y110295D01*
X363565Y111561D01*
X364250Y113215D01*
Y115005D01*
X363565Y116659D01*
X362809Y117415D01*
Y135016D01*
X363982Y135502D01*
X367061Y132423D01*
Y106514D01*
X366305Y105758D01*
X365620Y104104D01*
Y102314D01*
X366305Y100660D01*
X367571Y99394D01*
X369225Y98709D01*
X371015D01*
X372669Y99394D01*
X373935Y100660D01*
X374620Y102314D01*
Y104104D01*
X373935Y105758D01*
X373179Y106514D01*
Y130996D01*
X374352Y131482D01*
X417997Y87837D01*
X417997Y87837D01*
X418990Y87174D01*
X420160Y86941D01*
X451502D01*
X451613Y86526D01*
X452798Y84474D01*
X454474Y82798D01*
X456526Y81613D01*
X458815Y81000D01*
X461185D01*
X463474Y81613D01*
X465526Y82798D01*
X467202Y84474D01*
X468387Y86526D01*
X469000Y88815D01*
Y91185D01*
X468387Y93474D01*
X467202Y95526D01*
X465526Y97202D01*
X463474Y98386D01*
X461185Y99000D01*
X458815D01*
X456526Y98386D01*
X454474Y97202D01*
X452798Y95526D01*
X451613Y93474D01*
X451502Y93059D01*
X421427D01*
X288718Y225768D01*
X289204Y226941D01*
X295770D01*
X405125Y117587D01*
X405125Y117587D01*
X406117Y116924D01*
X407288Y116691D01*
X407288Y116691D01*
X452316D01*
X452534Y116165D01*
X452738Y115421D01*
X451613Y113474D01*
X451000Y111185D01*
Y108815D01*
X451613Y106526D01*
X452798Y104474D01*
X454474Y102798D01*
X456526Y101613D01*
X458815Y101000D01*
X461185D01*
X463474Y101613D01*
X465526Y102798D01*
X467202Y104474D01*
X468387Y106526D01*
X469000Y108815D01*
Y111185D01*
X468387Y113474D01*
X467262Y115421D01*
X467466Y116165D01*
X467684Y116691D01*
X468983D01*
X469501Y116173D01*
X469521Y116149D01*
X469664Y115917D01*
X469822Y115571D01*
X469980Y115108D01*
X470125Y114532D01*
X470249Y113847D01*
X470345Y113078D01*
X470456Y111159D01*
X470461Y110065D01*
X470539Y109685D01*
X470616Y109295D01*
X470619Y109290D01*
X470620Y109285D01*
X470838Y108962D01*
X471042Y108657D01*
X471613Y106526D01*
X472798Y104474D01*
X474474Y102798D01*
X476526Y101613D01*
X478815Y101000D01*
X481185D01*
X483474Y101613D01*
X485526Y102798D01*
X487202Y104474D01*
X488387Y106526D01*
X489000Y108815D01*
Y111185D01*
X488387Y113474D01*
X487202Y115526D01*
X485526Y117201D01*
X483474Y118386D01*
X481343Y118957D01*
X481043Y119158D01*
X480715Y119379D01*
X480710Y119381D01*
X480705Y119383D01*
X480321Y119460D01*
X479935Y119538D01*
X478841Y119544D01*
X476922Y119654D01*
X476153Y119750D01*
X475468Y119875D01*
X474891Y120020D01*
X474429Y120178D01*
X474082Y120336D01*
X473851Y120479D01*
X473827Y120499D01*
X472413Y121913D01*
X471421Y122576D01*
X470250Y122809D01*
X470250Y122809D01*
X467196D01*
X466710Y123982D01*
X467202Y124474D01*
X468387Y126526D01*
X469000Y128815D01*
Y131185D01*
X468387Y133474D01*
X467262Y135421D01*
X467466Y136165D01*
X467684Y136691D01*
X468983D01*
X469501Y136173D01*
X469521Y136149D01*
X469664Y135917D01*
X469822Y135571D01*
X469980Y135108D01*
X470125Y134532D01*
X470249Y133847D01*
X470345Y133078D01*
X470456Y131159D01*
X470461Y130065D01*
X470539Y129685D01*
X470616Y129294D01*
X470619Y129290D01*
X470620Y129285D01*
X470838Y128962D01*
X471042Y128657D01*
X471613Y126526D01*
X472798Y124474D01*
X474474Y122798D01*
X476526Y121613D01*
X478815Y121000D01*
X481185D01*
X483474Y121613D01*
X485526Y122798D01*
X487202Y124474D01*
X488387Y126526D01*
X489000Y128815D01*
Y131185D01*
X488387Y133474D01*
X487202Y135526D01*
X485526Y137201D01*
X483474Y138386D01*
X481343Y138957D01*
X481043Y139158D01*
X480715Y139379D01*
X480710Y139380D01*
X480705Y139383D01*
X480321Y139460D01*
X479935Y139538D01*
X478841Y139544D01*
X476922Y139654D01*
X476153Y139750D01*
X475468Y139875D01*
X474891Y140020D01*
X474429Y140178D01*
X474082Y140336D01*
X473851Y140479D01*
X473827Y140499D01*
X472413Y141913D01*
X471421Y142576D01*
X470250Y142809D01*
X470250Y142809D01*
X467196D01*
X466710Y143982D01*
X467202Y144474D01*
X468387Y146526D01*
X469000Y148815D01*
Y151185D01*
X468387Y153474D01*
X467202Y155526D01*
X466710Y156018D01*
X467196Y157191D01*
X470250D01*
X470250Y157191D01*
X471421Y157424D01*
X472413Y158087D01*
X473827Y159501D01*
X473851Y159521D01*
X474082Y159664D01*
X474429Y159822D01*
X474891Y159979D01*
X475468Y160125D01*
X476152Y160249D01*
X476922Y160345D01*
X478841Y160456D01*
X479935Y160461D01*
X480316Y160539D01*
X480705Y160616D01*
X480709Y160619D01*
X480715Y160620D01*
X481040Y160840D01*
X481343Y161042D01*
X483474Y161613D01*
X485526Y162798D01*
X487202Y164474D01*
X488387Y166526D01*
X489000Y168815D01*
Y171185D01*
X488387Y173474D01*
X487202Y175526D01*
X485526Y177202D01*
X483474Y178387D01*
X481185Y179000D01*
X478815D01*
X476526Y178387D01*
X474474Y177202D01*
X472798Y175526D01*
X471613Y173474D01*
X471042Y171343D01*
X470842Y171043D01*
X470620Y170715D01*
X470619Y170710D01*
X470616Y170705D01*
X470540Y170323D01*
X470461Y169935D01*
X470456Y168841D01*
X470345Y166922D01*
X470249Y166153D01*
X470125Y165467D01*
X469980Y164891D01*
X469822Y164429D01*
X469664Y164082D01*
X469521Y163851D01*
X469501Y163827D01*
X468983Y163309D01*
X467684D01*
X467467Y163833D01*
X467262Y164579D01*
X468387Y166526D01*
X469000Y168815D01*
Y171185D01*
X468387Y173474D01*
X467202Y175526D01*
X465526Y177202D01*
X463474Y178387D01*
X461185Y179000D01*
X458815D01*
X456526Y178387D01*
X454474Y177202D01*
X452798Y175526D01*
X451613Y173474D01*
X451000Y171185D01*
Y168815D01*
X451613Y166526D01*
X452738Y164579D01*
X452533Y163833D01*
X452316Y163309D01*
X445580D01*
X445580Y163309D01*
X444409Y163076D01*
X443417Y162413D01*
X436273Y155269D01*
X388557D01*
X385509Y158317D01*
X385995Y159490D01*
X401470D01*
Y163873D01*
X427159D01*
X429500Y164338D01*
X431485Y165664D01*
X436171Y170350D01*
X437497Y172335D01*
X437963Y174676D01*
Y185000D01*
X438069Y185071D01*
X438783Y186140D01*
X439033Y187400D01*
Y198940D01*
X438783Y200200D01*
X438071Y201265D01*
X438783Y202330D01*
X439033Y203590D01*
Y215130D01*
X438783Y216390D01*
X438069Y217459D01*
X438619Y218595D01*
X438783Y218840D01*
X439033Y220100D01*
Y231640D01*
X438783Y232900D01*
X438676Y233060D01*
X439077Y233328D01*
X439915Y234581D01*
X439970Y234856D01*
X440875Y235340D01*
X442665D01*
X444319Y236025D01*
X445585Y237291D01*
X446270Y238945D01*
Y240735D01*
X445585Y242389D01*
X444319Y243655D01*
X442665Y244340D01*
X440875D01*
X440209Y244785D01*
Y248060D01*
X439915Y249539D01*
X439077Y250792D01*
X439050Y251076D01*
X439235Y251261D01*
X439920Y252915D01*
Y254705D01*
X439235Y256359D01*
X437969Y257625D01*
X436315Y258310D01*
X434525D01*
X433029Y257690D01*
X432399Y258056D01*
X431932Y258482D01*
Y260153D01*
X431247Y261807D01*
X429981Y263072D01*
X428328Y263757D01*
X426537D01*
X425950Y263514D01*
X424680Y264363D01*
Y264865D01*
X424514Y265265D01*
X425220Y266321D01*
X437633D01*
X445867Y258088D01*
X445867Y258088D01*
X446859Y257425D01*
X448030Y257192D01*
X448030Y257192D01*
X452804D01*
X453290Y256018D01*
X452798Y255526D01*
X451613Y253474D01*
X451000Y251185D01*
Y248815D01*
X451613Y246526D01*
X452798Y244474D01*
X454474Y242798D01*
X456526Y241613D01*
X458815Y241000D01*
X461185D01*
X463474Y241613D01*
X465526Y242798D01*
X467202Y244474D01*
X468387Y246526D01*
X469000Y248815D01*
Y251185D01*
X468387Y253474D01*
X467202Y255526D01*
X466710Y256018D01*
X467196Y257192D01*
X470250D01*
X470250Y257192D01*
X471421Y257425D01*
X472413Y258088D01*
X473827Y259501D01*
X473851Y259522D01*
X474082Y259664D01*
X474429Y259822D01*
X474891Y259980D01*
X475468Y260125D01*
X476152Y260250D01*
X476922Y260346D01*
X478841Y260456D01*
X479935Y260462D01*
X480316Y260539D01*
X480705Y260617D01*
X480709Y260620D01*
X480715Y260621D01*
X481040Y260840D01*
X481343Y261042D01*
X483474Y261614D01*
X485526Y262799D01*
X487202Y264474D01*
X488387Y266526D01*
X489000Y268815D01*
Y271185D01*
X488387Y273474D01*
X487202Y275526D01*
X485526Y277202D01*
X483474Y278387D01*
X481185Y279000D01*
X478815D01*
X476526Y278387D01*
X474474Y277202D01*
X472798Y275526D01*
X471613Y273474D01*
X471042Y271343D01*
X470842Y271044D01*
X470620Y270715D01*
X470619Y270710D01*
X470616Y270706D01*
X470540Y270323D01*
X470461Y269936D01*
X470456Y268842D01*
X470345Y266922D01*
X470249Y266153D01*
X470125Y265468D01*
X469980Y264892D01*
X469822Y264429D01*
X469664Y264083D01*
X469521Y263851D01*
X469501Y263827D01*
X468983Y263309D01*
X467684D01*
X467467Y263833D01*
X467262Y264579D01*
X468387Y266526D01*
X469000Y268815D01*
Y271185D01*
X468387Y273474D01*
X467202Y275526D01*
X465526Y277202D01*
X463474Y278387D01*
X461185Y279000D01*
X458815D01*
X456526Y278387D01*
X456154Y278172D01*
X452413Y281913D01*
X451421Y282576D01*
X450250Y282809D01*
X450250Y282809D01*
X437503D01*
X436797Y283865D01*
X437000Y284355D01*
Y286145D01*
X436315Y287799D01*
X435559Y288555D01*
Y290098D01*
X436829Y290574D01*
X438335Y289950D01*
X440125D01*
X441779Y290635D01*
X443045Y291901D01*
X443730Y293555D01*
Y295345D01*
X443045Y296999D01*
X441779Y298265D01*
X440125Y298950D01*
X438335D01*
X436829Y298326D01*
X435559Y298802D01*
Y302575D01*
X437433Y304449D01*
X438502D01*
X440156Y305134D01*
X441422Y306400D01*
X442107Y308054D01*
Y309844D01*
X441422Y311498D01*
X440156Y312764D01*
X438502Y313449D01*
X436712D01*
X435058Y312764D01*
X433792Y311498D01*
X433107Y309844D01*
Y308775D01*
X430337Y306005D01*
X429674Y305013D01*
X429441Y303842D01*
X429441Y303842D01*
Y288555D01*
X428685Y287799D01*
X428000Y286145D01*
Y284355D01*
X428203Y283865D01*
X427497Y282809D01*
X421447D01*
X413993Y290263D01*
X413001Y290926D01*
X411830Y291159D01*
X411830Y291159D01*
X379540D01*
X379540Y291159D01*
X378369Y290926D01*
X377377Y290263D01*
X344173Y257059D01*
X283944D01*
X283458Y258232D01*
X288602Y263376D01*
X289502Y263197D01*
X290768Y261932D01*
X292422Y261246D01*
X293594D01*
X293971Y260681D01*
X295040Y259967D01*
X296300Y259717D01*
X307840D01*
X309100Y259967D01*
X310169Y260681D01*
X310883Y261750D01*
X311133Y263010D01*
Y270800D01*
X310883Y272060D01*
X310169Y273129D01*
X309100Y273843D01*
X307840Y274093D01*
X296300D01*
X295040Y273843D01*
X294969Y273795D01*
X293699Y274474D01*
Y277117D01*
X294580Y277588D01*
X294969Y277681D01*
X296300Y277416D01*
X299530D01*
Y285155D01*
Y292894D01*
X296300D01*
X294969Y292629D01*
X294580Y292722D01*
X293699Y293193D01*
Y299715D01*
X310676Y316692D01*
X452315D01*
X452535Y316163D01*
X452738Y315422D01*
X451613Y313474D01*
X451000Y311185D01*
Y308815D01*
X451613Y306526D01*
X452798Y304474D01*
X454474Y302798D01*
X456526Y301614D01*
X458815Y301000D01*
X461185D01*
X463474Y301614D01*
X465526Y302798D01*
X467202Y304474D01*
X468387Y306526D01*
X469000Y308815D01*
Y311185D01*
X468387Y313474D01*
X467262Y315422D01*
X467465Y316163D01*
X467685Y316692D01*
X468983D01*
X469501Y316174D01*
X469521Y316150D01*
X469664Y315918D01*
X469822Y315572D01*
X469980Y315109D01*
X470125Y314533D01*
X470249Y313847D01*
X470345Y313079D01*
X470456Y311159D01*
X470461Y310065D01*
X470539Y309683D01*
X470616Y309295D01*
X470619Y309291D01*
X470620Y309286D01*
X470840Y308960D01*
X471042Y308658D01*
X471613Y306526D01*
X472798Y304474D01*
X474474Y302798D01*
X476526Y301614D01*
X478815Y301000D01*
X481185D01*
X483474Y301614D01*
X485526Y302798D01*
X487202Y304474D01*
X488387Y306526D01*
X489000Y308815D01*
Y311185D01*
X488387Y313474D01*
X487202Y315526D01*
X485526Y317202D01*
X483474Y318387D01*
X481343Y318958D01*
X481043Y319158D01*
X480715Y319380D01*
X480710Y319381D01*
X480706Y319384D01*
X480321Y319460D01*
X479935Y319539D01*
X478841Y319544D01*
X476922Y319655D01*
X476153Y319751D01*
X475468Y319876D01*
X474892Y320021D01*
X474429Y320178D01*
X474083Y320337D01*
X473851Y320479D01*
X473827Y320499D01*
X472413Y321913D01*
X471421Y322576D01*
X470250Y322809D01*
X470250Y322809D01*
X467196D01*
X466710Y323983D01*
X467202Y324474D01*
X468387Y326526D01*
X469000Y328815D01*
Y331185D01*
X468387Y333474D01*
X467202Y335526D01*
X465526Y337202D01*
X463474Y338387D01*
X461185Y339000D01*
X458815D01*
X456526Y338387D01*
X454474Y337202D01*
X452798Y335526D01*
X451613Y333474D01*
X451502Y333059D01*
X415370D01*
X414734Y334329D01*
X415049Y334750D01*
X416095D01*
X417932Y335512D01*
X419339Y336918D01*
X420100Y338756D01*
Y340745D01*
X419339Y342583D01*
X417932Y343989D01*
X416095Y344750D01*
X414105D01*
X412268Y343989D01*
X410861Y342583D01*
X410100Y340745D01*
Y339076D01*
X409173Y338149D01*
X311884D01*
X311398Y339322D01*
X348767Y376692D01*
X452315D01*
X452535Y376162D01*
X452738Y375421D01*
X451613Y373474D01*
X451000Y371185D01*
Y368815D01*
X451613Y366526D01*
X452798Y364474D01*
X454474Y362798D01*
X456526Y361613D01*
X458815Y361000D01*
X461185D01*
X463474Y361613D01*
X465526Y362798D01*
X467202Y364474D01*
X468387Y366526D01*
X469000Y368815D01*
Y371185D01*
X468387Y373474D01*
X467262Y375421D01*
X467465Y376162D01*
X467685Y376692D01*
X469750D01*
X469750Y376692D01*
X470921Y376924D01*
X471913Y377587D01*
X473827Y379501D01*
X473851Y379521D01*
X474082Y379664D01*
X474429Y379822D01*
X474891Y379980D01*
X475468Y380125D01*
X476153Y380249D01*
X476922Y380346D01*
X478841Y380456D01*
X479935Y380462D01*
X480317Y380539D01*
X480705Y380617D01*
X480710Y380620D01*
X480715Y380621D01*
X481039Y380839D01*
X481343Y381043D01*
X483474Y381614D01*
X485526Y382799D01*
X487202Y384474D01*
X488387Y386526D01*
X489000Y388815D01*
Y391185D01*
X488387Y393474D01*
X487202Y395526D01*
X485526Y397202D01*
X483474Y398387D01*
X481185Y399000D01*
X478815D01*
X476526Y398387D01*
X474474Y397202D01*
X472798Y395526D01*
X471613Y393474D01*
X471042Y391343D01*
X470841Y391042D01*
X470620Y390715D01*
X470619Y390710D01*
X470616Y390705D01*
X470540Y390320D01*
X470461Y389935D01*
X470456Y388841D01*
X470345Y386922D01*
X470249Y386153D01*
X470125Y385468D01*
X469980Y384892D01*
X469822Y384429D01*
X469664Y384083D01*
X469521Y383851D01*
X469501Y383827D01*
X468483Y382809D01*
X467196D01*
X466710Y383982D01*
X467202Y384474D01*
X468387Y386526D01*
X469000Y388815D01*
Y391185D01*
X468387Y393474D01*
X467202Y395526D01*
X467100Y395628D01*
X467586Y396801D01*
X469860D01*
X469860Y396801D01*
X471030Y397034D01*
X472023Y397697D01*
X474335Y400009D01*
X474655Y400307D01*
X474897Y400500D01*
X474962Y400545D01*
X475122Y400538D01*
X475359Y400491D01*
X475517Y400523D01*
X475677Y400516D01*
X475903Y400600D01*
X476139Y400647D01*
X476273Y400736D01*
X476423Y400792D01*
X476600Y400955D01*
X476668Y401000D01*
X489000D01*
Y419000D01*
X471000D01*
Y406669D01*
X470955Y406601D01*
X470791Y406424D01*
X470736Y406273D01*
X470647Y406139D01*
X470600Y405903D01*
X470516Y405677D01*
X470523Y405517D01*
X470491Y405359D01*
X470538Y405123D01*
X470545Y404962D01*
X470516Y404920D01*
X470084Y404410D01*
X468593Y402919D01*
X467306D01*
X466820Y404092D01*
X467202Y404474D01*
X468387Y406526D01*
X469000Y408815D01*
Y411185D01*
X468387Y413474D01*
X467202Y415526D01*
X465526Y417202D01*
X463474Y418387D01*
X461185Y419000D01*
X458815D01*
X456526Y418387D01*
X454474Y417202D01*
X452798Y415526D01*
X451613Y413474D01*
X451502Y413059D01*
X288750D01*
X288750Y413059D01*
X287580Y412826D01*
X286587Y412163D01*
X286587Y412163D01*
X270232Y395808D01*
X269059Y396294D01*
Y399353D01*
X289367Y419661D01*
X397320D01*
X397320Y419661D01*
X398490Y419894D01*
X399483Y420557D01*
X412163Y433237D01*
X412163Y433237D01*
X412826Y434230D01*
X413059Y435400D01*
X413059Y435400D01*
Y451502D01*
X413474Y451613D01*
X415526Y452798D01*
X417202Y454474D01*
X418387Y456526D01*
X419000Y458815D01*
Y461185D01*
X418387Y463474D01*
X417202Y465526D01*
X415526Y467202D01*
X413474Y468387D01*
X411185Y469000D01*
X408815D01*
X406526Y468387D01*
X404474Y467202D01*
X402798Y465526D01*
X401614Y463474D01*
X401000Y461185D01*
Y458815D01*
X401614Y456526D01*
X402798Y454474D01*
X404474Y452798D01*
X406526Y451613D01*
X406941Y451502D01*
Y436667D01*
X396053Y425779D01*
X288100D01*
X288100Y425779D01*
X286929Y425546D01*
X285937Y424883D01*
X263837Y402783D01*
X263174Y401791D01*
X262941Y400620D01*
X262941Y400620D01*
Y381544D01*
X261768Y381058D01*
X243309Y399517D01*
Y452316D01*
X243835Y452534D01*
X244579Y452738D01*
X246526Y451613D01*
X248815Y451000D01*
X251185D01*
X253474Y451613D01*
X255526Y452798D01*
X257202Y454474D01*
X258387Y456526D01*
X259000Y458815D01*
Y461185D01*
X258387Y463474D01*
X257202Y465526D01*
X255526Y467202D01*
X253474Y468387D01*
X251185Y469000D01*
X248815D01*
X246526Y468387D01*
X244579Y467262D01*
X243835Y467466D01*
X243309Y467684D01*
Y468983D01*
X243827Y469501D01*
X243851Y469521D01*
X244083Y469664D01*
X244429Y469822D01*
X244891Y469980D01*
X245468Y470125D01*
X246153Y470249D01*
X246922Y470345D01*
X248841Y470456D01*
X249935Y470461D01*
X250315Y470539D01*
X250705Y470616D01*
X250710Y470619D01*
X250715Y470620D01*
X251037Y470838D01*
X251343Y471042D01*
X253474Y471613D01*
X255526Y472798D01*
X257202Y474474D01*
X258387Y476526D01*
X259000Y478815D01*
Y481185D01*
X258387Y483474D01*
X257202Y485526D01*
X255526Y487202D01*
X253474Y488387D01*
X251185Y489000D01*
D02*
G37*
G36*
X134107Y468645D02*
X134113Y468560D01*
X134200Y467920D01*
X134312Y467341D01*
X134450Y466822D01*
X134613Y466365D01*
X134800Y465968D01*
X135013Y465631D01*
X135250Y465356D01*
X124750D01*
X124987Y465631D01*
X125200Y465968D01*
X125387Y466365D01*
X125550Y466822D01*
X125688Y467341D01*
X125800Y467920D01*
X125887Y468560D01*
X125893Y468645D01*
X124142Y467634D01*
X122366Y465858D01*
X121110Y463682D01*
X120804Y462540D01*
X139196D01*
X138890Y463682D01*
X137634Y465858D01*
X135858Y467634D01*
X134107Y468645D01*
D02*
G37*
G36*
X470000Y480086D02*
X467389Y479743D01*
X464957Y478735D01*
X462868Y477132D01*
X461265Y475043D01*
X460257Y472611D01*
X459914Y470000D01*
X460257Y467389D01*
X461265Y464957D01*
X462868Y462868D01*
X464957Y461265D01*
X467389Y460257D01*
X470000Y459914D01*
X472611Y460257D01*
X475043Y461265D01*
X477132Y462868D01*
X478735Y464957D01*
X479743Y467389D01*
X480086Y470000D01*
X479743Y472611D01*
X478735Y475043D01*
X477132Y477132D01*
X475043Y478735D01*
X472611Y479743D01*
X470000Y480086D01*
D02*
G37*
G36*
X391185Y469000D02*
X388815D01*
X386526Y468387D01*
X384474Y467202D01*
X382799Y465526D01*
X381614Y463474D01*
X381000Y461185D01*
Y458815D01*
X381614Y456526D01*
X382799Y454474D01*
X384474Y452798D01*
X386526Y451613D01*
X388815Y451000D01*
X391185D01*
X393474Y451613D01*
X395526Y452798D01*
X397202Y454474D01*
X398387Y456526D01*
X399000Y458815D01*
Y461185D01*
X398387Y463474D01*
X397202Y465526D01*
X395526Y467202D01*
X393474Y468387D01*
X391185Y469000D01*
D02*
G37*
G36*
X371185D02*
X368815D01*
X366526Y468387D01*
X364474Y467202D01*
X362799Y465526D01*
X361614Y463474D01*
X361000Y461185D01*
Y458815D01*
X361614Y456526D01*
X362799Y454474D01*
X364474Y452798D01*
X366526Y451613D01*
X368815Y451000D01*
X371185D01*
X373474Y451613D01*
X375526Y452798D01*
X377202Y454474D01*
X378387Y456526D01*
X379000Y458815D01*
Y461185D01*
X378387Y463474D01*
X377202Y465526D01*
X375526Y467202D01*
X373474Y468387D01*
X371185Y469000D01*
D02*
G37*
G36*
X351185D02*
X348815D01*
X346526Y468387D01*
X344474Y467202D01*
X342798Y465526D01*
X341613Y463474D01*
X341000Y461185D01*
Y458815D01*
X341613Y456526D01*
X342798Y454474D01*
X344474Y452798D01*
X346526Y451613D01*
X348815Y451000D01*
X351185D01*
X353474Y451613D01*
X355526Y452798D01*
X357202Y454474D01*
X358387Y456526D01*
X359000Y458815D01*
Y461185D01*
X358387Y463474D01*
X357202Y465526D01*
X355526Y467202D01*
X353474Y468387D01*
X351185Y469000D01*
D02*
G37*
G36*
X331185D02*
X328815D01*
X326526Y468387D01*
X324474Y467202D01*
X322798Y465526D01*
X321614Y463474D01*
X321000Y461185D01*
Y458815D01*
X321614Y456526D01*
X322798Y454474D01*
X324474Y452798D01*
X326526Y451613D01*
X328815Y451000D01*
X331185D01*
X333474Y451613D01*
X335526Y452798D01*
X337202Y454474D01*
X338387Y456526D01*
X339000Y458815D01*
Y461185D01*
X338387Y463474D01*
X337202Y465526D01*
X335526Y467202D01*
X333474Y468387D01*
X331185Y469000D01*
D02*
G37*
G36*
X271185D02*
X268815D01*
X266526Y468387D01*
X264474Y467202D01*
X262798Y465526D01*
X261613Y463474D01*
X261000Y461185D01*
Y458815D01*
X261613Y456526D01*
X262798Y454474D01*
X264474Y452798D01*
X266526Y451613D01*
X268815Y451000D01*
X271185D01*
X273474Y451613D01*
X275526Y452798D01*
X277202Y454474D01*
X278387Y456526D01*
X279000Y458815D01*
Y461185D01*
X278387Y463474D01*
X277202Y465526D01*
X275526Y467202D01*
X273474Y468387D01*
X271185Y469000D01*
D02*
G37*
G36*
X171185D02*
X168815D01*
X166526Y468387D01*
X164474Y467202D01*
X162798Y465526D01*
X161613Y463474D01*
X161000Y461185D01*
Y458815D01*
X161613Y456526D01*
X162798Y454474D01*
X164474Y452798D01*
X166526Y451613D01*
X168815Y451000D01*
X171185D01*
X173474Y451613D01*
X175526Y452798D01*
X177202Y454474D01*
X178387Y456526D01*
X179000Y458815D01*
Y461185D01*
X178387Y463474D01*
X177202Y465526D01*
X175526Y467202D01*
X173474Y468387D01*
X171185Y469000D01*
D02*
G37*
G36*
X151185D02*
X148815D01*
X146526Y468387D01*
X144474Y467202D01*
X142798Y465526D01*
X141613Y463474D01*
X141000Y461185D01*
Y458815D01*
X141613Y456526D01*
X142798Y454474D01*
X144474Y452798D01*
X146526Y451613D01*
X148815Y451000D01*
X151185D01*
X153474Y451613D01*
X155526Y452798D01*
X157202Y454474D01*
X158387Y456526D01*
X159000Y458815D01*
Y461185D01*
X158387Y463474D01*
X157202Y465526D01*
X155526Y467202D01*
X153474Y468387D01*
X151185Y469000D01*
D02*
G37*
G36*
X319196Y457460D02*
X312540D01*
Y450804D01*
X313682Y451110D01*
X315858Y452366D01*
X317634Y454142D01*
X318890Y456318D01*
X319196Y457460D01*
D02*
G37*
G36*
X287460D02*
X280804D01*
X281110Y456318D01*
X282366Y454142D01*
X284142Y452366D01*
X286318Y451110D01*
X287460Y450804D01*
Y457460D01*
D02*
G37*
G36*
X187460D02*
X180804D01*
X181110Y456318D01*
X182366Y454142D01*
X184142Y452366D01*
X186318Y451110D01*
X187460Y450804D01*
Y457460D01*
D02*
G37*
G36*
X139196D02*
X132540D01*
Y450804D01*
X133682Y451110D01*
X135858Y452366D01*
X137634Y454142D01*
X138890Y456318D01*
X139196Y457460D01*
D02*
G37*
G36*
X127460D02*
X120804D01*
X121110Y456318D01*
X122366Y454142D01*
X124142Y452366D01*
X126318Y451110D01*
X127460Y450804D01*
Y457460D01*
D02*
G37*
G36*
X378843Y442405D02*
X376853D01*
X375016Y441644D01*
X373609Y440237D01*
X372848Y438400D01*
Y436411D01*
X373609Y434573D01*
X375016Y433166D01*
X376853Y432405D01*
X378843D01*
X380680Y433166D01*
X382087Y434573D01*
X382848Y436411D01*
Y438400D01*
X382087Y440237D01*
X380680Y441644D01*
X378843Y442405D01*
D02*
G37*
G36*
X49000Y419000D02*
X31000D01*
Y401000D01*
X49000D01*
Y419000D01*
D02*
G37*
G36*
X21185D02*
X18815D01*
X16526Y418387D01*
X14474Y417202D01*
X12798Y415526D01*
X11613Y413474D01*
X11000Y411185D01*
Y408815D01*
X11613Y406526D01*
X12798Y404474D01*
X14474Y402798D01*
X16526Y401614D01*
X18815Y401000D01*
X21185D01*
X23474Y401614D01*
X25526Y402798D01*
X27202Y404474D01*
X28387Y406526D01*
X29000Y408815D01*
Y411185D01*
X28387Y413474D01*
X27202Y415526D01*
X25526Y417202D01*
X23474Y418387D01*
X21185Y419000D01*
D02*
G37*
G36*
Y399000D02*
X18815D01*
X16526Y398387D01*
X14474Y397202D01*
X12798Y395526D01*
X11613Y393474D01*
X11000Y391185D01*
Y388815D01*
X11613Y386526D01*
X12798Y384474D01*
X14474Y382799D01*
X16526Y381614D01*
X18815Y381000D01*
X21185D01*
X23474Y381614D01*
X25526Y382799D01*
X27202Y384474D01*
X28387Y386526D01*
X29000Y388815D01*
Y391185D01*
X28387Y393474D01*
X27202Y395526D01*
X25526Y397202D01*
X23474Y398387D01*
X21185Y399000D01*
D02*
G37*
G36*
X481185Y379000D02*
X478815D01*
X476526Y378387D01*
X474474Y377202D01*
X472798Y375526D01*
X471613Y373474D01*
X471000Y371185D01*
Y368815D01*
X471613Y366526D01*
X472798Y364474D01*
X474474Y362798D01*
X476526Y361613D01*
X478815Y361000D01*
X481185D01*
X483474Y361613D01*
X485526Y362798D01*
X487202Y364474D01*
X488387Y366526D01*
X489000Y368815D01*
Y371185D01*
X488387Y373474D01*
X487202Y375526D01*
X485526Y377202D01*
X483474Y378387D01*
X481185Y379000D01*
D02*
G37*
G36*
X177650Y365274D02*
X176440D01*
Y357950D01*
X181514D01*
Y361410D01*
X181220Y362889D01*
X180383Y364142D01*
X179129Y364980D01*
X177650Y365274D01*
D02*
G37*
G36*
X171360D02*
X170150D01*
X168671Y364980D01*
X167418Y364142D01*
X166580Y362889D01*
X166286Y361410D01*
Y357950D01*
X171360D01*
Y365274D01*
D02*
G37*
G36*
X181514Y352870D02*
X166286D01*
Y349410D01*
X166580Y347931D01*
X166988Y347320D01*
X166309Y346050D01*
X160610D01*
Y341050D01*
X177690D01*
Y345554D01*
X179129Y345840D01*
X180383Y346678D01*
X181220Y347931D01*
X181514Y349410D01*
Y352870D01*
D02*
G37*
G36*
X481185Y359000D02*
X478815D01*
X476526Y358387D01*
X474474Y357202D01*
X472798Y355526D01*
X471613Y353474D01*
X471000Y351185D01*
Y348815D01*
X471613Y346526D01*
X472798Y344474D01*
X474474Y342798D01*
X476526Y341613D01*
X478815Y341000D01*
X481185D01*
X483474Y341613D01*
X485526Y342798D01*
X487202Y344474D01*
X488387Y346526D01*
X489000Y348815D01*
Y351185D01*
X488387Y353474D01*
X487202Y355526D01*
X485526Y357202D01*
X483474Y358387D01*
X481185Y359000D01*
D02*
G37*
G36*
X461185D02*
X458815D01*
X456526Y358387D01*
X454474Y357202D01*
X452798Y355526D01*
X451613Y353474D01*
X451000Y351185D01*
Y348815D01*
X451613Y346526D01*
X452798Y344474D01*
X454474Y342798D01*
X456526Y341613D01*
X458815Y341000D01*
X461185D01*
X463474Y341613D01*
X465526Y342798D01*
X467202Y344474D01*
X468387Y346526D01*
X469000Y348815D01*
Y351185D01*
X468387Y353474D01*
X467202Y355526D01*
X465526Y357202D01*
X463474Y358387D01*
X461185Y359000D01*
D02*
G37*
G36*
X80815Y345170D02*
X78825D01*
X76988Y344409D01*
X75581Y343002D01*
X74820Y341165D01*
Y339175D01*
X75581Y337338D01*
X76988Y335931D01*
X78825Y335170D01*
X80815D01*
X82652Y335931D01*
X84059Y337338D01*
X84820Y339175D01*
Y341165D01*
X84059Y343002D01*
X82652Y344409D01*
X80815Y345170D01*
D02*
G37*
G36*
X22540Y339196D02*
Y332540D01*
X29196D01*
X28890Y333682D01*
X27634Y335858D01*
X25858Y337634D01*
X23682Y338890D01*
X22540Y339196D01*
D02*
G37*
G36*
X17460D02*
X16318Y338890D01*
X14142Y337634D01*
X12366Y335858D01*
X11110Y333682D01*
X10804Y332540D01*
X17460D01*
Y339196D01*
D02*
G37*
G36*
X177690Y335970D02*
X171690D01*
Y330970D01*
X177690D01*
Y335970D01*
D02*
G37*
G36*
X166610D02*
X160610D01*
Y330970D01*
X166610D01*
Y335970D01*
D02*
G37*
G36*
X188610Y329050D02*
X182610D01*
Y324050D01*
X188610D01*
Y329050D01*
D02*
G37*
G36*
X481185Y339000D02*
X478815D01*
X476526Y338387D01*
X474474Y337202D01*
X472798Y335526D01*
X471613Y333474D01*
X471000Y331185D01*
Y328815D01*
X471613Y326526D01*
X472798Y324474D01*
X474474Y322798D01*
X476526Y321614D01*
X478815Y321000D01*
X481185D01*
X483474Y321614D01*
X485526Y322798D01*
X487202Y324474D01*
X488387Y326526D01*
X489000Y328815D01*
Y331185D01*
X488387Y333474D01*
X487202Y335526D01*
X485526Y337202D01*
X483474Y338387D01*
X481185Y339000D01*
D02*
G37*
G36*
X29196Y327460D02*
X22540D01*
Y320804D01*
X23682Y321110D01*
X25858Y322366D01*
X27634Y324142D01*
X28890Y326318D01*
X29196Y327460D01*
D02*
G37*
G36*
X17460D02*
X10804D01*
X11110Y326318D01*
X12366Y324142D01*
X14142Y322366D01*
X16318Y321110D01*
X17460Y320804D01*
Y327460D01*
D02*
G37*
G36*
X41185Y319000D02*
X38815D01*
X36526Y318387D01*
X34474Y317202D01*
X32798Y315526D01*
X31613Y313474D01*
X31000Y311185D01*
Y308815D01*
X31613Y306526D01*
X32798Y304474D01*
X34474Y302798D01*
X36526Y301614D01*
X38815Y301000D01*
X41185D01*
X43474Y301614D01*
X45526Y302798D01*
X47202Y304474D01*
X48387Y306526D01*
X49000Y308815D01*
Y311185D01*
X48387Y313474D01*
X47202Y315526D01*
X45526Y317202D01*
X43474Y318387D01*
X41185Y319000D01*
D02*
G37*
G36*
X21185D02*
X18815D01*
X16526Y318387D01*
X14474Y317202D01*
X12798Y315526D01*
X11613Y313474D01*
X11000Y311185D01*
Y308815D01*
X11613Y306526D01*
X12798Y304474D01*
X14474Y302798D01*
X16526Y301614D01*
X18815Y301000D01*
X21185D01*
X23474Y301614D01*
X25526Y302798D01*
X27202Y304474D01*
X28387Y306526D01*
X29000Y308815D01*
Y311185D01*
X28387Y313474D01*
X27202Y315526D01*
X25526Y317202D01*
X23474Y318387D01*
X21185Y319000D01*
D02*
G37*
G36*
X307840Y292894D02*
X304610D01*
Y287695D01*
X311684D01*
Y289050D01*
X311391Y290521D01*
X310558Y291768D01*
X309311Y292601D01*
X307840Y292894D01*
D02*
G37*
G36*
X338900Y314538D02*
X338309Y314420D01*
X337706D01*
X337150Y314189D01*
X336559Y314072D01*
X336058Y313737D01*
X335501Y313507D01*
X335075Y313081D01*
X334574Y312746D01*
X334240Y312245D01*
X333814Y311819D01*
X333583Y311262D01*
X333248Y310761D01*
X333131Y310170D01*
X332900Y309613D01*
Y309011D01*
X332783Y308420D01*
Y265350D01*
X333000Y264256D01*
Y264056D01*
X333076Y263872D01*
X333248Y263009D01*
X333737Y262277D01*
X333913Y261851D01*
X334240Y261525D01*
X334574Y261024D01*
X334674Y260924D01*
X335175Y260590D01*
X335601Y260163D01*
X336158Y259933D01*
X336659Y259598D01*
X337250Y259481D01*
X337807Y259250D01*
X338409D01*
X339000Y259132D01*
X339591Y259250D01*
X340193D01*
X340750Y259481D01*
X341341Y259598D01*
X341842Y259933D01*
X342399Y260163D01*
X342825Y260590D01*
X343326Y260924D01*
X343661Y261425D01*
X344087Y261851D01*
X344317Y262408D01*
X344652Y262909D01*
X344769Y263500D01*
X345000Y264056D01*
Y264659D01*
X345117Y265250D01*
X345018Y265753D01*
Y285952D01*
X346191Y286438D01*
X346228Y286401D01*
X348065Y285640D01*
X350055D01*
X351892Y286401D01*
X353299Y287808D01*
X354060Y289645D01*
Y291635D01*
X353299Y293472D01*
X351892Y294879D01*
X350055Y295640D01*
X348065D01*
X346228Y294879D01*
X346191Y294842D01*
X345018Y295328D01*
Y308420D01*
X344900Y309011D01*
Y309613D01*
X344669Y310170D01*
X344552Y310761D01*
X344217Y311262D01*
X343987Y311819D01*
X343560Y312245D01*
X343226Y312746D01*
X342725Y313081D01*
X342299Y313507D01*
X341742Y313737D01*
X341241Y314072D01*
X340650Y314189D01*
X340093Y314420D01*
X339491D01*
X338900Y314538D01*
D02*
G37*
G36*
X481185Y299000D02*
X478815D01*
X476526Y298387D01*
X474474Y297202D01*
X472798Y295526D01*
X471613Y293474D01*
X471000Y291185D01*
Y288815D01*
X471613Y286526D01*
X472798Y284474D01*
X474474Y282798D01*
X476526Y281614D01*
X478815Y281000D01*
X481185D01*
X483474Y281614D01*
X485526Y282798D01*
X487202Y284474D01*
X488387Y286526D01*
X489000Y288815D01*
Y291185D01*
X488387Y293474D01*
X487202Y295526D01*
X485526Y297202D01*
X483474Y298387D01*
X481185Y299000D01*
D02*
G37*
G36*
X461185D02*
X458815D01*
X456526Y298387D01*
X454474Y297202D01*
X452798Y295526D01*
X451613Y293474D01*
X451000Y291185D01*
Y288815D01*
X451613Y286526D01*
X452798Y284474D01*
X454474Y282798D01*
X456526Y281614D01*
X458815Y281000D01*
X461185D01*
X463474Y281614D01*
X465526Y282798D01*
X467202Y284474D01*
X468387Y286526D01*
X469000Y288815D01*
Y291185D01*
X468387Y293474D01*
X467202Y295526D01*
X465526Y297202D01*
X463474Y298387D01*
X461185Y299000D01*
D02*
G37*
G36*
X41185D02*
X38815D01*
X36526Y298387D01*
X34474Y297202D01*
X32798Y295526D01*
X31613Y293474D01*
X31000Y291185D01*
Y288815D01*
X31613Y286526D01*
X32798Y284474D01*
X34474Y282798D01*
X36526Y281614D01*
X38815Y281000D01*
X41185D01*
X43474Y281614D01*
X45526Y282798D01*
X47202Y284474D01*
X48387Y286526D01*
X49000Y288815D01*
Y291185D01*
X48387Y293474D01*
X47202Y295526D01*
X45526Y297202D01*
X43474Y298387D01*
X41185Y299000D01*
D02*
G37*
G36*
X21185D02*
X18815D01*
X16526Y298387D01*
X14474Y297202D01*
X12798Y295526D01*
X11613Y293474D01*
X11000Y291185D01*
Y288815D01*
X11613Y286526D01*
X12798Y284474D01*
X14474Y282798D01*
X16526Y281614D01*
X18815Y281000D01*
X21185D01*
X23474Y281614D01*
X25526Y282798D01*
X27202Y284474D01*
X28387Y286526D01*
X29000Y288815D01*
Y291185D01*
X28387Y293474D01*
X27202Y295526D01*
X25526Y297202D01*
X23474Y298387D01*
X21185Y299000D01*
D02*
G37*
G36*
X80730Y290656D02*
X78741D01*
X76903Y289895D01*
X75497Y288489D01*
X74736Y286651D01*
Y284662D01*
X75497Y282824D01*
X76903Y281417D01*
X78741Y280656D01*
X80730D01*
X82568Y281417D01*
X83974Y282824D01*
X84736Y284662D01*
Y286651D01*
X83974Y288489D01*
X82568Y289895D01*
X80730Y290656D01*
D02*
G37*
G36*
X311684Y282615D02*
X304610D01*
Y277416D01*
X307840D01*
X309311Y277709D01*
X310558Y278542D01*
X311391Y279789D01*
X311684Y281260D01*
Y282615D01*
D02*
G37*
G36*
X21185Y279000D02*
X18815D01*
X16526Y278387D01*
X14474Y277202D01*
X12798Y275526D01*
X11613Y273474D01*
X11000Y271185D01*
Y268815D01*
X11613Y266526D01*
X12798Y264474D01*
X14474Y262799D01*
X16526Y261614D01*
X18815Y261000D01*
X21185D01*
X23474Y261614D01*
X25526Y262799D01*
X27202Y264474D01*
X28387Y266526D01*
X29000Y268815D01*
Y271185D01*
X28387Y273474D01*
X27202Y275526D01*
X25526Y277202D01*
X23474Y278387D01*
X21185Y279000D01*
D02*
G37*
G36*
X324815Y295614D02*
X324224Y295496D01*
X323621D01*
X323065Y295266D01*
X322474Y295148D01*
X321973Y294813D01*
X321416Y294583D01*
X320990Y294157D01*
X320489Y293822D01*
X320154Y293321D01*
X319728Y292895D01*
X319498Y292338D01*
X319163Y291837D01*
X319046Y291246D01*
X318815Y290690D01*
Y290087D01*
X318697Y289496D01*
Y265435D01*
X319163Y263094D01*
X319783Y262166D01*
X319914Y261851D01*
X320154Y261610D01*
X320489Y261109D01*
X320674Y260924D01*
X321175Y260590D01*
X321601Y260163D01*
X322158Y259933D01*
X322659Y259598D01*
X323250Y259481D01*
X323806Y259250D01*
X324409D01*
X325000Y259132D01*
X325591Y259250D01*
X326194D01*
X326750Y259481D01*
X327341Y259598D01*
X327842Y259933D01*
X328399Y260163D01*
X328825Y260590D01*
X329326Y260924D01*
X329660Y261425D01*
X330087Y261851D01*
X330317Y262408D01*
X330652Y262909D01*
X330769Y263500D01*
X331000Y264056D01*
Y264659D01*
X331118Y265250D01*
X331000Y265841D01*
Y266444D01*
X330933Y266607D01*
Y289496D01*
X330815Y290087D01*
Y290690D01*
X330584Y291246D01*
X330467Y291837D01*
X330132Y292338D01*
X329902Y292895D01*
X329475Y293321D01*
X329141Y293822D01*
X328640Y294157D01*
X328214Y294583D01*
X327657Y294813D01*
X327156Y295148D01*
X326565Y295266D01*
X326008Y295496D01*
X325406D01*
X324815Y295614D01*
D02*
G37*
G36*
X481185Y259000D02*
X478815D01*
X476526Y258387D01*
X474474Y257202D01*
X472798Y255526D01*
X471613Y253474D01*
X471000Y251185D01*
Y248815D01*
X471613Y246526D01*
X472798Y244474D01*
X474474Y242798D01*
X476526Y241613D01*
X478815Y241000D01*
X481185D01*
X483474Y241613D01*
X485526Y242798D01*
X487202Y244474D01*
X488387Y246526D01*
X489000Y248815D01*
Y251185D01*
X488387Y253474D01*
X487202Y255526D01*
X485526Y257202D01*
X483474Y258387D01*
X481185Y259000D01*
D02*
G37*
G36*
Y239000D02*
X478815D01*
X476526Y238387D01*
X474474Y237202D01*
X472798Y235526D01*
X471613Y233474D01*
X471000Y231185D01*
Y228815D01*
X471613Y226526D01*
X472798Y224474D01*
X474474Y222798D01*
X476526Y221613D01*
X478815Y221000D01*
X481185D01*
X483474Y221613D01*
X485526Y222798D01*
X487202Y224474D01*
X488387Y226526D01*
X489000Y228815D01*
Y231185D01*
X488387Y233474D01*
X487202Y235526D01*
X485526Y237202D01*
X483474Y238387D01*
X481185Y239000D01*
D02*
G37*
G36*
X461185D02*
X458815D01*
X456526Y238387D01*
X454474Y237202D01*
X452798Y235526D01*
X451613Y233474D01*
X451000Y231185D01*
Y228815D01*
X451613Y226526D01*
X452798Y224474D01*
X454474Y222798D01*
X456526Y221613D01*
X458815Y221000D01*
X461185D01*
X463474Y221613D01*
X465526Y222798D01*
X467202Y224474D01*
X468387Y226526D01*
X469000Y228815D01*
Y231185D01*
X468387Y233474D01*
X467202Y235526D01*
X465526Y237202D01*
X463474Y238387D01*
X461185Y239000D01*
D02*
G37*
G36*
X21185D02*
X18815D01*
X16526Y238387D01*
X14474Y237202D01*
X12798Y235526D01*
X11613Y233474D01*
X11000Y231185D01*
Y228815D01*
X11613Y226526D01*
X12798Y224474D01*
X14474Y222798D01*
X16526Y221613D01*
X18815Y221000D01*
X21185D01*
X23474Y221613D01*
X25526Y222798D01*
X27202Y224474D01*
X28387Y226526D01*
X29000Y228815D01*
Y231185D01*
X28387Y233474D01*
X27202Y235526D01*
X25526Y237202D01*
X23474Y238387D01*
X21185Y239000D01*
D02*
G37*
G36*
X42540Y219196D02*
Y212540D01*
X49196D01*
X48890Y213682D01*
X47634Y215858D01*
X45858Y217634D01*
X43682Y218890D01*
X42540Y219196D01*
D02*
G37*
G36*
X17460D02*
X16318Y218890D01*
X14142Y217634D01*
X12366Y215858D01*
X11110Y213682D01*
X10804Y212540D01*
X17460D01*
Y219196D01*
D02*
G37*
G36*
X482540Y219196D02*
Y212540D01*
X489196D01*
X488890Y213682D01*
X487634Y215858D01*
X485858Y217634D01*
X483682Y218890D01*
X482540Y219196D01*
D02*
G37*
G36*
X457460Y219196D02*
X456318Y218890D01*
X454142Y217634D01*
X452366Y215858D01*
X451110Y213682D01*
X450804Y212540D01*
X457460D01*
Y219196D01*
D02*
G37*
G36*
X164960Y214440D02*
X159886D01*
Y210980D01*
X160180Y209501D01*
X161018Y208248D01*
X162271Y207410D01*
X163750Y207116D01*
X164960D01*
Y214440D01*
D02*
G37*
G36*
X462540Y219196D02*
Y210000D01*
X460000D01*
Y207460D01*
X450804D01*
X451110Y206318D01*
X452366Y204142D01*
X454142Y202366D01*
X456318Y201110D01*
X458007Y200657D01*
Y199342D01*
X456318Y198890D01*
X454142Y197634D01*
X452366Y195858D01*
X451110Y193682D01*
X450804Y192540D01*
X460000D01*
Y190000D01*
X462540D01*
Y180804D01*
X463682Y181110D01*
X465858Y182366D01*
X467634Y184142D01*
X468645Y185893D01*
X468560Y185887D01*
X467920Y185800D01*
X467341Y185687D01*
X466822Y185550D01*
X466365Y185387D01*
X465968Y185200D01*
X465631Y184987D01*
X465356Y184750D01*
Y195250D01*
X465631Y195012D01*
X465968Y194800D01*
X466365Y194612D01*
X466822Y194450D01*
X467341Y194312D01*
X467920Y194200D01*
X468560Y194112D01*
X470000Y194014D01*
X471440Y194112D01*
X472080Y194200D01*
X472659Y194312D01*
X473178Y194450D01*
X473635Y194612D01*
X474032Y194800D01*
X474369Y195012D01*
X474644Y195250D01*
Y184750D01*
X474369Y184987D01*
X474032Y185200D01*
X473635Y185387D01*
X473178Y185550D01*
X472659Y185687D01*
X472080Y185800D01*
X471440Y185887D01*
X471355Y185893D01*
X472366Y184142D01*
X474142Y182366D01*
X476318Y181110D01*
X477460Y180804D01*
Y190000D01*
X480000D01*
Y192540D01*
X489196D01*
X488890Y193682D01*
X487634Y195858D01*
X485858Y197634D01*
X484107Y198645D01*
X484113Y198560D01*
X484200Y197920D01*
X484313Y197341D01*
X484450Y196822D01*
X484613Y196364D01*
X484800Y195968D01*
X485013Y195631D01*
X485250Y195356D01*
X474750D01*
X474987Y195631D01*
X475200Y195968D01*
X475387Y196364D01*
X475550Y196822D01*
X475687Y197341D01*
X475800Y197920D01*
X475887Y198560D01*
X475986Y200000D01*
X475887Y201440D01*
X475800Y202080D01*
X475687Y202659D01*
X475550Y203178D01*
X475387Y203635D01*
X475200Y204032D01*
X474987Y204368D01*
X474750Y204644D01*
X485250D01*
X485013Y204368D01*
X484800Y204032D01*
X484613Y203635D01*
X484450Y203178D01*
X484313Y202659D01*
X484200Y202080D01*
X484113Y201440D01*
X484107Y201355D01*
X485858Y202366D01*
X487634Y204142D01*
X488890Y206318D01*
X489196Y207460D01*
X480000D01*
Y210000D01*
X477460D01*
Y219196D01*
X476318Y218890D01*
X474142Y217634D01*
X472366Y215858D01*
X471355Y214107D01*
X471440Y214112D01*
X472080Y214200D01*
X472659Y214312D01*
X473178Y214450D01*
X473635Y214612D01*
X474032Y214800D01*
X474369Y215012D01*
X474644Y215250D01*
Y204750D01*
X474369Y204987D01*
X474032Y205200D01*
X473635Y205387D01*
X473178Y205550D01*
X472659Y205687D01*
X472080Y205800D01*
X471440Y205887D01*
X470000Y205986D01*
X468560Y205887D01*
X467920Y205800D01*
X467341Y205687D01*
X466822Y205550D01*
X466365Y205387D01*
X465968Y205200D01*
X465631Y204987D01*
X465356Y204750D01*
Y215250D01*
X465631Y215012D01*
X465968Y214800D01*
X466365Y214612D01*
X466822Y214450D01*
X467341Y214312D01*
X467920Y214200D01*
X468560Y214112D01*
X468645Y214107D01*
X467634Y215858D01*
X465858Y217634D01*
X463682Y218890D01*
X462540Y219196D01*
D02*
G37*
G36*
X22540Y219196D02*
Y210000D01*
X20000D01*
Y207460D01*
X10804D01*
X11110Y206318D01*
X12366Y204142D01*
X14142Y202366D01*
X15893Y201355D01*
X15888Y201440D01*
X15800Y202080D01*
X15688Y202659D01*
X15550Y203178D01*
X15388Y203635D01*
X15200Y204032D01*
X14987Y204368D01*
X14750Y204644D01*
X25250D01*
X25013Y204368D01*
X24800Y204032D01*
X24613Y203635D01*
X24450Y203178D01*
X24313Y202659D01*
X24200Y202080D01*
X24113Y201440D01*
X24014Y200000D01*
X24113Y198560D01*
X24200Y197920D01*
X24313Y197341D01*
X24450Y196822D01*
X24613Y196364D01*
X24800Y195968D01*
X25013Y195631D01*
X25250Y195356D01*
X14750D01*
X14987Y195631D01*
X15200Y195968D01*
X15388Y196364D01*
X15550Y196822D01*
X15688Y197341D01*
X15800Y197920D01*
X15888Y198560D01*
X15893Y198645D01*
X14142Y197634D01*
X12366Y195858D01*
X11110Y193682D01*
X10804Y192540D01*
X20000D01*
Y190000D01*
X22540D01*
Y180804D01*
X23682Y181110D01*
X25858Y182366D01*
X27634Y184142D01*
X28645Y185893D01*
X28560Y185887D01*
X27920Y185800D01*
X27341Y185687D01*
X26822Y185550D01*
X26365Y185387D01*
X25968Y185200D01*
X25631Y184987D01*
X25356Y184750D01*
Y195250D01*
X25631Y195012D01*
X25968Y194800D01*
X26365Y194612D01*
X26822Y194450D01*
X27341Y194312D01*
X27920Y194200D01*
X28560Y194112D01*
X30000Y194014D01*
X31440Y194112D01*
X32080Y194200D01*
X32659Y194312D01*
X33178Y194450D01*
X33635Y194612D01*
X34032Y194800D01*
X34369Y195012D01*
X34644Y195250D01*
Y184750D01*
X34369Y184987D01*
X34032Y185200D01*
X33635Y185387D01*
X33178Y185550D01*
X32659Y185687D01*
X32080Y185800D01*
X31440Y185887D01*
X31355Y185893D01*
X32366Y184142D01*
X34142Y182366D01*
X36318Y181110D01*
X37460Y180804D01*
Y190000D01*
X40000D01*
Y192540D01*
X49196D01*
X48890Y193682D01*
X47634Y195858D01*
X45858Y197634D01*
X44107Y198645D01*
X44113Y198560D01*
X44200Y197920D01*
X44313Y197341D01*
X44450Y196822D01*
X44612Y196364D01*
X44800Y195968D01*
X45012Y195631D01*
X45250Y195356D01*
X34750D01*
X34987Y195631D01*
X35200Y195968D01*
X35387Y196364D01*
X35550Y196822D01*
X35687Y197341D01*
X35800Y197920D01*
X35887Y198560D01*
X35986Y200000D01*
X35887Y201440D01*
X35800Y202080D01*
X35687Y202659D01*
X35550Y203178D01*
X35387Y203635D01*
X35200Y204032D01*
X34987Y204368D01*
X34750Y204644D01*
X45250D01*
X45012Y204368D01*
X44800Y204032D01*
X44612Y203635D01*
X44450Y203178D01*
X44313Y202659D01*
X44200Y202080D01*
X44113Y201440D01*
X44107Y201355D01*
X45858Y202366D01*
X47634Y204142D01*
X48890Y206318D01*
X49196Y207460D01*
X40000D01*
Y210000D01*
X37460D01*
Y219196D01*
X36318Y218890D01*
X34142Y217634D01*
X32366Y215858D01*
X31355Y214107D01*
X31440Y214112D01*
X32080Y214200D01*
X32659Y214312D01*
X33178Y214450D01*
X33635Y214612D01*
X34032Y214800D01*
X34369Y215012D01*
X34644Y215250D01*
Y204750D01*
X34369Y204987D01*
X34032Y205200D01*
X33635Y205387D01*
X33178Y205550D01*
X32659Y205687D01*
X32080Y205800D01*
X31440Y205887D01*
X30000Y205986D01*
X28560Y205887D01*
X27920Y205800D01*
X27341Y205687D01*
X26822Y205550D01*
X26365Y205387D01*
X25968Y205200D01*
X25631Y204987D01*
X25356Y204750D01*
Y215250D01*
X25631Y215012D01*
X25968Y214800D01*
X26365Y214612D01*
X26822Y214450D01*
X27341Y214312D01*
X27920Y214200D01*
X28560Y214112D01*
X28645Y214107D01*
X27634Y215858D01*
X25858Y217634D01*
X23682Y218890D01*
X22540Y219196D01*
D02*
G37*
G36*
X457460Y187460D02*
X450804D01*
X451110Y186318D01*
X452366Y184142D01*
X454142Y182366D01*
X456318Y181110D01*
X457460Y180804D01*
Y187460D01*
D02*
G37*
G36*
X49196Y187460D02*
X42540D01*
Y180804D01*
X43682Y181110D01*
X45858Y182366D01*
X47634Y184142D01*
X48890Y186318D01*
X49196Y187460D01*
D02*
G37*
G36*
X17460D02*
X10804D01*
X11110Y186318D01*
X12366Y184142D01*
X14142Y182366D01*
X16318Y181110D01*
X17460Y180804D01*
Y187460D01*
D02*
G37*
G36*
X489196Y187460D02*
X482540D01*
Y180804D01*
X483682Y181110D01*
X485858Y182366D01*
X487634Y184142D01*
X488890Y186318D01*
X489196Y187460D01*
D02*
G37*
G36*
X41185Y179000D02*
X38815D01*
X36526Y178387D01*
X34474Y177202D01*
X32798Y175526D01*
X31613Y173474D01*
X31000Y171185D01*
Y168815D01*
X31613Y166526D01*
X32798Y164474D01*
X34474Y162798D01*
X36526Y161613D01*
X38815Y161000D01*
X41185D01*
X43474Y161613D01*
X45526Y162798D01*
X47202Y164474D01*
X48387Y166526D01*
X49000Y168815D01*
Y171185D01*
X48387Y173474D01*
X47202Y175526D01*
X45526Y177202D01*
X43474Y178387D01*
X41185Y179000D01*
D02*
G37*
G36*
X21185D02*
X18815D01*
X16526Y178387D01*
X14474Y177202D01*
X12798Y175526D01*
X11613Y173474D01*
X11000Y171185D01*
Y168815D01*
X11613Y166526D01*
X12798Y164474D01*
X14474Y162798D01*
X16526Y161613D01*
X18815Y161000D01*
X21185D01*
X23474Y161613D01*
X25526Y162798D01*
X27202Y164474D01*
X28387Y166526D01*
X29000Y168815D01*
Y171185D01*
X28387Y173474D01*
X27202Y175526D01*
X25526Y177202D01*
X23474Y178387D01*
X21185Y179000D01*
D02*
G37*
G36*
X164960Y165884D02*
X163750D01*
X162271Y165590D01*
X161018Y164753D01*
X160180Y163499D01*
X159886Y162020D01*
Y158560D01*
X164960D01*
Y165884D01*
D02*
G37*
G36*
X175114Y153480D02*
X170040D01*
Y146156D01*
X171250D01*
X172729Y146450D01*
X173982Y147288D01*
X174820Y148541D01*
X175114Y150020D01*
Y153480D01*
D02*
G37*
G36*
X164960D02*
X159886D01*
Y150020D01*
X160180Y148541D01*
X161018Y147288D01*
X162271Y146450D01*
X163750Y146156D01*
X164960D01*
Y153480D01*
D02*
G37*
G36*
X481185Y159000D02*
X478815D01*
X476526Y158387D01*
X474474Y157202D01*
X472798Y155526D01*
X471613Y153474D01*
X471000Y151185D01*
Y148815D01*
X471613Y146526D01*
X472798Y144474D01*
X474474Y142798D01*
X476526Y141613D01*
X478815Y141000D01*
X481185D01*
X483474Y141613D01*
X485526Y142798D01*
X487202Y144474D01*
X488387Y146526D01*
X489000Y148815D01*
Y151185D01*
X488387Y153474D01*
X487202Y155526D01*
X485526Y157202D01*
X483474Y158387D01*
X481185Y159000D01*
D02*
G37*
G36*
X41185D02*
X38815D01*
X36526Y158387D01*
X34474Y157202D01*
X32798Y155526D01*
X31613Y153474D01*
X31000Y151185D01*
Y148815D01*
X31613Y146526D01*
X32798Y144474D01*
X34474Y142798D01*
X36526Y141613D01*
X38815Y141000D01*
X41185D01*
X43474Y141613D01*
X45526Y142798D01*
X47202Y144474D01*
X48387Y146526D01*
X49000Y148815D01*
Y151185D01*
X48387Y153474D01*
X47202Y155526D01*
X45526Y157202D01*
X43474Y158387D01*
X41185Y159000D01*
D02*
G37*
G36*
X21185D02*
X18815D01*
X16526Y158387D01*
X14474Y157202D01*
X12798Y155526D01*
X11613Y153474D01*
X11000Y151185D01*
Y148815D01*
X11613Y146526D01*
X12798Y144474D01*
X14474Y142798D01*
X16526Y141613D01*
X18815Y141000D01*
X21185D01*
X23474Y141613D01*
X25526Y142798D01*
X27202Y144474D01*
X28387Y146526D01*
X29000Y148815D01*
Y151185D01*
X28387Y153474D01*
X27202Y155526D01*
X25526Y157202D01*
X23474Y158387D01*
X21185Y159000D01*
D02*
G37*
G36*
X200095Y130040D02*
X198305D01*
X196651Y129355D01*
X195385Y128089D01*
X194700Y126435D01*
Y124645D01*
X195385Y122991D01*
X196651Y121725D01*
X198305Y121040D01*
X200095D01*
X201749Y121725D01*
X203015Y122991D01*
X203700Y124645D01*
Y126435D01*
X203015Y128089D01*
X201749Y129355D01*
X200095Y130040D01*
D02*
G37*
G36*
X41185Y139000D02*
X38815D01*
X36526Y138386D01*
X34474Y137201D01*
X32798Y135526D01*
X31613Y133474D01*
X31000Y131185D01*
Y128815D01*
X31613Y126526D01*
X32798Y124474D01*
X34474Y122798D01*
X36526Y121613D01*
X38815Y121000D01*
X41185D01*
X43474Y121613D01*
X45526Y122798D01*
X47202Y124474D01*
X48387Y126526D01*
X49000Y128815D01*
Y131185D01*
X48387Y133474D01*
X47202Y135526D01*
X45526Y137201D01*
X43474Y138386D01*
X41185Y139000D01*
D02*
G37*
G36*
X21185D02*
X18815D01*
X16526Y138386D01*
X14474Y137201D01*
X12798Y135526D01*
X11613Y133474D01*
X11000Y131185D01*
Y128815D01*
X11613Y126526D01*
X12798Y124474D01*
X14474Y122798D01*
X16526Y121613D01*
X18815Y121000D01*
X21185D01*
X23474Y121613D01*
X25526Y122798D01*
X27202Y124474D01*
X28387Y126526D01*
X29000Y128815D01*
Y131185D01*
X28387Y133474D01*
X27202Y135526D01*
X25526Y137201D01*
X23474Y138386D01*
X21185Y139000D01*
D02*
G37*
G36*
X65495Y125000D02*
X63505D01*
X61668Y124239D01*
X60261Y122832D01*
X59500Y120995D01*
Y119005D01*
X60261Y117168D01*
X61668Y115761D01*
X63505Y115000D01*
X65495D01*
X67332Y115761D01*
X68739Y117168D01*
X69500Y119005D01*
Y120995D01*
X68739Y122832D01*
X67332Y124239D01*
X65495Y125000D01*
D02*
G37*
G36*
X93583Y122990D02*
X91594D01*
X89756Y122229D01*
X88350Y120822D01*
X87589Y118985D01*
Y116995D01*
X88350Y115158D01*
X89756Y113751D01*
X91594Y112990D01*
X93583D01*
X95421Y113751D01*
X96827Y115158D01*
X97589Y116995D01*
Y118985D01*
X96827Y120822D01*
X95421Y122229D01*
X93583Y122990D01*
D02*
G37*
G36*
X202075Y118050D02*
X200285D01*
X198631Y117365D01*
X197365Y116099D01*
X196680Y114445D01*
Y112655D01*
X197365Y111001D01*
X198631Y109735D01*
X200285Y109050D01*
X202075D01*
X203729Y109735D01*
X204995Y111001D01*
X205680Y112655D01*
Y114445D01*
X204995Y116099D01*
X203729Y117365D01*
X202075Y118050D01*
D02*
G37*
G36*
X248355Y113530D02*
X246565D01*
X244911Y112845D01*
X243645Y111579D01*
X242960Y109925D01*
Y108135D01*
X243645Y106481D01*
X244911Y105215D01*
X246565Y104530D01*
X248355D01*
X250009Y105215D01*
X251275Y106481D01*
X251960Y108135D01*
Y109925D01*
X251275Y111579D01*
X250009Y112845D01*
X248355Y113530D01*
D02*
G37*
G36*
X41185Y119000D02*
X38815D01*
X36526Y118386D01*
X34474Y117201D01*
X32798Y115526D01*
X31613Y113474D01*
X31000Y111185D01*
Y108815D01*
X31613Y106526D01*
X32798Y104474D01*
X34474Y102798D01*
X36526Y101613D01*
X38815Y101000D01*
X41185D01*
X43474Y101613D01*
X45526Y102798D01*
X47202Y104474D01*
X48387Y106526D01*
X49000Y108815D01*
Y111185D01*
X48387Y113474D01*
X47202Y115526D01*
X45526Y117201D01*
X43474Y118386D01*
X41185Y119000D01*
D02*
G37*
G36*
X21185D02*
X18815D01*
X16526Y118386D01*
X14474Y117201D01*
X12798Y115526D01*
X11613Y113474D01*
X11000Y111185D01*
Y108815D01*
X11613Y106526D01*
X12798Y104474D01*
X14474Y102798D01*
X16526Y101613D01*
X18815Y101000D01*
X21185D01*
X23474Y101613D01*
X25526Y102798D01*
X27202Y104474D01*
X28387Y106526D01*
X29000Y108815D01*
Y111185D01*
X28387Y113474D01*
X27202Y115526D01*
X25526Y117201D01*
X23474Y118386D01*
X21185Y119000D01*
D02*
G37*
G36*
X135770Y95098D02*
X124230D01*
X122970Y94848D01*
X121901Y94134D01*
X120939D01*
X119870Y94848D01*
X118610Y95098D01*
X107070D01*
X105810Y94848D01*
X104741Y94134D01*
X104027Y93065D01*
X103777Y91805D01*
Y84015D01*
X104027Y82755D01*
X104741Y81686D01*
X105810Y80972D01*
X107070Y80722D01*
X118610D01*
X119870Y80972D01*
X120939Y81686D01*
X121901D01*
X122970Y80972D01*
X124230Y80722D01*
X135770D01*
X137030Y80972D01*
X138099Y81686D01*
X139245Y81187D01*
X140382Y80050D01*
Y67000D01*
X140500Y66409D01*
Y65806D01*
X140731Y65250D01*
X140848Y64659D01*
X141183Y64158D01*
X141413Y63601D01*
X141840Y63175D01*
X142174Y62674D01*
X142675Y62340D01*
X143101Y61913D01*
X143658Y61683D01*
X144159Y61348D01*
X144750Y61231D01*
X145307Y61000D01*
X145909D01*
X146500Y60883D01*
X147091Y61000D01*
X147694D01*
X148250Y61231D01*
X148841Y61348D01*
X149342Y61683D01*
X149899Y61913D01*
X150325Y62340D01*
X150826Y62674D01*
X151160Y63175D01*
X151587Y63601D01*
X151817Y64158D01*
X152152Y64659D01*
X152269Y65250D01*
X152500Y65806D01*
Y66409D01*
X152618Y67000D01*
Y82584D01*
X152152Y84925D01*
X150826Y86910D01*
X145499Y92236D01*
X143515Y93562D01*
X141174Y94028D01*
X138170D01*
X138099Y94134D01*
X137030Y94848D01*
X135770Y95098D01*
D02*
G37*
G36*
X201740Y100729D02*
X200019Y100268D01*
X197501Y98814D01*
X195446Y96759D01*
X193992Y94241D01*
X193531Y92520D01*
X201740D01*
Y100729D01*
D02*
G37*
G36*
X184855Y95750D02*
X183065D01*
X181411Y95065D01*
X180145Y93799D01*
X179460Y92145D01*
Y90355D01*
X180145Y88701D01*
X181411Y87435D01*
X183065Y86750D01*
X184855D01*
X186509Y87435D01*
X187775Y88701D01*
X188460Y90355D01*
Y92145D01*
X187775Y93799D01*
X186509Y95065D01*
X184855Y95750D01*
D02*
G37*
G36*
X390895Y91940D02*
X389105D01*
X387451Y91255D01*
X386185Y89989D01*
X385500Y88335D01*
Y86545D01*
X386185Y84891D01*
X387451Y83625D01*
X389105Y82940D01*
X390895D01*
X392549Y83625D01*
X393815Y84891D01*
X394500Y86545D01*
Y88335D01*
X393815Y89989D01*
X392549Y91255D01*
X390895Y91940D01*
D02*
G37*
G36*
X481185Y99000D02*
X478815D01*
X476526Y98386D01*
X474474Y97202D01*
X472798Y95526D01*
X471613Y93474D01*
X471000Y91185D01*
Y88815D01*
X471613Y86526D01*
X472798Y84474D01*
X474474Y82798D01*
X476526Y81613D01*
X478815Y81000D01*
X481185D01*
X483474Y81613D01*
X485526Y82798D01*
X487202Y84474D01*
X488387Y86526D01*
X489000Y88815D01*
Y91185D01*
X488387Y93474D01*
X487202Y95526D01*
X485526Y97202D01*
X483474Y98386D01*
X481185Y99000D01*
D02*
G37*
G36*
X41185D02*
X38815D01*
X36526Y98386D01*
X34474Y97202D01*
X32798Y95526D01*
X31613Y93474D01*
X31000Y91185D01*
Y88815D01*
X31613Y86526D01*
X32798Y84474D01*
X34474Y82798D01*
X36526Y81613D01*
X38815Y81000D01*
X41185D01*
X43474Y81613D01*
X45526Y82798D01*
X47202Y84474D01*
X48387Y86526D01*
X49000Y88815D01*
Y91185D01*
X48387Y93474D01*
X47202Y95526D01*
X45526Y97202D01*
X43474Y98386D01*
X41185Y99000D01*
D02*
G37*
G36*
X21185D02*
X18815D01*
X16526Y98386D01*
X14474Y97202D01*
X12798Y95526D01*
X11613Y93474D01*
X11000Y91185D01*
Y88815D01*
X11613Y86526D01*
X12798Y84474D01*
X14474Y82798D01*
X16526Y81613D01*
X18815Y81000D01*
X21185D01*
X23474Y81613D01*
X25526Y82798D01*
X27202Y84474D01*
X28387Y86526D01*
X29000Y88815D01*
Y91185D01*
X28387Y93474D01*
X27202Y95526D01*
X25526Y97202D01*
X23474Y98386D01*
X21185Y99000D01*
D02*
G37*
G36*
X265580Y100480D02*
X244580D01*
Y79480D01*
X265580D01*
Y100480D01*
D02*
G37*
G36*
X201740Y87440D02*
X193531D01*
X193992Y85719D01*
X195446Y83201D01*
X197501Y81146D01*
X200019Y79692D01*
X201740Y79231D01*
Y87440D01*
D02*
G37*
G36*
X135770Y76848D02*
X124230D01*
X122970Y76598D01*
X122292Y76145D01*
X121420Y75977D01*
X120548Y76145D01*
X119870Y76598D01*
X118610Y76848D01*
X107070D01*
X105810Y76598D01*
X104741Y75884D01*
X104027Y74815D01*
X103777Y73555D01*
Y65765D01*
X104027Y64505D01*
X104741Y63436D01*
X105810Y62722D01*
X107070Y62472D01*
X109781D01*
Y58230D01*
X109781Y58230D01*
X110014Y57059D01*
X110677Y56067D01*
X116691Y50053D01*
Y47684D01*
X116165Y47466D01*
X115421Y47262D01*
X113474Y48387D01*
X111185Y49000D01*
X108815D01*
X106526Y48387D01*
X104474Y47202D01*
X102798Y45526D01*
X101613Y43474D01*
X101000Y41185D01*
Y38815D01*
X101613Y36526D01*
X102798Y34474D01*
X104474Y32798D01*
X106526Y31613D01*
X108815Y31000D01*
X111185D01*
X113474Y31613D01*
X115421Y32738D01*
X116165Y32534D01*
X116691Y32316D01*
Y30250D01*
X116691Y30250D01*
X116924Y29080D01*
X117587Y28087D01*
X121828Y23846D01*
X121613Y23474D01*
X121000Y21185D01*
Y18815D01*
X121613Y16526D01*
X122798Y14474D01*
X124474Y12798D01*
X126526Y11613D01*
X128815Y11000D01*
X131185D01*
X133474Y11613D01*
X135526Y12798D01*
X137202Y14474D01*
X138387Y16526D01*
X139000Y18815D01*
Y21185D01*
X138387Y23474D01*
X137202Y25526D01*
X135526Y27202D01*
X133474Y28387D01*
X131185Y29000D01*
X128815D01*
X126526Y28387D01*
X126154Y28172D01*
X122809Y31517D01*
Y32804D01*
X123982Y33290D01*
X124474Y32798D01*
X126526Y31613D01*
X128815Y31000D01*
X131185D01*
X133474Y31613D01*
X135526Y32798D01*
X137202Y34474D01*
X138387Y36526D01*
X139000Y38815D01*
Y41185D01*
X138387Y43474D01*
X137202Y45526D01*
X135526Y47202D01*
X133474Y48387D01*
X133059Y48498D01*
Y62472D01*
X135770D01*
X137030Y62722D01*
X138099Y63436D01*
X138813Y64505D01*
X139063Y65765D01*
Y73555D01*
X138813Y74815D01*
X138099Y75884D01*
X137030Y76598D01*
X135770Y76848D01*
D02*
G37*
G36*
X372815Y84320D02*
X371025D01*
X369371Y83635D01*
X368105Y82369D01*
X367420Y80715D01*
Y78925D01*
X368105Y77271D01*
X369371Y76005D01*
X371025Y75320D01*
X372815D01*
X374469Y76005D01*
X375735Y77271D01*
X376420Y78925D01*
Y80715D01*
X375735Y82369D01*
X374469Y83635D01*
X372815Y84320D01*
D02*
G37*
G36*
X401145Y75430D02*
X399355D01*
X397701Y74745D01*
X396435Y73479D01*
X395750Y71825D01*
Y70035D01*
X396435Y68381D01*
X397701Y67115D01*
X399355Y66430D01*
X401145D01*
X402799Y67115D01*
X404065Y68381D01*
X404750Y70035D01*
Y71825D01*
X404065Y73479D01*
X402799Y74745D01*
X401145Y75430D01*
D02*
G37*
G36*
X426155Y69080D02*
X424365D01*
X422711Y68395D01*
X421445Y67129D01*
X420760Y65475D01*
Y63685D01*
X421445Y62031D01*
X422711Y60765D01*
X424365Y60080D01*
X426155D01*
X427809Y60765D01*
X429075Y62031D01*
X429760Y63685D01*
Y65475D01*
X429075Y67129D01*
X427809Y68395D01*
X426155Y69080D01*
D02*
G37*
G36*
X307460Y49196D02*
X306318Y48890D01*
X304142Y47634D01*
X302366Y45858D01*
X301355Y44107D01*
X301440Y44113D01*
X302080Y44200D01*
X302659Y44313D01*
X303178Y44450D01*
X303636Y44612D01*
X304032Y44800D01*
X304369Y45012D01*
X304644Y45250D01*
Y34750D01*
X304369Y34987D01*
X304032Y35200D01*
X303636Y35387D01*
X303178Y35550D01*
X302659Y35687D01*
X302080Y35800D01*
X301440Y35887D01*
X300000Y35986D01*
X298560Y35887D01*
X297920Y35800D01*
X297341Y35687D01*
X296822Y35550D01*
X296365Y35387D01*
X295968Y35200D01*
X295632Y34987D01*
X295356Y34750D01*
Y45250D01*
X295632Y45012D01*
X295968Y44800D01*
X296365Y44612D01*
X296822Y44450D01*
X297341Y44313D01*
X297920Y44200D01*
X298560Y44113D01*
X298645Y44107D01*
X297634Y45858D01*
X295858Y47634D01*
X293682Y48890D01*
X292540Y49196D01*
Y40000D01*
X290000D01*
Y37460D01*
X280804D01*
X281110Y36318D01*
X282366Y34142D01*
X284142Y32366D01*
X285893Y31355D01*
X285888Y31440D01*
X285800Y32080D01*
X285688Y32659D01*
X285550Y33178D01*
X285388Y33635D01*
X285200Y34032D01*
X284988Y34369D01*
X284750Y34644D01*
X295250D01*
X295013Y34369D01*
X294800Y34032D01*
X294613Y33635D01*
X294450Y33178D01*
X294313Y32659D01*
X294200Y32080D01*
X294113Y31440D01*
X294014Y30000D01*
X294113Y28560D01*
X294200Y27920D01*
X294313Y27341D01*
X294450Y26822D01*
X294613Y26365D01*
X294800Y25968D01*
X295013Y25631D01*
X295250Y25356D01*
X284750D01*
X284988Y25631D01*
X285200Y25968D01*
X285388Y26365D01*
X285550Y26822D01*
X285688Y27341D01*
X285800Y27920D01*
X285888Y28560D01*
X285893Y28645D01*
X284142Y27634D01*
X282366Y25858D01*
X281110Y23682D01*
X280804Y22540D01*
X290000D01*
Y20000D01*
X292540D01*
Y10804D01*
X293682Y11110D01*
X295858Y12366D01*
X297634Y14142D01*
X298890Y16318D01*
X299343Y18007D01*
X300658D01*
X301110Y16318D01*
X302366Y14142D01*
X304142Y12366D01*
X306318Y11110D01*
X307460Y10804D01*
Y20000D01*
X310000D01*
Y22540D01*
X319196D01*
X318890Y23682D01*
X317634Y25858D01*
X315858Y27634D01*
X314107Y28645D01*
X314113Y28560D01*
X314200Y27920D01*
X314313Y27341D01*
X314450Y26822D01*
X314613Y26365D01*
X314800Y25968D01*
X315013Y25631D01*
X315250Y25356D01*
X304750D01*
X304988Y25631D01*
X305200Y25968D01*
X305388Y26365D01*
X305550Y26822D01*
X305688Y27341D01*
X305800Y27920D01*
X305888Y28560D01*
X305986Y30000D01*
X305888Y31440D01*
X305800Y32080D01*
X305688Y32659D01*
X305550Y33178D01*
X305388Y33635D01*
X305200Y34032D01*
X304988Y34369D01*
X304750Y34644D01*
X315250D01*
X315013Y34369D01*
X314800Y34032D01*
X314613Y33635D01*
X314450Y33178D01*
X314313Y32659D01*
X314200Y32080D01*
X314113Y31440D01*
X314107Y31355D01*
X315858Y32366D01*
X317634Y34142D01*
X318890Y36318D01*
X319196Y37460D01*
X310000D01*
Y40000D01*
X307460D01*
Y49196D01*
D02*
G37*
G36*
X312540D02*
Y42540D01*
X319196D01*
X318890Y43682D01*
X317634Y45858D01*
X315858Y47634D01*
X313682Y48890D01*
X312540Y49196D01*
D02*
G37*
G36*
X287460D02*
X286318Y48890D01*
X284142Y47634D01*
X282366Y45858D01*
X281110Y43682D01*
X280804Y42540D01*
X287460D01*
Y49196D01*
D02*
G37*
G36*
X351185Y49000D02*
X348815D01*
X346526Y48387D01*
X344474Y47202D01*
X342798Y45526D01*
X341613Y43474D01*
X341000Y41185D01*
Y38815D01*
X341613Y36526D01*
X342798Y34474D01*
X344474Y32798D01*
X346526Y31613D01*
X348815Y31000D01*
X351185D01*
X353474Y31613D01*
X355526Y32798D01*
X357202Y34474D01*
X358387Y36526D01*
X359000Y38815D01*
Y41185D01*
X358387Y43474D01*
X357202Y45526D01*
X355526Y47202D01*
X353474Y48387D01*
X351185Y49000D01*
D02*
G37*
G36*
X251185D02*
X248815D01*
X246526Y48387D01*
X244474Y47202D01*
X242798Y45526D01*
X241613Y43474D01*
X241000Y41185D01*
Y38815D01*
X241613Y36526D01*
X242798Y34474D01*
X244474Y32798D01*
X246526Y31613D01*
X248815Y31000D01*
X251185D01*
X253474Y31613D01*
X255526Y32798D01*
X257202Y34474D01*
X258387Y36526D01*
X259000Y38815D01*
Y41185D01*
X258387Y43474D01*
X257202Y45526D01*
X255526Y47202D01*
X253474Y48387D01*
X251185Y49000D01*
D02*
G37*
G36*
X231185D02*
X228815D01*
X226526Y48387D01*
X224474Y47202D01*
X222798Y45526D01*
X221613Y43474D01*
X221000Y41185D01*
Y38815D01*
X221613Y36526D01*
X222798Y34474D01*
X224474Y32798D01*
X226526Y31613D01*
X228815Y31000D01*
X231185D01*
X233474Y31613D01*
X235526Y32798D01*
X237202Y34474D01*
X238386Y36526D01*
X239000Y38815D01*
Y41185D01*
X238386Y43474D01*
X237202Y45526D01*
X235526Y47202D01*
X233474Y48387D01*
X231185Y49000D01*
D02*
G37*
G36*
X211185D02*
X208815D01*
X206526Y48387D01*
X204474Y47202D01*
X202798Y45526D01*
X201613Y43474D01*
X201000Y41185D01*
Y38815D01*
X201613Y36526D01*
X202798Y34474D01*
X204474Y32798D01*
X206526Y31613D01*
X208815Y31000D01*
X211185D01*
X213474Y31613D01*
X215526Y32798D01*
X217202Y34474D01*
X218386Y36526D01*
X219000Y38815D01*
Y41185D01*
X218386Y43474D01*
X217202Y45526D01*
X215526Y47202D01*
X213474Y48387D01*
X211185Y49000D01*
D02*
G37*
G36*
X191185D02*
X188815D01*
X186526Y48387D01*
X184474Y47202D01*
X182798Y45526D01*
X181613Y43474D01*
X181000Y41185D01*
Y38815D01*
X181613Y36526D01*
X182798Y34474D01*
X184474Y32798D01*
X186526Y31613D01*
X188815Y31000D01*
X191185D01*
X193474Y31613D01*
X195526Y32798D01*
X197202Y34474D01*
X198386Y36526D01*
X199000Y38815D01*
Y41185D01*
X198386Y43474D01*
X197202Y45526D01*
X195526Y47202D01*
X193474Y48387D01*
X191185Y49000D01*
D02*
G37*
G36*
X171185D02*
X168815D01*
X166526Y48387D01*
X164474Y47202D01*
X162798Y45526D01*
X161613Y43474D01*
X161000Y41185D01*
Y38815D01*
X161613Y36526D01*
X162798Y34474D01*
X164474Y32798D01*
X166526Y31613D01*
X168815Y31000D01*
X171185D01*
X173474Y31613D01*
X175526Y32798D01*
X177202Y34474D01*
X178387Y36526D01*
X179000Y38815D01*
Y41185D01*
X178387Y43474D01*
X177202Y45526D01*
X175526Y47202D01*
X173474Y48387D01*
X171185Y49000D01*
D02*
G37*
G36*
X151185D02*
X148815D01*
X146526Y48387D01*
X144474Y47202D01*
X142798Y45526D01*
X141613Y43474D01*
X141000Y41185D01*
Y38815D01*
X141613Y36526D01*
X142798Y34474D01*
X144474Y32798D01*
X146526Y31613D01*
X148815Y31000D01*
X151185D01*
X153474Y31613D01*
X155526Y32798D01*
X157202Y34474D01*
X158387Y36526D01*
X159000Y38815D01*
Y41185D01*
X158387Y43474D01*
X157202Y45526D01*
X155526Y47202D01*
X153474Y48387D01*
X151185Y49000D01*
D02*
G37*
G36*
X99000D02*
X81000D01*
Y31000D01*
X99000D01*
Y49000D01*
D02*
G37*
G36*
X470000Y40086D02*
X467389Y39743D01*
X464957Y38735D01*
X462868Y37132D01*
X461265Y35043D01*
X460257Y32611D01*
X459914Y30000D01*
X460257Y27390D01*
X461265Y24957D01*
X462868Y22868D01*
X464957Y21265D01*
X467389Y20257D01*
X470000Y19914D01*
X472611Y20257D01*
X475043Y21265D01*
X477132Y22868D01*
X478735Y24957D01*
X479743Y27390D01*
X480086Y30000D01*
X479743Y32611D01*
X478735Y35043D01*
X477132Y37132D01*
X475043Y38735D01*
X472611Y39743D01*
X470000Y40086D01*
D02*
G37*
G36*
X30000D02*
X27390Y39743D01*
X24957Y38735D01*
X22868Y37132D01*
X21265Y35043D01*
X20257Y32611D01*
X19914Y30000D01*
X20257Y27390D01*
X21265Y24957D01*
X22868Y22868D01*
X24957Y21265D01*
X27390Y20257D01*
X30000Y19914D01*
X32611Y20257D01*
X35043Y21265D01*
X37132Y22868D01*
X38735Y24957D01*
X39743Y27390D01*
X40086Y30000D01*
X39743Y32611D01*
X38735Y35043D01*
X37132Y37132D01*
X35043Y38735D01*
X32611Y39743D01*
X30000Y40086D01*
D02*
G37*
G36*
X411185Y29000D02*
X408815D01*
X406526Y28387D01*
X404474Y27202D01*
X402798Y25526D01*
X401614Y23474D01*
X401000Y21185D01*
Y18815D01*
X401614Y16526D01*
X402798Y14474D01*
X404474Y12798D01*
X406526Y11613D01*
X408815Y11000D01*
X411185D01*
X413474Y11613D01*
X415526Y12798D01*
X417202Y14474D01*
X418387Y16526D01*
X419000Y18815D01*
Y21185D01*
X418387Y23474D01*
X417202Y25526D01*
X415526Y27202D01*
X413474Y28387D01*
X411185Y29000D01*
D02*
G37*
G36*
X351185D02*
X348815D01*
X346526Y28387D01*
X344474Y27202D01*
X342798Y25526D01*
X341613Y23474D01*
X341000Y21185D01*
Y18815D01*
X341613Y16526D01*
X342798Y14474D01*
X344474Y12798D01*
X346526Y11613D01*
X348815Y11000D01*
X351185D01*
X353474Y11613D01*
X355526Y12798D01*
X357202Y14474D01*
X358387Y16526D01*
X359000Y18815D01*
Y21185D01*
X358387Y23474D01*
X357202Y25526D01*
X355526Y27202D01*
X353474Y28387D01*
X351185Y29000D01*
D02*
G37*
G36*
X331185D02*
X328815D01*
X326526Y28387D01*
X324474Y27202D01*
X322798Y25526D01*
X321614Y23474D01*
X321000Y21185D01*
Y18815D01*
X321614Y16526D01*
X322798Y14474D01*
X324474Y12798D01*
X326526Y11613D01*
X328815Y11000D01*
X331185D01*
X333474Y11613D01*
X335526Y12798D01*
X337202Y14474D01*
X338387Y16526D01*
X339000Y18815D01*
Y21185D01*
X338387Y23474D01*
X337202Y25526D01*
X335526Y27202D01*
X333474Y28387D01*
X331185Y29000D01*
D02*
G37*
G36*
X271185D02*
X268815D01*
X266526Y28387D01*
X264474Y27202D01*
X262798Y25526D01*
X261613Y23474D01*
X261000Y21185D01*
Y18815D01*
X261613Y16526D01*
X262798Y14474D01*
X264474Y12798D01*
X266526Y11613D01*
X268815Y11000D01*
X271185D01*
X273474Y11613D01*
X275526Y12798D01*
X277202Y14474D01*
X278387Y16526D01*
X279000Y18815D01*
Y21185D01*
X278387Y23474D01*
X277202Y25526D01*
X275526Y27202D01*
X273474Y28387D01*
X271185Y29000D01*
D02*
G37*
G36*
X251185D02*
X248815D01*
X246526Y28387D01*
X244474Y27202D01*
X242798Y25526D01*
X241613Y23474D01*
X241000Y21185D01*
Y18815D01*
X241613Y16526D01*
X242798Y14474D01*
X244474Y12798D01*
X246526Y11613D01*
X248815Y11000D01*
X251185D01*
X253474Y11613D01*
X255526Y12798D01*
X257202Y14474D01*
X258387Y16526D01*
X259000Y18815D01*
Y21185D01*
X258387Y23474D01*
X257202Y25526D01*
X255526Y27202D01*
X253474Y28387D01*
X251185Y29000D01*
D02*
G37*
G36*
X231185D02*
X228815D01*
X226526Y28387D01*
X224474Y27202D01*
X222798Y25526D01*
X221613Y23474D01*
X221000Y21185D01*
Y18815D01*
X221613Y16526D01*
X222798Y14474D01*
X224474Y12798D01*
X226526Y11613D01*
X228815Y11000D01*
X231185D01*
X233474Y11613D01*
X235526Y12798D01*
X237202Y14474D01*
X238386Y16526D01*
X239000Y18815D01*
Y21185D01*
X238386Y23474D01*
X237202Y25526D01*
X235526Y27202D01*
X233474Y28387D01*
X231185Y29000D01*
D02*
G37*
G36*
X211185D02*
X208815D01*
X206526Y28387D01*
X204474Y27202D01*
X202798Y25526D01*
X201613Y23474D01*
X201000Y21185D01*
Y18815D01*
X201613Y16526D01*
X202798Y14474D01*
X204474Y12798D01*
X206526Y11613D01*
X208815Y11000D01*
X211185D01*
X213474Y11613D01*
X215526Y12798D01*
X217202Y14474D01*
X218386Y16526D01*
X219000Y18815D01*
Y21185D01*
X218386Y23474D01*
X217202Y25526D01*
X215526Y27202D01*
X213474Y28387D01*
X211185Y29000D01*
D02*
G37*
G36*
X191185D02*
X188815D01*
X186526Y28387D01*
X184474Y27202D01*
X182798Y25526D01*
X181613Y23474D01*
X181000Y21185D01*
Y18815D01*
X181613Y16526D01*
X182798Y14474D01*
X184474Y12798D01*
X186526Y11613D01*
X188815Y11000D01*
X191185D01*
X193474Y11613D01*
X195526Y12798D01*
X197202Y14474D01*
X198386Y16526D01*
X199000Y18815D01*
Y21185D01*
X198386Y23474D01*
X197202Y25526D01*
X195526Y27202D01*
X193474Y28387D01*
X191185Y29000D01*
D02*
G37*
G36*
X171185D02*
X168815D01*
X166526Y28387D01*
X164474Y27202D01*
X162798Y25526D01*
X161613Y23474D01*
X161000Y21185D01*
Y18815D01*
X161613Y16526D01*
X162798Y14474D01*
X164474Y12798D01*
X166526Y11613D01*
X168815Y11000D01*
X171185D01*
X173474Y11613D01*
X175526Y12798D01*
X177202Y14474D01*
X178387Y16526D01*
X179000Y18815D01*
Y21185D01*
X178387Y23474D01*
X177202Y25526D01*
X175526Y27202D01*
X173474Y28387D01*
X171185Y29000D01*
D02*
G37*
G36*
X151185D02*
X148815D01*
X146526Y28387D01*
X144474Y27202D01*
X142798Y25526D01*
X141613Y23474D01*
X141000Y21185D01*
Y18815D01*
X141613Y16526D01*
X142798Y14474D01*
X144474Y12798D01*
X146526Y11613D01*
X148815Y11000D01*
X151185D01*
X153474Y11613D01*
X155526Y12798D01*
X157202Y14474D01*
X158387Y16526D01*
X159000Y18815D01*
Y21185D01*
X158387Y23474D01*
X157202Y25526D01*
X155526Y27202D01*
X153474Y28387D01*
X151185Y29000D01*
D02*
G37*
G36*
X111185D02*
X108815D01*
X106526Y28387D01*
X104474Y27202D01*
X102798Y25526D01*
X101613Y23474D01*
X101000Y21185D01*
Y18815D01*
X101613Y16526D01*
X102798Y14474D01*
X104474Y12798D01*
X106526Y11613D01*
X108815Y11000D01*
X111185D01*
X113474Y11613D01*
X115526Y12798D01*
X117201Y14474D01*
X118386Y16526D01*
X119000Y18815D01*
Y21185D01*
X118386Y23474D01*
X117201Y25526D01*
X115526Y27202D01*
X113474Y28387D01*
X111185Y29000D01*
D02*
G37*
G36*
X91185D02*
X88815D01*
X86526Y28387D01*
X84474Y27202D01*
X82798Y25526D01*
X81613Y23474D01*
X81000Y21185D01*
Y18815D01*
X81613Y16526D01*
X82798Y14474D01*
X84474Y12798D01*
X86526Y11613D01*
X88815Y11000D01*
X91185D01*
X93474Y11613D01*
X95526Y12798D01*
X97202Y14474D01*
X98386Y16526D01*
X99000Y18815D01*
Y21185D01*
X98386Y23474D01*
X97202Y25526D01*
X95526Y27202D01*
X93474Y28387D01*
X91185Y29000D01*
D02*
G37*
G36*
X319196Y17460D02*
X312540D01*
Y10804D01*
X313682Y11110D01*
X315858Y12366D01*
X317634Y14142D01*
X318890Y16318D01*
X319196Y17460D01*
D02*
G37*
G36*
X287460D02*
X280804D01*
X281110Y16318D01*
X282366Y14142D01*
X284142Y12366D01*
X286318Y11110D01*
X287460Y10804D01*
Y17460D01*
D02*
G37*
%LPD*%
G36*
X249925Y472500D02*
X248777Y472495D01*
X246737Y472377D01*
X245844Y472266D01*
X245036Y472119D01*
X244312Y471937D01*
X243674Y471719D01*
X243121Y471466D01*
X242653Y471178D01*
X242269Y470855D01*
X240855Y472269D01*
X241178Y472653D01*
X241466Y473121D01*
X241719Y473674D01*
X241937Y474313D01*
X242119Y475036D01*
X242266Y475844D01*
X242377Y476737D01*
X242495Y478777D01*
X242500Y479925D01*
X249925Y472500D01*
D02*
G37*
G36*
X229925D02*
X228777Y472495D01*
X226737Y472377D01*
X225844Y472266D01*
X225035Y472119D01*
X224312Y471936D01*
X223674Y471719D01*
X223121Y471466D01*
X222652Y471178D01*
X222269Y470855D01*
X220855Y472269D01*
X221178Y472653D01*
X221466Y473121D01*
X221719Y473674D01*
X221936Y474312D01*
X222119Y475036D01*
X222265Y475844D01*
X222377Y476736D01*
X222495Y478777D01*
X222500Y479925D01*
X229925Y472500D01*
D02*
G37*
G36*
X234443Y453829D02*
X233083Y452303D01*
X232530Y451592D01*
X232062Y450917D01*
X231680Y450277D01*
X231383Y449672D01*
X231170Y449102D01*
X231042Y448567D01*
X231000Y448067D01*
X229000Y448067D01*
X228958Y448567D01*
X228830Y449102D01*
X228618Y449672D01*
X228320Y450277D01*
X227938Y450917D01*
X227470Y451592D01*
X226917Y452302D01*
X225557Y453828D01*
X224750Y454644D01*
X235250Y454644D01*
X234443Y453829D01*
D02*
G37*
G36*
X214443D02*
X213083Y452303D01*
X212530Y451592D01*
X212063Y450917D01*
X211680Y450277D01*
X211383Y449672D01*
X211170Y449102D01*
X211043Y448567D01*
X211000Y448067D01*
X209000Y448067D01*
X208958Y448567D01*
X208830Y449102D01*
X208618Y449672D01*
X208320Y450277D01*
X207938Y450917D01*
X207470Y451592D01*
X206918Y452302D01*
X205557Y453828D01*
X204750Y454644D01*
X215250Y454644D01*
X214443Y453829D01*
D02*
G37*
G36*
X475359Y402531D02*
X475203Y402644D01*
X475019Y402700D01*
X474807D01*
X474567Y402644D01*
X474298Y402531D01*
X474001Y402361D01*
X473676Y402135D01*
X473322Y401852D01*
X472531Y401116D01*
X471116Y402531D01*
X471512Y402941D01*
X472135Y403676D01*
X472361Y404002D01*
X472531Y404299D01*
X472644Y404567D01*
X472700Y404808D01*
Y405020D01*
X472644Y405204D01*
X472531Y405359D01*
X475359Y402531D01*
D02*
G37*
G36*
X452900Y395628D02*
X452798Y395526D01*
X451613Y393474D01*
X451000Y391185D01*
Y388815D01*
X451613Y386526D01*
X452798Y384474D01*
X453290Y383982D01*
X452804Y382809D01*
X347500D01*
X347500Y382809D01*
X346330Y382576D01*
X345337Y381913D01*
X278232Y314808D01*
X277059Y315294D01*
Y332682D01*
X278329Y333530D01*
X279005Y333250D01*
X280995D01*
X282832Y334011D01*
X284239Y335418D01*
X285000Y337255D01*
Y339245D01*
X284239Y341082D01*
X282832Y342489D01*
X280995Y343250D01*
X279005D01*
X278329Y342970D01*
X277059Y343818D01*
Y385893D01*
X287967Y396801D01*
X452414D01*
X452900Y395628D01*
D02*
G37*
G36*
X479925Y382501D02*
X478777Y382495D01*
X476737Y382378D01*
X475844Y382266D01*
X475036Y382119D01*
X474313Y381937D01*
X473674Y381719D01*
X473121Y381467D01*
X472653Y381179D01*
X472269Y380855D01*
X470855Y382269D01*
X471178Y382653D01*
X471466Y383121D01*
X471719Y383675D01*
X471937Y384313D01*
X472119Y385036D01*
X472266Y385844D01*
X472377Y386737D01*
X472495Y388778D01*
X472500Y389925D01*
X479925Y382501D01*
D02*
G37*
G36*
X192960Y348177D02*
X192790Y348116D01*
X192640Y348014D01*
X192510Y347872D01*
X192400Y347689D01*
X192310Y347466D01*
X192240Y347202D01*
X192190Y346898D01*
X192160Y346552D01*
X192150Y346167D01*
X190150D01*
X190140Y346552D01*
X190110Y346897D01*
X190061Y347202D01*
X189991Y347466D01*
X189902Y347689D01*
X189792Y347872D01*
X189663Y348014D01*
X189514Y348115D01*
X189345Y348176D01*
X189156Y348196D01*
X193150Y348197D01*
X192960Y348177D01*
D02*
G37*
G36*
X192160Y345094D02*
X192190Y344749D01*
X192240Y344444D01*
X192310Y344180D01*
X192400Y343957D01*
X192510Y343774D01*
X192640Y343632D01*
X192790Y343531D01*
X192960Y343470D01*
X193150Y343449D01*
X189150D01*
X189340Y343470D01*
X189510Y343531D01*
X189660Y343632D01*
X189790Y343774D01*
X189900Y343957D01*
X189990Y344180D01*
X190060Y344444D01*
X190110Y344749D01*
X190140Y345094D01*
X190150Y345480D01*
X192150D01*
X192160Y345094D01*
D02*
G37*
G36*
X197110Y340320D02*
X197171Y340150D01*
X197272Y340000D01*
X197414Y339870D01*
X197597Y339760D01*
X197820Y339670D01*
X198084Y339600D01*
X198389Y339550D01*
X198734Y339520D01*
X199120Y339510D01*
Y337510D01*
X198734Y337500D01*
X198389Y337470D01*
X198084Y337420D01*
X197820Y337350D01*
X197597Y337260D01*
X197414Y337150D01*
X197272Y337020D01*
X197171Y336870D01*
X197110Y336700D01*
X197089Y336510D01*
Y340510D01*
X197110Y340320D01*
D02*
G37*
G36*
X170153Y316521D02*
X169983Y316461D01*
X169833Y316361D01*
X169703Y316221D01*
X169593Y316041D01*
X169503Y315821D01*
X169443Y315596D01*
X169463Y315512D01*
X169531Y315306D01*
X169613Y315111D01*
X169711Y314926D01*
X169823Y314752D01*
X169951Y314589D01*
X170093Y314437D01*
X168343Y312651D01*
X166593Y314437D01*
X166736Y314589D01*
X166863Y314752D01*
X166976Y314926D01*
X167073Y315111D01*
X167156Y315306D01*
X167223Y315512D01*
X167244Y315596D01*
X167183Y315821D01*
X167093Y316041D01*
X166983Y316221D01*
X166853Y316361D01*
X166703Y316461D01*
X166533Y316521D01*
X166343Y316541D01*
X170343D01*
X170153Y316521D01*
D02*
G37*
G36*
X472653Y318822D02*
X473121Y318534D01*
X473674Y318281D01*
X474313Y318064D01*
X475036Y317882D01*
X475844Y317735D01*
X476737Y317623D01*
X478778Y317505D01*
X479925Y317500D01*
X472500Y310075D01*
X472495Y311223D01*
X472377Y313264D01*
X472266Y314157D01*
X472119Y314965D01*
X471937Y315688D01*
X471719Y316326D01*
X471466Y316879D01*
X471179Y317348D01*
X470855Y317731D01*
X472269Y319145D01*
X472653Y318822D01*
D02*
G37*
G36*
X168410Y312583D02*
X169343D01*
X169353Y312198D01*
X169383Y311852D01*
X169433Y311548D01*
X169436Y311536D01*
X170093Y310866D01*
X169951Y310714D01*
X169921Y310676D01*
X169983Y310634D01*
X170153Y310573D01*
X170343Y310553D01*
X169825D01*
X169823Y310551D01*
X169711Y310377D01*
X169613Y310192D01*
X169531Y309997D01*
X169463Y309791D01*
X169411Y309574D01*
X169373Y309347D01*
X169351Y309109D01*
X169343Y308860D01*
X167343D01*
X167336Y309109D01*
X167313Y309347D01*
X167276Y309574D01*
X167223Y309791D01*
X167156Y309997D01*
X167073Y310192D01*
X166976Y310377D01*
X166863Y310551D01*
X166861Y310553D01*
X166343D01*
X166533Y310573D01*
X166703Y310634D01*
X166765Y310676D01*
X166736Y310714D01*
X166593Y310866D01*
X167250Y311536D01*
X167253Y311548D01*
X167303Y311852D01*
X167333Y312198D01*
X167343Y312583D01*
X168277D01*
X168343Y312651D01*
X168410Y312583D01*
D02*
G37*
G36*
X221448Y301905D02*
X221432Y302048D01*
X221386Y302175D01*
X221310Y302288D01*
X221203Y302385D01*
X221065Y302467D01*
X220896Y302535D01*
X220698Y302588D01*
X220468Y302625D01*
X220280Y302641D01*
X220092Y302625D01*
X219863Y302588D01*
X219664Y302535D01*
X219496Y302467D01*
X219358Y302385D01*
X219251Y302288D01*
X219174Y302175D01*
X219128Y302048D01*
X219113Y301905D01*
Y304905D01*
X219128Y304762D01*
X219174Y304635D01*
X219251Y304522D01*
X219358Y304425D01*
X219496Y304342D01*
X219664Y304275D01*
X219863Y304223D01*
X220092Y304185D01*
X220280Y304169D01*
X220468Y304185D01*
X220698Y304223D01*
X220896Y304275D01*
X221065Y304342D01*
X221203Y304425D01*
X221310Y304522D01*
X221386Y304635D01*
X221432Y304762D01*
X221448Y304905D01*
Y301905D01*
D02*
G37*
G36*
X231038Y298302D02*
X230910Y298256D01*
X230798Y298180D01*
X230700Y298073D01*
X230618Y297935D01*
X230550Y297766D01*
X230497Y297568D01*
X230460Y297338D01*
X230438Y297078D01*
X230430Y296787D01*
X228930D01*
X228923Y297078D01*
X228900Y297338D01*
X228862Y297568D01*
X228810Y297766D01*
X228743Y297935D01*
X228660Y298073D01*
X228563Y298180D01*
X228450Y298256D01*
X228323Y298302D01*
X228180Y298318D01*
X231180D01*
X231038Y298302D01*
D02*
G37*
G36*
X193006Y283332D02*
X193500Y282395D01*
Y281943D01*
X193412Y281500D01*
Y280250D01*
X193761Y278494D01*
X194756Y277006D01*
X205529Y266232D01*
X205043Y265059D01*
X180075D01*
X170484Y274650D01*
X171203Y275727D01*
X172105Y275353D01*
X173895D01*
X175549Y276038D01*
X176815Y277304D01*
X177500Y278958D01*
Y280748D01*
X176815Y282402D01*
X176749Y282468D01*
X177235Y283641D01*
X192607D01*
X193006Y283332D01*
D02*
G37*
G36*
X234751Y276084D02*
X234817Y274942D01*
X234838Y274843D01*
X234861Y274771D01*
X234887Y274724D01*
X233113D01*
X233139Y274771D01*
X233162Y274843D01*
X233183Y274942D01*
X233201Y275067D01*
X233228Y275395D01*
X233249Y276084D01*
X233250Y276365D01*
X234750D01*
X234751Y276084D01*
D02*
G37*
G36*
X243041Y268911D02*
X243032Y268875D01*
X243025Y268823D01*
X243013Y268668D01*
X243001Y268153D01*
X243000Y267982D01*
X241000D01*
X240950Y268929D01*
X243050D01*
X243041Y268911D01*
D02*
G37*
G36*
X418017Y277588D02*
X419010Y276924D01*
X420180Y276692D01*
X448983D01*
X451828Y273846D01*
X451613Y273474D01*
X451000Y271185D01*
Y268815D01*
X451613Y266526D01*
X452738Y264579D01*
X452533Y263833D01*
X452316Y263309D01*
X449296D01*
X441063Y271543D01*
X440070Y272206D01*
X438900Y272439D01*
X438900Y272439D01*
X413830D01*
X412659Y272206D01*
X411667Y271543D01*
X411004Y270550D01*
X411004Y270550D01*
X402403Y261949D01*
X398738D01*
X398212Y263219D01*
X399804Y264811D01*
X401258Y267329D01*
X401719Y269050D01*
X390970D01*
X380221D01*
X380682Y267329D01*
X382136Y264811D01*
X383728Y263219D01*
X383202Y261949D01*
X361140D01*
X361140Y261949D01*
X359969Y261716D01*
X358977Y261053D01*
X358977Y261053D01*
X351602Y253678D01*
X351300Y253738D01*
X350882Y255116D01*
X380807Y285041D01*
X410564D01*
X418017Y277588D01*
D02*
G37*
G36*
X260955Y260961D02*
X260938Y260968D01*
X260904Y260975D01*
X260853Y260981D01*
X260700Y260990D01*
X260018Y261000D01*
X259071Y260950D01*
Y263050D01*
X259090Y263041D01*
X259125Y263032D01*
X259177Y263025D01*
X259332Y263013D01*
X259847Y263001D01*
X259981Y263000D01*
X260121Y263001D01*
X260884Y263049D01*
X260903Y263060D01*
X260955Y260961D01*
D02*
G37*
G36*
X479925Y262501D02*
X478777Y262495D01*
X476736Y262378D01*
X475844Y262266D01*
X475036Y262119D01*
X474312Y261937D01*
X473674Y261719D01*
X473121Y261467D01*
X472653Y261179D01*
X472269Y260855D01*
X470855Y262269D01*
X471178Y262653D01*
X471466Y263121D01*
X471719Y263675D01*
X471936Y264313D01*
X472119Y265036D01*
X472266Y265844D01*
X472377Y266737D01*
X472495Y268778D01*
X472500Y269925D01*
X479925Y262501D01*
D02*
G37*
G36*
X235040Y260910D02*
X235032Y260875D01*
X235025Y260823D01*
X235012Y260668D01*
X235000Y260153D01*
X235000Y259982D01*
X233000D01*
X232950Y260929D01*
X235050D01*
X235040Y260910D01*
D02*
G37*
G36*
X252017Y259033D02*
X253304Y258500D01*
X254696D01*
X255822Y258966D01*
X255913Y258876D01*
X257267Y258315D01*
X258500D01*
Y257341D01*
X259033Y256054D01*
X259050Y256037D01*
X259032Y256019D01*
X258499Y254733D01*
Y253340D01*
X259032Y252054D01*
X259068Y252018D01*
X259033Y251983D01*
X258500Y250696D01*
Y249304D01*
X258966Y248178D01*
X258966Y248177D01*
X259032Y248017D01*
X260017Y247032D01*
X260033Y247026D01*
X260034Y247055D01*
X260968Y247089D01*
X260952Y246645D01*
X261304Y246500D01*
X262000D01*
Y245501D01*
X261304D01*
X260903Y245335D01*
X260891Y244990D01*
X260870Y245003D01*
X260833Y245014D01*
X260780Y245024D01*
X260709Y245032D01*
X260397Y245050D01*
X260221Y245052D01*
X260017Y244968D01*
X259032Y243983D01*
X258966Y243823D01*
X258966Y243822D01*
X258500Y242696D01*
Y241500D01*
X257304D01*
X256178Y241034D01*
X256177Y241034D01*
X256017Y240968D01*
X255032Y239983D01*
X254499Y238696D01*
Y238000D01*
X253500D01*
Y238696D01*
X252968Y239983D01*
X251983Y240968D01*
X251823Y241034D01*
X251822Y241034D01*
X250696Y241500D01*
X249304D01*
X248017Y240967D01*
X248000Y240950D01*
X247983Y240967D01*
X246696Y241500D01*
X245304D01*
X244017Y240967D01*
X244000Y240950D01*
X243983Y240967D01*
X242696Y241500D01*
X241500D01*
Y242696D01*
X240967Y243983D01*
X240950Y244000D01*
X240967Y244017D01*
X241500Y245304D01*
Y246696D01*
X240967Y247983D01*
X240950Y248000D01*
X240967Y248017D01*
X241500Y249304D01*
Y250696D01*
X240967Y251983D01*
X240950Y252000D01*
X240967Y252017D01*
X241500Y253304D01*
Y254696D01*
X240967Y255983D01*
X240950Y256000D01*
X240967Y256017D01*
X241500Y257304D01*
Y258500D01*
X242696D01*
X243983Y259033D01*
X244000Y259050D01*
X244017Y259033D01*
X245304Y258500D01*
X246696D01*
X247983Y259033D01*
X248000Y259050D01*
X248017Y259033D01*
X249304Y258500D01*
X250696D01*
X251983Y259033D01*
X252000Y259050D01*
X252017Y259033D01*
D02*
G37*
G36*
X415445Y264983D02*
X415680Y264778D01*
Y263075D01*
X416365Y261421D01*
X417631Y260155D01*
X419285Y259470D01*
X421075D01*
X421662Y259713D01*
X422933Y258865D01*
Y258362D01*
X423618Y256709D01*
X424883Y255443D01*
X426537Y254757D01*
X428328D01*
X429824Y255377D01*
X430453Y255012D01*
X430920Y254585D01*
Y252915D01*
X430258Y251924D01*
X428845D01*
X427366Y251630D01*
X426113Y250792D01*
X425275Y249539D01*
X424981Y248060D01*
Y244600D01*
X432595D01*
Y239520D01*
X424981D01*
Y236060D01*
X425275Y234581D01*
X425665Y233998D01*
X425621Y233969D01*
X424907Y232900D01*
X424657Y231640D01*
Y220100D01*
X424907Y218840D01*
X425621Y217771D01*
X425621Y217459D01*
X424908Y216390D01*
X424657Y215130D01*
Y203590D01*
X424908Y202330D01*
X425619Y201265D01*
X424908Y200200D01*
X424657Y198940D01*
Y187400D01*
X424908Y186140D01*
X425621Y185071D01*
X425728Y185000D01*
Y177210D01*
X424625Y176108D01*
X401470D01*
Y180490D01*
X380470D01*
Y165015D01*
X379297Y164529D01*
X303663Y240163D01*
X302670Y240826D01*
X301500Y241059D01*
X301500Y241059D01*
X277356D01*
X277145Y241374D01*
Y242626D01*
X277356Y242941D01*
X321313D01*
X345627Y218627D01*
X345627Y218627D01*
X346619Y217964D01*
X347790Y217731D01*
X380919D01*
X381186Y216737D01*
X382568Y214343D01*
X384523Y212388D01*
X386917Y211006D01*
X389588Y210290D01*
X392352D01*
X395023Y211006D01*
X395914Y211520D01*
X400237Y207197D01*
X401230Y206534D01*
X402400Y206301D01*
X406407D01*
Y203590D01*
X406658Y202330D01*
X407369Y201265D01*
X406658Y200200D01*
X406407Y198940D01*
Y196229D01*
X401470D01*
Y196772D01*
X400754Y199443D01*
X399372Y201837D01*
X397417Y203792D01*
X395023Y205174D01*
X392352Y205890D01*
X389588D01*
X386917Y205174D01*
X384523Y203792D01*
X382568Y201837D01*
X381186Y199443D01*
X380470Y196772D01*
Y194008D01*
X381186Y191337D01*
X382568Y188943D01*
X384523Y186988D01*
X386917Y185606D01*
X389588Y184890D01*
X392352D01*
X395023Y185606D01*
X397417Y186988D01*
X399372Y188943D01*
X400022Y190069D01*
X400424Y190111D01*
X406407D01*
Y187400D01*
X406658Y186140D01*
X407371Y185071D01*
X408440Y184357D01*
X409700Y184107D01*
X417490D01*
X418750Y184357D01*
X419819Y185071D01*
X420533Y186140D01*
X420783Y187400D01*
Y198940D01*
X420533Y200200D01*
X419821Y201265D01*
X420533Y202330D01*
X420783Y203590D01*
Y215130D01*
X420533Y216390D01*
X419819Y217459D01*
X420340Y218551D01*
X420533Y218840D01*
X420783Y220100D01*
Y231640D01*
X420533Y232900D01*
X419837Y233941D01*
X420406Y234792D01*
X420659Y236060D01*
Y248060D01*
X420406Y249328D01*
X419688Y250403D01*
X418613Y251121D01*
X417345Y251374D01*
X409845D01*
X408577Y251121D01*
X407502Y250403D01*
X406784Y249328D01*
X406768Y249249D01*
X401021D01*
X400754Y250243D01*
X399372Y252637D01*
X397448Y254561D01*
X397457Y254835D01*
X397724Y255831D01*
X403670D01*
X403670Y255831D01*
X404841Y256064D01*
X405833Y256727D01*
X414542Y265436D01*
X415445Y264983D01*
D02*
G37*
G36*
X399207Y247993D02*
X399273Y247824D01*
X399383Y247676D01*
X399536Y247547D01*
X399734Y247438D01*
X399976Y247349D01*
X400261Y247279D01*
X400591Y247230D01*
X400965Y247200D01*
X401382Y247190D01*
Y245190D01*
X400965Y245180D01*
X400591Y245150D01*
X400261Y245101D01*
X399976Y245031D01*
X399734Y244942D01*
X399536Y244833D01*
X399383Y244704D01*
X399273Y244556D01*
X399207Y244387D01*
X399185Y244199D01*
Y248181D01*
X399207Y247993D01*
D02*
G37*
G36*
X382755Y244199D02*
X382733Y244387D01*
X382667Y244556D01*
X382557Y244704D01*
X382404Y244833D01*
X382206Y244942D01*
X381964Y245031D01*
X381679Y245101D01*
X381349Y245150D01*
X380975Y245180D01*
X380558Y245190D01*
Y247190D01*
X380975Y247200D01*
X381349Y247230D01*
X381679Y247279D01*
X381964Y247349D01*
X382206Y247438D01*
X382404Y247547D01*
X382557Y247676D01*
X382667Y247824D01*
X382733Y247993D01*
X382755Y248181D01*
Y244199D01*
D02*
G37*
G36*
X408632Y244190D02*
X408613Y244380D01*
X408553Y244550D01*
X408452Y244700D01*
X408310Y244830D01*
X408128Y244940D01*
X407904Y245030D01*
X407640Y245100D01*
X407335Y245150D01*
X406988Y245180D01*
X406602Y245190D01*
Y247190D01*
X406991Y247200D01*
X407340Y247230D01*
X407647Y247279D01*
X407914Y247349D01*
X408140Y247439D01*
X408325Y247548D01*
X408470Y247677D01*
X408573Y247826D01*
X408636Y247995D01*
X408657Y248184D01*
X408632Y244190D01*
D02*
G37*
G36*
X351178Y235464D02*
X351007Y235282D01*
X350855Y235098D01*
X350721Y234911D01*
X350605Y234721D01*
X350507Y234527D01*
X350427Y234331D01*
X350365Y234132D01*
X350322Y233929D01*
X350297Y233724D01*
X350290Y233515D01*
X347815Y235990D01*
X348023Y235997D01*
X348229Y236022D01*
X348432Y236065D01*
X348631Y236127D01*
X348827Y236207D01*
X349021Y236304D01*
X349211Y236421D01*
X349398Y236555D01*
X349582Y236707D01*
X349764Y236878D01*
X351178Y235464D01*
D02*
G37*
G36*
X414595Y234847D02*
X415595D01*
X415405Y234827D01*
X415235Y234766D01*
X415085Y234664D01*
X414955Y234522D01*
X414845Y234339D01*
X414755Y234116D01*
X414685Y233852D01*
X414683Y233840D01*
X414685Y233827D01*
X414755Y233563D01*
X414845Y233340D01*
X414955Y233157D01*
X415085Y233015D01*
X415235Y232914D01*
X415405Y232853D01*
X415595Y232833D01*
X414595D01*
X414595Y232817D01*
X412595D01*
X412595Y232833D01*
X411595D01*
X411785Y232853D01*
X411955Y232914D01*
X412105Y233015D01*
X412235Y233157D01*
X412345Y233340D01*
X412435Y233563D01*
X412505Y233827D01*
X412507Y233840D01*
X412505Y233852D01*
X412435Y234116D01*
X412345Y234339D01*
X412235Y234522D01*
X412105Y234664D01*
X411955Y234766D01*
X411785Y234827D01*
X411595Y234847D01*
X412595D01*
X412595Y234863D01*
X414595D01*
X414595Y234847D01*
D02*
G37*
G36*
X382755Y218799D02*
X382733Y218987D01*
X382667Y219156D01*
X382557Y219304D01*
X382404Y219433D01*
X382206Y219542D01*
X381964Y219631D01*
X381679Y219701D01*
X381349Y219750D01*
X380975Y219780D01*
X380558Y219790D01*
Y221790D01*
X380975Y221800D01*
X381349Y221830D01*
X381679Y221879D01*
X381964Y221949D01*
X382206Y222038D01*
X382404Y222147D01*
X382557Y222276D01*
X382667Y222424D01*
X382733Y222593D01*
X382755Y222781D01*
Y218799D01*
D02*
G37*
G36*
X191483Y218790D02*
X191544Y218620D01*
X191646Y218470D01*
X191788Y218340D01*
X191971Y218230D01*
X192194Y218140D01*
X192458Y218070D01*
X192763Y218020D01*
X193108Y217990D01*
X193493Y217980D01*
Y215980D01*
X193108Y215970D01*
X192763Y215940D01*
X192458Y215890D01*
X192194Y215820D01*
X191971Y215730D01*
X191788Y215620D01*
X191646Y215490D01*
X191544Y215340D01*
X191483Y215170D01*
X191463Y214980D01*
Y218980D01*
X191483Y218790D01*
D02*
G37*
G36*
X398069Y216241D02*
X397996Y216075D01*
X397969Y215892D01*
X397987Y215692D01*
X398049Y215475D01*
X398157Y215241D01*
X398310Y214990D01*
X398508Y214722D01*
X398751Y214437D01*
X399039Y214135D01*
X397625Y212721D01*
X397323Y213009D01*
X397038Y213252D01*
X396770Y213450D01*
X396519Y213603D01*
X396285Y213711D01*
X396068Y213773D01*
X395868Y213791D01*
X395685Y213764D01*
X395519Y213691D01*
X395371Y213573D01*
X398187Y216389D01*
X398069Y216241D01*
D02*
G37*
G36*
X188310Y209747D02*
X188140Y209686D01*
X187990Y209584D01*
X187860Y209442D01*
X187750Y209259D01*
X187660Y209036D01*
X187590Y208772D01*
X187540Y208468D01*
X187510Y208122D01*
X187500Y207737D01*
X185500D01*
X185490Y208122D01*
X185460Y208468D01*
X185410Y208772D01*
X185340Y209036D01*
X185250Y209259D01*
X185140Y209442D01*
X185010Y209584D01*
X184860Y209686D01*
X184690Y209747D01*
X184500Y209767D01*
X188500D01*
X188310Y209747D01*
D02*
G37*
G36*
X408508Y207360D02*
X408487Y207550D01*
X408426Y207720D01*
X408325Y207870D01*
X408183Y208000D01*
X408000Y208110D01*
X407777Y208200D01*
X407513Y208270D01*
X407208Y208320D01*
X406863Y208350D01*
X406477Y208360D01*
Y210360D01*
X406863Y210370D01*
X407208Y210400D01*
X407513Y210450D01*
X407777Y210520D01*
X408000Y210610D01*
X408183Y210720D01*
X408325Y210850D01*
X408426Y211000D01*
X408487Y211170D01*
X408508Y211360D01*
Y207360D01*
D02*
G37*
G36*
X187510Y205784D02*
X187540Y205439D01*
X187590Y205134D01*
X187660Y204870D01*
X187750Y204647D01*
X187860Y204464D01*
X187990Y204322D01*
X188140Y204220D01*
X188310Y204159D01*
X188500Y204139D01*
X184500D01*
X184690Y204159D01*
X184860Y204220D01*
X185010Y204322D01*
X185140Y204464D01*
X185250Y204647D01*
X185340Y204870D01*
X185410Y205134D01*
X185460Y205439D01*
X185490Y205784D01*
X185500Y206169D01*
X187500D01*
X187510Y205784D01*
D02*
G37*
G36*
X399396Y194982D02*
X399414Y194812D01*
X399482Y194662D01*
X399600Y194531D01*
X399768Y194421D01*
X399987Y194331D01*
X400255Y194260D01*
X400573Y194210D01*
X400942Y194180D01*
X401360Y194170D01*
X400844Y192170D01*
X400409Y192160D01*
X399660Y192081D01*
X399345Y192012D01*
X399070Y191924D01*
X398834Y191815D01*
X398639Y191687D01*
X398483Y191539D01*
X398367Y191372D01*
X398291Y191184D01*
X399428Y195173D01*
X399396Y194982D01*
D02*
G37*
G36*
X408508Y191170D02*
X408487Y191360D01*
X408426Y191530D01*
X408325Y191680D01*
X408183Y191810D01*
X408000Y191920D01*
X407777Y192010D01*
X407513Y192080D01*
X407208Y192130D01*
X406863Y192160D01*
X406477Y192170D01*
Y194170D01*
X406863Y194180D01*
X407208Y194210D01*
X407513Y194260D01*
X407777Y194330D01*
X408000Y194420D01*
X408183Y194530D01*
X408325Y194660D01*
X408426Y194810D01*
X408487Y194980D01*
X408508Y195170D01*
Y191170D01*
D02*
G37*
G36*
X198959Y175610D02*
X199020Y175440D01*
X199122Y175290D01*
X199264Y175160D01*
X199447Y175050D01*
X199670Y174960D01*
X199934Y174890D01*
X200239Y174840D01*
X200584Y174810D01*
X200970Y174800D01*
Y172800D01*
X200584Y172790D01*
X200239Y172760D01*
X199934Y172710D01*
X199670Y172640D01*
X199447Y172550D01*
X199264Y172440D01*
X199122Y172310D01*
X199020Y172160D01*
X198959Y171990D01*
X198939Y171800D01*
Y175800D01*
X198959Y175610D01*
D02*
G37*
G36*
X188310Y168841D02*
X188140Y168780D01*
X187990Y168678D01*
X187860Y168536D01*
X187750Y168353D01*
X187660Y168130D01*
X187590Y167866D01*
X187540Y167561D01*
X187510Y167216D01*
X187500Y166831D01*
X185500D01*
X185490Y167216D01*
X185460Y167561D01*
X185410Y167866D01*
X185340Y168130D01*
X185250Y168353D01*
X185140Y168536D01*
X185010Y168678D01*
X184860Y168780D01*
X184690Y168841D01*
X184500Y168861D01*
X188500D01*
X188310Y168841D01*
D02*
G37*
G36*
X187510Y164878D02*
X187540Y164533D01*
X187590Y164228D01*
X187660Y163964D01*
X187750Y163741D01*
X187860Y163558D01*
X187990Y163416D01*
X188140Y163314D01*
X188310Y163253D01*
X188500Y163233D01*
X184500D01*
X184690Y163253D01*
X184860Y163314D01*
X185010Y163416D01*
X185140Y163558D01*
X185250Y163741D01*
X185340Y163964D01*
X185410Y164228D01*
X185460Y164533D01*
X185490Y164878D01*
X185500Y165263D01*
X187500D01*
X187510Y164878D01*
D02*
G37*
G36*
X479925Y162500D02*
X478777Y162495D01*
X476736Y162377D01*
X475844Y162266D01*
X475036Y162119D01*
X474312Y161937D01*
X473674Y161719D01*
X473121Y161466D01*
X472653Y161178D01*
X472269Y160855D01*
X470855Y162269D01*
X471178Y162653D01*
X471466Y163121D01*
X471719Y163674D01*
X471936Y164312D01*
X472119Y165036D01*
X472266Y165844D01*
X472377Y166737D01*
X472495Y168777D01*
X472500Y169925D01*
X479925Y162500D01*
D02*
G37*
G36*
X254468Y156795D02*
X254447Y156985D01*
X254386Y157155D01*
X254285Y157305D01*
X254143Y157435D01*
X253960Y157545D01*
X253736Y157635D01*
X253472Y157705D01*
X253175Y157753D01*
X252878Y157705D01*
X252614Y157635D01*
X252390Y157545D01*
X252207Y157435D01*
X252065Y157305D01*
X251964Y157155D01*
X251903Y156985D01*
X251882Y156795D01*
Y160795D01*
X251903Y160605D01*
X251964Y160435D01*
X252065Y160285D01*
X252207Y160155D01*
X252390Y160045D01*
X252614Y159955D01*
X252878Y159885D01*
X253175Y159836D01*
X253472Y159885D01*
X253736Y159955D01*
X253960Y160045D01*
X254143Y160155D01*
X254285Y160285D01*
X254386Y160435D01*
X254447Y160605D01*
X254468Y160795D01*
Y156795D01*
D02*
G37*
G36*
X268413Y142355D02*
X268474Y142185D01*
X268575Y142035D01*
X268717Y141905D01*
X268900Y141795D01*
X269123Y141705D01*
X269387Y141635D01*
X269692Y141585D01*
X270037Y141555D01*
X270423Y141545D01*
Y139545D01*
X270037Y139535D01*
X269692Y139505D01*
X269387Y139455D01*
X269123Y139385D01*
X268900Y139295D01*
X268717Y139185D01*
X268575Y139055D01*
X268474Y138905D01*
X268413Y138735D01*
X268393Y138545D01*
Y142545D01*
X268413Y142355D01*
D02*
G37*
G36*
X246730Y135437D02*
X246560Y135376D01*
X246410Y135274D01*
X246280Y135132D01*
X246170Y134950D01*
X246080Y134726D01*
X246010Y134462D01*
X245960Y134158D01*
X245930Y133812D01*
X245920Y133427D01*
X243920D01*
X243910Y133812D01*
X243880Y134158D01*
X243830Y134462D01*
X243760Y134726D01*
X243670Y134950D01*
X243560Y135132D01*
X243430Y135274D01*
X243280Y135376D01*
X243110Y135437D01*
X242920Y135457D01*
X246920D01*
X246730Y135437D01*
D02*
G37*
G36*
X472653Y138821D02*
X473121Y138533D01*
X473674Y138281D01*
X474313Y138063D01*
X475036Y137881D01*
X475844Y137734D01*
X476737Y137622D01*
X478777Y137505D01*
X479925Y137499D01*
X472500Y130075D01*
X472495Y131222D01*
X472377Y133263D01*
X472266Y134156D01*
X472119Y134964D01*
X471937Y135687D01*
X471719Y136326D01*
X471466Y136879D01*
X471178Y137347D01*
X470855Y137731D01*
X472269Y139145D01*
X472653Y138821D01*
D02*
G37*
G36*
Y118821D02*
X473121Y118533D01*
X473674Y118281D01*
X474313Y118063D01*
X475036Y117881D01*
X475844Y117734D01*
X476737Y117622D01*
X478777Y117505D01*
X479925Y117499D01*
X472500Y110075D01*
X472495Y111223D01*
X472377Y113263D01*
X472266Y114156D01*
X472119Y114964D01*
X471937Y115687D01*
X471719Y116326D01*
X471466Y116879D01*
X471178Y117347D01*
X470855Y117731D01*
X472269Y119145D01*
X472653Y118821D01*
D02*
G37*
G36*
X321115Y115371D02*
X322381Y114105D01*
X324035Y113420D01*
X325825D01*
X325886Y113445D01*
X326942Y112739D01*
Y80576D01*
X326195Y79829D01*
X325510Y78175D01*
Y77862D01*
X324240Y77336D01*
X312777Y88799D01*
X312806Y89065D01*
X313500Y90212D01*
X314091Y90330D01*
X314694D01*
X315250Y90561D01*
X315841Y90678D01*
X316342Y91013D01*
X316899Y91243D01*
X317325Y91670D01*
X317826Y92004D01*
X318160Y92505D01*
X318587Y92931D01*
X318817Y93488D01*
X319152Y93989D01*
X319269Y94580D01*
X319500Y95136D01*
Y95739D01*
X319618Y96330D01*
Y115668D01*
X320887Y115920D01*
X321115Y115371D01*
D02*
G37*
G36*
X362653Y48822D02*
X363121Y48534D01*
X363675Y48281D01*
X364313Y48063D01*
X365036Y47881D01*
X365844Y47734D01*
X366737Y47623D01*
X368778Y47505D01*
X369925Y47500D01*
X362501Y40075D01*
X362495Y41223D01*
X362378Y43263D01*
X362266Y44156D01*
X362119Y44964D01*
X361937Y45687D01*
X361719Y46326D01*
X361467Y46879D01*
X361179Y47347D01*
X360855Y47731D01*
X362269Y49145D01*
X362653Y48822D01*
D02*
G37*
G36*
X399145Y27731D02*
X398822Y27347D01*
X398534Y26879D01*
X398281Y26326D01*
X398064Y25687D01*
X397882Y24964D01*
X397735Y24156D01*
X397623Y23263D01*
X397506Y21223D01*
X397500Y20075D01*
X390075Y27500D01*
X391223Y27505D01*
X393264Y27623D01*
X394157Y27734D01*
X394965Y27881D01*
X395688Y28063D01*
X396326Y28281D01*
X396879Y28534D01*
X397348Y28822D01*
X397731Y29145D01*
X399145Y27731D01*
D02*
G37*
G36*
X379145D02*
X378822Y27347D01*
X378534Y26879D01*
X378281Y26326D01*
X378064Y25687D01*
X377882Y24964D01*
X377735Y24156D01*
X377623Y23263D01*
X377506Y21223D01*
X377500Y20075D01*
X370075Y27500D01*
X371223Y27505D01*
X373264Y27623D01*
X374157Y27734D01*
X374965Y27881D01*
X375688Y28063D01*
X376326Y28281D01*
X376879Y28534D01*
X377348Y28822D01*
X377731Y29145D01*
X379145Y27731D01*
D02*
G37*
%LPC*%
G36*
X393510Y282339D02*
Y274130D01*
X401719D01*
X401258Y275851D01*
X399804Y278369D01*
X397749Y280424D01*
X395231Y281878D01*
X393510Y282339D01*
D02*
G37*
G36*
X388430D02*
X386709Y281878D01*
X384191Y280424D01*
X382136Y278369D01*
X380682Y275851D01*
X380221Y274130D01*
X388430D01*
Y282339D01*
D02*
G37*
%LPD*%
D13*
X261963Y262000D02*
X262000Y262037D01*
X212500Y77500D02*
X213428D01*
X216980Y81052D01*
Y156020D01*
X200250Y470250D02*
X210000Y480000D01*
X200250Y407700D02*
Y470250D01*
Y407700D02*
X246000Y361950D01*
X80808Y360000D02*
X178808Y262000D01*
X30000Y360000D02*
X80808D01*
X20000Y350000D02*
X30000Y360000D01*
X75250Y380000D02*
X164250Y291000D01*
X30000Y380000D02*
X75250D01*
X20000Y370000D02*
X30000Y380000D01*
X126350Y240000D02*
X130350Y236000D01*
X30000Y240000D02*
X126350D01*
X20000Y250000D02*
X30000Y240000D01*
X213601Y236000D02*
X215601Y238000D01*
X130350Y236000D02*
X213601D01*
X211900Y239840D02*
X214060Y242000D01*
X134430Y239840D02*
X211900D01*
X124270Y250000D02*
X134430Y239840D01*
X210480Y243500D02*
X212980Y246000D01*
X138390Y243500D02*
X210480D01*
X111889Y270000D02*
X138390Y243500D01*
X209650Y247750D02*
X211900Y250000D01*
X178000Y247750D02*
X209650D01*
X95750Y330000D02*
X178000Y247750D01*
X208570Y251750D02*
X210820Y254000D01*
X181500Y251750D02*
X208570D01*
X83250Y350000D02*
X181500Y251750D01*
X198500Y256750D02*
X199750Y258000D01*
X226000D01*
X339750Y84900D02*
Y146250D01*
X280450Y205550D02*
X339750Y146250D01*
X265240Y205550D02*
X280450D01*
X330000Y77290D02*
Y150500D01*
X278760Y201740D02*
X330000Y150500D01*
X262700Y201740D02*
X278760D01*
X322580Y246000D02*
X347790Y220790D01*
X274000Y246000D02*
X322580D01*
X352250Y250000D02*
X361140Y258890D01*
X274000Y250000D02*
X352250D01*
X277779Y262055D02*
X286830Y271106D01*
X274055Y262055D02*
X277779D01*
X286830Y271106D02*
Y305330D01*
X277183Y266055D02*
X282500Y271372D01*
X274055Y266055D02*
X277183D01*
X282500Y271372D02*
Y308000D01*
X290640Y269740D02*
Y300982D01*
X278900Y258000D02*
X290640Y269740D01*
X274000Y258000D02*
X278900D01*
X282500Y308000D02*
X309590Y335090D01*
X278000Y310250D02*
X347500Y379750D01*
X278000Y271650D02*
Y310250D01*
X276405Y270055D02*
X278000Y271650D01*
X274000Y387160D02*
X286700Y399860D01*
X274000Y274000D02*
Y387160D01*
X209000Y291000D02*
X226000Y274000D01*
X164250Y291000D02*
X209000D01*
X204965Y286700D02*
X221665Y270000D01*
X161800Y286700D02*
X204965D01*
X78500Y370000D02*
X161800Y286700D01*
X221665Y270000D02*
X226000D01*
X191150Y338510D02*
Y355410D01*
X212960Y295110D02*
X230000Y278070D01*
X203096Y295110D02*
X212960D01*
X40000Y330000D02*
X95750D01*
X40000Y350000D02*
X83250D01*
X40000Y370000D02*
X78500D01*
X262000Y274000D02*
Y376500D01*
X240250Y398250D02*
X262000Y376500D01*
X240250Y398250D02*
Y470250D01*
X254000Y274000D02*
Y369250D01*
X220250Y403000D02*
X254000Y369250D01*
X220250Y403000D02*
Y470250D01*
X288750Y410000D02*
X460000D01*
X269940Y391190D02*
X288750Y410000D01*
X269940Y305664D02*
Y391190D01*
X311500Y330000D02*
X460000D01*
X286830Y305330D02*
X311500Y330000D01*
X309590Y335090D02*
X410440D01*
X347500Y379750D02*
X469750D01*
X361140Y258890D02*
X403670D01*
X393250Y139750D02*
X470250D01*
X299000Y234000D02*
X393250Y139750D01*
X274000Y234000D02*
X299000D01*
X387290Y152210D02*
X437540D01*
X301500Y238000D02*
X387290Y152210D01*
X274000Y238000D02*
X301500D01*
X324130Y67120D02*
X375730D01*
X296990Y94260D02*
X324130Y67120D01*
X296990Y94260D02*
Y152760D01*
X326320Y70930D02*
X384620D01*
X302070Y95180D02*
X326320Y70930D01*
X302070Y95180D02*
Y153430D01*
X321690Y63310D02*
X368110D01*
X291910Y93090D02*
X321690Y63310D01*
X291910Y93090D02*
Y151090D01*
X320770Y58230D02*
X351770D01*
X286830Y92170D02*
X320770Y58230D01*
X286830Y92170D02*
Y149670D01*
X242000Y201000D02*
X291910Y151090D01*
X242000Y201000D02*
Y226000D01*
X246000Y203750D02*
X296990Y152760D01*
X246000Y203750D02*
Y226000D01*
X250000Y205500D02*
X302070Y153430D01*
X250000Y205500D02*
Y226000D01*
X432500Y285250D02*
Y303842D01*
X437607Y308949D01*
X244920Y158795D02*
Y168420D01*
X245250Y168750D01*
X211230Y267020D02*
X212250Y266000D01*
X42220Y232220D02*
X215481D01*
X148400Y228410D02*
X216980D01*
X138240Y218250D02*
X148400Y228410D01*
X257945Y246056D02*
X261945D01*
X254000Y250000D02*
X257945Y246056D01*
X254000Y238000D02*
Y250000D01*
X210820Y254000D02*
X226000D01*
X230000Y258000D02*
X234000D01*
X214060Y242000D02*
X226000D01*
X215601Y238000D02*
X226000D01*
X218570Y230000D02*
X226000D01*
X216980Y228410D02*
X218570Y230000D01*
X238000Y198500D02*
Y226000D01*
X230000Y195710D02*
Y226000D01*
X234000Y258000D02*
Y262000D01*
X217261Y234000D02*
X226000D01*
X215481Y232220D02*
X217261Y234000D01*
X212250Y266000D02*
X226000D01*
X178808Y262000D02*
X226000D01*
X234000Y173040D02*
Y226000D01*
X200599Y297607D02*
X203096Y295110D01*
X200599Y297607D02*
Y337339D01*
X242000Y266000D02*
Y270000D01*
X246000Y274000D02*
Y361950D01*
X258000Y256114D02*
Y262000D01*
X254000Y252114D02*
X258000Y256114D01*
X211900Y250000D02*
X226000D01*
X212980Y246000D02*
X226000D01*
X266000Y274000D02*
Y400620D01*
X258000Y274000D02*
Y372810D01*
X230000Y274000D02*
Y278070D01*
X250000Y274000D02*
Y365570D01*
X254000Y250000D02*
Y252114D01*
X261945Y246056D02*
X262000Y246000D01*
X274000Y230000D02*
X297038D01*
X407288Y119750D01*
X276250Y147980D02*
X276670Y148400D01*
X266000Y220030D02*
Y226000D01*
Y220030D02*
X272860Y213170D01*
X272225Y218885D02*
X284925D01*
X270000Y221110D02*
X272225Y218885D01*
X270000Y221110D02*
Y226000D01*
X448030Y260250D02*
X470250D01*
X293317Y265746D02*
X300037D01*
X302070Y267780D01*
X266000Y400620D02*
X288100Y422720D01*
X397320D01*
X269940Y305664D02*
X270000Y305604D01*
X286700Y399860D02*
X469860D01*
X230000Y400810D02*
X258000Y372810D01*
X210000Y405570D02*
X250000Y365570D01*
X270000Y274000D02*
Y305604D01*
X379750Y29750D02*
Y51670D01*
X368110Y63310D02*
X379750Y51670D01*
X375730Y67120D02*
X390000Y52850D01*
X384620Y70930D02*
X399750Y55800D01*
X240250Y470250D02*
X250000Y480000D01*
X230000Y400810D02*
Y460000D01*
X165787Y73863D02*
X183960Y55690D01*
X138240Y129350D02*
X165787Y101803D01*
Y73863D02*
Y101803D01*
X138240Y129350D02*
Y218250D01*
X183960Y55690D02*
X265240D01*
X112840Y58230D02*
X119750Y51320D01*
X112840Y58230D02*
Y69660D01*
X119750Y30250D02*
Y51320D01*
Y30250D02*
X130000Y20000D01*
Y40000D02*
Y69660D01*
X273895Y140545D02*
X276250Y142900D01*
Y147980D01*
X261430Y140545D02*
X273895D01*
X265240Y55690D02*
X270000Y50930D01*
X410440Y335090D02*
X415100Y339750D01*
X379540Y288100D02*
X411830D01*
X345440Y254000D02*
X379540Y288100D01*
X411830D02*
X420180Y279750D01*
X393190Y193170D02*
X413595D01*
X390970Y195390D02*
X393190Y193170D01*
X407288Y119750D02*
X470250D01*
X445580Y160250D02*
X470250D01*
X437540Y152210D02*
X445580Y160250D01*
X280480Y92520D02*
Y109030D01*
X330000Y40000D02*
Y43000D01*
X280480Y92520D02*
X330000Y43000D01*
X247460Y126810D02*
X262700D01*
X280480Y109030D01*
X244920Y129350D02*
X247460Y126810D01*
X216980Y156020D02*
X234000Y173040D01*
X470250Y160250D02*
X480000Y170000D01*
X420180Y279750D02*
X450250D01*
X413830Y269380D02*
X438900D01*
X403670Y258890D02*
X413830Y269050D01*
Y269380D01*
X347790Y233490D02*
X360490Y246190D01*
X390970D01*
X413595Y242060D02*
Y242209D01*
X390970Y246190D02*
X409614D01*
X413595Y242209D01*
Y225870D02*
Y242060D01*
X390970Y220790D02*
X402400Y209360D01*
X413595D01*
X186500Y216980D02*
X216980D01*
X226000Y226000D01*
X186500Y199200D02*
Y216980D01*
Y156020D02*
Y173800D01*
X238000Y198500D02*
X286830Y149670D01*
X244920Y129350D02*
Y140545D01*
Y158795D02*
X261430D01*
X168343Y320703D02*
X169150Y321510D01*
X168343Y304147D02*
Y320703D01*
X191150Y338510D02*
X199427D01*
X200599Y337339D01*
X258000Y262000D02*
X261963D01*
X347790Y220790D02*
X390970D01*
X208090Y173800D02*
X230000Y195710D01*
X186500Y173800D02*
X208090D01*
X274055Y270055D02*
X276405D01*
X284925Y218885D02*
X370120Y133690D01*
Y103209D02*
Y133690D01*
X359750Y114110D02*
Y137710D01*
X284160Y226000D02*
X420160Y90000D01*
X460000D01*
X40000Y270000D02*
X111889D01*
X270000Y40000D02*
Y50930D01*
X351770Y58230D02*
X370000Y40000D01*
X330000Y77290D02*
X330010Y77280D01*
X370000Y20000D02*
X379750Y29750D01*
X390000Y40000D02*
Y52850D01*
X399750Y29750D02*
Y55800D01*
X390000Y20000D02*
X399750Y29750D01*
X470250Y119750D02*
X480000Y110000D01*
X470250Y139750D02*
X480000Y130000D01*
X438900Y269380D02*
X448030Y260250D01*
X450250Y279750D02*
X460000Y270000D01*
X470250Y260250D02*
X480000Y270000D01*
X290640Y300982D02*
X309409Y319750D01*
X470250D01*
X480000Y310000D01*
X469750Y379750D02*
X480000Y390000D01*
X397320Y422720D02*
X410000Y435400D01*
Y460000D01*
X469860Y399860D02*
X480000Y410000D01*
X210000Y405570D02*
Y460000D01*
X220250Y470250D02*
X230000Y480000D01*
X40000Y250000D02*
X124270D01*
X40000Y230000D02*
X42220Y232220D01*
X272860Y213170D02*
X284290D01*
X282052Y209360D02*
X350000Y141412D01*
X284290Y213170D02*
X359750Y137710D01*
X267780Y209360D02*
X282052D01*
X350000Y76010D02*
Y141412D01*
X274000Y226000D02*
X284160D01*
X254000Y210440D02*
X262700Y201740D01*
X258000Y212790D02*
X265240Y205550D01*
X262000Y215140D02*
X267780Y209360D01*
X254000Y210440D02*
Y226000D01*
X258000Y212790D02*
Y226000D01*
X262000Y215140D02*
Y226000D01*
X274000Y254000D02*
X345440D01*
X274000Y270000D02*
X274055Y270055D01*
X274000Y262000D02*
X274055Y262055D01*
X274000Y266000D02*
X274055Y266055D01*
X19590Y483265D02*
X20352Y483646D01*
X21494Y484788D01*
Y476790D01*
D23*
X186500Y173800D02*
D03*
Y199200D02*
D03*
D24*
X191150Y321510D02*
D03*
X169150Y338510D02*
D03*
X191150D02*
D03*
X169150Y321510D02*
D03*
D25*
X261430Y158795D02*
D03*
Y140545D02*
D03*
X244920Y140545D02*
D03*
Y158795D02*
D03*
X228410Y303405D02*
D03*
Y321655D02*
D03*
X302070Y285155D02*
D03*
Y266905D02*
D03*
X130000Y69660D02*
D03*
Y87910D02*
D03*
X112840D02*
D03*
Y69660D02*
D03*
D26*
X431845Y209360D02*
D03*
X413595D02*
D03*
X431845Y225870D02*
D03*
X413595D02*
D03*
X431845Y193170D02*
D03*
X413595D02*
D03*
D27*
X211900Y303405D02*
D03*
Y322405D02*
D03*
D28*
X186500Y156020D02*
D03*
X167500D02*
D03*
Y216980D02*
D03*
X186500D02*
D03*
X192900Y355410D02*
D03*
X173900D02*
D03*
X413595Y242060D02*
D03*
X432595D02*
D03*
X169150Y303340D02*
D03*
X188150D02*
D03*
D29*
X274000Y226000D02*
D03*
X270000D02*
D03*
X266000D02*
D03*
X262000D02*
D03*
X258000D02*
D03*
X254000D02*
D03*
X250000D02*
D03*
X246000D02*
D03*
X242000D02*
D03*
X238000D02*
D03*
X234000D02*
D03*
X230000D02*
D03*
X226000D02*
D03*
X274000Y230000D02*
D03*
X270000D02*
D03*
X266000D02*
D03*
X262000D02*
D03*
X258000D02*
D03*
X254000D02*
D03*
X250000D02*
D03*
X246000D02*
D03*
X242000D02*
D03*
X238000D02*
D03*
X234000D02*
D03*
X230000D02*
D03*
X226000D02*
D03*
X274000Y234000D02*
D03*
X270000D02*
D03*
X266000D02*
D03*
X262000D02*
D03*
X258000D02*
D03*
X254000D02*
D03*
X250000D02*
D03*
X246000D02*
D03*
X242000D02*
D03*
X238000D02*
D03*
X234000D02*
D03*
X230000D02*
D03*
X226000D02*
D03*
X274000Y238000D02*
D03*
X270000D02*
D03*
X266000D02*
D03*
X262000D02*
D03*
X258000D02*
D03*
X254000D02*
D03*
X250000D02*
D03*
X246000D02*
D03*
X242000D02*
D03*
X238000D02*
D03*
X234000D02*
D03*
X230000D02*
D03*
X226000D02*
D03*
X274000Y242000D02*
D03*
X270000D02*
D03*
X266000D02*
D03*
X262000D02*
D03*
X238000D02*
D03*
X234000D02*
D03*
X230000D02*
D03*
X226000D02*
D03*
X274000Y246000D02*
D03*
X270000D02*
D03*
X266000D02*
D03*
X262000D02*
D03*
X238000D02*
D03*
X234000D02*
D03*
X230000D02*
D03*
X226000D02*
D03*
X274000Y250000D02*
D03*
X270000D02*
D03*
X266000D02*
D03*
X262000D02*
D03*
X238000D02*
D03*
X234000D02*
D03*
X230000D02*
D03*
X226000D02*
D03*
X274000Y254000D02*
D03*
X270000D02*
D03*
X266000D02*
D03*
X262000D02*
D03*
X238000D02*
D03*
X234000D02*
D03*
X230000D02*
D03*
X226000D02*
D03*
X274000Y258000D02*
D03*
X270000D02*
D03*
X266000D02*
D03*
X262000D02*
D03*
X238000D02*
D03*
X234000D02*
D03*
X230000D02*
D03*
X226000D02*
D03*
X274000Y262000D02*
D03*
X270000D02*
D03*
X266000D02*
D03*
X262000D02*
D03*
X258000D02*
D03*
X254000D02*
D03*
X250000D02*
D03*
X246000D02*
D03*
X242000D02*
D03*
X238000D02*
D03*
X234000D02*
D03*
X230000D02*
D03*
X226000D02*
D03*
X274000Y266000D02*
D03*
X270000D02*
D03*
X266000D02*
D03*
X262000D02*
D03*
X258000D02*
D03*
X254000D02*
D03*
X250000D02*
D03*
X246000D02*
D03*
X242000D02*
D03*
X238000D02*
D03*
X234000D02*
D03*
X226000D02*
D03*
X274000Y270000D02*
D03*
X270000D02*
D03*
X266000D02*
D03*
X262000D02*
D03*
X258000D02*
D03*
X254000D02*
D03*
X250000D02*
D03*
X246000D02*
D03*
X242000D02*
D03*
X238000D02*
D03*
X234000D02*
D03*
X230000D02*
D03*
X226000D02*
D03*
X274000Y274000D02*
D03*
X270000D02*
D03*
X266000D02*
D03*
X262000D02*
D03*
X258000D02*
D03*
X254000D02*
D03*
X250000D02*
D03*
X246000D02*
D03*
X242000D02*
D03*
X238000D02*
D03*
X234000D02*
D03*
X230000D02*
D03*
X226000D02*
D03*
X230000Y266000D02*
D03*
D30*
X470000Y30000D02*
D03*
X30000D02*
D03*
X470000Y470000D02*
D03*
D46*
X217480Y316470D02*
X229180D01*
X198000Y280250D02*
X211230Y267020D01*
X198000Y280250D02*
Y281500D01*
X229180Y316470D02*
X229680Y316970D01*
X216980Y315970D02*
X217480Y316470D01*
D47*
X141174Y87910D02*
X146500Y82584D01*
X112840Y87910D02*
X141174D01*
X146500Y67000D02*
Y82584D01*
X431845Y193170D02*
Y225870D01*
X338900Y265350D02*
Y308420D01*
Y265350D02*
X339000Y265250D01*
X324815Y265435D02*
X325000Y265250D01*
X324815Y265435D02*
Y289496D01*
X277940Y191580D02*
X313500Y156020D01*
Y96330D02*
Y156020D01*
X130000Y460000D02*
Y480000D01*
X190000Y460000D02*
Y480000D01*
X427159Y169990D02*
X431845Y174676D01*
Y193170D01*
X390970Y169990D02*
X427159D01*
X460000Y210000D02*
X480000D01*
X460000Y190000D02*
X480000D01*
X310000Y20000D02*
Y40000D01*
Y6470D02*
Y20000D01*
X290000D02*
Y40000D01*
Y6800D02*
Y20000D01*
Y460000D02*
X310000D01*
X20000Y210000D02*
X40000D01*
X290000Y460000D02*
Y480000D01*
X310000D01*
Y460000D02*
Y480000D01*
X480000Y190000D02*
Y210000D01*
X290000Y40000D02*
X310000D01*
X20000Y190000D02*
Y210000D01*
Y190000D02*
X40000D01*
Y210000D01*
D48*
X238040Y274676D02*
Y341616D01*
X238000Y274636D02*
X238040Y274676D01*
X238000Y274000D02*
Y274636D01*
X241960Y274040D02*
Y343240D01*
X98040Y432526D02*
X144731Y385835D01*
X146355Y389755D02*
X195445D01*
X109710Y480000D02*
X110000D01*
X241960Y274040D02*
X242000Y274000D01*
X195445Y389755D02*
X241960Y343240D01*
X101960Y468040D02*
X110000Y460000D01*
X101960Y472250D02*
X109710Y480000D01*
X101960Y468040D02*
Y472250D01*
Y451960D02*
X110000Y460000D01*
X101960Y434150D02*
X146355Y389755D01*
X101960Y434150D02*
Y451960D01*
X214086Y365570D02*
Y365570D01*
X193821Y385835D02*
X214086Y365570D01*
Y365570D02*
X216858Y362798D01*
X98040Y432526D02*
Y451960D01*
X144731Y385835D02*
X193821D01*
X216858Y362798D02*
X238040Y341616D01*
X97750Y472250D02*
X98040D01*
X90000Y480000D02*
X97750Y472250D01*
X98040Y468040D02*
Y472250D01*
X90000Y460000D02*
X98040Y451960D01*
X90000Y460000D02*
X98040Y468040D01*
D49*
X234000Y274000D02*
Y283566D01*
X211900Y303405D02*
X228410D01*
X229680Y287886D02*
Y302135D01*
X228410Y303405D02*
X229680Y302135D01*
Y287886D02*
X234000Y283566D01*
D50*
X40000Y410000D02*
D03*
X480000D02*
D03*
D51*
X20000D02*
D03*
X40000Y390000D02*
D03*
X20000D02*
D03*
X40000Y370000D02*
D03*
X20000D02*
D03*
X40000Y350000D02*
D03*
X20000D02*
D03*
X40000Y330000D02*
D03*
X20000D02*
D03*
X40000Y310000D02*
D03*
X20000D02*
D03*
X40000Y290000D02*
D03*
X20000D02*
D03*
X40000Y270000D02*
D03*
X20000D02*
D03*
X40000Y250000D02*
D03*
X20000D02*
D03*
X40000Y230000D02*
D03*
X20000D02*
D03*
X40000Y210000D02*
D03*
X20000D02*
D03*
X40000Y190000D02*
D03*
X20000D02*
D03*
X40000Y170000D02*
D03*
X20000D02*
D03*
X40000Y150000D02*
D03*
X20000D02*
D03*
X40000Y130000D02*
D03*
X20000D02*
D03*
X40000Y110000D02*
D03*
X20000D02*
D03*
X40000Y90000D02*
D03*
X20000D02*
D03*
X410000Y460000D02*
D03*
Y480000D02*
D03*
X390000Y460000D02*
D03*
Y480000D02*
D03*
X370000Y460000D02*
D03*
Y480000D02*
D03*
X350000Y460000D02*
D03*
Y480000D02*
D03*
X330000Y460000D02*
D03*
Y480000D02*
D03*
X310000Y460000D02*
D03*
Y480000D02*
D03*
X290000Y460000D02*
D03*
Y480000D02*
D03*
X270000Y460000D02*
D03*
Y480000D02*
D03*
X250000Y460000D02*
D03*
Y480000D02*
D03*
X230000Y460000D02*
D03*
Y480000D02*
D03*
X210000Y460000D02*
D03*
Y480000D02*
D03*
X190000Y460000D02*
D03*
Y480000D02*
D03*
X170000Y460000D02*
D03*
Y480000D02*
D03*
X150000Y460000D02*
D03*
Y480000D02*
D03*
X130000Y460000D02*
D03*
Y480000D02*
D03*
X110000Y460000D02*
D03*
Y480000D02*
D03*
X90000Y460000D02*
D03*
X460000Y410000D02*
D03*
X480000Y390000D02*
D03*
X460000D02*
D03*
X480000Y370000D02*
D03*
X460000D02*
D03*
X480000Y350000D02*
D03*
X460000D02*
D03*
X480000Y330000D02*
D03*
X460000D02*
D03*
X480000Y310000D02*
D03*
X460000D02*
D03*
X480000Y290000D02*
D03*
X460000D02*
D03*
X480000Y270000D02*
D03*
X460000D02*
D03*
X480000Y250000D02*
D03*
X460000D02*
D03*
X480000Y230000D02*
D03*
X460000D02*
D03*
X480000Y210000D02*
D03*
X460000D02*
D03*
X480000Y190000D02*
D03*
X460000D02*
D03*
X480000Y170000D02*
D03*
X460000D02*
D03*
X480000Y150000D02*
D03*
X460000D02*
D03*
X480000Y130000D02*
D03*
X460000D02*
D03*
X480000Y110000D02*
D03*
X460000D02*
D03*
X480000Y90000D02*
D03*
X460000D02*
D03*
X410000Y20000D02*
D03*
Y40000D02*
D03*
X390000Y20000D02*
D03*
Y40000D02*
D03*
X370000Y20000D02*
D03*
Y40000D02*
D03*
X350000Y20000D02*
D03*
Y40000D02*
D03*
X330000Y20000D02*
D03*
Y40000D02*
D03*
X310000Y20000D02*
D03*
Y40000D02*
D03*
X290000Y20000D02*
D03*
Y40000D02*
D03*
X270000Y20000D02*
D03*
Y40000D02*
D03*
X250000Y20000D02*
D03*
Y40000D02*
D03*
X230000Y20000D02*
D03*
Y40000D02*
D03*
X210000Y20000D02*
D03*
Y40000D02*
D03*
X190000Y20000D02*
D03*
Y40000D02*
D03*
X170000Y20000D02*
D03*
Y40000D02*
D03*
X150000Y20000D02*
D03*
Y40000D02*
D03*
X130000Y20000D02*
D03*
Y40000D02*
D03*
X110000Y20000D02*
D03*
Y40000D02*
D03*
X90000Y20000D02*
D03*
D52*
Y480000D02*
D03*
Y40000D02*
D03*
D53*
X204280Y89980D02*
D03*
X229680D02*
D03*
D54*
X255080D02*
D03*
D55*
X390970Y271590D02*
D03*
Y246190D02*
D03*
Y220790D02*
D03*
Y195390D02*
D03*
D56*
Y169990D02*
D03*
D57*
X238000Y238000D02*
D03*
X254000Y262000D02*
D03*
X238000Y258000D02*
D03*
Y254000D02*
D03*
X250000Y262000D02*
D03*
X242000D02*
D03*
X262000Y258037D02*
D03*
Y250000D02*
D03*
X254000Y234000D02*
D03*
X258000Y238000D02*
D03*
X250000D02*
D03*
X238000Y250000D02*
D03*
X242000Y234000D02*
D03*
X246000Y238000D02*
D03*
X234000Y242000D02*
D03*
Y246000D02*
D03*
X238000Y242000D02*
D03*
Y246000D02*
D03*
X234000Y254000D02*
D03*
X230000Y258000D02*
D03*
Y250000D02*
D03*
Y238000D02*
D03*
Y246000D02*
D03*
Y230000D02*
D03*
X234000Y234000D02*
D03*
X238000Y230000D02*
D03*
X234000Y258000D02*
D03*
Y238000D02*
D03*
X230000Y242000D02*
D03*
X234000Y250000D02*
D03*
X230000Y254000D02*
D03*
Y234000D02*
D03*
X238000Y262000D02*
D03*
X230000Y266000D02*
D03*
Y270000D02*
D03*
X250000Y230000D02*
D03*
X246000Y234000D02*
D03*
X242000Y230000D02*
D03*
X234000D02*
D03*
X238000Y234000D02*
D03*
X234000Y262000D02*
D03*
X230000D02*
D03*
X234000Y266000D02*
D03*
X238000D02*
D03*
X234000Y270000D02*
D03*
X242000D02*
D03*
X250000Y266000D02*
D03*
X246000Y270000D02*
D03*
X254000Y266000D02*
D03*
X250000Y270000D02*
D03*
X246000Y266000D02*
D03*
Y262000D02*
D03*
X258000Y266000D02*
D03*
X262000Y266037D02*
D03*
X270000Y266000D02*
D03*
X266000Y270000D02*
D03*
X270000Y258000D02*
D03*
Y250000D02*
D03*
X266000Y246000D02*
D03*
X270000Y242000D02*
D03*
Y234000D02*
D03*
X266000Y238000D02*
D03*
X254000D02*
D03*
X258000Y230000D02*
D03*
X266000D02*
D03*
X262000Y234000D02*
D03*
X270000Y270000D02*
D03*
X242000Y266000D02*
D03*
Y238000D02*
D03*
X238000Y270000D02*
D03*
X258000D02*
D03*
X254000D02*
D03*
X261999Y254037D02*
D03*
X266000Y266000D02*
D03*
X262000Y270037D02*
D03*
X266000Y250000D02*
D03*
X262000Y246000D02*
D03*
X270000Y230000D02*
D03*
X266000Y262000D02*
D03*
X262000Y242000D02*
D03*
X270000Y246000D02*
D03*
Y238000D02*
D03*
X254000Y230000D02*
D03*
X262000Y262037D02*
D03*
X250000Y234000D02*
D03*
X258000D02*
D03*
X266000Y254000D02*
D03*
X270000D02*
D03*
X262000Y230000D02*
D03*
Y238000D02*
D03*
X266000Y234000D02*
D03*
Y258000D02*
D03*
Y242000D02*
D03*
X246000Y230000D02*
D03*
X270000Y262000D02*
D03*
X258000D02*
D03*
D58*
X146500Y67000D02*
D03*
X339000Y265250D02*
D03*
X325000D02*
D03*
X277940Y191580D02*
D03*
X288100Y76010D02*
D03*
X313500Y96330D02*
D03*
X324815Y289496D02*
D03*
X338900Y308420D02*
D03*
D59*
X212500Y77500D02*
D03*
X198500Y256750D02*
D03*
X198000Y281500D02*
D03*
X432500Y285250D02*
D03*
X245250Y168750D02*
D03*
X314750Y264000D02*
D03*
X276670Y148400D02*
D03*
X173000Y279853D02*
D03*
X293317Y265746D02*
D03*
X139510Y269050D02*
D03*
X439230Y294450D02*
D03*
X278783Y138044D02*
D03*
X352870Y225870D02*
D03*
X434150Y105220D02*
D03*
X388430Y130620D02*
D03*
X327470Y191580D02*
D03*
X296990Y222060D02*
D03*
X327470Y225870D02*
D03*
X350330Y203010D02*
D03*
X168343Y312651D02*
D03*
X312230Y288100D02*
D03*
X370120Y103209D02*
D03*
X359750Y114110D02*
D03*
X441770Y239840D02*
D03*
X371920Y79820D02*
D03*
X324930Y117920D02*
D03*
X280480Y119470D02*
D03*
X199200Y125540D02*
D03*
X435420Y253810D02*
D03*
X427433Y259258D02*
D03*
X420180Y263970D02*
D03*
X247460Y109030D02*
D03*
X350000Y76010D02*
D03*
X339750Y84900D02*
D03*
X390000Y87440D02*
D03*
X183960Y91250D02*
D03*
X201180Y113550D02*
D03*
X400250Y70930D02*
D03*
X425260Y64580D02*
D03*
X437607Y308949D02*
D03*
X330010Y77280D02*
D03*
X347790Y233490D02*
D03*
D60*
X92589Y117990D02*
D03*
X64500Y120000D02*
D03*
X280000Y338250D02*
D03*
X349060Y290640D02*
D03*
X79820Y340170D02*
D03*
X415100Y339750D02*
D03*
X296990Y435420D02*
D03*
X377848Y437405D02*
D03*
X70930Y293180D02*
D03*
X67120Y318580D02*
D03*
X495110Y425260D02*
D03*
Y349060D02*
D03*
Y272860D02*
D03*
Y196660D02*
D03*
Y120460D02*
D03*
Y44260D02*
D03*
X476060Y6160D02*
D03*
X437960Y463360D02*
D03*
X457010Y425260D02*
D03*
X437960Y82360D02*
D03*
X457010Y44260D02*
D03*
X437960Y6160D02*
D03*
X418910Y425260D02*
D03*
Y349060D02*
D03*
X399860Y310960D02*
D03*
Y6160D02*
D03*
X380810Y349060D02*
D03*
X361760Y6160D02*
D03*
X323660Y310960D02*
D03*
Y82360D02*
D03*
Y6160D02*
D03*
X285560Y387160D02*
D03*
Y6160D02*
D03*
X247460D02*
D03*
X209360Y387160D02*
D03*
Y6160D02*
D03*
X190310Y425260D02*
D03*
X171260Y6160D02*
D03*
X152210Y425260D02*
D03*
X133160Y387160D02*
D03*
X152210Y349060D02*
D03*
Y196660D02*
D03*
X133160Y6160D02*
D03*
X95060Y387160D02*
D03*
X114110Y196660D02*
D03*
X95060Y82360D02*
D03*
Y6160D02*
D03*
X56960Y463360D02*
D03*
X76010Y425260D02*
D03*
X56960Y82360D02*
D03*
Y6160D02*
D03*
X18860Y463360D02*
D03*
X37910Y425260D02*
D03*
Y44260D02*
D03*
X18860Y6160D02*
D03*
X275291Y57890D02*
D03*
X228410Y331280D02*
D03*
X211900D02*
D03*
X64580Y261430D02*
D03*
X79736Y285656D02*
D03*
X363030Y56960D02*
D03*
D61*
X198045Y271312D02*
D03*
M02*
