G04*
G04 #@! TF.GenerationSoftware,Altium Limited,Altium Designer,21.4.1 (30)*
G04*
G04 Layer_Color=65535*
%FSLAX44Y44*%
%MOMM*%
G71*
G04*
G04 #@! TF.SameCoordinates,32E730F9-F919-4429-9A71-2B0F18EA1AEE*
G04*
G04*
G04 #@! TF.FilePolarity,Positive*
G04*
G01*
G75*
%ADD10C,0.4000*%
%ADD11C,0.2500*%
%ADD12C,0.1000*%
%ADD13C,0.2000*%
%ADD14C,0.2540*%
%ADD15C,0.1200*%
%ADD16C,0.3000*%
%ADD17R,6.0960X2.5400*%
%ADD18R,0.9235X4.1328*%
%ADD19R,2.3089X1.9162*%
%ADD20R,6.9035X1.2121*%
%ADD21R,1.2932X6.0030*%
%ADD22R,7.6421X1.2238*%
G36*
X361312Y367787D02*
X361957Y367770D01*
X362423Y367741D01*
X362626Y367709D01*
X362924Y367629D01*
Y358425D01*
X360829Y358497D01*
X358731Y358495D01*
X356789Y358326D01*
X354944Y357979D01*
X353138Y357442D01*
X351312Y356701D01*
X350555Y356341D01*
X348749Y355350D01*
X347123Y354237D01*
X345599Y352946D01*
X345006Y352373D01*
X343440Y350621D01*
X342085Y348715D01*
X340948Y346666D01*
X340035Y344488D01*
X339355Y342194D01*
X339153Y341268D01*
X339032Y340428D01*
X338951Y339398D01*
X338910Y338250D01*
X338909Y337058D01*
X338949Y335892D01*
X339029Y334824D01*
X339148Y333928D01*
X339161Y333860D01*
X339719Y331572D01*
X340513Y329390D01*
X341529Y327328D01*
X342755Y325401D01*
X344178Y323623D01*
X345784Y322008D01*
X347562Y320573D01*
X349497Y319331D01*
X351577Y318297D01*
X353412Y317605D01*
X354444Y317289D01*
X355391Y317049D01*
X356319Y316875D01*
X357291Y316760D01*
X358373Y316693D01*
X359628Y316667D01*
X360179Y316665D01*
X362924Y316668D01*
Y307498D01*
X362626Y307419D01*
X362373Y307389D01*
X361903Y307368D01*
X361265Y307356D01*
X360509Y307353D01*
X359682Y307357D01*
X358832Y307369D01*
X358009Y307388D01*
X357261Y307413D01*
X356636Y307445D01*
X356182Y307481D01*
X356177Y307482D01*
X355047Y307647D01*
X353771Y307893D01*
X352447Y308199D01*
X351171Y308543D01*
X350360Y308795D01*
X347715Y309805D01*
X345207Y311035D01*
X342848Y312472D01*
X340647Y314105D01*
X338613Y315922D01*
X336758Y317910D01*
X335090Y320057D01*
X333619Y322353D01*
X332356Y324784D01*
X331310Y327339D01*
X330492Y330006D01*
X329911Y332773D01*
X329778Y333661D01*
X329694Y334509D01*
X329636Y335549D01*
X329604Y336710D01*
X329598Y337921D01*
X329619Y339112D01*
X329667Y340210D01*
X329740Y341145D01*
X329778Y341466D01*
X330288Y344293D01*
X331042Y347024D01*
X332039Y349653D01*
X333276Y352174D01*
X334751Y354580D01*
X335540Y355688D01*
X337322Y357863D01*
X339282Y359847D01*
X341406Y361631D01*
X343680Y363209D01*
X346090Y364571D01*
X348622Y365710D01*
X351264Y366618D01*
X354001Y367288D01*
X355909Y367602D01*
X356434Y367655D01*
X357122Y367701D01*
X357926Y367738D01*
X358796Y367766D01*
X359682Y367784D01*
X360537Y367791D01*
X361312Y367787D01*
D02*
G37*
G36*
X414253Y358466D02*
X411310Y358463D01*
X410290Y358459D01*
X409484Y358446D01*
X408839Y358421D01*
X408305Y358380D01*
X407830Y358320D01*
X407363Y358237D01*
X407024Y358166D01*
X404725Y357533D01*
X402532Y356670D01*
X400462Y355590D01*
X398532Y354305D01*
X396760Y352826D01*
X395164Y351166D01*
X393762Y349336D01*
X393516Y348965D01*
X392998Y348096D01*
X392469Y347082D01*
X391958Y345991D01*
X391497Y344893D01*
X391114Y343855D01*
X390839Y342946D01*
X390778Y342690D01*
X390684Y342260D01*
X408300D01*
Y332868D01*
X390684D01*
X390778Y332438D01*
X391029Y331524D01*
X391404Y330465D01*
X391872Y329331D01*
X392403Y328191D01*
X392966Y327114D01*
X393529Y326170D01*
X393624Y326027D01*
X395061Y324112D01*
X396673Y322394D01*
X398450Y320878D01*
X400381Y319573D01*
X402457Y318484D01*
X404667Y317618D01*
X407003Y316982D01*
X407060Y316970D01*
X407585Y316864D01*
X408070Y316785D01*
X408566Y316729D01*
X409129Y316693D01*
X409812Y316672D01*
X410669Y316663D01*
X411376Y316662D01*
X414253Y316662D01*
Y307335D01*
X411376Y307352D01*
X410456Y307363D01*
X409559Y307382D01*
X408742Y307409D01*
X408062Y307440D01*
X407577Y307475D01*
X407506Y307482D01*
X405252Y307844D01*
X402934Y308416D01*
X400614Y309177D01*
X398357Y310105D01*
X396225Y311179D01*
X395667Y311499D01*
X394032Y312553D01*
X392372Y313794D01*
X390754Y315166D01*
X389244Y316610D01*
X387905Y318071D01*
X387540Y318514D01*
X385927Y320730D01*
X384514Y323106D01*
X383310Y325619D01*
X382327Y328245D01*
X381574Y330959D01*
X381061Y333738D01*
X381036Y333926D01*
X380966Y334642D01*
X380917Y335550D01*
X380888Y336581D01*
X380879Y337670D01*
X380890Y338751D01*
X380922Y339757D01*
X380973Y340622D01*
X381034Y341202D01*
X381553Y344051D01*
X382306Y346806D01*
X383284Y349452D01*
X384481Y351971D01*
X385891Y354348D01*
X387506Y356567D01*
X387540Y356609D01*
X389343Y358639D01*
X391334Y360503D01*
X393490Y362188D01*
X395785Y363677D01*
X398195Y364955D01*
X400696Y366007D01*
X403263Y366817D01*
X404266Y367062D01*
X405505Y367321D01*
X406657Y367514D01*
X407795Y367650D01*
X408994Y367737D01*
X410327Y367780D01*
X411442Y367790D01*
X414253Y367793D01*
Y358466D01*
D02*
G37*
G36*
X220000Y275425D02*
Y280000D01*
X224575D01*
X220000Y275425D01*
D02*
G37*
G36*
X309620Y124784D02*
X300153D01*
Y125716D01*
X300517Y127545D01*
X301230Y129268D01*
X302267Y130819D01*
X303585Y132137D01*
X305135Y133173D01*
X306858Y133887D01*
X308687Y134251D01*
X309620D01*
Y124784D01*
D02*
G37*
G36*
X98524Y123141D02*
X98518Y122271D01*
X94001Y117681D01*
X89484Y113091D01*
X89480Y110985D01*
X89477Y108879D01*
X86726D01*
X86655Y108345D01*
X86628Y108101D01*
X86583Y107642D01*
X86522Y106996D01*
X86447Y106189D01*
X86361Y105249D01*
X86267Y104204D01*
X86166Y103080D01*
X86061Y101905D01*
X85954Y100707D01*
X85849Y99512D01*
X85747Y98348D01*
X85651Y97243D01*
X85563Y96224D01*
X85486Y95318D01*
X85421Y94553D01*
X85373Y93956D01*
X85342Y93554D01*
X85331Y93374D01*
X85331Y93374D01*
X85408Y93230D01*
X85640Y92933D01*
X86029Y92479D01*
X86579Y91865D01*
X87293Y91087D01*
X88174Y90142D01*
X89225Y89027D01*
X90449Y87738D01*
X90793Y87377D01*
X96251Y81656D01*
X95369Y80776D01*
X94655Y81552D01*
X94394Y81833D01*
X93986Y82267D01*
X93458Y82826D01*
X92837Y83482D01*
X92150Y84206D01*
X91424Y84969D01*
X90990Y85425D01*
X90174Y86279D01*
X89515Y86963D01*
X88996Y87490D01*
X88599Y87871D01*
X88308Y88120D01*
X88106Y88248D01*
X87976Y88269D01*
X87902Y88195D01*
X87867Y88038D01*
X87853Y87810D01*
X87851Y87748D01*
X87757Y87319D01*
X87525Y86802D01*
X87201Y86277D01*
X86833Y85826D01*
X86685Y85687D01*
X85928Y85200D01*
X85043Y84927D01*
X84261Y84862D01*
X83375Y84984D01*
X82556Y85342D01*
X81832Y85923D01*
X81698Y86067D01*
X81209Y86623D01*
X72753D01*
Y84862D01*
X70490D01*
Y85685D01*
X70462Y86246D01*
X70366Y86636D01*
X70250Y86848D01*
X70167Y87000D01*
X70096Y87219D01*
X70033Y87540D01*
X69971Y87994D01*
X69908Y88615D01*
X69837Y89433D01*
X69789Y90042D01*
X69568Y92897D01*
X64144Y87402D01*
X63164Y86408D01*
X62222Y85452D01*
X61337Y84552D01*
X60526Y83725D01*
X59805Y82990D01*
X59193Y82363D01*
X58706Y81862D01*
X58361Y81505D01*
X58176Y81310D01*
X57873Y81001D01*
X57619Y80785D01*
X57483Y80713D01*
X57309Y80797D01*
X57055Y81008D01*
X56969Y81093D01*
X56605Y81474D01*
X58612Y83513D01*
X59124Y84033D01*
X59784Y84702D01*
X60564Y85491D01*
X61434Y86370D01*
X62365Y87311D01*
X63328Y88283D01*
X64295Y89259D01*
X64989Y89959D01*
X66043Y91025D01*
X66929Y91927D01*
X67657Y92678D01*
X68240Y93290D01*
X68688Y93775D01*
X68910Y94029D01*
X69012Y94146D01*
X69225Y94414D01*
X69338Y94592D01*
X69363Y94674D01*
X69353Y94854D01*
X69324Y95261D01*
X69278Y95872D01*
X69216Y96663D01*
X69141Y97611D01*
X69054Y98692D01*
X68957Y99884D01*
X68851Y101162D01*
X68766Y102184D01*
X68286Y107943D01*
X68166Y109383D01*
X62161Y115698D01*
X56155Y122014D01*
X56160Y122897D01*
X56164Y123780D01*
X57134Y122743D01*
X57677Y122165D01*
X58318Y121486D01*
X59040Y120724D01*
X59825Y119897D01*
X60656Y119024D01*
X61517Y118121D01*
X62389Y117207D01*
X63255Y116301D01*
X64098Y115421D01*
X64901Y114584D01*
X65646Y113808D01*
X66316Y113112D01*
X66895Y112514D01*
X67363Y112032D01*
X67705Y111683D01*
X67903Y111487D01*
X67946Y111449D01*
X67949Y111580D01*
X67933Y111916D01*
X67900Y112411D01*
X67853Y113020D01*
X67833Y113263D01*
X67684Y115041D01*
X66089D01*
Y116172D01*
X66767D01*
X67163Y116183D01*
X67379Y116236D01*
X67405Y116267D01*
X67483Y116359D01*
X67526Y116494D01*
X67698Y116844D01*
X68029Y117264D01*
X68461Y117696D01*
X68938Y118082D01*
X69252Y118282D01*
X69609Y118502D01*
X69792Y118686D01*
X69856Y118903D01*
X69861Y119033D01*
Y119064D01*
X69861Y119441D01*
X70919D01*
X71406Y119430D01*
X71786Y119398D01*
X71997Y119353D01*
X72020Y119335D01*
X72154Y119307D01*
X72479Y119319D01*
X72941Y119366D01*
X73256Y119410D01*
X73828Y119496D01*
X74351Y119574D01*
X74744Y119632D01*
X74859Y119648D01*
X75161Y119741D01*
X75268Y119887D01*
X75301Y119947D01*
X75418Y119992D01*
X75647Y120025D01*
X76017Y120048D01*
X76557Y120062D01*
X77293Y120069D01*
X78160Y120070D01*
X79085Y120069D01*
X79789Y120065D01*
X80302Y120054D01*
X80653Y120035D01*
X80874Y120005D01*
X80994Y119961D01*
X81043Y119902D01*
X81052Y119832D01*
X81129Y119612D01*
X81381Y119487D01*
X81840Y119442D01*
X81923Y119441D01*
X82700Y119361D01*
X83582Y119141D01*
X84491Y118809D01*
X85346Y118397D01*
X86067Y117933D01*
X86161Y117859D01*
X86465Y117620D01*
X86646Y117524D01*
X86772Y117555D01*
X86901Y117683D01*
X87283Y117933D01*
X87780Y118029D01*
X88315Y117979D01*
X88812Y117792D01*
X89193Y117474D01*
X89220Y117437D01*
X89505Y116844D01*
X89558Y116231D01*
X89385Y115646D01*
X88992Y115139D01*
X88944Y115097D01*
X88664Y114898D01*
X88381Y114811D01*
X87983Y114804D01*
X87883Y114810D01*
X87493Y114824D01*
X87292Y114792D01*
X87220Y114693D01*
X87212Y114600D01*
X87197Y114333D01*
X87159Y113930D01*
X87132Y113689D01*
X87093Y113306D01*
X87109Y113110D01*
X87204Y113038D01*
X87374Y113029D01*
X87474Y113061D01*
X87636Y113166D01*
X87872Y113355D01*
X88193Y113639D01*
X88611Y114030D01*
X89140Y114539D01*
X89789Y115178D01*
X90573Y115959D01*
X91502Y116892D01*
X92589Y117990D01*
X93112Y118520D01*
X98531Y124012D01*
X98524Y123141D01*
D02*
G37*
G36*
X400590Y82546D02*
X400235Y80762D01*
X399539Y79082D01*
X398528Y77569D01*
X397242Y76283D01*
X395729Y75272D01*
X394049Y74576D01*
X392265Y74221D01*
X391355D01*
Y83456D01*
X400590D01*
Y82546D01*
D02*
G37*
G36*
X309387Y74221D02*
X308478D01*
X306694Y74576D01*
X305013Y75272D01*
X303501Y76283D01*
X302215Y77569D01*
X301204Y79082D01*
X300508Y80762D01*
X300153Y82546D01*
Y83456D01*
X309387D01*
Y74221D01*
D02*
G37*
G36*
X94758Y63612D02*
X59550D01*
Y72288D01*
X94758D01*
Y63612D01*
D02*
G37*
G36*
X81824Y405837D02*
X82245Y405777D01*
X83147Y405656D01*
X84230Y405416D01*
X85374Y405055D01*
X86517Y404513D01*
X87660Y403851D01*
X87720D01*
X87781Y403731D01*
X88142Y403490D01*
X88683Y403009D01*
X89345Y402407D01*
X90067Y401625D01*
X90789Y400662D01*
X91511Y399519D01*
X92113Y398255D01*
Y398195D01*
X92173Y398075D01*
X92233Y397894D01*
X92354Y397653D01*
X92474Y397292D01*
X92594Y396871D01*
X92895Y395908D01*
X93196Y394705D01*
X93437Y393381D01*
X93617Y391877D01*
X93678Y390312D01*
Y390252D01*
Y390132D01*
Y389891D01*
Y389530D01*
X93617Y389109D01*
Y388628D01*
X93497Y387544D01*
X93256Y386221D01*
X92956Y384837D01*
X92534Y383392D01*
X91993Y381948D01*
Y381888D01*
X91933Y381768D01*
X91812Y381587D01*
X91692Y381347D01*
X91271Y380685D01*
X90729Y379842D01*
X90067Y378940D01*
X89225Y378037D01*
X88262Y377135D01*
X87119Y376292D01*
X87059D01*
X86999Y376232D01*
X86818Y376112D01*
X86577Y375991D01*
X85976Y375690D01*
X85133Y375329D01*
X84110Y374968D01*
X83027Y374667D01*
X81763Y374427D01*
X80500Y374367D01*
X80079D01*
X79597Y374427D01*
X78995Y374487D01*
X78273Y374607D01*
X77491Y374788D01*
X76709Y375028D01*
X75927Y375390D01*
X75866Y375450D01*
X75566Y375570D01*
X75205Y375811D01*
X74723Y376172D01*
X74242Y376533D01*
X73640Y377014D01*
X73099Y377556D01*
X72617Y378157D01*
Y363475D01*
X67502D01*
Y405235D01*
X72136D01*
Y401264D01*
X72196Y401384D01*
X72437Y401625D01*
X72737Y402046D01*
X73219Y402527D01*
X73760Y403129D01*
X74362Y403671D01*
X75084Y404212D01*
X75806Y404694D01*
X75927Y404754D01*
X76167Y404874D01*
X76649Y405055D01*
X77250Y405295D01*
X77973Y405536D01*
X78815Y405717D01*
X79778Y405837D01*
X80861Y405897D01*
X81523D01*
X81824Y405837D01*
D02*
G37*
G36*
X377815Y68363D02*
X376339D01*
Y69728D01*
X377815D01*
Y68363D01*
D02*
G37*
G36*
X298385Y69862D02*
X298507Y69851D01*
X298651Y69840D01*
X298806Y69828D01*
X298973Y69795D01*
X299328Y69728D01*
X299694Y69618D01*
X299883Y69551D01*
X300061Y69473D01*
X300227Y69384D01*
X300383Y69273D01*
X300394Y69262D01*
X300416Y69251D01*
X300460Y69207D01*
X300516Y69162D01*
X300583Y69107D01*
X300649Y69029D01*
X300727Y68940D01*
X300816Y68840D01*
X300904Y68730D01*
X300993Y68607D01*
X301082Y68474D01*
X301160Y68319D01*
X301248Y68163D01*
X301315Y67997D01*
X301382Y67808D01*
X301426Y67620D01*
X299883Y67331D01*
Y67342D01*
X299872Y67353D01*
X299850Y67420D01*
X299806Y67520D01*
X299739Y67653D01*
X299661Y67797D01*
X299550Y67941D01*
X299417Y68086D01*
X299262Y68219D01*
X299239Y68230D01*
X299184Y68274D01*
X299084Y68330D01*
X298962Y68385D01*
X298795Y68452D01*
X298607Y68496D01*
X298396Y68541D01*
X298152Y68552D01*
X298052D01*
X297985Y68541D01*
X297896Y68530D01*
X297796Y68519D01*
X297686Y68496D01*
X297563Y68474D01*
X297308Y68397D01*
X297175Y68341D01*
X297042Y68274D01*
X296908Y68197D01*
X296775Y68119D01*
X296653Y68008D01*
X296531Y67897D01*
X296520Y67886D01*
X296509Y67864D01*
X296476Y67830D01*
X296442Y67775D01*
X296398Y67708D01*
X296342Y67631D01*
X296287Y67531D01*
X296243Y67420D01*
X296187Y67287D01*
X296131Y67142D01*
X296076Y66987D01*
X296032Y66820D01*
X295998Y66632D01*
X295965Y66421D01*
X295954Y66210D01*
X295943Y65977D01*
Y65966D01*
Y65921D01*
Y65844D01*
X295954Y65755D01*
X295965Y65633D01*
X295976Y65511D01*
X295998Y65355D01*
X296021Y65200D01*
X296087Y64867D01*
X296198Y64523D01*
X296265Y64356D01*
X296342Y64201D01*
X296442Y64045D01*
X296542Y63912D01*
X296553Y63901D01*
X296576Y63879D01*
X296609Y63846D01*
X296653Y63801D01*
X296720Y63757D01*
X296786Y63690D01*
X296875Y63635D01*
X296975Y63568D01*
X297086Y63502D01*
X297197Y63446D01*
X297475Y63335D01*
X297630Y63291D01*
X297785Y63257D01*
X297963Y63235D01*
X298141Y63224D01*
X298229D01*
X298318Y63235D01*
X298451Y63246D01*
X298596Y63268D01*
X298762Y63302D01*
X298940Y63346D01*
X299117Y63413D01*
X299128D01*
X299139Y63424D01*
X299195Y63446D01*
X299295Y63490D01*
X299406Y63546D01*
X299539Y63612D01*
X299683Y63690D01*
X299828Y63779D01*
X299961Y63879D01*
Y64867D01*
X298185D01*
Y66165D01*
X301526D01*
Y63080D01*
X301504Y63057D01*
X301471Y63035D01*
X301437Y63002D01*
X301382Y62958D01*
X301326Y62913D01*
X301171Y62802D01*
X300960Y62680D01*
X300716Y62536D01*
X300438Y62392D01*
X300105Y62258D01*
X300094D01*
X300061Y62247D01*
X300016Y62225D01*
X299950Y62203D01*
X299861Y62181D01*
X299761Y62147D01*
X299650Y62114D01*
X299528Y62081D01*
X299251Y62014D01*
X298929Y61959D01*
X298596Y61914D01*
X298241Y61903D01*
X298118D01*
X298041Y61914D01*
X297930D01*
X297808Y61925D01*
X297674Y61947D01*
X297519Y61970D01*
X297197Y62025D01*
X296842Y62114D01*
X296476Y62236D01*
X296309Y62314D01*
X296131Y62403D01*
X296120Y62414D01*
X296098Y62425D01*
X296043Y62458D01*
X295987Y62502D01*
X295910Y62547D01*
X295832Y62614D01*
X295732Y62691D01*
X295632Y62780D01*
X295410Y62980D01*
X295188Y63235D01*
X294977Y63524D01*
X294788Y63857D01*
Y63868D01*
X294766Y63901D01*
X294744Y63957D01*
X294722Y64023D01*
X294688Y64112D01*
X294644Y64212D01*
X294611Y64334D01*
X294566Y64467D01*
X294522Y64612D01*
X294489Y64778D01*
X294411Y65122D01*
X294367Y65500D01*
X294344Y65910D01*
Y65921D01*
Y65966D01*
Y66032D01*
X294356Y66110D01*
Y66221D01*
X294367Y66343D01*
X294389Y66476D01*
X294411Y66632D01*
X294466Y66954D01*
X294555Y67320D01*
X294677Y67686D01*
X294755Y67864D01*
X294844Y68041D01*
X294855Y68052D01*
X294866Y68086D01*
X294899Y68130D01*
X294933Y68197D01*
X294988Y68274D01*
X295055Y68363D01*
X295133Y68463D01*
X295210Y68574D01*
X295310Y68685D01*
X295421Y68807D01*
X295543Y68929D01*
X295676Y69051D01*
X295821Y69162D01*
X295965Y69285D01*
X296309Y69484D01*
X296320D01*
X296342Y69507D01*
X296387Y69518D01*
X296442Y69551D01*
X296520Y69573D01*
X296598Y69606D01*
X296709Y69640D01*
X296820Y69684D01*
X296942Y69717D01*
X297086Y69751D01*
X297241Y69784D01*
X297397Y69817D01*
X297752Y69862D01*
X298152Y69873D01*
X298285D01*
X298385Y69862D01*
D02*
G37*
G36*
X358812Y67730D02*
X358934Y67708D01*
X359090Y67675D01*
X359256Y67620D01*
X359422Y67553D01*
X359600Y67453D01*
X359134Y66177D01*
X359123Y66188D01*
X359067Y66210D01*
X359001Y66254D01*
X358912Y66299D01*
X358801Y66343D01*
X358690Y66387D01*
X358568Y66410D01*
X358446Y66421D01*
X358401D01*
X358335Y66410D01*
X358268Y66399D01*
X358190Y66376D01*
X358102Y66343D01*
X358013Y66299D01*
X357924Y66243D01*
X357913Y66232D01*
X357891Y66210D01*
X357846Y66165D01*
X357802Y66099D01*
X357747Y66021D01*
X357691Y65910D01*
X357635Y65777D01*
X357591Y65622D01*
Y65599D01*
X357580Y65566D01*
X357569Y65533D01*
Y65477D01*
X357558Y65411D01*
X357547Y65322D01*
X357536Y65222D01*
X357524Y65111D01*
X357513Y64967D01*
X357502Y64822D01*
Y64645D01*
X357491Y64456D01*
X357480Y64245D01*
Y64012D01*
Y63757D01*
Y62047D01*
X356004D01*
Y67620D01*
X357369D01*
Y66831D01*
X357380Y66842D01*
X357425Y66909D01*
X357491Y67009D01*
X357580Y67131D01*
X357669Y67253D01*
X357780Y67375D01*
X357880Y67486D01*
X357991Y67564D01*
X358002Y67575D01*
X358035Y67597D01*
X358102Y67620D01*
X358179Y67653D01*
X358268Y67686D01*
X358379Y67719D01*
X358490Y67730D01*
X358623Y67742D01*
X358712D01*
X358812Y67730D01*
D02*
G37*
G36*
X389248D02*
X389370Y67719D01*
X389503Y67697D01*
X389647Y67664D01*
X389803Y67620D01*
X389958Y67564D01*
X389980Y67553D01*
X390025Y67531D01*
X390102Y67497D01*
X390191Y67442D01*
X390291Y67375D01*
X390391Y67298D01*
X390491Y67209D01*
X390580Y67109D01*
X390591Y67098D01*
X390613Y67064D01*
X390646Y67009D01*
X390691Y66931D01*
X390746Y66842D01*
X390791Y66732D01*
X390835Y66620D01*
X390868Y66487D01*
Y66476D01*
X390879Y66421D01*
X390902Y66343D01*
X390913Y66232D01*
X390935Y66099D01*
X390946Y65921D01*
X390957Y65733D01*
Y65500D01*
Y62047D01*
X389481D01*
Y64878D01*
Y64889D01*
Y64922D01*
Y64967D01*
Y65022D01*
Y65100D01*
Y65178D01*
X389470Y65366D01*
X389459Y65555D01*
X389436Y65755D01*
X389414Y65921D01*
X389403Y65988D01*
X389381Y66043D01*
Y66055D01*
X389359Y66088D01*
X389337Y66132D01*
X389303Y66199D01*
X389203Y66332D01*
X389148Y66399D01*
X389070Y66454D01*
X389059Y66465D01*
X389037Y66476D01*
X388992Y66498D01*
X388926Y66532D01*
X388848Y66565D01*
X388770Y66587D01*
X388671Y66598D01*
X388559Y66609D01*
X388493D01*
X388426Y66598D01*
X388338Y66587D01*
X388227Y66554D01*
X388116Y66521D01*
X387993Y66465D01*
X387871Y66399D01*
X387860Y66387D01*
X387827Y66365D01*
X387771Y66310D01*
X387705Y66254D01*
X387638Y66165D01*
X387572Y66077D01*
X387505Y65955D01*
X387461Y65833D01*
Y65821D01*
X387438Y65766D01*
X387427Y65677D01*
X387405Y65544D01*
X387394Y65466D01*
X387383Y65366D01*
X387372Y65266D01*
Y65144D01*
X387361Y65022D01*
X387350Y64878D01*
Y64722D01*
Y64556D01*
Y62047D01*
X385873D01*
Y67620D01*
X387239D01*
Y66798D01*
X387250Y66809D01*
X387272Y66842D01*
X387316Y66887D01*
X387372Y66942D01*
X387438Y67020D01*
X387527Y67098D01*
X387627Y67187D01*
X387738Y67275D01*
X387860Y67353D01*
X388004Y67442D01*
X388149Y67520D01*
X388315Y67597D01*
X388493Y67653D01*
X388671Y67697D01*
X388870Y67730D01*
X389070Y67742D01*
X389148D01*
X389248Y67730D01*
D02*
G37*
G36*
X363596D02*
X363718Y67719D01*
X363851Y67697D01*
X363996Y67664D01*
X364151Y67620D01*
X364306Y67564D01*
X364329Y67553D01*
X364373Y67531D01*
X364451Y67497D01*
X364540Y67442D01*
X364640Y67375D01*
X364739Y67298D01*
X364839Y67209D01*
X364928Y67109D01*
X364939Y67098D01*
X364961Y67064D01*
X364995Y67009D01*
X365039Y66931D01*
X365094Y66842D01*
X365139Y66732D01*
X365183Y66620D01*
X365217Y66487D01*
Y66476D01*
X365228Y66421D01*
X365250Y66343D01*
X365261Y66232D01*
X365283Y66099D01*
X365294Y65921D01*
X365305Y65733D01*
Y65500D01*
Y62047D01*
X363829D01*
Y64878D01*
Y64889D01*
Y64922D01*
Y64967D01*
Y65022D01*
Y65100D01*
Y65178D01*
X363818Y65366D01*
X363807Y65555D01*
X363785Y65755D01*
X363763Y65921D01*
X363751Y65988D01*
X363729Y66043D01*
Y66055D01*
X363707Y66088D01*
X363685Y66132D01*
X363652Y66199D01*
X363552Y66332D01*
X363496Y66399D01*
X363419Y66454D01*
X363407Y66465D01*
X363385Y66476D01*
X363341Y66498D01*
X363274Y66532D01*
X363196Y66565D01*
X363119Y66587D01*
X363019Y66598D01*
X362908Y66609D01*
X362841D01*
X362775Y66598D01*
X362686Y66587D01*
X362575Y66554D01*
X362464Y66521D01*
X362342Y66465D01*
X362220Y66399D01*
X362209Y66387D01*
X362175Y66365D01*
X362120Y66310D01*
X362053Y66254D01*
X361987Y66165D01*
X361920Y66077D01*
X361853Y65955D01*
X361809Y65833D01*
Y65821D01*
X361787Y65766D01*
X361776Y65677D01*
X361754Y65544D01*
X361742Y65466D01*
X361731Y65366D01*
X361720Y65266D01*
Y65144D01*
X361709Y65022D01*
X361698Y64878D01*
Y64722D01*
Y64556D01*
Y62047D01*
X360222D01*
Y67620D01*
X361587D01*
Y66798D01*
X361598Y66809D01*
X361620Y66842D01*
X361665Y66887D01*
X361720Y66942D01*
X361787Y67020D01*
X361876Y67098D01*
X361976Y67187D01*
X362086Y67275D01*
X362209Y67353D01*
X362353Y67442D01*
X362497Y67520D01*
X362664Y67597D01*
X362841Y67653D01*
X363019Y67697D01*
X363219Y67730D01*
X363419Y67742D01*
X363496D01*
X363596Y67730D01*
D02*
G37*
G36*
X343317D02*
X343439Y67719D01*
X343572Y67697D01*
X343716Y67664D01*
X343872Y67620D01*
X344027Y67564D01*
X344049Y67553D01*
X344094Y67531D01*
X344171Y67497D01*
X344260Y67442D01*
X344360Y67375D01*
X344460Y67298D01*
X344560Y67209D01*
X344649Y67109D01*
X344660Y67098D01*
X344682Y67064D01*
X344715Y67009D01*
X344760Y66931D01*
X344815Y66842D01*
X344860Y66732D01*
X344904Y66620D01*
X344937Y66487D01*
Y66476D01*
X344948Y66421D01*
X344971Y66343D01*
X344982Y66232D01*
X345004Y66099D01*
X345015Y65921D01*
X345026Y65733D01*
Y65500D01*
Y62047D01*
X343550D01*
Y64878D01*
Y64889D01*
Y64922D01*
Y64967D01*
Y65022D01*
Y65100D01*
Y65178D01*
X343539Y65366D01*
X343528Y65555D01*
X343505Y65755D01*
X343483Y65921D01*
X343472Y65988D01*
X343450Y66043D01*
Y66055D01*
X343428Y66088D01*
X343405Y66132D01*
X343372Y66199D01*
X343272Y66332D01*
X343217Y66399D01*
X343139Y66454D01*
X343128Y66465D01*
X343106Y66476D01*
X343061Y66498D01*
X342995Y66532D01*
X342917Y66565D01*
X342839Y66587D01*
X342739Y66598D01*
X342629Y66609D01*
X342562D01*
X342495Y66598D01*
X342407Y66587D01*
X342296Y66554D01*
X342185Y66521D01*
X342062Y66465D01*
X341940Y66399D01*
X341929Y66387D01*
X341896Y66365D01*
X341841Y66310D01*
X341774Y66254D01*
X341707Y66165D01*
X341641Y66077D01*
X341574Y65955D01*
X341530Y65833D01*
Y65821D01*
X341507Y65766D01*
X341496Y65677D01*
X341474Y65544D01*
X341463Y65466D01*
X341452Y65366D01*
X341441Y65266D01*
Y65144D01*
X341430Y65022D01*
X341419Y64878D01*
Y64722D01*
Y64556D01*
Y62047D01*
X339942D01*
Y67620D01*
X341308D01*
Y66798D01*
X341319Y66809D01*
X341341Y66842D01*
X341385Y66887D01*
X341441Y66942D01*
X341507Y67020D01*
X341596Y67098D01*
X341696Y67187D01*
X341807Y67275D01*
X341929Y67353D01*
X342074Y67442D01*
X342218Y67520D01*
X342384Y67597D01*
X342562Y67653D01*
X342739Y67697D01*
X342939Y67730D01*
X343139Y67742D01*
X343217D01*
X343317Y67730D01*
D02*
G37*
G36*
X312282D02*
X312404Y67719D01*
X312537Y67697D01*
X312681Y67664D01*
X312837Y67620D01*
X312992Y67564D01*
X313014Y67553D01*
X313059Y67531D01*
X313136Y67497D01*
X313225Y67442D01*
X313325Y67375D01*
X313425Y67298D01*
X313525Y67209D01*
X313614Y67109D01*
X313625Y67098D01*
X313647Y67064D01*
X313680Y67009D01*
X313725Y66931D01*
X313780Y66842D01*
X313825Y66732D01*
X313869Y66620D01*
X313902Y66487D01*
Y66476D01*
X313913Y66421D01*
X313936Y66343D01*
X313947Y66232D01*
X313969Y66099D01*
X313980Y65921D01*
X313991Y65733D01*
Y65500D01*
Y62047D01*
X312515D01*
Y64878D01*
Y64889D01*
Y64922D01*
Y64967D01*
Y65022D01*
Y65100D01*
Y65178D01*
X312504Y65366D01*
X312493Y65555D01*
X312470Y65755D01*
X312448Y65921D01*
X312437Y65988D01*
X312415Y66043D01*
Y66055D01*
X312393Y66088D01*
X312370Y66132D01*
X312337Y66199D01*
X312237Y66332D01*
X312182Y66399D01*
X312104Y66454D01*
X312093Y66465D01*
X312071Y66476D01*
X312026Y66498D01*
X311960Y66532D01*
X311882Y66565D01*
X311804Y66587D01*
X311705Y66598D01*
X311593Y66609D01*
X311527D01*
X311460Y66598D01*
X311371Y66587D01*
X311261Y66554D01*
X311150Y66521D01*
X311027Y66465D01*
X310905Y66399D01*
X310894Y66387D01*
X310861Y66365D01*
X310805Y66310D01*
X310739Y66254D01*
X310672Y66165D01*
X310606Y66077D01*
X310539Y65955D01*
X310495Y65833D01*
Y65821D01*
X310472Y65766D01*
X310461Y65677D01*
X310439Y65544D01*
X310428Y65466D01*
X310417Y65366D01*
X310406Y65266D01*
Y65144D01*
X310395Y65022D01*
X310384Y64878D01*
Y64722D01*
Y64556D01*
Y62047D01*
X308907D01*
Y67620D01*
X310273D01*
Y66798D01*
X310284Y66809D01*
X310306Y66842D01*
X310350Y66887D01*
X310406Y66942D01*
X310472Y67020D01*
X310561Y67098D01*
X310661Y67187D01*
X310772Y67275D01*
X310894Y67353D01*
X311038Y67442D01*
X311183Y67520D01*
X311349Y67597D01*
X311527Y67653D01*
X311705Y67697D01*
X311904Y67730D01*
X312104Y67742D01*
X312182D01*
X312282Y67730D01*
D02*
G37*
G36*
X330319D02*
X330430Y67719D01*
X330552Y67708D01*
X330685Y67697D01*
X330963Y67653D01*
X331240Y67586D01*
X331507Y67486D01*
X331629Y67431D01*
X331740Y67364D01*
X331751D01*
X331762Y67342D01*
X331828Y67298D01*
X331928Y67209D01*
X332039Y67087D01*
X332173Y66942D01*
X332295Y66754D01*
X332417Y66532D01*
X332505Y66276D01*
X331118Y66021D01*
Y66032D01*
X331096Y66077D01*
X331074Y66132D01*
X331040Y66199D01*
X330996Y66287D01*
X330929Y66365D01*
X330863Y66443D01*
X330774Y66509D01*
X330763Y66521D01*
X330730Y66543D01*
X330674Y66565D01*
X330596Y66598D01*
X330496Y66632D01*
X330374Y66665D01*
X330230Y66676D01*
X330064Y66687D01*
X329964D01*
X329864Y66676D01*
X329742Y66665D01*
X329597Y66643D01*
X329464Y66620D01*
X329342Y66576D01*
X329231Y66521D01*
X329220D01*
X329209Y66498D01*
X329153Y66443D01*
X329087Y66343D01*
X329076Y66287D01*
X329065Y66221D01*
Y66210D01*
Y66199D01*
X329087Y66132D01*
X329131Y66043D01*
X329165Y65999D01*
X329209Y65955D01*
X329220Y65943D01*
X329264Y65932D01*
X329287Y65910D01*
X329331Y65899D01*
X329386Y65877D01*
X329453Y65844D01*
X329542Y65821D01*
X329631Y65788D01*
X329742Y65755D01*
X329875Y65722D01*
X330019Y65677D01*
X330186Y65633D01*
X330374Y65588D01*
X330585Y65533D01*
X330596D01*
X330641Y65522D01*
X330696Y65511D01*
X330774Y65488D01*
X330874Y65455D01*
X330985Y65433D01*
X331229Y65355D01*
X331507Y65255D01*
X331773Y65144D01*
X331906Y65078D01*
X332028Y65022D01*
X332128Y64945D01*
X332228Y64878D01*
X332250Y64856D01*
X332306Y64811D01*
X332372Y64722D01*
X332461Y64600D01*
X332550Y64445D01*
X332617Y64256D01*
X332672Y64034D01*
X332694Y63790D01*
Y63779D01*
Y63757D01*
Y63712D01*
X332683Y63657D01*
X332672Y63601D01*
X332661Y63524D01*
X332617Y63335D01*
X332539Y63135D01*
X332483Y63024D01*
X332428Y62913D01*
X332350Y62802D01*
X332261Y62691D01*
X332161Y62580D01*
X332050Y62469D01*
X332039Y62458D01*
X332017Y62447D01*
X331984Y62425D01*
X331928Y62380D01*
X331862Y62347D01*
X331784Y62303D01*
X331684Y62247D01*
X331573Y62203D01*
X331451Y62147D01*
X331307Y62103D01*
X331151Y62047D01*
X330985Y62014D01*
X330796Y61981D01*
X330596Y61947D01*
X330386Y61936D01*
X330163Y61925D01*
X330052D01*
X329975Y61936D01*
X329875D01*
X329764Y61947D01*
X329642Y61959D01*
X329509Y61981D01*
X329220Y62036D01*
X328920Y62114D01*
X328621Y62225D01*
X328487Y62303D01*
X328354Y62380D01*
X328343Y62392D01*
X328321Y62403D01*
X328288Y62425D01*
X328254Y62469D01*
X328132Y62569D01*
X327999Y62713D01*
X327855Y62891D01*
X327721Y63102D01*
X327599Y63357D01*
X327500Y63635D01*
X328976Y63857D01*
Y63835D01*
X328998Y63790D01*
X329020Y63712D01*
X329053Y63612D01*
X329109Y63502D01*
X329176Y63402D01*
X329253Y63291D01*
X329353Y63202D01*
X329364Y63191D01*
X329409Y63169D01*
X329475Y63135D01*
X329564Y63102D01*
X329675Y63057D01*
X329819Y63024D01*
X329975Y63002D01*
X330163Y62991D01*
X330252D01*
X330363Y63002D01*
X330485Y63013D01*
X330619Y63035D01*
X330763Y63080D01*
X330896Y63124D01*
X331018Y63191D01*
X331029Y63202D01*
X331051Y63224D01*
X331085Y63257D01*
X331118Y63302D01*
X331151Y63357D01*
X331185Y63424D01*
X331207Y63502D01*
X331218Y63590D01*
Y63601D01*
Y63624D01*
X331207Y63690D01*
X331174Y63779D01*
X331107Y63868D01*
X331085Y63890D01*
X331051Y63901D01*
X331007Y63934D01*
X330941Y63957D01*
X330852Y63990D01*
X330752Y64023D01*
X330619Y64057D01*
X330596D01*
X330541Y64079D01*
X330452Y64101D01*
X330330Y64123D01*
X330186Y64156D01*
X330030Y64201D01*
X329853Y64245D01*
X329664Y64301D01*
X329276Y64412D01*
X329087Y64467D01*
X328909Y64534D01*
X328743Y64589D01*
X328587Y64656D01*
X328454Y64722D01*
X328354Y64778D01*
X328343Y64789D01*
X328321Y64800D01*
X328299Y64822D01*
X328254Y64867D01*
X328143Y64967D01*
X328032Y65111D01*
X327910Y65289D01*
X327799Y65500D01*
X327755Y65622D01*
X327733Y65755D01*
X327710Y65888D01*
X327699Y66032D01*
Y66043D01*
Y66066D01*
Y66099D01*
X327710Y66154D01*
X327721Y66210D01*
X327733Y66287D01*
X327766Y66454D01*
X327832Y66643D01*
X327943Y66842D01*
X327999Y66954D01*
X328077Y67053D01*
X328166Y67153D01*
X328265Y67242D01*
X328276Y67253D01*
X328288Y67264D01*
X328321Y67287D01*
X328376Y67320D01*
X328432Y67353D01*
X328510Y67397D01*
X328598Y67442D01*
X328698Y67497D01*
X328820Y67542D01*
X328954Y67586D01*
X329098Y67631D01*
X329253Y67664D01*
X329431Y67697D01*
X329620Y67719D01*
X329819Y67742D01*
X330230D01*
X330319Y67730D01*
D02*
G37*
G36*
X399892Y62047D02*
X398416D01*
Y69728D01*
X399892D01*
Y62047D01*
D02*
G37*
G36*
X394864Y67730D02*
X394953D01*
X395175Y67708D01*
X395408Y67686D01*
X395652Y67642D01*
X395885Y67575D01*
X395985Y67542D01*
X396085Y67497D01*
X396096D01*
X396107Y67486D01*
X396163Y67453D01*
X396252Y67409D01*
X396352Y67342D01*
X396474Y67253D01*
X396585Y67153D01*
X396685Y67031D01*
X396773Y66909D01*
X396785Y66887D01*
X396807Y66842D01*
X396840Y66743D01*
X396851Y66687D01*
X396873Y66609D01*
X396895Y66532D01*
X396907Y66432D01*
X396929Y66321D01*
X396940Y66199D01*
X396951Y66066D01*
X396962Y65921D01*
X396973Y65766D01*
Y65588D01*
X396951Y63868D01*
Y63857D01*
Y63835D01*
Y63801D01*
Y63746D01*
Y63612D01*
X396962Y63457D01*
Y63280D01*
X396984Y63102D01*
X396995Y62924D01*
X397018Y62780D01*
Y62769D01*
X397029Y62724D01*
X397051Y62647D01*
X397073Y62558D01*
X397118Y62447D01*
X397162Y62325D01*
X397217Y62192D01*
X397284Y62047D01*
X395830D01*
Y62059D01*
X395819Y62070D01*
X395808Y62114D01*
X395785Y62158D01*
X395763Y62214D01*
X395741Y62292D01*
X395719Y62380D01*
X395686Y62480D01*
Y62491D01*
X395675Y62502D01*
X395663Y62547D01*
X395641Y62602D01*
X395630Y62647D01*
X395608Y62636D01*
X395564Y62591D01*
X395486Y62525D01*
X395386Y62447D01*
X395264Y62358D01*
X395131Y62258D01*
X394975Y62181D01*
X394820Y62103D01*
X394798Y62092D01*
X394742Y62081D01*
X394653Y62047D01*
X394542Y62014D01*
X394409Y61981D01*
X394254Y61959D01*
X394076Y61936D01*
X393899Y61925D01*
X393821D01*
X393754Y61936D01*
X393688D01*
X393599Y61947D01*
X393410Y61981D01*
X393188Y62036D01*
X392966Y62114D01*
X392744Y62225D01*
X392544Y62380D01*
Y62392D01*
X392522Y62403D01*
X392467Y62469D01*
X392389Y62569D01*
X392300Y62702D01*
X392211Y62869D01*
X392134Y63069D01*
X392078Y63302D01*
X392067Y63424D01*
X392056Y63557D01*
Y63579D01*
Y63635D01*
X392067Y63724D01*
X392089Y63835D01*
X392112Y63968D01*
X392145Y64101D01*
X392200Y64245D01*
X392278Y64390D01*
X392289Y64412D01*
X392322Y64456D01*
X392367Y64523D01*
X392444Y64600D01*
X392522Y64689D01*
X392633Y64789D01*
X392755Y64878D01*
X392900Y64956D01*
X392922Y64967D01*
X392977Y64989D01*
X393066Y65022D01*
X393199Y65078D01*
X393366Y65133D01*
X393565Y65189D01*
X393810Y65244D01*
X394076Y65300D01*
X394087D01*
X394120Y65311D01*
X394176Y65322D01*
X394243Y65333D01*
X394331Y65344D01*
X394431Y65366D01*
X394653Y65422D01*
X394886Y65477D01*
X395131Y65533D01*
X395341Y65599D01*
X395441Y65633D01*
X395519Y65666D01*
Y65810D01*
Y65833D01*
Y65877D01*
X395508Y65955D01*
X395497Y66055D01*
X395464Y66154D01*
X395430Y66254D01*
X395375Y66343D01*
X395297Y66421D01*
X395286Y66432D01*
X395253Y66454D01*
X395197Y66476D01*
X395120Y66521D01*
X395009Y66554D01*
X394875Y66576D01*
X394709Y66598D01*
X394509Y66609D01*
X394442D01*
X394376Y66598D01*
X394287Y66587D01*
X394187Y66565D01*
X394076Y66543D01*
X393976Y66498D01*
X393887Y66443D01*
X393876Y66432D01*
X393854Y66410D01*
X393810Y66376D01*
X393765Y66321D01*
X393699Y66243D01*
X393643Y66143D01*
X393588Y66032D01*
X393532Y65899D01*
X392211Y66143D01*
Y66154D01*
X392223Y66177D01*
X392234Y66221D01*
X392256Y66276D01*
X392278Y66343D01*
X392311Y66421D01*
X392389Y66598D01*
X392500Y66787D01*
X392633Y66987D01*
X392789Y67175D01*
X392977Y67342D01*
X392988D01*
X392999Y67364D01*
X393033Y67375D01*
X393077Y67409D01*
X393144Y67431D01*
X393210Y67464D01*
X393299Y67509D01*
X393388Y67542D01*
X393499Y67575D01*
X393621Y67620D01*
X393754Y67653D01*
X393910Y67675D01*
X394065Y67708D01*
X394243Y67719D01*
X394420Y67742D01*
X394786D01*
X394864Y67730D01*
D02*
G37*
G36*
X377815Y62047D02*
X376339D01*
Y67620D01*
X377815D01*
Y62047D01*
D02*
G37*
G36*
X369213Y67730D02*
X369301D01*
X369523Y67708D01*
X369757Y67686D01*
X370001Y67642D01*
X370234Y67575D01*
X370334Y67542D01*
X370434Y67497D01*
X370445D01*
X370456Y67486D01*
X370511Y67453D01*
X370600Y67409D01*
X370700Y67342D01*
X370822Y67253D01*
X370933Y67153D01*
X371033Y67031D01*
X371122Y66909D01*
X371133Y66887D01*
X371155Y66842D01*
X371188Y66743D01*
X371199Y66687D01*
X371222Y66609D01*
X371244Y66532D01*
X371255Y66432D01*
X371277Y66321D01*
X371288Y66199D01*
X371299Y66066D01*
X371310Y65921D01*
X371321Y65766D01*
Y65588D01*
X371299Y63868D01*
Y63857D01*
Y63835D01*
Y63801D01*
Y63746D01*
Y63612D01*
X371310Y63457D01*
Y63280D01*
X371333Y63102D01*
X371344Y62924D01*
X371366Y62780D01*
Y62769D01*
X371377Y62724D01*
X371399Y62647D01*
X371421Y62558D01*
X371466Y62447D01*
X371510Y62325D01*
X371566Y62192D01*
X371632Y62047D01*
X370178D01*
Y62059D01*
X370167Y62070D01*
X370156Y62114D01*
X370134Y62158D01*
X370112Y62214D01*
X370089Y62292D01*
X370067Y62380D01*
X370034Y62480D01*
Y62491D01*
X370023Y62502D01*
X370012Y62547D01*
X369990Y62602D01*
X369978Y62647D01*
X369956Y62636D01*
X369912Y62591D01*
X369834Y62525D01*
X369734Y62447D01*
X369612Y62358D01*
X369479Y62258D01*
X369324Y62181D01*
X369168Y62103D01*
X369146Y62092D01*
X369090Y62081D01*
X369002Y62047D01*
X368891Y62014D01*
X368758Y61981D01*
X368602Y61959D01*
X368424Y61936D01*
X368247Y61925D01*
X368169D01*
X368103Y61936D01*
X368036D01*
X367947Y61947D01*
X367758Y61981D01*
X367537Y62036D01*
X367314Y62114D01*
X367093Y62225D01*
X366893Y62380D01*
Y62392D01*
X366870Y62403D01*
X366815Y62469D01*
X366737Y62569D01*
X366648Y62702D01*
X366560Y62869D01*
X366482Y63069D01*
X366427Y63302D01*
X366415Y63424D01*
X366404Y63557D01*
Y63579D01*
Y63635D01*
X366415Y63724D01*
X366438Y63835D01*
X366460Y63968D01*
X366493Y64101D01*
X366549Y64245D01*
X366626Y64390D01*
X366637Y64412D01*
X366671Y64456D01*
X366715Y64523D01*
X366793Y64600D01*
X366870Y64689D01*
X366982Y64789D01*
X367104Y64878D01*
X367248Y64956D01*
X367270Y64967D01*
X367326Y64989D01*
X367414Y65022D01*
X367548Y65078D01*
X367714Y65133D01*
X367914Y65189D01*
X368158Y65244D01*
X368424Y65300D01*
X368436D01*
X368469Y65311D01*
X368524Y65322D01*
X368591Y65333D01*
X368680Y65344D01*
X368780Y65366D01*
X369002Y65422D01*
X369235Y65477D01*
X369479Y65533D01*
X369690Y65599D01*
X369790Y65633D01*
X369868Y65666D01*
Y65810D01*
Y65833D01*
Y65877D01*
X369856Y65955D01*
X369845Y66055D01*
X369812Y66154D01*
X369779Y66254D01*
X369723Y66343D01*
X369646Y66421D01*
X369634Y66432D01*
X369601Y66454D01*
X369546Y66476D01*
X369468Y66521D01*
X369357Y66554D01*
X369224Y66576D01*
X369057Y66598D01*
X368857Y66609D01*
X368791D01*
X368724Y66598D01*
X368635Y66587D01*
X368535Y66565D01*
X368424Y66543D01*
X368325Y66498D01*
X368236Y66443D01*
X368225Y66432D01*
X368203Y66410D01*
X368158Y66376D01*
X368114Y66321D01*
X368047Y66243D01*
X367992Y66143D01*
X367936Y66032D01*
X367881Y65899D01*
X366560Y66143D01*
Y66154D01*
X366571Y66177D01*
X366582Y66221D01*
X366604Y66276D01*
X366626Y66343D01*
X366660Y66421D01*
X366737Y66598D01*
X366848Y66787D01*
X366982Y66987D01*
X367137Y67175D01*
X367326Y67342D01*
X367337D01*
X367348Y67364D01*
X367381Y67375D01*
X367425Y67409D01*
X367492Y67431D01*
X367559Y67464D01*
X367648Y67509D01*
X367736Y67542D01*
X367847Y67575D01*
X367969Y67620D01*
X368103Y67653D01*
X368258Y67675D01*
X368413Y67708D01*
X368591Y67719D01*
X368769Y67742D01*
X369135D01*
X369213Y67730D01*
D02*
G37*
G36*
X338488Y62047D02*
X336934D01*
Y69728D01*
X338488D01*
Y62047D01*
D02*
G37*
G36*
X305366Y67730D02*
X305455D01*
X305677Y67708D01*
X305910Y67686D01*
X306155Y67642D01*
X306388Y67575D01*
X306488Y67542D01*
X306588Y67497D01*
X306599D01*
X306610Y67486D01*
X306665Y67453D01*
X306754Y67409D01*
X306854Y67342D01*
X306976Y67253D01*
X307087Y67153D01*
X307187Y67031D01*
X307276Y66909D01*
X307287Y66887D01*
X307309Y66842D01*
X307342Y66743D01*
X307353Y66687D01*
X307376Y66609D01*
X307398Y66532D01*
X307409Y66432D01*
X307431Y66321D01*
X307442Y66199D01*
X307453Y66066D01*
X307464Y65921D01*
X307475Y65766D01*
Y65588D01*
X307453Y63868D01*
Y63857D01*
Y63835D01*
Y63801D01*
Y63746D01*
Y63612D01*
X307464Y63457D01*
Y63280D01*
X307487Y63102D01*
X307498Y62924D01*
X307520Y62780D01*
Y62769D01*
X307531Y62724D01*
X307553Y62647D01*
X307575Y62558D01*
X307620Y62447D01*
X307664Y62325D01*
X307720Y62192D01*
X307786Y62047D01*
X306332D01*
Y62059D01*
X306321Y62070D01*
X306310Y62114D01*
X306288Y62158D01*
X306266Y62214D01*
X306243Y62292D01*
X306221Y62380D01*
X306188Y62480D01*
Y62491D01*
X306177Y62502D01*
X306166Y62547D01*
X306143Y62602D01*
X306132Y62647D01*
X306110Y62636D01*
X306066Y62591D01*
X305988Y62525D01*
X305888Y62447D01*
X305766Y62358D01*
X305633Y62258D01*
X305478Y62181D01*
X305322Y62103D01*
X305300Y62092D01*
X305244Y62081D01*
X305156Y62047D01*
X305045Y62014D01*
X304911Y61981D01*
X304756Y61959D01*
X304578Y61936D01*
X304401Y61925D01*
X304323D01*
X304256Y61936D01*
X304190D01*
X304101Y61947D01*
X303912Y61981D01*
X303690Y62036D01*
X303468Y62114D01*
X303246Y62225D01*
X303047Y62380D01*
Y62392D01*
X303025Y62403D01*
X302969Y62469D01*
X302891Y62569D01*
X302803Y62702D01*
X302714Y62869D01*
X302636Y63069D01*
X302581Y63302D01*
X302569Y63424D01*
X302558Y63557D01*
Y63579D01*
Y63635D01*
X302569Y63724D01*
X302592Y63835D01*
X302614Y63968D01*
X302647Y64101D01*
X302703Y64245D01*
X302780Y64390D01*
X302791Y64412D01*
X302825Y64456D01*
X302869Y64523D01*
X302947Y64600D01*
X303025Y64689D01*
X303136Y64789D01*
X303258Y64878D01*
X303402Y64956D01*
X303424Y64967D01*
X303480Y64989D01*
X303568Y65022D01*
X303702Y65078D01*
X303868Y65133D01*
X304068Y65189D01*
X304312Y65244D01*
X304578Y65300D01*
X304590D01*
X304623Y65311D01*
X304678Y65322D01*
X304745Y65333D01*
X304834Y65344D01*
X304934Y65366D01*
X305156Y65422D01*
X305389Y65477D01*
X305633Y65533D01*
X305844Y65599D01*
X305944Y65633D01*
X306021Y65666D01*
Y65810D01*
Y65833D01*
Y65877D01*
X306010Y65955D01*
X305999Y66055D01*
X305966Y66154D01*
X305933Y66254D01*
X305877Y66343D01*
X305799Y66421D01*
X305788Y66432D01*
X305755Y66454D01*
X305700Y66476D01*
X305622Y66521D01*
X305511Y66554D01*
X305378Y66576D01*
X305211Y66598D01*
X305011Y66609D01*
X304945D01*
X304878Y66598D01*
X304789Y66587D01*
X304689Y66565D01*
X304578Y66543D01*
X304478Y66498D01*
X304390Y66443D01*
X304379Y66432D01*
X304356Y66410D01*
X304312Y66376D01*
X304268Y66321D01*
X304201Y66243D01*
X304146Y66143D01*
X304090Y66032D01*
X304035Y65899D01*
X302714Y66143D01*
Y66154D01*
X302725Y66177D01*
X302736Y66221D01*
X302758Y66276D01*
X302780Y66343D01*
X302814Y66421D01*
X302891Y66598D01*
X303002Y66787D01*
X303136Y66987D01*
X303291Y67175D01*
X303480Y67342D01*
X303491D01*
X303502Y67364D01*
X303535Y67375D01*
X303580Y67409D01*
X303646Y67431D01*
X303713Y67464D01*
X303801Y67509D01*
X303890Y67542D01*
X304001Y67575D01*
X304123Y67620D01*
X304256Y67653D01*
X304412Y67675D01*
X304567Y67708D01*
X304745Y67719D01*
X304923Y67742D01*
X305289D01*
X305366Y67730D01*
D02*
G37*
G36*
X403733D02*
X403833Y67719D01*
X403955Y67697D01*
X404088Y67675D01*
X404232Y67642D01*
X404388Y67597D01*
X404543Y67542D01*
X404710Y67475D01*
X404876Y67386D01*
X405032Y67298D01*
X405187Y67187D01*
X405342Y67053D01*
X405476Y66909D01*
X405487Y66898D01*
X405509Y66876D01*
X405542Y66820D01*
X405587Y66754D01*
X405642Y66665D01*
X405698Y66565D01*
X405764Y66432D01*
X405831Y66287D01*
X405897Y66121D01*
X405964Y65932D01*
X406020Y65733D01*
X406075Y65500D01*
X406119Y65255D01*
X406153Y64989D01*
X406175Y64711D01*
Y64401D01*
X402490D01*
Y64390D01*
Y64367D01*
Y64334D01*
X402501Y64290D01*
X402512Y64179D01*
X402534Y64023D01*
X402579Y63868D01*
X402645Y63690D01*
X402723Y63524D01*
X402834Y63379D01*
X402845Y63368D01*
X402901Y63324D01*
X402967Y63268D01*
X403067Y63202D01*
X403189Y63135D01*
X403344Y63080D01*
X403511Y63035D01*
X403689Y63024D01*
X403744D01*
X403811Y63035D01*
X403888Y63046D01*
X403977Y63069D01*
X404077Y63102D01*
X404177Y63146D01*
X404266Y63213D01*
X404277Y63224D01*
X404310Y63246D01*
X404355Y63291D01*
X404399Y63357D01*
X404465Y63446D01*
X404521Y63546D01*
X404576Y63679D01*
X404632Y63823D01*
X406097Y63579D01*
Y63568D01*
X406086Y63546D01*
X406064Y63502D01*
X406042Y63446D01*
X406008Y63379D01*
X405975Y63302D01*
X405875Y63124D01*
X405753Y62924D01*
X405598Y62713D01*
X405409Y62525D01*
X405198Y62347D01*
X405187D01*
X405176Y62325D01*
X405131Y62314D01*
X405087Y62281D01*
X405032Y62247D01*
X404954Y62214D01*
X404876Y62181D01*
X404776Y62136D01*
X404554Y62059D01*
X404299Y61992D01*
X403999Y61947D01*
X403677Y61925D01*
X403611D01*
X403544Y61936D01*
X403444D01*
X403322Y61959D01*
X403178Y61981D01*
X403023Y62003D01*
X402867Y62047D01*
X402690Y62092D01*
X402512Y62158D01*
X402334Y62236D01*
X402157Y62325D01*
X401979Y62436D01*
X401813Y62558D01*
X401668Y62702D01*
X401524Y62869D01*
X401513Y62880D01*
X401502Y62902D01*
X401480Y62947D01*
X401435Y63002D01*
X401402Y63080D01*
X401358Y63169D01*
X401302Y63268D01*
X401258Y63390D01*
X401202Y63524D01*
X401158Y63668D01*
X401102Y63823D01*
X401069Y64001D01*
X401036Y64179D01*
X401002Y64367D01*
X400991Y64578D01*
X400980Y64789D01*
Y64800D01*
Y64845D01*
Y64922D01*
X400991Y65022D01*
X401002Y65133D01*
X401013Y65266D01*
X401036Y65411D01*
X401069Y65577D01*
X401158Y65921D01*
X401213Y66099D01*
X401280Y66287D01*
X401369Y66465D01*
X401469Y66632D01*
X401580Y66798D01*
X401702Y66954D01*
X401713Y66965D01*
X401735Y66987D01*
X401779Y67031D01*
X401835Y67076D01*
X401902Y67131D01*
X401990Y67198D01*
X402090Y67275D01*
X402201Y67353D01*
X402323Y67420D01*
X402468Y67497D01*
X402612Y67564D01*
X402778Y67620D01*
X402945Y67664D01*
X403134Y67708D01*
X403322Y67730D01*
X403522Y67742D01*
X403644D01*
X403733Y67730D01*
D02*
G37*
G36*
X382066D02*
X382177Y67719D01*
X382299Y67697D01*
X382444Y67675D01*
X382588Y67642D01*
X382754Y67597D01*
X382921Y67542D01*
X383087Y67475D01*
X383265Y67397D01*
X383442Y67298D01*
X383609Y67187D01*
X383775Y67064D01*
X383931Y66920D01*
X383942Y66909D01*
X383964Y66887D01*
X384009Y66831D01*
X384053Y66776D01*
X384120Y66687D01*
X384186Y66598D01*
X384264Y66476D01*
X384342Y66354D01*
X384408Y66210D01*
X384486Y66055D01*
X384552Y65877D01*
X384619Y65699D01*
X384664Y65500D01*
X384708Y65300D01*
X384730Y65078D01*
X384741Y64845D01*
Y64833D01*
Y64789D01*
Y64722D01*
X384730Y64634D01*
X384719Y64523D01*
X384697Y64401D01*
X384675Y64256D01*
X384641Y64112D01*
X384597Y63945D01*
X384541Y63779D01*
X384475Y63601D01*
X384397Y63424D01*
X384297Y63246D01*
X384186Y63080D01*
X384064Y62913D01*
X383920Y62747D01*
X383909Y62736D01*
X383886Y62713D01*
X383842Y62669D01*
X383775Y62614D01*
X383698Y62558D01*
X383598Y62491D01*
X383487Y62414D01*
X383365Y62336D01*
X383220Y62258D01*
X383065Y62181D01*
X382899Y62114D01*
X382710Y62059D01*
X382521Y62003D01*
X382310Y61959D01*
X382099Y61936D01*
X381866Y61925D01*
X381789D01*
X381733Y61936D01*
X381666D01*
X381589Y61947D01*
X381400Y61970D01*
X381167Y62014D01*
X380923Y62070D01*
X380668Y62158D01*
X380401Y62269D01*
X380390D01*
X380368Y62281D01*
X380335Y62303D01*
X380290Y62336D01*
X380168Y62414D01*
X380013Y62525D01*
X379846Y62669D01*
X379669Y62847D01*
X379502Y63046D01*
X379347Y63280D01*
Y63291D01*
X379336Y63313D01*
X379313Y63346D01*
X379291Y63402D01*
X379269Y63468D01*
X379236Y63546D01*
X379202Y63635D01*
X379169Y63735D01*
X379136Y63846D01*
X379103Y63968D01*
X379047Y64245D01*
X379003Y64567D01*
X378992Y64911D01*
Y64922D01*
Y64945D01*
Y64989D01*
X379003Y65033D01*
Y65100D01*
X379014Y65178D01*
X379036Y65366D01*
X379080Y65577D01*
X379147Y65810D01*
X379225Y66066D01*
X379347Y66321D01*
Y66332D01*
X379369Y66354D01*
X379380Y66387D01*
X379413Y66432D01*
X379502Y66554D01*
X379613Y66709D01*
X379757Y66876D01*
X379935Y67053D01*
X380135Y67220D01*
X380368Y67375D01*
X380379D01*
X380401Y67386D01*
X380434Y67409D01*
X380490Y67431D01*
X380546Y67464D01*
X380623Y67486D01*
X380712Y67520D01*
X380801Y67564D01*
X381023Y67631D01*
X381278Y67686D01*
X381555Y67730D01*
X381855Y67742D01*
X381977D01*
X382066Y67730D01*
D02*
G37*
G36*
X374319Y67620D02*
X375329D01*
Y66443D01*
X374319D01*
Y64190D01*
Y64179D01*
Y64156D01*
Y64123D01*
Y64079D01*
Y63968D01*
Y63835D01*
X374330Y63701D01*
Y63568D01*
Y63468D01*
X374341Y63424D01*
Y63402D01*
X374352Y63379D01*
X374374Y63335D01*
X374407Y63280D01*
X374474Y63213D01*
X374496Y63202D01*
X374540Y63180D01*
X374618Y63157D01*
X374718Y63146D01*
X374762D01*
X374807Y63157D01*
X374874Y63169D01*
X374962Y63180D01*
X375062Y63202D01*
X375184Y63235D01*
X375317Y63280D01*
X375451Y62136D01*
X375440D01*
X375429Y62125D01*
X375362Y62103D01*
X375251Y62070D01*
X375107Y62036D01*
X374940Y61992D01*
X374740Y61959D01*
X374518Y61936D01*
X374285Y61925D01*
X374219D01*
X374141Y61936D01*
X374041Y61947D01*
X373930Y61959D01*
X373808Y61981D01*
X373686Y62014D01*
X373564Y62059D01*
X373553Y62070D01*
X373508Y62081D01*
X373453Y62114D01*
X373386Y62147D01*
X373231Y62258D01*
X373153Y62325D01*
X373086Y62403D01*
X373075Y62414D01*
X373064Y62447D01*
X373042Y62491D01*
X373009Y62558D01*
X372975Y62636D01*
X372942Y62736D01*
X372909Y62847D01*
X372887Y62969D01*
Y62980D01*
X372876Y63024D01*
Y63091D01*
X372864Y63202D01*
X372853Y63346D01*
Y63524D01*
X372842Y63624D01*
Y63746D01*
Y63868D01*
Y64012D01*
Y66443D01*
X372165D01*
Y67620D01*
X372842D01*
Y68730D01*
X374319Y69595D01*
Y67620D01*
D02*
G37*
G36*
X352419Y67730D02*
X352519Y67719D01*
X352641Y67697D01*
X352774Y67675D01*
X352918Y67642D01*
X353074Y67597D01*
X353229Y67542D01*
X353395Y67475D01*
X353562Y67386D01*
X353717Y67298D01*
X353873Y67187D01*
X354028Y67053D01*
X354161Y66909D01*
X354172Y66898D01*
X354194Y66876D01*
X354228Y66820D01*
X354272Y66754D01*
X354328Y66665D01*
X354383Y66565D01*
X354450Y66432D01*
X354516Y66287D01*
X354583Y66121D01*
X354650Y65932D01*
X354705Y65733D01*
X354761Y65500D01*
X354805Y65255D01*
X354838Y64989D01*
X354860Y64711D01*
Y64401D01*
X351175D01*
Y64390D01*
Y64367D01*
Y64334D01*
X351186Y64290D01*
X351198Y64179D01*
X351220Y64023D01*
X351264Y63868D01*
X351331Y63690D01*
X351409Y63524D01*
X351520Y63379D01*
X351531Y63368D01*
X351586Y63324D01*
X351653Y63268D01*
X351753Y63202D01*
X351875Y63135D01*
X352030Y63080D01*
X352197Y63035D01*
X352374Y63024D01*
X352430D01*
X352496Y63035D01*
X352574Y63046D01*
X352663Y63069D01*
X352763Y63102D01*
X352863Y63146D01*
X352951Y63213D01*
X352962Y63224D01*
X352996Y63246D01*
X353040Y63291D01*
X353085Y63357D01*
X353151Y63446D01*
X353207Y63546D01*
X353262Y63679D01*
X353318Y63823D01*
X354783Y63579D01*
Y63568D01*
X354772Y63546D01*
X354749Y63502D01*
X354727Y63446D01*
X354694Y63379D01*
X354661Y63302D01*
X354561Y63124D01*
X354439Y62924D01*
X354283Y62713D01*
X354095Y62525D01*
X353884Y62347D01*
X353873D01*
X353862Y62325D01*
X353817Y62314D01*
X353773Y62281D01*
X353717Y62247D01*
X353640Y62214D01*
X353562Y62181D01*
X353462Y62136D01*
X353240Y62059D01*
X352985Y61992D01*
X352685Y61947D01*
X352363Y61925D01*
X352296D01*
X352230Y61936D01*
X352130D01*
X352008Y61959D01*
X351864Y61981D01*
X351708Y62003D01*
X351553Y62047D01*
X351375Y62092D01*
X351198Y62158D01*
X351020Y62236D01*
X350842Y62325D01*
X350665Y62436D01*
X350498Y62558D01*
X350354Y62702D01*
X350210Y62869D01*
X350199Y62880D01*
X350187Y62902D01*
X350165Y62947D01*
X350121Y63002D01*
X350088Y63080D01*
X350043Y63169D01*
X349988Y63268D01*
X349943Y63390D01*
X349888Y63524D01*
X349843Y63668D01*
X349788Y63823D01*
X349755Y64001D01*
X349721Y64179D01*
X349688Y64367D01*
X349677Y64578D01*
X349666Y64789D01*
Y64800D01*
Y64845D01*
Y64922D01*
X349677Y65022D01*
X349688Y65133D01*
X349699Y65266D01*
X349721Y65411D01*
X349755Y65577D01*
X349843Y65921D01*
X349899Y66099D01*
X349966Y66287D01*
X350054Y66465D01*
X350154Y66632D01*
X350265Y66798D01*
X350387Y66954D01*
X350398Y66965D01*
X350421Y66987D01*
X350465Y67031D01*
X350521Y67076D01*
X350587Y67131D01*
X350676Y67198D01*
X350776Y67275D01*
X350887Y67353D01*
X351009Y67420D01*
X351153Y67497D01*
X351297Y67564D01*
X351464Y67620D01*
X351631Y67664D01*
X351819Y67708D01*
X352008Y67730D01*
X352208Y67742D01*
X352330D01*
X352419Y67730D01*
D02*
G37*
G36*
X348068Y67620D02*
X349077D01*
Y66443D01*
X348068D01*
Y64190D01*
Y64179D01*
Y64156D01*
Y64123D01*
Y64079D01*
Y63968D01*
Y63835D01*
X348079Y63701D01*
Y63568D01*
Y63468D01*
X348090Y63424D01*
Y63402D01*
X348101Y63379D01*
X348123Y63335D01*
X348156Y63280D01*
X348223Y63213D01*
X348245Y63202D01*
X348289Y63180D01*
X348367Y63157D01*
X348467Y63146D01*
X348511D01*
X348556Y63157D01*
X348622Y63169D01*
X348711Y63180D01*
X348811Y63202D01*
X348933Y63235D01*
X349066Y63280D01*
X349200Y62136D01*
X349188D01*
X349177Y62125D01*
X349111Y62103D01*
X349000Y62070D01*
X348856Y62036D01*
X348689Y61992D01*
X348489Y61959D01*
X348267Y61936D01*
X348034Y61925D01*
X347968D01*
X347890Y61936D01*
X347790Y61947D01*
X347679Y61959D01*
X347557Y61981D01*
X347435Y62014D01*
X347313Y62059D01*
X347302Y62070D01*
X347257Y62081D01*
X347202Y62114D01*
X347135Y62147D01*
X346980Y62258D01*
X346902Y62325D01*
X346835Y62403D01*
X346824Y62414D01*
X346813Y62447D01*
X346791Y62491D01*
X346758Y62558D01*
X346724Y62636D01*
X346691Y62736D01*
X346658Y62847D01*
X346636Y62969D01*
Y62980D01*
X346624Y63024D01*
Y63091D01*
X346613Y63202D01*
X346602Y63346D01*
Y63524D01*
X346591Y63624D01*
Y63746D01*
Y63868D01*
Y64012D01*
Y66443D01*
X345914D01*
Y67620D01*
X346591D01*
Y68730D01*
X348068Y69595D01*
Y67620D01*
D02*
G37*
G36*
X324369Y67730D02*
X324469Y67719D01*
X324591Y67697D01*
X324725Y67675D01*
X324869Y67642D01*
X325024Y67597D01*
X325180Y67542D01*
X325346Y67475D01*
X325513Y67386D01*
X325668Y67298D01*
X325824Y67187D01*
X325979Y67053D01*
X326112Y66909D01*
X326123Y66898D01*
X326145Y66876D01*
X326179Y66820D01*
X326223Y66754D01*
X326278Y66665D01*
X326334Y66565D01*
X326401Y66432D01*
X326467Y66287D01*
X326534Y66121D01*
X326600Y65932D01*
X326656Y65733D01*
X326711Y65500D01*
X326756Y65255D01*
X326789Y64989D01*
X326811Y64711D01*
Y64401D01*
X323126D01*
Y64390D01*
Y64367D01*
Y64334D01*
X323137Y64290D01*
X323148Y64179D01*
X323171Y64023D01*
X323215Y63868D01*
X323282Y63690D01*
X323359Y63524D01*
X323470Y63379D01*
X323481Y63368D01*
X323537Y63324D01*
X323604Y63268D01*
X323703Y63202D01*
X323825Y63135D01*
X323981Y63080D01*
X324147Y63035D01*
X324325Y63024D01*
X324380D01*
X324447Y63035D01*
X324525Y63046D01*
X324614Y63069D01*
X324714Y63102D01*
X324813Y63146D01*
X324902Y63213D01*
X324913Y63224D01*
X324947Y63246D01*
X324991Y63291D01*
X325035Y63357D01*
X325102Y63446D01*
X325158Y63546D01*
X325213Y63679D01*
X325269Y63823D01*
X326734Y63579D01*
Y63568D01*
X326722Y63546D01*
X326700Y63502D01*
X326678Y63446D01*
X326645Y63379D01*
X326612Y63302D01*
X326512Y63124D01*
X326390Y62924D01*
X326234Y62713D01*
X326045Y62525D01*
X325835Y62347D01*
X325824D01*
X325812Y62325D01*
X325768Y62314D01*
X325724Y62281D01*
X325668Y62247D01*
X325590Y62214D01*
X325513Y62181D01*
X325413Y62136D01*
X325191Y62059D01*
X324935Y61992D01*
X324636Y61947D01*
X324314Y61925D01*
X324247D01*
X324181Y61936D01*
X324081D01*
X323959Y61959D01*
X323814Y61981D01*
X323659Y62003D01*
X323504Y62047D01*
X323326Y62092D01*
X323148Y62158D01*
X322971Y62236D01*
X322793Y62325D01*
X322616Y62436D01*
X322449Y62558D01*
X322305Y62702D01*
X322160Y62869D01*
X322149Y62880D01*
X322138Y62902D01*
X322116Y62947D01*
X322072Y63002D01*
X322038Y63080D01*
X321994Y63169D01*
X321939Y63268D01*
X321894Y63390D01*
X321839Y63524D01*
X321794Y63668D01*
X321739Y63823D01*
X321705Y64001D01*
X321672Y64179D01*
X321639Y64367D01*
X321628Y64578D01*
X321617Y64789D01*
Y64800D01*
Y64845D01*
Y64922D01*
X321628Y65022D01*
X321639Y65133D01*
X321650Y65266D01*
X321672Y65411D01*
X321705Y65577D01*
X321794Y65921D01*
X321850Y66099D01*
X321916Y66287D01*
X322005Y66465D01*
X322105Y66632D01*
X322216Y66798D01*
X322338Y66954D01*
X322349Y66965D01*
X322371Y66987D01*
X322416Y67031D01*
X322471Y67076D01*
X322538Y67131D01*
X322627Y67198D01*
X322727Y67275D01*
X322838Y67353D01*
X322960Y67420D01*
X323104Y67497D01*
X323248Y67564D01*
X323415Y67620D01*
X323581Y67664D01*
X323770Y67708D01*
X323959Y67730D01*
X324159Y67742D01*
X324281D01*
X324369Y67730D01*
D02*
G37*
G36*
X317598D02*
X317676D01*
X317754Y67708D01*
X317865Y67697D01*
X317976Y67664D01*
X318098Y67631D01*
X318231Y67575D01*
X318364Y67520D01*
X318509Y67442D01*
X318653Y67353D01*
X318797Y67253D01*
X318942Y67120D01*
X319075Y66987D01*
X319208Y66820D01*
Y67620D01*
X320584D01*
Y62614D01*
Y62602D01*
Y62569D01*
Y62525D01*
Y62458D01*
Y62369D01*
X320573Y62281D01*
X320562Y62070D01*
X320540Y61825D01*
X320518Y61581D01*
X320473Y61348D01*
X320451Y61248D01*
X320418Y61148D01*
X320407Y61126D01*
X320385Y61071D01*
X320351Y60982D01*
X320296Y60871D01*
X320229Y60749D01*
X320151Y60616D01*
X320063Y60493D01*
X319952Y60382D01*
X319941Y60371D01*
X319896Y60338D01*
X319830Y60283D01*
X319752Y60227D01*
X319641Y60160D01*
X319508Y60083D01*
X319352Y60016D01*
X319175Y59950D01*
X319153Y59939D01*
X319086Y59927D01*
X318986Y59894D01*
X318842Y59872D01*
X318653Y59839D01*
X318442Y59805D01*
X318198Y59794D01*
X317931Y59783D01*
X317798D01*
X317698Y59794D01*
X317587D01*
X317454Y59805D01*
X317310Y59827D01*
X317155Y59850D01*
X316821Y59905D01*
X316488Y59994D01*
X316333Y60050D01*
X316178Y60116D01*
X316045Y60183D01*
X315922Y60272D01*
X315911Y60283D01*
X315900Y60294D01*
X315834Y60360D01*
X315734Y60460D01*
X315634Y60605D01*
X315523Y60782D01*
X315423Y60993D01*
X315356Y61237D01*
X315345Y61370D01*
X315334Y61504D01*
Y61515D01*
Y61559D01*
Y61614D01*
X315345Y61681D01*
X317032Y61481D01*
Y61470D01*
X317043Y61437D01*
X317055Y61381D01*
X317066Y61326D01*
X317121Y61193D01*
X317166Y61126D01*
X317221Y61082D01*
X317232Y61071D01*
X317265Y61059D01*
X317310Y61026D01*
X317388Y61004D01*
X317476Y60971D01*
X317587Y60937D01*
X317721Y60926D01*
X317876Y60915D01*
X317976D01*
X318076Y60926D01*
X318198Y60937D01*
X318342Y60960D01*
X318486Y60993D01*
X318620Y61037D01*
X318742Y61093D01*
X318753Y61104D01*
X318775Y61115D01*
X318808Y61137D01*
X318853Y61182D01*
X318897Y61237D01*
X318942Y61304D01*
X318986Y61381D01*
X319030Y61470D01*
Y61481D01*
X319042Y61504D01*
X319053Y61548D01*
X319075Y61626D01*
X319086Y61714D01*
X319097Y61825D01*
X319108Y61970D01*
Y62136D01*
Y62947D01*
X319097Y62935D01*
X319075Y62913D01*
X319042Y62869D01*
X318986Y62802D01*
X318930Y62736D01*
X318853Y62658D01*
X318753Y62580D01*
X318653Y62502D01*
X318542Y62414D01*
X318409Y62336D01*
X318131Y62192D01*
X317976Y62136D01*
X317809Y62092D01*
X317632Y62059D01*
X317443Y62047D01*
X317399D01*
X317332Y62059D01*
X317254D01*
X317166Y62081D01*
X317055Y62103D01*
X316933Y62125D01*
X316799Y62169D01*
X316666Y62214D01*
X316522Y62281D01*
X316366Y62358D01*
X316222Y62447D01*
X316078Y62558D01*
X315933Y62680D01*
X315800Y62824D01*
X315667Y62991D01*
Y63002D01*
X315645Y63024D01*
X315623Y63069D01*
X315589Y63124D01*
X315545Y63202D01*
X315501Y63291D01*
X315456Y63390D01*
X315412Y63513D01*
X315367Y63635D01*
X315323Y63779D01*
X315279Y63934D01*
X315234Y64101D01*
X315179Y64456D01*
X315168Y64656D01*
X315156Y64856D01*
Y64867D01*
Y64922D01*
Y64989D01*
X315168Y65089D01*
X315179Y65200D01*
X315190Y65333D01*
X315212Y65488D01*
X315245Y65644D01*
X315323Y65999D01*
X315378Y66177D01*
X315434Y66354D01*
X315512Y66521D01*
X315600Y66698D01*
X315700Y66854D01*
X315823Y66998D01*
X315834Y67009D01*
X315856Y67031D01*
X315889Y67064D01*
X315945Y67120D01*
X316011Y67175D01*
X316089Y67231D01*
X316178Y67298D01*
X316289Y67375D01*
X316400Y67442D01*
X316533Y67509D01*
X316810Y67631D01*
X316977Y67675D01*
X317143Y67708D01*
X317321Y67730D01*
X317499Y67742D01*
X317543D01*
X317598Y67730D01*
D02*
G37*
G36*
X410221Y136816D02*
X410323D01*
X410425Y136807D01*
X410545D01*
X410785Y136779D01*
X411035Y136751D01*
X411266Y136705D01*
X411368Y136677D01*
X411460Y136650D01*
X411469D01*
X411479Y136640D01*
X411534Y136613D01*
X411617Y136566D01*
X411728Y136511D01*
X411848Y136419D01*
X411969Y136317D01*
X412089Y136187D01*
X412200Y136030D01*
Y136021D01*
X412209Y136012D01*
X412228Y135984D01*
X412246Y135956D01*
X412292Y135864D01*
X412348Y135744D01*
X412394Y135596D01*
X412440Y135429D01*
X412477Y135235D01*
X412486Y135032D01*
Y135022D01*
Y135004D01*
Y134958D01*
X412477Y134911D01*
Y134847D01*
X412468Y134782D01*
X412431Y134616D01*
X412385Y134421D01*
X412311Y134227D01*
X412200Y134024D01*
X412135Y133931D01*
X412061Y133839D01*
X412052Y133830D01*
X412043Y133820D01*
X412015Y133793D01*
X411978Y133765D01*
X411941Y133728D01*
X411885Y133682D01*
X411821Y133636D01*
X411747Y133589D01*
X411664Y133534D01*
X411562Y133488D01*
X411460Y133441D01*
X411349Y133395D01*
X411220Y133349D01*
X411090Y133312D01*
X410952Y133275D01*
X410794Y133247D01*
X410804D01*
X410813Y133238D01*
X410868Y133201D01*
X410942Y133155D01*
X411035Y133090D01*
X411146Y133007D01*
X411257Y132924D01*
X411377Y132822D01*
X411479Y132711D01*
X411488Y132702D01*
X411534Y132655D01*
X411590Y132582D01*
X411673Y132471D01*
X411784Y132332D01*
X411839Y132240D01*
X411904Y132147D01*
X411978Y132045D01*
X412052Y131934D01*
X412135Y131805D01*
X412218Y131676D01*
X413004Y130427D01*
X411451D01*
X410526Y131814D01*
X410517Y131823D01*
X410508Y131851D01*
X410480Y131888D01*
X410443Y131934D01*
X410406Y131990D01*
X410360Y132064D01*
X410258Y132212D01*
X410138Y132378D01*
X410027Y132526D01*
X409925Y132665D01*
X409879Y132711D01*
X409842Y132757D01*
X409833Y132767D01*
X409814Y132785D01*
X409777Y132822D01*
X409731Y132868D01*
X409666Y132905D01*
X409602Y132951D01*
X409528Y132988D01*
X409454Y133025D01*
X409445D01*
X409417Y133035D01*
X409371Y133053D01*
X409297Y133062D01*
X409204Y133081D01*
X409093Y133090D01*
X408964Y133099D01*
X408548D01*
Y130427D01*
X407253D01*
Y136825D01*
X410138D01*
X410221Y136816D01*
D02*
G37*
%LPC*%
G36*
X80046Y119064D02*
X76274D01*
Y118436D01*
X80046D01*
Y119064D01*
D02*
G37*
G36*
X75268Y118461D02*
X74419Y118375D01*
X73826Y118302D01*
X73194Y118206D01*
X72816Y118138D01*
X72062Y117986D01*
X72025Y117079D01*
X71988Y116172D01*
X86133D01*
X85655Y116662D01*
X84911Y117267D01*
X83992Y117733D01*
X82880Y118068D01*
X81775Y118252D01*
X81052Y118339D01*
Y117430D01*
X75268D01*
Y118461D01*
D02*
G37*
G36*
X69786Y117178D02*
X69600Y117098D01*
X69328Y116902D01*
X69056Y116661D01*
X68867Y116443D01*
X68851Y116415D01*
X68794Y116267D01*
X68867Y116195D01*
X69120Y116173D01*
X69291Y116172D01*
X69861D01*
Y116675D01*
X69845Y116990D01*
X69803Y117165D01*
X69786Y117178D01*
D02*
G37*
G36*
X88471Y112078D02*
X87654Y111268D01*
X87193Y110776D01*
X86917Y110398D01*
X86836Y110172D01*
X86855Y110017D01*
X86947Y109931D01*
X87170Y109894D01*
X87581Y109885D01*
X87654Y109885D01*
X88471D01*
Y112078D01*
D02*
G37*
G36*
X86032Y115041D02*
X68850D01*
X68911Y114758D01*
X68941Y114534D01*
X68984Y114113D01*
X69035Y113548D01*
X69088Y112894D01*
X69107Y112651D01*
X69161Y111956D01*
X69215Y111310D01*
X69265Y110774D01*
X69304Y110411D01*
X69313Y110345D01*
X69347Y110210D01*
X69419Y110051D01*
X69546Y109851D01*
X69742Y109593D01*
X70023Y109259D01*
X70405Y108830D01*
X70903Y108289D01*
X71531Y107619D01*
X72307Y106801D01*
X73098Y105970D01*
X73884Y105149D01*
X74619Y104388D01*
X75283Y103707D01*
X75858Y103123D01*
X76325Y102655D01*
X76668Y102322D01*
X76866Y102142D01*
X76909Y102116D01*
X77020Y102213D01*
X77280Y102466D01*
X77664Y102849D01*
X78147Y103338D01*
X78702Y103907D01*
X79104Y104321D01*
X81202Y106490D01*
X75017D01*
Y108879D01*
X82561D01*
Y107815D01*
X83944Y109193D01*
X84925Y110172D01*
X85328Y110572D01*
Y111800D01*
X85331Y112366D01*
X85349Y112725D01*
X85389Y112925D01*
X85462Y113011D01*
X85571Y113029D01*
X85693Y113055D01*
X85783Y113161D01*
X85852Y113386D01*
X85911Y113771D01*
X85971Y114355D01*
X85990Y114569D01*
X86032Y115041D01*
D02*
G37*
G36*
X69522Y107943D02*
X69527Y107819D01*
X69552Y107469D01*
X69595Y106918D01*
X69654Y106191D01*
X69726Y105312D01*
X69809Y104306D01*
X69903Y103199D01*
X69992Y102148D01*
X70094Y100955D01*
X70189Y99829D01*
X70274Y98797D01*
X70348Y97885D01*
X70409Y97121D01*
X70454Y96531D01*
X70481Y96143D01*
X70489Y95992D01*
X70501Y95898D01*
X70547Y95860D01*
X70647Y95895D01*
X70818Y96018D01*
X71078Y96244D01*
X71445Y96589D01*
X71937Y97068D01*
X72573Y97698D01*
X73247Y98370D01*
X76004Y101125D01*
X75985Y101146D01*
X74976Y102227D01*
X74452Y102786D01*
X73865Y103411D01*
X73236Y104076D01*
X72590Y104757D01*
X71950Y105430D01*
X71338Y106072D01*
X70778Y106656D01*
X70294Y107160D01*
X69909Y107558D01*
X69645Y107826D01*
X69526Y107941D01*
X69522Y107943D01*
D02*
G37*
G36*
X85416Y108833D02*
X85317Y108762D01*
X85065Y108532D01*
X84682Y108166D01*
X84190Y107686D01*
X83611Y107114D01*
X82968Y106474D01*
X82281Y105786D01*
X81574Y105073D01*
X80868Y104357D01*
X80185Y103662D01*
X79547Y103008D01*
X78976Y102418D01*
X78495Y101915D01*
X78125Y101520D01*
X77888Y101256D01*
X77807Y101146D01*
X77890Y101032D01*
X78123Y100764D01*
X78481Y100367D01*
X78943Y99865D01*
X79484Y99283D01*
X80081Y98645D01*
X80711Y97976D01*
X81351Y97300D01*
X81978Y96643D01*
X82567Y96028D01*
X83096Y95482D01*
X83541Y95027D01*
X83880Y94689D01*
X84088Y94492D01*
X84145Y94452D01*
X84164Y94581D01*
X84202Y94939D01*
X84259Y95502D01*
X84332Y96249D01*
X84419Y97156D01*
X84517Y98202D01*
X84624Y99365D01*
X84739Y100621D01*
X84831Y101634D01*
X84948Y102947D01*
X85057Y104185D01*
X85154Y105323D01*
X85239Y106341D01*
X85310Y107215D01*
X85365Y107923D01*
X85401Y108443D01*
X85417Y108753D01*
X85416Y108833D01*
D02*
G37*
G36*
X76838Y100160D02*
X76723Y100068D01*
X76453Y99818D01*
X76050Y99430D01*
X75535Y98924D01*
X74929Y98321D01*
X74254Y97643D01*
X73702Y97084D01*
X70693Y94029D01*
X70916Y91174D01*
X70983Y90338D01*
X71048Y89573D01*
X71108Y88919D01*
X71157Y88417D01*
X71194Y88107D01*
X71205Y88037D01*
X71272Y87754D01*
X80766D01*
X80830Y88544D01*
X81021Y89477D01*
X81422Y90302D01*
X82006Y90990D01*
X82749Y91509D01*
X83582Y91821D01*
X83853Y91968D01*
X83989Y92282D01*
X83991Y92296D01*
X84008Y92428D01*
X83987Y92564D01*
X83911Y92728D01*
X83760Y92946D01*
X83513Y93242D01*
X83152Y93643D01*
X82656Y94172D01*
X82006Y94856D01*
X81964Y94900D01*
X81265Y95634D01*
X80522Y96416D01*
X79786Y97191D01*
X79108Y97907D01*
X78539Y98510D01*
X78412Y98644D01*
X77925Y99152D01*
X77493Y99586D01*
X77146Y99918D01*
X76916Y100116D01*
X76838Y100160D01*
D02*
G37*
G36*
X80379Y401865D02*
X80079D01*
X79838Y401805D01*
X79236Y401685D01*
X78454Y401504D01*
X77551Y401143D01*
X76589Y400602D01*
X76047Y400241D01*
X75566Y399820D01*
X75084Y399338D01*
X74603Y398797D01*
Y398736D01*
X74483Y398676D01*
X74362Y398496D01*
X74242Y398255D01*
X74061Y397894D01*
X73821Y397533D01*
X73580Y397052D01*
X73399Y396570D01*
X73159Y395969D01*
X72918Y395307D01*
X72737Y394585D01*
X72497Y393802D01*
X72376Y392900D01*
X72256Y391997D01*
X72136Y391034D01*
Y389951D01*
Y389891D01*
Y389711D01*
Y389410D01*
X72196Y388988D01*
Y388507D01*
X72256Y387966D01*
X72437Y386702D01*
X72737Y385258D01*
X73099Y383874D01*
X73700Y382490D01*
X74061Y381888D01*
X74483Y381347D01*
X74603Y381226D01*
X74904Y380925D01*
X75385Y380444D01*
X76047Y379963D01*
X76890Y379481D01*
X77852Y379000D01*
X78935Y378699D01*
X79537Y378639D01*
X80139Y378579D01*
X80500D01*
X80740Y378639D01*
X81342Y378759D01*
X82185Y378940D01*
X83087Y379301D01*
X84050Y379782D01*
X85013Y380504D01*
X85494Y380925D01*
X85976Y381407D01*
Y381467D01*
X86096Y381527D01*
X86216Y381708D01*
X86337Y381948D01*
X86577Y382249D01*
X86758Y382670D01*
X86999Y383092D01*
X87239Y383633D01*
X87420Y384175D01*
X87660Y384897D01*
X87901Y385619D01*
X88082Y386401D01*
X88202Y387304D01*
X88322Y388266D01*
X88443Y389289D01*
Y390373D01*
Y390433D01*
Y390613D01*
Y390914D01*
X88382Y391335D01*
Y391817D01*
X88322Y392358D01*
X88142Y393622D01*
X87841Y395006D01*
X87420Y396390D01*
X86818Y397774D01*
X86457Y398436D01*
X86036Y398977D01*
Y399037D01*
X85915Y399098D01*
X85615Y399459D01*
X85133Y399880D01*
X84471Y400421D01*
X83629Y400963D01*
X82666Y401444D01*
X81583Y401745D01*
X80981Y401805D01*
X80379Y401865D01*
D02*
G37*
G36*
X395519Y64711D02*
X395508D01*
X395464Y64689D01*
X395397Y64678D01*
X395297Y64645D01*
X395175Y64612D01*
X395009Y64567D01*
X394831Y64523D01*
X394609Y64478D01*
X394587D01*
X394553Y64467D01*
X394509Y64456D01*
X394409Y64434D01*
X394276Y64401D01*
X394143Y64367D01*
X394010Y64323D01*
X393899Y64267D01*
X393810Y64223D01*
X393799Y64212D01*
X393765Y64190D01*
X393721Y64145D01*
X393676Y64090D01*
X393621Y64012D01*
X393577Y63923D01*
X393543Y63823D01*
X393532Y63712D01*
Y63701D01*
Y63657D01*
X393543Y63601D01*
X393565Y63535D01*
X393588Y63446D01*
X393621Y63357D01*
X393676Y63268D01*
X393754Y63180D01*
X393765Y63169D01*
X393799Y63146D01*
X393843Y63113D01*
X393921Y63069D01*
X393998Y63024D01*
X394098Y62991D01*
X394220Y62969D01*
X394342Y62958D01*
X394409D01*
X394487Y62969D01*
X394587Y62991D01*
X394709Y63024D01*
X394831Y63069D01*
X394975Y63124D01*
X395108Y63213D01*
X395120Y63224D01*
X395153Y63246D01*
X395197Y63291D01*
X395253Y63346D01*
X395308Y63424D01*
X395364Y63502D01*
X395419Y63601D01*
X395452Y63701D01*
Y63712D01*
X395464Y63735D01*
X395475Y63790D01*
X395486Y63857D01*
X395497Y63957D01*
X395508Y64079D01*
X395519Y64234D01*
Y64412D01*
Y64711D01*
D02*
G37*
G36*
X369868D02*
X369856D01*
X369812Y64689D01*
X369745Y64678D01*
X369646Y64645D01*
X369523Y64612D01*
X369357Y64567D01*
X369179Y64523D01*
X368957Y64478D01*
X368935D01*
X368902Y64467D01*
X368857Y64456D01*
X368758Y64434D01*
X368624Y64401D01*
X368491Y64367D01*
X368358Y64323D01*
X368247Y64267D01*
X368158Y64223D01*
X368147Y64212D01*
X368114Y64190D01*
X368069Y64145D01*
X368025Y64090D01*
X367969Y64012D01*
X367925Y63923D01*
X367892Y63823D01*
X367881Y63712D01*
Y63701D01*
Y63657D01*
X367892Y63601D01*
X367914Y63535D01*
X367936Y63446D01*
X367969Y63357D01*
X368025Y63268D01*
X368103Y63180D01*
X368114Y63169D01*
X368147Y63146D01*
X368191Y63113D01*
X368269Y63069D01*
X368347Y63024D01*
X368447Y62991D01*
X368569Y62969D01*
X368691Y62958D01*
X368758D01*
X368835Y62969D01*
X368935Y62991D01*
X369057Y63024D01*
X369179Y63069D01*
X369324Y63124D01*
X369457Y63213D01*
X369468Y63224D01*
X369501Y63246D01*
X369546Y63291D01*
X369601Y63346D01*
X369657Y63424D01*
X369712Y63502D01*
X369768Y63601D01*
X369801Y63701D01*
Y63712D01*
X369812Y63735D01*
X369823Y63790D01*
X369834Y63857D01*
X369845Y63957D01*
X369856Y64079D01*
X369868Y64234D01*
Y64412D01*
Y64711D01*
D02*
G37*
G36*
X306021D02*
X306010D01*
X305966Y64689D01*
X305899Y64678D01*
X305799Y64645D01*
X305677Y64612D01*
X305511Y64567D01*
X305333Y64523D01*
X305111Y64478D01*
X305089D01*
X305056Y64467D01*
X305011Y64456D01*
X304911Y64434D01*
X304778Y64401D01*
X304645Y64367D01*
X304512Y64323D01*
X304401Y64267D01*
X304312Y64223D01*
X304301Y64212D01*
X304268Y64190D01*
X304223Y64145D01*
X304179Y64090D01*
X304123Y64012D01*
X304079Y63923D01*
X304046Y63823D01*
X304035Y63712D01*
Y63701D01*
Y63657D01*
X304046Y63601D01*
X304068Y63535D01*
X304090Y63446D01*
X304123Y63357D01*
X304179Y63268D01*
X304256Y63180D01*
X304268Y63169D01*
X304301Y63146D01*
X304345Y63113D01*
X304423Y63069D01*
X304501Y63024D01*
X304601Y62991D01*
X304723Y62969D01*
X304845Y62958D01*
X304911D01*
X304989Y62969D01*
X305089Y62991D01*
X305211Y63024D01*
X305333Y63069D01*
X305478Y63124D01*
X305611Y63213D01*
X305622Y63224D01*
X305655Y63246D01*
X305700Y63291D01*
X305755Y63346D01*
X305811Y63424D01*
X305866Y63502D01*
X305921Y63601D01*
X305955Y63701D01*
Y63712D01*
X305966Y63735D01*
X305977Y63790D01*
X305988Y63857D01*
X305999Y63957D01*
X306010Y64079D01*
X306021Y64234D01*
Y64412D01*
Y64711D01*
D02*
G37*
G36*
X403611Y66609D02*
X403533D01*
X403444Y66587D01*
X403333Y66565D01*
X403211Y66521D01*
X403078Y66465D01*
X402945Y66376D01*
X402823Y66254D01*
X402812Y66243D01*
X402778Y66188D01*
X402723Y66110D01*
X402667Y65999D01*
X402601Y65866D01*
X402556Y65699D01*
X402523Y65511D01*
X402512Y65300D01*
X404710D01*
Y65311D01*
Y65333D01*
Y65355D01*
X404699Y65400D01*
X404688Y65522D01*
X404665Y65655D01*
X404621Y65810D01*
X404565Y65977D01*
X404477Y66132D01*
X404377Y66265D01*
X404366Y66276D01*
X404321Y66321D01*
X404255Y66376D01*
X404166Y66443D01*
X404055Y66498D01*
X403922Y66554D01*
X403777Y66598D01*
X403611Y66609D01*
D02*
G37*
G36*
X381866Y66543D02*
X381811D01*
X381766Y66532D01*
X381666Y66521D01*
X381533Y66487D01*
X381378Y66432D01*
X381212Y66354D01*
X381045Y66243D01*
X380890Y66099D01*
X380878Y66077D01*
X380834Y66021D01*
X380768Y65910D01*
X380701Y65777D01*
X380623Y65599D01*
X380568Y65377D01*
X380523Y65122D01*
X380501Y64833D01*
Y64822D01*
Y64800D01*
Y64756D01*
X380512Y64700D01*
Y64623D01*
X380523Y64545D01*
X380546Y64367D01*
X380601Y64156D01*
X380668Y63945D01*
X380756Y63735D01*
X380890Y63557D01*
X380912Y63535D01*
X380956Y63490D01*
X381045Y63424D01*
X381167Y63346D01*
X381300Y63257D01*
X381467Y63191D01*
X381655Y63146D01*
X381866Y63124D01*
X381922D01*
X381966Y63135D01*
X382066Y63146D01*
X382199Y63180D01*
X382355Y63235D01*
X382521Y63302D01*
X382677Y63413D01*
X382832Y63557D01*
X382854Y63579D01*
X382899Y63635D01*
X382954Y63746D01*
X383032Y63879D01*
X383110Y64068D01*
X383165Y64278D01*
X383209Y64545D01*
X383232Y64833D01*
Y64845D01*
Y64867D01*
Y64911D01*
X383220Y64967D01*
Y65033D01*
X383209Y65122D01*
X383187Y65300D01*
X383132Y65500D01*
X383065Y65710D01*
X382965Y65921D01*
X382832Y66099D01*
X382810Y66121D01*
X382765Y66165D01*
X382677Y66243D01*
X382566Y66321D01*
X382421Y66399D01*
X382266Y66476D01*
X382077Y66521D01*
X381866Y66543D01*
D02*
G37*
G36*
X352296Y66609D02*
X352219D01*
X352130Y66587D01*
X352019Y66565D01*
X351897Y66521D01*
X351764Y66465D01*
X351631Y66376D01*
X351508Y66254D01*
X351497Y66243D01*
X351464Y66188D01*
X351409Y66110D01*
X351353Y65999D01*
X351286Y65866D01*
X351242Y65699D01*
X351209Y65511D01*
X351198Y65300D01*
X353395D01*
Y65311D01*
Y65333D01*
Y65355D01*
X353384Y65400D01*
X353373Y65522D01*
X353351Y65655D01*
X353307Y65810D01*
X353251Y65977D01*
X353162Y66132D01*
X353062Y66265D01*
X353051Y66276D01*
X353007Y66321D01*
X352940Y66376D01*
X352851Y66443D01*
X352741Y66498D01*
X352607Y66554D01*
X352463Y66598D01*
X352296Y66609D01*
D02*
G37*
G36*
X324247D02*
X324170D01*
X324081Y66587D01*
X323970Y66565D01*
X323848Y66521D01*
X323714Y66465D01*
X323581Y66376D01*
X323459Y66254D01*
X323448Y66243D01*
X323415Y66188D01*
X323359Y66110D01*
X323304Y65999D01*
X323237Y65866D01*
X323193Y65699D01*
X323159Y65511D01*
X323148Y65300D01*
X325346D01*
Y65311D01*
Y65333D01*
Y65355D01*
X325335Y65400D01*
X325324Y65522D01*
X325302Y65655D01*
X325257Y65810D01*
X325202Y65977D01*
X325113Y66132D01*
X325013Y66265D01*
X325002Y66276D01*
X324958Y66321D01*
X324891Y66376D01*
X324802Y66443D01*
X324691Y66498D01*
X324558Y66554D01*
X324414Y66598D01*
X324247Y66609D01*
D02*
G37*
G36*
X317876D02*
X317854D01*
X317787Y66598D01*
X317687Y66587D01*
X317565Y66554D01*
X317432Y66509D01*
X317277Y66432D01*
X317132Y66332D01*
X316999Y66188D01*
X316988Y66165D01*
X316944Y66110D01*
X316899Y66010D01*
X316833Y65877D01*
X316777Y65699D01*
X316722Y65488D01*
X316677Y65233D01*
X316666Y64933D01*
Y64922D01*
Y64900D01*
Y64845D01*
X316677Y64789D01*
Y64722D01*
X316688Y64634D01*
X316710Y64445D01*
X316744Y64234D01*
X316810Y64023D01*
X316888Y63823D01*
X316999Y63646D01*
X317010Y63624D01*
X317066Y63579D01*
X317132Y63513D01*
X317232Y63446D01*
X317354Y63368D01*
X317499Y63302D01*
X317665Y63257D01*
X317843Y63235D01*
X317865D01*
X317931Y63246D01*
X318031Y63257D01*
X318165Y63291D01*
X318309Y63335D01*
X318453Y63413D01*
X318609Y63513D01*
X318753Y63657D01*
X318764Y63679D01*
X318808Y63735D01*
X318875Y63835D01*
X318942Y63968D01*
X319008Y64145D01*
X319075Y64356D01*
X319119Y64612D01*
X319130Y64900D01*
Y64911D01*
Y64933D01*
Y64978D01*
Y65044D01*
X319119Y65111D01*
X319108Y65200D01*
X319086Y65388D01*
X319042Y65599D01*
X318986Y65810D01*
X318897Y66010D01*
X318775Y66188D01*
X318764Y66210D01*
X318708Y66254D01*
X318631Y66321D01*
X318531Y66399D01*
X318398Y66476D01*
X318242Y66543D01*
X318076Y66587D01*
X317876Y66609D01*
D02*
G37*
G36*
X410027Y135744D02*
X408548D01*
Y134116D01*
X409805D01*
X409990Y134126D01*
X410184Y134135D01*
X410378Y134144D01*
X410462Y134153D01*
X410536Y134163D01*
X410610Y134181D01*
X410656Y134190D01*
X410665D01*
X410693Y134209D01*
X410739Y134227D01*
X410785Y134255D01*
X410905Y134338D01*
X410961Y134394D01*
X411016Y134458D01*
X411026Y134468D01*
X411035Y134495D01*
X411063Y134532D01*
X411090Y134588D01*
X411109Y134662D01*
X411137Y134745D01*
X411146Y134838D01*
X411155Y134939D01*
Y134958D01*
Y134995D01*
X411146Y135050D01*
X411137Y135124D01*
X411109Y135207D01*
X411081Y135290D01*
X411035Y135383D01*
X410979Y135457D01*
X410970Y135466D01*
X410952Y135494D01*
X410905Y135522D01*
X410850Y135568D01*
X410785Y135614D01*
X410702Y135651D01*
X410600Y135688D01*
X410489Y135716D01*
X410480D01*
X410452Y135725D01*
X410397D01*
X410314Y135734D01*
X410110D01*
X410027Y135744D01*
D02*
G37*
%LPD*%
D10*
X204150Y338510D02*
G03*
X204150Y338510I-2000J0D01*
G01*
D11*
X214750Y278500D02*
G03*
X214750Y278500I-1250J0D01*
G01*
D12*
X415450Y133443D02*
G03*
X415450Y133443I-5500J0D01*
G01*
X200470Y166500D02*
Y206500D01*
X95060Y166500D02*
Y206500D01*
X200470D01*
X95060Y166500D02*
X200470D01*
X375000Y124875D02*
Y374875D01*
X125000D02*
X375000D01*
X125000Y124875D02*
X374500D01*
X125000D02*
Y374875D01*
D13*
X351425Y185834D02*
G03*
X351438Y142008I15951J-21908D01*
G01*
X373352Y163927D02*
G03*
X373352Y163927I-22000J0D01*
G01*
X336042Y179728D02*
G03*
X366576Y179813I15224J15273D01*
G01*
X351279Y142010D02*
G03*
X351267Y185836I-15957J21908D01*
G01*
X366589Y148056D02*
G03*
X336055Y147971I-15224J-15273D01*
G01*
X220000Y220000D02*
X280000D01*
X220000Y280000D02*
X280000D01*
Y220000D02*
Y280000D01*
X220000Y220000D02*
Y280000D01*
Y275424D02*
X224576Y280000D01*
X351352Y185922D02*
X351362Y141922D01*
X329352Y163917D02*
X373352Y163927D01*
X59900Y431075D02*
X59949Y433451D01*
X58217Y431174D02*
X59500Y434150D01*
X56484Y430778D02*
X58472Y435879D01*
X54306Y430432D02*
X57506Y438338D01*
X52474Y430531D02*
X56533Y440332D01*
X50692Y430580D02*
X55494Y442511D01*
X48662Y430729D02*
X54405Y444342D01*
X46533Y430679D02*
X53266Y445976D01*
X44603Y430580D02*
X52524Y447907D01*
X42623Y430333D02*
X51583Y449540D01*
X40671Y430512D02*
X50625Y451478D01*
X38644Y430373D02*
X49703Y453137D01*
X36675Y430671D02*
X48776Y454874D01*
X34699Y430301D02*
X47534Y456452D01*
X32847Y430733D02*
X46615Y458948D01*
X44098Y461765D02*
X44964Y459166D01*
X42990Y463360D02*
X43752Y461074D01*
X30597Y430433D02*
X44964Y459166D01*
X28385Y430340D02*
X44098Y461765D01*
X26480Y430340D02*
X42990Y463360D01*
Y465900D02*
X62040Y430340D01*
X25210D02*
X62040D01*
X25210D02*
X42990Y465900D01*
X199293Y71404D02*
X198912Y72166D01*
X198151Y72927D01*
X197389Y73308D01*
X195865D01*
X195103Y72927D01*
X194342Y72166D01*
X193961Y71404D01*
X193580Y70261D01*
Y68357D01*
X193961Y67214D01*
X194342Y66453D01*
X195103Y65691D01*
X195865Y65310D01*
X197389D01*
X198151Y65691D01*
X198912Y66453D01*
X199293Y67214D01*
Y68357D01*
X197389D02*
X199293D01*
X201121Y73308D02*
Y65310D01*
Y73308D02*
X206453Y65310D01*
Y73308D02*
Y65310D01*
X208662Y73308D02*
Y65310D01*
Y73308D02*
X211329D01*
X212471Y72927D01*
X213233Y72166D01*
X213614Y71404D01*
X213995Y70261D01*
Y68357D01*
X213614Y67214D01*
X213233Y66453D01*
X212471Y65691D01*
X211329Y65310D01*
X208662D01*
X225330Y73308D02*
Y65310D01*
Y73308D02*
X228758D01*
X229900Y72927D01*
X230281Y72547D01*
X230662Y71785D01*
Y71023D01*
X230281Y70261D01*
X229900Y69880D01*
X228758Y69500D01*
X225330D01*
X227996D02*
X230662Y65310D01*
X232452Y73308D02*
X237785Y65310D01*
Y73308D02*
X232452Y65310D01*
X253396Y73308D02*
Y65310D01*
X250730Y73308D02*
X256062D01*
X257014D02*
X262347Y65310D01*
Y73308D02*
X257014Y65310D01*
D14*
X177150Y342510D02*
X183150D01*
X196150Y328010D02*
Y332010D01*
X164150Y328010D02*
Y332010D01*
X177150Y317510D02*
X183150D01*
D15*
X268780Y147399D02*
Y151941D01*
X254080Y147399D02*
Y151941D01*
X237570Y147399D02*
Y151940D01*
X252270Y147399D02*
Y151940D01*
X221060Y310259D02*
Y314801D01*
X235760Y310259D02*
Y314801D01*
X309420Y273759D02*
Y278301D01*
X294720Y273759D02*
Y278301D01*
X420449Y202010D02*
X424991D01*
X420449Y216710D02*
X424991D01*
X420449Y218520D02*
X424991D01*
X420449Y233220D02*
X424991D01*
X420449Y185820D02*
X424991D01*
X420449Y200520D02*
X424991D01*
X122650Y76514D02*
Y81056D01*
X137350Y76514D02*
Y81056D01*
X120190Y76514D02*
Y81056D01*
X105490Y76514D02*
Y81056D01*
X268380Y89980D02*
Y103280D01*
X255080D02*
X268380D01*
X242380Y76680D02*
Y103280D01*
X190980Y76680D02*
X242380D01*
X190980Y103280D02*
X242380D01*
X190980Y76680D02*
Y103280D01*
X390970Y156690D02*
X404270D01*
Y169990D01*
X377670Y182690D02*
X404270D01*
X377670D02*
Y284890D01*
X404270Y182690D02*
Y284890D01*
X377670D02*
X404270D01*
X204550Y310292D02*
Y315518D01*
X219250Y310292D02*
Y315518D01*
X174387Y148670D02*
X179613D01*
X174387Y163370D02*
X179613D01*
X174387Y224330D02*
X179613D01*
X174387Y209630D02*
X179613D01*
X180788Y348060D02*
X186013D01*
X180788Y362760D02*
X186013D01*
X420482Y249410D02*
X425708D01*
X420482Y234710D02*
X425708D01*
X176038Y310690D02*
X181263D01*
X176038Y295990D02*
X181263D01*
X418698Y259715D02*
X418317Y260476D01*
X417556Y261238D01*
X416794Y261619D01*
X415270D01*
X414509Y261238D01*
X413747Y260476D01*
X413366Y259715D01*
X412985Y258572D01*
Y256668D01*
X413366Y255525D01*
X413747Y254764D01*
X414509Y254002D01*
X415270Y253621D01*
X416794D01*
X417556Y254002D01*
X418317Y254764D01*
X418698Y255525D01*
X421326Y259715D02*
Y260096D01*
X421707Y260857D01*
X422088Y261238D01*
X422850Y261619D01*
X424373D01*
X425135Y261238D01*
X425516Y260857D01*
X425897Y260096D01*
Y259334D01*
X425516Y258572D01*
X424754Y257430D01*
X420945Y253621D01*
X426278D01*
X428068Y260096D02*
X428829Y260476D01*
X429972Y261619D01*
Y253621D01*
X438884Y258953D02*
X438503Y257810D01*
X437742Y257049D01*
X436599Y256668D01*
X436218D01*
X435076Y257049D01*
X434314Y257810D01*
X433933Y258953D01*
Y259334D01*
X434314Y260476D01*
X435076Y261238D01*
X436218Y261619D01*
X436599D01*
X437742Y261238D01*
X438503Y260476D01*
X438884Y258953D01*
Y257049D01*
X438503Y255144D01*
X437742Y254002D01*
X436599Y253621D01*
X435837D01*
X434695Y254002D01*
X434314Y254764D01*
X171195Y290595D02*
X170814Y291357D01*
X170052Y292118D01*
X169290Y292499D01*
X167767D01*
X167005Y292118D01*
X166243Y291357D01*
X165862Y290595D01*
X165481Y289452D01*
Y287548D01*
X165862Y286405D01*
X166243Y285644D01*
X167005Y284882D01*
X167767Y284501D01*
X169290D01*
X170052Y284882D01*
X170814Y285644D01*
X171195Y286405D01*
X173823Y290595D02*
Y290976D01*
X174203Y291737D01*
X174584Y292118D01*
X175346Y292499D01*
X176870D01*
X177631Y292118D01*
X178012Y291737D01*
X178393Y290976D01*
Y290214D01*
X178012Y289452D01*
X177250Y288310D01*
X173442Y284501D01*
X178774D01*
X180945Y290595D02*
Y290976D01*
X181326Y291737D01*
X181707Y292118D01*
X182468Y292499D01*
X183992D01*
X184754Y292118D01*
X185135Y291737D01*
X185515Y290976D01*
Y290214D01*
X185135Y289452D01*
X184373Y288310D01*
X180564Y284501D01*
X185896D01*
X189972Y292499D02*
X188829Y292118D01*
X188067Y290976D01*
X187686Y289071D01*
Y287929D01*
X188067Y286024D01*
X188829Y284882D01*
X189972Y284501D01*
X190733D01*
X191876Y284882D01*
X192638Y286024D01*
X193018Y287929D01*
Y289071D01*
X192638Y290976D01*
X191876Y292118D01*
X190733Y292499D01*
X189972D01*
X211687Y114299D02*
Y108205D01*
X211306Y107063D01*
X210925Y106682D01*
X210164Y106301D01*
X209402D01*
X208640Y106682D01*
X208259Y107063D01*
X207878Y108205D01*
Y108967D01*
X214125Y112395D02*
Y112776D01*
X214506Y113537D01*
X214886Y113918D01*
X215648Y114299D01*
X217172D01*
X217934Y113918D01*
X218314Y113537D01*
X218695Y112776D01*
Y112014D01*
X218314Y111252D01*
X217553Y110110D01*
X213744Y106301D01*
X219076D01*
X223151Y114299D02*
X222009Y113918D01*
X221247Y112776D01*
X220866Y110871D01*
Y109729D01*
X221247Y107824D01*
X222009Y106682D01*
X223151Y106301D01*
X223913D01*
X225056Y106682D01*
X225818Y107824D01*
X226198Y109729D01*
Y110871D01*
X225818Y112776D01*
X225056Y113918D01*
X223913Y114299D01*
X223151D01*
X231797D02*
X227988Y108967D01*
X233701D01*
X231797Y114299D02*
Y106301D01*
X383328Y297179D02*
Y291085D01*
X382947Y289943D01*
X382566Y289562D01*
X381804Y289181D01*
X381042D01*
X380281Y289562D01*
X379900Y289943D01*
X379519Y291085D01*
Y291847D01*
X385765Y295275D02*
Y295656D01*
X386146Y296417D01*
X386527Y296798D01*
X387289Y297179D01*
X388812D01*
X389574Y296798D01*
X389955Y296417D01*
X390336Y295656D01*
Y294894D01*
X389955Y294132D01*
X389193Y292990D01*
X385384Y289181D01*
X390717D01*
X394792Y297179D02*
X393649Y296798D01*
X392887Y295656D01*
X392507Y293751D01*
Y292609D01*
X392887Y290704D01*
X393649Y289562D01*
X394792Y289181D01*
X395554D01*
X396696Y289562D01*
X397458Y290704D01*
X397839Y292609D01*
Y293751D01*
X397458Y295656D01*
X396696Y296798D01*
X395554Y297179D01*
X394792D01*
X404199D02*
X400391D01*
X400010Y293751D01*
X400391Y294132D01*
X401533Y294513D01*
X402676D01*
X403819Y294132D01*
X404580Y293370D01*
X404961Y292228D01*
Y291466D01*
X404580Y290324D01*
X403819Y289562D01*
X402676Y289181D01*
X401533D01*
X400391Y289562D01*
X400010Y289943D01*
X399629Y290704D01*
X248441Y292367D02*
Y286654D01*
X248822Y285511D01*
X249584Y284749D01*
X250726Y284368D01*
X251488D01*
X252631Y284749D01*
X253392Y285511D01*
X253773Y286654D01*
Y292367D01*
X256363Y290462D02*
Y290843D01*
X256744Y291605D01*
X257125Y291986D01*
X257887Y292367D01*
X259410D01*
X260172Y291986D01*
X260553Y291605D01*
X260934Y290843D01*
Y290082D01*
X260553Y289320D01*
X259791Y288177D01*
X255982Y284368D01*
X261314D01*
X265390Y292367D02*
X264247Y291986D01*
X263485Y290843D01*
X263104Y288939D01*
Y287796D01*
X263485Y285892D01*
X264247Y284749D01*
X265390Y284368D01*
X266152D01*
X267294Y284749D01*
X268056Y285892D01*
X268437Y287796D01*
Y288939D01*
X268056Y290843D01*
X267294Y291986D01*
X266152Y292367D01*
X265390D01*
X272512D02*
X271369Y291986D01*
X270608Y290843D01*
X270227Y288939D01*
Y287796D01*
X270608Y285892D01*
X271369Y284749D01*
X272512Y284368D01*
X273274D01*
X274416Y284749D01*
X275178Y285892D01*
X275559Y287796D01*
Y288939D01*
X275178Y290843D01*
X274416Y291986D01*
X273274Y292367D01*
X272512D01*
X129971Y334009D02*
X135303Y326011D01*
Y334009D02*
X129971Y326011D01*
X137474Y332105D02*
Y332486D01*
X137854Y333247D01*
X138235Y333628D01*
X138997Y334009D01*
X140521D01*
X141282Y333628D01*
X141663Y333247D01*
X142044Y332486D01*
Y331724D01*
X141663Y330962D01*
X140901Y329820D01*
X137093Y326011D01*
X142425D01*
X146500Y334009D02*
X145358Y333628D01*
X144596Y332486D01*
X144215Y330581D01*
Y329439D01*
X144596Y327534D01*
X145358Y326392D01*
X146500Y326011D01*
X147262D01*
X148405Y326392D01*
X149166Y327534D01*
X149547Y329439D01*
Y330581D01*
X149166Y332486D01*
X148405Y333628D01*
X147262Y334009D01*
X146500D01*
X153623D02*
X152480Y333628D01*
X151718Y332486D01*
X151337Y330581D01*
Y329439D01*
X151718Y327534D01*
X152480Y326392D01*
X153623Y326011D01*
X154384D01*
X155527Y326392D01*
X156289Y327534D01*
X156670Y329439D01*
Y330581D01*
X156289Y332486D01*
X155527Y333628D01*
X154384Y334009D01*
X153623D01*
X96124Y219709D02*
X101457Y211711D01*
Y219709D02*
X96124Y211711D01*
X103628Y217805D02*
Y218186D01*
X104008Y218947D01*
X104389Y219328D01*
X105151Y219709D01*
X106674D01*
X107436Y219328D01*
X107817Y218947D01*
X108198Y218186D01*
Y217424D01*
X107817Y216662D01*
X107055Y215520D01*
X103247Y211711D01*
X108579D01*
X112654Y219709D02*
X111512Y219328D01*
X110750Y218186D01*
X110369Y216281D01*
Y215139D01*
X110750Y213234D01*
X111512Y212092D01*
X112654Y211711D01*
X113416D01*
X114558Y212092D01*
X115320Y213234D01*
X115701Y215139D01*
Y216281D01*
X115320Y218186D01*
X114558Y219328D01*
X113416Y219709D01*
X112654D01*
X117491Y218186D02*
X118253Y218566D01*
X119396Y219709D01*
Y211711D01*
X116499Y120007D02*
X108501D01*
X116499D02*
Y116579D01*
X116118Y115437D01*
X115737Y115056D01*
X114976Y114675D01*
X114214D01*
X113452Y115056D01*
X113071Y115437D01*
X112690Y116579D01*
Y120007D01*
Y117341D02*
X108501Y114675D01*
X114595Y112504D02*
X114976D01*
X115737Y112123D01*
X116118Y111742D01*
X116499Y110981D01*
Y109457D01*
X116118Y108695D01*
X115737Y108314D01*
X114976Y107934D01*
X114214D01*
X113452Y108314D01*
X112310Y109076D01*
X108501Y112885D01*
Y107553D01*
X114976Y105763D02*
X115357Y105001D01*
X116499Y103858D01*
X108501D01*
X114976Y99897D02*
X115357Y99135D01*
X116499Y97993D01*
X108501D01*
X133999Y120971D02*
X126001D01*
X133999D02*
Y117543D01*
X133618Y116401D01*
X133237Y116020D01*
X132476Y115639D01*
X131714D01*
X130952Y116020D01*
X130571Y116401D01*
X130190Y117543D01*
Y120971D01*
Y118305D02*
X126001Y115639D01*
X132095Y113468D02*
X132476D01*
X133237Y113087D01*
X133618Y112706D01*
X133999Y111944D01*
Y110421D01*
X133618Y109659D01*
X133237Y109278D01*
X132476Y108897D01*
X131714D01*
X130952Y109278D01*
X129810Y110040D01*
X126001Y113849D01*
Y108517D01*
X132476Y106727D02*
X132857Y105965D01*
X133999Y104822D01*
X126001D01*
X133999Y98576D02*
X133618Y99718D01*
X132476Y100480D01*
X130571Y100861D01*
X129429D01*
X127524Y100480D01*
X126382Y99718D01*
X126001Y98576D01*
Y97814D01*
X126382Y96671D01*
X127524Y95910D01*
X129429Y95529D01*
X130571D01*
X132476Y95910D01*
X133618Y96671D01*
X133999Y97814D01*
Y98576D01*
X410150Y183249D02*
Y175251D01*
Y183249D02*
X413578D01*
X414721Y182868D01*
X415102Y182487D01*
X415483Y181726D01*
Y180964D01*
X415102Y180202D01*
X414721Y179821D01*
X413578Y179440D01*
X410150D01*
X412817D02*
X415483Y175251D01*
X417654Y181345D02*
Y181726D01*
X418035Y182487D01*
X418415Y182868D01*
X419177Y183249D01*
X420701D01*
X421462Y182868D01*
X421843Y182487D01*
X422224Y181726D01*
Y180964D01*
X421843Y180202D01*
X421082Y179060D01*
X417273Y175251D01*
X422605D01*
X426680Y183249D02*
X425538Y182868D01*
X424776Y181726D01*
X424395Y179821D01*
Y178679D01*
X424776Y176774D01*
X425538Y175632D01*
X426680Y175251D01*
X427442D01*
X428585Y175632D01*
X429346Y176774D01*
X429727Y178679D01*
Y179821D01*
X429346Y181726D01*
X428585Y182868D01*
X427442Y183249D01*
X426680D01*
X436850D02*
X433041Y175251D01*
X431517Y183249D02*
X436850D01*
X438666Y222181D02*
X446664D01*
X438666D02*
Y225609D01*
X439047Y226751D01*
X439428Y227132D01*
X440189Y227513D01*
X440951D01*
X441713Y227132D01*
X442094Y226751D01*
X442475Y225609D01*
Y222181D01*
Y224847D02*
X446664Y227513D01*
X440570Y229684D02*
X440189D01*
X439428Y230065D01*
X439047Y230446D01*
X438666Y231208D01*
Y232731D01*
X439047Y233493D01*
X439428Y233874D01*
X440189Y234254D01*
X440951D01*
X441713Y233874D01*
X442855Y233112D01*
X446664Y229303D01*
Y234635D01*
X438666Y238711D02*
X439047Y237568D01*
X440189Y236806D01*
X442094Y236425D01*
X443236D01*
X445141Y236806D01*
X446283Y237568D01*
X446664Y238711D01*
Y239472D01*
X446283Y240615D01*
X445141Y241377D01*
X443236Y241758D01*
X442094D01*
X440189Y241377D01*
X439047Y240615D01*
X438666Y239472D01*
Y238711D01*
X439809Y248118D02*
X439047Y247737D01*
X438666Y246595D01*
Y245833D01*
X439047Y244690D01*
X440189Y243929D01*
X442094Y243548D01*
X443998D01*
X445522Y243929D01*
X446283Y244690D01*
X446664Y245833D01*
Y246214D01*
X446283Y247356D01*
X445522Y248118D01*
X444379Y248499D01*
X443998D01*
X442855Y248118D01*
X442094Y247356D01*
X441713Y246214D01*
Y245833D01*
X442094Y244690D01*
X442855Y243929D01*
X443998Y243548D01*
X439001Y191150D02*
X446999D01*
X439001D02*
Y194578D01*
X439382Y195721D01*
X439763Y196102D01*
X440524Y196483D01*
X441286D01*
X442048Y196102D01*
X442429Y195721D01*
X442810Y194578D01*
Y191150D01*
Y193817D02*
X446999Y196483D01*
X440905Y198654D02*
X440524D01*
X439763Y199035D01*
X439382Y199415D01*
X439001Y200177D01*
Y201701D01*
X439382Y202462D01*
X439763Y202843D01*
X440524Y203224D01*
X441286D01*
X442048Y202843D01*
X443190Y202082D01*
X446999Y198273D01*
Y203605D01*
X439001Y207680D02*
X439382Y206538D01*
X440524Y205776D01*
X442429Y205395D01*
X443571D01*
X445476Y205776D01*
X446618Y206538D01*
X446999Y207680D01*
Y208442D01*
X446618Y209585D01*
X445476Y210346D01*
X443571Y210727D01*
X442429D01*
X440524Y210346D01*
X439382Y209585D01*
X439001Y208442D01*
Y207680D01*
Y217088D02*
Y213279D01*
X442429Y212898D01*
X442048Y213279D01*
X441667Y214422D01*
Y215564D01*
X442048Y216707D01*
X442810Y217469D01*
X443952Y217850D01*
X444714D01*
X445857Y217469D01*
X446618Y216707D01*
X446999Y215564D01*
Y214422D01*
X446618Y213279D01*
X446237Y212898D01*
X445476Y212517D01*
X316440Y250001D02*
Y257999D01*
Y250001D02*
X313012D01*
X311870Y250382D01*
X311489Y250763D01*
X311108Y251524D01*
Y252286D01*
X311489Y253048D01*
X311870Y253429D01*
X313012Y253810D01*
X316440D01*
X313774D02*
X311108Y257999D01*
X308937Y251905D02*
Y251524D01*
X308556Y250763D01*
X308175Y250382D01*
X307413Y250001D01*
X305890D01*
X305128Y250382D01*
X304747Y250763D01*
X304366Y251524D01*
Y252286D01*
X304747Y253048D01*
X305509Y254190D01*
X309318Y257999D01*
X303986D01*
X299910Y250001D02*
X301053Y250382D01*
X301815Y251524D01*
X302195Y253429D01*
Y254571D01*
X301815Y256476D01*
X301053Y257618D01*
X299910Y257999D01*
X299149D01*
X298006Y257618D01*
X297244Y256476D01*
X296863Y254571D01*
Y253429D01*
X297244Y251524D01*
X298006Y250382D01*
X299149Y250001D01*
X299910D01*
X291264D02*
X295073Y255333D01*
X289360D01*
X291264Y250001D02*
Y257999D01*
X225251Y338150D02*
X233249D01*
X225251D02*
Y341578D01*
X225632Y342721D01*
X226013Y343102D01*
X226774Y343483D01*
X227536D01*
X228298Y343102D01*
X228679Y342721D01*
X229060Y341578D01*
Y338150D01*
Y340817D02*
X233249Y343483D01*
X227155Y345654D02*
X226774D01*
X226013Y346035D01*
X225632Y346415D01*
X225251Y347177D01*
Y348701D01*
X225632Y349462D01*
X226013Y349843D01*
X226774Y350224D01*
X227536D01*
X228298Y349843D01*
X229440Y349081D01*
X233249Y345273D01*
Y350605D01*
X225251Y354680D02*
X225632Y353538D01*
X226774Y352776D01*
X228679Y352395D01*
X229821D01*
X231726Y352776D01*
X232868Y353538D01*
X233249Y354680D01*
Y355442D01*
X232868Y356585D01*
X231726Y357346D01*
X229821Y357727D01*
X228679D01*
X226774Y357346D01*
X225632Y356585D01*
X225251Y355442D01*
Y354680D01*
Y360279D02*
Y364469D01*
X228298Y362183D01*
Y363326D01*
X228679Y364088D01*
X229060Y364469D01*
X230202Y364850D01*
X230964D01*
X232106Y364469D01*
X232868Y363707D01*
X233249Y362564D01*
Y361422D01*
X232868Y360279D01*
X232487Y359898D01*
X231726Y359517D01*
X225751Y137364D02*
X233749D01*
X225751D02*
Y140792D01*
X226132Y141935D01*
X226513Y142316D01*
X227274Y142697D01*
X228036D01*
X228798Y142316D01*
X229179Y141935D01*
X229559Y140792D01*
Y137364D01*
Y140030D02*
X233749Y142697D01*
X227655Y144868D02*
X227274D01*
X226513Y145248D01*
X226132Y145629D01*
X225751Y146391D01*
Y147914D01*
X226132Y148676D01*
X226513Y149057D01*
X227274Y149438D01*
X228036D01*
X228798Y149057D01*
X229940Y148295D01*
X233749Y144487D01*
Y149819D01*
X225751Y153894D02*
X226132Y152752D01*
X227274Y151990D01*
X229179Y151609D01*
X230321D01*
X232226Y151990D01*
X233368Y152752D01*
X233749Y153894D01*
Y154656D01*
X233368Y155799D01*
X232226Y156560D01*
X230321Y156941D01*
X229179D01*
X227274Y156560D01*
X226132Y155799D01*
X225751Y154656D01*
Y153894D01*
X227274Y158731D02*
X226893Y159493D01*
X225751Y160636D01*
X233749D01*
X256150Y174999D02*
Y167001D01*
Y174999D02*
X259578D01*
X260721Y174618D01*
X261102Y174237D01*
X261483Y173476D01*
Y172714D01*
X261102Y171952D01*
X260721Y171571D01*
X259578Y171190D01*
X256150D01*
X258817D02*
X261483Y167001D01*
X263654Y173095D02*
Y173476D01*
X264035Y174237D01*
X264415Y174618D01*
X265177Y174999D01*
X266701D01*
X267462Y174618D01*
X267843Y174237D01*
X268224Y173476D01*
Y172714D01*
X267843Y171952D01*
X267082Y170810D01*
X263273Y167001D01*
X268605D01*
X272680Y174999D02*
X271538Y174618D01*
X270776Y173476D01*
X270395Y171571D01*
Y170429D01*
X270776Y168524D01*
X271538Y167382D01*
X272680Y167001D01*
X273442D01*
X274585Y167382D01*
X275346Y168524D01*
X275727Y170429D01*
Y171571D01*
X275346Y173476D01*
X274585Y174618D01*
X273442Y174999D01*
X272680D01*
X279803D02*
X278660Y174618D01*
X277898Y173476D01*
X277517Y171571D01*
Y170429D01*
X277898Y168524D01*
X278660Y167382D01*
X279803Y167001D01*
X280564D01*
X281707Y167382D01*
X282469Y168524D01*
X282850Y170429D01*
Y171571D01*
X282469Y173476D01*
X281707Y174618D01*
X280564Y174999D01*
X279803D01*
X176323Y371345D02*
X175942Y372107D01*
X175180Y372868D01*
X174419Y373249D01*
X172895D01*
X172133Y372868D01*
X171372Y372107D01*
X170991Y371345D01*
X170610Y370202D01*
Y368298D01*
X170991Y367155D01*
X171372Y366394D01*
X172133Y365632D01*
X172895Y365251D01*
X174419D01*
X175180Y365632D01*
X175942Y366394D01*
X176323Y367155D01*
X178951Y371345D02*
Y371726D01*
X179332Y372487D01*
X179713Y372868D01*
X180474Y373249D01*
X181998D01*
X182760Y372868D01*
X183141Y372487D01*
X183521Y371726D01*
Y370964D01*
X183141Y370202D01*
X182379Y369060D01*
X178570Y365251D01*
X183902D01*
X185692Y371726D02*
X186454Y372107D01*
X187597Y373249D01*
Y365251D01*
X193462Y373249D02*
X192320Y372868D01*
X191939Y372107D01*
Y371345D01*
X192320Y370583D01*
X193081Y370202D01*
X194605Y369821D01*
X195747Y369440D01*
X196509Y368679D01*
X196890Y367917D01*
Y366774D01*
X196509Y366013D01*
X196128Y365632D01*
X194986Y365251D01*
X193462D01*
X192320Y365632D01*
X191939Y366013D01*
X191558Y366774D01*
Y367917D01*
X191939Y368679D01*
X192701Y369440D01*
X193843Y369821D01*
X195367Y370202D01*
X196128Y370583D01*
X196509Y371345D01*
Y372107D01*
X196128Y372868D01*
X194986Y373249D01*
X193462D01*
X169240Y233571D02*
X168859Y234333D01*
X168097Y235095D01*
X167335Y235476D01*
X165812D01*
X165050Y235095D01*
X164288Y234333D01*
X163907Y233571D01*
X163526Y232429D01*
Y230524D01*
X163907Y229382D01*
X164288Y228620D01*
X165050Y227858D01*
X165812Y227477D01*
X167335D01*
X168097Y227858D01*
X168859Y228620D01*
X169240Y229382D01*
X171868Y233571D02*
Y233952D01*
X172248Y234714D01*
X172629Y235095D01*
X173391Y235476D01*
X174915D01*
X175676Y235095D01*
X176057Y234714D01*
X176438Y233952D01*
Y233190D01*
X176057Y232429D01*
X175296Y231286D01*
X171487Y227477D01*
X176819D01*
X178609Y233952D02*
X179371Y234333D01*
X180513Y235476D01*
Y227477D01*
X189807Y235476D02*
X185998Y227477D01*
X184475Y235476D02*
X189807D01*
X171313Y144295D02*
X170933Y145057D01*
X170171Y145818D01*
X169409Y146199D01*
X167886D01*
X167124Y145818D01*
X166362Y145057D01*
X165981Y144295D01*
X165600Y143152D01*
Y141248D01*
X165981Y140105D01*
X166362Y139344D01*
X167124Y138582D01*
X167886Y138201D01*
X169409D01*
X170171Y138582D01*
X170933Y139344D01*
X171313Y140105D01*
X173941Y144295D02*
Y144676D01*
X174322Y145437D01*
X174703Y145818D01*
X175465Y146199D01*
X176988D01*
X177750Y145818D01*
X178131Y145437D01*
X178512Y144676D01*
Y143914D01*
X178131Y143152D01*
X177369Y142010D01*
X173561Y138201D01*
X178893D01*
X180683Y144676D02*
X181445Y145057D01*
X182587Y146199D01*
Y138201D01*
X191119Y145057D02*
X190738Y145818D01*
X189595Y146199D01*
X188834D01*
X187691Y145818D01*
X186929Y144676D01*
X186548Y142771D01*
Y140867D01*
X186929Y139344D01*
X187691Y138582D01*
X188834Y138201D01*
X189214D01*
X190357Y138582D01*
X191119Y139344D01*
X191500Y140486D01*
Y140867D01*
X191119Y142010D01*
X190357Y142771D01*
X189214Y143152D01*
X188834D01*
X187691Y142771D01*
X186929Y142010D01*
X186548Y140867D01*
X209905Y343323D02*
X209144Y342942D01*
X208382Y342180D01*
X208001Y341419D01*
Y339895D01*
X208382Y339133D01*
X209144Y338372D01*
X209905Y337991D01*
X211048Y337610D01*
X212952D01*
X214095Y337991D01*
X214856Y338372D01*
X215618Y339133D01*
X215999Y339895D01*
Y341419D01*
X215618Y342180D01*
X214856Y342942D01*
X214095Y343323D01*
X209905Y345951D02*
X209524D01*
X208763Y346332D01*
X208382Y346713D01*
X208001Y347475D01*
Y348998D01*
X208382Y349760D01*
X208763Y350141D01*
X209524Y350522D01*
X210286D01*
X211048Y350141D01*
X212190Y349379D01*
X215999Y345570D01*
Y350902D01*
X209524Y352692D02*
X209144Y353454D01*
X208001Y354597D01*
X215999D01*
X209905Y358939D02*
X209524D01*
X208763Y359320D01*
X208382Y359701D01*
X208001Y360462D01*
Y361986D01*
X208382Y362747D01*
X208763Y363128D01*
X209524Y363509D01*
X210286D01*
X211048Y363128D01*
X212190Y362367D01*
X215999Y358558D01*
Y363890D01*
D16*
X181880Y410237D02*
Y395240D01*
Y410237D02*
X187593Y395240D01*
X193306Y410237D02*
X187593Y395240D01*
X193306Y410237D02*
Y395240D01*
X201162Y405238D02*
X199733Y404524D01*
X198305Y403096D01*
X197591Y400953D01*
Y399525D01*
X198305Y397382D01*
X199733Y395954D01*
X201162Y395240D01*
X203304D01*
X204732Y395954D01*
X206161Y397382D01*
X206875Y399525D01*
Y400953D01*
X206161Y403096D01*
X204732Y404524D01*
X203304Y405238D01*
X201162D01*
X218729Y410237D02*
Y395240D01*
Y403096D02*
X217301Y404524D01*
X215873Y405238D01*
X213730D01*
X212302Y404524D01*
X210874Y403096D01*
X210160Y400953D01*
Y399525D01*
X210874Y397382D01*
X212302Y395954D01*
X213730Y395240D01*
X215873D01*
X217301Y395954D01*
X218729Y397382D01*
X222728Y405238D02*
Y398097D01*
X223442Y395954D01*
X224871Y395240D01*
X227013D01*
X228442Y395954D01*
X230584Y398097D01*
Y405238D02*
Y395240D01*
X234512Y410237D02*
Y395240D01*
X237654Y400953D02*
X246223D01*
Y402381D01*
X245509Y403810D01*
X244795Y404524D01*
X243367Y405238D01*
X241224D01*
X239796Y404524D01*
X238368Y403096D01*
X237654Y400953D01*
Y399525D01*
X238368Y397382D01*
X239796Y395954D01*
X241224Y395240D01*
X243367D01*
X244795Y395954D01*
X246223Y397382D01*
X261220Y410237D02*
X266933Y395240D01*
X272646Y410237D02*
X266933Y395240D01*
X274574Y407380D02*
X276003Y408094D01*
X278145Y410237D01*
Y395240D01*
X286286Y396668D02*
X285572Y395954D01*
X286286Y395240D01*
X287000Y395954D01*
X286286Y396668D01*
X290285Y407380D02*
X291714Y408094D01*
X293856Y410237D01*
Y395240D01*
X146316Y419528D02*
X140603Y434525D01*
X134890Y419528D01*
X137032Y424527D02*
X144174D01*
X154814Y434525D02*
Y419528D01*
X149815Y434525D02*
X159813D01*
X171596Y432383D02*
X170168Y433811D01*
X168026Y434525D01*
X165169D01*
X163027Y433811D01*
X161599Y432383D01*
Y430954D01*
X162313Y429526D01*
X163027Y428812D01*
X164455Y428098D01*
X168740Y426670D01*
X170168Y425956D01*
X170882Y425241D01*
X171596Y423813D01*
Y421671D01*
X170168Y420242D01*
X168026Y419528D01*
X165169D01*
X163027Y420242D01*
X161599Y421671D01*
X186379Y419528D02*
X180666Y434525D01*
X174953Y419528D01*
X177095Y424527D02*
X184237D01*
X189878Y434525D02*
Y419528D01*
Y434525D02*
X195591Y419528D01*
X201304Y434525D02*
X195591Y419528D01*
X201304Y434525D02*
Y419528D01*
X215587Y432383D02*
X214159Y433811D01*
X212016Y434525D01*
X209160D01*
X207017Y433811D01*
X205589Y432383D01*
Y430954D01*
X206303Y429526D01*
X207017Y428812D01*
X208446Y428098D01*
X212731Y426670D01*
X214159Y425956D01*
X214873Y425241D01*
X215587Y423813D01*
Y421671D01*
X214159Y420242D01*
X212016Y419528D01*
X209160D01*
X207017Y420242D01*
X205589Y421671D01*
X228941Y434525D02*
X221800Y419528D01*
X218943Y434525D02*
X228941D01*
X236583D02*
X234440Y433811D01*
X233012Y431669D01*
X232298Y428098D01*
Y425956D01*
X233012Y422385D01*
X234440Y420242D01*
X236583Y419528D01*
X238011D01*
X240153Y420242D01*
X241581Y422385D01*
X242295Y425956D01*
Y428098D01*
X241581Y431669D01*
X240153Y433811D01*
X238011Y434525D01*
X236583D01*
X249937D02*
X248508Y433811D01*
X247080Y432383D01*
X246366Y430954D01*
X245652Y428812D01*
Y425241D01*
X246366Y423099D01*
X247080Y421671D01*
X248508Y420242D01*
X249937Y419528D01*
X252793D01*
X254221Y420242D01*
X255650Y421671D01*
X256364Y423099D01*
X257078Y425241D01*
Y428812D01*
X256364Y430954D01*
X255650Y432383D01*
X254221Y433811D01*
X252793Y434525D01*
X249937D01*
X252079Y422385D02*
X256364Y418100D01*
X261292Y430954D02*
Y431669D01*
X262006Y433097D01*
X262720Y433811D01*
X264148Y434525D01*
X267005D01*
X268433Y433811D01*
X269147Y433097D01*
X269861Y431669D01*
Y430240D01*
X269147Y428812D01*
X267719Y426670D01*
X260577Y419528D01*
X270575D01*
X278216Y434525D02*
X276074Y433811D01*
X274646Y431669D01*
X273932Y428098D01*
Y425956D01*
X274646Y422385D01*
X276074Y420242D01*
X278216Y419528D01*
X279645D01*
X281787Y420242D01*
X283215Y422385D01*
X283930Y425956D01*
Y428098D01*
X283215Y431669D01*
X281787Y433811D01*
X279645Y434525D01*
X278216D01*
X298712Y419528D02*
X292999Y434525D01*
X287286Y419528D01*
X289428Y424527D02*
X296570D01*
X302211Y425956D02*
X315066D01*
X330205Y430954D02*
X329491Y432383D01*
X328063Y433811D01*
X326635Y434525D01*
X323778D01*
X322350Y433811D01*
X320922Y432383D01*
X320207Y430954D01*
X319493Y428812D01*
Y425241D01*
X320207Y423099D01*
X320922Y421671D01*
X322350Y420242D01*
X323778Y419528D01*
X326635D01*
X328063Y420242D01*
X329491Y421671D01*
X330205Y423099D01*
X334419Y434525D02*
Y419528D01*
Y434525D02*
X343702D01*
X334419Y427384D02*
X340132D01*
X345416Y434525D02*
Y419528D01*
Y434525D02*
X355414Y419528D01*
Y434525D02*
Y419528D01*
X364555Y434525D02*
Y419528D01*
X359556Y434525D02*
X369554D01*
D17*
X126810Y186500D02*
D03*
D18*
X304770Y104120D02*
D03*
D19*
X389045Y93037D02*
D03*
D20*
X356837Y80282D02*
D03*
D21*
X315854Y104236D02*
D03*
D22*
X360530Y128132D02*
D03*
M02*
