M48
;Layer_Color=9474304
;FILE_FORMAT=4:4
METRIC,LZ
;TYPE=PLATED
T1F00S00C0.1000
T2F00S00C0.2032
T3F00S00C0.3000
T4F00S00C0.5000
T5F00S00C0.8500
T6F00S00C1.0000
%
T01
X00238Y00238
Y00242
Y00246
Y0025
Y00254
Y00258
X00242Y00262
X00246
X0025
X00254
X00258
X00262Y00262037
Y00258037
X00261999Y00254037
X00262Y0025
Y00246
Y00242
Y00238
X00258
X00254
X0025
X00246
X00242
Y00266
X00238
Y0027
X00234
X00242
T02
X00198045Y00271312
T03
X0001886Y0000616
X0005696
X0009506
X0013316
X0009506Y0008236
X0005696
X000645Y0012
X00092589Y0011799
X0003791Y0004426
X0017126Y0000616
X0020936
X0024746
X0028556
X0032366
X0036176
X0039986
X0043796
X0047606
X0049511Y0004426
X0045701
X0042526Y0006458
X0043796Y0008236
X0043415Y0010522
X0039Y0008744
X0037192Y0007982
X0037012Y00103209
X0035975Y0011411
X0032493Y0011792
X0032366Y0008236
X0033001Y0007728
X0033975Y000849
X0035Y0007601
X0036303Y0005696
X0040025Y0007093
X0038843Y0013062
X0049511Y0012046
X0028048Y0011947
X0024746Y0010903
X0020118Y0011355
X001992Y0012554
X0018396Y0009125
X002125Y000775
X00275291Y0005789
X00278783Y00138044
X0027667Y001484
X0024525Y0016875
X0032747Y0019158
Y0022587
X0035287
X0034779Y0023349
X0035033Y0020301
X0029699Y0022206
X00293317Y00265746
X0031475Y00264
X0031223Y002881
X0032366Y0031096
X0034906Y0029064
X0039986Y0031096
X00437607Y00308949
X0043923Y0029445
X004325Y0028525
X00427433Y00259258
X0042018Y0026397
X0043542Y0025381
X0044177Y0023984
X0049511Y0027286
Y0034906
Y0042526
X0045701
X0041891
X00377848Y00437405
X0029699Y0043542
X0028556Y0038716
X0028Y0033825
X0022841Y0033128
X002119
X0020936Y0038716
X0019031Y0042526
X0015221
Y0034906
X00168343Y00312651
X00173Y00279853
X00198Y002815
X001985Y0025675
X0015221Y0019666
X0049511
X004151Y0033975
X0041891Y0034906
X0038081
X0043796Y0046336
X0013316Y0038716
X0009506
X0007601Y0042526
X0003791
X0005696Y0046336
X0001886
X0007982Y0034017
X0006712Y0031858
X0007093Y0029318
X00079736Y00285656
X0006458Y0026143
X0013951Y0026905
X0011411Y0019666
T04
X001465Y00067
X002881Y0007601
X003135Y0009633
X0027794Y0019158
X00325Y0026525
X00339
X00324815Y00289496
X003389Y0030842
T05
X0002Y0009
Y0011
Y0013
X0004
Y0011
Y0009
X0009Y0004
X0011
Y0002
X0009
X0013
Y0004
X0015
X0017
X0019
X0021
X0023
Y0002
X0021
X0019
X0017
X0015
X0025
X0027
Y0004
X0025
X0029
X0031
X0033
X0035
Y0002
X0033
X0031
X0029
X0037
X0039
X0041
Y0004
X0039
X0037
X0046Y0009
Y0011
Y0013
X0048
Y0011
Y0009
Y0015
Y0017
Y0019
Y0021
X0046
Y0019
Y0017
Y0015
Y0023
Y0025
X0048
Y0023
Y0027
Y0029
Y0031
Y0033
Y0035
Y0037
X0046
Y0035
Y0033
Y0031
Y0029
Y0027
Y0039
Y0041
X0048
Y0039
X0041Y0046
Y0048
X0039
Y0046
X0037
Y0048
X0035
Y0046
X0033
Y0048
X0031
Y0046
X0029
Y0048
X0027
Y0046
X0025
Y0048
X0023
Y0046
X0021
Y0048
X0019
Y0046
X0017
Y0048
X0015
Y0046
X0013
Y0048
X0011
Y0046
X0009
Y0048
X0004Y0041
X0002
Y0039
X0004
Y0037
X0002
Y0035
X0004
Y0033
X0002
Y0031
X0004
Y0029
X0002
Y0027
X0004
Y0025
X0002
Y0023
X0004
Y0021
X0002
Y0019
X0004
Y0017
X0002
Y0015
X0004
T06
X0020428Y0008998
X0022968
X0025508
X0039097Y0016999
Y0019539
Y0022079
Y0024619
Y0027159
M30
