G04*
G04 #@! TF.GenerationSoftware,Altium Limited,Altium Designer,21.4.1 (30)*
G04*
G04 Layer_Color=32896*
%FSLAX44Y44*%
%MOMM*%
G71*
G04*
G04 #@! TF.SameCoordinates,32E730F9-F919-4429-9A71-2B0F18EA1AEE*
G04*
G04*
G04 #@! TF.FilePolarity,Positive*
G04*
G01*
G75*
%ADD12C,0.1000*%
%ADD13C,0.2000*%
%ADD14C,0.2540*%
%ADD15C,0.1200*%
D12*
X212590Y229402D02*
X217090D01*
X214840Y227402D02*
Y231402D01*
X199090Y229402D02*
X203590D01*
X201340Y227402D02*
Y231402D01*
X208090Y227402D02*
Y231402D01*
X205840Y229402D02*
X210340D01*
D13*
X2060Y80000D02*
Y180150D01*
Y80000D02*
X9909D01*
X2060Y180150D02*
X10950D01*
X50320D01*
X2060Y420180D02*
X9888D01*
X2060Y219520D02*
X2060Y420180D01*
X2060Y219520D02*
X10950D01*
X50320D01*
X57940Y80196D02*
Y180346D01*
X49660Y80196D02*
X57940D01*
X48618Y180346D02*
X57940D01*
X49680Y420376D02*
X57940D01*
X57940Y219716D01*
X48618D02*
X57940D01*
X280284Y488618D02*
Y497940D01*
X79624Y497940D02*
X280284Y497940D01*
X79624Y489680D02*
Y497940D01*
X319654Y488618D02*
Y497940D01*
X419804Y489660D02*
Y497940D01*
X319654D02*
X419804D01*
X280480Y450950D02*
Y490320D01*
Y442060D02*
Y450950D01*
X79820Y442060D02*
X280480Y442060D01*
X79820Y442060D02*
Y449888D01*
X319850Y450950D02*
Y490320D01*
Y442060D02*
Y450950D01*
X420000Y442060D02*
Y449909D01*
X319850Y442060D02*
X420000D01*
X442060Y80000D02*
Y180150D01*
Y80000D02*
X449909D01*
X442060Y180150D02*
X450950D01*
X490320D01*
X442060Y420180D02*
X449888D01*
X442060Y219520D02*
X442060Y420180D01*
X442060Y219520D02*
X450950D01*
X490320D01*
X497940Y80196D02*
Y180346D01*
X489660Y80196D02*
X497940D01*
X488618Y180346D02*
X497940D01*
X489680Y420376D02*
X497940D01*
X497940Y219716D01*
X488618D02*
X497940D01*
X280284Y48618D02*
Y57940D01*
X79624Y57940D02*
X280284Y57940D01*
X79624Y49680D02*
Y57940D01*
X319654Y48618D02*
Y57940D01*
X419804Y49660D02*
Y57940D01*
X319654D02*
X419804D01*
X280480Y10950D02*
Y50320D01*
Y2060D02*
Y10950D01*
X79820Y2060D02*
X280480Y2060D01*
X79820Y2060D02*
Y9888D01*
X319850Y10950D02*
Y50320D01*
Y2060D02*
Y10950D01*
X420000Y2060D02*
Y9909D01*
X319850Y2060D02*
X420000D01*
X196840Y181651D02*
X219340D01*
X196840D02*
Y225651D01*
X219340Y181651D02*
Y225651D01*
X196840Y233151D02*
X219340D01*
Y225652D02*
Y233151D01*
X196840Y225651D02*
Y233151D01*
Y225651D02*
X219340D01*
D14*
X9909Y80000D02*
X49908D01*
X49987D02*
Y420000D01*
X9787Y80000D02*
Y420000D01*
X30000Y400000D02*
Y420000D01*
Y400000D02*
X49987D01*
X9888Y420376D02*
X49888D01*
X79624Y449888D02*
Y489888D01*
X100000Y470000D02*
Y489987D01*
X80000Y470000D02*
X100000D01*
X80000Y449787D02*
X420000D01*
X80000Y489987D02*
X420000D01*
Y449909D02*
Y489908D01*
X449909Y80000D02*
X489908D01*
X489987D02*
Y420000D01*
X449787Y80000D02*
Y420000D01*
X470000Y400000D02*
Y420000D01*
Y400000D02*
X489987D01*
X449888Y420376D02*
X489888D01*
X79624Y9888D02*
Y49888D01*
X100000Y30000D02*
Y49987D01*
X80000Y30000D02*
X100000D01*
X80000Y9787D02*
X420000D01*
X80000Y49987D02*
X420000D01*
Y9909D02*
Y49908D01*
D15*
X127079Y291640D02*
X131621D01*
X127079Y276940D02*
X131621D01*
X345754Y256493D02*
X350296D01*
X345754Y241793D02*
X350296D01*
X345754Y315286D02*
X350296D01*
X345754Y329986D02*
X350296D01*
X158202Y279190D02*
X161458D01*
X158202Y289390D02*
X161458D01*
X215352Y252520D02*
X218608D01*
X215352Y262720D02*
X218608D01*
X274110Y292948D02*
Y296203D01*
X284310Y292948D02*
Y296203D01*
X164552Y257640D02*
X167808D01*
X164552Y247440D02*
X167808D01*
X204550Y293588D02*
Y298813D01*
X219250Y293588D02*
Y298813D01*
X235190Y293588D02*
Y298813D01*
X220490Y293588D02*
Y298813D01*
X237570Y293588D02*
Y298813D01*
X252270Y293588D02*
Y298813D01*
X155592Y276400D02*
X160817D01*
X155592Y261700D02*
X160817D01*
X290288Y267510D02*
X295513D01*
X290288Y252810D02*
X295513D01*
X237576Y206288D02*
Y211513D01*
X252276Y206288D02*
Y211513D01*
X272590Y293588D02*
Y298813D01*
X257890Y293588D02*
Y298813D01*
X213097Y278940D02*
X218323D01*
X213097Y264240D02*
X218323D01*
X290288Y236300D02*
X295513D01*
X290288Y251000D02*
X295513D01*
X235483Y206288D02*
Y211513D01*
X220783Y206288D02*
Y211513D01*
X179150Y262348D02*
Y267573D01*
X193850Y262348D02*
Y267573D01*
X445602Y33019D02*
Y26925D01*
X445983Y25783D01*
X446364Y25402D01*
X447126Y25021D01*
X447888D01*
X448649Y25402D01*
X449030Y25783D01*
X449411Y26925D01*
Y27687D01*
X443165Y31115D02*
Y31496D01*
X442784Y32257D01*
X442403Y32638D01*
X441641Y33019D01*
X440118D01*
X439356Y32638D01*
X438975Y32257D01*
X438594Y31496D01*
Y30734D01*
X438975Y29972D01*
X439737Y28830D01*
X443546Y25021D01*
X438214D01*
X434138Y33019D02*
X435281Y32638D01*
X436043Y31496D01*
X436423Y29591D01*
Y28449D01*
X436043Y26544D01*
X435281Y25402D01*
X434138Y25021D01*
X433376D01*
X432234Y25402D01*
X431472Y26544D01*
X431091Y28449D01*
Y29591D01*
X431472Y31496D01*
X432234Y32638D01*
X433376Y33019D01*
X434138D01*
X428539D02*
X424350D01*
X426635Y29972D01*
X425492D01*
X424731Y29591D01*
X424350Y29210D01*
X423969Y28068D01*
Y27306D01*
X424350Y26163D01*
X425112Y25402D01*
X426254Y25021D01*
X427397D01*
X428539Y25402D01*
X428920Y25783D01*
X429301Y26544D01*
X266065Y317670D02*
X266826Y317289D01*
X267588Y316528D01*
X267969Y315766D01*
Y314242D01*
X267588Y313480D01*
X266826Y312719D01*
X266065Y312338D01*
X264922Y311957D01*
X263018D01*
X261875Y312338D01*
X261113Y312719D01*
X260352Y313480D01*
X259971Y314242D01*
Y315766D01*
X260352Y316528D01*
X261113Y317289D01*
X261875Y317670D01*
X266065Y320298D02*
X266446D01*
X267207Y320679D01*
X267588Y321060D01*
X267969Y321822D01*
Y323345D01*
X267588Y324107D01*
X267207Y324488D01*
X266446Y324869D01*
X265684D01*
X264922Y324488D01*
X263780Y323726D01*
X259971Y319917D01*
Y325249D01*
X267969Y329325D02*
X267588Y328182D01*
X266446Y327420D01*
X264541Y327039D01*
X263399D01*
X261494Y327420D01*
X260352Y328182D01*
X259971Y329325D01*
Y330087D01*
X260352Y331229D01*
X261494Y331991D01*
X263399Y332372D01*
X264541D01*
X266446Y331991D01*
X267588Y331229D01*
X267969Y330087D01*
Y329325D01*
X265303Y339113D02*
X264160Y338732D01*
X263399Y337971D01*
X263018Y336828D01*
Y336447D01*
X263399Y335304D01*
X264160Y334543D01*
X265303Y334162D01*
X265684D01*
X266826Y334543D01*
X267588Y335304D01*
X267969Y336447D01*
Y336828D01*
X267588Y337971D01*
X266826Y338732D01*
X265303Y339113D01*
X263399D01*
X261494Y338732D01*
X260352Y337971D01*
X259971Y336828D01*
Y336066D01*
X260352Y334924D01*
X261113Y334543D01*
X135056Y271145D02*
X135437Y271907D01*
X136199Y272668D01*
X136960Y273049D01*
X138484D01*
X139245Y272668D01*
X140007Y271907D01*
X140388Y271145D01*
X140769Y270002D01*
Y268098D01*
X140388Y266955D01*
X140007Y266194D01*
X139245Y265432D01*
X138484Y265051D01*
X136960D01*
X136199Y265432D01*
X135437Y266194D01*
X135056Y266955D01*
X132428Y271145D02*
Y271526D01*
X132047Y272287D01*
X131666Y272668D01*
X130904Y273049D01*
X129381D01*
X128619Y272668D01*
X128238Y272287D01*
X127857Y271526D01*
Y270764D01*
X128238Y270002D01*
X129000Y268860D01*
X132809Y265051D01*
X127477D01*
X123401Y273049D02*
X124544Y272668D01*
X125306Y271526D01*
X125686Y269621D01*
Y268479D01*
X125306Y266574D01*
X124544Y265432D01*
X123401Y265051D01*
X122640D01*
X121497Y265432D01*
X120735Y266574D01*
X120354Y268479D01*
Y269621D01*
X120735Y271526D01*
X121497Y272668D01*
X122640Y273049D01*
X123401D01*
X114755D02*
X118564Y267717D01*
X112851D01*
X114755Y273049D02*
Y265051D01*
X216145Y172975D02*
X216526Y173736D01*
X217288Y174498D01*
X218050Y174879D01*
X219573D01*
X220335Y174498D01*
X221097Y173736D01*
X221478Y172975D01*
X221859Y171832D01*
Y169928D01*
X221478Y168785D01*
X221097Y168023D01*
X220335Y167262D01*
X219573Y166881D01*
X218050D01*
X217288Y167262D01*
X216526Y168023D01*
X216145Y168785D01*
X213517Y172975D02*
Y173356D01*
X213137Y174117D01*
X212756Y174498D01*
X211994Y174879D01*
X210470D01*
X209709Y174498D01*
X209328Y174117D01*
X208947Y173356D01*
Y172594D01*
X209328Y171832D01*
X210090Y170690D01*
X213898Y166881D01*
X208566D01*
X204491Y174879D02*
X205633Y174498D01*
X206395Y173356D01*
X206776Y171451D01*
Y170309D01*
X206395Y168404D01*
X205633Y167262D01*
X204491Y166881D01*
X203729D01*
X202586Y167262D01*
X201825Y168404D01*
X201444Y170309D01*
Y171451D01*
X201825Y173356D01*
X202586Y174498D01*
X203729Y174879D01*
X204491D01*
X194321D02*
X198130Y166881D01*
X199654Y174879D02*
X194321D01*
X178692Y243839D02*
Y235841D01*
X174121D01*
X172864Y241935D02*
Y242316D01*
X172483Y243077D01*
X172103Y243458D01*
X171341Y243839D01*
X169817D01*
X169056Y243458D01*
X168675Y243077D01*
X168294Y242316D01*
Y241554D01*
X168675Y240792D01*
X169436Y239650D01*
X173245Y235841D01*
X167913D01*
X163838Y243839D02*
X164980Y243458D01*
X165742Y242316D01*
X166123Y240411D01*
Y239269D01*
X165742Y237364D01*
X164980Y236222D01*
X163838Y235841D01*
X163076D01*
X161933Y236222D01*
X161172Y237364D01*
X160791Y239269D01*
Y240411D01*
X161172Y242316D01*
X161933Y243458D01*
X163076Y243839D01*
X163838D01*
X158239D02*
X154049D01*
X156334Y240792D01*
X155192D01*
X154430Y240411D01*
X154049Y240030D01*
X153668Y238888D01*
Y238126D01*
X154049Y236984D01*
X154811Y236222D01*
X155954Y235841D01*
X157096D01*
X158239Y236222D01*
X158620Y236603D01*
X159001Y237364D01*
X360149Y341875D02*
Y333877D01*
Y341875D02*
X356721D01*
X355579Y341494D01*
X355198Y341114D01*
X354817Y340352D01*
Y339590D01*
X355198Y338828D01*
X355579Y338447D01*
X356721Y338066D01*
X360149D01*
X357483D02*
X354817Y333877D01*
X352646Y339971D02*
Y340352D01*
X352265Y341114D01*
X351884Y341494D01*
X351122Y341875D01*
X349599D01*
X348837Y341494D01*
X348456Y341114D01*
X348075Y340352D01*
Y339590D01*
X348456Y338828D01*
X349218Y337686D01*
X353027Y333877D01*
X347695D01*
X343619Y341875D02*
X344762Y341494D01*
X345524Y340352D01*
X345905Y338447D01*
Y337305D01*
X345524Y335400D01*
X344762Y334258D01*
X343619Y333877D01*
X342858D01*
X341715Y334258D01*
X340953Y335400D01*
X340572Y337305D01*
Y338447D01*
X340953Y340352D01*
X341715Y341494D01*
X342858Y341875D01*
X343619D01*
X333831Y339209D02*
X334212Y338066D01*
X334973Y337305D01*
X336116Y336924D01*
X336497D01*
X337640Y337305D01*
X338401Y338066D01*
X338782Y339209D01*
Y339590D01*
X338401Y340733D01*
X337640Y341494D01*
X336497Y341875D01*
X336116D01*
X334973Y341494D01*
X334212Y340733D01*
X333831Y339209D01*
Y337305D01*
X334212Y335400D01*
X334973Y334258D01*
X336116Y333877D01*
X336878D01*
X338021Y334258D01*
X338401Y335019D01*
X336180Y229904D02*
Y237902D01*
Y229904D02*
X339608D01*
X340751Y230285D01*
X341132Y230666D01*
X341513Y231427D01*
Y232189D01*
X341132Y232951D01*
X340751Y233332D01*
X339608Y233713D01*
X336180D01*
X338847D02*
X341513Y237902D01*
X343684Y231808D02*
Y231427D01*
X344064Y230666D01*
X344445Y230285D01*
X345207Y229904D01*
X346731D01*
X347492Y230285D01*
X347873Y230666D01*
X348254Y231427D01*
Y232189D01*
X347873Y232951D01*
X347112Y234093D01*
X343303Y237902D01*
X348635D01*
X352710Y229904D02*
X351568Y230285D01*
X350806Y231427D01*
X350425Y233332D01*
Y234474D01*
X350806Y236379D01*
X351568Y237521D01*
X352710Y237902D01*
X353472D01*
X354615Y237521D01*
X355376Y236379D01*
X355757Y234474D01*
Y233332D01*
X355376Y231427D01*
X354615Y230285D01*
X353472Y229904D01*
X352710D01*
X359452D02*
X358309Y230285D01*
X357928Y231046D01*
Y231808D01*
X358309Y232570D01*
X359071Y232951D01*
X360594Y233332D01*
X361737Y233713D01*
X362499Y234474D01*
X362879Y235236D01*
Y236379D01*
X362499Y237140D01*
X362118Y237521D01*
X360975Y237902D01*
X359452D01*
X358309Y237521D01*
X357928Y237140D01*
X357547Y236379D01*
Y235236D01*
X357928Y234474D01*
X358690Y233713D01*
X359833Y233332D01*
X361356Y232951D01*
X362118Y232570D01*
X362499Y231808D01*
Y231046D01*
X362118Y230285D01*
X360975Y229904D01*
X359452D01*
X137496Y303364D02*
Y295366D01*
Y303364D02*
X134068D01*
X132926Y302983D01*
X132545Y302603D01*
X132164Y301841D01*
Y301079D01*
X132545Y300317D01*
X132926Y299937D01*
X134068Y299556D01*
X137496D01*
X134830D02*
X132164Y295366D01*
X129993Y301460D02*
Y301841D01*
X129612Y302603D01*
X129231Y302983D01*
X128469Y303364D01*
X126946D01*
X126184Y302983D01*
X125803Y302603D01*
X125422Y301841D01*
Y301079D01*
X125803Y300317D01*
X126565Y299175D01*
X130374Y295366D01*
X125042D01*
X120966Y303364D02*
X122109Y302983D01*
X122871Y301841D01*
X123251Y299937D01*
Y298794D01*
X122871Y296889D01*
X122109Y295747D01*
X120966Y295366D01*
X120204D01*
X119062Y295747D01*
X118300Y296889D01*
X117919Y298794D01*
Y299937D01*
X118300Y301841D01*
X119062Y302983D01*
X120204Y303364D01*
X120966D01*
X115748Y301460D02*
Y301841D01*
X115367Y302603D01*
X114986Y302983D01*
X114225Y303364D01*
X112701D01*
X111939Y302983D01*
X111559Y302603D01*
X111178Y301841D01*
Y301079D01*
X111559Y300317D01*
X112320Y299175D01*
X116129Y295366D01*
X110797D01*
X284479Y310004D02*
X276481D01*
Y314574D01*
X282575Y315831D02*
X282956D01*
X283717Y316212D01*
X284098Y316593D01*
X284479Y317354D01*
Y318878D01*
X284098Y319639D01*
X283717Y320020D01*
X282956Y320401D01*
X282194D01*
X281432Y320020D01*
X280290Y319259D01*
X276481Y315450D01*
Y320782D01*
X284479Y324857D02*
X284098Y323715D01*
X282956Y322953D01*
X281051Y322572D01*
X279909D01*
X278004Y322953D01*
X276862Y323715D01*
X276481Y324857D01*
Y325619D01*
X276862Y326762D01*
X278004Y327523D01*
X279909Y327904D01*
X281051D01*
X282956Y327523D01*
X284098Y326762D01*
X284479Y325619D01*
Y324857D01*
X282575Y330075D02*
X282956D01*
X283717Y330456D01*
X284098Y330837D01*
X284479Y331599D01*
Y333122D01*
X284098Y333884D01*
X283717Y334265D01*
X282956Y334646D01*
X282194D01*
X281432Y334265D01*
X280290Y333503D01*
X276481Y329695D01*
Y335027D01*
X221278Y247499D02*
Y239501D01*
X216707D01*
X215450Y245595D02*
Y245976D01*
X215070Y246737D01*
X214689Y247118D01*
X213927Y247499D01*
X212403D01*
X211642Y247118D01*
X211261Y246737D01*
X210880Y245976D01*
Y245214D01*
X211261Y244452D01*
X212022Y243309D01*
X215831Y239501D01*
X210499D01*
X206424Y247499D02*
X207566Y247118D01*
X208328Y245976D01*
X208709Y244071D01*
Y242929D01*
X208328Y241024D01*
X207566Y239882D01*
X206424Y239501D01*
X205662D01*
X204519Y239882D01*
X203758Y241024D01*
X203377Y242929D01*
Y244071D01*
X203758Y245976D01*
X204519Y247118D01*
X205662Y247499D01*
X206424D01*
X201587Y245976D02*
X200825Y246357D01*
X199682Y247499D01*
Y239501D01*
X171707Y300989D02*
Y292991D01*
X167136D01*
X165879Y299085D02*
Y299466D01*
X165498Y300227D01*
X165118Y300608D01*
X164356Y300989D01*
X162832D01*
X162071Y300608D01*
X161690Y300227D01*
X161309Y299466D01*
Y298704D01*
X161690Y297942D01*
X162451Y296800D01*
X166260Y292991D01*
X160928D01*
X156853Y300989D02*
X157995Y300608D01*
X158757Y299466D01*
X159138Y297561D01*
Y296419D01*
X158757Y294514D01*
X157995Y293372D01*
X156853Y292991D01*
X156091D01*
X154948Y293372D01*
X154187Y294514D01*
X153806Y296419D01*
Y297561D01*
X154187Y299466D01*
X154948Y300608D01*
X156091Y300989D01*
X156853D01*
X149730D02*
X150873Y300608D01*
X151635Y299466D01*
X152016Y297561D01*
Y296419D01*
X151635Y294514D01*
X150873Y293372D01*
X149730Y292991D01*
X148969D01*
X147826Y293372D01*
X147064Y294514D01*
X146683Y296419D01*
Y297561D01*
X147064Y299466D01*
X147826Y300608D01*
X148969Y300989D01*
X149730D01*
X493841Y435798D02*
Y429704D01*
X494222Y428562D01*
X494603Y428181D01*
X495365Y427800D01*
X496127D01*
X496888Y428181D01*
X497269Y428562D01*
X497650Y429704D01*
Y430466D01*
X491404Y433894D02*
Y434275D01*
X491023Y435037D01*
X490642Y435417D01*
X489880Y435798D01*
X488357D01*
X487595Y435417D01*
X487214Y435037D01*
X486833Y434275D01*
Y433513D01*
X487214Y432751D01*
X487976Y431609D01*
X491785Y427800D01*
X486452D01*
X482377Y435798D02*
X483520Y435417D01*
X484281Y434275D01*
X484662Y432370D01*
Y431228D01*
X484281Y429324D01*
X483520Y428181D01*
X482377Y427800D01*
X481615D01*
X480473Y428181D01*
X479711Y429324D01*
X479330Y431228D01*
Y432370D01*
X479711Y434275D01*
X480473Y435417D01*
X481615Y435798D01*
X482377D01*
X477159Y433894D02*
Y434275D01*
X476778Y435037D01*
X476397Y435417D01*
X475636Y435798D01*
X474112D01*
X473350Y435417D01*
X472970Y435037D01*
X472589Y434275D01*
Y433513D01*
X472970Y432751D01*
X473731Y431609D01*
X477540Y427800D01*
X472208D01*
X443889Y473709D02*
Y467615D01*
X444269Y466473D01*
X444650Y466092D01*
X445412Y465711D01*
X446174D01*
X446935Y466092D01*
X447316Y466473D01*
X447697Y467615D01*
Y468377D01*
X441451Y471805D02*
Y472186D01*
X441070Y472947D01*
X440689Y473328D01*
X439927Y473709D01*
X438404D01*
X437642Y473328D01*
X437261Y472947D01*
X436880Y472186D01*
Y471424D01*
X437261Y470662D01*
X438023Y469520D01*
X441832Y465711D01*
X436500D01*
X432424Y473709D02*
X433567Y473328D01*
X434329Y472186D01*
X434710Y470281D01*
Y469139D01*
X434329Y467234D01*
X433567Y466092D01*
X432424Y465711D01*
X431662D01*
X430520Y466092D01*
X429758Y467234D01*
X429377Y469139D01*
Y470281D01*
X429758Y472186D01*
X430520Y473328D01*
X431662Y473709D01*
X432424D01*
X427587Y472186D02*
X426825Y472566D01*
X425683Y473709D01*
Y465711D01*
X53913Y435798D02*
Y429704D01*
X54294Y428562D01*
X54675Y428181D01*
X55437Y427800D01*
X56199D01*
X56960Y428181D01*
X57341Y428562D01*
X57722Y429704D01*
Y430466D01*
X51476Y433894D02*
Y434275D01*
X51095Y435037D01*
X50714Y435417D01*
X49952Y435798D01*
X48429D01*
X47667Y435417D01*
X47286Y435037D01*
X46905Y434275D01*
Y433513D01*
X47286Y432751D01*
X48048Y431609D01*
X51857Y427800D01*
X46524D01*
X42449Y435798D02*
X43592Y435417D01*
X44353Y434275D01*
X44734Y432370D01*
Y431228D01*
X44353Y429324D01*
X43592Y428181D01*
X42449Y427800D01*
X41687D01*
X40545Y428181D01*
X39783Y429324D01*
X39402Y431228D01*
Y432370D01*
X39783Y434275D01*
X40545Y435417D01*
X41687Y435798D01*
X42449D01*
X35327D02*
X36469Y435417D01*
X37231Y434275D01*
X37612Y432370D01*
Y431228D01*
X37231Y429324D01*
X36469Y428181D01*
X35327Y427800D01*
X34565D01*
X33422Y428181D01*
X32661Y429324D01*
X32280Y431228D01*
Y432370D01*
X32661Y434275D01*
X33422Y435417D01*
X34565Y435798D01*
X35327D01*
X188595Y287023D02*
X189356Y286642D01*
X190118Y285880D01*
X190499Y285119D01*
Y283595D01*
X190118Y282833D01*
X189356Y282072D01*
X188595Y281691D01*
X187452Y281310D01*
X185548D01*
X184405Y281691D01*
X183643Y282072D01*
X182882Y282833D01*
X182501Y283595D01*
Y285119D01*
X182882Y285880D01*
X183643Y286642D01*
X184405Y287023D01*
X188595Y289651D02*
X188976D01*
X189737Y290032D01*
X190118Y290413D01*
X190499Y291175D01*
Y292698D01*
X190118Y293460D01*
X189737Y293841D01*
X188976Y294221D01*
X188214D01*
X187452Y293841D01*
X186310Y293079D01*
X182501Y289270D01*
Y294602D01*
X188976Y296392D02*
X189356Y297154D01*
X190499Y298297D01*
X182501D01*
X190499Y306828D02*
Y303020D01*
X187071Y302639D01*
X187452Y303020D01*
X187833Y304162D01*
Y305305D01*
X187452Y306447D01*
X186690Y307209D01*
X185548Y307590D01*
X184786D01*
X183643Y307209D01*
X182882Y306447D01*
X182501Y305305D01*
Y304162D01*
X182882Y303020D01*
X183263Y302639D01*
X184024Y302258D01*
X231775Y168723D02*
X232537Y168342D01*
X233298Y167580D01*
X233679Y166818D01*
Y165295D01*
X233298Y164533D01*
X232537Y163771D01*
X231775Y163390D01*
X230632Y163009D01*
X228728D01*
X227585Y163390D01*
X226824Y163771D01*
X226062Y164533D01*
X225681Y165295D01*
Y166818D01*
X226062Y167580D01*
X226824Y168342D01*
X227585Y168723D01*
X231775Y171351D02*
X232156D01*
X232917Y171731D01*
X233298Y172112D01*
X233679Y172874D01*
Y174398D01*
X233298Y175159D01*
X232917Y175540D01*
X232156Y175921D01*
X231394D01*
X230632Y175540D01*
X229490Y174778D01*
X225681Y170970D01*
Y176302D01*
X232156Y178092D02*
X232537Y178854D01*
X233679Y179996D01*
X225681D01*
X233679Y187766D02*
X228347Y183957D01*
Y189671D01*
X233679Y187766D02*
X225681D01*
X329817Y247015D02*
X330198Y247777D01*
X330960Y248538D01*
X331721Y248919D01*
X333245D01*
X334007Y248538D01*
X334768Y247777D01*
X335149Y247015D01*
X335530Y245872D01*
Y243968D01*
X335149Y242825D01*
X334768Y242064D01*
X334007Y241302D01*
X333245Y240921D01*
X331721D01*
X330960Y241302D01*
X330198Y242064D01*
X329817Y242825D01*
X327189Y247015D02*
Y247396D01*
X326808Y248157D01*
X326427Y248538D01*
X325666Y248919D01*
X324142D01*
X323380Y248538D01*
X322999Y248157D01*
X322618Y247396D01*
Y246634D01*
X322999Y245872D01*
X323761Y244730D01*
X327570Y240921D01*
X322238D01*
X320448Y247396D02*
X319686Y247777D01*
X318543Y248919D01*
Y240921D01*
X313820Y248919D02*
X309631D01*
X311916Y245872D01*
X310773D01*
X310012Y245491D01*
X309631Y245110D01*
X309250Y243968D01*
Y243206D01*
X309631Y242064D01*
X310393Y241302D01*
X311535Y240921D01*
X312678D01*
X313820Y241302D01*
X314201Y241683D01*
X314582Y242444D01*
X200025Y270957D02*
X200787Y270576D01*
X201548Y269814D01*
X201929Y269053D01*
Y267529D01*
X201548Y266767D01*
X200787Y266006D01*
X200025Y265625D01*
X198882Y265244D01*
X196978D01*
X195835Y265625D01*
X195074Y266006D01*
X194312Y266767D01*
X193931Y267529D01*
Y269053D01*
X194312Y269814D01*
X195074Y270576D01*
X195835Y270957D01*
X200025Y273585D02*
X200406D01*
X201167Y273966D01*
X201548Y274347D01*
X201929Y275108D01*
Y276632D01*
X201548Y277394D01*
X201167Y277775D01*
X200406Y278155D01*
X199644D01*
X198882Y277775D01*
X197740Y277013D01*
X193931Y273204D01*
Y278536D01*
X200406Y280326D02*
X200787Y281088D01*
X201929Y282231D01*
X193931D01*
X200406Y286192D02*
X200787Y286954D01*
X201929Y288096D01*
X193931D01*
X248285Y168475D02*
X249046Y168094D01*
X249808Y167332D01*
X250189Y166571D01*
Y165047D01*
X249808Y164285D01*
X249046Y163524D01*
X248285Y163143D01*
X247142Y162762D01*
X245238D01*
X244095Y163143D01*
X243333Y163524D01*
X242572Y164285D01*
X242191Y165047D01*
Y166571D01*
X242572Y167332D01*
X243333Y168094D01*
X244095Y168475D01*
X248285Y171103D02*
X248666D01*
X249427Y171484D01*
X249808Y171865D01*
X250189Y172626D01*
Y174150D01*
X249808Y174912D01*
X249427Y175293D01*
X248666Y175673D01*
X247904D01*
X247142Y175293D01*
X246000Y174531D01*
X242191Y170722D01*
Y176054D01*
X250189Y180130D02*
X249808Y178987D01*
X248666Y178225D01*
X246761Y177844D01*
X245619D01*
X243714Y178225D01*
X242572Y178987D01*
X242191Y180130D01*
Y180891D01*
X242572Y182034D01*
X243714Y182796D01*
X245619Y183177D01*
X246761D01*
X248666Y182796D01*
X249808Y182034D01*
X250189Y180891D01*
Y180130D01*
X249046Y189537D02*
X249808Y189156D01*
X250189Y188014D01*
Y187252D01*
X249808Y186109D01*
X248666Y185348D01*
X246761Y184967D01*
X244857D01*
X243333Y185348D01*
X242572Y186109D01*
X242191Y187252D01*
Y187633D01*
X242572Y188775D01*
X243333Y189537D01*
X244476Y189918D01*
X244857D01*
X246000Y189537D01*
X246761Y188775D01*
X247142Y187633D01*
Y187252D01*
X246761Y186109D01*
X246000Y185348D01*
X244857Y184967D01*
X330445Y263525D02*
X330826Y264286D01*
X331588Y265048D01*
X332350Y265429D01*
X333873D01*
X334635Y265048D01*
X335397Y264286D01*
X335778Y263525D01*
X336158Y262382D01*
Y260478D01*
X335778Y259335D01*
X335397Y258573D01*
X334635Y257812D01*
X333873Y257431D01*
X332350D01*
X331588Y257812D01*
X330826Y258573D01*
X330445Y259335D01*
X327817Y263525D02*
Y263906D01*
X327436Y264667D01*
X327056Y265048D01*
X326294Y265429D01*
X324770D01*
X324009Y265048D01*
X323628Y264667D01*
X323247Y263906D01*
Y263144D01*
X323628Y262382D01*
X324390Y261240D01*
X328198Y257431D01*
X322866D01*
X318791Y265429D02*
X319933Y265048D01*
X320695Y263906D01*
X321076Y262001D01*
Y260859D01*
X320695Y258954D01*
X319933Y257812D01*
X318791Y257431D01*
X318029D01*
X316886Y257812D01*
X316125Y258954D01*
X315744Y260859D01*
Y262001D01*
X316125Y263906D01*
X316886Y265048D01*
X318029Y265429D01*
X318791D01*
X309383D02*
X313192D01*
X313573Y262001D01*
X313192Y262382D01*
X312049Y262763D01*
X310907D01*
X309764Y262382D01*
X309002Y261620D01*
X308622Y260478D01*
Y259716D01*
X309002Y258573D01*
X309764Y257812D01*
X310907Y257431D01*
X312049D01*
X313192Y257812D01*
X313573Y258193D01*
X313954Y258954D01*
X249555Y316020D02*
X250317Y315639D01*
X251078Y314877D01*
X251459Y314115D01*
Y312592D01*
X251078Y311830D01*
X250317Y311068D01*
X249555Y310688D01*
X248412Y310307D01*
X246508D01*
X245365Y310688D01*
X244604Y311068D01*
X243842Y311830D01*
X243461Y312592D01*
Y314115D01*
X243842Y314877D01*
X244604Y315639D01*
X245365Y316020D01*
X249555Y318648D02*
X249936D01*
X250697Y319029D01*
X251078Y319409D01*
X251459Y320171D01*
Y321695D01*
X251078Y322456D01*
X250697Y322837D01*
X249936Y323218D01*
X249174D01*
X248412Y322837D01*
X247270Y322076D01*
X243461Y318267D01*
Y323599D01*
X251459Y327674D02*
X251078Y326532D01*
X249936Y325770D01*
X248031Y325389D01*
X246889D01*
X244984Y325770D01*
X243842Y326532D01*
X243461Y327674D01*
Y328436D01*
X243842Y329579D01*
X244984Y330340D01*
X246889Y330721D01*
X248031D01*
X249936Y330340D01*
X251078Y329579D01*
X251459Y328436D01*
Y327674D01*
Y333273D02*
Y337463D01*
X248412Y335177D01*
Y336320D01*
X248031Y337082D01*
X247650Y337463D01*
X246508Y337844D01*
X245746D01*
X244604Y337463D01*
X243842Y336701D01*
X243461Y335558D01*
Y334416D01*
X243842Y333273D01*
X244223Y332892D01*
X244984Y332511D01*
X231775Y319895D02*
X232537Y319514D01*
X233298Y318752D01*
X233679Y317990D01*
Y316467D01*
X233298Y315705D01*
X232537Y314943D01*
X231775Y314562D01*
X230632Y314182D01*
X228728D01*
X227585Y314562D01*
X226824Y314943D01*
X226062Y315705D01*
X225681Y316467D01*
Y317990D01*
X226062Y318752D01*
X226824Y319514D01*
X227585Y319895D01*
X231775Y322523D02*
X232156D01*
X232917Y322904D01*
X233298Y323284D01*
X233679Y324046D01*
Y325570D01*
X233298Y326331D01*
X232917Y326712D01*
X232156Y327093D01*
X231394D01*
X230632Y326712D01*
X229490Y325951D01*
X225681Y322142D01*
Y327474D01*
X233679Y331549D02*
X233298Y330407D01*
X232156Y329645D01*
X230251Y329264D01*
X229109D01*
X227204Y329645D01*
X226062Y330407D01*
X225681Y331549D01*
Y332311D01*
X226062Y333454D01*
X227204Y334216D01*
X229109Y334596D01*
X230251D01*
X232156Y334216D01*
X233298Y333454D01*
X233679Y332311D01*
Y331549D01*
X231775Y336767D02*
X232156D01*
X232917Y337148D01*
X233298Y337529D01*
X233679Y338291D01*
Y339814D01*
X233298Y340576D01*
X232917Y340957D01*
X232156Y341338D01*
X231394D01*
X230632Y340957D01*
X229490Y340195D01*
X225681Y336386D01*
Y341719D01*
X213995Y319858D02*
X214757Y319478D01*
X215518Y318716D01*
X215899Y317954D01*
Y316431D01*
X215518Y315669D01*
X214757Y314907D01*
X213995Y314526D01*
X212852Y314145D01*
X210948D01*
X209805Y314526D01*
X209044Y314907D01*
X208282Y315669D01*
X207901Y316431D01*
Y317954D01*
X208282Y318716D01*
X209044Y319478D01*
X209805Y319858D01*
X213995Y322486D02*
X214376D01*
X215137Y322867D01*
X215518Y323248D01*
X215899Y324010D01*
Y325533D01*
X215518Y326295D01*
X215137Y326676D01*
X214376Y327057D01*
X213614D01*
X212852Y326676D01*
X211710Y325914D01*
X207901Y322106D01*
Y327438D01*
X215899Y331513D02*
X215518Y330370D01*
X214376Y329609D01*
X212471Y329228D01*
X211329D01*
X209424Y329609D01*
X208282Y330370D01*
X207901Y331513D01*
Y332275D01*
X208282Y333418D01*
X209424Y334179D01*
X211329Y334560D01*
X212471D01*
X214376Y334179D01*
X215518Y333418D01*
X215899Y332275D01*
Y331513D01*
X214376Y336350D02*
X214757Y337112D01*
X215899Y338255D01*
X207901D01*
M02*
