G04*
G04 #@! TF.GenerationSoftware,Altium Limited,Altium Designer,21.4.1 (30)*
G04*
G04 Layer_Color=16711935*
%FSLAX44Y44*%
%MOMM*%
G71*
G04*
G04 #@! TF.SameCoordinates,32E730F9-F919-4429-9A71-2B0F18EA1AEE*
G04*
G04*
G04 #@! TF.FilePolarity,Negative*
G04*
G01*
G75*
G04:AMPARAMS|DCode=34|XSize=1.1774mm|YSize=1.5524mm|CornerRadius=0.1992mm|HoleSize=0mm|Usage=FLASHONLY|Rotation=0.000|XOffset=0mm|YOffset=0mm|HoleType=Round|Shape=RoundedRectangle|*
%AMROUNDEDRECTD34*
21,1,1.1774,1.1540,0,0,0.0*
21,1,0.7790,1.5524,0,0,0.0*
1,1,0.3984,0.3895,-0.5770*
1,1,0.3984,-0.3895,-0.5770*
1,1,0.3984,-0.3895,0.5770*
1,1,0.3984,0.3895,0.5770*
%
%ADD34ROUNDEDRECTD34*%
G04:AMPARAMS|DCode=35|XSize=1.1524mm|YSize=1.6024mm|CornerRadius=0.2012mm|HoleSize=0mm|Usage=FLASHONLY|Rotation=270.000|XOffset=0mm|YOffset=0mm|HoleType=Round|Shape=RoundedRectangle|*
%AMROUNDEDRECTD35*
21,1,1.1524,1.2000,0,0,270.0*
21,1,0.7500,1.6024,0,0,270.0*
1,1,0.4024,-0.6000,-0.3750*
1,1,0.4024,-0.6000,0.3750*
1,1,0.4024,0.6000,0.3750*
1,1,0.4024,0.6000,-0.3750*
%
%ADD35ROUNDEDRECTD35*%
G04:AMPARAMS|DCode=36|XSize=1.1524mm|YSize=1.6024mm|CornerRadius=0.2012mm|HoleSize=0mm|Usage=FLASHONLY|Rotation=0.000|XOffset=0mm|YOffset=0mm|HoleType=Round|Shape=RoundedRectangle|*
%AMROUNDEDRECTD36*
21,1,1.1524,1.2000,0,0,0.0*
21,1,0.7500,1.6024,0,0,0.0*
1,1,0.4024,0.3750,-0.6000*
1,1,0.4024,-0.3750,-0.6000*
1,1,0.4024,-0.3750,0.6000*
1,1,0.4024,0.3750,0.6000*
%
%ADD36ROUNDEDRECTD36*%
%ADD39R,1.5524X1.5524*%
%ADD40C,1.5524*%
%ADD41R,1.5524X1.5524*%
G04:AMPARAMS|DCode=42|XSize=1.8524mm|YSize=1.8524mm|CornerRadius=0.9262mm|HoleSize=0mm|Usage=FLASHONLY|Rotation=270.000|XOffset=0mm|YOffset=0mm|HoleType=Round|Shape=RoundedRectangle|*
%AMROUNDEDRECTD42*
21,1,1.8524,0.0000,0,0,270.0*
21,1,0.0000,1.8524,0,0,270.0*
1,1,1.8524,0.0000,0.0000*
1,1,1.8524,0.0000,0.0000*
1,1,1.8524,0.0000,0.0000*
1,1,1.8524,0.0000,0.0000*
%
%ADD42ROUNDEDRECTD42*%
%ADD43R,1.8524X1.8524*%
G04:AMPARAMS|DCode=44|XSize=1.8524mm|YSize=1.8524mm|CornerRadius=0.9262mm|HoleSize=0mm|Usage=FLASHONLY|Rotation=180.000|XOffset=0mm|YOffset=0mm|HoleType=Round|Shape=RoundedRectangle|*
%AMROUNDEDRECTD44*
21,1,1.8524,0.0000,0,0,180.0*
21,1,0.0000,1.8524,0,0,180.0*
1,1,1.8524,0.0000,0.0000*
1,1,1.8524,0.0000,0.0000*
1,1,1.8524,0.0000,0.0000*
1,1,1.8524,0.0000,0.0000*
%
%ADD44ROUNDEDRECTD44*%
%ADD45R,1.8524X1.8524*%
G04:AMPARAMS|DCode=63|XSize=0.875mm|YSize=0.95mm|CornerRadius=0.1094mm|HoleSize=0mm|Usage=FLASHONLY|Rotation=180.000|XOffset=0mm|YOffset=0mm|HoleType=Round|Shape=RoundedRectangle|*
%AMROUNDEDRECTD63*
21,1,0.8750,0.7313,0,0,180.0*
21,1,0.6563,0.9500,0,0,180.0*
1,1,0.2188,-0.3281,0.3656*
1,1,0.2188,0.3281,0.3656*
1,1,0.2188,0.3281,-0.3656*
1,1,0.2188,-0.3281,-0.3656*
%
%ADD63ROUNDEDRECTD63*%
G04:AMPARAMS|DCode=64|XSize=0.875mm|YSize=0.95mm|CornerRadius=0.1094mm|HoleSize=0mm|Usage=FLASHONLY|Rotation=90.000|XOffset=0mm|YOffset=0mm|HoleType=Round|Shape=RoundedRectangle|*
%AMROUNDEDRECTD64*
21,1,0.8750,0.7313,0,0,90.0*
21,1,0.6563,0.9500,0,0,90.0*
1,1,0.2188,0.3656,0.3281*
1,1,0.2188,0.3656,-0.3281*
1,1,0.2188,-0.3656,-0.3281*
1,1,0.2188,-0.3656,0.3281*
%
%ADD64ROUNDEDRECTD64*%
%ADD69R,1.9024X1.1024*%
%ADD70C,1.1524*%
D34*
X138475Y284290D02*
D03*
X120225D02*
D03*
X357150Y249143D02*
D03*
X338900D02*
D03*
Y322636D02*
D03*
X357150D02*
D03*
D35*
X211900Y305700D02*
D03*
Y286700D02*
D03*
X227840D02*
D03*
Y305700D02*
D03*
X244920D02*
D03*
Y286700D02*
D03*
X244926Y218401D02*
D03*
Y199401D02*
D03*
X265240Y286700D02*
D03*
Y305700D02*
D03*
X228133Y199401D02*
D03*
Y218401D02*
D03*
X186500Y274460D02*
D03*
Y255460D02*
D03*
D36*
X167705Y269050D02*
D03*
X148705D02*
D03*
X302400Y260160D02*
D03*
X283400D02*
D03*
X225210Y271590D02*
D03*
X206210D02*
D03*
X283400Y243650D02*
D03*
X302400D02*
D03*
D39*
X40000Y410000D02*
D03*
X480000D02*
D03*
D40*
X20000D02*
D03*
X40000Y390000D02*
D03*
X20000D02*
D03*
X40000Y370000D02*
D03*
X20000D02*
D03*
X40000Y350000D02*
D03*
X20000D02*
D03*
X40000Y330000D02*
D03*
X20000D02*
D03*
X40000Y310000D02*
D03*
X20000D02*
D03*
X40000Y290000D02*
D03*
X20000D02*
D03*
X40000Y270000D02*
D03*
X20000D02*
D03*
X40000Y250000D02*
D03*
X20000D02*
D03*
X40000Y230000D02*
D03*
X20000D02*
D03*
X40000Y210000D02*
D03*
X20000D02*
D03*
X40000Y190000D02*
D03*
X20000D02*
D03*
X40000Y170000D02*
D03*
X20000D02*
D03*
X40000Y150000D02*
D03*
X20000D02*
D03*
X40000Y130000D02*
D03*
X20000D02*
D03*
X40000Y110000D02*
D03*
X20000D02*
D03*
X40000Y90000D02*
D03*
X20000D02*
D03*
X410000Y460000D02*
D03*
Y480000D02*
D03*
X390000Y460000D02*
D03*
Y480000D02*
D03*
X370000Y460000D02*
D03*
Y480000D02*
D03*
X350000Y460000D02*
D03*
Y480000D02*
D03*
X330000Y460000D02*
D03*
Y480000D02*
D03*
X310000Y460000D02*
D03*
Y480000D02*
D03*
X290000Y460000D02*
D03*
Y480000D02*
D03*
X270000Y460000D02*
D03*
Y480000D02*
D03*
X250000Y460000D02*
D03*
Y480000D02*
D03*
X230000Y460000D02*
D03*
Y480000D02*
D03*
X210000Y460000D02*
D03*
Y480000D02*
D03*
X190000Y460000D02*
D03*
Y480000D02*
D03*
X170000Y460000D02*
D03*
Y480000D02*
D03*
X150000Y460000D02*
D03*
Y480000D02*
D03*
X130000Y460000D02*
D03*
Y480000D02*
D03*
X110000Y460000D02*
D03*
Y480000D02*
D03*
X90000Y460000D02*
D03*
X460000Y410000D02*
D03*
X480000Y390000D02*
D03*
X460000D02*
D03*
X480000Y370000D02*
D03*
X460000D02*
D03*
X480000Y350000D02*
D03*
X460000D02*
D03*
X480000Y330000D02*
D03*
X460000D02*
D03*
X480000Y310000D02*
D03*
X460000D02*
D03*
X480000Y290000D02*
D03*
X460000D02*
D03*
X480000Y270000D02*
D03*
X460000D02*
D03*
X480000Y250000D02*
D03*
X460000D02*
D03*
X480000Y230000D02*
D03*
X460000D02*
D03*
X480000Y210000D02*
D03*
X460000D02*
D03*
X480000Y190000D02*
D03*
X460000D02*
D03*
X480000Y170000D02*
D03*
X460000D02*
D03*
X480000Y150000D02*
D03*
X460000D02*
D03*
X480000Y130000D02*
D03*
X460000D02*
D03*
X480000Y110000D02*
D03*
X460000D02*
D03*
X480000Y90000D02*
D03*
X460000D02*
D03*
X410000Y20000D02*
D03*
Y40000D02*
D03*
X390000Y20000D02*
D03*
Y40000D02*
D03*
X370000Y20000D02*
D03*
Y40000D02*
D03*
X350000Y20000D02*
D03*
Y40000D02*
D03*
X330000Y20000D02*
D03*
Y40000D02*
D03*
X310000Y20000D02*
D03*
Y40000D02*
D03*
X290000Y20000D02*
D03*
Y40000D02*
D03*
X270000Y20000D02*
D03*
Y40000D02*
D03*
X250000Y20000D02*
D03*
Y40000D02*
D03*
X230000Y20000D02*
D03*
Y40000D02*
D03*
X210000Y20000D02*
D03*
Y40000D02*
D03*
X190000Y20000D02*
D03*
Y40000D02*
D03*
X170000Y20000D02*
D03*
Y40000D02*
D03*
X150000Y20000D02*
D03*
Y40000D02*
D03*
X130000Y20000D02*
D03*
Y40000D02*
D03*
X110000Y20000D02*
D03*
Y40000D02*
D03*
X90000Y20000D02*
D03*
D41*
Y480000D02*
D03*
Y40000D02*
D03*
D42*
X204280Y89980D02*
D03*
X229680D02*
D03*
D43*
X255080D02*
D03*
D44*
X390970Y271590D02*
D03*
Y246190D02*
D03*
Y220790D02*
D03*
Y195390D02*
D03*
D45*
Y169990D02*
D03*
D63*
X167705Y284290D02*
D03*
X151955D02*
D03*
X224855Y257620D02*
D03*
X209105D02*
D03*
X158305Y252540D02*
D03*
X174055D02*
D03*
D64*
X279210Y286700D02*
D03*
Y302450D02*
D03*
D69*
X208090Y188901D02*
D03*
Y218401D02*
D03*
D70*
X470000Y30000D02*
D03*
X30000D02*
D03*
X470000Y470000D02*
D03*
M02*
