M48
;Layer_Color=9474304
;FILE_FORMAT=4:4
METRIC,LZ
;TYPE=PLATED
T1F00S00C0.1000
%
T01
X00234Y00234
Y00238
Y00242
Y00246
Y0025
Y00254
Y00258
X00238Y00262
X00234Y00266
X00246
X0025
X00254
X00258
X00262Y00266037
X00266Y00266
Y00262
Y00258
Y00254
Y0025
Y00246
Y00242
Y00238
Y00234
X00262
X00258
X00254
X0025
X00246
X00242
X00238
M30
