G04*
G04 #@! TF.GenerationSoftware,Altium Limited,Altium Designer,21.4.1 (30)*
G04*
G04 Layer_Physical_Order=2*
G04 Layer_Color=36540*
%FSLAX44Y44*%
%MOMM*%
G71*
G04*
G04 #@! TF.SameCoordinates,32E730F9-F919-4429-9A71-2B0F18EA1AEE*
G04*
G04*
G04 #@! TF.FilePolarity,Positive*
G04*
G01*
G75*
%ADD13C,0.2000*%
%ADD47C,0.8000*%
%ADD49C,0.1500*%
%ADD50R,1.4000X1.4000*%
%ADD51C,1.4000*%
%ADD52R,1.4000X1.4000*%
G04:AMPARAMS|DCode=53|XSize=1.7mm|YSize=1.7mm|CornerRadius=0.85mm|HoleSize=0mm|Usage=FLASHONLY|Rotation=270.000|XOffset=0mm|YOffset=0mm|HoleType=Round|Shape=RoundedRectangle|*
%AMROUNDEDRECTD53*
21,1,1.7000,0.0000,0,0,270.0*
21,1,0.0000,1.7000,0,0,270.0*
1,1,1.7000,0.0000,0.0000*
1,1,1.7000,0.0000,0.0000*
1,1,1.7000,0.0000,0.0000*
1,1,1.7000,0.0000,0.0000*
%
%ADD53ROUNDEDRECTD53*%
%ADD54R,1.7000X1.7000*%
G04:AMPARAMS|DCode=55|XSize=1.7mm|YSize=1.7mm|CornerRadius=0.85mm|HoleSize=0mm|Usage=FLASHONLY|Rotation=180.000|XOffset=0mm|YOffset=0mm|HoleType=Round|Shape=RoundedRectangle|*
%AMROUNDEDRECTD55*
21,1,1.7000,0.0000,0,0,180.0*
21,1,0.0000,1.7000,0,0,180.0*
1,1,1.7000,0.0000,0.0000*
1,1,1.7000,0.0000,0.0000*
1,1,1.7000,0.0000,0.0000*
1,1,1.7000,0.0000,0.0000*
%
%ADD55ROUNDEDRECTD55*%
%ADD57C,0.3000*%
%ADD58C,0.8000*%
%ADD59C,0.5000*%
%ADD60C,0.6000*%
%ADD61C,0.4064*%
G36*
X497313Y2687D02*
X2687D01*
Y497313D01*
X497313D01*
Y2687D01*
D02*
G37*
%LPC*%
G36*
X287460Y489196D02*
X286318Y488890D01*
X284142Y487634D01*
X282366Y485858D01*
X281110Y483682D01*
X280804Y482540D01*
X287460D01*
Y489196D01*
D02*
G37*
G36*
X192540D02*
Y482540D01*
X199196D01*
X198890Y483682D01*
X197634Y485858D01*
X195858Y487634D01*
X193682Y488890D01*
X192540Y489196D01*
D02*
G37*
G36*
X187460D02*
X186318Y488890D01*
X184142Y487634D01*
X182366Y485858D01*
X181110Y483682D01*
X180804Y482540D01*
X187460D01*
Y489196D01*
D02*
G37*
G36*
X132540D02*
Y482540D01*
X139196D01*
X138890Y483682D01*
X137634Y485858D01*
X135858Y487634D01*
X133682Y488890D01*
X132540Y489196D01*
D02*
G37*
G36*
X127460D02*
X126318Y488890D01*
X124142Y487634D01*
X122366Y485858D01*
X121110Y483682D01*
X120804Y482540D01*
X127460D01*
Y489196D01*
D02*
G37*
G36*
X312540D02*
Y480000D01*
X307460D01*
Y489196D01*
X306318Y488890D01*
X304142Y487634D01*
X302366Y485858D01*
X301110Y483682D01*
X300658Y481993D01*
X299343D01*
X298890Y483682D01*
X297634Y485858D01*
X295858Y487634D01*
X293682Y488890D01*
X292540Y489196D01*
Y480000D01*
X290000D01*
Y477460D01*
X280804D01*
X281110Y476318D01*
X282366Y474142D01*
X284142Y472366D01*
X286318Y471110D01*
X288008Y470657D01*
Y469343D01*
X286318Y468890D01*
X284142Y467634D01*
X282366Y465858D01*
X281110Y463682D01*
X280804Y462540D01*
X290000D01*
Y460000D01*
X292540D01*
Y450804D01*
X293682Y451110D01*
X295858Y452366D01*
X297634Y454142D01*
X298890Y456318D01*
X299343Y458007D01*
X300658D01*
X301110Y456318D01*
X302366Y454142D01*
X304142Y452366D01*
X306318Y451110D01*
X307460Y450804D01*
Y460000D01*
X312540D01*
Y450804D01*
X313682Y451110D01*
X315858Y452366D01*
X316018Y452527D01*
X317192Y452040D01*
Y357267D01*
X254232Y294308D01*
X253059Y294794D01*
Y398593D01*
X262413Y407947D01*
X262413Y407947D01*
X263076Y408939D01*
X263309Y410110D01*
X263309Y410110D01*
Y452316D01*
X263835Y452534D01*
X264579Y452738D01*
X266526Y451613D01*
X268815Y451000D01*
X271185D01*
X273474Y451613D01*
X275526Y452798D01*
X277202Y454474D01*
X278387Y456526D01*
X279000Y458815D01*
Y461185D01*
X278387Y463474D01*
X277202Y465526D01*
X275526Y467202D01*
X273474Y468387D01*
X271185Y469000D01*
X268815D01*
X266526Y468387D01*
X264579Y467262D01*
X263835Y467466D01*
X263309Y467684D01*
Y468983D01*
X263827Y469501D01*
X263851Y469521D01*
X264082Y469664D01*
X264429Y469822D01*
X264891Y469980D01*
X265468Y470125D01*
X266152Y470249D01*
X266922Y470345D01*
X268841Y470456D01*
X269935Y470461D01*
X270315Y470539D01*
X270705Y470616D01*
X270710Y470619D01*
X270715Y470620D01*
X271037Y470838D01*
X271343Y471042D01*
X273474Y471613D01*
X275526Y472798D01*
X277202Y474474D01*
X278387Y476526D01*
X279000Y478815D01*
Y481185D01*
X278387Y483474D01*
X277202Y485526D01*
X275526Y487202D01*
X273474Y488387D01*
X271185Y489000D01*
X268815D01*
X266526Y488387D01*
X264474Y487202D01*
X262798Y485526D01*
X261613Y483474D01*
X261042Y481343D01*
X260842Y481043D01*
X260620Y480715D01*
X260619Y480710D01*
X260616Y480705D01*
X260540Y480321D01*
X260461Y479935D01*
X260456Y478841D01*
X260345Y476922D01*
X260249Y476153D01*
X260125Y475468D01*
X259979Y474891D01*
X259822Y474429D01*
X259664Y474082D01*
X259521Y473851D01*
X259501Y473827D01*
X258087Y472413D01*
X257424Y471421D01*
X257191Y470250D01*
X257191Y470250D01*
Y467196D01*
X256018Y466710D01*
X255526Y467202D01*
X253474Y468387D01*
X251185Y469000D01*
X248815D01*
X246526Y468387D01*
X244474Y467202D01*
X242798Y465526D01*
X241613Y463474D01*
X241000Y461185D01*
Y458815D01*
X241613Y456526D01*
X242798Y454474D01*
X244474Y452798D01*
X246526Y451613D01*
X246941Y451502D01*
Y408747D01*
X243837Y405643D01*
X243174Y404650D01*
X242941Y403480D01*
X242941Y403480D01*
Y271761D01*
X242673Y271115D01*
X241327D01*
X240967Y271983D01*
X239983Y272967D01*
X238696Y273500D01*
X237304D01*
X236017Y272967D01*
X235033Y271983D01*
X234673Y271115D01*
X233327D01*
X232967Y271983D01*
X231983Y272967D01*
X230696Y273500D01*
X230465D01*
X189331Y314634D01*
X188422Y315242D01*
X187349Y315455D01*
X171903D01*
X170892Y316466D01*
X169238Y317151D01*
X167448D01*
X165794Y316466D01*
X164529Y315200D01*
X163843Y313547D01*
Y311756D01*
X164529Y310102D01*
X165794Y308836D01*
X167448Y308151D01*
X169238D01*
X170892Y308836D01*
X171903Y309848D01*
X186187D01*
X225706Y270329D01*
X225180Y269059D01*
X178117D01*
X173093Y274083D01*
X173619Y275353D01*
X173895D01*
X175549Y276038D01*
X176815Y277304D01*
X177500Y278958D01*
Y280748D01*
X176815Y282402D01*
X175549Y283668D01*
X173895Y284353D01*
X172105D01*
X170451Y283668D01*
X169185Y282402D01*
X168500Y280748D01*
Y280472D01*
X167230Y279946D01*
X164794Y282382D01*
Y303975D01*
X164794Y303975D01*
X164561Y305145D01*
X163898Y306138D01*
X163898Y306138D01*
X57873Y412163D01*
X56880Y412826D01*
X55710Y413059D01*
X55710Y413059D01*
X49160D01*
X49043Y413200D01*
X49000Y413264D01*
Y419000D01*
X31000D01*
Y407941D01*
X29730Y407447D01*
X29617Y407570D01*
X29544Y408841D01*
X29539Y409935D01*
X29461Y410315D01*
X29384Y410705D01*
X29381Y410710D01*
X29380Y410715D01*
X29162Y411038D01*
X28958Y411343D01*
X28387Y413474D01*
X27202Y415526D01*
X25526Y417202D01*
X23474Y418387D01*
X21185Y419000D01*
X18815D01*
X16526Y418387D01*
X14474Y417202D01*
X12798Y415526D01*
X11613Y413474D01*
X11000Y411185D01*
Y408815D01*
X11613Y406526D01*
X12798Y404474D01*
X14474Y402798D01*
X16526Y401614D01*
X18657Y401043D01*
X18957Y400842D01*
X19285Y400621D01*
X19290Y400620D01*
X19295Y400617D01*
X19679Y400540D01*
X20065Y400461D01*
X21159Y400456D01*
X23078Y400346D01*
X23847Y400249D01*
X24532Y400125D01*
X25109Y399980D01*
X25571Y399822D01*
X25917Y399664D01*
X26149Y399521D01*
X26173Y399501D01*
X27977Y397697D01*
X27977Y397697D01*
X28970Y397034D01*
X30140Y396801D01*
X32414D01*
X32900Y395628D01*
X32798Y395526D01*
X31613Y393474D01*
X31000Y391185D01*
Y388815D01*
X31613Y386526D01*
X32798Y384474D01*
X34474Y382799D01*
X36526Y381614D01*
X38815Y381000D01*
X41185D01*
X43474Y381614D01*
X45526Y382799D01*
X47202Y384474D01*
X48387Y386526D01*
X49000Y388815D01*
Y391185D01*
X48387Y393474D01*
X47202Y395526D01*
X47100Y395628D01*
X47586Y396801D01*
X58233D01*
X154231Y300803D01*
Y281904D01*
X153058Y281418D01*
X122312Y312163D01*
X121320Y312826D01*
X120150Y313059D01*
X120149Y313059D01*
X48498D01*
X48387Y313474D01*
X47202Y315526D01*
X45526Y317202D01*
X43474Y318387D01*
X41185Y319000D01*
X38815D01*
X36526Y318387D01*
X34474Y317202D01*
X32798Y315526D01*
X31613Y313474D01*
X31000Y311185D01*
Y308815D01*
X31613Y306526D01*
X32738Y304579D01*
X32533Y303833D01*
X32316Y303309D01*
X31017D01*
X30499Y303827D01*
X30479Y303851D01*
X30336Y304083D01*
X30178Y304429D01*
X30021Y304892D01*
X29875Y305468D01*
X29751Y306153D01*
X29655Y306922D01*
X29544Y308841D01*
X29539Y309935D01*
X29461Y310316D01*
X29384Y310706D01*
X29381Y310710D01*
X29380Y310715D01*
X29161Y311038D01*
X28958Y311343D01*
X28387Y313474D01*
X27202Y315526D01*
X25526Y317202D01*
X23474Y318387D01*
X21185Y319000D01*
X18815D01*
X16526Y318387D01*
X14474Y317202D01*
X12798Y315526D01*
X11613Y313474D01*
X11000Y311185D01*
Y308815D01*
X11613Y306526D01*
X12798Y304474D01*
X14474Y302798D01*
X16526Y301614D01*
X18657Y301042D01*
X18959Y300841D01*
X19285Y300620D01*
X19290Y300619D01*
X19295Y300617D01*
X19679Y300540D01*
X20065Y300461D01*
X21159Y300456D01*
X23078Y300346D01*
X23847Y300250D01*
X24532Y300125D01*
X25109Y299980D01*
X25571Y299822D01*
X25918Y299664D01*
X26149Y299521D01*
X26174Y299501D01*
X27587Y298088D01*
X27587Y298088D01*
X28579Y297425D01*
X29750Y297192D01*
X32804D01*
X33290Y296018D01*
X32798Y295526D01*
X31613Y293474D01*
X31000Y291185D01*
Y288815D01*
X31613Y286526D01*
X32798Y284474D01*
X34474Y282798D01*
X36526Y281614D01*
X38815Y281000D01*
X41185D01*
X43474Y281614D01*
X45526Y282798D01*
X47202Y284474D01*
X48387Y286526D01*
X49000Y288815D01*
Y291185D01*
X48387Y293474D01*
X47202Y295526D01*
X46710Y296018D01*
X47196Y297192D01*
X122302D01*
X175422Y244072D01*
X174936Y242899D01*
X77277D01*
X57853Y262323D01*
X56860Y262986D01*
X55690Y263219D01*
X55690Y263219D01*
X47606D01*
X47120Y264392D01*
X47202Y264474D01*
X48387Y266526D01*
X49000Y268815D01*
Y271185D01*
X48387Y273474D01*
X47202Y275526D01*
X45526Y277202D01*
X43474Y278387D01*
X41185Y279000D01*
X38815D01*
X36526Y278387D01*
X34474Y277202D01*
X32798Y275526D01*
X31613Y273474D01*
X31000Y271185D01*
Y268815D01*
X31613Y266526D01*
X32798Y264474D01*
X32880Y264392D01*
X32394Y263219D01*
X31107D01*
X30499Y263827D01*
X30479Y263851D01*
X30336Y264083D01*
X30178Y264429D01*
X30021Y264892D01*
X29875Y265468D01*
X29751Y266153D01*
X29655Y266922D01*
X29544Y268842D01*
X29539Y269936D01*
X29461Y270317D01*
X29384Y270706D01*
X29381Y270710D01*
X29380Y270715D01*
X29161Y271038D01*
X28958Y271343D01*
X28387Y273474D01*
X27202Y275526D01*
X25526Y277202D01*
X23474Y278387D01*
X21185Y279000D01*
X18815D01*
X16526Y278387D01*
X14474Y277202D01*
X12798Y275526D01*
X11613Y273474D01*
X11000Y271185D01*
Y268815D01*
X11613Y266526D01*
X12798Y264474D01*
X14474Y262799D01*
X16526Y261614D01*
X18657Y261042D01*
X18959Y260841D01*
X19285Y260621D01*
X19290Y260620D01*
X19295Y260617D01*
X19679Y260540D01*
X20065Y260462D01*
X21159Y260456D01*
X23078Y260346D01*
X23847Y260250D01*
X24532Y260125D01*
X25109Y259980D01*
X25571Y259822D01*
X25918Y259664D01*
X26149Y259522D01*
X26174Y259501D01*
X27678Y257997D01*
X27678Y257997D01*
X28670Y257334D01*
X29840Y257101D01*
X29841Y257101D01*
X32714D01*
X33200Y255928D01*
X32798Y255526D01*
X31613Y253474D01*
X31000Y251185D01*
Y248815D01*
X31613Y246526D01*
X32798Y244474D01*
X34474Y242798D01*
X36526Y241613D01*
X38815Y241000D01*
X41185D01*
X43474Y241613D01*
X45526Y242798D01*
X47202Y244474D01*
X48387Y246526D01*
X49000Y248815D01*
Y251185D01*
X48387Y253474D01*
X47202Y255526D01*
X46800Y255928D01*
X47286Y257101D01*
X54423D01*
X73847Y237677D01*
X74840Y237014D01*
X76010Y236781D01*
X76010Y236781D01*
X85296D01*
X85782Y235608D01*
X73483Y223309D01*
X47684D01*
X47466Y223835D01*
X47262Y224579D01*
X48387Y226526D01*
X49000Y228815D01*
Y231185D01*
X48387Y233474D01*
X47202Y235526D01*
X45526Y237202D01*
X43474Y238387D01*
X41185Y239000D01*
X38815D01*
X36526Y238387D01*
X34474Y237202D01*
X32798Y235526D01*
X31613Y233474D01*
X31000Y231185D01*
Y228815D01*
X31613Y226526D01*
X32738Y224579D01*
X32534Y223835D01*
X32316Y223309D01*
X31017D01*
X30499Y223827D01*
X30479Y223851D01*
X30336Y224083D01*
X30178Y224429D01*
X30020Y224891D01*
X29875Y225468D01*
X29751Y226153D01*
X29655Y226922D01*
X29544Y228841D01*
X29539Y229935D01*
X29461Y230315D01*
X29384Y230705D01*
X29381Y230710D01*
X29380Y230715D01*
X29162Y231037D01*
X28958Y231343D01*
X28387Y233474D01*
X27202Y235526D01*
X25526Y237202D01*
X23474Y238387D01*
X21185Y239000D01*
X18815D01*
X16526Y238387D01*
X14474Y237202D01*
X12798Y235526D01*
X11613Y233474D01*
X11000Y231185D01*
Y228815D01*
X11613Y226526D01*
X12798Y224474D01*
X14474Y222798D01*
X16526Y221613D01*
X18657Y221042D01*
X18957Y220842D01*
X19005Y220810D01*
X18756Y219599D01*
X18722Y219534D01*
X16318Y218890D01*
X14142Y217634D01*
X12366Y215858D01*
X11110Y213682D01*
X10804Y212540D01*
X20000D01*
Y207460D01*
X10804D01*
X11110Y206318D01*
X12366Y204142D01*
X14142Y202366D01*
X16318Y201110D01*
X18007Y200657D01*
Y199342D01*
X16318Y198890D01*
X14142Y197634D01*
X12366Y195858D01*
X11110Y193682D01*
X10804Y192540D01*
X20000D01*
Y190000D01*
X22540D01*
Y180804D01*
X23682Y181110D01*
X25858Y182366D01*
X27634Y184142D01*
X28890Y186318D01*
X29343Y188007D01*
X30657D01*
X31110Y186318D01*
X32366Y184142D01*
X34142Y182366D01*
X36318Y181110D01*
X37460Y180804D01*
Y190000D01*
X40000D01*
Y192540D01*
X49196D01*
X48890Y193682D01*
X47634Y195858D01*
X45858Y197634D01*
X43682Y198890D01*
X41993Y199342D01*
Y200657D01*
X43682Y201110D01*
X45858Y202366D01*
X47634Y204142D01*
X48890Y206318D01*
X49196Y207460D01*
X40000D01*
Y212540D01*
X49196D01*
X48890Y213682D01*
X47634Y215858D01*
X47474Y216018D01*
X47959Y217191D01*
X73569D01*
X74096Y215921D01*
X70597Y212423D01*
X69934Y211430D01*
X69701Y210260D01*
X69701Y210260D01*
Y180707D01*
X62053Y173059D01*
X48498D01*
X48387Y173474D01*
X47202Y175526D01*
X45526Y177202D01*
X43474Y178387D01*
X41185Y179000D01*
X38815D01*
X36526Y178387D01*
X34474Y177202D01*
X32798Y175526D01*
X31613Y173474D01*
X31000Y171185D01*
Y168815D01*
X31613Y166526D01*
X32738Y164579D01*
X32533Y163833D01*
X32316Y163309D01*
X31017D01*
X30499Y163827D01*
X30479Y163851D01*
X30336Y164082D01*
X30178Y164429D01*
X30021Y164891D01*
X29875Y165468D01*
X29751Y166153D01*
X29655Y166922D01*
X29544Y168841D01*
X29539Y169935D01*
X29461Y170316D01*
X29384Y170705D01*
X29381Y170710D01*
X29380Y170715D01*
X29161Y171038D01*
X28958Y171343D01*
X28387Y173474D01*
X27202Y175526D01*
X25526Y177202D01*
X23474Y178387D01*
X21185Y179000D01*
X18815D01*
X16526Y178387D01*
X14474Y177202D01*
X12798Y175526D01*
X11613Y173474D01*
X11000Y171185D01*
Y168815D01*
X11613Y166526D01*
X12798Y164474D01*
X14474Y162798D01*
X16526Y161613D01*
X18657Y161042D01*
X18959Y160841D01*
X19285Y160620D01*
X19290Y160619D01*
X19295Y160616D01*
X19679Y160540D01*
X20065Y160461D01*
X21159Y160456D01*
X23078Y160345D01*
X23847Y160249D01*
X24532Y160125D01*
X25109Y159979D01*
X25571Y159822D01*
X25918Y159664D01*
X26149Y159521D01*
X26174Y159501D01*
X27587Y158087D01*
X27587Y158087D01*
X28579Y157424D01*
X29750Y157191D01*
X32804D01*
X33290Y156018D01*
X32798Y155526D01*
X31613Y153474D01*
X31000Y151185D01*
Y148815D01*
X31613Y146526D01*
X32738Y144579D01*
X32533Y143833D01*
X32316Y143309D01*
X31017D01*
X30499Y143827D01*
X30479Y143851D01*
X30336Y144082D01*
X30178Y144429D01*
X30021Y144891D01*
X29875Y145468D01*
X29751Y146153D01*
X29655Y146922D01*
X29544Y148841D01*
X29539Y149935D01*
X29461Y150316D01*
X29384Y150705D01*
X29381Y150710D01*
X29380Y150715D01*
X29161Y151038D01*
X28958Y151343D01*
X28387Y153474D01*
X27202Y155526D01*
X25526Y157202D01*
X23474Y158387D01*
X21185Y159000D01*
X18815D01*
X16526Y158387D01*
X14474Y157202D01*
X12798Y155526D01*
X11613Y153474D01*
X11000Y151185D01*
Y148815D01*
X11613Y146526D01*
X12798Y144474D01*
X14474Y142798D01*
X16526Y141613D01*
X18657Y141042D01*
X18959Y140841D01*
X19285Y140620D01*
X19290Y140619D01*
X19295Y140616D01*
X19679Y140540D01*
X20065Y140461D01*
X21159Y140456D01*
X23078Y140345D01*
X23847Y140249D01*
X24532Y140125D01*
X25109Y139980D01*
X25571Y139822D01*
X25918Y139664D01*
X26149Y139521D01*
X26174Y139501D01*
X27587Y138087D01*
X27587Y138087D01*
X28579Y137424D01*
X29750Y137191D01*
X32805D01*
X33291Y136018D01*
X32798Y135526D01*
X31613Y133474D01*
X31000Y131185D01*
Y128815D01*
X31613Y126526D01*
X32738Y124579D01*
X32534Y123835D01*
X32316Y123308D01*
X31017D01*
X30499Y123826D01*
X30479Y123850D01*
X30336Y124082D01*
X30178Y124429D01*
X30020Y124891D01*
X29875Y125467D01*
X29751Y126152D01*
X29655Y126921D01*
X29544Y128841D01*
X29539Y129935D01*
X29461Y130314D01*
X29384Y130705D01*
X29381Y130709D01*
X29380Y130715D01*
X29162Y131037D01*
X28958Y131342D01*
X28387Y133474D01*
X27202Y135526D01*
X25526Y137201D01*
X23474Y138386D01*
X21185Y139000D01*
X18815D01*
X16526Y138386D01*
X14474Y137201D01*
X12798Y135526D01*
X11613Y133474D01*
X11000Y131185D01*
Y128815D01*
X11613Y126526D01*
X12798Y124474D01*
X14474Y122798D01*
X16526Y121613D01*
X18657Y121042D01*
X18957Y120842D01*
X19285Y120620D01*
X19290Y120619D01*
X19295Y120616D01*
X19679Y120540D01*
X20065Y120461D01*
X21159Y120456D01*
X23078Y120345D01*
X23847Y120249D01*
X24532Y120124D01*
X25109Y119979D01*
X25571Y119822D01*
X25917Y119663D01*
X26149Y119521D01*
X26173Y119501D01*
X27587Y118087D01*
X27587Y118087D01*
X28579Y117424D01*
X29750Y117191D01*
X32804D01*
X33290Y116018D01*
X32798Y115526D01*
X31613Y113474D01*
X31000Y111185D01*
Y108815D01*
X31613Y106526D01*
X32798Y104474D01*
X34474Y102798D01*
X36526Y101613D01*
X38815Y101000D01*
X41185D01*
X43474Y101613D01*
X45526Y102798D01*
X47202Y104474D01*
X48387Y106526D01*
X49000Y108815D01*
Y111185D01*
X48387Y113474D01*
X47202Y115526D01*
X46710Y116018D01*
X47196Y117191D01*
X49553D01*
X58907Y107837D01*
X58907Y107837D01*
X59900Y107174D01*
X61070Y106941D01*
X61070Y106941D01*
X98250D01*
X98250Y106941D01*
X99420Y107174D01*
X100413Y107837D01*
X130767Y138191D01*
X195500D01*
X195500Y138191D01*
X196141Y137024D01*
Y128845D01*
X195385Y128089D01*
X194700Y126435D01*
Y124645D01*
X195385Y122991D01*
X196651Y121725D01*
X198305Y121040D01*
X200095D01*
X201749Y121725D01*
X203015Y122991D01*
X203700Y124645D01*
Y126435D01*
X203015Y128089D01*
X202259Y128845D01*
Y136973D01*
X212748Y147462D01*
X213921Y146976D01*
Y120737D01*
X206950Y113766D01*
X205680Y114292D01*
Y114445D01*
X204995Y116099D01*
X203729Y117365D01*
X202075Y118050D01*
X200285D01*
X198631Y117365D01*
X197365Y116099D01*
X196680Y114445D01*
Y113376D01*
X191146Y107842D01*
X143937D01*
X142766Y107609D01*
X141774Y106946D01*
X87837Y53009D01*
X87174Y52017D01*
X86941Y50846D01*
X86941Y50846D01*
Y49160D01*
X86800Y49043D01*
X86736Y49000D01*
X81000D01*
Y31000D01*
X99000D01*
Y49000D01*
X94276D01*
X93750Y50270D01*
X145204Y101724D01*
X192413D01*
X192413Y101724D01*
X193286Y101898D01*
X194025Y100841D01*
X188817Y95633D01*
X188385Y94986D01*
X187211Y94686D01*
X186871Y94703D01*
X186509Y95065D01*
X184855Y95750D01*
X183065D01*
X181411Y95065D01*
X180655Y94309D01*
X142050D01*
X142050Y94309D01*
X140879Y94076D01*
X139887Y93413D01*
X139887Y93413D01*
X117587Y71113D01*
X116924Y70120D01*
X116691Y68950D01*
X116691Y68950D01*
Y47684D01*
X116165Y47466D01*
X115421Y47262D01*
X113474Y48387D01*
X111185Y49000D01*
X108815D01*
X106526Y48387D01*
X104474Y47202D01*
X102798Y45526D01*
X101613Y43474D01*
X101000Y41185D01*
Y38815D01*
X101613Y36526D01*
X102798Y34474D01*
X104474Y32798D01*
X106526Y31613D01*
X108815Y31000D01*
X111185D01*
X113474Y31613D01*
X115421Y32738D01*
X116165Y32534D01*
X116691Y32316D01*
Y31017D01*
X116173Y30499D01*
X116149Y30479D01*
X115917Y30336D01*
X115571Y30178D01*
X115108Y30020D01*
X114532Y29875D01*
X113847Y29751D01*
X113078Y29655D01*
X111159Y29544D01*
X110065Y29539D01*
X109685Y29461D01*
X109295Y29384D01*
X109290Y29381D01*
X109285Y29380D01*
X108962Y29162D01*
X108657Y28958D01*
X106526Y28387D01*
X104474Y27202D01*
X102798Y25526D01*
X101613Y23474D01*
X101000Y21185D01*
Y18815D01*
X101613Y16526D01*
X102798Y14474D01*
X104474Y12798D01*
X106526Y11613D01*
X108815Y11000D01*
X111185D01*
X113474Y11613D01*
X115526Y12798D01*
X117201Y14474D01*
X118386Y16526D01*
X118957Y18657D01*
X119158Y18957D01*
X119379Y19285D01*
X119381Y19290D01*
X119383Y19295D01*
X119460Y19679D01*
X119538Y20065D01*
X119544Y21159D01*
X119654Y23078D01*
X119750Y23847D01*
X119875Y24532D01*
X120020Y25109D01*
X120178Y25571D01*
X120336Y25917D01*
X120479Y26149D01*
X120499Y26173D01*
X121913Y27587D01*
X121913Y27587D01*
X122576Y28579D01*
X122809Y29750D01*
Y32804D01*
X123982Y33290D01*
X124474Y32798D01*
X126526Y31613D01*
X128815Y31000D01*
X131185D01*
X133474Y31613D01*
X135388Y32719D01*
X136518Y32387D01*
X136658Y32329D01*
Y30283D01*
X136658Y30283D01*
X136891Y29113D01*
X137554Y28120D01*
X139501Y26173D01*
X139521Y26149D01*
X139664Y25918D01*
X139822Y25571D01*
X139979Y25109D01*
X140125Y24532D01*
X140249Y23847D01*
X140345Y23078D01*
X140456Y21159D01*
X140461Y20065D01*
X140539Y19683D01*
X140616Y19295D01*
X140619Y19290D01*
X140620Y19285D01*
X140839Y18961D01*
X141042Y18657D01*
X141613Y16526D01*
X142798Y14474D01*
X144474Y12798D01*
X146526Y11613D01*
X148815Y11000D01*
X151185D01*
X153474Y11613D01*
X155526Y12798D01*
X157202Y14474D01*
X158387Y16526D01*
X159000Y18815D01*
Y21185D01*
X158387Y23474D01*
X157202Y25526D01*
X155526Y27202D01*
X153474Y28387D01*
X151343Y28958D01*
X151040Y29160D01*
X150715Y29380D01*
X150710Y29381D01*
X150705Y29384D01*
X150319Y29460D01*
X149935Y29539D01*
X148841Y29544D01*
X146922Y29655D01*
X146153Y29751D01*
X145467Y29875D01*
X144891Y30020D01*
X144429Y30178D01*
X144082Y30336D01*
X143851Y30479D01*
X143827Y30499D01*
X142799Y31527D01*
X142920Y32760D01*
X144046Y33226D01*
X144474Y32798D01*
X146526Y31613D01*
X148815Y31000D01*
X151185D01*
X153474Y31613D01*
X155526Y32798D01*
X157202Y34474D01*
X158387Y36526D01*
X159000Y38815D01*
Y41185D01*
X158387Y43474D01*
X157202Y45526D01*
X155526Y47202D01*
X153474Y48387D01*
X151185Y49000D01*
X148815D01*
X146526Y48387D01*
X144474Y47202D01*
X144046Y46774D01*
X142776Y47300D01*
Y60674D01*
X143076Y61017D01*
X144046Y61424D01*
X144159Y61348D01*
X144750Y61231D01*
X145307Y61000D01*
X145909D01*
X146500Y60883D01*
X147091Y61000D01*
X147694D01*
X147699Y61002D01*
X269794D01*
X270642Y59732D01*
X270291Y58885D01*
Y56895D01*
X271052Y55058D01*
X272459Y53651D01*
X274296Y52890D01*
X276286D01*
X278123Y53651D01*
X279530Y55058D01*
X280291Y56895D01*
Y58885D01*
X279940Y59732D01*
X280788Y61002D01*
X286830D01*
X289171Y61468D01*
X291156Y62794D01*
X292426Y64064D01*
X293752Y66049D01*
X294217Y68390D01*
Y76010D01*
X294100Y76601D01*
Y77203D01*
X293869Y77760D01*
X293752Y78351D01*
X293417Y78852D01*
X293187Y79409D01*
X292761Y79835D01*
X292426Y80336D01*
X291925Y80670D01*
X291499Y81097D01*
X290942Y81327D01*
X290441Y81662D01*
X289850Y81779D01*
X289293Y82010D01*
X288691D01*
X288100Y82128D01*
X287509Y82010D01*
X286907D01*
X286350Y81779D01*
X285759Y81662D01*
X285258Y81327D01*
X284701Y81097D01*
X284275Y80670D01*
X283774Y80336D01*
X283440Y79835D01*
X283013Y79409D01*
X282783Y78852D01*
X282448Y78351D01*
X282331Y77760D01*
X282100Y77203D01*
Y76601D01*
X281982Y76010D01*
Y73238D01*
X216398D01*
X215872Y74507D01*
X216315Y74951D01*
X217000Y76605D01*
Y78395D01*
X216315Y80049D01*
X215049Y81315D01*
X213617Y81908D01*
X213243Y82799D01*
X213154Y83270D01*
X214568Y85719D01*
X215029Y87440D01*
X206820D01*
Y79231D01*
X207182Y79328D01*
X207278Y79219D01*
X208000Y78232D01*
Y76605D01*
X208685Y74951D01*
X209128Y74507D01*
X208603Y73238D01*
X146620D01*
X145426Y73000D01*
X145307D01*
X145196Y72954D01*
X144909Y72897D01*
X143650Y73630D01*
X143527Y73797D01*
X143440Y74364D01*
X145837Y76761D01*
X184630D01*
X184630Y76761D01*
X185800Y76994D01*
X186793Y77657D01*
X193143Y84007D01*
X193143Y84007D01*
X193342Y84305D01*
X194239Y84416D01*
X194837Y84256D01*
X195446Y83201D01*
X197501Y81146D01*
X200019Y79692D01*
X201740Y79231D01*
Y89980D01*
X204280D01*
Y92520D01*
X215029D01*
X214568Y94241D01*
X213114Y96759D01*
X211059Y98814D01*
X208541Y100268D01*
X205733Y101020D01*
X204515D01*
X204029Y102193D01*
X219143Y117307D01*
X219806Y118300D01*
X220039Y119470D01*
Y148463D01*
X239577Y168001D01*
X240890Y167518D01*
X241435Y166201D01*
X242701Y164935D01*
X244355Y164250D01*
X246145D01*
X247799Y164935D01*
X249065Y166201D01*
X249750Y167855D01*
Y169645D01*
X249065Y171299D01*
X247799Y172565D01*
X246482Y173110D01*
X245999Y174423D01*
X253768Y182192D01*
X254941Y181706D01*
Y120837D01*
X247634Y113530D01*
X246565D01*
X244911Y112845D01*
X243645Y111579D01*
X242960Y109925D01*
Y108135D01*
X243645Y106481D01*
X244911Y105215D01*
X246565Y104530D01*
X248355D01*
X250009Y105215D01*
X250786Y105992D01*
X251101Y105941D01*
X252021Y105431D01*
Y100480D01*
X244580D01*
Y79480D01*
X265580D01*
Y100480D01*
X258139D01*
Y104528D01*
X264163Y110552D01*
X264163Y110552D01*
X264826Y111545D01*
X265059Y112715D01*
Y121006D01*
X266232Y121492D01*
X337192Y50533D01*
Y47196D01*
X336018Y46710D01*
X335526Y47202D01*
X333474Y48387D01*
X331185Y49000D01*
X328815D01*
X326526Y48387D01*
X324474Y47202D01*
X322798Y45526D01*
X321614Y43474D01*
X321000Y41185D01*
Y38815D01*
X321614Y36526D01*
X322798Y34474D01*
X324474Y32798D01*
X326526Y31613D01*
X328815Y31000D01*
X331185D01*
X333474Y31613D01*
X335526Y32798D01*
X336018Y33290D01*
X337192Y32804D01*
Y29750D01*
X337192Y29750D01*
X337424Y28579D01*
X338087Y27587D01*
X339501Y26174D01*
X339521Y26149D01*
X339664Y25918D01*
X339822Y25571D01*
X339980Y25109D01*
X340125Y24532D01*
X340249Y23847D01*
X340345Y23078D01*
X340456Y21159D01*
X340461Y20065D01*
X340539Y19684D01*
X340616Y19295D01*
X340619Y19290D01*
X340620Y19285D01*
X340840Y18960D01*
X341042Y18657D01*
X341613Y16526D01*
X342798Y14474D01*
X344474Y12798D01*
X346526Y11613D01*
X348815Y11000D01*
X351185D01*
X353474Y11613D01*
X355526Y12798D01*
X357202Y14474D01*
X358387Y16526D01*
X359000Y18815D01*
Y21185D01*
X358387Y23474D01*
X357202Y25526D01*
X355526Y27202D01*
X353474Y28387D01*
X351343Y28958D01*
X351044Y29158D01*
X350715Y29380D01*
X350710Y29381D01*
X350706Y29384D01*
X350323Y29460D01*
X349935Y29539D01*
X348841Y29544D01*
X346922Y29655D01*
X346153Y29751D01*
X345468Y29875D01*
X344892Y30021D01*
X344429Y30178D01*
X344082Y30336D01*
X343851Y30479D01*
X343827Y30499D01*
X343309Y31017D01*
Y32316D01*
X343833Y32533D01*
X344579Y32738D01*
X346526Y31613D01*
X348815Y31000D01*
X351185D01*
X353474Y31613D01*
X355526Y32798D01*
X357202Y34474D01*
X358387Y36526D01*
X359000Y38815D01*
Y41185D01*
X358387Y43474D01*
X357202Y45526D01*
X355526Y47202D01*
X353474Y48387D01*
X353059Y48498D01*
Y57290D01*
X352826Y58460D01*
X352163Y59453D01*
X352163Y59453D01*
X334510Y77106D01*
Y78175D01*
X333825Y79829D01*
X332559Y81095D01*
X330905Y81780D01*
X329115D01*
X327461Y81095D01*
X326195Y79829D01*
X325510Y78175D01*
Y76385D01*
X326195Y74731D01*
X327461Y73465D01*
X329115Y72780D01*
X330184D01*
X346941Y56023D01*
Y48498D01*
X346526Y48387D01*
X344579Y47263D01*
X343833Y47467D01*
X343309Y47684D01*
Y51800D01*
X343076Y52970D01*
X342413Y53963D01*
X342413Y53963D01*
X282205Y114171D01*
X282453Y115416D01*
X283029Y115655D01*
X284295Y116921D01*
X284980Y118575D01*
Y120365D01*
X284295Y122019D01*
X283029Y123285D01*
X281375Y123970D01*
X280306D01*
X273059Y131217D01*
Y137038D01*
X274283Y137148D01*
X274968Y135494D01*
X276234Y134229D01*
X277888Y133544D01*
X279678D01*
X281332Y134229D01*
X282088Y134985D01*
X294650D01*
X339061Y90573D01*
X338560Y89278D01*
X337201Y88715D01*
X335935Y87449D01*
X335250Y85795D01*
Y84005D01*
X335935Y82351D01*
X337201Y81085D01*
X338855Y80400D01*
X340645D01*
X342299Y81085D01*
X343565Y82351D01*
X344191Y83861D01*
X344576Y84185D01*
X344865Y84346D01*
X345520Y84580D01*
X346520Y84381D01*
X346520Y84381D01*
X368321D01*
X368847Y83111D01*
X368105Y82369D01*
X367420Y80715D01*
Y78925D01*
X368105Y77271D01*
X369371Y76005D01*
X371025Y75320D01*
X372815D01*
X374469Y76005D01*
X375735Y77271D01*
X376420Y78925D01*
Y80715D01*
X375735Y82369D01*
X374993Y83111D01*
X375519Y84381D01*
X386695D01*
X387451Y83625D01*
X389105Y82940D01*
X390895D01*
X392549Y83625D01*
X393815Y84891D01*
X394500Y86545D01*
Y88335D01*
X394034Y89461D01*
X394732Y90731D01*
X401133D01*
X419287Y72577D01*
X420280Y71914D01*
X421450Y71681D01*
X464740D01*
X464740Y71681D01*
X465911Y71914D01*
X466903Y72577D01*
X476154Y81828D01*
X476526Y81613D01*
X478815Y81000D01*
X481185D01*
X483474Y81613D01*
X485526Y82798D01*
X487202Y84474D01*
X488387Y86526D01*
X489000Y88815D01*
Y91185D01*
X488387Y93474D01*
X487202Y95526D01*
X485526Y97202D01*
X483474Y98386D01*
X481185Y99000D01*
X478815D01*
X476526Y98386D01*
X474474Y97202D01*
X472798Y95526D01*
X471613Y93474D01*
X471000Y91185D01*
Y88815D01*
X471613Y86526D01*
X471828Y86154D01*
X463473Y77799D01*
X422717D01*
X404563Y95953D01*
X403571Y96616D01*
X402400Y96849D01*
X402400Y96849D01*
X350327D01*
X329430Y117746D01*
Y118815D01*
X328745Y120469D01*
X327479Y121735D01*
X325825Y122420D01*
X324035D01*
X322381Y121735D01*
X321115Y120469D01*
X320675Y119407D01*
X319257Y119029D01*
X298079Y140206D01*
X297087Y140870D01*
X295917Y141102D01*
X295916Y141102D01*
X282088D01*
X281332Y141859D01*
X279678Y142544D01*
X277888D01*
X276234Y141859D01*
X274968Y140593D01*
X274283Y138939D01*
X273059Y139049D01*
Y143988D01*
X274329Y144499D01*
X275775Y143900D01*
X277565D01*
X279219Y144585D01*
X280485Y145851D01*
X281170Y147505D01*
Y149295D01*
X280485Y150949D01*
X279219Y152215D01*
X277565Y152900D01*
X275775D01*
X274329Y152301D01*
X273059Y152812D01*
Y186317D01*
X274232Y186803D01*
X274541Y186493D01*
X276747Y185580D01*
X279133D01*
X281339Y186493D01*
X283027Y188181D01*
X283940Y190387D01*
Y192773D01*
X283027Y194979D01*
X281339Y196667D01*
X279133Y197580D01*
X276747D01*
X274541Y196667D01*
X274232Y196357D01*
X273059Y196843D01*
Y228239D01*
X273500Y229304D01*
Y230696D01*
X273664Y230941D01*
X335853D01*
X343087Y223707D01*
X343087Y223707D01*
X344079Y223044D01*
X345250Y222811D01*
X349565D01*
X350321Y222055D01*
X351975Y221370D01*
X353765D01*
X355419Y222055D01*
X356685Y223321D01*
X357370Y224975D01*
Y225400D01*
X358640Y226157D01*
X358706Y226121D01*
Y148396D01*
X358706Y148396D01*
X358938Y147225D01*
X359602Y146233D01*
X365947Y139887D01*
X365947Y139887D01*
X366940Y139224D01*
X368110Y138991D01*
X368110Y138991D01*
X426683D01*
X451828Y113846D01*
X451613Y113474D01*
X451000Y111185D01*
Y108815D01*
X451613Y106526D01*
X452798Y104474D01*
X454474Y102798D01*
X456526Y101613D01*
X458815Y101000D01*
X461185D01*
X463474Y101613D01*
X465526Y102798D01*
X467202Y104474D01*
X468387Y106526D01*
X469000Y108815D01*
Y111185D01*
X468387Y113474D01*
X467202Y115526D01*
X465526Y117201D01*
X463474Y118386D01*
X461185Y119000D01*
X458815D01*
X456526Y118386D01*
X456154Y118172D01*
X432308Y142018D01*
X432794Y143191D01*
X442483D01*
X451828Y133846D01*
X451613Y133474D01*
X451000Y131185D01*
Y128815D01*
X451613Y126526D01*
X452798Y124474D01*
X454474Y122798D01*
X456526Y121613D01*
X458815Y121000D01*
X461185D01*
X463474Y121613D01*
X465526Y122798D01*
X467202Y124474D01*
X468387Y126526D01*
X469000Y128815D01*
Y131185D01*
X468387Y133474D01*
X467202Y135526D01*
X465526Y137201D01*
X463474Y138386D01*
X461185Y139000D01*
X458815D01*
X456526Y138386D01*
X456154Y138172D01*
X445913Y148413D01*
X445584Y148632D01*
X445344Y150188D01*
X451206Y156051D01*
X451655Y156088D01*
X451671Y156082D01*
X452217Y154520D01*
X451613Y153474D01*
X451000Y151185D01*
Y148815D01*
X451613Y146526D01*
X452798Y144474D01*
X454474Y142798D01*
X456526Y141613D01*
X458815Y141000D01*
X461185D01*
X463474Y141613D01*
X465526Y142798D01*
X467202Y144474D01*
X468387Y146526D01*
X469000Y148815D01*
Y151185D01*
X468387Y153474D01*
X467262Y155421D01*
X467465Y156162D01*
X467685Y156691D01*
X468983D01*
X469501Y156173D01*
X469521Y156149D01*
X469664Y155918D01*
X469822Y155571D01*
X469980Y155109D01*
X470125Y154532D01*
X470249Y153847D01*
X470345Y153079D01*
X470456Y151159D01*
X470461Y150065D01*
X470539Y149683D01*
X470616Y149295D01*
X470619Y149291D01*
X470620Y149285D01*
X470840Y148960D01*
X471042Y148658D01*
X471613Y146526D01*
X472798Y144474D01*
X474474Y142798D01*
X476526Y141613D01*
X478815Y141000D01*
X481185D01*
X483474Y141613D01*
X485526Y142798D01*
X487202Y144474D01*
X488387Y146526D01*
X489000Y148815D01*
Y151185D01*
X488387Y153474D01*
X487202Y155526D01*
X485526Y157202D01*
X483474Y158387D01*
X481343Y158958D01*
X481043Y159158D01*
X480715Y159380D01*
X480710Y159381D01*
X480706Y159383D01*
X480321Y159460D01*
X479935Y159539D01*
X478841Y159544D01*
X476922Y159655D01*
X476153Y159751D01*
X475468Y159875D01*
X474892Y160021D01*
X474429Y160178D01*
X474083Y160336D01*
X473851Y160479D01*
X473827Y160499D01*
X472413Y161913D01*
X471421Y162576D01*
X470250Y162809D01*
X470250Y162809D01*
X467196D01*
X466710Y163982D01*
X467202Y164474D01*
X468387Y166526D01*
X469000Y168815D01*
Y171185D01*
X468387Y173474D01*
X467202Y175526D01*
X465526Y177202D01*
X463474Y178387D01*
X461185Y179000D01*
X458815D01*
X456526Y178387D01*
X454474Y177202D01*
X452798Y175526D01*
X451613Y173474D01*
X451502Y173059D01*
X450670D01*
X450670Y173059D01*
X449500Y172826D01*
X448507Y172163D01*
X434653Y158309D01*
X401684D01*
X401470Y159490D01*
X401470D01*
Y180490D01*
X380470D01*
Y162345D01*
X379297Y161859D01*
X378309Y162847D01*
Y231456D01*
X379482Y231942D01*
X379797Y231627D01*
X379797Y231627D01*
X380789Y230964D01*
X381960Y230731D01*
X384649D01*
X384989Y229461D01*
X384523Y229192D01*
X382568Y227237D01*
X381186Y224843D01*
X380470Y222172D01*
Y219408D01*
X381186Y216737D01*
X382568Y214343D01*
X384523Y212388D01*
X386917Y211006D01*
X389588Y210290D01*
X392352D01*
X395023Y211006D01*
X397417Y212388D01*
X399372Y214343D01*
X400754Y216737D01*
X401470Y219408D01*
Y222172D01*
X400754Y224843D01*
X399372Y227237D01*
X397417Y229192D01*
X396951Y229461D01*
X397291Y230731D01*
X443790D01*
X443790Y230731D01*
X444961Y230964D01*
X445953Y231627D01*
X456154Y241828D01*
X456526Y241613D01*
X458815Y241000D01*
X461185D01*
X463474Y241613D01*
X465526Y242798D01*
X467202Y244474D01*
X468387Y246526D01*
X469000Y248815D01*
Y251185D01*
X468387Y253474D01*
X467202Y255526D01*
X465526Y257202D01*
X463474Y258387D01*
X461185Y259000D01*
X458815D01*
X456526Y258387D01*
X454474Y257202D01*
X452798Y255526D01*
X451613Y253474D01*
X451000Y251185D01*
Y248815D01*
X451613Y246526D01*
X451828Y246154D01*
X447283Y241609D01*
X445785Y241907D01*
X445585Y242389D01*
X444319Y243655D01*
X442665Y244340D01*
X440875D01*
X439221Y243655D01*
X438733Y243167D01*
X438592Y243079D01*
X438505Y242999D01*
X438485Y242983D01*
X438463Y242968D01*
X438436Y242954D01*
X438400Y242939D01*
X438351Y242923D01*
X438287Y242907D01*
X438235Y242899D01*
X423987D01*
X416804Y250082D01*
X417614Y251068D01*
X417739Y250984D01*
X418910Y250751D01*
X418910Y250751D01*
X431885D01*
X431936Y250743D01*
X432001Y250727D01*
X432050Y250711D01*
X432086Y250696D01*
X432113Y250682D01*
X432135Y250668D01*
X432155Y250651D01*
X432242Y250571D01*
X432383Y250483D01*
X432871Y249995D01*
X434525Y249310D01*
X436315D01*
X437969Y249995D01*
X439235Y251261D01*
X439920Y252915D01*
Y254705D01*
X439235Y256359D01*
X437969Y257625D01*
X436315Y258310D01*
X434525D01*
X433029Y257690D01*
X432399Y258056D01*
X431932Y258482D01*
Y260153D01*
X431247Y261807D01*
X430760Y262294D01*
X430672Y262436D01*
X430591Y262522D01*
X430575Y262543D01*
X430561Y262565D01*
X430547Y262591D01*
X430531Y262628D01*
X430515Y262676D01*
X430500Y262741D01*
X430491Y262792D01*
Y280068D01*
X431547Y280774D01*
X431605Y280750D01*
X433395D01*
X435049Y281435D01*
X436315Y282701D01*
X437000Y284355D01*
Y286145D01*
X436315Y287799D01*
X435049Y289065D01*
X433395Y289750D01*
X431605D01*
X431547Y289726D01*
X430491Y290432D01*
Y309326D01*
X432243Y311078D01*
X433320Y310358D01*
X433107Y309844D01*
Y308054D01*
X433792Y306400D01*
X435058Y305134D01*
X436712Y304449D01*
X438502D01*
X440156Y305134D01*
X441422Y306400D01*
X442107Y308054D01*
Y309844D01*
X441422Y311498D01*
X440156Y312764D01*
X438502Y313449D01*
X436712D01*
X436198Y313237D01*
X435479Y314313D01*
X438357Y317192D01*
X452804D01*
X453290Y316018D01*
X452798Y315526D01*
X451613Y313474D01*
X451000Y311185D01*
Y308815D01*
X451613Y306526D01*
X452798Y304474D01*
X454474Y302798D01*
X456526Y301614D01*
X458815Y301000D01*
X461185D01*
X463474Y301614D01*
X465526Y302798D01*
X467202Y304474D01*
X468387Y306526D01*
X469000Y308815D01*
Y311185D01*
X468387Y313474D01*
X467202Y315526D01*
X466710Y316018D01*
X467196Y317192D01*
X470250D01*
X470250Y317192D01*
X471421Y317424D01*
X472413Y318088D01*
X473827Y319501D01*
X473851Y319521D01*
X474082Y319664D01*
X474429Y319822D01*
X474891Y319980D01*
X475468Y320125D01*
X476152Y320249D01*
X476922Y320345D01*
X478841Y320456D01*
X479935Y320461D01*
X480316Y320539D01*
X480705Y320616D01*
X480709Y320619D01*
X480715Y320620D01*
X481040Y320840D01*
X481343Y321042D01*
X483474Y321614D01*
X485526Y322798D01*
X487202Y324474D01*
X488387Y326526D01*
X489000Y328815D01*
Y331185D01*
X488387Y333474D01*
X487202Y335526D01*
X485526Y337202D01*
X483474Y338387D01*
X481185Y339000D01*
X478815D01*
X476526Y338387D01*
X474474Y337202D01*
X472798Y335526D01*
X471613Y333474D01*
X471042Y331343D01*
X470842Y331044D01*
X470620Y330715D01*
X470619Y330710D01*
X470616Y330706D01*
X470540Y330323D01*
X470461Y329935D01*
X470456Y328841D01*
X470345Y326922D01*
X470249Y326153D01*
X470125Y325468D01*
X469980Y324892D01*
X469822Y324429D01*
X469664Y324082D01*
X469521Y323851D01*
X469501Y323827D01*
X468983Y323309D01*
X467684D01*
X467467Y323833D01*
X467262Y324579D01*
X468387Y326526D01*
X469000Y328815D01*
Y331185D01*
X468387Y333474D01*
X467202Y335526D01*
X465526Y337202D01*
X463474Y338387D01*
X461185Y339000D01*
X458815D01*
X456526Y338387D01*
X454474Y337202D01*
X452798Y335526D01*
X451613Y333474D01*
X451000Y331185D01*
Y328815D01*
X451613Y326526D01*
X452738Y324579D01*
X452533Y323833D01*
X452316Y323309D01*
X437090D01*
X437090Y323309D01*
X435920Y323076D01*
X434927Y322413D01*
X425270Y312755D01*
X424607Y311763D01*
X424509Y311271D01*
X423239Y311397D01*
Y322393D01*
X447787Y346941D01*
X448211D01*
X448242Y346939D01*
X448507Y346876D01*
X448863Y346743D01*
X449302Y346527D01*
X449812Y346222D01*
X450385Y345826D01*
X450997Y345350D01*
X452431Y344071D01*
X453209Y343301D01*
X453534Y343086D01*
X453863Y342866D01*
X453868Y342865D01*
X453873Y342862D01*
X454258Y342788D01*
X454615Y342717D01*
X456526Y341613D01*
X458815Y341000D01*
X461185D01*
X463474Y341613D01*
X465526Y342798D01*
X467202Y344474D01*
X468387Y346526D01*
X469000Y348815D01*
Y351185D01*
X468387Y353474D01*
X467262Y355421D01*
X467465Y356162D01*
X467685Y356692D01*
X468983D01*
X469501Y356174D01*
X469521Y356149D01*
X469664Y355918D01*
X469822Y355572D01*
X469980Y355109D01*
X470125Y354533D01*
X470249Y353847D01*
X470345Y353079D01*
X470456Y351159D01*
X470461Y350065D01*
X470539Y349683D01*
X470616Y349295D01*
X470619Y349291D01*
X470620Y349286D01*
X470840Y348960D01*
X471042Y348658D01*
X471613Y346526D01*
X472798Y344474D01*
X474474Y342798D01*
X476526Y341613D01*
X478815Y341000D01*
X481185D01*
X483474Y341613D01*
X485526Y342798D01*
X487202Y344474D01*
X488387Y346526D01*
X489000Y348815D01*
Y351185D01*
X488387Y353474D01*
X487202Y355526D01*
X485526Y357202D01*
X483474Y358387D01*
X481343Y358958D01*
X481043Y359158D01*
X480715Y359380D01*
X480710Y359381D01*
X480706Y359384D01*
X480321Y359460D01*
X479935Y359539D01*
X478841Y359544D01*
X476922Y359655D01*
X476153Y359751D01*
X475468Y359875D01*
X474892Y360021D01*
X474429Y360178D01*
X474083Y360336D01*
X473851Y360479D01*
X473827Y360499D01*
X472413Y361913D01*
X471421Y362576D01*
X470250Y362809D01*
X470250Y362809D01*
X467196D01*
X466710Y363982D01*
X467202Y364474D01*
X468387Y366526D01*
X469000Y368815D01*
Y371185D01*
X468387Y373474D01*
X467202Y375526D01*
X465526Y377202D01*
X463474Y378387D01*
X461185Y379000D01*
X458815D01*
X456526Y378387D01*
X454474Y377202D01*
X452798Y375526D01*
X451613Y373474D01*
X451000Y371185D01*
Y368815D01*
X451613Y366526D01*
X452798Y364474D01*
X453290Y363982D01*
X452804Y362809D01*
X446110D01*
X446110Y362809D01*
X444940Y362576D01*
X443947Y361913D01*
X421370Y339336D01*
X420100Y339862D01*
Y340745D01*
X419339Y342583D01*
X417932Y343989D01*
X416095Y344750D01*
X414105D01*
X412268Y343989D01*
X410861Y342583D01*
X410100Y340745D01*
Y339076D01*
X406587Y335563D01*
X405924Y334571D01*
X405691Y333400D01*
X405691Y333400D01*
Y253810D01*
X405691Y253810D01*
X405924Y252640D01*
X406587Y251647D01*
X420116Y238119D01*
X419589Y236849D01*
X398216D01*
X397748Y238119D01*
X399372Y239743D01*
X400754Y242137D01*
X401470Y244808D01*
Y247572D01*
X400754Y250243D01*
X399372Y252637D01*
X397417Y254592D01*
X395023Y255974D01*
X392352Y256690D01*
X389588D01*
X386917Y255974D01*
X384523Y254592D01*
X382568Y252637D01*
X381186Y250243D01*
X380470Y247572D01*
Y244808D01*
X381186Y242137D01*
X382568Y239743D01*
X383368Y238943D01*
X382961Y237554D01*
X382601Y237474D01*
X359913Y260163D01*
X358921Y260826D01*
X357750Y261059D01*
X357750Y261059D01*
X344953D01*
X344284Y262329D01*
X345000Y264056D01*
Y266444D01*
X344087Y268649D01*
X342399Y270337D01*
X340193Y271250D01*
X337807D01*
X335601Y270337D01*
X333913Y268649D01*
X333000Y266444D01*
Y264056D01*
X333716Y262329D01*
X333047Y261059D01*
X330953D01*
X330284Y262329D01*
X331000Y264056D01*
Y266444D01*
X330087Y268649D01*
X328399Y270337D01*
X326194Y271250D01*
X323806D01*
X321601Y270337D01*
X319914Y268649D01*
X319000Y266444D01*
Y264056D01*
X319716Y262329D01*
X319047Y261059D01*
X296789D01*
X296263Y262329D01*
X297132Y263197D01*
X297817Y264851D01*
Y266642D01*
X297132Y268295D01*
X295866Y269561D01*
X294212Y270246D01*
X292422D01*
X290768Y269561D01*
X289502Y268295D01*
X288817Y266642D01*
Y266105D01*
X287771Y265059D01*
X277726D01*
X277043Y266064D01*
X276983Y266329D01*
X277189Y267363D01*
X277189Y267363D01*
Y273613D01*
X372163Y368587D01*
X372826Y369580D01*
X373059Y370750D01*
X373059Y370750D01*
Y433327D01*
X374329Y433853D01*
X375016Y433166D01*
X376853Y432405D01*
X378843D01*
X380680Y433166D01*
X382087Y434573D01*
X382848Y436411D01*
Y438400D01*
X382087Y440237D01*
X380680Y441644D01*
X378843Y442405D01*
X376853D01*
X375016Y441644D01*
X374329Y440957D01*
X373059Y441483D01*
Y451502D01*
X373474Y451613D01*
X375526Y452798D01*
X377202Y454474D01*
X378387Y456526D01*
X379000Y458815D01*
Y461185D01*
X378387Y463474D01*
X377202Y465526D01*
X375526Y467202D01*
X373474Y468387D01*
X371185Y469000D01*
X368815D01*
X366526Y468387D01*
X364579Y467262D01*
X363835Y467466D01*
X363309Y467684D01*
Y468983D01*
X363827Y469501D01*
X363851Y469521D01*
X364083Y469664D01*
X364429Y469822D01*
X364892Y469980D01*
X365468Y470125D01*
X366153Y470249D01*
X366922Y470345D01*
X368841Y470456D01*
X369935Y470461D01*
X370315Y470539D01*
X370706Y470616D01*
X370710Y470619D01*
X370715Y470620D01*
X371038Y470838D01*
X371343Y471042D01*
X373474Y471613D01*
X375526Y472798D01*
X377202Y474474D01*
X378387Y476526D01*
X379000Y478815D01*
Y481185D01*
X378387Y483474D01*
X377202Y485526D01*
X375526Y487202D01*
X373474Y488387D01*
X371185Y489000D01*
X368815D01*
X366526Y488387D01*
X364474Y487202D01*
X362799Y485526D01*
X361614Y483474D01*
X361043Y481343D01*
X360842Y481043D01*
X360621Y480715D01*
X360620Y480710D01*
X360617Y480705D01*
X360540Y480321D01*
X360462Y479935D01*
X360456Y478841D01*
X360346Y476922D01*
X360249Y476153D01*
X360125Y475468D01*
X359980Y474891D01*
X359822Y474429D01*
X359664Y474082D01*
X359521Y473851D01*
X359501Y473827D01*
X358087Y472413D01*
X357424Y471421D01*
X357192Y470250D01*
X357192Y470250D01*
Y467196D01*
X356018Y466710D01*
X355526Y467202D01*
X353474Y468387D01*
X351185Y469000D01*
X348815D01*
X346526Y468387D01*
X344579Y467262D01*
X343833Y467467D01*
X343309Y467684D01*
Y468983D01*
X343827Y469501D01*
X343851Y469521D01*
X344082Y469664D01*
X344429Y469822D01*
X344892Y469980D01*
X345468Y470125D01*
X346153Y470249D01*
X346922Y470345D01*
X348841Y470456D01*
X349935Y470461D01*
X350316Y470539D01*
X350706Y470616D01*
X350710Y470619D01*
X350715Y470620D01*
X351038Y470839D01*
X351343Y471042D01*
X353474Y471613D01*
X355526Y472798D01*
X357202Y474474D01*
X358387Y476526D01*
X359000Y478815D01*
Y481185D01*
X358387Y483474D01*
X357202Y485526D01*
X355526Y487202D01*
X353474Y488387D01*
X351185Y489000D01*
X348815D01*
X346526Y488387D01*
X344474Y487202D01*
X342798Y485526D01*
X341613Y483474D01*
X341042Y481343D01*
X340841Y481041D01*
X340620Y480715D01*
X340619Y480709D01*
X340616Y480705D01*
X340540Y480321D01*
X340461Y479935D01*
X340456Y478841D01*
X340345Y476922D01*
X340249Y476153D01*
X340125Y475468D01*
X339980Y474891D01*
X339822Y474429D01*
X339664Y474082D01*
X339521Y473851D01*
X339501Y473827D01*
X338087Y472413D01*
X337424Y471421D01*
X337192Y470250D01*
X337192Y470250D01*
Y467196D01*
X336018Y466710D01*
X335526Y467202D01*
X333474Y468387D01*
X331185Y469000D01*
X328815D01*
X326526Y468387D01*
X324579Y467262D01*
X323833Y467467D01*
X323309Y467684D01*
Y468983D01*
X323827Y469501D01*
X323851Y469521D01*
X324082Y469664D01*
X324429Y469822D01*
X324892Y469980D01*
X325468Y470125D01*
X326153Y470249D01*
X326922Y470345D01*
X328841Y470456D01*
X329935Y470461D01*
X330316Y470539D01*
X330706Y470616D01*
X330710Y470619D01*
X330715Y470620D01*
X331038Y470839D01*
X331343Y471042D01*
X333474Y471613D01*
X335526Y472798D01*
X337202Y474474D01*
X338387Y476526D01*
X339000Y478815D01*
Y481185D01*
X338387Y483474D01*
X337202Y485526D01*
X335526Y487202D01*
X333474Y488387D01*
X331185Y489000D01*
X328815D01*
X326526Y488387D01*
X324474Y487202D01*
X322798Y485526D01*
X321614Y483474D01*
X321042Y481343D01*
X320841Y481041D01*
X320810Y480995D01*
X319600Y481244D01*
X319534Y481278D01*
X318890Y483682D01*
X317634Y485858D01*
X315858Y487634D01*
X313682Y488890D01*
X312540Y489196D01*
D02*
G37*
G36*
X37812Y488788D02*
X24480D01*
Y488520D01*
X16320D01*
Y473520D01*
X24480D01*
Y472790D01*
X37812D01*
Y473520D01*
X61320D01*
Y488520D01*
X37812D01*
Y488788D01*
D02*
G37*
G36*
X411185Y489000D02*
X408815D01*
X406526Y488387D01*
X404474Y487202D01*
X402798Y485526D01*
X401614Y483474D01*
X401000Y481185D01*
Y478815D01*
X401614Y476526D01*
X402798Y474474D01*
X404474Y472798D01*
X406526Y471613D01*
X408815Y471000D01*
X411185D01*
X413474Y471613D01*
X415526Y472798D01*
X417202Y474474D01*
X418387Y476526D01*
X419000Y478815D01*
Y481185D01*
X418387Y483474D01*
X417202Y485526D01*
X415526Y487202D01*
X413474Y488387D01*
X411185Y489000D01*
D02*
G37*
G36*
X391185D02*
X388815D01*
X386526Y488387D01*
X384474Y487202D01*
X382799Y485526D01*
X381614Y483474D01*
X381000Y481185D01*
Y478815D01*
X381614Y476526D01*
X382799Y474474D01*
X384474Y472798D01*
X386526Y471613D01*
X388815Y471000D01*
X391185D01*
X393474Y471613D01*
X395526Y472798D01*
X397202Y474474D01*
X398387Y476526D01*
X399000Y478815D01*
Y481185D01*
X398387Y483474D01*
X397202Y485526D01*
X395526Y487202D01*
X393474Y488387D01*
X391185Y489000D01*
D02*
G37*
G36*
X251185D02*
X248815D01*
X246526Y488387D01*
X244474Y487202D01*
X242798Y485526D01*
X241613Y483474D01*
X241000Y481185D01*
Y478815D01*
X241613Y476526D01*
X242798Y474474D01*
X244474Y472798D01*
X246526Y471613D01*
X248815Y471000D01*
X251185D01*
X253474Y471613D01*
X255526Y472798D01*
X257202Y474474D01*
X258387Y476526D01*
X259000Y478815D01*
Y481185D01*
X258387Y483474D01*
X257202Y485526D01*
X255526Y487202D01*
X253474Y488387D01*
X251185Y489000D01*
D02*
G37*
G36*
X231185D02*
X228815D01*
X226526Y488387D01*
X224474Y487202D01*
X222798Y485526D01*
X221613Y483474D01*
X221000Y481185D01*
Y478815D01*
X221613Y476526D01*
X222798Y474474D01*
X224474Y472798D01*
X226526Y471613D01*
X228815Y471000D01*
X231185D01*
X233474Y471613D01*
X235526Y472798D01*
X237202Y474474D01*
X238386Y476526D01*
X239000Y478815D01*
Y481185D01*
X238386Y483474D01*
X237202Y485526D01*
X235526Y487202D01*
X233474Y488387D01*
X231185Y489000D01*
D02*
G37*
G36*
X211185D02*
X208815D01*
X206526Y488387D01*
X204474Y487202D01*
X202798Y485526D01*
X201613Y483474D01*
X201000Y481185D01*
Y478815D01*
X201613Y476526D01*
X202798Y474474D01*
X204474Y472798D01*
X206526Y471613D01*
X208815Y471000D01*
X211185D01*
X213474Y471613D01*
X215526Y472798D01*
X217202Y474474D01*
X218386Y476526D01*
X219000Y478815D01*
Y481185D01*
X218386Y483474D01*
X217202Y485526D01*
X215526Y487202D01*
X213474Y488387D01*
X211185Y489000D01*
D02*
G37*
G36*
X171185D02*
X168815D01*
X166526Y488387D01*
X164474Y487202D01*
X162798Y485526D01*
X161613Y483474D01*
X161000Y481185D01*
Y478815D01*
X161613Y476526D01*
X162798Y474474D01*
X164474Y472798D01*
X166526Y471613D01*
X168815Y471000D01*
X171185D01*
X173474Y471613D01*
X175526Y472798D01*
X177202Y474474D01*
X178387Y476526D01*
X179000Y478815D01*
Y481185D01*
X178387Y483474D01*
X177202Y485526D01*
X175526Y487202D01*
X173474Y488387D01*
X171185Y489000D01*
D02*
G37*
G36*
X151185D02*
X148815D01*
X146526Y488387D01*
X144474Y487202D01*
X142798Y485526D01*
X141613Y483474D01*
X141000Y481185D01*
Y478815D01*
X141613Y476526D01*
X142798Y474474D01*
X144474Y472798D01*
X146526Y471613D01*
X148815Y471000D01*
X151185D01*
X153474Y471613D01*
X155526Y472798D01*
X157202Y474474D01*
X158387Y476526D01*
X159000Y478815D01*
Y481185D01*
X158387Y483474D01*
X157202Y485526D01*
X155526Y487202D01*
X153474Y488387D01*
X151185Y489000D01*
D02*
G37*
G36*
X111185D02*
X108815D01*
X106526Y488387D01*
X104474Y487202D01*
X102798Y485526D01*
X101613Y483474D01*
X101000Y481185D01*
Y478815D01*
X101613Y476526D01*
X102798Y474474D01*
X104474Y472798D01*
X106526Y471613D01*
X108815Y471000D01*
X111185D01*
X113474Y471613D01*
X115526Y472798D01*
X117201Y474474D01*
X118386Y476526D01*
X119000Y478815D01*
Y481185D01*
X118386Y483474D01*
X117201Y485526D01*
X115526Y487202D01*
X113474Y488387D01*
X111185Y489000D01*
D02*
G37*
G36*
X99000D02*
X81000D01*
Y471000D01*
X99000D01*
Y489000D01*
D02*
G37*
G36*
X199196Y477460D02*
X180804D01*
X181110Y476318D01*
X182366Y474142D01*
X184142Y472366D01*
X186318Y471110D01*
X188007Y470657D01*
Y469343D01*
X186318Y468890D01*
X184142Y467634D01*
X182366Y465858D01*
X181110Y463682D01*
X180804Y462540D01*
X199196D01*
X198890Y463682D01*
X197634Y465858D01*
X195858Y467634D01*
X193682Y468890D01*
X191993Y469343D01*
Y470657D01*
X193682Y471110D01*
X195858Y472366D01*
X197634Y474142D01*
X198890Y476318D01*
X199196Y477460D01*
D02*
G37*
G36*
X139196D02*
X120804D01*
X121110Y476318D01*
X122366Y474142D01*
X124142Y472366D01*
X126318Y471110D01*
X128007Y470657D01*
Y469343D01*
X126318Y468890D01*
X124142Y467634D01*
X122366Y465858D01*
X121110Y463682D01*
X120804Y462540D01*
X139196D01*
X138890Y463682D01*
X137634Y465858D01*
X135858Y467634D01*
X133682Y468890D01*
X131993Y469343D01*
Y470657D01*
X133682Y471110D01*
X135858Y472366D01*
X137634Y474142D01*
X138890Y476318D01*
X139196Y477460D01*
D02*
G37*
G36*
X470000Y480086D02*
X467389Y479743D01*
X464957Y478735D01*
X462868Y477132D01*
X461265Y475043D01*
X460257Y472611D01*
X459914Y470000D01*
X460257Y467389D01*
X461265Y464957D01*
X462868Y462868D01*
X464957Y461265D01*
X467389Y460257D01*
X470000Y459914D01*
X472611Y460257D01*
X475043Y461265D01*
X477132Y462868D01*
X478735Y464957D01*
X479743Y467389D01*
X480086Y470000D01*
X479743Y472611D01*
X478735Y475043D01*
X477132Y477132D01*
X475043Y478735D01*
X472611Y479743D01*
X470000Y480086D01*
D02*
G37*
G36*
X411185Y469000D02*
X408815D01*
X406526Y468387D01*
X404474Y467202D01*
X402798Y465526D01*
X401614Y463474D01*
X401000Y461185D01*
Y458815D01*
X401614Y456526D01*
X402798Y454474D01*
X404474Y452798D01*
X406526Y451613D01*
X408815Y451000D01*
X411185D01*
X413474Y451613D01*
X415526Y452798D01*
X417202Y454474D01*
X418387Y456526D01*
X419000Y458815D01*
Y461185D01*
X418387Y463474D01*
X417202Y465526D01*
X415526Y467202D01*
X413474Y468387D01*
X411185Y469000D01*
D02*
G37*
G36*
X391185D02*
X388815D01*
X386526Y468387D01*
X384474Y467202D01*
X382799Y465526D01*
X381614Y463474D01*
X381000Y461185D01*
Y458815D01*
X381614Y456526D01*
X382799Y454474D01*
X384474Y452798D01*
X386526Y451613D01*
X388815Y451000D01*
X391185D01*
X393474Y451613D01*
X395526Y452798D01*
X397202Y454474D01*
X398387Y456526D01*
X399000Y458815D01*
Y461185D01*
X398387Y463474D01*
X397202Y465526D01*
X395526Y467202D01*
X393474Y468387D01*
X391185Y469000D01*
D02*
G37*
G36*
X231185D02*
X228815D01*
X226526Y468387D01*
X224474Y467202D01*
X222798Y465526D01*
X221613Y463474D01*
X221000Y461185D01*
Y458815D01*
X221613Y456526D01*
X222798Y454474D01*
X224474Y452798D01*
X226526Y451613D01*
X228815Y451000D01*
X231185D01*
X233474Y451613D01*
X235526Y452798D01*
X237202Y454474D01*
X238386Y456526D01*
X239000Y458815D01*
Y461185D01*
X238386Y463474D01*
X237202Y465526D01*
X235526Y467202D01*
X233474Y468387D01*
X231185Y469000D01*
D02*
G37*
G36*
X211185D02*
X208815D01*
X206526Y468387D01*
X204474Y467202D01*
X202798Y465526D01*
X201613Y463474D01*
X201000Y461185D01*
Y458815D01*
X201613Y456526D01*
X202798Y454474D01*
X204474Y452798D01*
X206526Y451613D01*
X208815Y451000D01*
X211185D01*
X213474Y451613D01*
X215526Y452798D01*
X217202Y454474D01*
X218386Y456526D01*
X219000Y458815D01*
Y461185D01*
X218386Y463474D01*
X217202Y465526D01*
X215526Y467202D01*
X213474Y468387D01*
X211185Y469000D01*
D02*
G37*
G36*
X171185D02*
X168815D01*
X166526Y468387D01*
X164474Y467202D01*
X162798Y465526D01*
X161613Y463474D01*
X161000Y461185D01*
Y458815D01*
X161613Y456526D01*
X162798Y454474D01*
X164474Y452798D01*
X166526Y451613D01*
X168815Y451000D01*
X171185D01*
X173474Y451613D01*
X175526Y452798D01*
X177202Y454474D01*
X178387Y456526D01*
X179000Y458815D01*
Y461185D01*
X178387Y463474D01*
X177202Y465526D01*
X175526Y467202D01*
X173474Y468387D01*
X171185Y469000D01*
D02*
G37*
G36*
X151185D02*
X148815D01*
X146526Y468387D01*
X144474Y467202D01*
X142798Y465526D01*
X141613Y463474D01*
X141000Y461185D01*
Y458815D01*
X141613Y456526D01*
X142798Y454474D01*
X144474Y452798D01*
X146526Y451613D01*
X148815Y451000D01*
X151185D01*
X153474Y451613D01*
X155526Y452798D01*
X157202Y454474D01*
X158387Y456526D01*
X159000Y458815D01*
Y461185D01*
X158387Y463474D01*
X157202Y465526D01*
X155526Y467202D01*
X153474Y468387D01*
X151185Y469000D01*
D02*
G37*
G36*
X111185D02*
X108815D01*
X106526Y468387D01*
X104474Y467202D01*
X102798Y465526D01*
X101613Y463474D01*
X101000Y461185D01*
Y458815D01*
X101613Y456526D01*
X102798Y454474D01*
X104474Y452798D01*
X106526Y451613D01*
X108815Y451000D01*
X111185D01*
X113474Y451613D01*
X115526Y452798D01*
X117201Y454474D01*
X118386Y456526D01*
X119000Y458815D01*
Y461185D01*
X118386Y463474D01*
X117201Y465526D01*
X115526Y467202D01*
X113474Y468387D01*
X111185Y469000D01*
D02*
G37*
G36*
X91185D02*
X88815D01*
X86526Y468387D01*
X84474Y467202D01*
X82798Y465526D01*
X81613Y463474D01*
X81000Y461185D01*
Y458815D01*
X81613Y456526D01*
X82798Y454474D01*
X84474Y452798D01*
X86526Y451613D01*
X88815Y451000D01*
X91185D01*
X93474Y451613D01*
X95526Y452798D01*
X97202Y454474D01*
X98386Y456526D01*
X99000Y458815D01*
Y461185D01*
X98386Y463474D01*
X97202Y465526D01*
X95526Y467202D01*
X93474Y468387D01*
X91185Y469000D01*
D02*
G37*
G36*
X287460Y457460D02*
X280804D01*
X281110Y456318D01*
X282366Y454142D01*
X284142Y452366D01*
X286318Y451110D01*
X287460Y450804D01*
Y457460D01*
D02*
G37*
G36*
X199196D02*
X192540D01*
Y450804D01*
X193682Y451110D01*
X195858Y452366D01*
X197634Y454142D01*
X198890Y456318D01*
X199196Y457460D01*
D02*
G37*
G36*
X187460D02*
X180804D01*
X181110Y456318D01*
X182366Y454142D01*
X184142Y452366D01*
X186318Y451110D01*
X187460Y450804D01*
Y457460D01*
D02*
G37*
G36*
X139196D02*
X132540D01*
Y450804D01*
X133682Y451110D01*
X135858Y452366D01*
X137634Y454142D01*
X138890Y456318D01*
X139196Y457460D01*
D02*
G37*
G36*
X127460D02*
X120804D01*
X121110Y456318D01*
X122366Y454142D01*
X124142Y452366D01*
X126318Y451110D01*
X127460Y450804D01*
Y457460D01*
D02*
G37*
G36*
X489000Y419000D02*
X471000D01*
Y401000D01*
X489000D01*
Y419000D01*
D02*
G37*
G36*
X461185D02*
X458815D01*
X456526Y418387D01*
X454474Y417202D01*
X452798Y415526D01*
X451613Y413474D01*
X451000Y411185D01*
Y408815D01*
X451613Y406526D01*
X452798Y404474D01*
X454474Y402798D01*
X456526Y401614D01*
X458815Y401000D01*
X461185D01*
X463474Y401614D01*
X465526Y402798D01*
X467202Y404474D01*
X468387Y406526D01*
X469000Y408815D01*
Y411185D01*
X468387Y413474D01*
X467202Y415526D01*
X465526Y417202D01*
X463474Y418387D01*
X461185Y419000D01*
D02*
G37*
G36*
X481185Y399000D02*
X478815D01*
X476526Y398387D01*
X474474Y397202D01*
X472798Y395526D01*
X471613Y393474D01*
X471000Y391185D01*
Y388815D01*
X471613Y386526D01*
X472798Y384474D01*
X474474Y382799D01*
X476526Y381614D01*
X478815Y381000D01*
X481185D01*
X483474Y381614D01*
X485526Y382799D01*
X487202Y384474D01*
X488387Y386526D01*
X489000Y388815D01*
Y391185D01*
X488387Y393474D01*
X487202Y395526D01*
X485526Y397202D01*
X483474Y398387D01*
X481185Y399000D01*
D02*
G37*
G36*
X461185D02*
X458815D01*
X456526Y398387D01*
X454474Y397202D01*
X452798Y395526D01*
X451613Y393474D01*
X451000Y391185D01*
Y388815D01*
X451613Y386526D01*
X452798Y384474D01*
X454474Y382799D01*
X456526Y381614D01*
X458815Y381000D01*
X461185D01*
X463474Y381614D01*
X465526Y382799D01*
X467202Y384474D01*
X468387Y386526D01*
X469000Y388815D01*
Y391185D01*
X468387Y393474D01*
X467202Y395526D01*
X465526Y397202D01*
X463474Y398387D01*
X461185Y399000D01*
D02*
G37*
G36*
X21185D02*
X18815D01*
X16526Y398387D01*
X14474Y397202D01*
X12798Y395526D01*
X11613Y393474D01*
X11000Y391185D01*
Y388815D01*
X11613Y386526D01*
X12798Y384474D01*
X14474Y382799D01*
X16526Y381614D01*
X18815Y381000D01*
X21185D01*
X23474Y381614D01*
X25526Y382799D01*
X27202Y384474D01*
X28387Y386526D01*
X29000Y388815D01*
Y391185D01*
X28387Y393474D01*
X27202Y395526D01*
X25526Y397202D01*
X23474Y398387D01*
X21185Y399000D01*
D02*
G37*
G36*
X481185Y379000D02*
X478815D01*
X476526Y378387D01*
X474474Y377202D01*
X472798Y375526D01*
X471613Y373474D01*
X471000Y371185D01*
Y368815D01*
X471613Y366526D01*
X472798Y364474D01*
X474474Y362798D01*
X476526Y361613D01*
X478815Y361000D01*
X481185D01*
X483474Y361613D01*
X485526Y362798D01*
X487202Y364474D01*
X488387Y366526D01*
X489000Y368815D01*
Y371185D01*
X488387Y373474D01*
X487202Y375526D01*
X485526Y377202D01*
X483474Y378387D01*
X481185Y379000D01*
D02*
G37*
G36*
X41185D02*
X38815D01*
X36526Y378387D01*
X34474Y377202D01*
X32798Y375526D01*
X31613Y373474D01*
X31000Y371185D01*
Y368815D01*
X31613Y366526D01*
X32798Y364474D01*
X34474Y362798D01*
X36526Y361613D01*
X38815Y361000D01*
X41185D01*
X43474Y361613D01*
X45526Y362798D01*
X47202Y364474D01*
X48387Y366526D01*
X49000Y368815D01*
Y371185D01*
X48387Y373474D01*
X47202Y375526D01*
X45526Y377202D01*
X43474Y378387D01*
X41185Y379000D01*
D02*
G37*
G36*
X21185D02*
X18815D01*
X16526Y378387D01*
X14474Y377202D01*
X12798Y375526D01*
X11613Y373474D01*
X11000Y371185D01*
Y368815D01*
X11613Y366526D01*
X12798Y364474D01*
X14474Y362798D01*
X16526Y361613D01*
X18815Y361000D01*
X21185D01*
X23474Y361613D01*
X25526Y362798D01*
X27202Y364474D01*
X28387Y366526D01*
X29000Y368815D01*
Y371185D01*
X28387Y373474D01*
X27202Y375526D01*
X25526Y377202D01*
X23474Y378387D01*
X21185Y379000D01*
D02*
G37*
G36*
X41185Y359000D02*
X38815D01*
X36526Y358387D01*
X34474Y357202D01*
X32798Y355526D01*
X31613Y353474D01*
X31000Y351185D01*
Y348815D01*
X31613Y346526D01*
X32798Y344474D01*
X34474Y342798D01*
X36526Y341613D01*
X38815Y341000D01*
X41185D01*
X43474Y341613D01*
X45526Y342798D01*
X47202Y344474D01*
X48387Y346526D01*
X49000Y348815D01*
Y351185D01*
X48387Y353474D01*
X47202Y355526D01*
X45526Y357202D01*
X43474Y358387D01*
X41185Y359000D01*
D02*
G37*
G36*
X21185D02*
X18815D01*
X16526Y358387D01*
X14474Y357202D01*
X12798Y355526D01*
X11613Y353474D01*
X11000Y351185D01*
Y348815D01*
X11613Y346526D01*
X12798Y344474D01*
X14474Y342798D01*
X16526Y341613D01*
X18815Y341000D01*
X21185D01*
X23474Y341613D01*
X25526Y342798D01*
X27202Y344474D01*
X28387Y346526D01*
X29000Y348815D01*
Y351185D01*
X28387Y353474D01*
X27202Y355526D01*
X25526Y357202D01*
X23474Y358387D01*
X21185Y359000D01*
D02*
G37*
G36*
X80815Y345170D02*
X78825D01*
X76988Y344409D01*
X75581Y343002D01*
X74820Y341165D01*
Y339175D01*
X75581Y337338D01*
X76988Y335931D01*
X78825Y335170D01*
X80815D01*
X82652Y335931D01*
X84059Y337338D01*
X84820Y339175D01*
Y341165D01*
X84059Y343002D01*
X82652Y344409D01*
X80815Y345170D01*
D02*
G37*
G36*
X280995Y343250D02*
X279005D01*
X277168Y342489D01*
X275761Y341082D01*
X275000Y339245D01*
Y337255D01*
X275761Y335418D01*
X277168Y334011D01*
X279005Y333250D01*
X280995D01*
X282832Y334011D01*
X284239Y335418D01*
X285000Y337255D01*
Y339245D01*
X284239Y341082D01*
X282832Y342489D01*
X280995Y343250D01*
D02*
G37*
G36*
X22540Y339196D02*
Y332540D01*
X29196D01*
X28890Y333682D01*
X27634Y335858D01*
X25858Y337634D01*
X23682Y338890D01*
X22540Y339196D01*
D02*
G37*
G36*
X17460D02*
X16318Y338890D01*
X14142Y337634D01*
X12366Y335858D01*
X11110Y333682D01*
X10804Y332540D01*
X17460D01*
Y339196D01*
D02*
G37*
G36*
X41185Y339000D02*
X38815D01*
X36526Y338387D01*
X34474Y337202D01*
X32798Y335526D01*
X31613Y333474D01*
X31000Y331185D01*
Y328815D01*
X31613Y326526D01*
X32798Y324474D01*
X34474Y322798D01*
X36526Y321614D01*
X38815Y321000D01*
X41185D01*
X43474Y321614D01*
X45526Y322798D01*
X47202Y324474D01*
X48387Y326526D01*
X49000Y328815D01*
Y331185D01*
X48387Y333474D01*
X47202Y335526D01*
X45526Y337202D01*
X43474Y338387D01*
X41185Y339000D01*
D02*
G37*
G36*
X29196Y327460D02*
X22540D01*
Y320804D01*
X23682Y321110D01*
X25858Y322366D01*
X27634Y324142D01*
X28890Y326318D01*
X29196Y327460D01*
D02*
G37*
G36*
X17460D02*
X10804D01*
X11110Y326318D01*
X12366Y324142D01*
X14142Y322366D01*
X16318Y321110D01*
X17460Y320804D01*
Y327460D01*
D02*
G37*
G36*
X340093Y314420D02*
X337706D01*
X335501Y313507D01*
X333814Y311819D01*
X332900Y309613D01*
Y307227D01*
X333814Y305021D01*
X335501Y303333D01*
X337706Y302420D01*
X340093D01*
X342299Y303333D01*
X343987Y305021D01*
X344900Y307227D01*
Y309613D01*
X343987Y311819D01*
X342299Y313507D01*
X340093Y314420D01*
D02*
G37*
G36*
X481185Y319000D02*
X478815D01*
X476526Y318387D01*
X474474Y317202D01*
X472798Y315526D01*
X471613Y313474D01*
X471000Y311185D01*
Y308815D01*
X471613Y306526D01*
X472798Y304474D01*
X474474Y302798D01*
X476526Y301614D01*
X478815Y301000D01*
X481185D01*
X483474Y301614D01*
X485526Y302798D01*
X487202Y304474D01*
X488387Y306526D01*
X489000Y308815D01*
Y311185D01*
X488387Y313474D01*
X487202Y315526D01*
X485526Y317202D01*
X483474Y318387D01*
X481185Y319000D01*
D02*
G37*
G36*
X440125Y298950D02*
X438335D01*
X436681Y298265D01*
X435415Y296999D01*
X434730Y295345D01*
Y293555D01*
X435415Y291901D01*
X436681Y290635D01*
X438335Y289950D01*
X440125D01*
X441779Y290635D01*
X443045Y291901D01*
X443730Y293555D01*
Y295345D01*
X443045Y296999D01*
X441779Y298265D01*
X440125Y298950D01*
D02*
G37*
G36*
X350055Y295640D02*
X348065D01*
X346228Y294879D01*
X344821Y293472D01*
X344060Y291635D01*
Y289645D01*
X344821Y287808D01*
X346228Y286401D01*
X348065Y285640D01*
X350055D01*
X351892Y286401D01*
X353299Y287808D01*
X354060Y289645D01*
Y291635D01*
X353299Y293472D01*
X351892Y294879D01*
X350055Y295640D01*
D02*
G37*
G36*
X326008Y295496D02*
X323621D01*
X321416Y294583D01*
X319728Y292895D01*
X318815Y290690D01*
Y288303D01*
X319728Y286098D01*
X321416Y284410D01*
X323621Y283496D01*
X326008D01*
X328214Y284410D01*
X329902Y286098D01*
X330815Y288303D01*
Y290690D01*
X329902Y292895D01*
X328214Y294583D01*
X326008Y295496D01*
D02*
G37*
G36*
X481185Y299000D02*
X478815D01*
X476526Y298387D01*
X474474Y297202D01*
X472798Y295526D01*
X471613Y293474D01*
X471000Y291185D01*
Y288815D01*
X471613Y286526D01*
X472798Y284474D01*
X474474Y282798D01*
X476526Y281614D01*
X478815Y281000D01*
X481185D01*
X483474Y281614D01*
X485526Y282798D01*
X487202Y284474D01*
X488387Y286526D01*
X489000Y288815D01*
Y291185D01*
X488387Y293474D01*
X487202Y295526D01*
X485526Y297202D01*
X483474Y298387D01*
X481185Y299000D01*
D02*
G37*
G36*
X461185D02*
X458815D01*
X456526Y298387D01*
X454474Y297202D01*
X452798Y295526D01*
X451613Y293474D01*
X451000Y291185D01*
Y288815D01*
X451613Y286526D01*
X452798Y284474D01*
X454474Y282798D01*
X456526Y281614D01*
X458815Y281000D01*
X461185D01*
X463474Y281614D01*
X465526Y282798D01*
X467202Y284474D01*
X468387Y286526D01*
X469000Y288815D01*
Y291185D01*
X468387Y293474D01*
X467202Y295526D01*
X465526Y297202D01*
X463474Y298387D01*
X461185Y299000D01*
D02*
G37*
G36*
X21185D02*
X18815D01*
X16526Y298387D01*
X14474Y297202D01*
X12798Y295526D01*
X11613Y293474D01*
X11000Y291185D01*
Y288815D01*
X11613Y286526D01*
X12798Y284474D01*
X14474Y282798D01*
X16526Y281614D01*
X18815Y281000D01*
X21185D01*
X23474Y281614D01*
X25526Y282798D01*
X27202Y284474D01*
X28387Y286526D01*
X29000Y288815D01*
Y291185D01*
X28387Y293474D01*
X27202Y295526D01*
X25526Y297202D01*
X23474Y298387D01*
X21185Y299000D01*
D02*
G37*
G36*
X80730Y290656D02*
X78741D01*
X76903Y289895D01*
X75497Y288489D01*
X74736Y286651D01*
Y284662D01*
X75497Y282824D01*
X76903Y281417D01*
X78741Y280656D01*
X80730D01*
X82568Y281417D01*
X83974Y282824D01*
X84736Y284662D01*
Y286651D01*
X83974Y288489D01*
X82568Y289895D01*
X80730Y290656D01*
D02*
G37*
G36*
X198895Y286000D02*
X197105D01*
X195451Y285315D01*
X194185Y284049D01*
X193500Y282395D01*
Y280605D01*
X194185Y278951D01*
X195451Y277685D01*
X197105Y277000D01*
X198895D01*
X200549Y277685D01*
X201815Y278951D01*
X202500Y280605D01*
Y282395D01*
X201815Y284049D01*
X200549Y285315D01*
X198895Y286000D01*
D02*
G37*
G36*
X393510Y282339D02*
Y274130D01*
X401719D01*
X401258Y275851D01*
X399804Y278369D01*
X397749Y280424D01*
X395231Y281878D01*
X393510Y282339D01*
D02*
G37*
G36*
X388430D02*
X386709Y281878D01*
X384191Y280424D01*
X382136Y278369D01*
X380682Y275851D01*
X380221Y274130D01*
X388430D01*
Y282339D01*
D02*
G37*
G36*
X481185Y279000D02*
X478815D01*
X476526Y278387D01*
X474474Y277202D01*
X472798Y275526D01*
X471613Y273474D01*
X471000Y271185D01*
Y268815D01*
X471613Y266526D01*
X472798Y264474D01*
X474474Y262799D01*
X476526Y261614D01*
X478815Y261000D01*
X481185D01*
X483474Y261614D01*
X485526Y262799D01*
X487202Y264474D01*
X488387Y266526D01*
X489000Y268815D01*
Y271185D01*
X488387Y273474D01*
X487202Y275526D01*
X485526Y277202D01*
X483474Y278387D01*
X481185Y279000D01*
D02*
G37*
G36*
X461185D02*
X458815D01*
X456526Y278387D01*
X454474Y277202D01*
X452798Y275526D01*
X451613Y273474D01*
X451000Y271185D01*
Y268815D01*
X451613Y266526D01*
X452798Y264474D01*
X454474Y262799D01*
X456526Y261614D01*
X458815Y261000D01*
X461185D01*
X463474Y261614D01*
X465526Y262799D01*
X467202Y264474D01*
X468387Y266526D01*
X469000Y268815D01*
Y271185D01*
X468387Y273474D01*
X467202Y275526D01*
X465526Y277202D01*
X463474Y278387D01*
X461185Y279000D01*
D02*
G37*
G36*
X401719Y269050D02*
X393510D01*
Y260841D01*
X395231Y261302D01*
X397749Y262756D01*
X399804Y264811D01*
X401258Y267329D01*
X401719Y269050D01*
D02*
G37*
G36*
X388430D02*
X380221D01*
X380682Y267329D01*
X382136Y264811D01*
X384191Y262756D01*
X386709Y261302D01*
X388430Y260841D01*
Y269050D01*
D02*
G37*
G36*
X481185Y259000D02*
X478815D01*
X476526Y258387D01*
X474474Y257202D01*
X472798Y255526D01*
X471613Y253474D01*
X471000Y251185D01*
Y248815D01*
X471613Y246526D01*
X472798Y244474D01*
X474474Y242798D01*
X476526Y241613D01*
X478815Y241000D01*
X481185D01*
X483474Y241613D01*
X485526Y242798D01*
X487202Y244474D01*
X488387Y246526D01*
X489000Y248815D01*
Y251185D01*
X488387Y253474D01*
X487202Y255526D01*
X485526Y257202D01*
X483474Y258387D01*
X481185Y259000D01*
D02*
G37*
G36*
X21185D02*
X18815D01*
X16526Y258387D01*
X14474Y257202D01*
X12798Y255526D01*
X11613Y253474D01*
X11000Y251185D01*
Y248815D01*
X11613Y246526D01*
X12798Y244474D01*
X14474Y242798D01*
X16526Y241613D01*
X18815Y241000D01*
X21185D01*
X23474Y241613D01*
X25526Y242798D01*
X27202Y244474D01*
X28387Y246526D01*
X29000Y248815D01*
Y251185D01*
X28387Y253474D01*
X27202Y255526D01*
X25526Y257202D01*
X23474Y258387D01*
X21185Y259000D01*
D02*
G37*
G36*
X481185Y239000D02*
X478815D01*
X476526Y238387D01*
X474474Y237202D01*
X472798Y235526D01*
X471613Y233474D01*
X471000Y231185D01*
Y228815D01*
X471613Y226526D01*
X472798Y224474D01*
X474474Y222798D01*
X476526Y221613D01*
X478815Y221000D01*
X481185D01*
X483474Y221613D01*
X485526Y222798D01*
X487202Y224474D01*
X488387Y226526D01*
X489000Y228815D01*
Y231185D01*
X488387Y233474D01*
X487202Y235526D01*
X485526Y237202D01*
X483474Y238387D01*
X481185Y239000D01*
D02*
G37*
G36*
X461185D02*
X458815D01*
X456526Y238387D01*
X454474Y237202D01*
X452798Y235526D01*
X451613Y233474D01*
X451000Y231185D01*
Y228815D01*
X451613Y226526D01*
X452798Y224474D01*
X454474Y222798D01*
X456526Y221613D01*
X458815Y221000D01*
X461185D01*
X463474Y221613D01*
X465526Y222798D01*
X467202Y224474D01*
X468387Y226526D01*
X469000Y228815D01*
Y231185D01*
X468387Y233474D01*
X467202Y235526D01*
X465526Y237202D01*
X463474Y238387D01*
X461185Y239000D01*
D02*
G37*
G36*
X482540Y219196D02*
Y212540D01*
X489196D01*
X488890Y213682D01*
X487634Y215858D01*
X485858Y217634D01*
X483682Y218890D01*
X482540Y219196D01*
D02*
G37*
G36*
X457460Y219196D02*
X456318Y218890D01*
X454142Y217634D01*
X452366Y215858D01*
X451110Y213682D01*
X450804Y212540D01*
X457460D01*
Y219196D01*
D02*
G37*
G36*
X392352Y205890D02*
X389588D01*
X386917Y205174D01*
X384523Y203792D01*
X382568Y201837D01*
X381186Y199443D01*
X380470Y196772D01*
Y194008D01*
X381186Y191337D01*
X382568Y188943D01*
X384523Y186988D01*
X386917Y185606D01*
X389588Y184890D01*
X392352D01*
X395023Y185606D01*
X397417Y186988D01*
X399372Y188943D01*
X400754Y191337D01*
X401470Y194008D01*
Y196772D01*
X400754Y199443D01*
X399372Y201837D01*
X397417Y203792D01*
X395023Y205174D01*
X392352Y205890D01*
D02*
G37*
G36*
X462540Y219196D02*
Y210000D01*
X460000D01*
Y207460D01*
X450804D01*
X451110Y206318D01*
X452366Y204142D01*
X454142Y202366D01*
X456318Y201110D01*
X458007Y200657D01*
Y199342D01*
X456318Y198890D01*
X454142Y197634D01*
X452366Y195858D01*
X451110Y193682D01*
X450804Y192540D01*
X460000D01*
Y190000D01*
X462540D01*
Y180804D01*
X463682Y181110D01*
X465858Y182366D01*
X467634Y184142D01*
X468890Y186318D01*
X469343Y188007D01*
X470657D01*
X471110Y186318D01*
X472366Y184142D01*
X474142Y182366D01*
X476318Y181110D01*
X477460Y180804D01*
Y190000D01*
X480000D01*
Y192540D01*
X489196D01*
X488890Y193682D01*
X487634Y195858D01*
X485858Y197634D01*
X483682Y198890D01*
X481993Y199342D01*
Y200657D01*
X483682Y201110D01*
X485858Y202366D01*
X487634Y204142D01*
X488890Y206318D01*
X489196Y207460D01*
X480000D01*
Y210000D01*
X477460D01*
Y219196D01*
X476318Y218890D01*
X474142Y217634D01*
X472366Y215858D01*
X471110Y213682D01*
X470657Y211992D01*
X469343D01*
X468890Y213682D01*
X467634Y215858D01*
X465858Y217634D01*
X463682Y218890D01*
X462540Y219196D01*
D02*
G37*
G36*
X457460Y187460D02*
X450804D01*
X451110Y186318D01*
X452366Y184142D01*
X454142Y182366D01*
X456318Y181110D01*
X457460Y180804D01*
Y187460D01*
D02*
G37*
G36*
X49196Y187460D02*
X42540D01*
Y180804D01*
X43682Y181110D01*
X45858Y182366D01*
X47634Y184142D01*
X48890Y186318D01*
X49196Y187460D01*
D02*
G37*
G36*
X17460D02*
X10804D01*
X11110Y186318D01*
X12366Y184142D01*
X14142Y182366D01*
X16318Y181110D01*
X17460Y180804D01*
Y187460D01*
D02*
G37*
G36*
X489196Y187460D02*
X482540D01*
Y180804D01*
X483682Y181110D01*
X485858Y182366D01*
X487634Y184142D01*
X488890Y186318D01*
X489196Y187460D01*
D02*
G37*
G36*
X481185Y179000D02*
X478815D01*
X476526Y178387D01*
X474474Y177202D01*
X472798Y175526D01*
X471613Y173474D01*
X471000Y171185D01*
Y168815D01*
X471613Y166526D01*
X472798Y164474D01*
X474474Y162798D01*
X476526Y161613D01*
X478815Y161000D01*
X481185D01*
X483474Y161613D01*
X485526Y162798D01*
X487202Y164474D01*
X488387Y166526D01*
X489000Y168815D01*
Y171185D01*
X488387Y173474D01*
X487202Y175526D01*
X485526Y177202D01*
X483474Y178387D01*
X481185Y179000D01*
D02*
G37*
G36*
Y139000D02*
X478815D01*
X476526Y138386D01*
X474474Y137201D01*
X472798Y135526D01*
X471613Y133474D01*
X471000Y131185D01*
Y128815D01*
X471613Y126526D01*
X472798Y124474D01*
X474474Y122798D01*
X476526Y121613D01*
X478815Y121000D01*
X481185D01*
X483474Y121613D01*
X485526Y122798D01*
X487202Y124474D01*
X488387Y126526D01*
X489000Y128815D01*
Y131185D01*
X488387Y133474D01*
X487202Y135526D01*
X485526Y137201D01*
X483474Y138386D01*
X481185Y139000D01*
D02*
G37*
G36*
X360645Y118610D02*
X358855D01*
X357201Y117925D01*
X355935Y116659D01*
X355250Y115005D01*
Y113215D01*
X355935Y111561D01*
X357201Y110295D01*
X358855Y109610D01*
X360645D01*
X362299Y110295D01*
X363565Y111561D01*
X364250Y113215D01*
Y115005D01*
X363565Y116659D01*
X362299Y117925D01*
X360645Y118610D01*
D02*
G37*
G36*
X481185Y119000D02*
X478815D01*
X476526Y118386D01*
X474474Y117201D01*
X472798Y115526D01*
X471613Y113474D01*
X471000Y111185D01*
Y108815D01*
X471613Y106526D01*
X472798Y104474D01*
X474474Y102798D01*
X476526Y101613D01*
X478815Y101000D01*
X481185D01*
X483474Y101613D01*
X485526Y102798D01*
X487202Y104474D01*
X488387Y106526D01*
X489000Y108815D01*
Y111185D01*
X488387Y113474D01*
X487202Y115526D01*
X485526Y117201D01*
X483474Y118386D01*
X481185Y119000D01*
D02*
G37*
G36*
X21185D02*
X18815D01*
X16526Y118386D01*
X14474Y117201D01*
X12798Y115526D01*
X11613Y113474D01*
X11000Y111185D01*
Y108815D01*
X11613Y106526D01*
X12798Y104474D01*
X14474Y102798D01*
X16526Y101613D01*
X18815Y101000D01*
X21185D01*
X23474Y101613D01*
X25526Y102798D01*
X27202Y104474D01*
X28387Y106526D01*
X29000Y108815D01*
Y111185D01*
X28387Y113474D01*
X27202Y115526D01*
X25526Y117201D01*
X23474Y118386D01*
X21185Y119000D01*
D02*
G37*
G36*
X371015Y107709D02*
X369225D01*
X367571Y107024D01*
X366305Y105758D01*
X365620Y104104D01*
Y102314D01*
X366305Y100660D01*
X367571Y99394D01*
X369225Y98709D01*
X371015D01*
X372669Y99394D01*
X373935Y100660D01*
X374620Y102314D01*
Y104104D01*
X373935Y105758D01*
X372669Y107024D01*
X371015Y107709D01*
D02*
G37*
G36*
X314694Y102330D02*
X312306D01*
X310101Y101417D01*
X308414Y99729D01*
X307500Y97523D01*
Y95136D01*
X308414Y92931D01*
X310101Y91243D01*
X312306Y90330D01*
X314694D01*
X316899Y91243D01*
X318587Y92931D01*
X319500Y95136D01*
Y97523D01*
X318587Y99729D01*
X316899Y101417D01*
X314694Y102330D01*
D02*
G37*
G36*
X461185Y99000D02*
X458815D01*
X456526Y98386D01*
X454474Y97202D01*
X452798Y95526D01*
X451613Y93474D01*
X451000Y91185D01*
Y88815D01*
X451613Y86526D01*
X452798Y84474D01*
X454474Y82798D01*
X456526Y81613D01*
X458815Y81000D01*
X461185D01*
X463474Y81613D01*
X465526Y82798D01*
X467202Y84474D01*
X468387Y86526D01*
X469000Y88815D01*
Y91185D01*
X468387Y93474D01*
X467202Y95526D01*
X465526Y97202D01*
X463474Y98386D01*
X461185Y99000D01*
D02*
G37*
G36*
X41185D02*
X38815D01*
X36526Y98386D01*
X34474Y97202D01*
X32798Y95526D01*
X31613Y93474D01*
X31000Y91185D01*
Y88815D01*
X31613Y86526D01*
X32798Y84474D01*
X34474Y82798D01*
X36526Y81613D01*
X38815Y81000D01*
X41185D01*
X43474Y81613D01*
X45526Y82798D01*
X47202Y84474D01*
X48387Y86526D01*
X49000Y88815D01*
Y91185D01*
X48387Y93474D01*
X47202Y95526D01*
X45526Y97202D01*
X43474Y98386D01*
X41185Y99000D01*
D02*
G37*
G36*
X21185D02*
X18815D01*
X16526Y98386D01*
X14474Y97202D01*
X12798Y95526D01*
X11613Y93474D01*
X11000Y91185D01*
Y88815D01*
X11613Y86526D01*
X12798Y84474D01*
X14474Y82798D01*
X16526Y81613D01*
X18815Y81000D01*
X21185D01*
X23474Y81613D01*
X25526Y82798D01*
X27202Y84474D01*
X28387Y86526D01*
X29000Y88815D01*
Y91185D01*
X28387Y93474D01*
X27202Y95526D01*
X25526Y97202D01*
X23474Y98386D01*
X21185Y99000D01*
D02*
G37*
G36*
X231062Y100480D02*
X228298D01*
X225627Y99764D01*
X223233Y98382D01*
X221278Y96427D01*
X219896Y94033D01*
X219180Y91362D01*
Y88598D01*
X219896Y85927D01*
X221278Y83533D01*
X223233Y81578D01*
X225627Y80196D01*
X228298Y79480D01*
X231062D01*
X233733Y80196D01*
X236127Y81578D01*
X238082Y83533D01*
X239464Y85927D01*
X240180Y88598D01*
Y91362D01*
X239464Y94033D01*
X238082Y96427D01*
X236127Y98382D01*
X233733Y99764D01*
X231062Y100480D01*
D02*
G37*
G36*
X350895Y80510D02*
X349105D01*
X347451Y79825D01*
X346185Y78559D01*
X345500Y76905D01*
Y75115D01*
X346185Y73461D01*
X347451Y72195D01*
X349105Y71510D01*
X350895D01*
X352549Y72195D01*
X353815Y73461D01*
X354500Y75115D01*
Y76905D01*
X353815Y78559D01*
X352549Y79825D01*
X350895Y80510D01*
D02*
G37*
G36*
X401145Y75430D02*
X399355D01*
X397701Y74745D01*
X396435Y73479D01*
X395750Y71825D01*
Y70035D01*
X396435Y68381D01*
X397701Y67115D01*
X399355Y66430D01*
X401145D01*
X402799Y67115D01*
X404065Y68381D01*
X404750Y70035D01*
Y71825D01*
X404065Y73479D01*
X402799Y74745D01*
X401145Y75430D01*
D02*
G37*
G36*
X426155Y69080D02*
X424365D01*
X422711Y68395D01*
X421445Y67129D01*
X420760Y65475D01*
Y64406D01*
X416373Y60019D01*
X367042D01*
X365862Y61199D01*
X364025Y61960D01*
X362035D01*
X360198Y61199D01*
X358791Y59792D01*
X358030Y57955D01*
Y55965D01*
X358791Y54128D01*
X360198Y52721D01*
X362035Y51960D01*
X364025D01*
X365862Y52721D01*
X367042Y53901D01*
X417640D01*
X417640Y53901D01*
X418811Y54134D01*
X419803Y54797D01*
X425086Y60080D01*
X426155D01*
X427809Y60765D01*
X429075Y62031D01*
X429760Y63685D01*
Y65475D01*
X429075Y67129D01*
X427809Y68395D01*
X426155Y69080D01*
D02*
G37*
G36*
X312540Y49196D02*
Y42540D01*
X319196D01*
X318890Y43682D01*
X317634Y45858D01*
X315858Y47634D01*
X313682Y48890D01*
X312540Y49196D01*
D02*
G37*
G36*
X287460D02*
X286318Y48890D01*
X284142Y47634D01*
X282366Y45858D01*
X281110Y43682D01*
X280804Y42540D01*
X287460D01*
Y49196D01*
D02*
G37*
G36*
X307460D02*
X306318Y48890D01*
X304142Y47634D01*
X302366Y45858D01*
X301110Y43682D01*
X300658Y41993D01*
X299343D01*
X298890Y43682D01*
X297634Y45858D01*
X295858Y47634D01*
X293682Y48890D01*
X292540Y49196D01*
Y40000D01*
X290000D01*
Y37460D01*
X280804D01*
X281110Y36318D01*
X282366Y34142D01*
X284142Y32366D01*
X286318Y31110D01*
X288008Y30657D01*
Y29343D01*
X286318Y28890D01*
X284142Y27634D01*
X282366Y25858D01*
X281110Y23682D01*
X280804Y22540D01*
X290000D01*
Y20000D01*
X292540D01*
Y10804D01*
X293682Y11110D01*
X295858Y12366D01*
X297634Y14142D01*
X298890Y16318D01*
X299343Y18007D01*
X300658D01*
X301110Y16318D01*
X302366Y14142D01*
X304142Y12366D01*
X306318Y11110D01*
X307460Y10804D01*
Y20000D01*
X310000D01*
Y22540D01*
X319196D01*
X318890Y23682D01*
X317634Y25858D01*
X315858Y27634D01*
X313682Y28890D01*
X311993Y29343D01*
Y30657D01*
X313682Y31110D01*
X315858Y32366D01*
X317634Y34142D01*
X318890Y36318D01*
X319196Y37460D01*
X310000D01*
Y40000D01*
X307460D01*
Y49196D01*
D02*
G37*
G36*
X411185Y49000D02*
X408815D01*
X406526Y48387D01*
X404474Y47202D01*
X402798Y45526D01*
X401614Y43474D01*
X401000Y41185D01*
Y38815D01*
X401614Y36526D01*
X402798Y34474D01*
X404474Y32798D01*
X406526Y31613D01*
X408815Y31000D01*
X411185D01*
X413474Y31613D01*
X415526Y32798D01*
X417202Y34474D01*
X418387Y36526D01*
X419000Y38815D01*
Y41185D01*
X418387Y43474D01*
X417202Y45526D01*
X415526Y47202D01*
X413474Y48387D01*
X411185Y49000D01*
D02*
G37*
G36*
X391185D02*
X388815D01*
X386526Y48387D01*
X384474Y47202D01*
X382799Y45526D01*
X381614Y43474D01*
X381000Y41185D01*
Y38815D01*
X381614Y36526D01*
X382799Y34474D01*
X384474Y32798D01*
X386526Y31613D01*
X388815Y31000D01*
X391185D01*
X393474Y31613D01*
X395526Y32798D01*
X397202Y34474D01*
X398387Y36526D01*
X399000Y38815D01*
Y41185D01*
X398387Y43474D01*
X397202Y45526D01*
X395526Y47202D01*
X393474Y48387D01*
X391185Y49000D01*
D02*
G37*
G36*
X371185D02*
X368815D01*
X366526Y48387D01*
X364474Y47202D01*
X362799Y45526D01*
X361614Y43474D01*
X361000Y41185D01*
Y38815D01*
X361614Y36526D01*
X362799Y34474D01*
X364474Y32798D01*
X366526Y31613D01*
X368815Y31000D01*
X371185D01*
X373474Y31613D01*
X375526Y32798D01*
X377202Y34474D01*
X378387Y36526D01*
X379000Y38815D01*
Y41185D01*
X378387Y43474D01*
X377202Y45526D01*
X375526Y47202D01*
X373474Y48387D01*
X371185Y49000D01*
D02*
G37*
G36*
X271185D02*
X268815D01*
X266526Y48387D01*
X264474Y47202D01*
X262798Y45526D01*
X261613Y43474D01*
X261000Y41185D01*
Y38815D01*
X261613Y36526D01*
X262798Y34474D01*
X264474Y32798D01*
X266526Y31613D01*
X268815Y31000D01*
X271185D01*
X273474Y31613D01*
X275526Y32798D01*
X277202Y34474D01*
X278387Y36526D01*
X279000Y38815D01*
Y41185D01*
X278387Y43474D01*
X277202Y45526D01*
X275526Y47202D01*
X273474Y48387D01*
X271185Y49000D01*
D02*
G37*
G36*
X251185D02*
X248815D01*
X246526Y48387D01*
X244474Y47202D01*
X242798Y45526D01*
X241613Y43474D01*
X241000Y41185D01*
Y38815D01*
X241613Y36526D01*
X242798Y34474D01*
X244474Y32798D01*
X246526Y31613D01*
X248815Y31000D01*
X251185D01*
X253474Y31613D01*
X255526Y32798D01*
X257202Y34474D01*
X258387Y36526D01*
X259000Y38815D01*
Y41185D01*
X258387Y43474D01*
X257202Y45526D01*
X255526Y47202D01*
X253474Y48387D01*
X251185Y49000D01*
D02*
G37*
G36*
X231185D02*
X228815D01*
X226526Y48387D01*
X224474Y47202D01*
X222798Y45526D01*
X221613Y43474D01*
X221000Y41185D01*
Y38815D01*
X221613Y36526D01*
X222798Y34474D01*
X224474Y32798D01*
X226526Y31613D01*
X228815Y31000D01*
X231185D01*
X233474Y31613D01*
X235526Y32798D01*
X237202Y34474D01*
X238386Y36526D01*
X239000Y38815D01*
Y41185D01*
X238386Y43474D01*
X237202Y45526D01*
X235526Y47202D01*
X233474Y48387D01*
X231185Y49000D01*
D02*
G37*
G36*
X211185D02*
X208815D01*
X206526Y48387D01*
X204474Y47202D01*
X202798Y45526D01*
X201613Y43474D01*
X201000Y41185D01*
Y38815D01*
X201613Y36526D01*
X202798Y34474D01*
X204474Y32798D01*
X206526Y31613D01*
X208815Y31000D01*
X211185D01*
X213474Y31613D01*
X215526Y32798D01*
X217202Y34474D01*
X218386Y36526D01*
X219000Y38815D01*
Y41185D01*
X218386Y43474D01*
X217202Y45526D01*
X215526Y47202D01*
X213474Y48387D01*
X211185Y49000D01*
D02*
G37*
G36*
X191185D02*
X188815D01*
X186526Y48387D01*
X184474Y47202D01*
X182798Y45526D01*
X181613Y43474D01*
X181000Y41185D01*
Y38815D01*
X181613Y36526D01*
X182798Y34474D01*
X184474Y32798D01*
X186526Y31613D01*
X188815Y31000D01*
X191185D01*
X193474Y31613D01*
X195526Y32798D01*
X197202Y34474D01*
X198386Y36526D01*
X199000Y38815D01*
Y41185D01*
X198386Y43474D01*
X197202Y45526D01*
X195526Y47202D01*
X193474Y48387D01*
X191185Y49000D01*
D02*
G37*
G36*
X171185D02*
X168815D01*
X166526Y48387D01*
X164474Y47202D01*
X162798Y45526D01*
X161613Y43474D01*
X161000Y41185D01*
Y38815D01*
X161613Y36526D01*
X162798Y34474D01*
X164474Y32798D01*
X166526Y31613D01*
X168815Y31000D01*
X171185D01*
X173474Y31613D01*
X175526Y32798D01*
X177202Y34474D01*
X178387Y36526D01*
X179000Y38815D01*
Y41185D01*
X178387Y43474D01*
X177202Y45526D01*
X175526Y47202D01*
X173474Y48387D01*
X171185Y49000D01*
D02*
G37*
G36*
X470000Y40086D02*
X467389Y39743D01*
X464957Y38735D01*
X462868Y37132D01*
X461265Y35043D01*
X460257Y32611D01*
X459914Y30000D01*
X460257Y27390D01*
X461265Y24957D01*
X462868Y22868D01*
X464957Y21265D01*
X467389Y20257D01*
X470000Y19914D01*
X472611Y20257D01*
X475043Y21265D01*
X477132Y22868D01*
X478735Y24957D01*
X479743Y27390D01*
X480086Y30000D01*
X479743Y32611D01*
X478735Y35043D01*
X477132Y37132D01*
X475043Y38735D01*
X472611Y39743D01*
X470000Y40086D01*
D02*
G37*
G36*
X30000D02*
X27390Y39743D01*
X24957Y38735D01*
X22868Y37132D01*
X21265Y35043D01*
X20257Y32611D01*
X19914Y30000D01*
X20257Y27390D01*
X21265Y24957D01*
X22868Y22868D01*
X24957Y21265D01*
X27390Y20257D01*
X30000Y19914D01*
X32611Y20257D01*
X35043Y21265D01*
X37132Y22868D01*
X38735Y24957D01*
X39743Y27390D01*
X40086Y30000D01*
X39743Y32611D01*
X38735Y35043D01*
X37132Y37132D01*
X35043Y38735D01*
X32611Y39743D01*
X30000Y40086D01*
D02*
G37*
G36*
X411185Y29000D02*
X408815D01*
X406526Y28387D01*
X404474Y27202D01*
X402798Y25526D01*
X401614Y23474D01*
X401000Y21185D01*
Y18815D01*
X401614Y16526D01*
X402798Y14474D01*
X404474Y12798D01*
X406526Y11613D01*
X408815Y11000D01*
X411185D01*
X413474Y11613D01*
X415526Y12798D01*
X417202Y14474D01*
X418387Y16526D01*
X419000Y18815D01*
Y21185D01*
X418387Y23474D01*
X417202Y25526D01*
X415526Y27202D01*
X413474Y28387D01*
X411185Y29000D01*
D02*
G37*
G36*
X391185D02*
X388815D01*
X386526Y28387D01*
X384474Y27202D01*
X382799Y25526D01*
X381614Y23474D01*
X381000Y21185D01*
Y18815D01*
X381614Y16526D01*
X382799Y14474D01*
X384474Y12798D01*
X386526Y11613D01*
X388815Y11000D01*
X391185D01*
X393474Y11613D01*
X395526Y12798D01*
X397202Y14474D01*
X398387Y16526D01*
X399000Y18815D01*
Y21185D01*
X398387Y23474D01*
X397202Y25526D01*
X395526Y27202D01*
X393474Y28387D01*
X391185Y29000D01*
D02*
G37*
G36*
X371185D02*
X368815D01*
X366526Y28387D01*
X364474Y27202D01*
X362799Y25526D01*
X361614Y23474D01*
X361000Y21185D01*
Y18815D01*
X361614Y16526D01*
X362799Y14474D01*
X364474Y12798D01*
X366526Y11613D01*
X368815Y11000D01*
X371185D01*
X373474Y11613D01*
X375526Y12798D01*
X377202Y14474D01*
X378387Y16526D01*
X379000Y18815D01*
Y21185D01*
X378387Y23474D01*
X377202Y25526D01*
X375526Y27202D01*
X373474Y28387D01*
X371185Y29000D01*
D02*
G37*
G36*
X331185D02*
X328815D01*
X326526Y28387D01*
X324474Y27202D01*
X322798Y25526D01*
X321614Y23474D01*
X321000Y21185D01*
Y18815D01*
X321614Y16526D01*
X322798Y14474D01*
X324474Y12798D01*
X326526Y11613D01*
X328815Y11000D01*
X331185D01*
X333474Y11613D01*
X335526Y12798D01*
X337202Y14474D01*
X338387Y16526D01*
X339000Y18815D01*
Y21185D01*
X338387Y23474D01*
X337202Y25526D01*
X335526Y27202D01*
X333474Y28387D01*
X331185Y29000D01*
D02*
G37*
G36*
X271185D02*
X268815D01*
X266526Y28387D01*
X264474Y27202D01*
X262798Y25526D01*
X261613Y23474D01*
X261000Y21185D01*
Y18815D01*
X261613Y16526D01*
X262798Y14474D01*
X264474Y12798D01*
X266526Y11613D01*
X268815Y11000D01*
X271185D01*
X273474Y11613D01*
X275526Y12798D01*
X277202Y14474D01*
X278387Y16526D01*
X279000Y18815D01*
Y21185D01*
X278387Y23474D01*
X277202Y25526D01*
X275526Y27202D01*
X273474Y28387D01*
X271185Y29000D01*
D02*
G37*
G36*
X251185D02*
X248815D01*
X246526Y28387D01*
X244474Y27202D01*
X242798Y25526D01*
X241613Y23474D01*
X241000Y21185D01*
Y18815D01*
X241613Y16526D01*
X242798Y14474D01*
X244474Y12798D01*
X246526Y11613D01*
X248815Y11000D01*
X251185D01*
X253474Y11613D01*
X255526Y12798D01*
X257202Y14474D01*
X258387Y16526D01*
X259000Y18815D01*
Y21185D01*
X258387Y23474D01*
X257202Y25526D01*
X255526Y27202D01*
X253474Y28387D01*
X251185Y29000D01*
D02*
G37*
G36*
X231185D02*
X228815D01*
X226526Y28387D01*
X224474Y27202D01*
X222798Y25526D01*
X221613Y23474D01*
X221000Y21185D01*
Y18815D01*
X221613Y16526D01*
X222798Y14474D01*
X224474Y12798D01*
X226526Y11613D01*
X228815Y11000D01*
X231185D01*
X233474Y11613D01*
X235526Y12798D01*
X237202Y14474D01*
X238386Y16526D01*
X239000Y18815D01*
Y21185D01*
X238386Y23474D01*
X237202Y25526D01*
X235526Y27202D01*
X233474Y28387D01*
X231185Y29000D01*
D02*
G37*
G36*
X211185D02*
X208815D01*
X206526Y28387D01*
X204474Y27202D01*
X202798Y25526D01*
X201613Y23474D01*
X201000Y21185D01*
Y18815D01*
X201613Y16526D01*
X202798Y14474D01*
X204474Y12798D01*
X206526Y11613D01*
X208815Y11000D01*
X211185D01*
X213474Y11613D01*
X215526Y12798D01*
X217202Y14474D01*
X218386Y16526D01*
X219000Y18815D01*
Y21185D01*
X218386Y23474D01*
X217202Y25526D01*
X215526Y27202D01*
X213474Y28387D01*
X211185Y29000D01*
D02*
G37*
G36*
X191185D02*
X188815D01*
X186526Y28387D01*
X184474Y27202D01*
X182798Y25526D01*
X181613Y23474D01*
X181000Y21185D01*
Y18815D01*
X181613Y16526D01*
X182798Y14474D01*
X184474Y12798D01*
X186526Y11613D01*
X188815Y11000D01*
X191185D01*
X193474Y11613D01*
X195526Y12798D01*
X197202Y14474D01*
X198386Y16526D01*
X199000Y18815D01*
Y21185D01*
X198386Y23474D01*
X197202Y25526D01*
X195526Y27202D01*
X193474Y28387D01*
X191185Y29000D01*
D02*
G37*
G36*
X171185D02*
X168815D01*
X166526Y28387D01*
X164474Y27202D01*
X162798Y25526D01*
X161613Y23474D01*
X161000Y21185D01*
Y18815D01*
X161613Y16526D01*
X162798Y14474D01*
X164474Y12798D01*
X166526Y11613D01*
X168815Y11000D01*
X171185D01*
X173474Y11613D01*
X175526Y12798D01*
X177202Y14474D01*
X178387Y16526D01*
X179000Y18815D01*
Y21185D01*
X178387Y23474D01*
X177202Y25526D01*
X175526Y27202D01*
X173474Y28387D01*
X171185Y29000D01*
D02*
G37*
G36*
X131185D02*
X128815D01*
X126526Y28387D01*
X124474Y27202D01*
X122798Y25526D01*
X121613Y23474D01*
X121000Y21185D01*
Y18815D01*
X121613Y16526D01*
X122798Y14474D01*
X124474Y12798D01*
X126526Y11613D01*
X128815Y11000D01*
X131185D01*
X133474Y11613D01*
X135526Y12798D01*
X137202Y14474D01*
X138387Y16526D01*
X139000Y18815D01*
Y21185D01*
X138387Y23474D01*
X137202Y25526D01*
X135526Y27202D01*
X133474Y28387D01*
X131185Y29000D01*
D02*
G37*
G36*
X91185D02*
X88815D01*
X86526Y28387D01*
X84474Y27202D01*
X82798Y25526D01*
X81613Y23474D01*
X81000Y21185D01*
Y18815D01*
X81613Y16526D01*
X82798Y14474D01*
X84474Y12798D01*
X86526Y11613D01*
X88815Y11000D01*
X91185D01*
X93474Y11613D01*
X95526Y12798D01*
X97202Y14474D01*
X98386Y16526D01*
X99000Y18815D01*
Y21185D01*
X98386Y23474D01*
X97202Y25526D01*
X95526Y27202D01*
X93474Y28387D01*
X91185Y29000D01*
D02*
G37*
G36*
X319196Y17460D02*
X312540D01*
Y10804D01*
X313682Y11110D01*
X315858Y12366D01*
X317634Y14142D01*
X318890Y16318D01*
X319196Y17460D01*
D02*
G37*
G36*
X287460D02*
X280804D01*
X281110Y16318D01*
X282366Y14142D01*
X284142Y12366D01*
X286318Y11110D01*
X287460Y10804D01*
Y17460D01*
D02*
G37*
%LPD*%
G36*
X369925Y472500D02*
X368778Y472495D01*
X366737Y472377D01*
X365844Y472266D01*
X365036Y472119D01*
X364313Y471937D01*
X363675Y471719D01*
X363121Y471466D01*
X362653Y471178D01*
X362269Y470855D01*
X360855Y472269D01*
X361179Y472653D01*
X361467Y473121D01*
X361719Y473674D01*
X361937Y474313D01*
X362119Y475036D01*
X362266Y475844D01*
X362378Y476737D01*
X362495Y478777D01*
X362501Y479925D01*
X369925Y472500D01*
D02*
G37*
G36*
X269925D02*
X268777Y472495D01*
X266737Y472377D01*
X265844Y472266D01*
X265035Y472119D01*
X264312Y471937D01*
X263674Y471719D01*
X263121Y471466D01*
X262653Y471178D01*
X262269Y470855D01*
X260855Y472269D01*
X261178Y472653D01*
X261466Y473121D01*
X261719Y473674D01*
X261936Y474313D01*
X262119Y475036D01*
X262266Y475844D01*
X262377Y476737D01*
X262495Y478777D01*
X262500Y479925D01*
X269925Y472500D01*
D02*
G37*
G36*
X349925D02*
X348778Y472495D01*
X346737Y472377D01*
X345844Y472266D01*
X345036Y472119D01*
X344313Y471936D01*
X343674Y471719D01*
X343121Y471466D01*
X342653Y471178D01*
X342269Y470855D01*
X340855Y472269D01*
X341179Y472653D01*
X341466Y473121D01*
X341719Y473674D01*
X341937Y474312D01*
X342119Y475036D01*
X342266Y475844D01*
X342377Y476736D01*
X342495Y478777D01*
X342500Y479925D01*
X349925Y472500D01*
D02*
G37*
G36*
X329925D02*
X328778Y472495D01*
X326737Y472377D01*
X325844Y472266D01*
X325036Y472119D01*
X324313Y471936D01*
X323675Y471719D01*
X323121Y471466D01*
X322653Y471178D01*
X322269Y470855D01*
X320855Y472269D01*
X321179Y472653D01*
X321467Y473121D01*
X321719Y473674D01*
X321937Y474312D01*
X322119Y475036D01*
X322266Y475844D01*
X322378Y476736D01*
X322495Y478777D01*
X322500Y479925D01*
X329925Y472500D01*
D02*
G37*
G36*
X47459Y411810D02*
X47520Y411640D01*
X47622Y411490D01*
X47764Y411360D01*
X47947Y411250D01*
X48170Y411160D01*
X48434Y411090D01*
X48738Y411040D01*
X49084Y411010D01*
X49469Y411000D01*
Y409000D01*
X49084Y408990D01*
X48738Y408960D01*
X48434Y408910D01*
X48170Y408840D01*
X47947Y408750D01*
X47764Y408640D01*
X47622Y408510D01*
X47520Y408360D01*
X47459Y408190D01*
X47439Y408000D01*
Y412000D01*
X47459Y411810D01*
D02*
G37*
G36*
X27505Y408777D02*
X27623Y406737D01*
X27734Y405844D01*
X27881Y405036D01*
X28063Y404313D01*
X28281Y403674D01*
X28534Y403121D01*
X28822Y402653D01*
X29145Y402269D01*
X27731Y400855D01*
X27347Y401179D01*
X26879Y401466D01*
X26326Y401719D01*
X25687Y401937D01*
X24964Y402119D01*
X24156Y402266D01*
X23263Y402378D01*
X21223Y402495D01*
X20075Y402501D01*
X27500Y409925D01*
X27505Y408777D01*
D02*
G37*
G36*
X472653Y358822D02*
X473121Y358534D01*
X473674Y358281D01*
X474313Y358064D01*
X475036Y357881D01*
X475844Y357734D01*
X476737Y357623D01*
X478778Y357505D01*
X479925Y357500D01*
X472500Y350075D01*
X472495Y351223D01*
X472377Y353264D01*
X472266Y354157D01*
X472119Y354965D01*
X471937Y355688D01*
X471719Y356326D01*
X471466Y356879D01*
X471179Y357348D01*
X470855Y357731D01*
X472269Y359145D01*
X472653Y358822D01*
D02*
G37*
G36*
X454644Y344750D02*
X453828Y345558D01*
X452302Y346918D01*
X451592Y347470D01*
X450917Y347938D01*
X450277Y348320D01*
X449672Y348618D01*
X449102Y348830D01*
X448567Y348958D01*
X448067Y349000D01*
X448067Y351000D01*
X448567Y351043D01*
X449102Y351170D01*
X449672Y351383D01*
X450277Y351680D01*
X450917Y352063D01*
X451592Y352530D01*
X452303Y353083D01*
X453829Y354443D01*
X454644Y355250D01*
X454644Y344750D01*
D02*
G37*
G36*
X479925Y322500D02*
X478777Y322495D01*
X476736Y322378D01*
X475844Y322266D01*
X475036Y322119D01*
X474312Y321937D01*
X473674Y321719D01*
X473121Y321467D01*
X472653Y321179D01*
X472269Y320855D01*
X470855Y322269D01*
X471178Y322653D01*
X471466Y323121D01*
X471719Y323675D01*
X471936Y324313D01*
X472119Y325036D01*
X472266Y325844D01*
X472377Y326737D01*
X472495Y328778D01*
X472500Y329925D01*
X479925Y322500D01*
D02*
G37*
G36*
X27505Y308778D02*
X27623Y306737D01*
X27734Y305844D01*
X27881Y305036D01*
X28063Y304313D01*
X28281Y303675D01*
X28534Y303121D01*
X28822Y302653D01*
X29145Y302269D01*
X27731Y300855D01*
X27348Y301178D01*
X26879Y301467D01*
X26326Y301719D01*
X25688Y301937D01*
X24964Y302119D01*
X24156Y302266D01*
X23263Y302377D01*
X21223Y302495D01*
X20075Y302500D01*
X27500Y309925D01*
X27505Y308778D01*
D02*
G37*
G36*
X229092Y271973D02*
X229314Y271785D01*
X229420Y271709D01*
X229523Y271644D01*
X229622Y271591D01*
X229718Y271551D01*
X229810Y271522D01*
X229899Y271505D01*
X229985Y271500D01*
X228500Y270015D01*
X228495Y270101D01*
X228478Y270190D01*
X228449Y270282D01*
X228409Y270378D01*
X228356Y270477D01*
X228291Y270580D01*
X228215Y270686D01*
X228127Y270795D01*
X227915Y271025D01*
X228975Y272085D01*
X229092Y271973D01*
D02*
G37*
G36*
X421188Y267512D02*
X421210Y267274D01*
X421247Y267047D01*
X421300Y266830D01*
X421367Y266624D01*
X421450Y266429D01*
X421548Y266245D01*
X421660Y266071D01*
X421787Y265908D01*
X421930Y265755D01*
X418430D01*
X418573Y265908D01*
X418700Y266071D01*
X418812Y266245D01*
X418910Y266429D01*
X418993Y266624D01*
X419060Y266830D01*
X419113Y267047D01*
X419150Y267274D01*
X419173Y267512D01*
X419180Y267761D01*
X421180D01*
X421188Y267512D01*
D02*
G37*
G36*
X428440Y262800D02*
X428462Y262562D01*
X428500Y262334D01*
X428553Y262118D01*
X428620Y261912D01*
X428703Y261717D01*
X428800Y261532D01*
X428913Y261358D01*
X429040Y261195D01*
X429183Y261043D01*
X425682D01*
X425825Y261195D01*
X425952Y261358D01*
X426065Y261532D01*
X426162Y261717D01*
X426245Y261912D01*
X426312Y262118D01*
X426365Y262334D01*
X426403Y262562D01*
X426425Y262800D01*
X426432Y263049D01*
X428433D01*
X428440Y262800D01*
D02*
G37*
G36*
X27505Y268778D02*
X27623Y266737D01*
X27734Y265844D01*
X27881Y265036D01*
X28063Y264313D01*
X28281Y263675D01*
X28534Y263121D01*
X28822Y262653D01*
X29145Y262269D01*
X27731Y260855D01*
X27348Y261179D01*
X26879Y261467D01*
X26326Y261719D01*
X25688Y261937D01*
X24964Y262119D01*
X24156Y262266D01*
X23263Y262378D01*
X21223Y262495D01*
X20075Y262501D01*
X27500Y269925D01*
X27505Y268778D01*
D02*
G37*
G36*
X235040Y260910D02*
X235032Y260875D01*
X235025Y260823D01*
X235012Y260668D01*
X235000Y260153D01*
X235000Y260016D01*
X235050Y259071D01*
X232950D01*
X232960Y259090D01*
X232968Y259125D01*
X232976Y259177D01*
X232987Y259332D01*
X232999Y259847D01*
X233000Y259984D01*
X232950Y260929D01*
X235050D01*
X235040Y260910D01*
D02*
G37*
G36*
X232929Y256950D02*
X232910Y256959D01*
X232875Y256968D01*
X232823Y256975D01*
X232668Y256987D01*
X232153Y256999D01*
X232016Y257000D01*
X231071Y256950D01*
Y259050D01*
X231090Y259041D01*
X231125Y259032D01*
X231177Y259025D01*
X231332Y259013D01*
X231847Y259000D01*
X231984Y259000D01*
X232929Y259050D01*
Y256950D01*
D02*
G37*
G36*
X260403Y262537D02*
X260491Y262033D01*
X260288Y261116D01*
X260017Y261004D01*
X259033Y260019D01*
X258500Y258733D01*
Y257341D01*
X259033Y256054D01*
X259050Y256037D01*
X259032Y256019D01*
X258499Y254733D01*
Y253340D01*
X259032Y252054D01*
X259068Y252018D01*
X259033Y251983D01*
X258500Y250696D01*
Y249304D01*
X259033Y248017D01*
X260017Y247033D01*
X260885Y246673D01*
Y245327D01*
X260017Y244967D01*
X259033Y243983D01*
X258500Y242696D01*
Y241500D01*
X257304D01*
X256017Y240967D01*
X255033Y239983D01*
X254673Y239115D01*
X253327D01*
X252967Y239983D01*
X251983Y240967D01*
X250696Y241500D01*
X249304D01*
X248017Y240967D01*
X248000Y240950D01*
X247983Y240967D01*
X246696Y241500D01*
X245304D01*
X244017Y240967D01*
X244000Y240950D01*
X243983Y240967D01*
X242696Y241500D01*
X241500D01*
Y242696D01*
X240967Y243983D01*
X240950Y244000D01*
X240967Y244017D01*
X241500Y245304D01*
Y246696D01*
X240967Y247983D01*
X240950Y248000D01*
X240967Y248017D01*
X241500Y249304D01*
Y250696D01*
X240967Y251983D01*
X240950Y252000D01*
X240967Y252017D01*
X241500Y253304D01*
Y254696D01*
X240967Y255983D01*
X240950Y256000D01*
X240967Y256017D01*
X241500Y257304D01*
Y258500D01*
X242696D01*
X243983Y259033D01*
X244000Y259050D01*
X244017Y259033D01*
X245304Y258500D01*
X246696D01*
X247983Y259033D01*
X248000Y259050D01*
X248017Y259033D01*
X249304Y258500D01*
X250696D01*
X251983Y259033D01*
X252000Y259050D01*
X252017Y259033D01*
X253304Y258500D01*
X254696D01*
X255983Y259033D01*
X256967Y260017D01*
X257500Y261304D01*
Y262500D01*
X258696D01*
X259701Y262916D01*
X260403Y262537D01*
D02*
G37*
G36*
X228929Y252950D02*
X228911Y252959D01*
X228875Y252968D01*
X228823Y252976D01*
X228668Y252987D01*
X228153Y252999D01*
X227982Y253000D01*
Y255000D01*
X228929Y255050D01*
Y252950D01*
D02*
G37*
G36*
X433635Y252060D02*
X433482Y252202D01*
X433319Y252330D01*
X433145Y252442D01*
X432961Y252540D01*
X432766Y252623D01*
X432560Y252690D01*
X432343Y252743D01*
X432116Y252780D01*
X431878Y252803D01*
X431629Y252810D01*
Y254810D01*
X431878Y254818D01*
X432116Y254840D01*
X432343Y254877D01*
X432560Y254930D01*
X432766Y254998D01*
X432961Y255080D01*
X433145Y255177D01*
X433319Y255290D01*
X433482Y255417D01*
X433635Y255560D01*
Y252060D01*
D02*
G37*
G36*
X228929Y248950D02*
X228911Y248960D01*
X228875Y248968D01*
X228823Y248976D01*
X228668Y248988D01*
X228153Y249000D01*
X227982Y249000D01*
Y251000D01*
X228929Y251050D01*
Y248950D01*
D02*
G37*
G36*
Y244950D02*
X228911Y244960D01*
X228875Y244968D01*
X228823Y244975D01*
X228668Y244988D01*
X228153Y245000D01*
X227982Y245000D01*
Y247000D01*
X228929Y247050D01*
Y244950D01*
D02*
G37*
G36*
Y240950D02*
X228911Y240959D01*
X228875Y240968D01*
X228823Y240975D01*
X228668Y240987D01*
X228153Y241000D01*
X227982Y241000D01*
Y243000D01*
X228929Y243050D01*
Y240950D01*
D02*
G37*
G36*
X439985Y238090D02*
X439832Y238232D01*
X439669Y238360D01*
X439495Y238472D01*
X439311Y238570D01*
X439116Y238652D01*
X438910Y238720D01*
X438693Y238773D01*
X438466Y238810D01*
X438228Y238832D01*
X437979Y238840D01*
Y240840D01*
X438228Y240847D01*
X438466Y240870D01*
X438693Y240907D01*
X438910Y240960D01*
X439116Y241028D01*
X439311Y241110D01*
X439495Y241208D01*
X439669Y241320D01*
X439832Y241448D01*
X439985Y241590D01*
Y238090D01*
D02*
G37*
G36*
X271089Y239041D02*
X271125Y239032D01*
X271177Y239025D01*
X271332Y239013D01*
X271847Y239000D01*
X272018Y239000D01*
Y237000D01*
X271071Y236950D01*
Y239050D01*
X271089Y239041D01*
D02*
G37*
G36*
X228929Y236950D02*
X228911Y236959D01*
X228875Y236968D01*
X228823Y236975D01*
X228668Y236987D01*
X228153Y236999D01*
X227982Y237000D01*
Y239000D01*
X228929Y239050D01*
Y236950D01*
D02*
G37*
G36*
X345998Y236707D02*
X346182Y236555D01*
X346369Y236421D01*
X346559Y236304D01*
X346753Y236207D01*
X346949Y236127D01*
X347149Y236065D01*
X347351Y236022D01*
X347556Y235997D01*
X347765Y235990D01*
X345290Y233515D01*
X345283Y233724D01*
X345258Y233929D01*
X345215Y234132D01*
X345153Y234331D01*
X345073Y234527D01*
X344976Y234721D01*
X344859Y234911D01*
X344725Y235098D01*
X344573Y235282D01*
X344402Y235464D01*
X345816Y236878D01*
X345998Y236707D01*
D02*
G37*
G36*
X228929Y232950D02*
X228911Y232960D01*
X228875Y232968D01*
X228823Y232976D01*
X228668Y232987D01*
X228153Y232999D01*
X227982Y233000D01*
Y235000D01*
X228929Y235050D01*
Y232950D01*
D02*
G37*
G36*
X267041Y228911D02*
X267032Y228875D01*
X267024Y228823D01*
X267013Y228668D01*
X267001Y228153D01*
X267000Y227982D01*
X265000D01*
X264950Y228929D01*
X267050D01*
X267041Y228911D01*
D02*
G37*
G36*
X226500Y230696D02*
Y229304D01*
X226941Y228239D01*
Y202017D01*
X188483Y163559D01*
X120750D01*
X120750Y163559D01*
X119579Y163326D01*
X118587Y162663D01*
X118587Y162663D01*
X108983Y153059D01*
X48498D01*
X48387Y153474D01*
X47202Y155526D01*
X46710Y156018D01*
X47196Y157191D01*
X64580D01*
X64580Y157191D01*
X65750Y157424D01*
X66743Y158087D01*
X79663Y171007D01*
X79663Y171007D01*
X80326Y172000D01*
X80559Y173170D01*
Y206983D01*
X98927Y225351D01*
X210400D01*
X210400Y225351D01*
X211570Y225584D01*
X212563Y226247D01*
X217257Y230941D01*
X226336D01*
X226500Y230696D01*
D02*
G37*
G36*
X27505Y228777D02*
X27623Y226737D01*
X27734Y225844D01*
X27881Y225036D01*
X28063Y224312D01*
X28281Y223674D01*
X28534Y223121D01*
X28822Y222653D01*
X29145Y222269D01*
X27731Y220855D01*
X27347Y221178D01*
X26879Y221466D01*
X26326Y221719D01*
X25687Y221937D01*
X24964Y222119D01*
X24156Y222266D01*
X23263Y222377D01*
X21223Y222495D01*
X20075Y222500D01*
X27500Y229925D01*
X27505Y228777D01*
D02*
G37*
G36*
X27505Y168777D02*
X27623Y166737D01*
X27734Y165844D01*
X27881Y165036D01*
X28063Y164312D01*
X28281Y163674D01*
X28534Y163121D01*
X28822Y162653D01*
X29145Y162269D01*
X27731Y160855D01*
X27348Y161178D01*
X26879Y161466D01*
X26326Y161719D01*
X25688Y161937D01*
X24964Y162119D01*
X24156Y162266D01*
X23263Y162377D01*
X21223Y162495D01*
X20075Y162500D01*
X27500Y169925D01*
X27505Y168777D01*
D02*
G37*
G36*
X472653Y158822D02*
X473121Y158534D01*
X473674Y158281D01*
X474313Y158063D01*
X475036Y157881D01*
X475844Y157734D01*
X476737Y157623D01*
X478778Y157505D01*
X479925Y157500D01*
X472500Y150075D01*
X472495Y151223D01*
X472377Y153264D01*
X472266Y154157D01*
X472119Y154965D01*
X471937Y155688D01*
X471719Y156326D01*
X471466Y156879D01*
X471179Y157347D01*
X470855Y157731D01*
X472269Y159145D01*
X472653Y158822D01*
D02*
G37*
G36*
X27505Y148777D02*
X27623Y146737D01*
X27734Y145844D01*
X27881Y145036D01*
X28063Y144312D01*
X28281Y143674D01*
X28534Y143121D01*
X28822Y142653D01*
X29145Y142269D01*
X27731Y140855D01*
X27348Y141178D01*
X26879Y141466D01*
X26326Y141719D01*
X25688Y141937D01*
X24964Y142119D01*
X24156Y142266D01*
X23263Y142377D01*
X21223Y142495D01*
X20075Y142500D01*
X27500Y149925D01*
X27505Y148777D01*
D02*
G37*
G36*
X27505Y128777D02*
X27623Y126736D01*
X27734Y125843D01*
X27881Y125035D01*
X28063Y124312D01*
X28281Y123674D01*
X28534Y123121D01*
X28822Y122652D01*
X29145Y122269D01*
X27731Y120855D01*
X27347Y121178D01*
X26879Y121466D01*
X26326Y121719D01*
X25687Y121936D01*
X24964Y122119D01*
X24156Y122265D01*
X23263Y122377D01*
X21223Y122494D01*
X20075Y122500D01*
X27500Y129925D01*
X27505Y128777D01*
D02*
G37*
G36*
X91010Y49084D02*
X91040Y48738D01*
X91090Y48434D01*
X91160Y48170D01*
X91250Y47947D01*
X91360Y47764D01*
X91490Y47622D01*
X91640Y47520D01*
X91810Y47459D01*
X92000Y47439D01*
X88000D01*
X88190Y47459D01*
X88360Y47520D01*
X88510Y47622D01*
X88640Y47764D01*
X88750Y47947D01*
X88840Y48170D01*
X88910Y48434D01*
X88960Y48738D01*
X88990Y49084D01*
X89000Y49469D01*
X91000D01*
X91010Y49084D01*
D02*
G37*
G36*
X342653Y28822D02*
X343121Y28534D01*
X343674Y28281D01*
X344313Y28063D01*
X345036Y27881D01*
X345844Y27734D01*
X346737Y27623D01*
X348778Y27505D01*
X349925Y27500D01*
X342500Y20075D01*
X342495Y21223D01*
X342377Y23263D01*
X342266Y24156D01*
X342119Y24964D01*
X341937Y25688D01*
X341719Y26326D01*
X341466Y26879D01*
X341179Y27348D01*
X340855Y27731D01*
X342269Y29145D01*
X342653Y28822D01*
D02*
G37*
G36*
X142653Y28822D02*
X143121Y28534D01*
X143674Y28281D01*
X144312Y28063D01*
X145035Y27881D01*
X145844Y27734D01*
X146737Y27623D01*
X148777Y27505D01*
X149925Y27500D01*
X142500Y20075D01*
X142495Y21223D01*
X142377Y23263D01*
X142266Y24156D01*
X142119Y24964D01*
X141937Y25688D01*
X141719Y26326D01*
X141466Y26879D01*
X141178Y27347D01*
X140855Y27731D01*
X142269Y29145D01*
X142653Y28822D01*
D02*
G37*
G36*
X119145Y27731D02*
X118821Y27347D01*
X118533Y26879D01*
X118281Y26326D01*
X118063Y25687D01*
X117881Y24964D01*
X117734Y24156D01*
X117622Y23263D01*
X117505Y21223D01*
X117499Y20075D01*
X110075Y27500D01*
X111223Y27505D01*
X113263Y27623D01*
X114156Y27734D01*
X114964Y27881D01*
X115687Y28063D01*
X116326Y28281D01*
X116879Y28534D01*
X117347Y28822D01*
X117731Y29145D01*
X119145Y27731D01*
D02*
G37*
D13*
X144570Y79820D02*
X184630D01*
X139717Y74967D02*
X144570Y79820D01*
X139717Y30283D02*
Y74967D01*
X92589Y117990D02*
X92659Y117920D01*
X98568D01*
X126898Y146250D01*
X69818Y129350D02*
X102850D01*
X64500Y124032D02*
X69818Y129350D01*
X64500Y120000D02*
Y124032D01*
X180170Y243650D02*
X205550D01*
X123569Y300250D02*
X180170Y243650D01*
X29750Y300250D02*
X123569D01*
X182104Y248046D02*
X204866D01*
X120150Y310000D02*
X182104Y248046D01*
X40000Y310000D02*
X120150D01*
X174250Y262000D02*
X230000D01*
X157290Y278960D02*
X174250Y262000D01*
X157290Y278960D02*
Y302070D01*
X97660Y228410D02*
X210400D01*
X77500Y208250D02*
X97660Y228410D01*
X77500Y173170D02*
Y208250D01*
X64580Y160250D02*
X77500Y173170D01*
X94720Y232220D02*
X209035D01*
X72760Y210260D02*
X94720Y232220D01*
X72760Y179440D02*
Y210260D01*
X90530Y236030D02*
X208090D01*
X74750Y220250D02*
X90530Y236030D01*
X29750Y220250D02*
X74750D01*
X195500Y141250D02*
X246000Y191750D01*
X129500Y141250D02*
X195500D01*
X98250Y110000D02*
X129500Y141250D01*
X61070Y110000D02*
X98250D01*
X194000Y146250D02*
X242000Y194250D01*
X126898Y146250D02*
X194000D01*
X124750Y151250D02*
X193250D01*
X102850Y129350D02*
X124750Y151250D01*
X193250D02*
X238000Y196000D01*
X122750Y156000D02*
X191750D01*
X107000Y140250D02*
X122750Y156000D01*
X29750Y140250D02*
X107000D01*
X191750Y156000D02*
X234000Y198250D01*
X189750Y160500D02*
X230000Y200750D01*
X120750Y160500D02*
X189750D01*
X110250Y150000D02*
X120750Y160500D01*
X40000Y150000D02*
X110250D01*
X254000Y186750D02*
Y230000D01*
X216980Y149730D02*
X254000Y186750D01*
X216980Y119470D02*
Y149730D01*
X250000Y189040D02*
Y230000D01*
X199200Y138240D02*
X250000Y189040D01*
X199200Y125540D02*
Y138240D01*
X246000Y191750D02*
Y230000D01*
X242000Y194250D02*
Y230000D01*
X238000Y196000D02*
Y230000D01*
X234000Y198250D02*
Y230000D01*
X230000Y200750D02*
Y230000D01*
X247460Y109030D02*
X258000Y119570D01*
X368110Y142050D02*
X427950D01*
X361764Y148396D02*
X368110Y142050D01*
X361764Y148396D02*
Y228486D01*
X373000Y146250D02*
X443750D01*
X366250Y153000D02*
X373000Y146250D01*
X366250Y153000D02*
Y230250D01*
X381580Y155250D02*
X435920D01*
X375250Y161580D02*
X381580Y155250D01*
X375250Y161580D02*
Y233750D01*
X376037Y151000D02*
X441830D01*
X370750Y156287D02*
X376037Y151000D01*
X370750Y156287D02*
Y232250D01*
X427950Y142050D02*
X460000Y110000D01*
X355000Y254000D02*
X375250Y233750D01*
X353000Y250000D02*
X370750Y232250D01*
X350500Y246000D02*
X366250Y230250D01*
X348250Y242000D02*
X361764Y228486D01*
X443750Y146250D02*
X460000Y130000D01*
X441830Y151000D02*
X450580Y159750D01*
X435920Y155250D02*
X450670Y170000D01*
X370000Y370750D02*
Y460000D01*
X274130Y274880D02*
X370000Y370750D01*
X274130Y267363D02*
Y274880D01*
X360250Y368000D02*
Y470250D01*
X270000Y277750D02*
X360250Y368000D01*
X270000Y270000D02*
Y277750D01*
X350000Y364938D02*
Y460000D01*
X266000Y280938D02*
X350000Y364938D01*
X266000Y270000D02*
Y280938D01*
X340250Y362500D02*
Y470250D01*
X262000Y284250D02*
X340250Y362500D01*
X262000Y270037D02*
Y284250D01*
X330000Y359000D02*
Y460000D01*
X258000Y287000D02*
X330000Y359000D01*
X258000Y270000D02*
Y287000D01*
X320250Y356000D02*
Y470250D01*
X254000Y289750D02*
X320250Y356000D01*
X254000Y270000D02*
Y289750D01*
X270000Y250000D02*
X353000D01*
X270000Y254000D02*
X355000D01*
X357750Y258000D02*
X381960Y233790D01*
X270000Y258000D02*
X357750D01*
X270000Y242000D02*
X348250D01*
X270000Y246000D02*
X350500D01*
X381960Y233790D02*
X443790D01*
X210820Y254000D02*
X230000D01*
Y258000D02*
X234000D01*
X211900Y250000D02*
X230000D01*
X214060Y242000D02*
X230000D01*
X214815Y238000D02*
X230000D01*
X212980Y246000D02*
X230000D01*
X215990Y234000D02*
X230000D01*
X234000Y258000D02*
Y262000D01*
X209035Y232220D02*
X214815Y238000D01*
X208090Y236030D02*
X214060Y242000D01*
X176850Y266000D02*
X230000D01*
X210400Y228410D02*
X215990Y234000D01*
X161735Y281115D02*
X176850Y266000D01*
X250000Y270000D02*
Y399860D01*
X246000Y270000D02*
Y403480D01*
X270000Y266000D02*
X270191Y266191D01*
X272958D02*
X274130Y267363D01*
X270191Y266191D02*
X272958D01*
X270000Y262000D02*
X289037D01*
X343280Y238000D02*
X347790Y233490D01*
X270000Y238000D02*
X343280D01*
X270000Y234000D02*
X337120D01*
X262000Y112715D02*
Y230000D01*
X258000Y119570D02*
Y230000D01*
X266000Y126050D02*
Y230000D01*
X270000Y129950D02*
Y230000D01*
Y129950D02*
X280480Y119470D01*
X292784Y265746D02*
X293317D01*
X289037Y262000D02*
X292784Y265746D01*
X421450Y74740D02*
X464740D01*
X402400Y93790D02*
X421450Y74740D01*
X464740D02*
X480000Y90000D01*
X205550Y243650D02*
X211900Y250000D01*
X255080Y105795D02*
X262000Y112715D01*
X255080Y89980D02*
Y105795D01*
X190980Y86170D02*
Y93470D01*
X184630Y79820D02*
X190980Y86170D01*
X142050Y91250D02*
X183960D01*
X119750Y29750D02*
Y68950D01*
X142050Y91250D01*
X266000Y126050D02*
X340250Y51800D01*
X190980Y93470D02*
X216980Y119470D01*
X139717Y30283D02*
X150000Y20000D01*
X337120Y234000D02*
X345250Y225870D01*
X352870D01*
X90000Y40000D02*
Y50846D01*
X143937Y104783D01*
X192413D02*
X201180Y113550D01*
X143937Y104783D02*
X192413D01*
X278783Y138044D02*
X295917D01*
X346520Y87440D01*
X443790Y233790D02*
X460000Y250000D01*
X422720Y239840D02*
X441770D01*
X161735Y281115D02*
Y303975D01*
X204866Y248046D02*
X210820Y254000D01*
X59500Y399860D02*
X157290Y302070D01*
X29750Y120250D02*
X50820D01*
X61070Y110000D01*
X20000Y410000D02*
X30140Y399860D01*
X59500D01*
X408750Y253810D02*
Y333400D01*
Y253810D02*
X422720Y239840D01*
X413830Y258890D02*
Y327470D01*
X446110Y359750D01*
X413830Y258890D02*
X418910Y253810D01*
X408750Y333400D02*
X415100Y339750D01*
X446110Y359750D02*
X470250D01*
X346520Y87440D02*
X390000D01*
X324930Y117920D02*
X349060Y93790D01*
X402400D01*
X418910Y253810D02*
X435420D01*
X470250Y359750D02*
X480000Y350000D01*
X446520D02*
X460000D01*
X420180Y323660D02*
X446520Y350000D01*
X420180Y263970D02*
Y323660D01*
X427433Y310592D02*
X437090Y320250D01*
X427433Y259258D02*
Y310592D01*
X437090Y320250D02*
X470250D01*
X480000Y330000D01*
X110000Y20000D02*
X119750Y29750D01*
X20000Y130000D02*
X29750Y120250D01*
X20000Y230000D02*
X29750Y220250D01*
Y160250D02*
X64580D01*
X20000Y170000D02*
X29750Y160250D01*
X20000Y150000D02*
X29750Y140250D01*
X363030Y56960D02*
X417640D01*
X425260Y64580D01*
X340250Y29750D02*
Y51800D01*
Y29750D02*
X350000Y20000D01*
X330010Y77280D02*
X350000Y57290D01*
Y40000D02*
Y57290D01*
X470250Y159750D02*
X480000Y150000D01*
X29840Y260160D02*
X55690D01*
X76010Y239840D01*
X206820D01*
X20000Y310000D02*
X29750Y300250D01*
X55710Y410000D02*
X161735Y303975D01*
X40000Y410000D02*
X55710D01*
X250000Y399860D02*
X260250Y410110D01*
Y470250D02*
X270000Y480000D01*
X260250Y410110D02*
Y470250D01*
X360250D02*
X370000Y480000D01*
X340250Y470250D02*
X350000Y480000D01*
X320250Y470250D02*
X330000Y480000D01*
X250000Y407480D02*
Y460000D01*
X246000Y403480D02*
X250000Y407480D01*
X20000Y270000D02*
X29840Y260160D01*
X63320Y170000D02*
X72760Y179440D01*
X40000Y170000D02*
X63320D01*
X206820Y239840D02*
X212980Y246000D01*
X450580Y159750D02*
X470250D01*
X450670Y170000D02*
X460000D01*
X28861Y482884D02*
Y483265D01*
X29242Y484027D01*
X29623Y484407D01*
X30384Y484788D01*
X31908D01*
X32670Y484407D01*
X33050Y484027D01*
X33431Y483265D01*
Y482503D01*
X33050Y481741D01*
X32289Y480599D01*
X28480Y476790D01*
X33812D01*
D47*
X146620Y67120D02*
X286830D01*
X146500Y67000D02*
X146620Y67120D01*
X286830D02*
X288100Y68390D01*
Y76010D01*
D49*
X187349Y312651D02*
X230000Y270000D01*
X168343Y312651D02*
X187349D01*
D50*
X40000Y410000D02*
D03*
D51*
X20000D02*
D03*
Y330000D02*
D03*
X40000Y310000D02*
D03*
X20000D02*
D03*
Y270000D02*
D03*
Y230000D02*
D03*
X40000Y210000D02*
D03*
X20000D02*
D03*
X40000Y190000D02*
D03*
X20000D02*
D03*
X40000Y170000D02*
D03*
X20000D02*
D03*
X40000Y150000D02*
D03*
X20000D02*
D03*
Y130000D02*
D03*
X370000Y460000D02*
D03*
Y480000D02*
D03*
X350000Y460000D02*
D03*
Y480000D02*
D03*
X330000Y460000D02*
D03*
Y480000D02*
D03*
X310000Y460000D02*
D03*
Y480000D02*
D03*
X290000Y460000D02*
D03*
Y480000D02*
D03*
X270000D02*
D03*
X250000Y460000D02*
D03*
X190000D02*
D03*
Y480000D02*
D03*
X130000Y460000D02*
D03*
Y480000D02*
D03*
X480000Y350000D02*
D03*
X460000D02*
D03*
X480000Y330000D02*
D03*
X460000Y250000D02*
D03*
X480000Y210000D02*
D03*
X460000D02*
D03*
X480000Y190000D02*
D03*
X460000D02*
D03*
Y170000D02*
D03*
X480000Y150000D02*
D03*
X460000Y130000D02*
D03*
Y110000D02*
D03*
X480000Y90000D02*
D03*
X350000Y20000D02*
D03*
Y40000D02*
D03*
X310000Y20000D02*
D03*
Y40000D02*
D03*
X290000Y20000D02*
D03*
Y40000D02*
D03*
X150000Y20000D02*
D03*
X110000D02*
D03*
D52*
X90000Y40000D02*
D03*
D53*
X204280Y89980D02*
D03*
D54*
X255080D02*
D03*
D55*
X390970Y271590D02*
D03*
D57*
X230000Y258000D02*
D03*
Y250000D02*
D03*
Y238000D02*
D03*
Y246000D02*
D03*
Y230000D02*
D03*
X238000D02*
D03*
X234000Y258000D02*
D03*
X230000Y242000D02*
D03*
Y254000D02*
D03*
Y234000D02*
D03*
Y266000D02*
D03*
Y270000D02*
D03*
X250000Y230000D02*
D03*
X242000D02*
D03*
X234000D02*
D03*
Y262000D02*
D03*
X230000D02*
D03*
X234000Y270000D02*
D03*
X242000D02*
D03*
X246000D02*
D03*
X250000D02*
D03*
X270000Y266000D02*
D03*
X266000Y270000D02*
D03*
X270000Y258000D02*
D03*
Y250000D02*
D03*
Y242000D02*
D03*
Y234000D02*
D03*
X254000Y238000D02*
D03*
X258000Y230000D02*
D03*
X266000D02*
D03*
X270000Y270000D02*
D03*
X258000D02*
D03*
X254000D02*
D03*
X262000Y270037D02*
D03*
Y246000D02*
D03*
X270000Y230000D02*
D03*
Y246000D02*
D03*
Y238000D02*
D03*
X254000Y230000D02*
D03*
X270000Y254000D02*
D03*
X262000Y230000D02*
D03*
X246000D02*
D03*
X270000Y262000D02*
D03*
X258000D02*
D03*
D58*
X146500Y67000D02*
D03*
X288100Y76010D02*
D03*
D59*
X314750Y264000D02*
D03*
X293317Y265746D02*
D03*
X139510Y269050D02*
D03*
X278783Y138044D02*
D03*
X352870Y225870D02*
D03*
X434150Y105220D02*
D03*
X388430Y130620D02*
D03*
X327470Y191580D02*
D03*
X296990Y222060D02*
D03*
X327470Y225870D02*
D03*
X350330Y203010D02*
D03*
X168343Y312651D02*
D03*
X312230Y288100D02*
D03*
X441770Y239840D02*
D03*
X324930Y117920D02*
D03*
X280480Y119470D02*
D03*
X199200Y125540D02*
D03*
X435420Y253810D02*
D03*
X427433Y259258D02*
D03*
X420180Y263970D02*
D03*
X247460Y109030D02*
D03*
X390000Y87440D02*
D03*
X183960Y91250D02*
D03*
X201180Y113550D02*
D03*
X425260Y64580D02*
D03*
X330010Y77280D02*
D03*
X347790Y233490D02*
D03*
D60*
X92589Y117990D02*
D03*
X64500Y120000D02*
D03*
X415100Y339750D02*
D03*
X296990Y435420D02*
D03*
X70930Y293180D02*
D03*
X67120Y318580D02*
D03*
X495110Y425260D02*
D03*
Y349060D02*
D03*
Y272860D02*
D03*
Y196660D02*
D03*
Y120460D02*
D03*
Y44260D02*
D03*
X476060Y6160D02*
D03*
X437960Y463360D02*
D03*
X457010Y425260D02*
D03*
X437960Y82360D02*
D03*
X457010Y44260D02*
D03*
X437960Y6160D02*
D03*
X418910Y425260D02*
D03*
Y349060D02*
D03*
X399860Y310960D02*
D03*
Y6160D02*
D03*
X380810Y349060D02*
D03*
X361760Y6160D02*
D03*
X323660Y310960D02*
D03*
Y82360D02*
D03*
Y6160D02*
D03*
X285560Y387160D02*
D03*
Y6160D02*
D03*
X247460D02*
D03*
X209360Y387160D02*
D03*
Y6160D02*
D03*
X190310Y425260D02*
D03*
X171260Y6160D02*
D03*
X152210Y425260D02*
D03*
X133160Y387160D02*
D03*
X152210Y349060D02*
D03*
Y196660D02*
D03*
X133160Y6160D02*
D03*
X95060Y387160D02*
D03*
X114110Y196660D02*
D03*
X95060Y82360D02*
D03*
Y6160D02*
D03*
X56960Y463360D02*
D03*
X76010Y425260D02*
D03*
X56960Y82360D02*
D03*
Y6160D02*
D03*
X18860Y463360D02*
D03*
X37910Y425260D02*
D03*
Y44260D02*
D03*
X18860Y6160D02*
D03*
X228410Y331280D02*
D03*
X211900D02*
D03*
X64580Y261430D02*
D03*
X363030Y56960D02*
D03*
D61*
X198045Y271312D02*
D03*
M02*
