G04*
G04 #@! TF.GenerationSoftware,Altium Limited,Altium Designer,21.4.1 (30)*
G04*
G04 Layer_Physical_Order=4*
G04 Layer_Color=16711680*
%FSLAX44Y44*%
%MOMM*%
G71*
G04*
G04 #@! TF.SameCoordinates,32E730F9-F919-4429-9A71-2B0F18EA1AEE*
G04*
G04*
G04 #@! TF.FilePolarity,Positive*
G04*
G01*
G75*
%ADD10C,0.4000*%
%ADD13C,0.2000*%
%ADD14C,0.2540*%
G04:AMPARAMS|DCode=26|XSize=1.025mm|YSize=1.4mm|CornerRadius=0.123mm|HoleSize=0mm|Usage=FLASHONLY|Rotation=0.000|XOffset=0mm|YOffset=0mm|HoleType=Round|Shape=RoundedRectangle|*
%AMROUNDEDRECTD26*
21,1,1.0250,1.1540,0,0,0.0*
21,1,0.7790,1.4000,0,0,0.0*
1,1,0.2460,0.3895,-0.5770*
1,1,0.2460,-0.3895,-0.5770*
1,1,0.2460,-0.3895,0.5770*
1,1,0.2460,0.3895,0.5770*
%
%ADD26ROUNDEDRECTD26*%
G04:AMPARAMS|DCode=27|XSize=1mm|YSize=1.45mm|CornerRadius=0.125mm|HoleSize=0mm|Usage=FLASHONLY|Rotation=270.000|XOffset=0mm|YOffset=0mm|HoleType=Round|Shape=RoundedRectangle|*
%AMROUNDEDRECTD27*
21,1,1.0000,1.2000,0,0,270.0*
21,1,0.7500,1.4500,0,0,270.0*
1,1,0.2500,-0.6000,-0.3750*
1,1,0.2500,-0.6000,0.3750*
1,1,0.2500,0.6000,0.3750*
1,1,0.2500,0.6000,-0.3750*
%
%ADD27ROUNDEDRECTD27*%
G04:AMPARAMS|DCode=28|XSize=1mm|YSize=1.45mm|CornerRadius=0.125mm|HoleSize=0mm|Usage=FLASHONLY|Rotation=0.000|XOffset=0mm|YOffset=0mm|HoleType=Round|Shape=RoundedRectangle|*
%AMROUNDEDRECTD28*
21,1,1.0000,1.2000,0,0,0.0*
21,1,0.7500,1.4500,0,0,0.0*
1,1,0.2500,0.3750,-0.6000*
1,1,0.2500,-0.3750,-0.6000*
1,1,0.2500,-0.3750,0.6000*
1,1,0.2500,0.3750,0.6000*
%
%ADD28ROUNDEDRECTD28*%
%ADD30C,1.0000*%
%ADD46C,0.5000*%
%ADD47C,0.8000*%
%ADD50R,1.4000X1.4000*%
%ADD51C,1.4000*%
%ADD52R,1.4000X1.4000*%
G04:AMPARAMS|DCode=53|XSize=1.7mm|YSize=1.7mm|CornerRadius=0.85mm|HoleSize=0mm|Usage=FLASHONLY|Rotation=270.000|XOffset=0mm|YOffset=0mm|HoleType=Round|Shape=RoundedRectangle|*
%AMROUNDEDRECTD53*
21,1,1.7000,0.0000,0,0,270.0*
21,1,0.0000,1.7000,0,0,270.0*
1,1,1.7000,0.0000,0.0000*
1,1,1.7000,0.0000,0.0000*
1,1,1.7000,0.0000,0.0000*
1,1,1.7000,0.0000,0.0000*
%
%ADD53ROUNDEDRECTD53*%
%ADD54R,1.7000X1.7000*%
G04:AMPARAMS|DCode=55|XSize=1.7mm|YSize=1.7mm|CornerRadius=0.85mm|HoleSize=0mm|Usage=FLASHONLY|Rotation=180.000|XOffset=0mm|YOffset=0mm|HoleType=Round|Shape=RoundedRectangle|*
%AMROUNDEDRECTD55*
21,1,1.7000,0.0000,0,0,180.0*
21,1,0.0000,1.7000,0,0,180.0*
1,1,1.7000,0.0000,0.0000*
1,1,1.7000,0.0000,0.0000*
1,1,1.7000,0.0000,0.0000*
1,1,1.7000,0.0000,0.0000*
%
%ADD55ROUNDEDRECTD55*%
%ADD56R,1.7000X1.7000*%
%ADD57C,0.3000*%
%ADD58C,0.8000*%
%ADD59C,0.5000*%
%ADD60C,0.6000*%
%ADD61C,0.4064*%
%ADD62R,1.7500X0.9500*%
G04:AMPARAMS|DCode=63|XSize=0.875mm|YSize=0.95mm|CornerRadius=0.1094mm|HoleSize=0mm|Usage=FLASHONLY|Rotation=180.000|XOffset=0mm|YOffset=0mm|HoleType=Round|Shape=RoundedRectangle|*
%AMROUNDEDRECTD63*
21,1,0.8750,0.7313,0,0,180.0*
21,1,0.6563,0.9500,0,0,180.0*
1,1,0.2188,-0.3281,0.3656*
1,1,0.2188,0.3281,0.3656*
1,1,0.2188,0.3281,-0.3656*
1,1,0.2188,-0.3281,-0.3656*
%
%ADD63ROUNDEDRECTD63*%
G04:AMPARAMS|DCode=64|XSize=0.875mm|YSize=0.95mm|CornerRadius=0.1094mm|HoleSize=0mm|Usage=FLASHONLY|Rotation=90.000|XOffset=0mm|YOffset=0mm|HoleType=Round|Shape=RoundedRectangle|*
%AMROUNDEDRECTD64*
21,1,0.8750,0.7313,0,0,90.0*
21,1,0.6563,0.9500,0,0,90.0*
1,1,0.2188,0.3656,0.3281*
1,1,0.2188,0.3656,-0.3281*
1,1,0.2188,-0.3656,-0.3281*
1,1,0.2188,-0.3656,0.3281*
%
%ADD64ROUNDEDRECTD64*%
%ADD65C,0.7620*%
%ADD66C,1.0000*%
%ADD67C,0.7500*%
%ADD68C,0.5080*%
G36*
X497313Y2687D02*
X2687D01*
Y497313D01*
X497313D01*
Y2687D01*
D02*
G37*
%LPC*%
G36*
X171185Y489000D02*
X168815D01*
X166526Y488387D01*
X164474Y487202D01*
X164333Y487060D01*
X155667D01*
X155526Y487202D01*
X153474Y488387D01*
X151185Y489000D01*
X148815D01*
X146526Y488387D01*
X144474Y487202D01*
X142798Y485526D01*
X141613Y483474D01*
X141000Y481185D01*
Y478815D01*
X141613Y476526D01*
X142717Y474615D01*
X142722Y474590D01*
X142714Y474536D01*
X142940Y470257D01*
Y468457D01*
X142900Y466765D01*
X142850Y466109D01*
X142835Y466009D01*
X142815Y465926D01*
X142813Y465869D01*
X142806Y465831D01*
X142719Y465532D01*
X142728Y465444D01*
X142717Y465385D01*
X141613Y463474D01*
X141000Y461185D01*
Y458815D01*
X141613Y456526D01*
X142798Y454474D01*
X144474Y452798D01*
X146526Y451613D01*
X148815Y451000D01*
X151185D01*
X153474Y451613D01*
X155526Y452798D01*
X155667Y452940D01*
X161543D01*
X162940Y452907D01*
Y354918D01*
X163180Y353091D01*
X163886Y351388D01*
X165008Y349925D01*
X170866Y344068D01*
X172328Y342946D01*
X174031Y342240D01*
X175858Y342000D01*
X275019D01*
X275615Y340730D01*
X275000Y339245D01*
Y337576D01*
X252917Y315493D01*
X252254Y314501D01*
X252021Y313330D01*
X250822Y313314D01*
X247460D01*
Y305700D01*
Y298086D01*
X250920D01*
X251040Y298110D01*
X252021Y297304D01*
Y294546D01*
X251040Y293740D01*
X250920Y293764D01*
X238920D01*
X237652Y293512D01*
X237361Y293317D01*
X236360Y292872D01*
X235736Y293097D01*
X235721Y293102D01*
X235108Y293512D01*
X233840Y293764D01*
X221840D01*
X220572Y293512D01*
X219870Y293043D01*
X219819Y293076D01*
X219796Y293097D01*
X219781Y293102D01*
X219168Y293512D01*
X217900Y293764D01*
X205900D01*
X204632Y293512D01*
X203557Y292793D01*
X203444Y292624D01*
X196704D01*
X184339Y304989D01*
X182417Y306273D01*
X180150Y306724D01*
X124971D01*
X122704Y306273D01*
X120783Y304989D01*
X116036Y300242D01*
X114752Y298321D01*
X114301Y296054D01*
Y292589D01*
X114001Y292389D01*
X113287Y291320D01*
X113037Y290060D01*
Y278520D01*
X113287Y277260D01*
X114001Y276191D01*
X114301Y275991D01*
Y266769D01*
X114752Y264502D01*
X116036Y262580D01*
X130265Y248351D01*
X132187Y247067D01*
X133988Y246709D01*
X133863Y245439D01*
X118387D01*
X96849Y266977D01*
Y361760D01*
X96849Y361760D01*
X96616Y362930D01*
X95953Y363923D01*
X95953Y363923D01*
X77463Y382413D01*
X76470Y383076D01*
X75300Y383309D01*
X75300Y383309D01*
X47684D01*
X47466Y383835D01*
X47262Y384579D01*
X48387Y386526D01*
X49000Y388815D01*
Y391185D01*
X48387Y393474D01*
X47202Y395526D01*
X45526Y397202D01*
X43474Y398387D01*
X41185Y399000D01*
X38815D01*
X36526Y398387D01*
X34474Y397202D01*
X32798Y395526D01*
X31613Y393474D01*
X31000Y391185D01*
Y388815D01*
X31613Y386526D01*
X32738Y384579D01*
X32534Y383835D01*
X32316Y383309D01*
X31017D01*
X30499Y383827D01*
X30479Y383851D01*
X30336Y384083D01*
X30178Y384429D01*
X30020Y384892D01*
X29875Y385468D01*
X29751Y386153D01*
X29655Y386922D01*
X29544Y388841D01*
X29539Y389935D01*
X29461Y390315D01*
X29384Y390705D01*
X29381Y390710D01*
X29380Y390715D01*
X29162Y391038D01*
X28958Y391343D01*
X28387Y393474D01*
X27202Y395526D01*
X25526Y397202D01*
X23474Y398387D01*
X21185Y399000D01*
X18815D01*
X16526Y398387D01*
X14474Y397202D01*
X12798Y395526D01*
X11613Y393474D01*
X11000Y391185D01*
Y388815D01*
X11613Y386526D01*
X12798Y384474D01*
X14474Y382799D01*
X16526Y381614D01*
X18657Y381043D01*
X18957Y380842D01*
X19285Y380621D01*
X19290Y380620D01*
X19295Y380617D01*
X19679Y380540D01*
X20065Y380462D01*
X21159Y380456D01*
X23078Y380346D01*
X23847Y380249D01*
X24532Y380125D01*
X25109Y379980D01*
X25571Y379822D01*
X25917Y379664D01*
X26149Y379521D01*
X26173Y379501D01*
X27587Y378087D01*
X27587Y378087D01*
X28579Y377424D01*
X29750Y377192D01*
X32804D01*
X33290Y376018D01*
X32798Y375526D01*
X31613Y373474D01*
X31000Y371185D01*
Y368815D01*
X31613Y366526D01*
X32798Y364474D01*
X34474Y362798D01*
X36526Y361613D01*
X38815Y361000D01*
X41185D01*
X43474Y361613D01*
X45526Y362798D01*
X47202Y364474D01*
X48387Y366526D01*
X49000Y368815D01*
Y371185D01*
X48387Y373474D01*
X47202Y375526D01*
X46710Y376018D01*
X47196Y377192D01*
X74033D01*
X90731Y360493D01*
Y268254D01*
X89558Y267768D01*
X77551Y279774D01*
X78271Y280851D01*
X78741Y280656D01*
X80730D01*
X82568Y281417D01*
X83974Y282824D01*
X84736Y284662D01*
Y286651D01*
X83974Y288489D01*
X82837Y289626D01*
Y336115D01*
X84059Y337338D01*
X84820Y339175D01*
Y341165D01*
X84059Y343002D01*
X82652Y344409D01*
X80815Y345170D01*
X78825D01*
X76988Y344409D01*
X75581Y343002D01*
X74820Y341165D01*
Y339175D01*
X75581Y337338D01*
X76719Y336200D01*
Y289711D01*
X75497Y288489D01*
X74736Y286651D01*
Y284662D01*
X74930Y284191D01*
X73854Y283472D01*
X65163Y292163D01*
X64170Y292826D01*
X63000Y293059D01*
X63000Y293059D01*
X48498D01*
X48387Y293474D01*
X47202Y295526D01*
X45526Y297202D01*
X43474Y298387D01*
X41185Y299000D01*
X38815D01*
X36526Y298387D01*
X34474Y297202D01*
X32798Y295526D01*
X31613Y293474D01*
X31000Y291185D01*
Y288815D01*
X31613Y286526D01*
X32798Y284474D01*
X33290Y283983D01*
X32804Y282809D01*
X31517D01*
X30499Y283827D01*
X30479Y283851D01*
X30336Y284083D01*
X30178Y284429D01*
X30021Y284892D01*
X29875Y285468D01*
X29751Y286153D01*
X29655Y286922D01*
X29544Y288841D01*
X29539Y289935D01*
X29461Y290317D01*
X29384Y290706D01*
X29381Y290710D01*
X29380Y290715D01*
X29161Y291038D01*
X28958Y291343D01*
X28387Y293474D01*
X27202Y295526D01*
X25526Y297202D01*
X23474Y298387D01*
X21185Y299000D01*
X18815D01*
X16526Y298387D01*
X14474Y297202D01*
X12798Y295526D01*
X11613Y293474D01*
X11000Y291185D01*
Y288815D01*
X11613Y286526D01*
X12798Y284474D01*
X14474Y282798D01*
X16526Y281614D01*
X18657Y281042D01*
X18959Y280841D01*
X19285Y280620D01*
X19290Y280620D01*
X19295Y280617D01*
X19679Y280540D01*
X20065Y280461D01*
X21159Y280456D01*
X23078Y280346D01*
X23847Y280250D01*
X24532Y280125D01*
X25109Y279980D01*
X25571Y279822D01*
X25918Y279664D01*
X26149Y279521D01*
X26174Y279501D01*
X28087Y277588D01*
X28087Y277588D01*
X29079Y276924D01*
X30250Y276692D01*
X30250Y276692D01*
X32315D01*
X32535Y276163D01*
X32738Y275422D01*
X31613Y273474D01*
X31000Y271185D01*
Y268815D01*
X31613Y266526D01*
X32798Y264474D01*
X34474Y262799D01*
X36526Y261614D01*
X38815Y261000D01*
X41185D01*
X43474Y261614D01*
X45526Y262799D01*
X47202Y264474D01*
X48387Y266526D01*
X49000Y268815D01*
Y271185D01*
X48387Y273474D01*
X47262Y275422D01*
X47465Y276163D01*
X47684Y276692D01*
X65313D01*
X109272Y232732D01*
X108786Y231559D01*
X67210D01*
X67210Y231559D01*
X66040Y231326D01*
X65047Y230663D01*
X65047Y230663D01*
X57337Y222953D01*
X56674Y221961D01*
X56441Y220790D01*
X56441Y220790D01*
Y130767D01*
X43846Y118172D01*
X43474Y118386D01*
X41185Y119000D01*
X38815D01*
X36526Y118386D01*
X34474Y117201D01*
X32798Y115526D01*
X31613Y113474D01*
X31000Y111185D01*
Y108815D01*
X31613Y106526D01*
X32798Y104474D01*
X32916Y104356D01*
X32430Y103182D01*
X30124D01*
X30124Y103182D01*
X28953Y102950D01*
X27961Y102287D01*
X27961Y102287D01*
X26173Y100499D01*
X26149Y100479D01*
X25917Y100336D01*
X25571Y100178D01*
X25109Y100020D01*
X24532Y99875D01*
X23847Y99750D01*
X23078Y99655D01*
X21159Y99544D01*
X20065Y99539D01*
X19683Y99461D01*
X19295Y99383D01*
X19290Y99381D01*
X19285Y99380D01*
X18961Y99161D01*
X18657Y98958D01*
X16526Y98386D01*
X14474Y97202D01*
X12798Y95526D01*
X11613Y93474D01*
X11000Y91185D01*
Y88815D01*
X11613Y86526D01*
X12798Y84474D01*
X14474Y82798D01*
X16526Y81613D01*
X18815Y81000D01*
X21185D01*
X23474Y81613D01*
X25526Y82798D01*
X27202Y84474D01*
X28387Y86526D01*
X28958Y88657D01*
X29159Y88958D01*
X29380Y89285D01*
X29381Y89290D01*
X29384Y89295D01*
X29460Y89680D01*
X29539Y90065D01*
X29544Y91159D01*
X29655Y93078D01*
X29751Y93847D01*
X29875Y94532D01*
X30020Y95108D01*
X30178Y95571D01*
X30336Y95917D01*
X30479Y96149D01*
X30499Y96173D01*
X31391Y97065D01*
X32678D01*
X33164Y95892D01*
X32798Y95526D01*
X31613Y93474D01*
X31000Y91185D01*
Y88815D01*
X31613Y86526D01*
X32798Y84474D01*
X34474Y82798D01*
X36526Y81613D01*
X38815Y81000D01*
X41185D01*
X43474Y81613D01*
X45526Y82798D01*
X47202Y84474D01*
X48387Y86526D01*
X48498Y86941D01*
X67140D01*
X67140Y86941D01*
X68310Y87174D01*
X69303Y87837D01*
X75018Y93552D01*
X76191Y93066D01*
Y30750D01*
X76191Y30750D01*
X76424Y29579D01*
X77087Y28587D01*
X81828Y23846D01*
X81613Y23474D01*
X81000Y21185D01*
Y18815D01*
X81613Y16526D01*
X82798Y14474D01*
X84474Y12798D01*
X86526Y11613D01*
X88815Y11000D01*
X91185D01*
X93474Y11613D01*
X95526Y12798D01*
X97202Y14474D01*
X98386Y16526D01*
X99000Y18815D01*
Y21185D01*
X98386Y23474D01*
X97202Y25526D01*
X95526Y27202D01*
X93474Y28387D01*
X91185Y29000D01*
X88815D01*
X86526Y28387D01*
X86154Y28172D01*
X84499Y29827D01*
X84985Y31000D01*
X99000D01*
Y45015D01*
X100173Y45501D01*
X101828Y43846D01*
X101613Y43474D01*
X101000Y41185D01*
Y38815D01*
X101613Y36526D01*
X102798Y34474D01*
X104474Y32798D01*
X106526Y31613D01*
X108815Y31000D01*
X111185D01*
X113474Y31613D01*
X115526Y32798D01*
X116028Y33301D01*
X117298Y32775D01*
Y29643D01*
X117298Y29643D01*
X117531Y28472D01*
X118194Y27480D01*
X119501Y26173D01*
X119521Y26149D01*
X119664Y25918D01*
X119822Y25571D01*
X119979Y25109D01*
X120125Y24532D01*
X120249Y23847D01*
X120345Y23078D01*
X120456Y21159D01*
X120461Y20065D01*
X120539Y19683D01*
X120616Y19295D01*
X120619Y19290D01*
X120620Y19285D01*
X120840Y18961D01*
X121042Y18657D01*
X121613Y16526D01*
X122798Y14474D01*
X124474Y12798D01*
X126526Y11613D01*
X128815Y11000D01*
X131185D01*
X133474Y11613D01*
X135526Y12798D01*
X137202Y14474D01*
X138387Y16526D01*
X139000Y18815D01*
Y21185D01*
X138387Y23474D01*
X137202Y25526D01*
X135526Y27202D01*
X133474Y28387D01*
X131343Y28958D01*
X131040Y29160D01*
X130715Y29380D01*
X130710Y29381D01*
X130705Y29384D01*
X130319Y29460D01*
X129935Y29539D01*
X128841Y29544D01*
X126922Y29655D01*
X126153Y29751D01*
X125467Y29875D01*
X124891Y30020D01*
X124429Y30178D01*
X124082Y30336D01*
X123851Y30479D01*
X123827Y30499D01*
X123416Y30910D01*
Y32250D01*
X124686Y32676D01*
X126526Y31613D01*
X128815Y31000D01*
X131185D01*
X133474Y31613D01*
X135526Y32798D01*
X137202Y34474D01*
X138387Y36526D01*
X139000Y38815D01*
Y41185D01*
X138387Y43474D01*
X137202Y45526D01*
X135526Y47202D01*
X133474Y48387D01*
X133059Y48498D01*
Y110953D01*
X138517Y116411D01*
X196120D01*
X196968Y115141D01*
X196680Y114445D01*
Y112655D01*
X197365Y111001D01*
X198631Y109735D01*
X200285Y109050D01*
X202075D01*
X203729Y109735D01*
X204995Y111001D01*
X205680Y112655D01*
Y114445D01*
X205392Y115141D01*
X206240Y116411D01*
X277175D01*
X277931Y115655D01*
X279585Y114970D01*
X281375D01*
X283029Y115655D01*
X284295Y116921D01*
X284980Y118575D01*
Y120365D01*
X284629Y121211D01*
X285478Y122481D01*
X316043D01*
X320430Y118094D01*
Y117025D01*
X321115Y115371D01*
X322381Y114105D01*
X324035Y113420D01*
X325825D01*
X327479Y114105D01*
X328745Y115371D01*
X329430Y117025D01*
Y118815D01*
X328745Y120469D01*
X327479Y121735D01*
X325825Y122420D01*
X324756D01*
X319473Y127703D01*
X318480Y128366D01*
X317310Y128599D01*
X317310Y128599D01*
X202505D01*
X201749Y129355D01*
X200095Y130040D01*
X198305D01*
X196651Y129355D01*
X195385Y128089D01*
X194700Y126435D01*
Y124645D01*
X195051Y123799D01*
X194202Y122529D01*
X137250D01*
X136080Y122296D01*
X135087Y121633D01*
X135087Y121633D01*
X127837Y114383D01*
X127174Y113391D01*
X126941Y112220D01*
X126941Y112220D01*
Y48498D01*
X126526Y48387D01*
X124686Y47324D01*
X123416Y47750D01*
Y115483D01*
X123416Y115483D01*
X123183Y116653D01*
X122520Y117646D01*
X122520Y117646D01*
X120013Y120153D01*
X119021Y120816D01*
X117850Y121049D01*
X117850Y121049D01*
X96601D01*
X95421Y122229D01*
X93583Y122990D01*
X91594D01*
X89756Y122229D01*
X88350Y120822D01*
X87589Y118985D01*
Y116995D01*
X88350Y115158D01*
X89756Y113751D01*
X91594Y112990D01*
X93583D01*
X95421Y113751D01*
X96601Y114931D01*
X116583D01*
X117298Y114216D01*
Y47225D01*
X116028Y46699D01*
X115526Y47202D01*
X113474Y48387D01*
X111185Y49000D01*
X108815D01*
X106526Y48387D01*
X106154Y48172D01*
X86309Y68017D01*
Y141233D01*
X96450Y151374D01*
X261127D01*
X274283Y138218D01*
Y137149D01*
X274968Y135494D01*
X276234Y134229D01*
X277888Y133544D01*
X279678D01*
X281332Y134229D01*
X282598Y135494D01*
X283283Y137149D01*
Y138939D01*
X282598Y140593D01*
X281332Y141859D01*
X279678Y142544D01*
X279531D01*
X279012Y143161D01*
X279219Y144585D01*
X280485Y145851D01*
X281170Y147505D01*
Y149295D01*
X280485Y150949D01*
X279219Y152215D01*
X277565Y152900D01*
X275775D01*
X274121Y152215D01*
X272855Y150949D01*
X272604Y150344D01*
X271106Y150046D01*
X266134Y155018D01*
X266620Y156191D01*
X297983D01*
X336692Y117483D01*
Y88205D01*
X335935Y87449D01*
X335250Y85795D01*
Y84005D01*
X335935Y82351D01*
X337201Y81085D01*
X338855Y80400D01*
X340645D01*
X342299Y81085D01*
X343565Y82351D01*
X344250Y84005D01*
Y85795D01*
X343565Y87449D01*
X342809Y88205D01*
Y116432D01*
X343982Y116918D01*
X346941Y113959D01*
Y79315D01*
X346185Y78559D01*
X345500Y76905D01*
Y75115D01*
X346185Y73461D01*
X347451Y72195D01*
X349105Y71510D01*
X350895D01*
X352549Y72195D01*
X353815Y73461D01*
X354500Y75115D01*
Y76905D01*
X353815Y78559D01*
X353059Y79315D01*
Y114679D01*
X354329Y115205D01*
X355250Y114284D01*
Y113215D01*
X355935Y111561D01*
X357201Y110295D01*
X358855Y109610D01*
X360645D01*
X362299Y110295D01*
X363565Y111561D01*
X364250Y113215D01*
Y115005D01*
X363565Y116659D01*
X362299Y117925D01*
X360645Y118610D01*
X359576D01*
X302023Y176163D01*
X301031Y176826D01*
X299860Y177059D01*
X299860Y177059D01*
X93990D01*
X92819Y176826D01*
X91827Y176163D01*
X91827Y176163D01*
X69087Y153423D01*
X68424Y152430D01*
X68191Y151260D01*
X68191Y151260D01*
Y125039D01*
X66921Y124409D01*
X65495Y125000D01*
X63505D01*
X61668Y124239D01*
X60261Y122832D01*
X59500Y120995D01*
Y119005D01*
X60261Y117168D01*
X61668Y115761D01*
X63505Y115000D01*
X65495D01*
X66921Y115591D01*
X68191Y114961D01*
Y111887D01*
X59487Y103182D01*
X47570D01*
X47084Y104356D01*
X47202Y104474D01*
X48387Y106526D01*
X49000Y108815D01*
Y111185D01*
X48387Y113474D01*
X48172Y113846D01*
X61663Y127337D01*
X62326Y128329D01*
X62559Y129500D01*
X62559Y129500D01*
Y219523D01*
X68477Y225441D01*
X195250D01*
X195250Y225441D01*
X196275Y225645D01*
X196913Y225185D01*
X197340Y224761D01*
X197340Y224131D01*
Y211651D01*
X216766D01*
X216810Y211642D01*
X216853Y211651D01*
X218840D01*
Y211807D01*
X220104Y212098D01*
X220865Y211589D01*
X222133Y211337D01*
X234133D01*
X235401Y211589D01*
X236476Y212308D01*
X236583D01*
X237658Y211589D01*
X238926Y211337D01*
X246445D01*
X246716Y211283D01*
X254665D01*
X258748Y207200D01*
Y204654D01*
X259214Y202313D01*
X260540Y200329D01*
X273614Y187254D01*
X274115Y186919D01*
X274541Y186493D01*
X275098Y186263D01*
X275599Y185928D01*
X276190Y185811D01*
X276747Y185580D01*
X277349D01*
X277940Y185462D01*
X278531Y185580D01*
X279133D01*
X279690Y185811D01*
X280281Y185928D01*
X280782Y186263D01*
X281339Y186493D01*
X281765Y186919D01*
X282266Y187254D01*
X282600Y187755D01*
X283027Y188181D01*
X283257Y188738D01*
X283592Y189239D01*
X283709Y189830D01*
X283940Y190387D01*
Y190989D01*
X284058Y191580D01*
X283940Y192171D01*
Y192773D01*
X283709Y193330D01*
X283592Y193921D01*
X283257Y194422D01*
X283027Y194979D01*
X282600Y195405D01*
X282266Y195906D01*
X270983Y207188D01*
Y209734D01*
X270695Y211183D01*
X271865Y211809D01*
X376692Y106983D01*
Y83126D01*
X375421Y82683D01*
X374469Y83635D01*
X372815Y84320D01*
X371025D01*
X369371Y83635D01*
X368105Y82369D01*
X367420Y80715D01*
Y78925D01*
X368105Y77271D01*
X368861Y76515D01*
Y72197D01*
X365573Y68909D01*
X291244D01*
X290372Y70179D01*
X290441Y70358D01*
X290942Y70693D01*
X291499Y70924D01*
X291925Y71350D01*
X292426Y71684D01*
X310954Y90212D01*
X313500D01*
X314091Y90330D01*
X314694D01*
X315250Y90561D01*
X315841Y90678D01*
X316342Y91013D01*
X316899Y91243D01*
X317325Y91670D01*
X317826Y92004D01*
X318160Y92505D01*
X318587Y92931D01*
X318817Y93488D01*
X319152Y93989D01*
X319269Y94580D01*
X319500Y95136D01*
Y95739D01*
X319618Y96330D01*
X319500Y96921D01*
Y97523D01*
X319269Y98080D01*
X319152Y98671D01*
X318817Y99172D01*
X318587Y99729D01*
X318160Y100155D01*
X317826Y100656D01*
X317325Y100990D01*
X316899Y101417D01*
X316342Y101647D01*
X315841Y101982D01*
X315250Y102099D01*
X314694Y102330D01*
X314091D01*
X313500Y102448D01*
X308420D01*
X306079Y101982D01*
X304094Y100656D01*
X283774Y80336D01*
X283440Y79835D01*
X283013Y79409D01*
X282783Y78852D01*
X282448Y78351D01*
X282331Y77760D01*
X282100Y77203D01*
Y76601D01*
X281982Y76010D01*
X282100Y75419D01*
Y74816D01*
X282331Y74260D01*
X282448Y73669D01*
X282783Y73168D01*
X283013Y72611D01*
X283440Y72185D01*
X283774Y71684D01*
X284275Y71350D01*
X284701Y70924D01*
X285258Y70693D01*
X285759Y70358D01*
X285828Y70179D01*
X284956Y68909D01*
X266510D01*
X266510Y68909D01*
X265340Y68676D01*
X264347Y68013D01*
X264347Y68013D01*
X248997Y52663D01*
X248334Y51670D01*
X248101Y50500D01*
X248101Y50500D01*
Y48809D01*
X246526Y48387D01*
X244474Y47202D01*
X242798Y45526D01*
X241613Y43474D01*
X241000Y41185D01*
Y38815D01*
X241613Y36526D01*
X242798Y34474D01*
X244474Y32798D01*
X246526Y31613D01*
X248815Y31000D01*
X251185D01*
X253474Y31613D01*
X255526Y32798D01*
X256018Y33290D01*
X257191Y32804D01*
Y31517D01*
X256173Y30499D01*
X256149Y30479D01*
X255917Y30336D01*
X255571Y30178D01*
X255109Y30020D01*
X254532Y29875D01*
X253847Y29751D01*
X253078Y29655D01*
X251159Y29544D01*
X250065Y29539D01*
X249685Y29461D01*
X249295Y29384D01*
X249290Y29381D01*
X249285Y29380D01*
X248963Y29162D01*
X248657Y28958D01*
X246526Y28387D01*
X244474Y27202D01*
X242798Y25526D01*
X241613Y23474D01*
X241000Y21185D01*
Y18815D01*
X241613Y16526D01*
X242798Y14474D01*
X244474Y12798D01*
X246526Y11613D01*
X248815Y11000D01*
X251185D01*
X253474Y11613D01*
X255526Y12798D01*
X257202Y14474D01*
X258387Y16526D01*
X258958Y18657D01*
X259158Y18957D01*
X259380Y19285D01*
X259381Y19290D01*
X259384Y19295D01*
X259460Y19679D01*
X259539Y20065D01*
X259544Y21159D01*
X259655Y23078D01*
X259751Y23847D01*
X259875Y24532D01*
X260021Y25109D01*
X260178Y25571D01*
X260336Y25917D01*
X260479Y26149D01*
X260499Y26173D01*
X262413Y28087D01*
X262413Y28087D01*
X263076Y29079D01*
X263309Y30250D01*
X263309Y30250D01*
Y32316D01*
X263835Y32534D01*
X264579Y32738D01*
X266526Y31613D01*
X268815Y31000D01*
X271185D01*
X273474Y31613D01*
X275526Y32798D01*
X276018Y33291D01*
X277192Y32805D01*
Y31517D01*
X276173Y30499D01*
X276149Y30479D01*
X275917Y30336D01*
X275571Y30178D01*
X275109Y30020D01*
X274532Y29875D01*
X273847Y29751D01*
X273078Y29655D01*
X271159Y29544D01*
X270065Y29539D01*
X269685Y29461D01*
X269295Y29384D01*
X269290Y29381D01*
X269285Y29380D01*
X268963Y29162D01*
X268657Y28958D01*
X266526Y28387D01*
X264474Y27202D01*
X262798Y25526D01*
X261613Y23474D01*
X261000Y21185D01*
Y18815D01*
X261613Y16526D01*
X262798Y14474D01*
X264474Y12798D01*
X266526Y11613D01*
X268815Y11000D01*
X271185D01*
X273474Y11613D01*
X275526Y12798D01*
X277202Y14474D01*
X278387Y16526D01*
X278958Y18657D01*
X279158Y18957D01*
X279190Y19005D01*
X280401Y18756D01*
X280466Y18722D01*
X281110Y16318D01*
X282366Y14142D01*
X284142Y12366D01*
X286318Y11110D01*
X287460Y10804D01*
Y20000D01*
X292540D01*
Y10804D01*
X293682Y11110D01*
X295858Y12366D01*
X297634Y14142D01*
X298890Y16318D01*
X299343Y18007D01*
X300658D01*
X301110Y16318D01*
X302366Y14142D01*
X304142Y12366D01*
X306318Y11110D01*
X307460Y10804D01*
Y20000D01*
X310000D01*
Y22540D01*
X319196D01*
X318890Y23682D01*
X317634Y25858D01*
X315858Y27634D01*
X313682Y28890D01*
X311993Y29343D01*
Y30657D01*
X313682Y31110D01*
X315858Y32366D01*
X317634Y34142D01*
X318890Y36318D01*
X319196Y37460D01*
X310000D01*
Y40000D01*
X307460D01*
Y49196D01*
X306318Y48890D01*
X304142Y47634D01*
X302366Y45858D01*
X301110Y43682D01*
X300658Y41993D01*
X299343D01*
X298890Y43682D01*
X297634Y45858D01*
X295858Y47634D01*
X293682Y48890D01*
X291256Y49540D01*
X289342D01*
X288816Y50810D01*
X291907Y53901D01*
X359018D01*
X360198Y52721D01*
X362035Y51960D01*
X364025D01*
X365862Y52721D01*
X367269Y54128D01*
X368030Y55965D01*
Y57955D01*
X367269Y59792D01*
X365862Y61199D01*
X365084Y61521D01*
X365336Y62791D01*
X366840D01*
X366840Y62791D01*
X368010Y63024D01*
X369003Y63687D01*
X374083Y68767D01*
X374083Y68767D01*
X374746Y69759D01*
X374979Y70930D01*
X374979Y70930D01*
Y75780D01*
X375421Y76119D01*
X376692Y75491D01*
Y67300D01*
X376692Y67300D01*
X376924Y66129D01*
X377587Y65137D01*
X392858Y49867D01*
X392201Y48728D01*
X391185Y49000D01*
X388815D01*
X386526Y48387D01*
X384474Y47202D01*
X382799Y45526D01*
X381614Y43474D01*
X381000Y41185D01*
Y38815D01*
X381614Y36526D01*
X382799Y34474D01*
X384474Y32798D01*
X386526Y31613D01*
X388815Y31000D01*
X391185D01*
X393474Y31613D01*
X395526Y32798D01*
X396018Y33290D01*
X397191Y32804D01*
Y29750D01*
X397191Y29750D01*
X397424Y28579D01*
X398087Y27587D01*
X399501Y26173D01*
X399521Y26149D01*
X399664Y25917D01*
X399822Y25571D01*
X399980Y25109D01*
X400125Y24532D01*
X400249Y23847D01*
X400346Y23078D01*
X400456Y21159D01*
X400461Y20065D01*
X400539Y19683D01*
X400617Y19295D01*
X400620Y19290D01*
X400621Y19285D01*
X400839Y18961D01*
X401043Y18657D01*
X401614Y16526D01*
X402798Y14474D01*
X404474Y12798D01*
X406526Y11613D01*
X408815Y11000D01*
X411185D01*
X413474Y11613D01*
X415526Y12798D01*
X417202Y14474D01*
X418387Y16526D01*
X419000Y18815D01*
Y21185D01*
X418387Y23474D01*
X417202Y25526D01*
X415526Y27202D01*
X413474Y28387D01*
X411343Y28958D01*
X411042Y29159D01*
X410715Y29380D01*
X410710Y29381D01*
X410705Y29384D01*
X410320Y29460D01*
X409935Y29539D01*
X408841Y29544D01*
X406922Y29655D01*
X406153Y29751D01*
X405468Y29875D01*
X404892Y30020D01*
X404429Y30178D01*
X404083Y30336D01*
X403851Y30479D01*
X403827Y30499D01*
X403309Y31017D01*
Y32316D01*
X403835Y32534D01*
X404579Y32738D01*
X406526Y31613D01*
X408815Y31000D01*
X411185D01*
X413474Y31613D01*
X415526Y32798D01*
X417202Y34474D01*
X418387Y36526D01*
X419000Y38815D01*
Y41185D01*
X418387Y43474D01*
X417202Y45526D01*
X415526Y47202D01*
X413474Y48387D01*
X411206Y48994D01*
Y97635D01*
X411206Y97635D01*
X410973Y98805D01*
X410310Y99798D01*
X410310Y99798D01*
X266136Y243972D01*
X265144Y244635D01*
X264109Y244840D01*
X263983Y244967D01*
X263769Y246430D01*
X264001Y246666D01*
X267936D01*
X269403Y245200D01*
X270484Y244477D01*
X271760Y244223D01*
X275972D01*
X276336Y243678D01*
Y237650D01*
X276589Y236382D01*
X277307Y235307D01*
X278382Y234589D01*
X279650Y234336D01*
X281312D01*
Y233879D01*
X281661Y232123D01*
X282656Y230635D01*
X285585Y227706D01*
X287073Y226711D01*
X288829Y226362D01*
X310017D01*
X311609Y225298D01*
X313950Y224832D01*
X316291Y225298D01*
X318276Y226624D01*
X329326Y237674D01*
X330652Y239659D01*
X330830Y240552D01*
X332211Y240985D01*
X332783Y240461D01*
Y196297D01*
X333248Y193956D01*
X334574Y191971D01*
X360882Y165664D01*
X362866Y164338D01*
X365207Y163873D01*
X380470D01*
Y159490D01*
X401470D01*
Y180490D01*
X380470D01*
Y176108D01*
X367741D01*
X345018Y198831D01*
Y228393D01*
X346288Y229242D01*
X346895Y228990D01*
X347967D01*
X348782Y227760D01*
X348370Y226765D01*
Y224975D01*
X349055Y223321D01*
X350321Y222055D01*
X351975Y221370D01*
X353765D01*
X355419Y222055D01*
X356685Y223321D01*
X357370Y224975D01*
Y226044D01*
X359313Y227987D01*
X359313Y227987D01*
X359976Y228979D01*
X360209Y230150D01*
X360209Y230150D01*
Y240080D01*
X361045D01*
X362305Y240330D01*
X363374Y241044D01*
X364088Y242113D01*
X364338Y243373D01*
Y254913D01*
X364088Y256173D01*
X363374Y257242D01*
X362305Y257956D01*
X361045Y258206D01*
X360209D01*
Y268253D01*
X380370Y288414D01*
X413155D01*
X413312Y288202D01*
X413629Y287144D01*
X409127Y282643D01*
X408464Y281651D01*
X408231Y280480D01*
X408231Y280480D01*
Y111570D01*
X408231Y111570D01*
X408464Y110400D01*
X409127Y109407D01*
X422201Y96333D01*
Y67885D01*
X421445Y67129D01*
X420760Y65475D01*
Y63685D01*
X421445Y62031D01*
X422711Y60765D01*
X424365Y60080D01*
X426155D01*
X427809Y60765D01*
X429075Y62031D01*
X429760Y63685D01*
Y65475D01*
X429075Y67129D01*
X428319Y67885D01*
Y97600D01*
X428086Y98771D01*
X427423Y99763D01*
X427423Y99763D01*
X414349Y112837D01*
Y279213D01*
X417327Y282191D01*
X429195D01*
X429951Y281435D01*
X431605Y280750D01*
X433395D01*
X435049Y281435D01*
X436315Y282701D01*
X436693Y283613D01*
X438173Y283928D01*
X440406Y281696D01*
Y256847D01*
X439593Y256508D01*
X439136Y256458D01*
X437969Y257625D01*
X436315Y258310D01*
X434525D01*
X433029Y257690D01*
X432399Y258056D01*
X431932Y258482D01*
Y260153D01*
X431247Y261807D01*
X429981Y263072D01*
X428328Y263757D01*
X426537D01*
X425950Y263514D01*
X424680Y264363D01*
Y264865D01*
X423995Y266519D01*
X422729Y267785D01*
X421075Y268470D01*
X419285D01*
X417631Y267785D01*
X416365Y266519D01*
X415680Y264865D01*
Y263075D01*
X416365Y261421D01*
X417631Y260155D01*
X419285Y259470D01*
X421075D01*
X421662Y259713D01*
X422933Y258865D01*
Y258362D01*
X423618Y256709D01*
X424883Y255443D01*
X426537Y254757D01*
X428328D01*
X429824Y255377D01*
X430453Y255012D01*
X430920Y254585D01*
Y252915D01*
X431605Y251261D01*
X432871Y249995D01*
X434525Y249310D01*
X436315D01*
X437969Y249995D01*
X439136Y251162D01*
X439593Y251112D01*
X440406Y250773D01*
Y246535D01*
X440406Y246535D01*
X440639Y245365D01*
X440030Y243990D01*
X439221Y243655D01*
X437955Y242389D01*
X437270Y240735D01*
Y238945D01*
X437955Y237291D01*
X439221Y236025D01*
X440875Y235340D01*
X442665D01*
X444319Y236025D01*
X445585Y237291D01*
X445878Y238000D01*
X447377Y238298D01*
X451828Y233846D01*
X451613Y233474D01*
X451000Y231185D01*
Y228815D01*
X451613Y226526D01*
X452798Y224474D01*
X454474Y222798D01*
X456526Y221613D01*
X458815Y221000D01*
X461185D01*
X463474Y221613D01*
X465526Y222798D01*
X467202Y224474D01*
X468387Y226526D01*
X469000Y228815D01*
Y231185D01*
X468387Y233474D01*
X467202Y235526D01*
X466700Y236028D01*
X467166Y237154D01*
X468399Y237275D01*
X471828Y233846D01*
X471613Y233474D01*
X471000Y231185D01*
Y228815D01*
X471613Y226526D01*
X472798Y224474D01*
X474474Y222798D01*
X476526Y221613D01*
X478815Y221000D01*
X481185D01*
X483474Y221613D01*
X485526Y222798D01*
X487202Y224474D01*
X488387Y226526D01*
X489000Y228815D01*
Y231185D01*
X488387Y233474D01*
X487202Y235526D01*
X485526Y237202D01*
X483474Y238387D01*
X481185Y239000D01*
X478815D01*
X476526Y238387D01*
X476154Y238172D01*
X471806Y242520D01*
X470813Y243183D01*
X469643Y243416D01*
X469643Y243416D01*
X467750D01*
X467324Y244686D01*
X468387Y246526D01*
X469000Y248815D01*
Y251185D01*
X468387Y253474D01*
X467202Y255526D01*
X465526Y257202D01*
X463474Y258387D01*
X461185Y259000D01*
X458815D01*
X456526Y258387D01*
X454474Y257202D01*
X452798Y255526D01*
X452449Y254921D01*
X451179Y255261D01*
Y264739D01*
X452449Y265079D01*
X452798Y264474D01*
X454474Y262799D01*
X456526Y261614D01*
X458815Y261000D01*
X461185D01*
X463474Y261614D01*
X465526Y262799D01*
X467202Y264474D01*
X468387Y266526D01*
X469000Y268815D01*
Y271185D01*
X468387Y273474D01*
X467202Y275526D01*
X465526Y277202D01*
X463474Y278387D01*
X461185Y279000D01*
X458815D01*
X456526Y278387D01*
X454474Y277202D01*
X452798Y275526D01*
X452449Y274921D01*
X451179Y275261D01*
Y284739D01*
X452449Y285079D01*
X452798Y284474D01*
X454474Y282798D01*
X456526Y281614D01*
X458815Y281000D01*
X461185D01*
X463474Y281614D01*
X465526Y282798D01*
X467202Y284474D01*
X468387Y286526D01*
X469000Y288815D01*
Y291185D01*
X468387Y293474D01*
X467202Y295526D01*
X465526Y297202D01*
X463474Y298387D01*
X461185Y299000D01*
X458815D01*
X456526Y298387D01*
X454474Y297202D01*
X452798Y295526D01*
X452449Y294921D01*
X451179Y295261D01*
Y304739D01*
X452449Y305079D01*
X452798Y304474D01*
X454474Y302798D01*
X456526Y301614D01*
X458815Y301000D01*
X461185D01*
X463474Y301614D01*
X465526Y302798D01*
X467202Y304474D01*
X468387Y306526D01*
X469000Y308815D01*
Y311185D01*
X468387Y313474D01*
X467202Y315526D01*
X465526Y317202D01*
X463474Y318387D01*
X461185Y319000D01*
X458815D01*
X456526Y318387D01*
X454474Y317202D01*
X452798Y315526D01*
X452257Y314589D01*
X451390Y314643D01*
X450888Y314757D01*
X450283Y315663D01*
X450283Y315663D01*
X441147Y324799D01*
X440154Y325462D01*
X438984Y325695D01*
X438984Y325695D01*
X364338D01*
Y328406D01*
X364088Y329666D01*
X363374Y330735D01*
X362305Y331449D01*
X361045Y331699D01*
X353255D01*
X351995Y331449D01*
X350926Y330735D01*
X350212Y329666D01*
X349962Y328406D01*
Y316866D01*
X350212Y315606D01*
X350926Y314537D01*
X351995Y313824D01*
X353255Y313573D01*
X354091D01*
Y299997D01*
X349734Y295640D01*
X348065D01*
X346228Y294879D01*
X344821Y293472D01*
X344060Y291635D01*
Y289645D01*
X344821Y287808D01*
X345800Y286829D01*
X345274Y285559D01*
X331022D01*
X330385Y286343D01*
X330249Y286829D01*
X330467Y287155D01*
X330584Y287746D01*
X330815Y288303D01*
Y288905D01*
X330932Y289496D01*
X330815Y290087D01*
Y290690D01*
X330584Y291246D01*
X330467Y291837D01*
X330132Y292338D01*
X329902Y292895D01*
X329475Y293321D01*
X329141Y293822D01*
X316312Y306651D01*
X314327Y307977D01*
X311986Y308443D01*
X284377D01*
X284073Y308646D01*
X282866Y308886D01*
X275554D01*
X275104Y309255D01*
Y309450D01*
X274810Y310929D01*
X273972Y312183D01*
X272719Y313020D01*
X271240Y313314D01*
X267780D01*
Y305700D01*
Y298086D01*
X271240D01*
X272175Y298272D01*
X272640Y297962D01*
X273323Y296938D01*
X274347Y296255D01*
X275554Y296014D01*
X282866D01*
X283836Y296208D01*
X309452D01*
X318928Y286732D01*
X318442Y285559D01*
X287250D01*
X286021Y286609D01*
Y289981D01*
X285781Y291189D01*
X285097Y292212D01*
X284073Y292896D01*
X282866Y293136D01*
X275554D01*
X274347Y292896D01*
X274053Y292700D01*
X273583Y292793D01*
X272508Y293512D01*
X271240Y293764D01*
X259240D01*
X259121Y293740D01*
X258139Y294546D01*
Y297304D01*
X259121Y298110D01*
X259240Y298086D01*
X262700D01*
Y305700D01*
Y313314D01*
X261049D01*
X260564Y314488D01*
X279326Y333250D01*
X280995D01*
X282832Y334011D01*
X284239Y335418D01*
X285000Y337255D01*
Y339245D01*
X284385Y340730D01*
X284981Y342000D01*
X330118D01*
X331840Y340278D01*
Y329049D01*
X331712Y328406D01*
Y316866D01*
X331840Y316223D01*
Y308420D01*
X332080Y306593D01*
X332785Y304890D01*
X333908Y303428D01*
X335370Y302306D01*
X337073Y301600D01*
X338900Y301360D01*
X340727Y301600D01*
X342430Y302306D01*
X343893Y303428D01*
X345014Y304890D01*
X345720Y306593D01*
X345960Y308420D01*
Y316223D01*
X346088Y316866D01*
Y328406D01*
X345960Y329049D01*
Y343202D01*
X345720Y345029D01*
X345014Y346732D01*
X343893Y348195D01*
X338035Y354053D01*
X336572Y355174D01*
X334869Y355880D01*
X333042Y356120D01*
X178783D01*
X177061Y357842D01*
Y454333D01*
X177202Y454474D01*
X178387Y456526D01*
X179000Y458815D01*
Y461185D01*
X178387Y463474D01*
X177202Y465526D01*
X175526Y467202D01*
X173474Y468387D01*
X171185Y469000D01*
X168815D01*
X166526Y468387D01*
X164615Y467284D01*
X164590Y467279D01*
X164536Y467286D01*
X160258Y467061D01*
X157202D01*
X157061Y469742D01*
Y471544D01*
X157093Y472940D01*
X164332D01*
X164474Y472798D01*
X166526Y471613D01*
X168815Y471000D01*
X171185D01*
X173474Y471613D01*
X175526Y472798D01*
X177202Y474474D01*
X178387Y476526D01*
X179000Y478815D01*
Y481185D01*
X178387Y483474D01*
X177202Y485526D01*
X175526Y487202D01*
X173474Y488387D01*
X171185Y489000D01*
D02*
G37*
G36*
X312540Y489196D02*
Y482540D01*
X319196D01*
X318890Y483682D01*
X317634Y485858D01*
X315858Y487634D01*
X313682Y488890D01*
X312540Y489196D01*
D02*
G37*
G36*
X287460D02*
X286318Y488890D01*
X284142Y487634D01*
X282366Y485858D01*
X281110Y483682D01*
X280804Y482540D01*
X287460D01*
Y489196D01*
D02*
G37*
G36*
X192540D02*
Y482540D01*
X199196D01*
X198890Y483682D01*
X197634Y485858D01*
X195858Y487634D01*
X193682Y488890D01*
X192540Y489196D01*
D02*
G37*
G36*
X187460D02*
X186318Y488890D01*
X184142Y487634D01*
X182366Y485858D01*
X181110Y483682D01*
X180804Y482540D01*
X187460D01*
Y489196D01*
D02*
G37*
G36*
X132540D02*
Y482540D01*
X139196D01*
X138890Y483682D01*
X137634Y485858D01*
X135858Y487634D01*
X133682Y488890D01*
X132540Y489196D01*
D02*
G37*
G36*
X127460D02*
X126318Y488890D01*
X124142Y487634D01*
X122366Y485858D01*
X121110Y483682D01*
X120804Y482540D01*
X127460D01*
Y489196D01*
D02*
G37*
G36*
X307460D02*
X306318Y488890D01*
X304142Y487634D01*
X302366Y485858D01*
X301110Y483682D01*
X300658Y481993D01*
X299343D01*
X298890Y483682D01*
X297634Y485858D01*
X295858Y487634D01*
X293682Y488890D01*
X292540Y489196D01*
Y480000D01*
X290000D01*
Y477460D01*
X280804D01*
X281110Y476318D01*
X282366Y474142D01*
X284142Y472366D01*
X286318Y471110D01*
X288008Y470657D01*
Y469343D01*
X286318Y468890D01*
X284142Y467634D01*
X282366Y465858D01*
X281110Y463682D01*
X280804Y462540D01*
X290000D01*
Y460000D01*
X292540D01*
Y450804D01*
X293682Y451110D01*
X295858Y452366D01*
X297634Y454142D01*
X298890Y456318D01*
X299343Y458007D01*
X300658D01*
X301110Y456318D01*
X302366Y454142D01*
X304142Y452366D01*
X306318Y451110D01*
X307460Y450804D01*
Y460000D01*
X310000D01*
Y462540D01*
X319196D01*
X318890Y463682D01*
X317634Y465858D01*
X315858Y467634D01*
X313682Y468890D01*
X311993Y469343D01*
Y470657D01*
X313682Y471110D01*
X315858Y472366D01*
X317634Y474142D01*
X318890Y476318D01*
X319196Y477460D01*
X310000D01*
Y480000D01*
X307460D01*
Y489196D01*
D02*
G37*
G36*
X62323Y488788D02*
X48610D01*
Y488520D01*
X16320D01*
Y473520D01*
X48610D01*
Y472790D01*
X62323D01*
Y488788D01*
D02*
G37*
G36*
X139196Y477460D02*
X120804D01*
X121110Y476318D01*
X122366Y474142D01*
X124142Y472366D01*
X125893Y471355D01*
X125887Y471440D01*
X125800Y472080D01*
X125688Y472659D01*
X125550Y473178D01*
X125387Y473635D01*
X125200Y474032D01*
X124987Y474369D01*
X124750Y474644D01*
X135250D01*
X135013Y474369D01*
X134800Y474032D01*
X134613Y473635D01*
X134450Y473178D01*
X134312Y472659D01*
X134200Y472080D01*
X134113Y471440D01*
X134107Y471355D01*
X135858Y472366D01*
X137634Y474142D01*
X138890Y476318D01*
X139196Y477460D01*
D02*
G37*
G36*
X199196D02*
X180804D01*
X181110Y476318D01*
X182366Y474142D01*
X184142Y472366D01*
X185893Y471355D01*
X185887Y471440D01*
X185800Y472080D01*
X185687Y472659D01*
X185550Y473178D01*
X185387Y473635D01*
X185200Y474032D01*
X184987Y474369D01*
X184750Y474644D01*
X195250D01*
X195012Y474369D01*
X194800Y474032D01*
X194612Y473635D01*
X194450Y473178D01*
X194312Y472659D01*
X194200Y472080D01*
X194112Y471440D01*
X194107Y471355D01*
X195858Y472366D01*
X197634Y474142D01*
X198890Y476318D01*
X199196Y477460D01*
D02*
G37*
G36*
X411185Y489000D02*
X408815D01*
X406526Y488387D01*
X404474Y487202D01*
X402798Y485526D01*
X401614Y483474D01*
X401000Y481185D01*
Y478815D01*
X401614Y476526D01*
X401828Y476154D01*
X398194Y472520D01*
X397531Y471527D01*
X397298Y470357D01*
X397298Y470357D01*
Y467226D01*
X396028Y466700D01*
X395526Y467202D01*
X393474Y468387D01*
X391185Y469000D01*
X388815D01*
X386526Y468387D01*
X384474Y467202D01*
X382799Y465526D01*
X381614Y463474D01*
X381000Y461185D01*
Y458815D01*
X381614Y456526D01*
X382799Y454474D01*
X384474Y452798D01*
X386526Y451613D01*
X388815Y451000D01*
X391185D01*
X393474Y451613D01*
X395526Y452798D01*
X396028Y453300D01*
X397298Y452774D01*
Y444804D01*
X392958Y440464D01*
X381860D01*
X380680Y441644D01*
X378843Y442405D01*
X376853D01*
X375016Y441644D01*
X373609Y440237D01*
X372848Y438400D01*
Y436411D01*
X373609Y434573D01*
X375016Y433166D01*
X376853Y432405D01*
X378843D01*
X380680Y433166D01*
X381860Y434346D01*
X394225D01*
X394225Y434346D01*
X395396Y434579D01*
X396388Y435242D01*
X402520Y441374D01*
X403183Y442367D01*
X403416Y443537D01*
X403416Y443537D01*
Y452250D01*
X404686Y452676D01*
X406526Y451613D01*
X408815Y451000D01*
X411185D01*
X413474Y451613D01*
X415526Y452798D01*
X417202Y454474D01*
X418387Y456526D01*
X419000Y458815D01*
Y461185D01*
X418387Y463474D01*
X417202Y465526D01*
X415526Y467202D01*
X413474Y468387D01*
X411185Y469000D01*
X408815D01*
X406526Y468387D01*
X404686Y467324D01*
X403416Y467750D01*
Y469090D01*
X406154Y471828D01*
X406526Y471613D01*
X408815Y471000D01*
X411185D01*
X413474Y471613D01*
X415526Y472798D01*
X417202Y474474D01*
X418387Y476526D01*
X419000Y478815D01*
Y481185D01*
X418387Y483474D01*
X417202Y485526D01*
X415526Y487202D01*
X413474Y488387D01*
X411185Y489000D01*
D02*
G37*
G36*
X391185D02*
X388815D01*
X386526Y488387D01*
X384474Y487202D01*
X382799Y485526D01*
X381614Y483474D01*
X381000Y481185D01*
Y478815D01*
X381614Y476526D01*
X382799Y474474D01*
X384474Y472798D01*
X386526Y471613D01*
X388815Y471000D01*
X391185D01*
X393474Y471613D01*
X395526Y472798D01*
X397202Y474474D01*
X398387Y476526D01*
X399000Y478815D01*
Y481185D01*
X398387Y483474D01*
X397202Y485526D01*
X395526Y487202D01*
X393474Y488387D01*
X391185Y489000D01*
D02*
G37*
G36*
X371185D02*
X368815D01*
X366526Y488387D01*
X364474Y487202D01*
X362799Y485526D01*
X361614Y483474D01*
X361000Y481185D01*
Y478815D01*
X361614Y476526D01*
X362799Y474474D01*
X364474Y472798D01*
X366526Y471613D01*
X368815Y471000D01*
X371185D01*
X373474Y471613D01*
X375526Y472798D01*
X377202Y474474D01*
X378387Y476526D01*
X379000Y478815D01*
Y481185D01*
X378387Y483474D01*
X377202Y485526D01*
X375526Y487202D01*
X373474Y488387D01*
X371185Y489000D01*
D02*
G37*
G36*
X351185D02*
X348815D01*
X346526Y488387D01*
X344474Y487202D01*
X342798Y485526D01*
X341613Y483474D01*
X341000Y481185D01*
Y478815D01*
X341613Y476526D01*
X342798Y474474D01*
X344474Y472798D01*
X346526Y471613D01*
X348815Y471000D01*
X351185D01*
X353474Y471613D01*
X355526Y472798D01*
X357202Y474474D01*
X358387Y476526D01*
X359000Y478815D01*
Y481185D01*
X358387Y483474D01*
X357202Y485526D01*
X355526Y487202D01*
X353474Y488387D01*
X351185Y489000D01*
D02*
G37*
G36*
X331185D02*
X328815D01*
X326526Y488387D01*
X324474Y487202D01*
X322798Y485526D01*
X321614Y483474D01*
X321000Y481185D01*
Y478815D01*
X321614Y476526D01*
X322798Y474474D01*
X324474Y472798D01*
X326526Y471613D01*
X328815Y471000D01*
X331185D01*
X333474Y471613D01*
X335526Y472798D01*
X337202Y474474D01*
X338387Y476526D01*
X339000Y478815D01*
Y481185D01*
X338387Y483474D01*
X337202Y485526D01*
X335526Y487202D01*
X333474Y488387D01*
X331185Y489000D01*
D02*
G37*
G36*
X271185D02*
X268815D01*
X266526Y488387D01*
X264474Y487202D01*
X262798Y485526D01*
X261613Y483474D01*
X261000Y481185D01*
Y478815D01*
X261613Y476526D01*
X262798Y474474D01*
X264474Y472798D01*
X266526Y471613D01*
X268815Y471000D01*
X271185D01*
X273474Y471613D01*
X275526Y472798D01*
X277202Y474474D01*
X278387Y476526D01*
X279000Y478815D01*
Y481185D01*
X278387Y483474D01*
X277202Y485526D01*
X275526Y487202D01*
X273474Y488387D01*
X271185Y489000D01*
D02*
G37*
G36*
X251185D02*
X248815D01*
X246526Y488387D01*
X244474Y487202D01*
X242798Y485526D01*
X241613Y483474D01*
X241000Y481185D01*
Y478815D01*
X241613Y476526D01*
X242798Y474474D01*
X244474Y472798D01*
X246526Y471613D01*
X248815Y471000D01*
X251185D01*
X253474Y471613D01*
X255526Y472798D01*
X257202Y474474D01*
X258387Y476526D01*
X259000Y478815D01*
Y481185D01*
X258387Y483474D01*
X257202Y485526D01*
X255526Y487202D01*
X253474Y488387D01*
X251185Y489000D01*
D02*
G37*
G36*
X231185D02*
X228815D01*
X226526Y488387D01*
X224474Y487202D01*
X222798Y485526D01*
X221613Y483474D01*
X221000Y481185D01*
Y478815D01*
X221613Y476526D01*
X222798Y474474D01*
X224474Y472798D01*
X226526Y471613D01*
X228815Y471000D01*
X231185D01*
X233474Y471613D01*
X235526Y472798D01*
X237202Y474474D01*
X238386Y476526D01*
X239000Y478815D01*
Y481185D01*
X238386Y483474D01*
X237202Y485526D01*
X235526Y487202D01*
X233474Y488387D01*
X231185Y489000D01*
D02*
G37*
G36*
X211185D02*
X208815D01*
X206526Y488387D01*
X204474Y487202D01*
X202798Y485526D01*
X201613Y483474D01*
X201000Y481185D01*
Y478815D01*
X201613Y476526D01*
X202798Y474474D01*
X204474Y472798D01*
X206526Y471613D01*
X208815Y471000D01*
X211185D01*
X213474Y471613D01*
X215526Y472798D01*
X217202Y474474D01*
X218386Y476526D01*
X219000Y478815D01*
Y481185D01*
X218386Y483474D01*
X217202Y485526D01*
X215526Y487202D01*
X213474Y488387D01*
X211185Y489000D01*
D02*
G37*
G36*
X111185D02*
X108815D01*
X106526Y488387D01*
X104474Y487202D01*
X102798Y485526D01*
X101613Y483474D01*
X101000Y481185D01*
Y478815D01*
X101613Y476526D01*
X102798Y474474D01*
X104474Y472798D01*
X106526Y471613D01*
X108815Y471000D01*
X111185D01*
X113474Y471613D01*
X115526Y472798D01*
X117201Y474474D01*
X118386Y476526D01*
X119000Y478815D01*
Y481185D01*
X118386Y483474D01*
X117201Y485526D01*
X115526Y487202D01*
X113474Y488387D01*
X111185Y489000D01*
D02*
G37*
G36*
X99000D02*
X81000D01*
Y471000D01*
X99000D01*
Y489000D01*
D02*
G37*
G36*
X194107Y468645D02*
X194112Y468560D01*
X194200Y467920D01*
X194312Y467341D01*
X194450Y466822D01*
X194612Y466365D01*
X194800Y465968D01*
X195012Y465631D01*
X195250Y465356D01*
X184750D01*
X184987Y465631D01*
X185200Y465968D01*
X185387Y466365D01*
X185550Y466822D01*
X185687Y467341D01*
X185800Y467920D01*
X185887Y468560D01*
X185893Y468645D01*
X184142Y467634D01*
X182366Y465858D01*
X181110Y463682D01*
X180804Y462540D01*
X199196D01*
X198890Y463682D01*
X197634Y465858D01*
X195858Y467634D01*
X194107Y468645D01*
D02*
G37*
G36*
X134107D02*
X134113Y468560D01*
X134200Y467920D01*
X134312Y467341D01*
X134450Y466822D01*
X134613Y466365D01*
X134800Y465968D01*
X135013Y465631D01*
X135250Y465356D01*
X124750D01*
X124987Y465631D01*
X125200Y465968D01*
X125387Y466365D01*
X125550Y466822D01*
X125688Y467341D01*
X125800Y467920D01*
X125887Y468560D01*
X125893Y468645D01*
X124142Y467634D01*
X122366Y465858D01*
X121110Y463682D01*
X120804Y462540D01*
X139196D01*
X138890Y463682D01*
X137634Y465858D01*
X135858Y467634D01*
X134107Y468645D01*
D02*
G37*
G36*
X470000Y480086D02*
X467389Y479743D01*
X464957Y478735D01*
X462868Y477132D01*
X461265Y475043D01*
X460257Y472611D01*
X459914Y470000D01*
X460257Y467389D01*
X461265Y464957D01*
X462868Y462868D01*
X464957Y461265D01*
X467389Y460257D01*
X470000Y459914D01*
X472611Y460257D01*
X475043Y461265D01*
X477132Y462868D01*
X478735Y464957D01*
X479743Y467389D01*
X480086Y470000D01*
X479743Y472611D01*
X478735Y475043D01*
X477132Y477132D01*
X475043Y478735D01*
X472611Y479743D01*
X470000Y480086D01*
D02*
G37*
G36*
X371185Y469000D02*
X368815D01*
X366526Y468387D01*
X364474Y467202D01*
X362799Y465526D01*
X361614Y463474D01*
X361000Y461185D01*
Y458815D01*
X361614Y456526D01*
X362799Y454474D01*
X364474Y452798D01*
X366526Y451613D01*
X368815Y451000D01*
X371185D01*
X373474Y451613D01*
X375526Y452798D01*
X377202Y454474D01*
X378387Y456526D01*
X379000Y458815D01*
Y461185D01*
X378387Y463474D01*
X377202Y465526D01*
X375526Y467202D01*
X373474Y468387D01*
X371185Y469000D01*
D02*
G37*
G36*
X351185D02*
X348815D01*
X346526Y468387D01*
X344474Y467202D01*
X342798Y465526D01*
X341613Y463474D01*
X341000Y461185D01*
Y458815D01*
X341613Y456526D01*
X342798Y454474D01*
X344474Y452798D01*
X346526Y451613D01*
X348815Y451000D01*
X351185D01*
X353474Y451613D01*
X355526Y452798D01*
X357202Y454474D01*
X358387Y456526D01*
X359000Y458815D01*
Y461185D01*
X358387Y463474D01*
X357202Y465526D01*
X355526Y467202D01*
X353474Y468387D01*
X351185Y469000D01*
D02*
G37*
G36*
X331185D02*
X328815D01*
X326526Y468387D01*
X324474Y467202D01*
X322798Y465526D01*
X321614Y463474D01*
X321000Y461185D01*
Y458815D01*
X321614Y456526D01*
X322798Y454474D01*
X324474Y452798D01*
X326526Y451613D01*
X328815Y451000D01*
X331185D01*
X333474Y451613D01*
X335526Y452798D01*
X337202Y454474D01*
X338387Y456526D01*
X339000Y458815D01*
Y461185D01*
X338387Y463474D01*
X337202Y465526D01*
X335526Y467202D01*
X333474Y468387D01*
X331185Y469000D01*
D02*
G37*
G36*
X271185D02*
X268815D01*
X266526Y468387D01*
X264474Y467202D01*
X262798Y465526D01*
X261613Y463474D01*
X261000Y461185D01*
Y458815D01*
X261613Y456526D01*
X262798Y454474D01*
X264474Y452798D01*
X266526Y451613D01*
X268815Y451000D01*
X271185D01*
X273474Y451613D01*
X275526Y452798D01*
X277202Y454474D01*
X278387Y456526D01*
X279000Y458815D01*
Y461185D01*
X278387Y463474D01*
X277202Y465526D01*
X275526Y467202D01*
X273474Y468387D01*
X271185Y469000D01*
D02*
G37*
G36*
X251185D02*
X248815D01*
X246526Y468387D01*
X244474Y467202D01*
X242798Y465526D01*
X241613Y463474D01*
X241000Y461185D01*
Y458815D01*
X241613Y456526D01*
X242798Y454474D01*
X244474Y452798D01*
X246526Y451613D01*
X248815Y451000D01*
X251185D01*
X253474Y451613D01*
X255526Y452798D01*
X257202Y454474D01*
X258387Y456526D01*
X259000Y458815D01*
Y461185D01*
X258387Y463474D01*
X257202Y465526D01*
X255526Y467202D01*
X253474Y468387D01*
X251185Y469000D01*
D02*
G37*
G36*
X231185D02*
X228815D01*
X226526Y468387D01*
X224474Y467202D01*
X222798Y465526D01*
X221613Y463474D01*
X221000Y461185D01*
Y458815D01*
X221613Y456526D01*
X222798Y454474D01*
X224474Y452798D01*
X226526Y451613D01*
X228815Y451000D01*
X231185D01*
X233474Y451613D01*
X235526Y452798D01*
X237202Y454474D01*
X238386Y456526D01*
X239000Y458815D01*
Y461185D01*
X238386Y463474D01*
X237202Y465526D01*
X235526Y467202D01*
X233474Y468387D01*
X231185Y469000D01*
D02*
G37*
G36*
X211185D02*
X208815D01*
X206526Y468387D01*
X204474Y467202D01*
X202798Y465526D01*
X201613Y463474D01*
X201000Y461185D01*
Y458815D01*
X201613Y456526D01*
X202798Y454474D01*
X204474Y452798D01*
X206526Y451613D01*
X208815Y451000D01*
X211185D01*
X213474Y451613D01*
X215526Y452798D01*
X217202Y454474D01*
X218386Y456526D01*
X219000Y458815D01*
Y461185D01*
X218386Y463474D01*
X217202Y465526D01*
X215526Y467202D01*
X213474Y468387D01*
X211185Y469000D01*
D02*
G37*
G36*
X111185D02*
X108815D01*
X106526Y468387D01*
X104474Y467202D01*
X102798Y465526D01*
X101613Y463474D01*
X101000Y461185D01*
Y458815D01*
X101613Y456526D01*
X102798Y454474D01*
X104474Y452798D01*
X106526Y451613D01*
X108815Y451000D01*
X111185D01*
X113474Y451613D01*
X115526Y452798D01*
X117201Y454474D01*
X118386Y456526D01*
X119000Y458815D01*
Y461185D01*
X118386Y463474D01*
X117201Y465526D01*
X115526Y467202D01*
X113474Y468387D01*
X111185Y469000D01*
D02*
G37*
G36*
X91185D02*
X88815D01*
X86526Y468387D01*
X84474Y467202D01*
X82798Y465526D01*
X81613Y463474D01*
X81000Y461185D01*
Y458815D01*
X81613Y456526D01*
X82798Y454474D01*
X84474Y452798D01*
X86526Y451613D01*
X88815Y451000D01*
X91185D01*
X93474Y451613D01*
X95526Y452798D01*
X97202Y454474D01*
X98386Y456526D01*
X99000Y458815D01*
Y461185D01*
X98386Y463474D01*
X97202Y465526D01*
X95526Y467202D01*
X93474Y468387D01*
X91185Y469000D01*
D02*
G37*
G36*
X319196Y457460D02*
X312540D01*
Y450804D01*
X313682Y451110D01*
X315858Y452366D01*
X317634Y454142D01*
X318890Y456318D01*
X319196Y457460D01*
D02*
G37*
G36*
X287460D02*
X280804D01*
X281110Y456318D01*
X282366Y454142D01*
X284142Y452366D01*
X286318Y451110D01*
X287460Y450804D01*
Y457460D01*
D02*
G37*
G36*
X199196D02*
X192540D01*
Y450804D01*
X193682Y451110D01*
X195858Y452366D01*
X197634Y454142D01*
X198890Y456318D01*
X199196Y457460D01*
D02*
G37*
G36*
X187460D02*
X180804D01*
X181110Y456318D01*
X182366Y454142D01*
X184142Y452366D01*
X186318Y451110D01*
X187460Y450804D01*
Y457460D01*
D02*
G37*
G36*
X139196D02*
X132540D01*
Y450804D01*
X133682Y451110D01*
X135858Y452366D01*
X137634Y454142D01*
X138890Y456318D01*
X139196Y457460D01*
D02*
G37*
G36*
X127460D02*
X120804D01*
X121110Y456318D01*
X122366Y454142D01*
X124142Y452366D01*
X126318Y451110D01*
X127460Y450804D01*
Y457460D01*
D02*
G37*
G36*
X489000Y419000D02*
X471000D01*
Y401000D01*
X489000D01*
Y419000D01*
D02*
G37*
G36*
X461185D02*
X458815D01*
X456526Y418387D01*
X454474Y417202D01*
X452798Y415526D01*
X451613Y413474D01*
X451000Y411185D01*
Y408815D01*
X451613Y406526D01*
X452798Y404474D01*
X454474Y402798D01*
X456526Y401614D01*
X458815Y401000D01*
X461185D01*
X463474Y401614D01*
X465526Y402798D01*
X467202Y404474D01*
X468387Y406526D01*
X469000Y408815D01*
Y411185D01*
X468387Y413474D01*
X467202Y415526D01*
X465526Y417202D01*
X463474Y418387D01*
X461185Y419000D01*
D02*
G37*
G36*
X49000D02*
X31000D01*
Y401000D01*
X49000D01*
Y419000D01*
D02*
G37*
G36*
X21185D02*
X18815D01*
X16526Y418387D01*
X14474Y417202D01*
X12798Y415526D01*
X11613Y413474D01*
X11000Y411185D01*
Y408815D01*
X11613Y406526D01*
X12798Y404474D01*
X14474Y402798D01*
X16526Y401614D01*
X18815Y401000D01*
X21185D01*
X23474Y401614D01*
X25526Y402798D01*
X27202Y404474D01*
X28387Y406526D01*
X29000Y408815D01*
Y411185D01*
X28387Y413474D01*
X27202Y415526D01*
X25526Y417202D01*
X23474Y418387D01*
X21185Y419000D01*
D02*
G37*
G36*
X481185Y399000D02*
X478815D01*
X476526Y398387D01*
X474474Y397202D01*
X472798Y395526D01*
X471613Y393474D01*
X471000Y391185D01*
Y388815D01*
X471613Y386526D01*
X472798Y384474D01*
X474474Y382799D01*
X476526Y381614D01*
X478815Y381000D01*
X481185D01*
X483474Y381614D01*
X485526Y382799D01*
X487202Y384474D01*
X488387Y386526D01*
X489000Y388815D01*
Y391185D01*
X488387Y393474D01*
X487202Y395526D01*
X485526Y397202D01*
X483474Y398387D01*
X481185Y399000D01*
D02*
G37*
G36*
X461185D02*
X458815D01*
X456526Y398387D01*
X454474Y397202D01*
X452798Y395526D01*
X451613Y393474D01*
X451000Y391185D01*
Y388815D01*
X451613Y386526D01*
X452798Y384474D01*
X454474Y382799D01*
X456526Y381614D01*
X458815Y381000D01*
X461185D01*
X463474Y381614D01*
X465526Y382799D01*
X467202Y384474D01*
X468387Y386526D01*
X469000Y388815D01*
Y391185D01*
X468387Y393474D01*
X467202Y395526D01*
X465526Y397202D01*
X463474Y398387D01*
X461185Y399000D01*
D02*
G37*
G36*
X481185Y379000D02*
X478815D01*
X476526Y378387D01*
X474474Y377202D01*
X472798Y375526D01*
X471613Y373474D01*
X471000Y371185D01*
Y368815D01*
X471613Y366526D01*
X472798Y364474D01*
X474474Y362798D01*
X476526Y361613D01*
X478815Y361000D01*
X481185D01*
X483474Y361613D01*
X485526Y362798D01*
X487202Y364474D01*
X488387Y366526D01*
X489000Y368815D01*
Y371185D01*
X488387Y373474D01*
X487202Y375526D01*
X485526Y377202D01*
X483474Y378387D01*
X481185Y379000D01*
D02*
G37*
G36*
X461185D02*
X458815D01*
X456526Y378387D01*
X454474Y377202D01*
X452798Y375526D01*
X451613Y373474D01*
X451000Y371185D01*
Y368815D01*
X451613Y366526D01*
X452798Y364474D01*
X454474Y362798D01*
X456526Y361613D01*
X458815Y361000D01*
X461185D01*
X463474Y361613D01*
X465526Y362798D01*
X467202Y364474D01*
X468387Y366526D01*
X469000Y368815D01*
Y371185D01*
X468387Y373474D01*
X467202Y375526D01*
X465526Y377202D01*
X463474Y378387D01*
X461185Y379000D01*
D02*
G37*
G36*
X21185D02*
X18815D01*
X16526Y378387D01*
X14474Y377202D01*
X12798Y375526D01*
X11613Y373474D01*
X11000Y371185D01*
Y368815D01*
X11613Y366526D01*
X12798Y364474D01*
X14474Y362798D01*
X16526Y361613D01*
X18815Y361000D01*
X21185D01*
X23474Y361613D01*
X25526Y362798D01*
X27202Y364474D01*
X28387Y366526D01*
X29000Y368815D01*
Y371185D01*
X28387Y373474D01*
X27202Y375526D01*
X25526Y377202D01*
X23474Y378387D01*
X21185Y379000D01*
D02*
G37*
G36*
X481185Y359000D02*
X478815D01*
X476526Y358387D01*
X474474Y357202D01*
X472798Y355526D01*
X471613Y353474D01*
X471000Y351185D01*
Y348815D01*
X471613Y346526D01*
X472798Y344474D01*
X474474Y342798D01*
X476526Y341613D01*
X478815Y341000D01*
X481185D01*
X483474Y341613D01*
X485526Y342798D01*
X487202Y344474D01*
X488387Y346526D01*
X489000Y348815D01*
Y351185D01*
X488387Y353474D01*
X487202Y355526D01*
X485526Y357202D01*
X483474Y358387D01*
X481185Y359000D01*
D02*
G37*
G36*
X461185D02*
X458815D01*
X456526Y358387D01*
X454474Y357202D01*
X452798Y355526D01*
X451613Y353474D01*
X451000Y351185D01*
Y348815D01*
X451613Y346526D01*
X452798Y344474D01*
X454474Y342798D01*
X456526Y341613D01*
X458815Y341000D01*
X461185D01*
X463474Y341613D01*
X465526Y342798D01*
X467202Y344474D01*
X468387Y346526D01*
X469000Y348815D01*
Y351185D01*
X468387Y353474D01*
X467202Y355526D01*
X465526Y357202D01*
X463474Y358387D01*
X461185Y359000D01*
D02*
G37*
G36*
X41185D02*
X38815D01*
X36526Y358387D01*
X34474Y357202D01*
X32798Y355526D01*
X31613Y353474D01*
X31000Y351185D01*
Y348815D01*
X31613Y346526D01*
X32798Y344474D01*
X34474Y342798D01*
X36526Y341613D01*
X38815Y341000D01*
X41185D01*
X43474Y341613D01*
X45526Y342798D01*
X47202Y344474D01*
X48387Y346526D01*
X49000Y348815D01*
Y351185D01*
X48387Y353474D01*
X47202Y355526D01*
X45526Y357202D01*
X43474Y358387D01*
X41185Y359000D01*
D02*
G37*
G36*
X21185D02*
X18815D01*
X16526Y358387D01*
X14474Y357202D01*
X12798Y355526D01*
X11613Y353474D01*
X11000Y351185D01*
Y348815D01*
X11613Y346526D01*
X12798Y344474D01*
X14474Y342798D01*
X16526Y341613D01*
X18815Y341000D01*
X21185D01*
X23474Y341613D01*
X25526Y342798D01*
X27202Y344474D01*
X28387Y346526D01*
X29000Y348815D01*
Y351185D01*
X28387Y353474D01*
X27202Y355526D01*
X25526Y357202D01*
X23474Y358387D01*
X21185Y359000D01*
D02*
G37*
G36*
X416095Y344750D02*
X414105D01*
X412268Y343989D01*
X410861Y342583D01*
X410100Y340745D01*
Y338756D01*
X410861Y336918D01*
X412268Y335512D01*
X414105Y334750D01*
X416095D01*
X417932Y335512D01*
X419339Y336918D01*
X420100Y338756D01*
Y340745D01*
X419339Y342583D01*
X417932Y343989D01*
X416095Y344750D01*
D02*
G37*
G36*
X22540Y339196D02*
Y332540D01*
X29196D01*
X28890Y333682D01*
X27634Y335858D01*
X25858Y337634D01*
X23682Y338890D01*
X22540Y339196D01*
D02*
G37*
G36*
X17460D02*
X16318Y338890D01*
X14142Y337634D01*
X12366Y335858D01*
X11110Y333682D01*
X10804Y332540D01*
X17460D01*
Y339196D01*
D02*
G37*
G36*
X481185Y339000D02*
X478815D01*
X476526Y338387D01*
X474474Y337202D01*
X472798Y335526D01*
X471613Y333474D01*
X471000Y331185D01*
Y328815D01*
X471613Y326526D01*
X472798Y324474D01*
X474474Y322798D01*
X476526Y321614D01*
X478815Y321000D01*
X481185D01*
X483474Y321614D01*
X485526Y322798D01*
X487202Y324474D01*
X488387Y326526D01*
X489000Y328815D01*
Y331185D01*
X488387Y333474D01*
X487202Y335526D01*
X485526Y337202D01*
X483474Y338387D01*
X481185Y339000D01*
D02*
G37*
G36*
X461185D02*
X458815D01*
X456526Y338387D01*
X454474Y337202D01*
X452798Y335526D01*
X451613Y333474D01*
X451000Y331185D01*
Y328815D01*
X451613Y326526D01*
X452798Y324474D01*
X454474Y322798D01*
X456526Y321614D01*
X458815Y321000D01*
X461185D01*
X463474Y321614D01*
X465526Y322798D01*
X467202Y324474D01*
X468387Y326526D01*
X469000Y328815D01*
Y331185D01*
X468387Y333474D01*
X467202Y335526D01*
X465526Y337202D01*
X463474Y338387D01*
X461185Y339000D01*
D02*
G37*
G36*
X41185D02*
X38815D01*
X36526Y338387D01*
X34474Y337202D01*
X32798Y335526D01*
X31613Y333474D01*
X31000Y331185D01*
Y328815D01*
X31613Y326526D01*
X32798Y324474D01*
X34474Y322798D01*
X36526Y321614D01*
X38815Y321000D01*
X41185D01*
X43474Y321614D01*
X45526Y322798D01*
X47202Y324474D01*
X48387Y326526D01*
X49000Y328815D01*
Y331185D01*
X48387Y333474D01*
X47202Y335526D01*
X45526Y337202D01*
X43474Y338387D01*
X41185Y339000D01*
D02*
G37*
G36*
X29196Y327460D02*
X22540D01*
Y320804D01*
X23682Y321110D01*
X25858Y322366D01*
X27634Y324142D01*
X28890Y326318D01*
X29196Y327460D01*
D02*
G37*
G36*
X17460D02*
X10804D01*
X11110Y326318D01*
X12366Y324142D01*
X14142Y322366D01*
X16318Y321110D01*
X17460Y320804D01*
Y327460D01*
D02*
G37*
G36*
X225300Y313314D02*
X221840D01*
X220361Y313020D01*
X219870Y312692D01*
X219379Y313020D01*
X217900Y313314D01*
X214440D01*
Y305700D01*
Y298086D01*
X217900D01*
X219379Y298380D01*
X219870Y298708D01*
X220361Y298380D01*
X221840Y298086D01*
X225300D01*
Y305700D01*
Y313314D01*
D02*
G37*
G36*
X242380D02*
X238920D01*
X237441Y313020D01*
X236380Y312311D01*
X235319Y313020D01*
X233840Y313314D01*
X230380D01*
Y305700D01*
Y298086D01*
X233840D01*
X235319Y298380D01*
X236380Y299089D01*
X237441Y298380D01*
X238920Y298086D01*
X242380D01*
Y305700D01*
Y313314D01*
D02*
G37*
G36*
X209360D02*
X205900D01*
X204421Y313020D01*
X203168Y312183D01*
X202330Y310929D01*
X202036Y309450D01*
Y308240D01*
X209360D01*
Y313314D01*
D02*
G37*
G36*
X169238Y317151D02*
X167448D01*
X165794Y316466D01*
X164529Y315200D01*
X163843Y313547D01*
Y311756D01*
X164529Y310102D01*
X165794Y308836D01*
X167448Y308151D01*
X169238D01*
X170892Y308836D01*
X172158Y310102D01*
X172843Y311756D01*
Y313547D01*
X172158Y315200D01*
X170892Y316466D01*
X169238Y317151D01*
D02*
G37*
G36*
X481185Y319000D02*
X478815D01*
X476526Y318387D01*
X474474Y317202D01*
X472798Y315526D01*
X471613Y313474D01*
X471000Y311185D01*
Y308815D01*
X471613Y306526D01*
X472798Y304474D01*
X474474Y302798D01*
X476526Y301614D01*
X478815Y301000D01*
X481185D01*
X483474Y301614D01*
X485526Y302798D01*
X487202Y304474D01*
X488387Y306526D01*
X489000Y308815D01*
Y311185D01*
X488387Y313474D01*
X487202Y315526D01*
X485526Y317202D01*
X483474Y318387D01*
X481185Y319000D01*
D02*
G37*
G36*
X41185D02*
X38815D01*
X36526Y318387D01*
X34474Y317202D01*
X32798Y315526D01*
X31613Y313474D01*
X31000Y311185D01*
Y308815D01*
X31613Y306526D01*
X32798Y304474D01*
X34474Y302798D01*
X36526Y301614D01*
X38815Y301000D01*
X41185D01*
X43474Y301614D01*
X45526Y302798D01*
X47202Y304474D01*
X48387Y306526D01*
X49000Y308815D01*
Y311185D01*
X48387Y313474D01*
X47202Y315526D01*
X45526Y317202D01*
X43474Y318387D01*
X41185Y319000D01*
D02*
G37*
G36*
X21185D02*
X18815D01*
X16526Y318387D01*
X14474Y317202D01*
X12798Y315526D01*
X11613Y313474D01*
X11000Y311185D01*
Y308815D01*
X11613Y306526D01*
X12798Y304474D01*
X14474Y302798D01*
X16526Y301614D01*
X18815Y301000D01*
X21185D01*
X23474Y301614D01*
X25526Y302798D01*
X27202Y304474D01*
X28387Y306526D01*
X29000Y308815D01*
Y311185D01*
X28387Y313474D01*
X27202Y315526D01*
X25526Y317202D01*
X23474Y318387D01*
X21185Y319000D01*
D02*
G37*
G36*
X209360Y303160D02*
X202036D01*
Y301950D01*
X202330Y300471D01*
X203168Y299218D01*
X204421Y298380D01*
X205900Y298086D01*
X209360D01*
Y303160D01*
D02*
G37*
G36*
X481185Y299000D02*
X478815D01*
X476526Y298387D01*
X474474Y297202D01*
X472798Y295526D01*
X471613Y293474D01*
X471000Y291185D01*
Y288815D01*
X471613Y286526D01*
X472798Y284474D01*
X474474Y282798D01*
X476526Y281614D01*
X478815Y281000D01*
X481185D01*
X483474Y281614D01*
X485526Y282798D01*
X487202Y284474D01*
X488387Y286526D01*
X489000Y288815D01*
Y291185D01*
X488387Y293474D01*
X487202Y295526D01*
X485526Y297202D01*
X483474Y298387D01*
X481185Y299000D01*
D02*
G37*
G36*
X393510Y282339D02*
Y274130D01*
X401719D01*
X401258Y275851D01*
X399804Y278369D01*
X397749Y280424D01*
X395231Y281878D01*
X393510Y282339D01*
D02*
G37*
G36*
X388430D02*
X386709Y281878D01*
X384191Y280424D01*
X382136Y278369D01*
X380682Y275851D01*
X380221Y274130D01*
X388430D01*
Y282339D01*
D02*
G37*
G36*
X481185Y279000D02*
X478815D01*
X476526Y278387D01*
X474474Y277202D01*
X472798Y275526D01*
X471613Y273474D01*
X471000Y271185D01*
Y268815D01*
X471613Y266526D01*
X472798Y264474D01*
X474474Y262799D01*
X476526Y261614D01*
X478815Y261000D01*
X481185D01*
X483474Y261614D01*
X485526Y262799D01*
X487202Y264474D01*
X488387Y266526D01*
X489000Y268815D01*
Y271185D01*
X488387Y273474D01*
X487202Y275526D01*
X485526Y277202D01*
X483474Y278387D01*
X481185Y279000D01*
D02*
G37*
G36*
X21185D02*
X18815D01*
X16526Y278387D01*
X14474Y277202D01*
X12798Y275526D01*
X11613Y273474D01*
X11000Y271185D01*
Y268815D01*
X11613Y266526D01*
X12798Y264474D01*
X14474Y262799D01*
X16526Y261614D01*
X18815Y261000D01*
X21185D01*
X23474Y261614D01*
X25526Y262799D01*
X27202Y264474D01*
X28387Y266526D01*
X29000Y268815D01*
Y271185D01*
X28387Y273474D01*
X27202Y275526D01*
X25526Y277202D01*
X23474Y278387D01*
X21185Y279000D01*
D02*
G37*
G36*
X401719Y269050D02*
X393510D01*
Y260841D01*
X395231Y261302D01*
X397749Y262756D01*
X399804Y264811D01*
X401258Y267329D01*
X401719Y269050D01*
D02*
G37*
G36*
X388430D02*
X380221D01*
X380682Y267329D01*
X382136Y264811D01*
X384191Y262756D01*
X386709Y261302D01*
X388430Y260841D01*
Y269050D01*
D02*
G37*
G36*
X481185Y259000D02*
X478815D01*
X476526Y258387D01*
X474474Y257202D01*
X472798Y255526D01*
X471613Y253474D01*
X471000Y251185D01*
Y248815D01*
X471613Y246526D01*
X472798Y244474D01*
X474474Y242798D01*
X476526Y241613D01*
X478815Y241000D01*
X481185D01*
X483474Y241613D01*
X485526Y242798D01*
X487202Y244474D01*
X488387Y246526D01*
X489000Y248815D01*
Y251185D01*
X488387Y253474D01*
X487202Y255526D01*
X485526Y257202D01*
X483474Y258387D01*
X481185Y259000D01*
D02*
G37*
G36*
X41185D02*
X38815D01*
X36526Y258387D01*
X34474Y257202D01*
X32798Y255526D01*
X31613Y253474D01*
X31000Y251185D01*
Y248815D01*
X31613Y246526D01*
X32798Y244474D01*
X34474Y242798D01*
X36526Y241613D01*
X38815Y241000D01*
X41185D01*
X43474Y241613D01*
X45526Y242798D01*
X47202Y244474D01*
X48387Y246526D01*
X49000Y248815D01*
Y251185D01*
X48387Y253474D01*
X47202Y255526D01*
X45526Y257202D01*
X43474Y258387D01*
X41185Y259000D01*
D02*
G37*
G36*
X21185D02*
X18815D01*
X16526Y258387D01*
X14474Y257202D01*
X12798Y255526D01*
X11613Y253474D01*
X11000Y251185D01*
Y248815D01*
X11613Y246526D01*
X12798Y244474D01*
X14474Y242798D01*
X16526Y241613D01*
X18815Y241000D01*
X21185D01*
X23474Y241613D01*
X25526Y242798D01*
X27202Y244474D01*
X28387Y246526D01*
X29000Y248815D01*
Y251185D01*
X28387Y253474D01*
X27202Y255526D01*
X25526Y257202D01*
X23474Y258387D01*
X21185Y259000D01*
D02*
G37*
G36*
X392352Y256690D02*
X389588D01*
X386917Y255974D01*
X384523Y254592D01*
X382568Y252637D01*
X381186Y250243D01*
X380470Y247572D01*
Y244808D01*
X381186Y242137D01*
X382568Y239743D01*
X384523Y237788D01*
X386917Y236406D01*
X389588Y235690D01*
X392352D01*
X395023Y236406D01*
X397417Y237788D01*
X399372Y239743D01*
X400754Y242137D01*
X401470Y244808D01*
Y247572D01*
X400754Y250243D01*
X399372Y252637D01*
X397417Y254592D01*
X395023Y255974D01*
X392352Y256690D01*
D02*
G37*
G36*
X41185Y239000D02*
X38815D01*
X36526Y238387D01*
X34474Y237202D01*
X32798Y235526D01*
X31613Y233474D01*
X31000Y231185D01*
Y228815D01*
X31613Y226526D01*
X32798Y224474D01*
X34474Y222798D01*
X36526Y221613D01*
X38815Y221000D01*
X41185D01*
X43474Y221613D01*
X45526Y222798D01*
X47202Y224474D01*
X48387Y226526D01*
X49000Y228815D01*
Y231185D01*
X48387Y233474D01*
X47202Y235526D01*
X45526Y237202D01*
X43474Y238387D01*
X41185Y239000D01*
D02*
G37*
G36*
X21185D02*
X18815D01*
X16526Y238387D01*
X14474Y237202D01*
X12798Y235526D01*
X11613Y233474D01*
X11000Y231185D01*
Y228815D01*
X11613Y226526D01*
X12798Y224474D01*
X14474Y222798D01*
X16526Y221613D01*
X18815Y221000D01*
X21185D01*
X23474Y221613D01*
X25526Y222798D01*
X27202Y224474D01*
X28387Y226526D01*
X29000Y228815D01*
Y231185D01*
X28387Y233474D01*
X27202Y235526D01*
X25526Y237202D01*
X23474Y238387D01*
X21185Y239000D01*
D02*
G37*
G36*
X42540Y219196D02*
Y212540D01*
X49196D01*
X48890Y213682D01*
X47634Y215858D01*
X45858Y217634D01*
X43682Y218890D01*
X42540Y219196D01*
D02*
G37*
G36*
X17460D02*
X16318Y218890D01*
X14142Y217634D01*
X12366Y215858D01*
X11110Y213682D01*
X10804Y212540D01*
X17460D01*
Y219196D01*
D02*
G37*
G36*
X482540Y219196D02*
Y212540D01*
X489196D01*
X488890Y213682D01*
X487634Y215858D01*
X485858Y217634D01*
X483682Y218890D01*
X482540Y219196D01*
D02*
G37*
G36*
X457460Y219196D02*
X456318Y218890D01*
X454142Y217634D01*
X452366Y215858D01*
X451110Y213682D01*
X450804Y212540D01*
X457460D01*
Y219196D01*
D02*
G37*
G36*
X392352Y231290D02*
X389588D01*
X386917Y230574D01*
X384523Y229192D01*
X382568Y227237D01*
X381186Y224843D01*
X380470Y222172D01*
Y219408D01*
X381186Y216737D01*
X382568Y214343D01*
X384523Y212388D01*
X386917Y211006D01*
X389588Y210290D01*
X392352D01*
X395023Y211006D01*
X397417Y212388D01*
X399372Y214343D01*
X400754Y216737D01*
X401470Y219408D01*
Y222172D01*
X400754Y224843D01*
X399372Y227237D01*
X397417Y229192D01*
X395023Y230574D01*
X392352Y231290D01*
D02*
G37*
G36*
X242386Y207015D02*
X238926D01*
X237447Y206721D01*
X236530Y206108D01*
X235612Y206721D01*
X234133Y207015D01*
X230673D01*
Y199401D01*
Y191786D01*
X234133D01*
X235612Y192081D01*
X236530Y192694D01*
X237447Y192081D01*
X238926Y191786D01*
X242386D01*
Y199401D01*
Y207015D01*
D02*
G37*
G36*
X250926D02*
X247466D01*
Y201941D01*
X254790D01*
Y203151D01*
X254496Y204629D01*
X253658Y205883D01*
X252405Y206721D01*
X250926Y207015D01*
D02*
G37*
G36*
X225593D02*
X222133D01*
X220654Y206721D01*
X219401Y205883D01*
X218563Y204629D01*
X218269Y203151D01*
Y201941D01*
X225593D01*
Y207015D01*
D02*
G37*
G36*
X254790Y196861D02*
X247466D01*
Y191786D01*
X250926D01*
X252405Y192081D01*
X253658Y192918D01*
X254496Y194172D01*
X254790Y195651D01*
Y196861D01*
D02*
G37*
G36*
X225593D02*
X218269D01*
Y196191D01*
X210630D01*
Y191441D01*
X219448D01*
X220650Y192084D01*
X220654Y192081D01*
X222133Y191786D01*
X225593D01*
Y196861D01*
D02*
G37*
G36*
X205550Y196191D02*
X196800D01*
Y191441D01*
X205550D01*
Y196191D01*
D02*
G37*
G36*
X392352Y205890D02*
X389588D01*
X386917Y205174D01*
X384523Y203792D01*
X382568Y201837D01*
X381186Y199443D01*
X380470Y196772D01*
Y194008D01*
X381186Y191337D01*
X382568Y188943D01*
X384523Y186988D01*
X386917Y185606D01*
X389588Y184890D01*
X392352D01*
X395023Y185606D01*
X397417Y186988D01*
X399372Y188943D01*
X400754Y191337D01*
X401470Y194008D01*
Y196772D01*
X400754Y199443D01*
X399372Y201837D01*
X397417Y203792D01*
X395023Y205174D01*
X392352Y205890D01*
D02*
G37*
G36*
X219380Y186361D02*
X210630D01*
Y181611D01*
X219380D01*
Y186361D01*
D02*
G37*
G36*
X205550D02*
X196800D01*
Y181611D01*
X205550D01*
Y186361D01*
D02*
G37*
G36*
X462540Y219196D02*
Y210000D01*
X460000D01*
Y207460D01*
X450804D01*
X451110Y206318D01*
X452366Y204142D01*
X454142Y202366D01*
X456318Y201110D01*
X458007Y200657D01*
Y199342D01*
X456318Y198890D01*
X454142Y197634D01*
X452366Y195858D01*
X451110Y193682D01*
X450804Y192540D01*
X460000D01*
Y190000D01*
X462540D01*
Y180804D01*
X463682Y181110D01*
X465858Y182366D01*
X467634Y184142D01*
X468890Y186318D01*
X469343Y188007D01*
X470657D01*
X471110Y186318D01*
X472366Y184142D01*
X474142Y182366D01*
X476318Y181110D01*
X477460Y180804D01*
Y190000D01*
X480000D01*
Y192540D01*
X489196D01*
X488890Y193682D01*
X487634Y195858D01*
X485858Y197634D01*
X483682Y198890D01*
X481993Y199342D01*
Y200657D01*
X483682Y201110D01*
X485858Y202366D01*
X487634Y204142D01*
X488890Y206318D01*
X489196Y207460D01*
X480000D01*
Y210000D01*
X477460D01*
Y219196D01*
X476318Y218890D01*
X474142Y217634D01*
X472366Y215858D01*
X471110Y213682D01*
X470657Y211992D01*
X469343D01*
X468890Y213682D01*
X467634Y215858D01*
X465858Y217634D01*
X463682Y218890D01*
X462540Y219196D01*
D02*
G37*
G36*
X457460Y187460D02*
X450804D01*
X451110Y186318D01*
X452366Y184142D01*
X454142Y182366D01*
X456318Y181110D01*
X457460Y180804D01*
Y187460D01*
D02*
G37*
G36*
X49196Y187460D02*
X42540D01*
Y180804D01*
X43682Y181110D01*
X45858Y182366D01*
X47634Y184142D01*
X48890Y186318D01*
X49196Y187460D01*
D02*
G37*
G36*
X22540Y219196D02*
Y210000D01*
X20000D01*
Y207460D01*
X10804D01*
X11110Y206318D01*
X12366Y204142D01*
X14142Y202366D01*
X16318Y201110D01*
X18007Y200657D01*
Y199342D01*
X16318Y198890D01*
X14142Y197634D01*
X12366Y195858D01*
X11110Y193682D01*
X10804Y192540D01*
X20000D01*
Y190000D01*
X22540D01*
Y180804D01*
X23682Y181110D01*
X25858Y182366D01*
X27634Y184142D01*
X28890Y186318D01*
X29343Y188007D01*
X30657D01*
X31110Y186318D01*
X32366Y184142D01*
X34142Y182366D01*
X36318Y181110D01*
X37460Y180804D01*
Y190000D01*
X40000D01*
Y192540D01*
X49196D01*
X48890Y193682D01*
X47634Y195858D01*
X45858Y197634D01*
X43682Y198890D01*
X41993Y199342D01*
Y200657D01*
X43682Y201110D01*
X45858Y202366D01*
X47634Y204142D01*
X48890Y206318D01*
X49196Y207460D01*
X40000D01*
Y210000D01*
X37460D01*
Y219196D01*
X36318Y218890D01*
X34142Y217634D01*
X32366Y215858D01*
X31110Y213682D01*
X30657Y211992D01*
X29343D01*
X28890Y213682D01*
X27634Y215858D01*
X25858Y217634D01*
X23682Y218890D01*
X22540Y219196D01*
D02*
G37*
G36*
X17460Y187460D02*
X10804D01*
X11110Y186318D01*
X12366Y184142D01*
X14142Y182366D01*
X16318Y181110D01*
X17460Y180804D01*
Y187460D01*
D02*
G37*
G36*
X489196Y187460D02*
X482540D01*
Y180804D01*
X483682Y181110D01*
X485858Y182366D01*
X487634Y184142D01*
X488890Y186318D01*
X489196Y187460D01*
D02*
G37*
G36*
X481185Y179000D02*
X478815D01*
X476526Y178387D01*
X474474Y177202D01*
X472798Y175526D01*
X471613Y173474D01*
X471000Y171185D01*
Y168815D01*
X471613Y166526D01*
X472798Y164474D01*
X474474Y162798D01*
X476526Y161613D01*
X478815Y161000D01*
X481185D01*
X483474Y161613D01*
X485526Y162798D01*
X487202Y164474D01*
X488387Y166526D01*
X489000Y168815D01*
Y171185D01*
X488387Y173474D01*
X487202Y175526D01*
X485526Y177202D01*
X483474Y178387D01*
X481185Y179000D01*
D02*
G37*
G36*
X461185D02*
X458815D01*
X456526Y178387D01*
X454474Y177202D01*
X452798Y175526D01*
X451613Y173474D01*
X451000Y171185D01*
Y168815D01*
X451613Y166526D01*
X452798Y164474D01*
X454474Y162798D01*
X456526Y161613D01*
X458815Y161000D01*
X461185D01*
X463474Y161613D01*
X465526Y162798D01*
X467202Y164474D01*
X468387Y166526D01*
X469000Y168815D01*
Y171185D01*
X468387Y173474D01*
X467202Y175526D01*
X465526Y177202D01*
X463474Y178387D01*
X461185Y179000D01*
D02*
G37*
G36*
X41185D02*
X38815D01*
X36526Y178387D01*
X34474Y177202D01*
X32798Y175526D01*
X31613Y173474D01*
X31000Y171185D01*
Y168815D01*
X31613Y166526D01*
X32798Y164474D01*
X34474Y162798D01*
X36526Y161613D01*
X38815Y161000D01*
X41185D01*
X43474Y161613D01*
X45526Y162798D01*
X47202Y164474D01*
X48387Y166526D01*
X49000Y168815D01*
Y171185D01*
X48387Y173474D01*
X47202Y175526D01*
X45526Y177202D01*
X43474Y178387D01*
X41185Y179000D01*
D02*
G37*
G36*
X21185D02*
X18815D01*
X16526Y178387D01*
X14474Y177202D01*
X12798Y175526D01*
X11613Y173474D01*
X11000Y171185D01*
Y168815D01*
X11613Y166526D01*
X12798Y164474D01*
X14474Y162798D01*
X16526Y161613D01*
X18815Y161000D01*
X21185D01*
X23474Y161613D01*
X25526Y162798D01*
X27202Y164474D01*
X28387Y166526D01*
X29000Y168815D01*
Y171185D01*
X28387Y173474D01*
X27202Y175526D01*
X25526Y177202D01*
X23474Y178387D01*
X21185Y179000D01*
D02*
G37*
G36*
X481185Y159000D02*
X478815D01*
X476526Y158387D01*
X474474Y157202D01*
X472798Y155526D01*
X471613Y153474D01*
X471000Y151185D01*
Y148815D01*
X471613Y146526D01*
X472798Y144474D01*
X474474Y142798D01*
X476526Y141613D01*
X478815Y141000D01*
X481185D01*
X483474Y141613D01*
X485526Y142798D01*
X487202Y144474D01*
X488387Y146526D01*
X489000Y148815D01*
Y151185D01*
X488387Y153474D01*
X487202Y155526D01*
X485526Y157202D01*
X483474Y158387D01*
X481185Y159000D01*
D02*
G37*
G36*
X461185D02*
X458815D01*
X456526Y158387D01*
X454474Y157202D01*
X452798Y155526D01*
X451613Y153474D01*
X451000Y151185D01*
Y148815D01*
X451613Y146526D01*
X452798Y144474D01*
X454474Y142798D01*
X456526Y141613D01*
X458815Y141000D01*
X461185D01*
X463474Y141613D01*
X465526Y142798D01*
X467202Y144474D01*
X468387Y146526D01*
X469000Y148815D01*
Y151185D01*
X468387Y153474D01*
X467202Y155526D01*
X465526Y157202D01*
X463474Y158387D01*
X461185Y159000D01*
D02*
G37*
G36*
X41185D02*
X38815D01*
X36526Y158387D01*
X34474Y157202D01*
X32798Y155526D01*
X31613Y153474D01*
X31000Y151185D01*
Y148815D01*
X31613Y146526D01*
X32798Y144474D01*
X34474Y142798D01*
X36526Y141613D01*
X38815Y141000D01*
X41185D01*
X43474Y141613D01*
X45526Y142798D01*
X47202Y144474D01*
X48387Y146526D01*
X49000Y148815D01*
Y151185D01*
X48387Y153474D01*
X47202Y155526D01*
X45526Y157202D01*
X43474Y158387D01*
X41185Y159000D01*
D02*
G37*
G36*
X21185D02*
X18815D01*
X16526Y158387D01*
X14474Y157202D01*
X12798Y155526D01*
X11613Y153474D01*
X11000Y151185D01*
Y148815D01*
X11613Y146526D01*
X12798Y144474D01*
X14474Y142798D01*
X16526Y141613D01*
X18815Y141000D01*
X21185D01*
X23474Y141613D01*
X25526Y142798D01*
X27202Y144474D01*
X28387Y146526D01*
X29000Y148815D01*
Y151185D01*
X28387Y153474D01*
X27202Y155526D01*
X25526Y157202D01*
X23474Y158387D01*
X21185Y159000D01*
D02*
G37*
G36*
X481185Y139000D02*
X478815D01*
X476526Y138386D01*
X474474Y137201D01*
X472798Y135526D01*
X471613Y133474D01*
X471000Y131185D01*
Y128815D01*
X471613Y126526D01*
X472798Y124474D01*
X474474Y122798D01*
X476526Y121613D01*
X478815Y121000D01*
X481185D01*
X483474Y121613D01*
X485526Y122798D01*
X487202Y124474D01*
X488387Y126526D01*
X489000Y128815D01*
Y131185D01*
X488387Y133474D01*
X487202Y135526D01*
X485526Y137201D01*
X483474Y138386D01*
X481185Y139000D01*
D02*
G37*
G36*
X461185D02*
X458815D01*
X456526Y138386D01*
X454474Y137201D01*
X452798Y135526D01*
X451613Y133474D01*
X451000Y131185D01*
Y128815D01*
X451613Y126526D01*
X452798Y124474D01*
X454474Y122798D01*
X456526Y121613D01*
X458815Y121000D01*
X461185D01*
X463474Y121613D01*
X465526Y122798D01*
X467202Y124474D01*
X468387Y126526D01*
X469000Y128815D01*
Y131185D01*
X468387Y133474D01*
X467202Y135526D01*
X465526Y137201D01*
X463474Y138386D01*
X461185Y139000D01*
D02*
G37*
G36*
X41185D02*
X38815D01*
X36526Y138386D01*
X34474Y137201D01*
X32798Y135526D01*
X31613Y133474D01*
X31000Y131185D01*
Y128815D01*
X31613Y126526D01*
X32798Y124474D01*
X34474Y122798D01*
X36526Y121613D01*
X38815Y121000D01*
X41185D01*
X43474Y121613D01*
X45526Y122798D01*
X47202Y124474D01*
X48387Y126526D01*
X49000Y128815D01*
Y131185D01*
X48387Y133474D01*
X47202Y135526D01*
X45526Y137201D01*
X43474Y138386D01*
X41185Y139000D01*
D02*
G37*
G36*
X21185D02*
X18815D01*
X16526Y138386D01*
X14474Y137201D01*
X12798Y135526D01*
X11613Y133474D01*
X11000Y131185D01*
Y128815D01*
X11613Y126526D01*
X12798Y124474D01*
X14474Y122798D01*
X16526Y121613D01*
X18815Y121000D01*
X21185D01*
X23474Y121613D01*
X25526Y122798D01*
X27202Y124474D01*
X28387Y126526D01*
X29000Y128815D01*
Y131185D01*
X28387Y133474D01*
X27202Y135526D01*
X25526Y137201D01*
X23474Y138386D01*
X21185Y139000D01*
D02*
G37*
G36*
X248355Y113530D02*
X246565D01*
X244911Y112845D01*
X243645Y111579D01*
X242960Y109925D01*
Y108135D01*
X243645Y106481D01*
X244911Y105215D01*
X246565Y104530D01*
X248355D01*
X250009Y105215D01*
X251275Y106481D01*
X251960Y108135D01*
Y109925D01*
X251275Y111579D01*
X250009Y112845D01*
X248355Y113530D01*
D02*
G37*
G36*
X481185Y119000D02*
X478815D01*
X476526Y118386D01*
X474474Y117201D01*
X472798Y115526D01*
X471613Y113474D01*
X471000Y111185D01*
Y108815D01*
X471613Y106526D01*
X472798Y104474D01*
X474474Y102798D01*
X476526Y101613D01*
X478815Y101000D01*
X481185D01*
X483474Y101613D01*
X485526Y102798D01*
X487202Y104474D01*
X488387Y106526D01*
X489000Y108815D01*
Y111185D01*
X488387Y113474D01*
X487202Y115526D01*
X485526Y117201D01*
X483474Y118386D01*
X481185Y119000D01*
D02*
G37*
G36*
X461185D02*
X458815D01*
X456526Y118386D01*
X454474Y117201D01*
X452798Y115526D01*
X451613Y113474D01*
X451000Y111185D01*
Y108815D01*
X451613Y106526D01*
X452798Y104474D01*
X454474Y102798D01*
X456526Y101613D01*
X458815Y101000D01*
X461185D01*
X463474Y101613D01*
X465526Y102798D01*
X467202Y104474D01*
X468387Y106526D01*
X469000Y108815D01*
Y111185D01*
X468387Y113474D01*
X467202Y115526D01*
X465526Y117201D01*
X463474Y118386D01*
X461185Y119000D01*
D02*
G37*
G36*
X21185D02*
X18815D01*
X16526Y118386D01*
X14474Y117201D01*
X12798Y115526D01*
X11613Y113474D01*
X11000Y111185D01*
Y108815D01*
X11613Y106526D01*
X12798Y104474D01*
X14474Y102798D01*
X16526Y101613D01*
X18815Y101000D01*
X21185D01*
X23474Y101613D01*
X25526Y102798D01*
X27202Y104474D01*
X28387Y106526D01*
X29000Y108815D01*
Y111185D01*
X28387Y113474D01*
X27202Y115526D01*
X25526Y117201D01*
X23474Y118386D01*
X21185Y119000D01*
D02*
G37*
G36*
X371015Y107709D02*
X369225D01*
X367571Y107024D01*
X366305Y105758D01*
X365620Y104104D01*
Y102314D01*
X366305Y100660D01*
X367571Y99394D01*
X369225Y98709D01*
X371015D01*
X372669Y99394D01*
X373935Y100660D01*
X374620Y102314D01*
Y104104D01*
X373935Y105758D01*
X372669Y107024D01*
X371015Y107709D01*
D02*
G37*
G36*
X206820Y100729D02*
Y92520D01*
X215029D01*
X214568Y94241D01*
X213114Y96759D01*
X211059Y98814D01*
X208541Y100268D01*
X206820Y100729D01*
D02*
G37*
G36*
X201740D02*
X200019Y100268D01*
X197501Y98814D01*
X195446Y96759D01*
X193992Y94241D01*
X193531Y92520D01*
X201740D01*
Y100729D01*
D02*
G37*
G36*
X184855Y95750D02*
X183065D01*
X181411Y95065D01*
X180145Y93799D01*
X179460Y92145D01*
Y90355D01*
X180145Y88701D01*
X181411Y87435D01*
X183065Y86750D01*
X184855D01*
X186509Y87435D01*
X187775Y88701D01*
X188460Y90355D01*
Y92145D01*
X187775Y93799D01*
X186509Y95065D01*
X184855Y95750D01*
D02*
G37*
G36*
X481185Y99000D02*
X478815D01*
X476526Y98386D01*
X474474Y97202D01*
X472798Y95526D01*
X471613Y93474D01*
X471000Y91185D01*
Y88815D01*
X471613Y86526D01*
X472798Y84474D01*
X474474Y82798D01*
X476526Y81613D01*
X478815Y81000D01*
X481185D01*
X483474Y81613D01*
X485526Y82798D01*
X487202Y84474D01*
X488387Y86526D01*
X489000Y88815D01*
Y91185D01*
X488387Y93474D01*
X487202Y95526D01*
X485526Y97202D01*
X483474Y98386D01*
X481185Y99000D01*
D02*
G37*
G36*
X461185D02*
X458815D01*
X456526Y98386D01*
X454474Y97202D01*
X452798Y95526D01*
X451613Y93474D01*
X451000Y91185D01*
Y88815D01*
X451613Y86526D01*
X452798Y84474D01*
X454474Y82798D01*
X456526Y81613D01*
X458815Y81000D01*
X461185D01*
X463474Y81613D01*
X465526Y82798D01*
X467202Y84474D01*
X468387Y86526D01*
X469000Y88815D01*
Y91185D01*
X468387Y93474D01*
X467202Y95526D01*
X465526Y97202D01*
X463474Y98386D01*
X461185Y99000D01*
D02*
G37*
G36*
X265580Y100480D02*
X244580D01*
Y79480D01*
X265580D01*
Y100480D01*
D02*
G37*
G36*
X231062D02*
X228298D01*
X225627Y99764D01*
X223233Y98382D01*
X221278Y96427D01*
X219896Y94033D01*
X219180Y91362D01*
Y88598D01*
X219896Y85927D01*
X221278Y83533D01*
X223233Y81578D01*
X225627Y80196D01*
X228298Y79480D01*
X231062D01*
X233733Y80196D01*
X236127Y81578D01*
X238082Y83533D01*
X239464Y85927D01*
X240180Y88598D01*
Y91362D01*
X239464Y94033D01*
X238082Y96427D01*
X236127Y98382D01*
X233733Y99764D01*
X231062Y100480D01*
D02*
G37*
G36*
X201740Y87440D02*
X193531D01*
X193992Y85719D01*
X195446Y83201D01*
X197501Y81146D01*
X200019Y79692D01*
X201740Y79231D01*
Y87440D01*
D02*
G37*
G36*
X330905Y81780D02*
X329115D01*
X327461Y81095D01*
X326195Y79829D01*
X325510Y78175D01*
Y76385D01*
X326195Y74731D01*
X327461Y73465D01*
X329115Y72780D01*
X330905D01*
X332559Y73465D01*
X333825Y74731D01*
X334510Y76385D01*
Y78175D01*
X333825Y79829D01*
X332559Y81095D01*
X330905Y81780D01*
D02*
G37*
G36*
X147694Y73000D02*
X145307D01*
X143101Y72087D01*
X141413Y70399D01*
X140500Y68193D01*
Y65806D01*
X141413Y63601D01*
X143101Y61913D01*
X145307Y61000D01*
X147694D01*
X149899Y61913D01*
X151587Y63601D01*
X152500Y65806D01*
Y68193D01*
X151587Y70399D01*
X149899Y72087D01*
X147694Y73000D01*
D02*
G37*
G36*
X215029Y87440D02*
X206820D01*
Y79231D01*
X207182Y79328D01*
X207278Y79219D01*
X208000Y78232D01*
Y76605D01*
X208685Y74951D01*
X209951Y73685D01*
X211605Y73000D01*
X212674D01*
X217191Y68483D01*
Y47196D01*
X216018Y46710D01*
X215526Y47202D01*
X213474Y48387D01*
X211185Y49000D01*
X208815D01*
X206526Y48387D01*
X204474Y47202D01*
X202798Y45526D01*
X201613Y43474D01*
X201000Y41185D01*
Y38815D01*
X201613Y36526D01*
X202798Y34474D01*
X204474Y32798D01*
X206526Y31613D01*
X208815Y31000D01*
X211185D01*
X213474Y31613D01*
X215526Y32798D01*
X216018Y33290D01*
X217191Y32804D01*
Y29750D01*
X217191Y29750D01*
X217424Y28579D01*
X218087Y27587D01*
X221828Y23846D01*
X221613Y23474D01*
X221000Y21185D01*
Y18815D01*
X221613Y16526D01*
X222798Y14474D01*
X224474Y12798D01*
X226526Y11613D01*
X228815Y11000D01*
X231185D01*
X233474Y11613D01*
X235526Y12798D01*
X237202Y14474D01*
X238386Y16526D01*
X239000Y18815D01*
Y21185D01*
X238386Y23474D01*
X237202Y25526D01*
X235526Y27202D01*
X233474Y28387D01*
X231185Y29000D01*
X228815D01*
X226526Y28387D01*
X226154Y28172D01*
X223309Y31017D01*
Y32316D01*
X223833Y32533D01*
X224579Y32738D01*
X226526Y31613D01*
X228815Y31000D01*
X231185D01*
X233474Y31613D01*
X235526Y32798D01*
X237202Y34474D01*
X238386Y36526D01*
X239000Y38815D01*
Y41185D01*
X238386Y43474D01*
X237202Y45526D01*
X235526Y47202D01*
X233474Y48387D01*
X231185Y49000D01*
X228815D01*
X226526Y48387D01*
X224579Y47263D01*
X223833Y47467D01*
X223309Y47684D01*
Y69750D01*
X223309Y69750D01*
X223076Y70921D01*
X222413Y71913D01*
X217000Y77326D01*
Y78395D01*
X216315Y80049D01*
X215049Y81315D01*
X213617Y81908D01*
X213243Y82799D01*
X213154Y83270D01*
X214568Y85719D01*
X215029Y87440D01*
D02*
G37*
G36*
X312540Y49196D02*
Y42540D01*
X319196D01*
X318890Y43682D01*
X317634Y45858D01*
X315858Y47634D01*
X313682Y48890D01*
X312540Y49196D01*
D02*
G37*
G36*
X371185Y49000D02*
X368815D01*
X366526Y48387D01*
X364474Y47202D01*
X362799Y45526D01*
X361614Y43474D01*
X361000Y41185D01*
Y38815D01*
X361614Y36526D01*
X362799Y34474D01*
X364474Y32798D01*
X366526Y31613D01*
X368815Y31000D01*
X371185D01*
X373474Y31613D01*
X375526Y32798D01*
X377202Y34474D01*
X378387Y36526D01*
X379000Y38815D01*
Y41185D01*
X378387Y43474D01*
X377202Y45526D01*
X375526Y47202D01*
X373474Y48387D01*
X371185Y49000D01*
D02*
G37*
G36*
X351185D02*
X348815D01*
X346526Y48387D01*
X344474Y47202D01*
X342798Y45526D01*
X341613Y43474D01*
X341000Y41185D01*
Y38815D01*
X341613Y36526D01*
X342798Y34474D01*
X344474Y32798D01*
X346526Y31613D01*
X348815Y31000D01*
X351185D01*
X353474Y31613D01*
X355526Y32798D01*
X357202Y34474D01*
X358387Y36526D01*
X359000Y38815D01*
Y41185D01*
X358387Y43474D01*
X357202Y45526D01*
X355526Y47202D01*
X353474Y48387D01*
X351185Y49000D01*
D02*
G37*
G36*
X331185D02*
X328815D01*
X326526Y48387D01*
X324474Y47202D01*
X322798Y45526D01*
X321614Y43474D01*
X321000Y41185D01*
Y38815D01*
X321614Y36526D01*
X322798Y34474D01*
X324474Y32798D01*
X326526Y31613D01*
X328815Y31000D01*
X331185D01*
X333474Y31613D01*
X335526Y32798D01*
X337202Y34474D01*
X338387Y36526D01*
X339000Y38815D01*
Y41185D01*
X338387Y43474D01*
X337202Y45526D01*
X335526Y47202D01*
X333474Y48387D01*
X331185Y49000D01*
D02*
G37*
G36*
X191185D02*
X188815D01*
X186526Y48387D01*
X184474Y47202D01*
X182798Y45526D01*
X181613Y43474D01*
X181000Y41185D01*
Y38815D01*
X181613Y36526D01*
X182798Y34474D01*
X184474Y32798D01*
X186526Y31613D01*
X188815Y31000D01*
X191185D01*
X193474Y31613D01*
X195526Y32798D01*
X197202Y34474D01*
X198386Y36526D01*
X199000Y38815D01*
Y41185D01*
X198386Y43474D01*
X197202Y45526D01*
X195526Y47202D01*
X193474Y48387D01*
X191185Y49000D01*
D02*
G37*
G36*
X171185D02*
X168815D01*
X166526Y48387D01*
X164474Y47202D01*
X162798Y45526D01*
X161613Y43474D01*
X161000Y41185D01*
Y38815D01*
X161613Y36526D01*
X162798Y34474D01*
X164474Y32798D01*
X166526Y31613D01*
X168815Y31000D01*
X171185D01*
X173474Y31613D01*
X175526Y32798D01*
X177202Y34474D01*
X178387Y36526D01*
X179000Y38815D01*
Y41185D01*
X178387Y43474D01*
X177202Y45526D01*
X175526Y47202D01*
X173474Y48387D01*
X171185Y49000D01*
D02*
G37*
G36*
X151185D02*
X148815D01*
X146526Y48387D01*
X144474Y47202D01*
X142798Y45526D01*
X141613Y43474D01*
X141000Y41185D01*
Y38815D01*
X141613Y36526D01*
X142798Y34474D01*
X144474Y32798D01*
X146526Y31613D01*
X148815Y31000D01*
X151185D01*
X153474Y31613D01*
X155526Y32798D01*
X157202Y34474D01*
X158387Y36526D01*
X159000Y38815D01*
Y41185D01*
X158387Y43474D01*
X157202Y45526D01*
X155526Y47202D01*
X153474Y48387D01*
X151185Y49000D01*
D02*
G37*
G36*
X470000Y40086D02*
X467389Y39743D01*
X464957Y38735D01*
X462868Y37132D01*
X461265Y35043D01*
X460257Y32611D01*
X459914Y30000D01*
X460257Y27390D01*
X461265Y24957D01*
X462868Y22868D01*
X464957Y21265D01*
X467389Y20257D01*
X470000Y19914D01*
X472611Y20257D01*
X475043Y21265D01*
X477132Y22868D01*
X478735Y24957D01*
X479743Y27390D01*
X480086Y30000D01*
X479743Y32611D01*
X478735Y35043D01*
X477132Y37132D01*
X475043Y38735D01*
X472611Y39743D01*
X470000Y40086D01*
D02*
G37*
G36*
X30000D02*
X27390Y39743D01*
X24957Y38735D01*
X22868Y37132D01*
X21265Y35043D01*
X20257Y32611D01*
X19914Y30000D01*
X20257Y27390D01*
X21265Y24957D01*
X22868Y22868D01*
X24957Y21265D01*
X27390Y20257D01*
X30000Y19914D01*
X32611Y20257D01*
X35043Y21265D01*
X37132Y22868D01*
X38735Y24957D01*
X39743Y27390D01*
X40086Y30000D01*
X39743Y32611D01*
X38735Y35043D01*
X37132Y37132D01*
X35043Y38735D01*
X32611Y39743D01*
X30000Y40086D01*
D02*
G37*
G36*
X391185Y29000D02*
X388815D01*
X386526Y28387D01*
X384474Y27202D01*
X382799Y25526D01*
X381614Y23474D01*
X381000Y21185D01*
Y18815D01*
X381614Y16526D01*
X382799Y14474D01*
X384474Y12798D01*
X386526Y11613D01*
X388815Y11000D01*
X391185D01*
X393474Y11613D01*
X395526Y12798D01*
X397202Y14474D01*
X398387Y16526D01*
X399000Y18815D01*
Y21185D01*
X398387Y23474D01*
X397202Y25526D01*
X395526Y27202D01*
X393474Y28387D01*
X391185Y29000D01*
D02*
G37*
G36*
X371185D02*
X368815D01*
X366526Y28387D01*
X364474Y27202D01*
X362799Y25526D01*
X361614Y23474D01*
X361000Y21185D01*
Y18815D01*
X361614Y16526D01*
X362799Y14474D01*
X364474Y12798D01*
X366526Y11613D01*
X368815Y11000D01*
X371185D01*
X373474Y11613D01*
X375526Y12798D01*
X377202Y14474D01*
X378387Y16526D01*
X379000Y18815D01*
Y21185D01*
X378387Y23474D01*
X377202Y25526D01*
X375526Y27202D01*
X373474Y28387D01*
X371185Y29000D01*
D02*
G37*
G36*
X351185D02*
X348815D01*
X346526Y28387D01*
X344474Y27202D01*
X342798Y25526D01*
X341613Y23474D01*
X341000Y21185D01*
Y18815D01*
X341613Y16526D01*
X342798Y14474D01*
X344474Y12798D01*
X346526Y11613D01*
X348815Y11000D01*
X351185D01*
X353474Y11613D01*
X355526Y12798D01*
X357202Y14474D01*
X358387Y16526D01*
X359000Y18815D01*
Y21185D01*
X358387Y23474D01*
X357202Y25526D01*
X355526Y27202D01*
X353474Y28387D01*
X351185Y29000D01*
D02*
G37*
G36*
X331185D02*
X328815D01*
X326526Y28387D01*
X324474Y27202D01*
X322798Y25526D01*
X321614Y23474D01*
X321000Y21185D01*
Y18815D01*
X321614Y16526D01*
X322798Y14474D01*
X324474Y12798D01*
X326526Y11613D01*
X328815Y11000D01*
X331185D01*
X333474Y11613D01*
X335526Y12798D01*
X337202Y14474D01*
X338387Y16526D01*
X339000Y18815D01*
Y21185D01*
X338387Y23474D01*
X337202Y25526D01*
X335526Y27202D01*
X333474Y28387D01*
X331185Y29000D01*
D02*
G37*
G36*
X211185D02*
X208815D01*
X206526Y28387D01*
X204474Y27202D01*
X202798Y25526D01*
X201613Y23474D01*
X201000Y21185D01*
Y18815D01*
X201613Y16526D01*
X202798Y14474D01*
X204474Y12798D01*
X206526Y11613D01*
X208815Y11000D01*
X211185D01*
X213474Y11613D01*
X215526Y12798D01*
X217202Y14474D01*
X218386Y16526D01*
X219000Y18815D01*
Y21185D01*
X218386Y23474D01*
X217202Y25526D01*
X215526Y27202D01*
X213474Y28387D01*
X211185Y29000D01*
D02*
G37*
G36*
X191185D02*
X188815D01*
X186526Y28387D01*
X184474Y27202D01*
X182798Y25526D01*
X181613Y23474D01*
X181000Y21185D01*
Y18815D01*
X181613Y16526D01*
X182798Y14474D01*
X184474Y12798D01*
X186526Y11613D01*
X188815Y11000D01*
X191185D01*
X193474Y11613D01*
X195526Y12798D01*
X197202Y14474D01*
X198386Y16526D01*
X199000Y18815D01*
Y21185D01*
X198386Y23474D01*
X197202Y25526D01*
X195526Y27202D01*
X193474Y28387D01*
X191185Y29000D01*
D02*
G37*
G36*
X171185D02*
X168815D01*
X166526Y28387D01*
X164474Y27202D01*
X162798Y25526D01*
X161613Y23474D01*
X161000Y21185D01*
Y18815D01*
X161613Y16526D01*
X162798Y14474D01*
X164474Y12798D01*
X166526Y11613D01*
X168815Y11000D01*
X171185D01*
X173474Y11613D01*
X175526Y12798D01*
X177202Y14474D01*
X178387Y16526D01*
X179000Y18815D01*
Y21185D01*
X178387Y23474D01*
X177202Y25526D01*
X175526Y27202D01*
X173474Y28387D01*
X171185Y29000D01*
D02*
G37*
G36*
X151185D02*
X148815D01*
X146526Y28387D01*
X144474Y27202D01*
X142798Y25526D01*
X141613Y23474D01*
X141000Y21185D01*
Y18815D01*
X141613Y16526D01*
X142798Y14474D01*
X144474Y12798D01*
X146526Y11613D01*
X148815Y11000D01*
X151185D01*
X153474Y11613D01*
X155526Y12798D01*
X157202Y14474D01*
X158387Y16526D01*
X159000Y18815D01*
Y21185D01*
X158387Y23474D01*
X157202Y25526D01*
X155526Y27202D01*
X153474Y28387D01*
X151185Y29000D01*
D02*
G37*
G36*
X111185D02*
X108815D01*
X106526Y28387D01*
X104474Y27202D01*
X102798Y25526D01*
X101613Y23474D01*
X101000Y21185D01*
Y18815D01*
X101613Y16526D01*
X102798Y14474D01*
X104474Y12798D01*
X106526Y11613D01*
X108815Y11000D01*
X111185D01*
X113474Y11613D01*
X115526Y12798D01*
X117201Y14474D01*
X118386Y16526D01*
X119000Y18815D01*
Y21185D01*
X118386Y23474D01*
X117201Y25526D01*
X115526Y27202D01*
X113474Y28387D01*
X111185Y29000D01*
D02*
G37*
G36*
X319196Y17460D02*
X312540D01*
Y10804D01*
X313682Y11110D01*
X315858Y12366D01*
X317634Y14142D01*
X318890Y16318D01*
X319196Y17460D01*
D02*
G37*
%LPD*%
G36*
X155203Y474553D02*
X155160Y474376D01*
X155123Y474115D01*
X155063Y473338D01*
X155003Y470765D01*
X155001Y470080D01*
X155250Y465356D01*
X144750Y465356D01*
X144798Y465448D01*
X144840Y465624D01*
X144878Y465885D01*
X144938Y466662D01*
X144998Y469235D01*
X145000Y469919D01*
X144750Y474644D01*
X155250Y474644D01*
X155203Y474553D01*
D02*
G37*
G36*
X164644Y454750D02*
X164552Y454798D01*
X164376Y454840D01*
X164115Y454878D01*
X163338Y454938D01*
X160765Y454998D01*
X159910Y455000D01*
X159910Y465000D01*
X164644Y465250D01*
X164644Y454750D01*
D02*
G37*
G36*
X27505Y388778D02*
X27623Y386737D01*
X27734Y385844D01*
X27881Y385036D01*
X28063Y384313D01*
X28281Y383675D01*
X28534Y383121D01*
X28822Y382653D01*
X29145Y382269D01*
X27731Y380855D01*
X27347Y381179D01*
X26879Y381467D01*
X26326Y381719D01*
X25687Y381937D01*
X24964Y382119D01*
X24156Y382266D01*
X23263Y382378D01*
X21223Y382495D01*
X20075Y382501D01*
X27500Y389925D01*
X27505Y388778D01*
D02*
G37*
G36*
X81540Y338355D02*
X81395Y338205D01*
X81265Y338045D01*
X81151Y337873D01*
X81052Y337690D01*
X80968Y337496D01*
X80900Y337291D01*
X80846Y337075D01*
X80808Y336848D01*
X80785Y336610D01*
X80778Y336361D01*
X78778Y336398D01*
X78770Y336646D01*
X78748Y336884D01*
X78711Y337112D01*
X78660Y337329D01*
X78593Y337536D01*
X78512Y337733D01*
X78416Y337919D01*
X78306Y338094D01*
X78180Y338260D01*
X78040Y338414D01*
X81540Y338355D01*
D02*
G37*
G36*
X238041Y289418D02*
X238650Y289324D01*
X239380Y289261D01*
X240163Y289240D01*
Y284160D01*
X239380Y284139D01*
X238650Y284076D01*
X238041Y283983D01*
Y282071D01*
X237735Y282468D01*
X237376Y282823D01*
X236964Y283136D01*
X236500Y283408D01*
X236380Y283461D01*
X236260Y283408D01*
X235796Y283136D01*
X235384Y282823D01*
X235025Y282468D01*
X234719Y282071D01*
Y283983D01*
X234110Y284076D01*
X233814Y284102D01*
X234041Y283868D01*
X232245Y282072D01*
X231861Y282446D01*
X230801Y283350D01*
X230479Y283579D01*
X230172Y283772D01*
X229881Y283928D01*
X229605Y284048D01*
X229345Y284132D01*
X229100Y284179D01*
X231934Y287013D01*
X231982Y286768D01*
X232065Y286508D01*
X232185Y286232D01*
X232342Y285941D01*
X232534Y285634D01*
X232597Y285547D01*
Y289240D01*
X233380Y289261D01*
X234110Y289324D01*
X234719Y289418D01*
Y291329D01*
X235025Y290932D01*
X235384Y290577D01*
X235796Y290264D01*
X236260Y289992D01*
X236380Y289939D01*
X236500Y289992D01*
X236964Y290264D01*
X237376Y290577D01*
X237735Y290932D01*
X238041Y291329D01*
Y289418D01*
D02*
G37*
G36*
X274500Y287986D02*
X274535Y287983D01*
X275023Y287970D01*
Y285430D01*
X274535Y285417D01*
X274500Y285414D01*
Y284160D01*
X274475Y284401D01*
X274397Y284617D01*
X274269Y284808D01*
X274089Y284973D01*
X273858Y285113D01*
X273575Y285227D01*
X273477Y285253D01*
X273378Y285227D01*
X273096Y285113D01*
X272864Y284973D01*
X272684Y284808D01*
X272556Y284617D01*
X272479Y284401D01*
X272453Y284160D01*
Y285414D01*
X272418Y285417D01*
X271930Y285430D01*
Y287970D01*
X272418Y287983D01*
X272453Y287986D01*
Y289240D01*
X272479Y288999D01*
X272556Y288783D01*
X272684Y288592D01*
X272864Y288427D01*
X273096Y288288D01*
X273378Y288173D01*
X273477Y288147D01*
X273575Y288173D01*
X273858Y288288D01*
X274089Y288427D01*
X274269Y288592D01*
X274397Y288783D01*
X274475Y288999D01*
X274500Y289240D01*
Y287986D01*
D02*
G37*
G36*
X80778Y289429D02*
X80785Y289180D01*
X80807Y288942D01*
X80844Y288714D01*
X80896Y288497D01*
X80962Y288290D01*
X81043Y288093D01*
X81139Y287907D01*
X81250Y287732D01*
X81375Y287567D01*
X81516Y287412D01*
X78016Y287471D01*
X78161Y287621D01*
X78290Y287782D01*
X78404Y287954D01*
X78504Y288137D01*
X78587Y288330D01*
X78656Y288535D01*
X78709Y288751D01*
X78747Y288978D01*
X78770Y289216D01*
X78778Y289466D01*
X80778Y289429D01*
D02*
G37*
G36*
X445061Y312233D02*
Y287351D01*
X443888Y286865D01*
X441413Y289340D01*
X441661Y290586D01*
X441779Y290635D01*
X443045Y291901D01*
X443730Y293555D01*
Y295345D01*
X443045Y296999D01*
X441779Y298265D01*
X440125Y298950D01*
X438898D01*
X437425Y300423D01*
X436432Y301086D01*
X435262Y301319D01*
X435262Y301319D01*
X369384D01*
X369384Y301319D01*
X368213Y301086D01*
X367221Y300423D01*
X354721Y287923D01*
X353645Y288643D01*
X354060Y289645D01*
Y291314D01*
X359313Y296567D01*
X359313Y296567D01*
X359976Y297560D01*
X360209Y298730D01*
X360209Y298730D01*
Y313573D01*
X361045D01*
X362305Y313824D01*
X363374Y314537D01*
X364088Y315606D01*
X364338Y316866D01*
Y319577D01*
X437717D01*
X445061Y312233D01*
D02*
G37*
G36*
X219085Y290932D02*
X219444Y290577D01*
X219855Y290264D01*
X220320Y289992D01*
X220838Y289762D01*
X221409Y289574D01*
X222033Y289428D01*
X222710Y289324D01*
X223440Y289261D01*
X224223Y289240D01*
Y284160D01*
X223440Y284139D01*
X222710Y284076D01*
X222033Y283972D01*
X221409Y283826D01*
X220838Y283638D01*
X220320Y283408D01*
X219856Y283136D01*
X219444Y282823D01*
X219085Y282468D01*
X218779Y282071D01*
Y291329D01*
X219085Y290932D01*
D02*
G37*
G36*
X27505Y288778D02*
X27623Y286737D01*
X27734Y285844D01*
X27881Y285036D01*
X28063Y284313D01*
X28281Y283675D01*
X28534Y283121D01*
X28822Y282653D01*
X29145Y282269D01*
X27731Y280855D01*
X27348Y281179D01*
X26879Y281467D01*
X26326Y281719D01*
X25688Y281937D01*
X24964Y282119D01*
X24156Y282266D01*
X23263Y282377D01*
X21223Y282495D01*
X20075Y282501D01*
X27500Y289925D01*
X27505Y288778D01*
D02*
G37*
G36*
X234661Y282014D02*
X234609Y281925D01*
X234563Y281804D01*
X234524Y281651D01*
X234490Y281466D01*
X234462Y281249D01*
X234426Y280719D01*
X234413Y280061D01*
X231873D01*
X231870Y280387D01*
X231813Y281152D01*
X231779Y281338D01*
X231738Y281488D01*
X231689Y281603D01*
X231633Y281683D01*
X231569Y281727D01*
X231498Y281737D01*
X234719Y282071D01*
X234661Y282014D01*
D02*
G37*
G36*
X263970Y281737D02*
X263729Y281715D01*
X263513Y281640D01*
X263322Y281513D01*
X263157Y281334D01*
X263018Y281103D01*
X262903Y280820D01*
X262814Y280485D01*
X262751Y280098D01*
X262713Y279658D01*
X262700Y279167D01*
X260160D01*
X260147Y279665D01*
X260109Y280111D01*
X260046Y280506D01*
X259958Y280848D01*
X259844Y281138D01*
X259705Y281376D01*
X259541Y281561D01*
X259351Y281695D01*
X259136Y281777D01*
X258896Y281806D01*
X263970Y281737D01*
D02*
G37*
G36*
X248299Y281712D02*
X248083Y281634D01*
X247892Y281506D01*
X247727Y281326D01*
X247588Y281095D01*
X247473Y280812D01*
X247384Y280478D01*
X247321Y280092D01*
X247283Y279655D01*
X247270Y279167D01*
X244730D01*
X244717Y279655D01*
X244679Y280092D01*
X244616Y280478D01*
X244527Y280812D01*
X244412Y281095D01*
X244273Y281326D01*
X244108Y281506D01*
X243917Y281634D01*
X243701Y281712D01*
X243460Y281737D01*
X248540D01*
X248299Y281712D01*
D02*
G37*
G36*
X243041Y268911D02*
X243032Y268875D01*
X243025Y268823D01*
X243013Y268668D01*
X243001Y268153D01*
X243000Y268016D01*
X243050Y267071D01*
X240950D01*
X240959Y267090D01*
X240968Y267125D01*
X240975Y267177D01*
X240987Y267332D01*
X241000Y267847D01*
X241000Y267984D01*
X240950Y268929D01*
X243050D01*
X243041Y268911D01*
D02*
G37*
G36*
X189228Y283344D02*
X189040Y282890D01*
Y274460D01*
Y266846D01*
X192500D01*
X193979Y267140D01*
X195233Y267978D01*
X196070Y269231D01*
X196364Y270710D01*
Y275554D01*
X197363Y276588D01*
X198195Y276527D01*
X198596Y275735D01*
Y274130D01*
X199602D01*
X199614Y274133D01*
X200113Y274313D01*
X200521Y274534D01*
X200839Y274795D01*
X201066Y275096D01*
X201202Y275437D01*
X201247Y275818D01*
Y274130D01*
X206210D01*
Y269050D01*
X201247D01*
Y266805D01*
X201202Y267186D01*
X201066Y267528D01*
X200839Y267829D01*
X200521Y268089D01*
X200113Y268310D01*
X199614Y268491D01*
X199024Y268631D01*
X198596Y268694D01*
Y265590D01*
X198890Y264111D01*
X199728Y262858D01*
X200936Y262050D01*
X200256Y260989D01*
X199813Y261077D01*
X199395Y261250D01*
X198943D01*
X198500Y261338D01*
X194987D01*
X194843Y261553D01*
X193768Y262271D01*
X192500Y262524D01*
X180500D01*
X179232Y262271D01*
X178157Y261553D01*
X177439Y260478D01*
X177214Y259351D01*
X174054D01*
X173669Y260621D01*
X173798Y260707D01*
X174516Y261782D01*
X174769Y263050D01*
Y274909D01*
X175155Y275282D01*
X175366Y275408D01*
X176636Y274731D01*
Y270710D01*
X176930Y269231D01*
X177768Y267978D01*
X179021Y267140D01*
X180500Y266846D01*
X183960D01*
Y274460D01*
Y282074D01*
X180500D01*
X179021Y281780D01*
X178572Y281480D01*
X177013Y281925D01*
X176815Y282402D01*
X175549Y283668D01*
X174141Y284251D01*
Y287946D01*
X173901Y289153D01*
X173217Y290177D01*
X172193Y290861D01*
X170986Y291101D01*
X164424D01*
X163217Y290861D01*
X162193Y290177D01*
X161509Y289153D01*
X161269Y287946D01*
Y280634D01*
X161509Y279427D01*
X161842Y278929D01*
Y277547D01*
X161612Y277393D01*
X160893Y276318D01*
X160641Y275050D01*
Y263050D01*
X160893Y261782D01*
X161612Y260707D01*
X161790Y260588D01*
X161678Y259908D01*
X161356Y259351D01*
X155952D01*
X155767Y259585D01*
X155390Y260621D01*
X156025Y261571D01*
X156319Y263050D01*
Y266510D01*
X148705D01*
X141091D01*
Y263050D01*
X141385Y261571D01*
X142222Y260318D01*
X143096Y259734D01*
X142711Y258464D01*
X136907D01*
X126149Y269222D01*
Y275991D01*
X126449Y276191D01*
X127163Y277260D01*
X127413Y278520D01*
Y290060D01*
X127163Y291320D01*
X126449Y292389D01*
X126388Y292429D01*
X126304Y293755D01*
X127425Y294876D01*
X177696D01*
X189228Y283344D01*
D02*
G37*
G36*
X251050Y263071D02*
X248950D01*
X248960Y263090D01*
X248968Y263125D01*
X248976Y263177D01*
X248988Y263332D01*
X249000Y263847D01*
X249000Y264018D01*
X251000D01*
X251050Y263071D01*
D02*
G37*
G36*
X274347Y280505D02*
X275554Y280264D01*
X279029D01*
X279515Y279091D01*
X268157Y267733D01*
X267494Y266740D01*
X267261Y265570D01*
X267261Y265570D01*
Y264579D01*
X263778Y261096D01*
X263761D01*
X262696Y261537D01*
X261304D01*
X260017Y261004D01*
X259033Y260019D01*
X258500Y258733D01*
Y257341D01*
X258496Y257334D01*
X255200D01*
X254947Y258604D01*
X255983Y259033D01*
X256967Y260017D01*
X257500Y261304D01*
Y262696D01*
X257427Y262872D01*
X263787Y269233D01*
X264510Y270314D01*
X264764Y271590D01*
Y279636D01*
X271240D01*
X272508Y279889D01*
X273583Y280607D01*
X274053Y280701D01*
X274347Y280505D01*
D02*
G37*
G36*
X179336Y256728D02*
X180272Y256612D01*
X181675Y256528D01*
X183360Y256500D01*
X183420Y251500D01*
X182430Y251475D01*
X181547Y251400D01*
X180773Y251275D01*
X180107Y251100D01*
X179617Y250902D01*
X179621Y250831D01*
X179571Y250883D01*
X179550Y250875D01*
X179101Y250600D01*
X178761Y250275D01*
X178529Y249900D01*
X178405Y249475D01*
X178390Y249000D01*
X178206Y251355D01*
X177928Y251393D01*
X176850Y251473D01*
X175515Y251500D01*
Y256500D01*
X176243Y256513D01*
X177464Y256612D01*
X177792Y256670D01*
X177751Y257198D01*
X177995Y257065D01*
X178310Y256947D01*
X178550Y256881D01*
X178712Y256947D01*
X178973Y257108D01*
X179155Y257295D01*
X179260Y257506D01*
X179287Y257742D01*
X179336Y256728D01*
D02*
G37*
G36*
X213463Y259675D02*
X213531Y259510D01*
X213644Y259365D01*
X213803Y259239D01*
X214007Y259132D01*
X214257Y259045D01*
X214552Y258977D01*
X214893Y258929D01*
X215279Y258900D01*
X215710Y258890D01*
Y256350D01*
X215279Y256340D01*
X214893Y256311D01*
X214552Y256263D01*
X214257Y256195D01*
X214007Y256108D01*
X213803Y256001D01*
X213644Y255875D01*
X213531Y255729D01*
X213463Y255565D01*
X213440Y255380D01*
Y259860D01*
X213463Y259675D01*
D02*
G37*
G36*
X229216Y259919D02*
X229293Y259703D01*
X229421Y259512D01*
X229601Y259347D01*
X229832Y259207D01*
X230115Y259093D01*
X230449Y259004D01*
X230835Y258941D01*
X231272Y258903D01*
X231760Y258890D01*
Y256350D01*
X231272Y256337D01*
X230835Y256299D01*
X230449Y256236D01*
X230115Y256147D01*
X229832Y256032D01*
X229601Y255893D01*
X229421Y255728D01*
X229293Y255537D01*
X229216Y255321D01*
X229190Y255080D01*
Y260160D01*
X229216Y259919D01*
D02*
G37*
G36*
X278771Y253281D02*
X278636Y253448D01*
X278467Y253597D01*
X278263Y253729D01*
X278024Y253843D01*
X277751Y253940D01*
X277443Y254019D01*
X277101Y254081D01*
X276724Y254125D01*
X275867Y254160D01*
Y256700D01*
X276371Y256713D01*
X276821Y256751D01*
X277216Y256814D01*
X277555Y256903D01*
X277840Y257017D01*
X278069Y257157D01*
X278244Y257322D01*
X278363Y257513D01*
X278428Y257729D01*
X278437Y257970D01*
X278771Y253281D01*
D02*
G37*
G36*
X236929Y252950D02*
X236910Y252959D01*
X236875Y252968D01*
X236823Y252976D01*
X236668Y252987D01*
X236153Y252999D01*
X235982Y253000D01*
Y255000D01*
X236929Y255050D01*
Y252950D01*
D02*
G37*
G36*
X154609Y247882D02*
X154298Y248043D01*
X153872Y248187D01*
X153333Y248315D01*
X152678Y248425D01*
X151027Y248594D01*
X148917Y248696D01*
X146350Y248730D01*
Y256350D01*
X147691Y256359D01*
X152678Y256655D01*
X153333Y256765D01*
X153872Y256893D01*
X154298Y257037D01*
X154609Y257198D01*
Y247882D01*
D02*
G37*
G36*
X247286Y255330D02*
X247336Y254947D01*
X247418Y254648D01*
X247533Y254433D01*
X247680Y254301D01*
X247861Y254254D01*
X248075Y254289D01*
X248321Y254408D01*
X248600Y254611D01*
X248912Y254898D01*
X249066Y251460D01*
X248725Y251093D01*
X248419Y250712D01*
X248150Y250315D01*
X247917Y249904D01*
X247719Y249478D01*
X247557Y249037D01*
X247432Y248581D01*
X247342Y248110D01*
X247288Y247624D01*
X247270Y247124D01*
X244730Y250190D01*
X247270Y255796D01*
X247286Y255330D01*
D02*
G37*
G36*
X278437Y245017D02*
X278415Y245259D01*
X278341Y245474D01*
X278215Y245665D01*
X278036Y245830D01*
X277806Y245970D01*
X277522Y246084D01*
X277187Y246173D01*
X276799Y246236D01*
X276359Y246275D01*
X275867Y246287D01*
Y248827D01*
X276368Y248840D01*
X276817Y248878D01*
X277213Y248941D01*
X277558Y249029D01*
X277850Y249143D01*
X278090Y249282D01*
X278277Y249447D01*
X278412Y249636D01*
X278495Y249851D01*
X278526Y250091D01*
X278437Y245017D01*
D02*
G37*
G36*
X319578Y268249D02*
X319630Y268013D01*
X319348Y267591D01*
X319231Y267000D01*
X319000Y266444D01*
Y265841D01*
X318883Y265250D01*
Y244534D01*
X311138Y236790D01*
X309968Y237415D01*
X310014Y237650D01*
Y241110D01*
X302400D01*
Y245900D01*
X298400D01*
X298391Y247137D01*
X298189Y250126D01*
X297501D01*
X297672Y250455D01*
X297825Y250905D01*
X297960Y251475D01*
X298043Y251970D01*
X297960Y252419D01*
X297825Y252942D01*
X297672Y253364D01*
X297501Y253684D01*
X298233D01*
X298256Y253910D01*
X298364Y256136D01*
X298400Y258844D01*
X302400D01*
Y262700D01*
X310014D01*
Y266160D01*
X309720Y267639D01*
X309471Y268013D01*
X310149Y269282D01*
X318888D01*
X319578Y268249D01*
D02*
G37*
G36*
X237389Y238204D02*
X237825Y236951D01*
X237617Y236743D01*
X237794Y236514D01*
X237765Y236511D01*
X237726Y236495D01*
X237676Y236466D01*
X237616Y236424D01*
X237546Y236369D01*
X237274Y236126D01*
X237042Y235898D01*
X236931Y236057D01*
X229101Y228228D01*
X228379Y227146D01*
X228125Y225870D01*
Y225464D01*
X222133D01*
X220865Y225212D01*
X220110Y224708D01*
X218840Y225090D01*
Y225151D01*
X216853D01*
X216810Y225159D01*
X216766Y225151D01*
X198449D01*
X198110Y225151D01*
X197919Y225161D01*
X197530Y226066D01*
X197496Y226421D01*
X207857Y236781D01*
X233490D01*
X233490Y236781D01*
X234660Y237014D01*
X235653Y237677D01*
X236404Y238429D01*
X237389Y238204D01*
D02*
G37*
G36*
X263506Y237965D02*
X263525Y237934D01*
X263557Y237892D01*
X263658Y237774D01*
X264013Y237402D01*
X264134Y237280D01*
X262720Y235866D01*
X262015Y236500D01*
X263500Y237985D01*
X263506Y237965D01*
D02*
G37*
G36*
X247283Y225446D02*
X247321Y225009D01*
X247384Y224623D01*
X247473Y224289D01*
X247588Y224006D01*
X247727Y223775D01*
X247892Y223595D01*
X248083Y223466D01*
X248299Y223389D01*
X248540Y223364D01*
X243460D01*
X243701Y223389D01*
X243917Y223466D01*
X244108Y223595D01*
X244273Y223775D01*
X244412Y224006D01*
X244527Y224289D01*
X244616Y224623D01*
X244679Y225009D01*
X244717Y225446D01*
X244730Y225934D01*
X247270D01*
X247283Y225446D01*
D02*
G37*
G36*
X232741Y225394D02*
X232777Y224968D01*
X232838Y224592D01*
X232922Y224266D01*
X233030Y223990D01*
X233163Y223765D01*
X233320Y223589D01*
X233501Y223464D01*
X233706Y223389D01*
X233935Y223364D01*
X228983D01*
X229212Y223389D01*
X229417Y223464D01*
X229598Y223589D01*
X229755Y223765D01*
X229887Y223990D01*
X229996Y224266D01*
X230080Y224592D01*
X230141Y224968D01*
X230177Y225394D01*
X230189Y225870D01*
X232729D01*
X232741Y225394D01*
D02*
G37*
G36*
X232357Y220828D02*
X232360Y220805D01*
X232356Y220725D01*
X232115Y218022D01*
X227754Y222383D01*
X230561Y222624D01*
X232357Y220828D01*
D02*
G37*
G36*
X216889Y222984D02*
X217129Y222861D01*
X217530Y222753D01*
X218090Y222660D01*
X218810Y222581D01*
X221929Y222430D01*
X224809Y222401D01*
Y214401D01*
X223290Y214394D01*
X217530Y214048D01*
X217129Y213940D01*
X216889Y213818D01*
X216810Y213681D01*
Y223120D01*
X216889Y222984D01*
D02*
G37*
G36*
X252129Y222230D02*
X252278Y222056D01*
X252530Y221903D01*
X252886Y221769D01*
X253346Y221657D01*
X253909Y221565D01*
X254576Y221493D01*
X256221Y221411D01*
X257199Y221401D01*
Y213401D01*
X256130Y213404D01*
X251814Y213701D01*
X251805Y213771D01*
X252084Y222425D01*
X252129Y222230D01*
D02*
G37*
G36*
X29145Y97731D02*
X28822Y97347D01*
X28534Y96879D01*
X28281Y96326D01*
X28063Y95687D01*
X27881Y94964D01*
X27734Y94156D01*
X27623Y93263D01*
X27505Y91223D01*
X27500Y90075D01*
X20075Y97499D01*
X21223Y97505D01*
X23263Y97622D01*
X24156Y97734D01*
X24964Y97881D01*
X25687Y98063D01*
X26326Y98281D01*
X26879Y98533D01*
X27347Y98821D01*
X27731Y99145D01*
X29145Y97731D01*
D02*
G37*
G36*
X391008Y90983D02*
X391030Y90744D01*
X391068Y90517D01*
X391120Y90300D01*
X391188Y90094D01*
X391270Y89899D01*
X391368Y89715D01*
X391480Y89541D01*
X391608Y89378D01*
X391750Y89225D01*
X388250D01*
X388393Y89378D01*
X388520Y89541D01*
X388633Y89715D01*
X388730Y89899D01*
X388813Y90094D01*
X388880Y90300D01*
X388933Y90517D01*
X388970Y90744D01*
X388993Y90983D01*
X389000Y91231D01*
X391000D01*
X391008Y90983D01*
D02*
G37*
G36*
X401258Y74472D02*
X401280Y74234D01*
X401318Y74007D01*
X401370Y73790D01*
X401438Y73584D01*
X401520Y73389D01*
X401618Y73205D01*
X401730Y73031D01*
X401858Y72868D01*
X402000Y72715D01*
X398500D01*
X398643Y72868D01*
X398770Y73031D01*
X398883Y73205D01*
X398980Y73389D01*
X399063Y73584D01*
X399130Y73790D01*
X399183Y74007D01*
X399220Y74234D01*
X399243Y74472D01*
X399250Y74721D01*
X401250D01*
X401258Y74472D01*
D02*
G37*
G36*
X273691Y55970D02*
X273525Y56097D01*
X273351Y56210D01*
X273167Y56311D01*
X272975Y56398D01*
X272773Y56471D01*
X272562Y56532D01*
X272342Y56578D01*
X272113Y56612D01*
X271874Y56632D01*
X271627Y56639D01*
X271406Y58639D01*
X271656Y58647D01*
X271894Y58671D01*
X272118Y58712D01*
X272331Y58769D01*
X272530Y58842D01*
X272717Y58931D01*
X272892Y59037D01*
X273053Y59159D01*
X273202Y59297D01*
X273339Y59452D01*
X273691Y55970D01*
D02*
G37*
G36*
X122653Y28822D02*
X123121Y28534D01*
X123674Y28281D01*
X124312Y28063D01*
X125036Y27881D01*
X125844Y27734D01*
X126737Y27623D01*
X128777Y27505D01*
X129925Y27500D01*
X122500Y20075D01*
X122495Y21223D01*
X122377Y23263D01*
X122266Y24156D01*
X122119Y24964D01*
X121937Y25688D01*
X121719Y26326D01*
X121466Y26879D01*
X121178Y27347D01*
X120855Y27731D01*
X122269Y29145D01*
X122653Y28822D01*
D02*
G37*
G36*
X402653Y28822D02*
X403121Y28534D01*
X403674Y28281D01*
X404313Y28063D01*
X405036Y27881D01*
X405844Y27734D01*
X406737Y27623D01*
X408777Y27505D01*
X409925Y27500D01*
X402501Y20075D01*
X402495Y21223D01*
X402378Y23263D01*
X402266Y24156D01*
X402119Y24964D01*
X401937Y25687D01*
X401719Y26326D01*
X401466Y26879D01*
X401179Y27347D01*
X400855Y27731D01*
X402269Y29145D01*
X402653Y28822D01*
D02*
G37*
G36*
X279145Y27731D02*
X278822Y27347D01*
X278534Y26879D01*
X278281Y26326D01*
X278063Y25687D01*
X277881Y24964D01*
X277734Y24156D01*
X277623Y23263D01*
X277505Y21223D01*
X277500Y20075D01*
X270075Y27500D01*
X271223Y27505D01*
X273263Y27623D01*
X274156Y27734D01*
X274964Y27881D01*
X275688Y28063D01*
X276326Y28281D01*
X276879Y28534D01*
X277347Y28822D01*
X277731Y29145D01*
X279145Y27731D01*
D02*
G37*
G36*
X259145D02*
X258822Y27347D01*
X258534Y26879D01*
X258281Y26326D01*
X258063Y25687D01*
X257881Y24964D01*
X257734Y24156D01*
X257623Y23263D01*
X257505Y21223D01*
X257500Y20075D01*
X250075Y27500D01*
X251223Y27505D01*
X253263Y27623D01*
X254156Y27734D01*
X254964Y27881D01*
X255688Y28063D01*
X256326Y28281D01*
X256879Y28534D01*
X257347Y28822D01*
X257731Y29145D01*
X259145Y27731D01*
D02*
G37*
%LPC*%
G36*
X438502Y313449D02*
X436712D01*
X435058Y312764D01*
X433792Y311498D01*
X433107Y309844D01*
Y308054D01*
X433792Y306400D01*
X435058Y305134D01*
X436712Y304449D01*
X438502D01*
X440156Y305134D01*
X441422Y306400D01*
X442107Y308054D01*
Y309844D01*
X441422Y311498D01*
X440156Y312764D01*
X438502Y313449D01*
D02*
G37*
G36*
X142370Y293353D02*
X134580D01*
X133320Y293103D01*
X132251Y292389D01*
X131537Y291320D01*
X131287Y290060D01*
Y278520D01*
X131537Y277260D01*
X132251Y276191D01*
X133320Y275477D01*
X134580Y275227D01*
X140946D01*
X141091Y275050D01*
Y271590D01*
X148705D01*
X156319D01*
Y275050D01*
X156061Y276348D01*
X156156Y277026D01*
X156443Y277719D01*
X157467Y278403D01*
X158151Y279427D01*
X158391Y280634D01*
Y287946D01*
X158151Y289153D01*
X157467Y290177D01*
X156443Y290861D01*
X155236Y291101D01*
X148674D01*
X147467Y290861D01*
X146912Y290490D01*
X146900Y290486D01*
X146879Y290468D01*
X146877Y290467D01*
X145618Y290843D01*
X145486Y290949D01*
X145413Y291320D01*
X144699Y292389D01*
X143630Y293103D01*
X142370Y293353D01*
D02*
G37*
%LPD*%
G36*
X143613Y288815D02*
X143764Y288390D01*
X144015Y288015D01*
X144367Y287690D01*
X144820Y287415D01*
X145373Y287190D01*
X145535Y287147D01*
X145935Y287271D01*
X146440Y287482D01*
X146889Y287732D01*
X147283Y288021D01*
X147623Y288347D01*
X147907Y288713D01*
Y286808D01*
X148593Y286790D01*
Y281790D01*
X147907Y281772D01*
Y279867D01*
X147623Y280233D01*
X147283Y280559D01*
X146889Y280848D01*
X146440Y281098D01*
X145935Y281309D01*
X145535Y281433D01*
X145373Y281390D01*
X144820Y281165D01*
X144367Y280890D01*
X144015Y280565D01*
X143764Y280190D01*
X143613Y279765D01*
X143562Y279290D01*
Y281755D01*
X143369Y281771D01*
X142590Y281790D01*
Y286790D01*
X143369Y286809D01*
X143562Y286825D01*
Y289290D01*
X143613Y288815D01*
D02*
G37*
%LPC*%
G36*
X310014Y257620D02*
X306408D01*
X306409Y257429D01*
X306633Y253684D01*
X307299D01*
X307128Y253364D01*
X306975Y252942D01*
X306840Y252419D01*
X306757Y251970D01*
X306840Y251475D01*
X306975Y250905D01*
X307128Y250455D01*
X307299Y250126D01*
X306538D01*
X306436Y248272D01*
X306404Y246190D01*
X310014D01*
Y249650D01*
X309720Y251129D01*
X309202Y251905D01*
X309720Y252681D01*
X310014Y254160D01*
Y257620D01*
D02*
G37*
%LPD*%
G36*
X219089Y309925D02*
X219449Y309563D01*
X219860Y309244D01*
X219870Y309237D01*
X219881Y309244D01*
X220291Y309563D01*
X220651Y309925D01*
X220961Y310329D01*
Y308688D01*
X221393Y308541D01*
X222005Y308392D01*
X222668Y308285D01*
X223380Y308221D01*
X224143Y308200D01*
Y303200D01*
X223380Y303179D01*
X222668Y303115D01*
X222005Y303009D01*
X221393Y302859D01*
X220961Y302712D01*
Y301071D01*
X220651Y301476D01*
X220291Y301837D01*
X219880Y302157D01*
X219870Y302163D01*
X219860Y302157D01*
X219449Y301838D01*
X219089Y301476D01*
X218779Y301071D01*
Y302712D01*
X218347Y302859D01*
X217735Y303008D01*
X217072Y303115D01*
X216360Y303179D01*
X215597Y303200D01*
Y308200D01*
X216360Y308221D01*
X217072Y308285D01*
X217735Y308392D01*
X218347Y308541D01*
X218779Y308688D01*
Y310329D01*
X219089Y309925D01*
D02*
G37*
G36*
X238041Y308376D02*
X238608Y308285D01*
X239320Y308221D01*
X240083Y308200D01*
Y303200D01*
X239320Y303179D01*
X238608Y303115D01*
X238041Y303024D01*
Y301071D01*
X237731Y301476D01*
X237371Y301837D01*
X236960Y302157D01*
X236500Y302434D01*
X236380Y302488D01*
X236261Y302434D01*
X235800Y302157D01*
X235389Y301837D01*
X235029Y301476D01*
X234719Y301071D01*
Y303024D01*
X234152Y303115D01*
X233440Y303179D01*
X232677Y303200D01*
Y308200D01*
X233440Y308221D01*
X234152Y308285D01*
X234719Y308376D01*
Y310329D01*
X235029Y309925D01*
X235389Y309563D01*
X235800Y309244D01*
X236261Y308967D01*
X236380Y308912D01*
X236500Y308967D01*
X236960Y309244D01*
X237371Y309563D01*
X237731Y309925D01*
X238041Y310329D01*
Y308376D01*
D02*
G37*
D10*
X267625Y305700D02*
X272885Y310960D01*
X280480D01*
X265240Y305700D02*
X267625D01*
D13*
X237729Y238000D02*
X238000D01*
X220250Y29750D02*
Y69750D01*
X212500Y77500D02*
X220250Y69750D01*
X206590Y239840D02*
X233490D01*
X195250Y228500D02*
X206590Y239840D01*
X67210Y228500D02*
X195250D01*
X204000Y243500D02*
X232500D01*
X194000Y233500D02*
X204000Y243500D01*
X112830Y233500D02*
X194000D01*
X201250Y246750D02*
X231154D01*
X192750Y238250D02*
X201250Y246750D01*
X114750Y238250D02*
X192750D01*
X198254Y250000D02*
X229807D01*
X190634Y242380D02*
X198254Y250000D01*
X117120Y242380D02*
X190634D01*
X258000Y230000D02*
X379750Y108250D01*
X253750Y230000D02*
X258000D01*
X250000Y233750D02*
X253750Y230000D01*
X250000Y233750D02*
Y238000D01*
X379750Y67300D02*
Y108250D01*
X63000Y290000D02*
X114750Y238250D01*
X66580Y279750D02*
X112830Y233500D01*
X203645Y228478D02*
X210897Y235730D01*
X235459D01*
X59500Y220790D02*
X67210Y228500D01*
X117850Y117990D02*
X120357Y115483D01*
X92589Y117990D02*
X117850D01*
X339750Y84900D02*
Y118750D01*
X299250Y159250D02*
X339750Y118750D01*
X93750Y159250D02*
X299250D01*
X287250Y282500D02*
X353624D01*
X270320Y265570D02*
X287250Y282500D01*
X270320Y263312D02*
Y265570D01*
X265045Y258037D02*
X270320Y263312D01*
X262000Y258037D02*
X265045D01*
X353624Y282500D02*
X369384Y298260D01*
X416060Y285250D02*
X432500D01*
X411290Y280480D02*
X416060Y285250D01*
X443465Y246535D02*
Y282963D01*
X434954Y291473D02*
X443465Y282963D01*
X379103Y291473D02*
X434954D01*
X40000Y290000D02*
X63000D01*
X93790Y265710D02*
X117120Y242380D01*
X93790Y265710D02*
Y361760D01*
X71250Y151260D02*
X93990Y174000D01*
X71250Y110620D02*
Y151260D01*
X60754Y100124D02*
X71250Y110620D01*
X75250Y147970D02*
X90780Y163500D01*
X75250Y98110D02*
Y147970D01*
X67140Y90000D02*
X75250Y98110D01*
X79250Y144750D02*
X93750Y159250D01*
X79250Y30750D02*
Y144750D01*
Y30750D02*
X90000Y20000D01*
X83250Y142500D02*
X95183Y154433D01*
X83250Y66750D02*
Y142500D01*
Y66750D02*
X110000Y40000D01*
X95183Y154433D02*
X262394D01*
X301726Y163500D02*
X350000Y115226D01*
X90780Y163500D02*
X301726D01*
X299860Y174000D02*
X359750Y114110D01*
X93990Y174000D02*
X299860D01*
X255080Y271590D02*
Y313330D01*
X280000Y338250D01*
X233808Y254000D02*
X238000D01*
X250000Y262000D02*
Y266510D01*
X258000Y238000D02*
X258191Y237809D01*
X237809Y249809D02*
X238000Y250000D01*
X237809Y241809D02*
X238000Y242000D01*
X237809Y245809D02*
X238000Y246000D01*
X242000Y266000D02*
Y270000D01*
X254000Y238000D02*
X254191Y238191D01*
X262000Y246000D02*
X262191Y245809D01*
X448120Y248243D02*
X456006Y240357D01*
X448120Y248243D02*
Y313500D01*
X456006Y240357D02*
X469643D01*
X443465Y246535D02*
X460000Y230000D01*
X220250Y29750D02*
X230000Y20000D01*
X349060Y290640D02*
X357150Y298730D01*
X262000Y242000D02*
X262191Y241809D01*
X264569Y245809D02*
X292128Y218250D01*
X263973Y241809D02*
X408147Y97635D01*
X262191Y241809D02*
X263973D01*
X366840Y65850D02*
X371920Y70930D01*
X266510Y65850D02*
X366840D01*
X251160Y50500D02*
X266510Y65850D01*
X411290Y111570D02*
Y280480D01*
X425260Y64580D02*
Y97600D01*
X411290Y111570D02*
X425260Y97600D01*
X377848Y437405D02*
X394225D01*
X400357Y470357D02*
X410000Y480000D01*
X400357Y443537D02*
Y470357D01*
X394225Y437405D02*
X400357Y443537D01*
X30250Y279750D02*
X66580D01*
X357150Y298730D02*
Y322636D01*
X469643Y240357D02*
X480000Y230000D01*
X438984Y322636D02*
X448120Y313500D01*
X357150Y322636D02*
X438984D01*
X357150Y269520D02*
X379103Y291473D01*
X435262Y298260D02*
X439072Y294450D01*
X439230D01*
X357150Y249143D02*
Y269520D01*
X352870Y225870D02*
X357150Y230150D01*
Y249143D01*
X130000Y40000D02*
Y112220D01*
X137250Y119470D01*
X280480D01*
X120357Y29643D02*
Y115483D01*
X410000Y40000D02*
Y40000D01*
X408147Y41853D02*
X410000Y40000D01*
X290640Y56960D02*
X363030D01*
X280250Y30250D02*
Y46570D01*
X290640Y56960D01*
X260250Y48098D02*
X269791Y57639D01*
X275040D01*
X275291Y57890D01*
X260250Y30250D02*
Y48098D01*
X262394Y154433D02*
X278783Y138044D01*
X250000Y40000D02*
X251160Y41160D01*
Y50500D01*
X369384Y298260D02*
X435262D01*
X408147Y41853D02*
Y97635D01*
X120357Y29643D02*
X130000Y20000D01*
X199200Y125540D02*
X317310D01*
X324930Y117920D01*
X59500Y129500D02*
Y220790D01*
X40000Y110000D02*
X59500Y129500D01*
X211900Y305700D02*
X211900Y305700D01*
X244920D02*
X244920Y305700D01*
X250000Y266510D02*
X255080Y271590D01*
X262191Y245809D02*
X264569D01*
X292128Y218250D02*
X299530D01*
X235459Y235730D02*
X237729Y238000D01*
X235459Y241809D02*
X237809D01*
X229807Y250000D02*
X233808Y254000D01*
X231154Y246750D02*
X234212Y249809D01*
X237809D01*
X232500Y243500D02*
X234809Y245809D01*
X237809D01*
X233490Y239840D02*
X235459Y241809D01*
X371920Y70930D02*
Y79820D01*
X350000Y76010D02*
Y115226D01*
X20000Y90000D02*
X30124Y100124D01*
X60754D01*
X40000Y90000D02*
X67140D01*
X79778Y340128D02*
X79820Y340170D01*
X79778Y285698D02*
Y340128D01*
X79736Y285656D02*
X79778Y285698D01*
X262000Y238000D02*
X400250Y99750D01*
X258191Y235459D02*
X390000Y103650D01*
Y87440D02*
Y103650D01*
X258191Y235459D02*
Y237809D01*
X400250Y70930D02*
Y99750D01*
X250000Y20000D02*
X260250Y30250D01*
X270000Y20000D02*
X280250Y30250D01*
X400250Y29750D02*
Y46800D01*
X379750Y67300D02*
X400250Y46800D01*
Y29750D02*
X410000Y20000D01*
X20000Y290000D02*
X30250Y279750D01*
X75300Y380250D02*
X93790Y361760D01*
X20000Y390000D02*
X29750Y380250D01*
X75300D01*
X56419Y484788D02*
X52610Y479456D01*
X58323D01*
X56419Y484788D02*
Y476790D01*
D14*
X246000Y262000D02*
Y286700D01*
X254088Y264248D02*
X261430Y271590D01*
Y282970D01*
X254088Y262088D02*
Y264248D01*
X254000Y262000D02*
X254088Y262088D01*
X261430Y282970D02*
X265160Y286700D01*
X238000Y258000D02*
X242000Y262000D01*
X233166Y258000D02*
X238000D01*
X246000Y250190D02*
Y262000D01*
X249810Y254000D02*
X261962D01*
X246000Y250190D02*
X249810Y254000D01*
X262000Y250000D02*
X269317D01*
X246000Y238000D02*
Y250190D01*
Y220265D02*
Y238000D01*
X229448Y266000D02*
X238000D01*
X241912Y237912D02*
X242000Y238000D01*
X237912Y270088D02*
X238000Y270000D01*
X233143Y280061D02*
X237912Y275292D01*
X233143Y280061D02*
Y282970D01*
X261962Y254000D02*
X261999Y254037D01*
X167705Y274558D02*
X173000Y279853D01*
X167705Y269050D02*
Y274558D01*
Y284290D02*
X172142Y279853D01*
X173000D01*
X262000Y254000D02*
X268255D01*
X229413Y286700D02*
X233143Y282970D01*
X237912Y270088D02*
Y275292D01*
X227840Y286700D02*
X229413D01*
X265240D02*
X279210D01*
X279670Y255430D02*
X283400Y259160D01*
Y260160D01*
X269685Y255430D02*
X279670D01*
X268255Y254000D02*
X269685Y255430D01*
X228133Y218401D02*
X231459Y221726D01*
Y225870D01*
X269317Y250000D02*
X271760Y247557D01*
X278703D02*
X280070Y246190D01*
X271760Y247557D02*
X278703D01*
X224730Y270070D02*
X227960Y266840D01*
X228608D02*
X229448Y266000D01*
X227960Y266840D02*
X228608D01*
X216980Y262320D02*
X224730Y270070D01*
X216980Y258890D02*
Y262320D01*
X224730Y270070D02*
Y270320D01*
X231459Y225870D02*
X241912Y236323D01*
Y237912D01*
X244926Y219191D02*
X246000Y220265D01*
X215710Y257620D02*
X216980Y258890D01*
X209105Y257620D02*
X215710D01*
X224855D02*
X232786D01*
X233166Y258000D01*
D26*
X138475Y284290D02*
D03*
X120225D02*
D03*
X357150Y249143D02*
D03*
X338900D02*
D03*
Y322636D02*
D03*
X357150D02*
D03*
D27*
X211900Y305700D02*
D03*
Y286700D02*
D03*
X227840D02*
D03*
Y305700D02*
D03*
X244920D02*
D03*
Y286700D02*
D03*
X244926Y218401D02*
D03*
Y199401D02*
D03*
X265240Y286700D02*
D03*
Y305700D02*
D03*
X228133Y199401D02*
D03*
Y218401D02*
D03*
X186500Y274460D02*
D03*
Y255460D02*
D03*
D28*
X167705Y269050D02*
D03*
X148705D02*
D03*
X302400Y260160D02*
D03*
X283400D02*
D03*
X225210Y271590D02*
D03*
X206210D02*
D03*
X283400Y243650D02*
D03*
X302400D02*
D03*
D30*
X470000Y30000D02*
D03*
X30000D02*
D03*
X470000Y470000D02*
D03*
D46*
X211900Y305700D02*
X244920D01*
X205233Y271312D02*
X207288Y269257D01*
X198045Y271312D02*
X205233D01*
X196710D02*
X198045D01*
X190809Y256750D02*
X198500D01*
X188009Y253951D02*
X190809Y256750D01*
X196790Y284160D02*
X198000Y282950D01*
Y281500D02*
Y282950D01*
X280070Y246190D02*
X285900Y240360D01*
X288829Y230950D02*
X313950D01*
X138475Y284290D02*
X151955D01*
X175515Y254000D02*
X185040D01*
X186500Y255460D01*
X174055Y252540D02*
X175515Y254000D01*
X186500Y255460D02*
X188009Y253951D01*
X188520Y271960D02*
X196062D01*
X196710Y271312D01*
X187770Y272710D02*
X188520Y271960D01*
X285900Y233879D02*
X288829Y230950D01*
X285900Y233879D02*
Y240360D01*
D47*
X244926Y219191D02*
X246716Y217401D01*
X331600Y275400D02*
X339000Y268000D01*
X291629Y275400D02*
X331600D01*
X284400Y268171D02*
X291629Y275400D01*
X339000Y265250D02*
Y268000D01*
X338900Y249143D02*
Y265150D01*
Y196297D02*
Y249143D01*
Y265150D02*
X339000Y265250D01*
X313950Y230950D02*
X325000Y242000D01*
Y265250D01*
X314750Y264000D02*
X314770Y263980D01*
Y251586D02*
Y263980D01*
X264866Y204654D02*
X277940Y191580D01*
X279210Y302325D02*
X311986D01*
X288100Y76010D02*
X308420Y96330D01*
X313500D01*
X190000Y460000D02*
Y480000D01*
X130000Y460000D02*
Y480000D01*
X302400Y245900D02*
Y260160D01*
X303400Y246900D02*
X310084D01*
X314770Y251586D01*
X302400Y245900D02*
X303400Y246900D01*
X302400Y243650D02*
Y245900D01*
X338900Y196297D02*
X365207Y169990D01*
X390970D01*
X311986Y302325D02*
X324815Y289496D01*
X284400Y261160D02*
Y268171D01*
X283400Y260160D02*
X284400Y261160D01*
X246716Y217401D02*
X257199D01*
X264866Y209734D01*
Y204654D02*
Y209734D01*
X208090Y218401D02*
X228133D01*
D50*
X40000Y410000D02*
D03*
X480000D02*
D03*
D51*
X20000D02*
D03*
X40000Y390000D02*
D03*
X20000D02*
D03*
X40000Y370000D02*
D03*
X20000D02*
D03*
X40000Y350000D02*
D03*
X20000D02*
D03*
X40000Y330000D02*
D03*
X20000D02*
D03*
X40000Y310000D02*
D03*
X20000D02*
D03*
X40000Y290000D02*
D03*
X20000D02*
D03*
X40000Y270000D02*
D03*
X20000D02*
D03*
X40000Y250000D02*
D03*
X20000D02*
D03*
X40000Y230000D02*
D03*
X20000D02*
D03*
X40000Y210000D02*
D03*
X20000D02*
D03*
X40000Y190000D02*
D03*
X20000D02*
D03*
X40000Y170000D02*
D03*
X20000D02*
D03*
X40000Y150000D02*
D03*
X20000D02*
D03*
X40000Y130000D02*
D03*
X20000D02*
D03*
X40000Y110000D02*
D03*
X20000D02*
D03*
X40000Y90000D02*
D03*
X20000D02*
D03*
X410000Y460000D02*
D03*
Y480000D02*
D03*
X390000Y460000D02*
D03*
Y480000D02*
D03*
X370000Y460000D02*
D03*
Y480000D02*
D03*
X350000Y460000D02*
D03*
Y480000D02*
D03*
X330000Y460000D02*
D03*
Y480000D02*
D03*
X310000Y460000D02*
D03*
Y480000D02*
D03*
X290000Y460000D02*
D03*
Y480000D02*
D03*
X270000Y460000D02*
D03*
Y480000D02*
D03*
X250000Y460000D02*
D03*
Y480000D02*
D03*
X230000Y460000D02*
D03*
Y480000D02*
D03*
X210000Y460000D02*
D03*
Y480000D02*
D03*
X190000Y460000D02*
D03*
Y480000D02*
D03*
X170000Y460000D02*
D03*
Y480000D02*
D03*
X150000Y460000D02*
D03*
Y480000D02*
D03*
X130000Y460000D02*
D03*
Y480000D02*
D03*
X110000Y460000D02*
D03*
Y480000D02*
D03*
X90000Y460000D02*
D03*
X460000Y410000D02*
D03*
X480000Y390000D02*
D03*
X460000D02*
D03*
X480000Y370000D02*
D03*
X460000D02*
D03*
X480000Y350000D02*
D03*
X460000D02*
D03*
X480000Y330000D02*
D03*
X460000D02*
D03*
X480000Y310000D02*
D03*
X460000D02*
D03*
X480000Y290000D02*
D03*
X460000D02*
D03*
X480000Y270000D02*
D03*
X460000D02*
D03*
X480000Y250000D02*
D03*
X460000D02*
D03*
X480000Y230000D02*
D03*
X460000D02*
D03*
X480000Y210000D02*
D03*
X460000D02*
D03*
X480000Y190000D02*
D03*
X460000D02*
D03*
X480000Y170000D02*
D03*
X460000D02*
D03*
X480000Y150000D02*
D03*
X460000D02*
D03*
X480000Y130000D02*
D03*
X460000D02*
D03*
X480000Y110000D02*
D03*
X460000D02*
D03*
X480000Y90000D02*
D03*
X460000D02*
D03*
X410000Y20000D02*
D03*
Y40000D02*
D03*
X390000Y20000D02*
D03*
Y40000D02*
D03*
X370000Y20000D02*
D03*
Y40000D02*
D03*
X350000Y20000D02*
D03*
Y40000D02*
D03*
X330000Y20000D02*
D03*
Y40000D02*
D03*
X310000Y20000D02*
D03*
Y40000D02*
D03*
X290000Y20000D02*
D03*
Y40000D02*
D03*
X270000Y20000D02*
D03*
Y40000D02*
D03*
X250000Y20000D02*
D03*
Y40000D02*
D03*
X230000Y20000D02*
D03*
Y40000D02*
D03*
X210000Y20000D02*
D03*
Y40000D02*
D03*
X190000Y20000D02*
D03*
Y40000D02*
D03*
X170000Y20000D02*
D03*
Y40000D02*
D03*
X150000Y20000D02*
D03*
Y40000D02*
D03*
X130000Y20000D02*
D03*
Y40000D02*
D03*
X110000Y20000D02*
D03*
Y40000D02*
D03*
X90000Y20000D02*
D03*
D52*
Y480000D02*
D03*
Y40000D02*
D03*
D53*
X204280Y89980D02*
D03*
X229680D02*
D03*
D54*
X255080D02*
D03*
D55*
X390970Y271590D02*
D03*
Y246190D02*
D03*
Y220790D02*
D03*
Y195390D02*
D03*
D56*
Y169990D02*
D03*
D57*
X238000Y238000D02*
D03*
X254000Y262000D02*
D03*
X238000Y258000D02*
D03*
Y254000D02*
D03*
X250000Y262000D02*
D03*
X242000D02*
D03*
X262000Y258037D02*
D03*
Y250000D02*
D03*
X258000Y238000D02*
D03*
X250000D02*
D03*
X238000Y250000D02*
D03*
X246000Y238000D02*
D03*
X238000Y242000D02*
D03*
Y246000D02*
D03*
Y266000D02*
D03*
X234000Y270000D02*
D03*
X242000D02*
D03*
X246000Y262000D02*
D03*
X254000Y238000D02*
D03*
X242000Y266000D02*
D03*
Y238000D02*
D03*
X238000Y270000D02*
D03*
X261999Y254037D02*
D03*
X262000Y246000D02*
D03*
Y242000D02*
D03*
Y262037D02*
D03*
Y238000D02*
D03*
X258000Y262000D02*
D03*
D58*
X146500Y67000D02*
D03*
X339000Y265250D02*
D03*
X325000D02*
D03*
X277940Y191580D02*
D03*
X288100Y76010D02*
D03*
X313500Y96330D02*
D03*
X324815Y289496D02*
D03*
X338900Y308420D02*
D03*
D59*
X212500Y77500D02*
D03*
X198500Y256750D02*
D03*
X198000Y281500D02*
D03*
X432500Y285250D02*
D03*
X245250Y168750D02*
D03*
X314750Y264000D02*
D03*
X276670Y148400D02*
D03*
X173000Y279853D02*
D03*
X293317Y265746D02*
D03*
X139510Y269050D02*
D03*
X439230Y294450D02*
D03*
X278783Y138044D02*
D03*
X352870Y225870D02*
D03*
X434150Y105220D02*
D03*
X388430Y130620D02*
D03*
X327470Y191580D02*
D03*
X296990Y222060D02*
D03*
X327470Y225870D02*
D03*
X350330Y203010D02*
D03*
X168343Y312651D02*
D03*
X312230Y288100D02*
D03*
X370120Y103209D02*
D03*
X359750Y114110D02*
D03*
X441770Y239840D02*
D03*
X371920Y79820D02*
D03*
X324930Y117920D02*
D03*
X280480Y119470D02*
D03*
X199200Y125540D02*
D03*
X435420Y253810D02*
D03*
X427433Y259258D02*
D03*
X420180Y263970D02*
D03*
X247460Y109030D02*
D03*
X350000Y76010D02*
D03*
X339750Y84900D02*
D03*
X390000Y87440D02*
D03*
X183960Y91250D02*
D03*
X201180Y113550D02*
D03*
X400250Y70930D02*
D03*
X425260Y64580D02*
D03*
X437607Y308949D02*
D03*
X330010Y77280D02*
D03*
X347790Y233490D02*
D03*
D60*
X92589Y117990D02*
D03*
X64500Y120000D02*
D03*
X280000Y338250D02*
D03*
X349060Y290640D02*
D03*
X79820Y340170D02*
D03*
X415100Y339750D02*
D03*
X296990Y435420D02*
D03*
X377848Y437405D02*
D03*
X70930Y293180D02*
D03*
X67120Y318580D02*
D03*
X495110Y425260D02*
D03*
Y349060D02*
D03*
Y272860D02*
D03*
Y196660D02*
D03*
Y120460D02*
D03*
Y44260D02*
D03*
X476060Y6160D02*
D03*
X437960Y463360D02*
D03*
X457010Y425260D02*
D03*
X437960Y82360D02*
D03*
X457010Y44260D02*
D03*
X437960Y6160D02*
D03*
X418910Y425260D02*
D03*
Y349060D02*
D03*
X399860Y310960D02*
D03*
Y6160D02*
D03*
X380810Y349060D02*
D03*
X361760Y6160D02*
D03*
X323660Y310960D02*
D03*
Y82360D02*
D03*
Y6160D02*
D03*
X285560Y387160D02*
D03*
Y6160D02*
D03*
X247460D02*
D03*
X209360Y387160D02*
D03*
Y6160D02*
D03*
X190310Y425260D02*
D03*
X171260Y6160D02*
D03*
X152210Y425260D02*
D03*
X133160Y387160D02*
D03*
X152210Y349060D02*
D03*
Y196660D02*
D03*
X133160Y6160D02*
D03*
X95060Y387160D02*
D03*
X114110Y196660D02*
D03*
X95060Y82360D02*
D03*
Y6160D02*
D03*
X56960Y463360D02*
D03*
X76010Y425260D02*
D03*
X56960Y82360D02*
D03*
Y6160D02*
D03*
X18860Y463360D02*
D03*
X37910Y425260D02*
D03*
Y44260D02*
D03*
X18860Y6160D02*
D03*
X275291Y57890D02*
D03*
X228410Y331280D02*
D03*
X211900D02*
D03*
X64580Y261430D02*
D03*
X79736Y285656D02*
D03*
X363030Y56960D02*
D03*
D61*
X198045Y271312D02*
D03*
D62*
X208090Y188901D02*
D03*
Y218401D02*
D03*
D63*
X167705Y284290D02*
D03*
X151955D02*
D03*
X224855Y257620D02*
D03*
X209105D02*
D03*
X158305Y252540D02*
D03*
X174055D02*
D03*
D64*
X279210Y286700D02*
D03*
Y302450D02*
D03*
D65*
X194250Y286700D02*
X197429D01*
X211900D01*
X180150Y300800D02*
X194250Y286700D01*
X120225Y296054D02*
X124971Y300800D01*
X120225Y284290D02*
Y296054D01*
Y266769D02*
Y284290D01*
X124971Y300800D02*
X180150D01*
X120225Y266769D02*
X134454Y252540D01*
X158305D01*
D66*
X338900Y322636D02*
Y343202D01*
Y308420D02*
Y322636D01*
X175858Y349060D02*
X333042D01*
X170000Y354918D02*
Y460000D01*
X333042Y349060D02*
X338900Y343202D01*
X170000Y354918D02*
X175858Y349060D01*
X150000Y460000D02*
X170000D01*
X150000Y480000D02*
X170000D01*
X150000Y460000D02*
Y480000D01*
D67*
X167705Y274558D02*
Y284290D01*
D68*
X229413Y286700D02*
X244920D01*
X227840D02*
X227840D01*
X211900Y286700D02*
X227840D01*
X211900Y286700D02*
X211900Y286700D01*
X227840D02*
X227840Y286700D01*
M02*
