G04 ================== begin FILE IDENTIFICATION RECORD ==================*
G04 Layout Name:  pc-1162 ganges dcdc card.brd*
G04 Film Name:    DRILL*
G04 File Format:  Gerber RS274X*
G04 File Origin:  Cadence Allegro 17.4-S029*
G04 Origin Date:  Tue Aug  1 17:55:15 2023*
G04 *
G04 Layer:  MANUFACTURING/NCLEGEND-1-4*
G04 Layer:  BOARD GEOMETRY/DESIGN_OUTLINE*
G04 Layer:  MANUFACTURING/PHOTOPLOT_OUTLINE*
G04 Layer:  BOARD GEOMETRY/DIMENSION*
G04 Layer:  MANUFACTURING/NCDRILL_LEGEND*
G04 Layer:  MANUFACTURING/NCDRILL_FIGURE*
G04 Layer:  MANUFACTURING/NCLEGEND-1-2*
G04 Layer:  DRAWING FORMAT/OUTLINE*
G04 Layer:  DRAWING FORMAT/TITLE_BLOCK*
G04 Layer:  DRAWING FORMAT/TITLE_DATA*
G04 Layer:  DRAWING FORMAT/REVISION_BLOCK*
G04 Layer:  DRAWING FORMAT/REVISION_DATA*
G04 Layer:  DRAWING FORMAT/DRAWING_ORIGIN*
G04 Layer:  BOARD GEOMETRY/OUTLINE*
G04 *
G04 Offset:    (0.00 0.00)*
G04 Mirror:    No*
G04 Mode:      Positive*
G04 Rotation:  0*
G04 FullContactRelief:  No*
G04 UndefLineWidth:     3.90*
G04 ================== end FILE IDENTIFICATION RECORD ====================*
%FSLAX25Y25*MOIN*%
%IR0*IPPOS*OFA0.00000B0.00000*MIA0B0*SFA1.00000B1.00000*%
%AMMACRO10*
1,1,.0039,.0256,0.0*
20,1,.0039,.0256,0.0,-.0256,0.0,0.0*
1,1,.0039,-.0256,0.0*
1,1,.0039,0.0,.0256*
20,1,.0039,0.0,.0256,0.0,-.0256,0.0*
1,1,.0039,0.0,-.0256*
%
%ADD10MACRO10*%
%AMMACRO12*
1,1,.0039,.05,0.0*
20,1,.0039,.05,0.0,.025,.043301,0.0*
1,1,.0039,.025,.043301*
20,1,.0039,.025,.043301,-.025,.043301,0.0*
1,1,.0039,-.025,.043301*
20,1,.0039,-.025,.043301,-.05,0.0,0.0*
1,1,.0039,-.05,0.0*
20,1,.0039,-.05,0.0,-.025,-.043301,0.0*
1,1,.0039,-.025,-.043301*
20,1,.0039,-.025,-.043301,.025,-.043301,0.0*
1,1,.0039,.025,-.043301*
20,1,.0039,.025,-.043301,.05,0.0,0.0*
1,1,.0039,.05,0.0*
1,1,.0039,-.01667,-.02*
20,1,.0039,-.01667,-.02,0.0,.02,0.0*
1,1,.0039,0.0,.02*
20,1,.0039,0.0,.02,.01667,-.02,0.0*
1,1,.0039,.01667,-.02*
1,1,.0039,.01067,-.006*
20,1,.0039,.01067,-.006,-.01067,-.006,0.0*
1,1,.0039,-.01067,-.006*
%
%ADD12MACRO12*%
%AMMACRO16*
1,1,.0039,.05,0.0*
20,1,.0039,.05,0.0,.025,.043301,0.0*
1,1,.0039,.025,.043301*
20,1,.0039,.025,.043301,-.025,.043301,0.0*
1,1,.0039,-.025,.043301*
20,1,.0039,-.025,.043301,-.05,0.0,0.0*
1,1,.0039,-.05,0.0*
20,1,.0039,-.05,0.0,-.025,-.043301,0.0*
1,1,.0039,-.025,-.043301*
20,1,.0039,-.025,-.043301,.025,-.043301,0.0*
1,1,.0039,.025,-.043301*
20,1,.0039,.025,-.043301,.05,0.0,0.0*
1,1,.0039,.05,0.0*
1,1,.0039,.00533,.00133*
20,1,.0039,.00533,.00133,.008,.00333,0.0*
1,1,.0039,.008,.00333*
20,1,.0039,.008,.00333,.01,.00667,0.0*
1,1,.0039,.01,.00667*
20,1,.0039,.01,.00667,.01133,.01133,0.0*
1,1,.0039,.01133,.01133*
20,1,.0039,.01133,.01133,.01,.01533,0.0*
1,1,.0039,.01,.01533*
20,1,.0039,.01,.01533,.00733,.018,0.0*
1,1,.0039,.00733,.018*
20,1,.0039,.00733,.018,.00267,.02,0.0*
1,1,.0039,.00267,.02*
20,1,.0039,.00267,.02,-.01533,.02,0.0*
1,1,.0039,-.01533,.02*
20,1,.0039,-.01533,.02,-.01533,-.02,0.0*
1,1,.0039,-.01533,-.02*
20,1,.0039,-.01533,-.02,.00667,-.02,0.0*
1,1,.0039,.00667,-.02*
20,1,.0039,.00667,-.02,.01133,-.01733,0.0*
1,1,.0039,.01133,-.01733*
20,1,.0039,.01133,-.01733,.014,-.01333,0.0*
1,1,.0039,.014,-.01333*
20,1,.0039,.014,-.01333,.01533,-.00867,0.0*
1,1,.0039,.01533,-.00867*
20,1,.0039,.01533,-.00867,.014,-.004,0.0*
1,1,.0039,.014,-.004*
20,1,.0039,.014,-.004,.01,0.0,0.0*
1,1,.0039,.01,0.0*
20,1,.0039,.01,0.0,.00533,.00133,0.0*
1,1,.0039,.00533,.00133*
20,1,.0039,.00533,.00133,-.01533,.00133,0.0*
1,1,.0039,-.01533,.00133*
%
%ADD16MACRO16*%
%AMMACRO15*
1,1,.0039,.05,0.0*
20,1,.0039,.05,0.0,.025,.043301,0.0*
1,1,.0039,.025,.043301*
20,1,.0039,.025,.043301,-.025,.043301,0.0*
1,1,.0039,-.025,.043301*
20,1,.0039,-.025,.043301,-.05,0.0,0.0*
1,1,.0039,-.05,0.0*
20,1,.0039,-.05,0.0,-.025,-.043301,0.0*
1,1,.0039,-.025,-.043301*
20,1,.0039,-.025,-.043301,.025,-.043301,0.0*
1,1,.0039,.025,-.043301*
20,1,.0039,.025,-.043301,.05,0.0,0.0*
1,1,.0039,.05,0.0*
1,1,.0039,.01467,.01667*
20,1,.0039,.01467,.01667,.01067,.01867,0.0*
1,1,.0039,.01067,.01867*
20,1,.0039,.01067,.01867,.006,.02,0.0*
1,1,.0039,.006,.02*
20,1,.0039,.006,.02,.00067,.02,0.0*
1,1,.0039,.00067,.02*
20,1,.0039,.00067,.02,-.00533,.018,0.0*
1,1,.0039,-.00533,.018*
20,1,.0039,-.00533,.018,-.01,.01467,0.0*
1,1,.0039,-.01,.01467*
20,1,.0039,-.01,.01467,-.01333,.01067,0.0*
1,1,.0039,-.01333,.01067*
20,1,.0039,-.01333,.01067,-.016,.004,0.0*
1,1,.0039,-.016,.004*
20,1,.0039,-.016,.004,-.01667,-.002,0.0*
1,1,.0039,-.01667,-.002*
20,1,.0039,-.01667,-.002,-.01533,-.008,0.0*
1,1,.0039,-.01533,-.008*
20,1,.0039,-.01533,-.008,-.01333,-.012,0.0*
1,1,.0039,-.01333,-.012*
20,1,.0039,-.01333,-.012,-.00933,-.016,0.0*
1,1,.0039,-.00933,-.016*
20,1,.0039,-.00933,-.016,-.00467,-.01867,0.0*
1,1,.0039,-.00467,-.01867*
20,1,.0039,-.00467,-.01867,0.0,-.02,0.0*
1,1,.0039,0.0,-.02*
20,1,.0039,0.0,-.02,.00467,-.02,0.0*
1,1,.0039,.00467,-.02*
20,1,.0039,.00467,-.02,.00933,-.01867,0.0*
1,1,.0039,.00933,-.01867*
20,1,.0039,.00933,-.01867,.01333,-.01667,0.0*
1,1,.0039,.01333,-.01667*
20,1,.0039,.01333,-.01667,.01667,-.014,0.0*
1,1,.0039,.01667,-.014*
%
%ADD15MACRO15*%
%AMMACRO17*
1,1,.0039,.05,0.0*
20,1,.0039,.05,0.0,.025,.043301,0.0*
1,1,.0039,.025,.043301*
20,1,.0039,.025,.043301,-.025,.043301,0.0*
1,1,.0039,-.025,.043301*
20,1,.0039,-.025,.043301,-.05,0.0,0.0*
1,1,.0039,-.05,0.0*
20,1,.0039,-.05,0.0,-.025,-.043301,0.0*
1,1,.0039,-.025,-.043301*
20,1,.0039,-.025,-.043301,.025,-.043301,0.0*
1,1,.0039,.025,-.043301*
20,1,.0039,.025,-.043301,.05,0.0,0.0*
1,1,.0039,.05,0.0*
1,1,.0039,-.01467,-.02*
20,1,.0039,-.01467,-.02,-.01467,.02,0.0*
1,1,.0039,-.01467,.02*
20,1,.0039,-.01467,.02,-.00133,.02,0.0*
1,1,.0039,-.00133,.02*
20,1,.0039,-.00133,.02,.004,.018,0.0*
1,1,.0039,.004,.018*
20,1,.0039,.004,.018,.008,.01533,0.0*
1,1,.0039,.008,.01533*
20,1,.0039,.008,.01533,.01133,.01133,0.0*
1,1,.0039,.01133,.01133*
20,1,.0039,.01133,.01133,.014,.00667,0.0*
1,1,.0039,.014,.00667*
20,1,.0039,.014,.00667,.01467,0.0,0.0*
1,1,.0039,.01467,0.0*
20,1,.0039,.01467,0.0,.014,-.00667,0.0*
1,1,.0039,.014,-.00667*
20,1,.0039,.014,-.00667,.01133,-.01133,0.0*
1,1,.0039,.01133,-.01133*
20,1,.0039,.01133,-.01133,.008,-.01533,0.0*
1,1,.0039,.008,-.01533*
20,1,.0039,.008,-.01533,.004,-.018,0.0*
1,1,.0039,.004,-.018*
20,1,.0039,.004,-.018,-.00133,-.02,0.0*
1,1,.0039,-.00133,-.02*
20,1,.0039,-.00133,-.02,-.01467,-.02,0.0*
1,1,.0039,-.01467,-.02*
%
%ADD17MACRO17*%
%AMMACRO18*
1,1,.0039,.05,0.0*
20,1,.0039,.05,0.0,.025,.043301,0.0*
1,1,.0039,.025,.043301*
20,1,.0039,.025,.043301,-.025,.043301,0.0*
1,1,.0039,-.025,.043301*
20,1,.0039,-.025,.043301,-.05,0.0,0.0*
1,1,.0039,-.05,0.0*
20,1,.0039,-.05,0.0,-.025,-.043301,0.0*
1,1,.0039,-.025,-.043301*
20,1,.0039,-.025,-.043301,.025,-.043301,0.0*
1,1,.0039,.025,-.043301*
20,1,.0039,.025,-.043301,.05,0.0,0.0*
1,1,.0039,.05,0.0*
1,1,.0039,.01333,-.02*
20,1,.0039,.01333,-.02,-.01333,-.02,0.0*
1,1,.0039,-.01333,-.02*
20,1,.0039,-.01333,-.02,-.01333,.02,0.0*
1,1,.0039,-.01333,.02*
20,1,.0039,-.01333,.02,.01333,.02,0.0*
1,1,.0039,.01333,.02*
1,1,.0039,.00267,.00067*
20,1,.0039,.00267,.00067,-.01333,.00067,0.0*
1,1,.0039,-.01333,.00067*
%
%ADD18MACRO18*%
%AMMACRO14*
1,1,.0039,.05,0.0*
20,1,.0039,.05,0.0,.025,.043301,0.0*
1,1,.0039,.025,.043301*
20,1,.0039,.025,.043301,-.025,.043301,0.0*
1,1,.0039,-.025,.043301*
20,1,.0039,-.025,.043301,-.05,0.0,0.0*
1,1,.0039,-.05,0.0*
20,1,.0039,-.05,0.0,-.025,-.043301,0.0*
1,1,.0039,-.025,-.043301*
20,1,.0039,-.025,-.043301,.025,-.043301,0.0*
1,1,.0039,.025,-.043301*
20,1,.0039,.025,-.043301,.05,0.0,0.0*
1,1,.0039,.05,0.0*
1,1,.0039,-.01267,-.02*
20,1,.0039,-.01267,-.02,-.01267,.02,0.0*
1,1,.0039,-.01267,.02*
20,1,.0039,-.01267,.02,.01267,.02,0.0*
1,1,.0039,.01267,.02*
1,1,.0039,.00333,.00067*
20,1,.0039,.00333,.00067,-.01267,.00067,0.0*
1,1,.0039,-.01267,.00067*
%
%ADD14MACRO14*%
%AMMACRO13*
1,1,.0039,.05,0.0*
20,1,.0039,.05,0.0,.025,.043301,0.0*
1,1,.0039,.025,.043301*
20,1,.0039,.025,.043301,-.025,.043301,0.0*
1,1,.0039,-.025,.043301*
20,1,.0039,-.025,.043301,-.05,0.0,0.0*
1,1,.0039,-.05,0.0*
20,1,.0039,-.05,0.0,-.025,-.043301,0.0*
1,1,.0039,-.025,-.043301*
20,1,.0039,-.025,-.043301,.025,-.043301,0.0*
1,1,.0039,.025,-.043301*
20,1,.0039,.025,-.043301,.05,0.0,0.0*
1,1,.0039,.05,0.0*
1,1,.0039,.004,0.0*
20,1,.0039,.004,0.0,.01733,0.0,0.0*
1,1,.0039,.01733,0.0*
20,1,.0039,.01733,0.0,.01733,-.012,0.0*
1,1,.0039,.01733,-.012*
20,1,.0039,.01733,-.012,.01333,-.016,0.0*
1,1,.0039,.01333,-.016*
20,1,.0039,.01333,-.016,.00867,-.01867,0.0*
1,1,.0039,.00867,-.01867*
20,1,.0039,.00867,-.01867,.002,-.02,0.0*
1,1,.0039,.002,-.02*
20,1,.0039,.002,-.02,-.00467,-.01867,0.0*
1,1,.0039,-.00467,-.01867*
20,1,.0039,-.00467,-.01867,-.00933,-.016,0.0*
1,1,.0039,-.00933,-.016*
20,1,.0039,-.00933,-.016,-.01333,-.012,0.0*
1,1,.0039,-.01333,-.012*
20,1,.0039,-.01333,-.012,-.016,-.00733,0.0*
1,1,.0039,-.016,-.00733*
20,1,.0039,-.016,-.00733,-.01733,-.002,0.0*
1,1,.0039,-.01733,-.002*
20,1,.0039,-.01733,-.002,-.01733,.00267,0.0*
1,1,.0039,-.01733,.00267*
20,1,.0039,-.01733,.00267,-.016,.00667,0.0*
1,1,.0039,-.016,.00667*
20,1,.0039,-.016,.00667,-.01333,.01133,0.0*
1,1,.0039,-.01333,.01133*
20,1,.0039,-.01333,.01133,-.00933,.01533,0.0*
1,1,.0039,-.00933,.01533*
20,1,.0039,-.00933,.01533,-.00533,.018,0.0*
1,1,.0039,-.00533,.018*
20,1,.0039,-.00533,.018,0.0,.02,0.0*
1,1,.0039,0.0,.02*
20,1,.0039,0.0,.02,.00467,.02,0.0*
1,1,.0039,.00467,.02*
20,1,.0039,.00467,.02,.01,.01867,0.0*
1,1,.0039,.01,.01867*
20,1,.0039,.01,.01867,.014,.016,0.0*
1,1,.0039,.014,.016*
%
%ADD13MACRO13*%
%AMMACRO11*
1,1,.0039,.05,0.0*
20,1,.0039,.05,0.0,.025,.043301,0.0*
1,1,.0039,.025,.043301*
20,1,.0039,.025,.043301,-.025,.043301,0.0*
1,1,.0039,-.025,.043301*
20,1,.0039,-.025,.043301,-.05,0.0,0.0*
1,1,.0039,-.05,0.0*
20,1,.0039,-.05,0.0,-.025,-.043301,0.0*
1,1,.0039,-.025,-.043301*
20,1,.0039,-.025,-.043301,.025,-.043301,0.0*
1,1,.0039,.025,-.043301*
20,1,.0039,.025,-.043301,.05,0.0,0.0*
1,1,.0039,.05,0.0*
1,1,.0039,-.014,-.02*
20,1,.0039,-.014,-.02,-.014,.02,0.0*
1,1,.0039,-.014,.02*
1,1,.0039,.014,.02*
20,1,.0039,.014,.02,.014,-.02,0.0*
1,1,.0039,.014,-.02*
1,1,.0039,.014,0.0*
20,1,.0039,.014,0.0,-.014,0.0,0.0*
1,1,.0039,-.014,0.0*
%
%ADD11MACRO11*%
%ADD19C,.01512*%
%ADD20C,.0039*%
G75*
%LPD*%
G75*
G54D10*
X0Y0D03*
G54D20*
G01Y-9840D02*
Y-75840D01*
G01X95769Y-66000D02*
X0D01*
G01X14960Y-63440D02*
X0Y-66000D01*
X14960Y-68560D01*
Y-63440D01*
G01X0Y0D02*
Y173228D01*
X224409D01*
Y0D01*
X0D01*
G01D02*
Y173228D01*
X224409D01*
Y0D01*
X0D01*
G01X11811Y1971D02*
Y-45273D01*
G01X96880Y-35433D02*
X11811D01*
G01X26771Y-32873D02*
X11811Y-35433D01*
X26771Y-37993D01*
Y-32873D01*
G01X138231Y-66000D02*
X224409D01*
G01X139341Y-35433D02*
X212598D01*
G01X197639Y-37993D02*
X212598Y-35433D01*
X197639Y-32873D01*
Y-37993D01*
G01X209449Y-68560D02*
X224409Y-66000D01*
X209449Y-63440D01*
Y-68560D01*
G01X212598Y1971D02*
Y-45273D01*
G01X224409Y-9840D02*
Y-75840D01*
G01X234249Y0D02*
X259340D01*
G01X234249Y173228D02*
X259340D01*
G01X249500Y72494D02*
Y0D01*
G01X246940Y14960D02*
X249500Y0D01*
X252060Y14960D01*
X246940D01*
G01X249500Y105506D02*
Y173228D01*
G01X252060Y158268D02*
X249500Y173228D01*
X246940Y158268D01*
X252060D01*
G01X455310Y-5722D02*
Y271478D01*
X959310D01*
Y-5722D01*
X455310D01*
G01Y19478D02*
X959310D01*
G01X455310Y44678D02*
X959310D01*
G01X455310Y69878D02*
X959310D01*
G01X455310Y95078D02*
X959310D01*
G01X455310Y120278D02*
X959310D01*
G01X455310Y145478D02*
X959310D01*
G01X455310Y170678D02*
X959310D01*
G01X455310Y195878D02*
X959310D01*
G01X455310Y221078D02*
X959310D01*
G01X455310Y246278D02*
X959310D01*
G01X546660Y221078D02*
Y-5722D01*
G01X751410Y221078D02*
Y-5722D01*
G01X880560Y221078D02*
Y-5722D01*
G54D11*
X11811Y11811D03*
X212598D03*
Y161417D03*
X500985Y6878D03*
G54D12*
X26732Y30232D03*
X56000Y21000D03*
X60000Y53591D03*
X83000Y30000D03*
Y25500D03*
X126982Y79982D03*
X500985Y183278D03*
G54D13*
X13500Y135000D03*
X500985Y32078D03*
G54D14*
X13500Y150000D03*
X500985Y57278D03*
G54D15*
X47500Y86500D03*
X63248D03*
X95482Y80690D03*
Y96438D03*
X183938Y115018D03*
X168190D03*
X500985Y132878D03*
G54D16*
X69000Y121000D03*
X84748D03*
X500985Y158078D03*
G54D17*
X74803Y137795D03*
X94803D03*
X84803D03*
X138190Y91518D03*
X158825Y35690D03*
X148982D03*
X148033Y91518D03*
X174882Y145669D03*
X184882D03*
X194882D03*
X500985Y107678D03*
G54D18*
X99500Y13472D03*
Y43000D03*
X500985Y82478D03*
G54D19*
G01X107235Y-70410D02*
X108180Y-71460D01*
X109282Y-72090D01*
X110700Y-72300D01*
X112118Y-71880D01*
X113220Y-71040D01*
X114008Y-69570D01*
X114165Y-67890D01*
X113850Y-66210D01*
X113062Y-65160D01*
X111960Y-64320D01*
X110858Y-64110D01*
X109755Y-64320D01*
X108338Y-65160D01*
X108810Y-59700D01*
X113062D01*
G01X122985Y-72300D02*
X123300Y-69570D01*
X123773Y-67260D01*
X124402Y-65160D01*
X125190Y-62850D01*
X126450Y-59700D01*
X120150D01*
G01X108345Y-39843D02*
X109290Y-40893D01*
X110392Y-41523D01*
X111810Y-41733D01*
X113228Y-41313D01*
X114330Y-40473D01*
X115118Y-39003D01*
X115275Y-37323D01*
X114960Y-35643D01*
X114172Y-34593D01*
X113070Y-33753D01*
X111968Y-33543D01*
X110865Y-33753D01*
X109448Y-34593D01*
X109920Y-29133D01*
X114172D01*
G01X124410Y-41733D02*
Y-29133D01*
X122520Y-31653D01*
G01Y-41733D02*
X126300D01*
G01X245090Y82700D02*
Y95300D01*
X239262Y86270D01*
X247138D01*
G01X257690Y82700D02*
Y95300D01*
X251862Y86270D01*
X259738D01*
G01X466492Y202178D02*
Y214778D01*
X472478D01*
G01X470272Y208688D02*
X466492D01*
G01X480195Y214778D02*
X483975D01*
G01X482085D02*
Y202178D01*
G01X480195D02*
X483975D01*
G01X495630Y208478D02*
X498780D01*
Y204698D01*
X497835Y203438D01*
X496732Y202598D01*
X495158Y202178D01*
X493583Y202598D01*
X492480Y203438D01*
X491535Y204698D01*
X490905Y206168D01*
X490590Y207848D01*
Y209318D01*
X490905Y210578D01*
X491535Y212048D01*
X492480Y213308D01*
X493425Y214148D01*
X494685Y214778D01*
X495787D01*
X497047Y214358D01*
X497993Y213518D01*
G01X503820Y214778D02*
Y205748D01*
X504450Y203858D01*
X505710Y202598D01*
X507285Y202178D01*
X508860Y202598D01*
X510120Y203858D01*
X510750Y205748D01*
Y214778D01*
G01X516735Y202178D02*
Y214778D01*
X520672D01*
X521932Y214148D01*
X522720Y213308D01*
X523035Y211628D01*
X522720Y209948D01*
X521775Y208898D01*
X520672Y208268D01*
X516735D01*
G01X520672D02*
X523035Y202178D01*
G01X535635D02*
X529335D01*
Y214778D01*
X535635D01*
G01X533115Y208688D02*
X529335D01*
G01X533272Y227378D02*
X537210Y239978D01*
X541148Y227378D01*
G01X539730Y231788D02*
X534690D01*
G01X546660Y239978D02*
Y227378D01*
X552960D01*
G01X559260Y239978D02*
Y227378D01*
X565560D01*
G01X584145Y239978D02*
Y230948D01*
X584775Y229058D01*
X586035Y227798D01*
X587610Y227378D01*
X589185Y227798D01*
X590445Y229058D01*
X591075Y230948D01*
Y239978D01*
G01X596588Y227378D02*
Y239978D01*
X603832Y227378D01*
Y239978D01*
G01X610920D02*
X614700D01*
G01X612810D02*
Y227378D01*
G01X610920D02*
X614700D01*
G01X625410Y239978D02*
Y227378D01*
G01X621788Y239978D02*
X629032D01*
G01X634702Y229058D02*
X635963Y228008D01*
X637380Y227378D01*
X638640D01*
X639900Y228008D01*
X640845Y229058D01*
X641318Y230528D01*
X641003Y231998D01*
X640215Y233258D01*
X638797Y234098D01*
X636908Y234518D01*
X635805Y235358D01*
X635332Y236828D01*
X635648Y238298D01*
X636435Y239348D01*
X637537Y239978D01*
X638640D01*
X639743Y239558D01*
X640688Y238508D01*
G01X659272Y227378D02*
X663210Y239978D01*
X667148Y227378D01*
G01X665730Y231788D02*
X660690D01*
G01X672660Y227378D02*
Y239978D01*
X676597D01*
X677857Y239348D01*
X678645Y238508D01*
X678960Y236828D01*
X678645Y235148D01*
X677700Y234098D01*
X676597Y233468D01*
X672660D01*
G01X676597D02*
X678960Y227378D01*
G01X691560D02*
X685260D01*
Y239978D01*
X691560D01*
G01X689040Y233888D02*
X685260D01*
G01X711720Y239978D02*
X715500D01*
G01X713610D02*
Y227378D01*
G01X711720D02*
X715500D01*
G01X722588D02*
Y239978D01*
X729832Y227378D01*
Y239978D01*
G01X747315Y227378D02*
Y239978D01*
X751410Y229478D01*
X755505Y239978D01*
Y227378D01*
G01X762120Y239978D02*
X765900D01*
G01X764010D02*
Y227378D01*
G01X762120D02*
X765900D01*
G01X773460Y239978D02*
Y227378D01*
X779760D01*
G01X786060Y239978D02*
Y227378D01*
X792360D01*
G01X799920Y239978D02*
X803700D01*
G01X801810D02*
Y227378D01*
G01X799920D02*
X803700D01*
G01X810315D02*
Y239978D01*
X814410Y229478D01*
X818505Y239978D01*
Y227378D01*
G01X830160D02*
X823860D01*
Y239978D01*
X830160D01*
G01X827640Y233888D02*
X823860D01*
G01X839610Y239978D02*
Y227378D01*
G01X835988Y239978D02*
X843232D01*
G01X855360Y227378D02*
X849060D01*
Y239978D01*
X855360D01*
G01X852840Y233888D02*
X849060D01*
G01X861660Y227378D02*
Y239978D01*
X865597D01*
X866857Y239348D01*
X867645Y238508D01*
X867960Y236828D01*
X867645Y235148D01*
X866700Y234098D01*
X865597Y233468D01*
X861660D01*
G01X865597D02*
X867960Y227378D01*
G01X874102Y229058D02*
X875363Y228008D01*
X876780Y227378D01*
X878040D01*
X879300Y228008D01*
X880245Y229058D01*
X880718Y230528D01*
X880403Y231998D01*
X879615Y233258D01*
X878197Y234098D01*
X876308Y234518D01*
X875205Y235358D01*
X874732Y236828D01*
X875048Y238298D01*
X875835Y239348D01*
X876937Y239978D01*
X878040D01*
X879143Y239558D01*
X880088Y238508D01*
G01X546345Y252578D02*
Y265178D01*
X549495D01*
X550755Y264548D01*
X551700Y263708D01*
X552488Y262448D01*
X553118Y260978D01*
X553275Y258878D01*
X553118Y256778D01*
X552488Y255308D01*
X551700Y254048D01*
X550755Y253208D01*
X549495Y252578D01*
X546345D01*
G01X559260D02*
Y265178D01*
X563197D01*
X564457Y264548D01*
X565245Y263708D01*
X565560Y262028D01*
X565245Y260348D01*
X564300Y259298D01*
X563197Y258668D01*
X559260D01*
G01X563197D02*
X565560Y252578D01*
G01X573120Y265178D02*
X576900D01*
G01X575010D02*
Y252578D01*
G01X573120D02*
X576900D01*
G01X584460Y265178D02*
Y252578D01*
X590760D01*
G01X597060Y265178D02*
Y252578D01*
X603360D01*
G01X628875Y264128D02*
X627930Y264758D01*
X626828Y265178D01*
X625568D01*
X624150Y264548D01*
X623048Y263498D01*
X622260Y262238D01*
X621630Y260138D01*
X621472Y258248D01*
X621788Y256358D01*
X622260Y255098D01*
X623205Y253838D01*
X624308Y252998D01*
X625410Y252578D01*
X626512D01*
X627615Y252998D01*
X628560Y253628D01*
X629348Y254468D01*
G01X634702Y252578D02*
Y265178D01*
G01X641318D02*
Y252578D01*
G01Y258878D02*
X634702D01*
G01X646672Y252578D02*
X650610Y265178D01*
X654548Y252578D01*
G01X653130Y256988D02*
X648090D01*
G01X660060Y252578D02*
Y265178D01*
X663997D01*
X665257Y264548D01*
X666045Y263708D01*
X666360Y262028D01*
X666045Y260348D01*
X665100Y259298D01*
X663997Y258668D01*
X660060D01*
G01X663997D02*
X666360Y252578D01*
G01X675810Y265178D02*
Y252578D01*
G01X672188Y265178D02*
X679432D01*
G01X688410Y252158D02*
X688095Y252368D01*
Y252788D01*
X688410Y252998D01*
X688725Y252788D01*
Y252368D01*
X688410Y252158D01*
G01Y257828D02*
X688095Y258038D01*
Y258458D01*
X688410Y258668D01*
X688725Y258458D01*
Y258038D01*
X688410Y257828D01*
G01X713610Y265178D02*
Y252578D01*
G01X709988Y265178D02*
X717232D01*
G01X726210Y252578D02*
X724950Y252788D01*
X723848Y253628D01*
X722902Y254888D01*
X722272Y256358D01*
X721957Y258038D01*
Y259718D01*
X722272Y261398D01*
X722902Y262868D01*
X723848Y264128D01*
X724950Y264968D01*
X726210Y265178D01*
X727470Y264968D01*
X728572Y264128D01*
X729518Y262868D01*
X730148Y261398D01*
X730463Y259718D01*
Y258038D01*
X730148Y256358D01*
X729518Y254888D01*
X728572Y253628D01*
X727470Y252788D01*
X726210Y252578D01*
G01X735660D02*
Y265178D01*
X739440D01*
X740700Y264548D01*
X741645Y263078D01*
X741960Y261398D01*
X741645Y259718D01*
X740857Y258458D01*
X739440Y257828D01*
X735660D01*
G01X764010Y265178D02*
Y252578D01*
G01X761805Y260978D02*
X766215D01*
G01X776610Y252578D02*
X775665Y252788D01*
X774720Y253628D01*
X774090Y255098D01*
X773775Y256778D01*
X774090Y258458D01*
X774720Y259928D01*
X775665Y260768D01*
X776610Y260978D01*
X777555Y260768D01*
X778500Y259928D01*
X779130Y258458D01*
X779288Y256778D01*
X779130Y255098D01*
X778500Y253628D01*
X777555Y252788D01*
X776610Y252578D01*
G01X803070Y259298D02*
X803700Y259928D01*
X804172Y260978D01*
X804488Y262448D01*
X804172Y263708D01*
X803543Y264548D01*
X802440Y265178D01*
X798188D01*
Y252578D01*
X803385D01*
X804488Y253418D01*
X805118Y254678D01*
X805432Y256148D01*
X805118Y257618D01*
X804172Y258878D01*
X803070Y259298D01*
X798188D01*
G01X814410Y252578D02*
X813150Y252788D01*
X812048Y253628D01*
X811102Y254888D01*
X810472Y256358D01*
X810157Y258038D01*
Y259718D01*
X810472Y261398D01*
X811102Y262868D01*
X812048Y264128D01*
X813150Y264968D01*
X814410Y265178D01*
X815670Y264968D01*
X816772Y264128D01*
X817718Y262868D01*
X818348Y261398D01*
X818663Y259718D01*
Y258038D01*
X818348Y256358D01*
X817718Y254888D01*
X816772Y253628D01*
X815670Y252788D01*
X814410Y252578D01*
G01X827010Y265178D02*
Y252578D01*
G01X823388Y265178D02*
X830632D01*
G01X839610D02*
Y252578D01*
G01X835988Y265178D02*
X843232D01*
G01X852210Y252578D02*
X850950Y252788D01*
X849848Y253628D01*
X848902Y254888D01*
X848272Y256358D01*
X847957Y258038D01*
Y259718D01*
X848272Y261398D01*
X848902Y262868D01*
X849848Y264128D01*
X850950Y264968D01*
X852210Y265178D01*
X853470Y264968D01*
X854572Y264128D01*
X855518Y262868D01*
X856148Y261398D01*
X856463Y259718D01*
Y258038D01*
X856148Y256358D01*
X855518Y254888D01*
X854572Y253628D01*
X853470Y252788D01*
X852210Y252578D01*
G01X860715D02*
Y265178D01*
X864810Y254678D01*
X868905Y265178D01*
Y252578D01*
G01X570442Y202178D02*
Y214778D01*
X576428D01*
G01X574222Y208688D02*
X570442D01*
G01X584145Y214778D02*
X587925D01*
G01X586035D02*
Y202178D01*
G01X584145D02*
X587925D01*
G01X595013D02*
Y214778D01*
X602257Y202178D01*
Y214778D01*
G01X609345D02*
X613125D01*
G01X611235D02*
Y202178D01*
G01X609345D02*
X613125D01*
G01X620527Y203858D02*
X621788Y202808D01*
X623205Y202178D01*
X624465D01*
X625725Y202808D01*
X626670Y203858D01*
X627143Y205328D01*
X626828Y206798D01*
X626040Y208058D01*
X624622Y208898D01*
X622733Y209318D01*
X621630Y210158D01*
X621157Y211628D01*
X621473Y213098D01*
X622260Y214148D01*
X623362Y214778D01*
X624465D01*
X625568Y214358D01*
X626513Y213308D01*
G01X633127Y202178D02*
Y214778D01*
G01X639743D02*
Y202178D01*
G01Y208478D02*
X633127D01*
G01X652185Y202178D02*
X645885D01*
Y214778D01*
X652185D01*
G01X649665Y208688D02*
X645885D01*
G01X658170Y202178D02*
Y214778D01*
X661320D01*
X662580Y214148D01*
X663525Y213308D01*
X664313Y212048D01*
X664943Y210578D01*
X665100Y208478D01*
X664943Y206378D01*
X664313Y204908D01*
X663525Y203648D01*
X662580Y202808D01*
X661320Y202178D01*
X658170D01*
G01X669510Y197978D02*
X678960D01*
G01X683527Y203858D02*
X684788Y202808D01*
X686205Y202178D01*
X687465D01*
X688725Y202808D01*
X689670Y203858D01*
X690143Y205328D01*
X689828Y206798D01*
X689040Y208058D01*
X687622Y208898D01*
X685733Y209318D01*
X684630Y210158D01*
X684157Y211628D01*
X684473Y213098D01*
X685260Y214148D01*
X686362Y214778D01*
X687465D01*
X688568Y214358D01*
X689513Y213308D01*
G01X697545Y214778D02*
X701325D01*
G01X699435D02*
Y202178D01*
G01X697545D02*
X701325D01*
G01X709042Y214778D02*
X715028D01*
X709042Y202178D01*
X715028D01*
G01X727785D02*
X721485D01*
Y214778D01*
X727785D01*
G01X725265Y208688D02*
X721485D01*
G01X601470Y3098D02*
X602415Y1628D01*
X603675Y788D01*
X605093Y578D01*
X606353Y788D01*
X607613Y1838D01*
X608400Y3098D01*
X608557Y4358D01*
X608243Y5828D01*
X607140Y6878D01*
X606037Y7298D01*
X604620D01*
G01X606037D02*
X606982Y7928D01*
X607770Y8978D01*
X608085Y10238D01*
X607770Y11498D01*
X606982Y12548D01*
X605565Y13178D01*
X604148Y12968D01*
X602730Y12128D01*
G01X617535Y158D02*
X617220Y368D01*
Y788D01*
X617535Y998D01*
X617850Y788D01*
Y368D01*
X617535Y158D01*
G01X627457Y2048D02*
X628560Y998D01*
X629820Y578D01*
X631080Y998D01*
X632182Y2258D01*
X632970Y4148D01*
X633285Y6038D01*
Y8348D01*
X632970Y10238D01*
X632182Y11918D01*
X631237Y12758D01*
X630135Y13178D01*
X628875Y12758D01*
X627930Y11918D01*
X627300Y10658D01*
X626985Y8978D01*
X627300Y7508D01*
X628088Y6038D01*
X629033Y5198D01*
X630135Y4988D01*
X631395Y5408D01*
X632340Y6458D01*
X633285Y8348D01*
G01X640057Y2048D02*
X641160Y998D01*
X642420Y578D01*
X643680Y998D01*
X644782Y2258D01*
X645570Y4148D01*
X645885Y6038D01*
Y8348D01*
X645570Y10238D01*
X644782Y11918D01*
X643837Y12758D01*
X642735Y13178D01*
X641475Y12758D01*
X640530Y11918D01*
X639900Y10658D01*
X639585Y8978D01*
X639900Y7508D01*
X640688Y6038D01*
X641633Y5198D01*
X642735Y4988D01*
X643995Y5408D01*
X644940Y6458D01*
X645885Y8348D01*
G01X652657Y2048D02*
X653760Y998D01*
X655020Y578D01*
X656280Y998D01*
X657382Y2258D01*
X658170Y4148D01*
X658485Y6038D01*
Y8348D01*
X658170Y10238D01*
X657382Y11918D01*
X656437Y12758D01*
X655335Y13178D01*
X654075Y12758D01*
X653130Y11918D01*
X652500Y10658D01*
X652185Y8978D01*
X652500Y7508D01*
X653288Y6038D01*
X654233Y5198D01*
X655335Y4988D01*
X656595Y5408D01*
X657540Y6458D01*
X658485Y8348D01*
G01X665257Y2048D02*
X666360Y998D01*
X667620Y578D01*
X668880Y998D01*
X669982Y2258D01*
X670770Y4148D01*
X671085Y6038D01*
Y8348D01*
X670770Y10238D01*
X669982Y11918D01*
X669037Y12758D01*
X667935Y13178D01*
X666675Y12758D01*
X665730Y11918D01*
X665100Y10658D01*
X664785Y8978D01*
X665100Y7508D01*
X665888Y6038D01*
X666833Y5198D01*
X667935Y4988D01*
X669195Y5408D01*
X670140Y6458D01*
X671085Y8348D01*
G01X677857Y2048D02*
X678960Y998D01*
X680220Y578D01*
X681480Y998D01*
X682582Y2258D01*
X683370Y4148D01*
X683685Y6038D01*
Y8348D01*
X683370Y10238D01*
X682582Y11918D01*
X681637Y12758D01*
X680535Y13178D01*
X679275Y12758D01*
X678330Y11918D01*
X677700Y10658D01*
X677385Y8978D01*
X677700Y7508D01*
X678488Y6038D01*
X679433Y5198D01*
X680535Y4988D01*
X681795Y5408D01*
X682740Y6458D01*
X683685Y8348D01*
G01X690142Y11078D02*
X691088Y12338D01*
X692190Y12968D01*
X693450Y13178D01*
X695025Y12758D01*
X696128Y11708D01*
X696443Y10448D01*
X696285Y9188D01*
X695655Y8138D01*
X692505Y6038D01*
X691088Y4568D01*
X690142Y2468D01*
X689827Y578D01*
X696443D01*
G01X604935Y25778D02*
Y38378D01*
X603045Y35858D01*
G01Y25778D02*
X606825D01*
G01X617535Y25358D02*
X617220Y25568D01*
Y25988D01*
X617535Y26198D01*
X617850Y25988D01*
Y25568D01*
X617535Y25358D01*
G01X626670Y27668D02*
X627615Y26618D01*
X628717Y25988D01*
X630135Y25778D01*
X631553Y26198D01*
X632655Y27038D01*
X633443Y28508D01*
X633600Y30188D01*
X633285Y31868D01*
X632497Y32918D01*
X631395Y33758D01*
X630293Y33968D01*
X629190Y33758D01*
X627773Y32918D01*
X628245Y38378D01*
X632497D01*
G01X642735D02*
X641475Y37958D01*
X640530Y36908D01*
X639900Y35648D01*
X639427Y33968D01*
X639270Y32078D01*
X639427Y30188D01*
X639900Y28508D01*
X640530Y27248D01*
X641475Y26198D01*
X642735Y25778D01*
X643995Y26198D01*
X644940Y27248D01*
X645570Y28508D01*
X646043Y30188D01*
X646200Y32078D01*
X646043Y33968D01*
X645570Y35648D01*
X644940Y36908D01*
X643995Y37958D01*
X642735Y38378D01*
G01X655335D02*
X654075Y37958D01*
X653130Y36908D01*
X652500Y35648D01*
X652027Y33968D01*
X651870Y32078D01*
X652027Y30188D01*
X652500Y28508D01*
X653130Y27248D01*
X654075Y26198D01*
X655335Y25778D01*
X656595Y26198D01*
X657540Y27248D01*
X658170Y28508D01*
X658643Y30188D01*
X658800Y32078D01*
X658643Y33968D01*
X658170Y35648D01*
X657540Y36908D01*
X656595Y37958D01*
X655335Y38378D01*
G01X667935Y25778D02*
Y38378D01*
X666045Y35858D01*
G01Y25778D02*
X669825D01*
G01X677542Y36278D02*
X678488Y37538D01*
X679590Y38168D01*
X680850Y38378D01*
X682425Y37958D01*
X683528Y36908D01*
X683843Y35648D01*
X683685Y34388D01*
X683055Y33338D01*
X679905Y31238D01*
X678488Y29768D01*
X677542Y27668D01*
X677227Y25778D01*
X683843D01*
G01X695025D02*
Y38378D01*
X689197Y29348D01*
X697073D01*
G01X604935Y50978D02*
Y63578D01*
X603045Y61058D01*
G01Y50978D02*
X606825D01*
G01X617535Y50558D02*
X617220Y50768D01*
Y51188D01*
X617535Y51398D01*
X617850Y51188D01*
Y50768D01*
X617535Y50558D01*
G01X626670Y52868D02*
X627615Y51818D01*
X628717Y51188D01*
X630135Y50978D01*
X631553Y51398D01*
X632655Y52238D01*
X633443Y53708D01*
X633600Y55388D01*
X633285Y57068D01*
X632497Y58118D01*
X631395Y58958D01*
X630293Y59168D01*
X629190Y58958D01*
X627773Y58118D01*
X628245Y63578D01*
X632497D01*
G01X642735D02*
X641475Y63158D01*
X640530Y62108D01*
X639900Y60848D01*
X639427Y59168D01*
X639270Y57278D01*
X639427Y55388D01*
X639900Y53708D01*
X640530Y52448D01*
X641475Y51398D01*
X642735Y50978D01*
X643995Y51398D01*
X644940Y52448D01*
X645570Y53708D01*
X646043Y55388D01*
X646200Y57278D01*
X646043Y59168D01*
X645570Y60848D01*
X644940Y62108D01*
X643995Y63158D01*
X642735Y63578D01*
G01X655335D02*
X654075Y63158D01*
X653130Y62108D01*
X652500Y60848D01*
X652027Y59168D01*
X651870Y57278D01*
X652027Y55388D01*
X652500Y53708D01*
X653130Y52448D01*
X654075Y51398D01*
X655335Y50978D01*
X656595Y51398D01*
X657540Y52448D01*
X658170Y53708D01*
X658643Y55388D01*
X658800Y57278D01*
X658643Y59168D01*
X658170Y60848D01*
X657540Y62108D01*
X656595Y63158D01*
X655335Y63578D01*
G01X667935Y50978D02*
Y63578D01*
X666045Y61058D01*
G01Y50978D02*
X669825D01*
G01X677542Y61478D02*
X678488Y62738D01*
X679590Y63368D01*
X680850Y63578D01*
X682425Y63158D01*
X683528Y62108D01*
X683843Y60848D01*
X683685Y59588D01*
X683055Y58538D01*
X679905Y56438D01*
X678488Y54968D01*
X677542Y52868D01*
X677227Y50978D01*
X683843D01*
G01X695025D02*
Y63578D01*
X689197Y54548D01*
X697073D01*
G01X604935Y76178D02*
Y88778D01*
X603045Y86258D01*
G01Y76178D02*
X606825D01*
G01X617535Y75758D02*
X617220Y75968D01*
Y76388D01*
X617535Y76598D01*
X617850Y76388D01*
Y75968D01*
X617535Y75758D01*
G01X630135Y76178D02*
Y88778D01*
X628245Y86258D01*
G01Y76178D02*
X632025D01*
G01X640057Y77648D02*
X641160Y76598D01*
X642420Y76178D01*
X643680Y76598D01*
X644782Y77858D01*
X645570Y79748D01*
X645885Y81638D01*
Y83948D01*
X645570Y85838D01*
X644782Y87518D01*
X643837Y88358D01*
X642735Y88778D01*
X641475Y88358D01*
X640530Y87518D01*
X639900Y86258D01*
X639585Y84578D01*
X639900Y83108D01*
X640688Y81638D01*
X641633Y80798D01*
X642735Y80588D01*
X643995Y81008D01*
X644940Y82058D01*
X645885Y83948D01*
G01X652657Y77648D02*
X653760Y76598D01*
X655020Y76178D01*
X656280Y76598D01*
X657382Y77858D01*
X658170Y79748D01*
X658485Y81638D01*
Y83948D01*
X658170Y85838D01*
X657382Y87518D01*
X656437Y88358D01*
X655335Y88778D01*
X654075Y88358D01*
X653130Y87518D01*
X652500Y86258D01*
X652185Y84578D01*
X652500Y83108D01*
X653288Y81638D01*
X654233Y80798D01*
X655335Y80588D01*
X656595Y81008D01*
X657540Y82058D01*
X658485Y83948D01*
G01X667935Y76178D02*
X669037Y76388D01*
X670297Y77018D01*
X671085Y78068D01*
X671400Y79538D01*
X671085Y81008D01*
X670140Y82268D01*
X668722Y82898D01*
X667148D01*
X666202Y83318D01*
X665415Y84368D01*
X665100Y85838D01*
X665573Y87308D01*
X666675Y88358D01*
X667935Y88778D01*
X669195Y88358D01*
X670297Y87308D01*
X670770Y85838D01*
X670455Y84368D01*
X669668Y83318D01*
X668722Y82898D01*
X667148D01*
X665730Y82268D01*
X664785Y81008D01*
X664470Y79538D01*
X664785Y78068D01*
X665573Y77018D01*
X666833Y76388D01*
X667935Y76178D01*
G01X677857Y77648D02*
X678960Y76598D01*
X680220Y76178D01*
X681480Y76598D01*
X682582Y77858D01*
X683370Y79748D01*
X683685Y81638D01*
Y83948D01*
X683370Y85838D01*
X682582Y87518D01*
X681637Y88358D01*
X680535Y88778D01*
X679275Y88358D01*
X678330Y87518D01*
X677700Y86258D01*
X677385Y84578D01*
X677700Y83108D01*
X678488Y81638D01*
X679433Y80798D01*
X680535Y80588D01*
X681795Y81008D01*
X682740Y82058D01*
X683685Y83948D01*
G01X690142Y81428D02*
X691245Y82898D01*
X692190Y83738D01*
X693450Y84158D01*
X694553Y83738D01*
X695340Y82898D01*
X695970Y81638D01*
X696128Y80168D01*
X695970Y78908D01*
X695340Y77648D01*
X694395Y76598D01*
X693293Y76178D01*
X692033Y76598D01*
X690930Y77858D01*
X690300Y79748D01*
X690142Y81848D01*
X690457Y84578D01*
X690930Y86048D01*
X691717Y87518D01*
X692820Y88568D01*
X693922Y88778D01*
X695025Y88358D01*
X695813Y87308D01*
G01X604935Y113978D02*
X603675Y113558D01*
X602730Y112508D01*
X602100Y111248D01*
X601627Y109568D01*
X601470Y107678D01*
X601627Y105788D01*
X602100Y104108D01*
X602730Y102848D01*
X603675Y101798D01*
X604935Y101378D01*
X606195Y101798D01*
X607140Y102848D01*
X607770Y104108D01*
X608243Y105788D01*
X608400Y107678D01*
X608243Y109568D01*
X607770Y111248D01*
X607140Y112508D01*
X606195Y113558D01*
X604935Y113978D01*
G01X617535Y100958D02*
X617220Y101168D01*
Y101588D01*
X617535Y101798D01*
X617850Y101588D01*
Y101168D01*
X617535Y100958D01*
G01X627457Y102848D02*
X628560Y101798D01*
X629820Y101378D01*
X631080Y101798D01*
X632182Y103058D01*
X632970Y104948D01*
X633285Y106838D01*
Y109148D01*
X632970Y111038D01*
X632182Y112718D01*
X631237Y113558D01*
X630135Y113978D01*
X628875Y113558D01*
X627930Y112718D01*
X627300Y111458D01*
X626985Y109778D01*
X627300Y108308D01*
X628088Y106838D01*
X629033Y105998D01*
X630135Y105788D01*
X631395Y106208D01*
X632340Y107258D01*
X633285Y109148D01*
G01X640057Y102848D02*
X641160Y101798D01*
X642420Y101378D01*
X643680Y101798D01*
X644782Y103058D01*
X645570Y104948D01*
X645885Y106838D01*
Y109148D01*
X645570Y111038D01*
X644782Y112718D01*
X643837Y113558D01*
X642735Y113978D01*
X641475Y113558D01*
X640530Y112718D01*
X639900Y111458D01*
X639585Y109778D01*
X639900Y108308D01*
X640688Y106838D01*
X641633Y105998D01*
X642735Y105788D01*
X643995Y106208D01*
X644940Y107258D01*
X645885Y109148D01*
G01X652657Y102848D02*
X653760Y101798D01*
X655020Y101378D01*
X656280Y101798D01*
X657382Y103058D01*
X658170Y104948D01*
X658485Y106838D01*
Y109148D01*
X658170Y111038D01*
X657382Y112718D01*
X656437Y113558D01*
X655335Y113978D01*
X654075Y113558D01*
X653130Y112718D01*
X652500Y111458D01*
X652185Y109778D01*
X652500Y108308D01*
X653288Y106838D01*
X654233Y105998D01*
X655335Y105788D01*
X656595Y106208D01*
X657540Y107258D01*
X658485Y109148D01*
G01X665257Y102848D02*
X666360Y101798D01*
X667620Y101378D01*
X668880Y101798D01*
X669982Y103058D01*
X670770Y104948D01*
X671085Y106838D01*
Y109148D01*
X670770Y111038D01*
X669982Y112718D01*
X669037Y113558D01*
X667935Y113978D01*
X666675Y113558D01*
X665730Y112718D01*
X665100Y111458D01*
X664785Y109778D01*
X665100Y108308D01*
X665888Y106838D01*
X666833Y105998D01*
X667935Y105788D01*
X669195Y106208D01*
X670140Y107258D01*
X671085Y109148D01*
G01X677857Y102848D02*
X678960Y101798D01*
X680220Y101378D01*
X681480Y101798D01*
X682582Y103058D01*
X683370Y104948D01*
X683685Y106838D01*
Y109148D01*
X683370Y111038D01*
X682582Y112718D01*
X681637Y113558D01*
X680535Y113978D01*
X679275Y113558D01*
X678330Y112718D01*
X677700Y111458D01*
X677385Y109778D01*
X677700Y108308D01*
X678488Y106838D01*
X679433Y105998D01*
X680535Y105788D01*
X681795Y106208D01*
X682740Y107258D01*
X683685Y109148D01*
G01X693135Y101378D02*
X694237Y101588D01*
X695497Y102218D01*
X696285Y103268D01*
X696600Y104738D01*
X696285Y106208D01*
X695340Y107468D01*
X693922Y108098D01*
X692348D01*
X691402Y108518D01*
X690615Y109568D01*
X690300Y111038D01*
X690773Y112508D01*
X691875Y113558D01*
X693135Y113978D01*
X694395Y113558D01*
X695497Y112508D01*
X695970Y111038D01*
X695655Y109568D01*
X694868Y108518D01*
X693922Y108098D01*
X692348D01*
X690930Y107468D01*
X689985Y106208D01*
X689670Y104738D01*
X689985Y103268D01*
X690773Y102218D01*
X692033Y101588D01*
X693135Y101378D01*
G01X604935Y139178D02*
X603675Y138758D01*
X602730Y137708D01*
X602100Y136448D01*
X601627Y134768D01*
X601470Y132878D01*
X601627Y130988D01*
X602100Y129308D01*
X602730Y128048D01*
X603675Y126998D01*
X604935Y126578D01*
X606195Y126998D01*
X607140Y128048D01*
X607770Y129308D01*
X608243Y130988D01*
X608400Y132878D01*
X608243Y134768D01*
X607770Y136448D01*
X607140Y137708D01*
X606195Y138758D01*
X604935Y139178D01*
G01X617535Y126158D02*
X617220Y126368D01*
Y126788D01*
X617535Y126998D01*
X617850Y126788D01*
Y126368D01*
X617535Y126158D01*
G01X627457Y128048D02*
X628560Y126998D01*
X629820Y126578D01*
X631080Y126998D01*
X632182Y128258D01*
X632970Y130148D01*
X633285Y132038D01*
Y134348D01*
X632970Y136238D01*
X632182Y137918D01*
X631237Y138758D01*
X630135Y139178D01*
X628875Y138758D01*
X627930Y137918D01*
X627300Y136658D01*
X626985Y134978D01*
X627300Y133508D01*
X628088Y132038D01*
X629033Y131198D01*
X630135Y130988D01*
X631395Y131408D01*
X632340Y132458D01*
X633285Y134348D01*
G01X640057Y128048D02*
X641160Y126998D01*
X642420Y126578D01*
X643680Y126998D01*
X644782Y128258D01*
X645570Y130148D01*
X645885Y132038D01*
Y134348D01*
X645570Y136238D01*
X644782Y137918D01*
X643837Y138758D01*
X642735Y139178D01*
X641475Y138758D01*
X640530Y137918D01*
X639900Y136658D01*
X639585Y134978D01*
X639900Y133508D01*
X640688Y132038D01*
X641633Y131198D01*
X642735Y130988D01*
X643995Y131408D01*
X644940Y132458D01*
X645885Y134348D01*
G01X652657Y128048D02*
X653760Y126998D01*
X655020Y126578D01*
X656280Y126998D01*
X657382Y128258D01*
X658170Y130148D01*
X658485Y132038D01*
Y134348D01*
X658170Y136238D01*
X657382Y137918D01*
X656437Y138758D01*
X655335Y139178D01*
X654075Y138758D01*
X653130Y137918D01*
X652500Y136658D01*
X652185Y134978D01*
X652500Y133508D01*
X653288Y132038D01*
X654233Y131198D01*
X655335Y130988D01*
X656595Y131408D01*
X657540Y132458D01*
X658485Y134348D01*
G01X665257Y128048D02*
X666360Y126998D01*
X667620Y126578D01*
X668880Y126998D01*
X669982Y128258D01*
X670770Y130148D01*
X671085Y132038D01*
Y134348D01*
X670770Y136238D01*
X669982Y137918D01*
X669037Y138758D01*
X667935Y139178D01*
X666675Y138758D01*
X665730Y137918D01*
X665100Y136658D01*
X664785Y134978D01*
X665100Y133508D01*
X665888Y132038D01*
X666833Y131198D01*
X667935Y130988D01*
X669195Y131408D01*
X670140Y132458D01*
X671085Y134348D01*
G01X677857Y128048D02*
X678960Y126998D01*
X680220Y126578D01*
X681480Y126998D01*
X682582Y128258D01*
X683370Y130148D01*
X683685Y132038D01*
Y134348D01*
X683370Y136238D01*
X682582Y137918D01*
X681637Y138758D01*
X680535Y139178D01*
X679275Y138758D01*
X678330Y137918D01*
X677700Y136658D01*
X677385Y134978D01*
X677700Y133508D01*
X678488Y132038D01*
X679433Y131198D01*
X680535Y130988D01*
X681795Y131408D01*
X682740Y132458D01*
X683685Y134348D01*
G01X693135Y126578D02*
X694237Y126788D01*
X695497Y127418D01*
X696285Y128468D01*
X696600Y129938D01*
X696285Y131408D01*
X695340Y132668D01*
X693922Y133298D01*
X692348D01*
X691402Y133718D01*
X690615Y134768D01*
X690300Y136238D01*
X690773Y137708D01*
X691875Y138758D01*
X693135Y139178D01*
X694395Y138758D01*
X695497Y137708D01*
X695970Y136238D01*
X695655Y134768D01*
X694868Y133718D01*
X693922Y133298D01*
X692348D01*
X690930Y132668D01*
X689985Y131408D01*
X689670Y129938D01*
X689985Y128468D01*
X690773Y127418D01*
X692033Y126788D01*
X693135Y126578D01*
G01X617535Y164378D02*
X616275Y163958D01*
X615330Y162908D01*
X614700Y161648D01*
X614227Y159968D01*
X614070Y158078D01*
X614227Y156188D01*
X614700Y154508D01*
X615330Y153248D01*
X616275Y152198D01*
X617535Y151778D01*
X618795Y152198D01*
X619740Y153248D01*
X620370Y154508D01*
X620843Y156188D01*
X621000Y158078D01*
X620843Y159968D01*
X620370Y161648D01*
X619740Y162908D01*
X618795Y163958D01*
X617535Y164378D01*
G01X630135Y151358D02*
X629820Y151568D01*
Y151988D01*
X630135Y152198D01*
X630450Y151988D01*
Y151568D01*
X630135Y151358D01*
G01X642735Y151778D02*
X643837Y151988D01*
X645097Y152618D01*
X645885Y153668D01*
X646200Y155138D01*
X645885Y156608D01*
X644940Y157868D01*
X643522Y158498D01*
X641948D01*
X641002Y158918D01*
X640215Y159968D01*
X639900Y161438D01*
X640373Y162908D01*
X641475Y163958D01*
X642735Y164378D01*
X643995Y163958D01*
X645097Y162908D01*
X645570Y161438D01*
X645255Y159968D01*
X644468Y158918D01*
X643522Y158498D01*
X641948D01*
X640530Y157868D01*
X639585Y156608D01*
X639270Y155138D01*
X639585Y153668D01*
X640373Y152618D01*
X641633Y151988D01*
X642735Y151778D01*
G01X655335Y164378D02*
X654075Y163958D01*
X653130Y162908D01*
X652500Y161648D01*
X652027Y159968D01*
X651870Y158078D01*
X652027Y156188D01*
X652500Y154508D01*
X653130Y153248D01*
X654075Y152198D01*
X655335Y151778D01*
X656595Y152198D01*
X657540Y153248D01*
X658170Y154508D01*
X658643Y156188D01*
X658800Y158078D01*
X658643Y159968D01*
X658170Y161648D01*
X657540Y162908D01*
X656595Y163958D01*
X655335Y164378D01*
G01X667935D02*
X666675Y163958D01*
X665730Y162908D01*
X665100Y161648D01*
X664627Y159968D01*
X664470Y158078D01*
X664627Y156188D01*
X665100Y154508D01*
X665730Y153248D01*
X666675Y152198D01*
X667935Y151778D01*
X669195Y152198D01*
X670140Y153248D01*
X670770Y154508D01*
X671243Y156188D01*
X671400Y158078D01*
X671243Y159968D01*
X670770Y161648D01*
X670140Y162908D01*
X669195Y163958D01*
X667935Y164378D01*
G01X680535Y151778D02*
Y164378D01*
X678645Y161858D01*
G01Y151778D02*
X682425D01*
G01X617535Y189578D02*
X616275Y189158D01*
X615330Y188108D01*
X614700Y186848D01*
X614227Y185168D01*
X614070Y183278D01*
X614227Y181388D01*
X614700Y179708D01*
X615330Y178448D01*
X616275Y177398D01*
X617535Y176978D01*
X618795Y177398D01*
X619740Y178448D01*
X620370Y179708D01*
X620843Y181388D01*
X621000Y183278D01*
X620843Y185168D01*
X620370Y186848D01*
X619740Y188108D01*
X618795Y189158D01*
X617535Y189578D01*
G01X630135Y176558D02*
X629820Y176768D01*
Y177188D01*
X630135Y177398D01*
X630450Y177188D01*
Y176768D01*
X630135Y176558D01*
G01X639270Y178868D02*
X640215Y177818D01*
X641317Y177188D01*
X642735Y176978D01*
X644153Y177398D01*
X645255Y178238D01*
X646043Y179708D01*
X646200Y181388D01*
X645885Y183068D01*
X645097Y184118D01*
X643995Y184958D01*
X642893Y185168D01*
X641790Y184958D01*
X640373Y184118D01*
X640845Y189578D01*
X645097D01*
G01X651870Y178868D02*
X652815Y177818D01*
X653917Y177188D01*
X655335Y176978D01*
X656753Y177398D01*
X657855Y178238D01*
X658643Y179708D01*
X658800Y181388D01*
X658485Y183068D01*
X657697Y184118D01*
X656595Y184958D01*
X655493Y185168D01*
X654390Y184958D01*
X652973Y184118D01*
X653445Y189578D01*
X657697D01*
G01X667935Y176978D02*
X669037Y177188D01*
X670297Y177818D01*
X671085Y178868D01*
X671400Y180338D01*
X671085Y181808D01*
X670140Y183068D01*
X668722Y183698D01*
X667148D01*
X666202Y184118D01*
X665415Y185168D01*
X665100Y186638D01*
X665573Y188108D01*
X666675Y189158D01*
X667935Y189578D01*
X669195Y189158D01*
X670297Y188108D01*
X670770Y186638D01*
X670455Y185168D01*
X669668Y184118D01*
X668722Y183698D01*
X667148D01*
X665730Y183068D01*
X664785Y181808D01*
X664470Y180338D01*
X664785Y178868D01*
X665573Y177818D01*
X666833Y177188D01*
X667935Y176978D01*
G01X680535D02*
X681637Y177188D01*
X682897Y177818D01*
X683685Y178868D01*
X684000Y180338D01*
X683685Y181808D01*
X682740Y183068D01*
X681322Y183698D01*
X679748D01*
X678802Y184118D01*
X678015Y185168D01*
X677700Y186638D01*
X678173Y188108D01*
X679275Y189158D01*
X680535Y189578D01*
X681795Y189158D01*
X682897Y188108D01*
X683370Y186638D01*
X683055Y185168D01*
X682268Y184118D01*
X681322Y183698D01*
X679748D01*
X678330Y183068D01*
X677385Y181808D01*
X677070Y180338D01*
X677385Y178868D01*
X678173Y177818D01*
X679433Y177188D01*
X680535Y176978D01*
G01X724635Y-12022D02*
Y-24622D01*
G01X721013Y-12022D02*
X728257D01*
G01X737235Y-24622D02*
X735975Y-24412D01*
X734873Y-23572D01*
X733927Y-22312D01*
X733297Y-20842D01*
X732982Y-19162D01*
Y-17482D01*
X733297Y-15802D01*
X733927Y-14332D01*
X734873Y-13072D01*
X735975Y-12232D01*
X737235Y-12022D01*
X738495Y-12232D01*
X739597Y-13072D01*
X740543Y-14332D01*
X741173Y-15802D01*
X741488Y-17482D01*
Y-19162D01*
X741173Y-20842D01*
X740543Y-22312D01*
X739597Y-23572D01*
X738495Y-24412D01*
X737235Y-24622D01*
G01X749835Y-12022D02*
Y-24622D01*
G01X746213Y-12022D02*
X753457D01*
G01X758497Y-24622D02*
X762435Y-12022D01*
X766373Y-24622D01*
G01X764955Y-20212D02*
X759915D01*
G01X771885Y-12022D02*
Y-24622D01*
X778185D01*
G01X796927D02*
Y-12022D01*
G01X803543D02*
Y-24622D01*
G01Y-18322D02*
X796927D01*
G01X812835Y-24622D02*
X811575Y-24412D01*
X810473Y-23572D01*
X809527Y-22312D01*
X808897Y-20842D01*
X808582Y-19162D01*
Y-17482D01*
X808897Y-15802D01*
X809527Y-14332D01*
X810473Y-13072D01*
X811575Y-12232D01*
X812835Y-12022D01*
X814095Y-12232D01*
X815197Y-13072D01*
X816143Y-14332D01*
X816773Y-15802D01*
X817088Y-17482D01*
Y-19162D01*
X816773Y-20842D01*
X816143Y-22312D01*
X815197Y-23572D01*
X814095Y-24412D01*
X812835Y-24622D01*
G01X822285Y-12022D02*
Y-24622D01*
X828585D01*
G01X841185D02*
X834885D01*
Y-12022D01*
X841185D01*
G01X838665Y-18112D02*
X834885D01*
G01X847327Y-22942D02*
X848588Y-23992D01*
X850005Y-24622D01*
X851265D01*
X852525Y-23992D01*
X853470Y-22942D01*
X853943Y-21472D01*
X853628Y-20002D01*
X852840Y-18742D01*
X851422Y-17902D01*
X849533Y-17482D01*
X848430Y-16642D01*
X847957Y-15172D01*
X848273Y-13702D01*
X849060Y-12652D01*
X850162Y-12022D01*
X851265D01*
X852368Y-12442D01*
X853313Y-13492D01*
G01X863235Y-25042D02*
X862920Y-24832D01*
Y-24412D01*
X863235Y-24202D01*
X863550Y-24412D01*
Y-24832D01*
X863235Y-25042D01*
G01Y-19372D02*
X862920Y-19162D01*
Y-18742D01*
X863235Y-18532D01*
X863550Y-18742D01*
Y-19162D01*
X863235Y-19372D01*
G01X781335Y578D02*
Y13178D01*
X785115D01*
X786375Y12548D01*
X787320Y11078D01*
X787635Y9398D01*
X787320Y7718D01*
X786532Y6458D01*
X785115Y5828D01*
X781335D01*
G01X793935Y13178D02*
Y578D01*
X800235D01*
G01X805747D02*
X809685Y13178D01*
X813623Y578D01*
G01X812205Y4988D02*
X807165D01*
G01X822285Y13178D02*
Y578D01*
G01X818663Y13178D02*
X825907D01*
G01X838035Y578D02*
X831735D01*
Y13178D01*
X838035D01*
G01X835515Y7088D02*
X831735D01*
G01X844020Y578D02*
Y13178D01*
X847170D01*
X848430Y12548D01*
X849375Y11708D01*
X850163Y10448D01*
X850793Y8978D01*
X850950Y6878D01*
X850793Y4778D01*
X850163Y3308D01*
X849375Y2048D01*
X848430Y1208D01*
X847170Y578D01*
X844020D01*
G01X781335Y25778D02*
Y38378D01*
X785115D01*
X786375Y37748D01*
X787320Y36278D01*
X787635Y34598D01*
X787320Y32918D01*
X786532Y31658D01*
X785115Y31028D01*
X781335D01*
G01X793935Y38378D02*
Y25778D01*
X800235D01*
G01X805747D02*
X809685Y38378D01*
X813623Y25778D01*
G01X812205Y30188D02*
X807165D01*
G01X822285Y38378D02*
Y25778D01*
G01X818663Y38378D02*
X825907D01*
G01X838035Y25778D02*
X831735D01*
Y38378D01*
X838035D01*
G01X835515Y32288D02*
X831735D01*
G01X844020Y25778D02*
Y38378D01*
X847170D01*
X848430Y37748D01*
X849375Y36908D01*
X850163Y35648D01*
X850793Y34178D01*
X850950Y32078D01*
X850793Y29978D01*
X850163Y28508D01*
X849375Y27248D01*
X848430Y26408D01*
X847170Y25778D01*
X844020D01*
G01X781335Y50978D02*
Y63578D01*
X785115D01*
X786375Y62948D01*
X787320Y61478D01*
X787635Y59798D01*
X787320Y58118D01*
X786532Y56858D01*
X785115Y56228D01*
X781335D01*
G01X793935Y63578D02*
Y50978D01*
X800235D01*
G01X805747D02*
X809685Y63578D01*
X813623Y50978D01*
G01X812205Y55388D02*
X807165D01*
G01X822285Y63578D02*
Y50978D01*
G01X818663Y63578D02*
X825907D01*
G01X838035Y50978D02*
X831735D01*
Y63578D01*
X838035D01*
G01X835515Y57488D02*
X831735D01*
G01X844020Y50978D02*
Y63578D01*
X847170D01*
X848430Y62948D01*
X849375Y62108D01*
X850163Y60848D01*
X850793Y59378D01*
X850950Y57278D01*
X850793Y55178D01*
X850163Y53708D01*
X849375Y52448D01*
X848430Y51608D01*
X847170Y50978D01*
X844020D01*
G01X781335Y76178D02*
Y88778D01*
X785115D01*
X786375Y88148D01*
X787320Y86678D01*
X787635Y84998D01*
X787320Y83318D01*
X786532Y82058D01*
X785115Y81428D01*
X781335D01*
G01X793935Y88778D02*
Y76178D01*
X800235D01*
G01X805747D02*
X809685Y88778D01*
X813623Y76178D01*
G01X812205Y80588D02*
X807165D01*
G01X822285Y88778D02*
Y76178D01*
G01X818663Y88778D02*
X825907D01*
G01X838035Y76178D02*
X831735D01*
Y88778D01*
X838035D01*
G01X835515Y82688D02*
X831735D01*
G01X844020Y76178D02*
Y88778D01*
X847170D01*
X848430Y88148D01*
X849375Y87308D01*
X850163Y86048D01*
X850793Y84578D01*
X850950Y82478D01*
X850793Y80378D01*
X850163Y78908D01*
X849375Y77648D01*
X848430Y76808D01*
X847170Y76178D01*
X844020D01*
G01X781335Y101378D02*
Y113978D01*
X785115D01*
X786375Y113348D01*
X787320Y111878D01*
X787635Y110198D01*
X787320Y108518D01*
X786532Y107258D01*
X785115Y106628D01*
X781335D01*
G01X793935Y113978D02*
Y101378D01*
X800235D01*
G01X805747D02*
X809685Y113978D01*
X813623Y101378D01*
G01X812205Y105788D02*
X807165D01*
G01X822285Y113978D02*
Y101378D01*
G01X818663Y113978D02*
X825907D01*
G01X838035Y101378D02*
X831735D01*
Y113978D01*
X838035D01*
G01X835515Y107888D02*
X831735D01*
G01X844020Y101378D02*
Y113978D01*
X847170D01*
X848430Y113348D01*
X849375Y112508D01*
X850163Y111248D01*
X850793Y109778D01*
X850950Y107678D01*
X850793Y105578D01*
X850163Y104108D01*
X849375Y102848D01*
X848430Y102008D01*
X847170Y101378D01*
X844020D01*
G01X781335Y126578D02*
Y139178D01*
X785115D01*
X786375Y138548D01*
X787320Y137078D01*
X787635Y135398D01*
X787320Y133718D01*
X786532Y132458D01*
X785115Y131828D01*
X781335D01*
G01X793935Y139178D02*
Y126578D01*
X800235D01*
G01X805747D02*
X809685Y139178D01*
X813623Y126578D01*
G01X812205Y130988D02*
X807165D01*
G01X822285Y139178D02*
Y126578D01*
G01X818663Y139178D02*
X825907D01*
G01X838035Y126578D02*
X831735D01*
Y139178D01*
X838035D01*
G01X835515Y133088D02*
X831735D01*
G01X844020Y126578D02*
Y139178D01*
X847170D01*
X848430Y138548D01*
X849375Y137708D01*
X850163Y136448D01*
X850793Y134978D01*
X850950Y132878D01*
X850793Y130778D01*
X850163Y129308D01*
X849375Y128048D01*
X848430Y127208D01*
X847170Y126578D01*
X844020D01*
G01X781335Y151778D02*
Y164378D01*
X785115D01*
X786375Y163748D01*
X787320Y162278D01*
X787635Y160598D01*
X787320Y158918D01*
X786532Y157658D01*
X785115Y157028D01*
X781335D01*
G01X793935Y164378D02*
Y151778D01*
X800235D01*
G01X805747D02*
X809685Y164378D01*
X813623Y151778D01*
G01X812205Y156188D02*
X807165D01*
G01X822285Y164378D02*
Y151778D01*
G01X818663Y164378D02*
X825907D01*
G01X838035Y151778D02*
X831735D01*
Y164378D01*
X838035D01*
G01X835515Y158288D02*
X831735D01*
G01X844020Y151778D02*
Y164378D01*
X847170D01*
X848430Y163748D01*
X849375Y162908D01*
X850163Y161648D01*
X850793Y160178D01*
X850950Y158078D01*
X850793Y155978D01*
X850163Y154508D01*
X849375Y153248D01*
X848430Y152408D01*
X847170Y151778D01*
X844020D01*
G01X781335Y176978D02*
Y189578D01*
X785115D01*
X786375Y188948D01*
X787320Y187478D01*
X787635Y185798D01*
X787320Y184118D01*
X786532Y182858D01*
X785115Y182228D01*
X781335D01*
G01X793935Y189578D02*
Y176978D01*
X800235D01*
G01X805747D02*
X809685Y189578D01*
X813623Y176978D01*
G01X812205Y181388D02*
X807165D01*
G01X822285Y189578D02*
Y176978D01*
G01X818663Y189578D02*
X825907D01*
G01X838035Y176978D02*
X831735D01*
Y189578D01*
X838035D01*
G01X835515Y183488D02*
X831735D01*
G01X844020Y176978D02*
Y189578D01*
X847170D01*
X848430Y188948D01*
X849375Y188108D01*
X850163Y186848D01*
X850793Y185378D01*
X850950Y183278D01*
X850793Y181178D01*
X850163Y179708D01*
X849375Y178448D01*
X848430Y177608D01*
X847170Y176978D01*
X844020D01*
G01X781335Y202178D02*
Y214778D01*
X785115D01*
X786375Y214148D01*
X787320Y212678D01*
X787635Y210998D01*
X787320Y209318D01*
X786532Y208058D01*
X785115Y207428D01*
X781335D01*
G01X793935Y214778D02*
Y202178D01*
X800235D01*
G01X805747D02*
X809685Y214778D01*
X813623Y202178D01*
G01X812205Y206588D02*
X807165D01*
G01X822285Y214778D02*
Y202178D01*
G01X818663Y214778D02*
X825907D01*
G01X838035Y202178D02*
X831735D01*
Y214778D01*
X838035D01*
G01X835515Y208688D02*
X831735D01*
G01X844020Y202178D02*
Y214778D01*
X847170D01*
X848430Y214148D01*
X849375Y213308D01*
X850163Y212048D01*
X850793Y210578D01*
X850950Y208478D01*
X850793Y206378D01*
X850163Y204908D01*
X849375Y203648D01*
X848430Y202808D01*
X847170Y202178D01*
X844020D01*
G01X910170Y-22102D02*
X911115Y-23572D01*
X912375Y-24412D01*
X913793Y-24622D01*
X915053Y-24412D01*
X916313Y-23362D01*
X917100Y-22102D01*
X917257Y-20842D01*
X916943Y-19372D01*
X915840Y-18322D01*
X914737Y-17902D01*
X913320D01*
G01X914737D02*
X915682Y-17272D01*
X916470Y-16222D01*
X916785Y-14962D01*
X916470Y-13702D01*
X915682Y-12652D01*
X914265Y-12022D01*
X912848Y-12232D01*
X911430Y-13072D01*
G01X926235Y-24622D02*
Y-12022D01*
X924345Y-14542D01*
G01Y-24622D02*
X928125D01*
G01X913635Y101378D02*
Y113978D01*
X911745Y111458D01*
G01Y101378D02*
X915525D01*
G01X926235Y113978D02*
X924975Y113558D01*
X924030Y112508D01*
X923400Y111248D01*
X922927Y109568D01*
X922770Y107678D01*
X922927Y105788D01*
X923400Y104108D01*
X924030Y102848D01*
X924975Y101798D01*
X926235Y101378D01*
X927495Y101798D01*
X928440Y102848D01*
X929070Y104108D01*
X929543Y105788D01*
X929700Y107678D01*
X929543Y109568D01*
X929070Y111248D01*
X928440Y112508D01*
X927495Y113558D01*
X926235Y113978D01*
G01X907335Y202178D02*
X906075Y202388D01*
X904973Y203228D01*
X904027Y204488D01*
X903397Y205958D01*
X903082Y207638D01*
Y209318D01*
X903397Y210998D01*
X904027Y212468D01*
X904973Y213728D01*
X906075Y214568D01*
X907335Y214778D01*
X908595Y214568D01*
X909697Y213728D01*
X910643Y212468D01*
X911273Y210998D01*
X911588Y209318D01*
Y207638D01*
X911273Y205958D01*
X910643Y204488D01*
X909697Y203228D01*
X908595Y202388D01*
X907335Y202178D01*
G01X908595Y205538D02*
X910485Y202178D01*
G01X919935Y214778D02*
Y202178D01*
G01X916313Y214778D02*
X923557D01*
G01X932535Y202178D02*
Y207848D01*
X929385Y214778D01*
G01X935685D02*
X932535Y207848D01*
G01X916470Y3098D02*
X917415Y1628D01*
X918675Y788D01*
X920093Y578D01*
X921353Y788D01*
X922613Y1838D01*
X923400Y3098D01*
X923557Y4358D01*
X923243Y5828D01*
X922140Y6878D01*
X921037Y7298D01*
X919620D01*
G01X921037D02*
X921982Y7928D01*
X922770Y8978D01*
X923085Y10238D01*
X922770Y11498D01*
X921982Y12548D01*
X920565Y13178D01*
X919148Y12968D01*
X917730Y12128D01*
G01X919935Y25778D02*
Y38378D01*
X918045Y35858D01*
G01Y25778D02*
X921825D01*
G01X919935Y50978D02*
Y63578D01*
X918045Y61058D01*
G01Y50978D02*
X921825D01*
G01X916942Y86678D02*
X917888Y87938D01*
X918990Y88568D01*
X920250Y88778D01*
X921825Y88358D01*
X922928Y87308D01*
X923243Y86048D01*
X923085Y84788D01*
X922455Y83738D01*
X919305Y81638D01*
X917888Y80168D01*
X916942Y78068D01*
X916627Y76178D01*
X923243D01*
G01X916942Y131828D02*
X918045Y133298D01*
X918990Y134138D01*
X920250Y134558D01*
X921353Y134138D01*
X922140Y133298D01*
X922770Y132038D01*
X922928Y130568D01*
X922770Y129308D01*
X922140Y128048D01*
X921195Y126998D01*
X920093Y126578D01*
X918833Y126998D01*
X917730Y128258D01*
X917100Y130148D01*
X916942Y132248D01*
X917257Y134978D01*
X917730Y136448D01*
X918517Y137918D01*
X919620Y138968D01*
X920722Y139178D01*
X921825Y138758D01*
X922613Y137708D01*
G01X916942Y162278D02*
X917888Y163538D01*
X918990Y164168D01*
X920250Y164378D01*
X921825Y163958D01*
X922928Y162908D01*
X923243Y161648D01*
X923085Y160388D01*
X922455Y159338D01*
X919305Y157238D01*
X917888Y155768D01*
X916942Y153668D01*
X916627Y151778D01*
X923243D01*
G01X916942Y182228D02*
X918045Y183698D01*
X918990Y184538D01*
X920250Y184958D01*
X921353Y184538D01*
X922140Y183698D01*
X922770Y182438D01*
X922928Y180968D01*
X922770Y179708D01*
X922140Y178448D01*
X921195Y177398D01*
X920093Y176978D01*
X918833Y177398D01*
X917730Y178658D01*
X917100Y180548D01*
X916942Y182648D01*
X917257Y185378D01*
X917730Y186848D01*
X918517Y188318D01*
X919620Y189368D01*
X920722Y189578D01*
X921825Y189158D01*
X922613Y188108D01*
M02*
