G04 ================== begin FILE IDENTIFICATION RECORD ==================*
G04 Layout Name:  pc-1162 ganges dcdc card.brd*
G04 Film Name:    SSBOT*
G04 File Format:  Gerber RS274X*
G04 File Origin:  Cadence Allegro 17.4-S029*
G04 Origin Date:  Tue Aug  1 17:55:15 2023*
G04 *
G04 Layer:  BOARD GEOMETRY/DESIGN_OUTLINE*
G04 Layer:  BOARD GEOMETRY/SILKSCREEN_BOTTOM*
G04 Layer:  MANUFACTURING/PHOTOPLOT_OUTLINE*
G04 Layer:  REF DES/SILKSCREEN_BOTTOM*
G04 Layer:  PACKAGE GEOMETRY/SILKSCREEN_BOTTOM*
G04 Layer:  BOARD GEOMETRY/OUTLINE*
G04 *
G04 Offset:    (0.00 0.00)*
G04 Mirror:    No*
G04 Mode:      Positive*
G04 Rotation:  0*
G04 FullContactRelief:  No*
G04 UndefLineWidth:     3.90*
G04 ================== end FILE IDENTIFICATION RECORD ====================*
%FSLAX25Y25*MOIN*%
%IR0*IPPOS*OFA0.00000B0.00000*MIA0B0*SFA1.00000B1.00000*%
%ADD10C,.0039*%
%ADD11C,.006*%
G75*
%LPD*%
G75*
G54D10*
G01X0Y0D02*
Y173228D01*
X224409D01*
Y0D01*
X0D01*
G01D02*
Y173228D01*
X224409D01*
Y0D01*
X0D01*
G01X36083Y41531D02*
Y27201D01*
X28878D01*
Y41531D01*
X36083D01*
G01X37496Y32724D02*
Y48866D01*
X59149D01*
Y32724D01*
X37496D01*
G01X58841Y59900D02*
X44393D01*
Y67104D01*
X58841D01*
Y59900D01*
G01Y68400D02*
X44393D01*
Y75604D01*
X58841D01*
Y68400D01*
G01X54980Y107614D02*
Y105645D01*
X40020D01*
Y107614D01*
X54980D01*
G01Y127299D02*
Y93047D01*
X40020D01*
Y127299D01*
X54980D01*
G01X77980Y17114D02*
Y15145D01*
X63020D01*
Y17114D01*
X77980D01*
G01Y36799D02*
Y2547D01*
X63020D01*
Y36799D01*
X77980D01*
G01X57611Y34683D02*
G03I-1001J0D01*
G01X79841Y40400D02*
X65393D01*
Y47604D01*
X79841D01*
Y40400D01*
G01Y49900D02*
X65393D01*
Y57104D01*
X79841D01*
Y49900D01*
G01X101575Y130708D02*
X68504D01*
X67717D01*
Y144881D01*
X68504D01*
X101575D01*
Y130708D01*
G01X124247Y75258D02*
X101019D01*
Y84706D01*
X124247D01*
Y75258D01*
G01X123549Y92727D02*
X109219D01*
Y99932D01*
X123549D01*
Y92727D01*
G01X168110Y152755D02*
X201181D01*
X201969D01*
Y138582D01*
X201181D01*
X168110D01*
Y152755D01*
G54D11*
G01X25042Y41189D02*
X25342Y41439D01*
X25692Y41606D01*
X26092D01*
X26542Y41356D01*
X26892Y40939D01*
X27142Y40439D01*
X27342Y39606D01*
X27392Y38856D01*
X27292Y38106D01*
X27142Y37606D01*
X26842Y37106D01*
X26492Y36773D01*
X26142Y36606D01*
X25792D01*
X25442Y36773D01*
X25142Y37023D01*
X24892Y37356D01*
G01X22142Y36606D02*
X21792Y36689D01*
X21392Y36939D01*
X21142Y37356D01*
X21042Y37939D01*
X21142Y38523D01*
X21442Y39023D01*
X21892Y39273D01*
X22392D01*
X22692Y39439D01*
X22942Y39856D01*
X23042Y40439D01*
X22892Y41023D01*
X22542Y41439D01*
X22142Y41606D01*
X21742Y41439D01*
X21392Y41023D01*
X21242Y40439D01*
X21342Y39856D01*
X21592Y39439D01*
X21892Y39273D01*
X22392D01*
X22842Y39023D01*
X23142Y38523D01*
X23242Y37939D01*
X23142Y37356D01*
X22892Y36939D01*
X22492Y36689D01*
X22142Y36606D01*
G01X45931Y21331D02*
Y17748D01*
X45731Y16998D01*
X45331Y16498D01*
X44831Y16331D01*
X44331Y16498D01*
X43931Y16998D01*
X43731Y17748D01*
Y21331D01*
G01X40831Y16331D02*
Y21331D01*
X41431Y20331D01*
G01Y16331D02*
X40231D01*
G01X42952Y61089D02*
Y66089D01*
X41702D01*
X41302Y65839D01*
X41052Y65506D01*
X40952Y64839D01*
X41052Y64172D01*
X41352Y63756D01*
X41702Y63506D01*
X42952D01*
G01X41702D02*
X40952Y61089D01*
G01X37352D02*
Y66089D01*
X39202Y62506D01*
X36702D01*
G01X42452Y69589D02*
Y74589D01*
X41202D01*
X40802Y74339D01*
X40552Y74006D01*
X40452Y73339D01*
X40552Y72672D01*
X40852Y72256D01*
X41202Y72006D01*
X42452D01*
G01X41202D02*
X40452Y69589D01*
G01X38552Y70589D02*
X38252Y70006D01*
X37852Y69672D01*
X37402Y69589D01*
X37002Y69672D01*
X36602Y70089D01*
X36352Y70589D01*
X36302Y71089D01*
X36402Y71672D01*
X36752Y72089D01*
X37102Y72256D01*
X37552D01*
G01X37102D02*
X36802Y72506D01*
X36552Y72922D01*
X36452Y73422D01*
X36552Y73922D01*
X36802Y74339D01*
X37252Y74589D01*
X37702Y74506D01*
X38152Y74172D01*
G01X47408Y129499D02*
Y128299D01*
G01X46325Y128949D02*
X48492D01*
G01X70408Y38999D02*
Y37799D01*
G01X69325Y38449D02*
X71492D01*
G01X63600Y106720D02*
Y111720D01*
X62600D01*
X62200Y111470D01*
X61900Y111137D01*
X61650Y110637D01*
X61450Y110053D01*
X61400Y109220D01*
X61450Y108387D01*
X61650Y107803D01*
X61900Y107303D01*
X62200Y106970D01*
X62600Y106720D01*
X63600D01*
G01X59600Y107720D02*
X59300Y107137D01*
X58900Y106803D01*
X58450Y106720D01*
X58050Y106803D01*
X57650Y107220D01*
X57400Y107720D01*
X57350Y108220D01*
X57450Y108803D01*
X57800Y109220D01*
X58150Y109387D01*
X58600D01*
G01X58150D02*
X57850Y109637D01*
X57600Y110053D01*
X57500Y110553D01*
X57600Y111053D01*
X57850Y111470D01*
X58300Y111720D01*
X58750Y111637D01*
X59200Y111303D01*
G01X72303Y148795D02*
X67303D01*
X68303Y149395D01*
G01X72303D02*
Y148195D01*
G01X64831Y138527D02*
X64581Y138027D01*
X64281Y137694D01*
X63931Y137527D01*
X63531Y137694D01*
X63231Y138027D01*
X62931Y138527D01*
X62831Y139194D01*
Y142527D01*
G01X60781Y141694D02*
X60481Y142194D01*
X60131Y142444D01*
X59731Y142527D01*
X59231Y142360D01*
X58881Y141944D01*
X58781Y141444D01*
X58831Y140944D01*
X59031Y140527D01*
X60031Y139694D01*
X60481Y139110D01*
X60781Y138277D01*
X60881Y137527D01*
X58781D01*
G01X86100Y16720D02*
Y21720D01*
X85100D01*
X84700Y21470D01*
X84400Y21137D01*
X84150Y20637D01*
X83950Y20053D01*
X83900Y19220D01*
X83950Y18387D01*
X84150Y17803D01*
X84400Y17303D01*
X84700Y16970D01*
X85100Y16720D01*
X86100D01*
G01X80400D02*
Y21720D01*
X82250Y18137D01*
X79750D01*
G01X86952Y42089D02*
Y47089D01*
X85702D01*
X85302Y46839D01*
X85052Y46506D01*
X84952Y45839D01*
X85052Y45172D01*
X85352Y44756D01*
X85702Y44506D01*
X86952D01*
G01X85702D02*
X84952Y42089D01*
G01X82902Y44172D02*
X82552Y44756D01*
X82252Y45089D01*
X81852Y45256D01*
X81502Y45089D01*
X81252Y44756D01*
X81052Y44256D01*
X81002Y43672D01*
X81052Y43172D01*
X81252Y42672D01*
X81552Y42256D01*
X81902Y42089D01*
X82302Y42256D01*
X82652Y42756D01*
X82852Y43506D01*
X82902Y44339D01*
X82802Y45422D01*
X82652Y46006D01*
X82402Y46589D01*
X82052Y47006D01*
X81702Y47089D01*
X81352Y46922D01*
X81102Y46506D01*
G01X79952Y58589D02*
Y63589D01*
X78702D01*
X78302Y63339D01*
X78052Y63006D01*
X77952Y62339D01*
X78052Y61672D01*
X78352Y61256D01*
X78702Y61006D01*
X79952D01*
G01X78702D02*
X77952Y58589D01*
G01X76052Y59339D02*
X75752Y58922D01*
X75402Y58672D01*
X74952Y58589D01*
X74502Y58756D01*
X74152Y59089D01*
X73902Y59672D01*
X73852Y60339D01*
X73952Y61006D01*
X74202Y61422D01*
X74552Y61756D01*
X74902Y61839D01*
X75252Y61756D01*
X75702Y61422D01*
X75552Y63589D01*
X74202D01*
G01X111060Y108999D02*
X111360Y109249D01*
X111710Y109416D01*
X112110D01*
X112560Y109166D01*
X112910Y108749D01*
X113160Y108249D01*
X113360Y107416D01*
X113410Y106666D01*
X113310Y105916D01*
X113160Y105416D01*
X112860Y104916D01*
X112510Y104583D01*
X112160Y104416D01*
X111810D01*
X111460Y104583D01*
X111160Y104833D01*
X110910Y105166D01*
G01X108260Y104416D02*
X108160Y105499D01*
X108010Y106416D01*
X107810Y107249D01*
X107560Y108166D01*
X107160Y109416D01*
X109160D01*
G01X104512Y148812D02*
X105095Y148512D01*
X105429Y148112D01*
X105512Y147662D01*
X105429Y147262D01*
X105012Y146862D01*
X104512Y146612D01*
X104012Y146562D01*
X103429Y146662D01*
X103012Y147012D01*
X102845Y147362D01*
Y147812D01*
G01Y147362D02*
X102595Y147062D01*
X102179Y146812D01*
X101679Y146712D01*
X101179Y146812D01*
X100762Y147062D01*
X100512Y147512D01*
X100595Y147962D01*
X100929Y148412D01*
G01X124509Y67422D02*
Y72422D01*
X122609D01*
G01X123309Y70005D02*
X124509D01*
G01X119159Y70089D02*
X118959Y70339D01*
X118809Y70755D01*
X118709Y71339D01*
X118809Y71839D01*
X119009Y72172D01*
X119359Y72422D01*
X120709D01*
Y67422D01*
X119059D01*
X118709Y67755D01*
X118509Y68255D01*
X118409Y68839D01*
X118509Y69422D01*
X118809Y69922D01*
X119159Y70089D01*
X120709D01*
G01X116509Y71589D02*
X116209Y72089D01*
X115859Y72339D01*
X115459Y72422D01*
X114959Y72255D01*
X114609Y71839D01*
X114509Y71339D01*
X114559Y70839D01*
X114759Y70422D01*
X115759Y69589D01*
X116209Y69005D01*
X116509Y68172D01*
X116609Y67422D01*
X114509D01*
G01X165173Y134651D02*
X164590Y134951D01*
X164256Y135351D01*
X164173Y135801D01*
X164256Y136201D01*
X164673Y136601D01*
X165173Y136851D01*
X165673Y136901D01*
X166256Y136801D01*
X166673Y136451D01*
X166840Y136101D01*
Y135651D01*
G01Y136101D02*
X167090Y136401D01*
X167506Y136651D01*
X168006Y136751D01*
X168506Y136651D01*
X168923Y136401D01*
X169173Y135951D01*
X169090Y135501D01*
X168756Y135051D01*
G01X165366Y145090D02*
X165116Y144590D01*
X164816Y144257D01*
X164466Y144090D01*
X164066Y144257D01*
X163766Y144590D01*
X163466Y145090D01*
X163366Y145757D01*
Y149090D01*
G01X160366Y144090D02*
Y149090D01*
X160966Y148090D01*
G01Y144090D02*
X159766D01*
G01X197382Y134669D02*
X202382D01*
X201382Y134069D01*
G01X197382D02*
Y135269D01*
M02*
