G04 ================== begin FILE IDENTIFICATION RECORD ==================*
G04 Layout Name:  pc-1162 ganges dcdc card.brd*
G04 Film Name:    SSTOP*
G04 File Format:  Gerber RS274X*
G04 File Origin:  Cadence Allegro 17.4-S029*
G04 Origin Date:  Tue Aug  1 17:55:15 2023*
G04 *
G04 Layer:  BOARD GEOMETRY/DESIGN_OUTLINE*
G04 Layer:  MANUFACTURING/PHOTOPLOT_OUTLINE*
G04 Layer:  REF DES/SILKSCREEN_TOP*
G04 Layer:  PACKAGE GEOMETRY/SILKSCREEN_TOP*
G04 Layer:  BOARD GEOMETRY/SILKSCREEN_TOP*
G04 Layer:  BOARD GEOMETRY/OUTLINE*
G04 *
G04 Offset:    (0.00 0.00)*
G04 Mirror:    No*
G04 Mode:      Positive*
G04 Rotation:  0*
G04 FullContactRelief:  No*
G04 UndefLineWidth:     3.90*
G04 ================== end FILE IDENTIFICATION RECORD ====================*
%FSLAX25Y25*MOIN*%
%IR0*IPPOS*OFA0.00000B0.00000*MIA0B0*SFA1.00000B1.00000*%
%ADD10C,.01322*%
%ADD11C,.0039*%
%ADD12C,.006*%
G75*
%LPD*%
G75*
G54D10*
G01X15500Y29312D02*
X4480D01*
Y32460D01*
X5031Y33509D01*
X6317Y34296D01*
X7786Y34558D01*
X9255Y34296D01*
X10357Y33640D01*
X10909Y32460D01*
Y29312D01*
G01X5398Y44261D02*
X4847Y43474D01*
X4480Y42556D01*
Y41506D01*
X5031Y40326D01*
X5949Y39408D01*
X7051Y38752D01*
X8888Y38227D01*
X10541Y38096D01*
X12194Y38358D01*
X13296Y38752D01*
X14398Y39539D01*
X15133Y40457D01*
X15500Y41375D01*
Y42293D01*
X15133Y43211D01*
X14582Y43998D01*
X13847Y44654D01*
G01X11827Y49110D02*
Y52520D01*
G01X15500Y60255D02*
X4480D01*
X6684Y58681D01*
G01X15500D02*
Y61829D01*
G01Y69695D02*
X4480D01*
X6684Y68121D01*
G01X15500D02*
Y71269D01*
G01X10909Y76643D02*
X9623Y77561D01*
X8888Y78348D01*
X8521Y79397D01*
X8888Y80316D01*
X9623Y80971D01*
X10725Y81496D01*
X12010Y81627D01*
X13113Y81496D01*
X14215Y80971D01*
X15133Y80184D01*
X15500Y79266D01*
X15133Y78217D01*
X14031Y77299D01*
X12378Y76774D01*
X10541Y76643D01*
X8154Y76905D01*
X6867Y77299D01*
X5582Y77954D01*
X4664Y78873D01*
X4480Y79791D01*
X4847Y80709D01*
X5766Y81365D01*
G01X6317Y86083D02*
X5215Y86870D01*
X4664Y87788D01*
X4480Y88837D01*
X4847Y90149D01*
X5766Y91067D01*
X6867Y91330D01*
X7970Y91198D01*
X8888Y90674D01*
X10725Y88050D01*
X12010Y86870D01*
X13847Y86083D01*
X15500Y85820D01*
Y91330D01*
G01X31000Y46049D02*
X19980D01*
Y48673D01*
X20531Y49722D01*
X21266Y50509D01*
X22367Y51165D01*
X23654Y51690D01*
X25490Y51821D01*
X27327Y51690D01*
X28613Y51165D01*
X29715Y50509D01*
X30449Y49722D01*
X31000Y48673D01*
Y46049D01*
G01X20898Y61261D02*
X20347Y60474D01*
X19980Y59556D01*
Y58506D01*
X20531Y57326D01*
X21449Y56408D01*
X22551Y55752D01*
X24388Y55227D01*
X26041Y55096D01*
X27694Y55358D01*
X28796Y55752D01*
X29898Y56539D01*
X30633Y57457D01*
X31000Y58375D01*
Y59293D01*
X30633Y60211D01*
X30082Y60998D01*
X29347Y61654D01*
G01X31000Y64929D02*
X19980D01*
Y67553D01*
X20531Y68602D01*
X21266Y69389D01*
X22367Y70045D01*
X23654Y70570D01*
X25490Y70701D01*
X27327Y70570D01*
X28613Y70045D01*
X29715Y69389D01*
X30449Y68602D01*
X31000Y67553D01*
Y64929D01*
G01X20898Y80141D02*
X20347Y79354D01*
X19980Y78436D01*
Y77386D01*
X20531Y76206D01*
X21449Y75288D01*
X22551Y74632D01*
X24388Y74107D01*
X26041Y73976D01*
X27694Y74238D01*
X28796Y74632D01*
X29898Y75419D01*
X30633Y76337D01*
X31000Y77255D01*
Y78173D01*
X30633Y79091D01*
X30082Y79878D01*
X29347Y80534D01*
G01X20898Y99021D02*
X20347Y98234D01*
X19980Y97316D01*
Y96266D01*
X20531Y95086D01*
X21449Y94168D01*
X22551Y93512D01*
X24388Y92987D01*
X26041Y92856D01*
X27694Y93118D01*
X28796Y93512D01*
X29898Y94299D01*
X30633Y95217D01*
X31000Y96135D01*
Y97053D01*
X30633Y97971D01*
X30082Y98758D01*
X29347Y99414D01*
G01X31000Y102296D02*
X19980Y105575D01*
X31000Y108854D01*
G01X27143Y107674D02*
Y103476D01*
G01X31000Y112392D02*
X19980D01*
Y115671D01*
X20531Y116720D01*
X21266Y117376D01*
X22735Y117638D01*
X24204Y117376D01*
X25123Y116589D01*
X25674Y115671D01*
Y112392D01*
G01Y115671D02*
X31000Y117638D01*
G01Y121569D02*
X19980D01*
Y124193D01*
X20531Y125242D01*
X21266Y126029D01*
X22367Y126685D01*
X23654Y127210D01*
X25490Y127341D01*
X27327Y127210D01*
X28613Y126685D01*
X29715Y126029D01*
X30449Y125242D01*
X31000Y124193D01*
Y121569D01*
G54D11*
G01X0Y0D02*
Y173228D01*
X224409D01*
Y0D01*
X0D01*
G01D02*
Y173228D01*
X224409D01*
Y0D01*
X0D01*
G01X-15386Y160394D02*
X20614D01*
Y124394D01*
X-15386D01*
Y154894D01*
Y160394D01*
G01X36892Y86199D02*
X38412D01*
G01X37588Y87282D02*
Y85115D01*
G01X74047Y86500D02*
G03I-18673J0D01*
G01X67031Y114111D02*
X86716D01*
G03Y127890I0J6890D01*
G01X67031D01*
G03Y114111I0J-6889D01*
G01X124303Y27842D02*
G03I-24803J0D01*
G01X114155Y88564D02*
G03I-18673J0D01*
G01X118832Y52586D02*
X125525D01*
Y52192D01*
X118832D01*
Y52586D01*
G01X118399Y60341D02*
Y45893D01*
X125604D01*
Y60341D01*
X118399D01*
G01X118400Y76341D02*
Y61893D01*
X125604D01*
Y76341D01*
X118400D01*
G01X154120Y91518D02*
G03I-10812J0D01*
G01X145063Y3276D02*
Y12724D01*
X168291D01*
Y3276D01*
X145063D01*
G01X145951Y15227D02*
X160281D01*
Y22432D01*
X145951D01*
Y15227D01*
G01X164912Y35690D02*
G03I-10812J0D01*
G01X143678Y49648D02*
X194072D01*
Y76419D01*
X143678D01*
Y49648D01*
G01X175100Y18659D02*
Y33107D01*
X167896D01*
Y18659D01*
X175100D01*
G01X184668Y34914D02*
X177975D01*
Y35308D01*
X184668D01*
Y34914D01*
G01X185100Y27159D02*
Y41607D01*
X177896D01*
Y27159D01*
X185100D01*
G01X194737Y115018D02*
G03I-18673J0D01*
G54D12*
G01X10500Y164000D02*
X10750Y163500D01*
X11050Y163167D01*
X11400Y163000D01*
X11800Y163167D01*
X12100Y163500D01*
X12400Y164000D01*
X12500Y164667D01*
Y168000D01*
G01X14400Y164000D02*
X14700Y163417D01*
X15100Y163083D01*
X15550Y163000D01*
X15950Y163083D01*
X16350Y163500D01*
X16600Y164000D01*
X16650Y164500D01*
X16550Y165083D01*
X16200Y165500D01*
X15850Y165667D01*
X15400D01*
G01X15850D02*
X16150Y165917D01*
X16400Y166333D01*
X16500Y166833D01*
X16400Y167333D01*
X16150Y167750D01*
X15700Y168000D01*
X15250Y167917D01*
X14800Y167583D01*
G01X71100Y107583D02*
X70800Y107833D01*
X70450Y108000D01*
X70050D01*
X69600Y107750D01*
X69250Y107333D01*
X69000Y106833D01*
X68800Y106000D01*
X68750Y105250D01*
X68850Y104500D01*
X69000Y104000D01*
X69300Y103500D01*
X69650Y103167D01*
X70000Y103000D01*
X70350D01*
X70700Y103167D01*
X71000Y103417D01*
X71250Y103750D01*
G01X74600Y103000D02*
Y108000D01*
X72750Y104417D01*
X75250D01*
G01X48622Y120587D02*
Y125587D01*
X49872D01*
X50272Y125337D01*
X50522Y125004D01*
X50622Y124337D01*
X50522Y123670D01*
X50222Y123254D01*
X49872Y123004D01*
X48622D01*
G01X49872D02*
X50622Y120587D01*
G01X53622Y125587D02*
Y120587D01*
G01X52472Y125587D02*
X54772D01*
G01X57622Y120587D02*
Y125587D01*
X57022Y124587D01*
G01Y120587D02*
X58222D01*
G01X90676Y40349D02*
X89476D01*
G01X90126Y39266D02*
Y41433D01*
G01X111960Y55388D02*
Y60388D01*
X112960D01*
X113360Y60138D01*
X113660Y59805D01*
X113910Y59305D01*
X114110Y58721D01*
X114160Y57888D01*
X114110Y57055D01*
X113910Y56471D01*
X113660Y55971D01*
X113360Y55638D01*
X112960Y55388D01*
X111960D01*
G01X117060D02*
Y60388D01*
X116460Y59388D01*
G01Y55388D02*
X117660D01*
G01X111548Y67089D02*
Y72089D01*
X112798D01*
X113198Y71839D01*
X113448Y71506D01*
X113548Y70839D01*
X113448Y70172D01*
X113148Y69756D01*
X112798Y69506D01*
X111548D01*
G01X112798D02*
X113548Y67089D01*
G01X116548D02*
Y72089D01*
X115948Y71089D01*
G01Y67089D02*
X117148D01*
G01X96492Y59217D02*
Y54217D01*
X98492D01*
G01X101492D02*
Y59217D01*
X100892Y58217D01*
G01Y54217D02*
X102092D01*
G01X95784Y69829D02*
Y71029D01*
G01X94701Y70379D02*
X96868D01*
G01X112542Y107187D02*
X112242Y107437D01*
X111892Y107604D01*
X111492D01*
X111042Y107354D01*
X110692Y106937D01*
X110442Y106437D01*
X110242Y105604D01*
X110192Y104854D01*
X110292Y104104D01*
X110442Y103604D01*
X110742Y103104D01*
X111092Y102771D01*
X111442Y102604D01*
X111792D01*
X112142Y102771D01*
X112442Y103021D01*
X112692Y103354D01*
G01X114342Y103604D02*
X114642Y103021D01*
X115042Y102687D01*
X115492Y102604D01*
X115892Y102687D01*
X116292Y103104D01*
X116542Y103604D01*
X116592Y104104D01*
X116492Y104687D01*
X116142Y105104D01*
X115792Y105271D01*
X115342D01*
G01X115792D02*
X116092Y105521D01*
X116342Y105937D01*
X116442Y106437D01*
X116342Y106937D01*
X116092Y107354D01*
X115642Y107604D01*
X115192Y107521D01*
X114742Y107187D01*
G01X132751Y4996D02*
Y9996D01*
X134651D01*
G01X133951Y7579D02*
X132751D01*
G01X138101Y7663D02*
X138301Y7913D01*
X138451Y8329D01*
X138551Y8913D01*
X138451Y9413D01*
X138251Y9746D01*
X137901Y9996D01*
X136551D01*
Y4996D01*
X138201D01*
X138551Y5329D01*
X138751Y5829D01*
X138851Y6413D01*
X138751Y6996D01*
X138451Y7496D01*
X138101Y7663D01*
X136551D01*
G01X141701Y4996D02*
Y9996D01*
X141101Y8996D01*
G01Y4996D02*
X142301D01*
G01X136914Y39152D02*
X136614Y39402D01*
X136264Y39569D01*
X135864D01*
X135414Y39319D01*
X135064Y38902D01*
X134814Y38402D01*
X134614Y37569D01*
X134564Y36819D01*
X134664Y36069D01*
X134814Y35569D01*
X135114Y35069D01*
X135464Y34736D01*
X135814Y34569D01*
X136164D01*
X136514Y34736D01*
X136814Y34986D01*
X137064Y35319D01*
G01X138714D02*
X139014Y34902D01*
X139364Y34652D01*
X139814Y34569D01*
X140264Y34736D01*
X140614Y35069D01*
X140864Y35652D01*
X140914Y36319D01*
X140814Y36986D01*
X140564Y37402D01*
X140214Y37736D01*
X139864Y37819D01*
X139514Y37736D01*
X139064Y37402D01*
X139214Y39569D01*
X140564D01*
G01X135703Y67478D02*
X135303Y67561D01*
X134953Y67895D01*
X134653Y68395D01*
X134453Y68978D01*
X134353Y69645D01*
Y70311D01*
X134453Y70978D01*
X134653Y71561D01*
X134953Y72061D01*
X135303Y72395D01*
X135703Y72478D01*
X136103Y72395D01*
X136453Y72061D01*
X136753Y71561D01*
X136953Y70978D01*
X137053Y70311D01*
Y69645D01*
X136953Y68978D01*
X136753Y68395D01*
X136453Y67895D01*
X136103Y67561D01*
X135703Y67478D01*
G01X136103Y68811D02*
X136703Y67478D01*
G01X139703D02*
Y72478D01*
X139103Y71478D01*
G01Y67478D02*
X140303D01*
G01X135920Y106316D02*
Y105116D01*
G01X137003Y105766D02*
X134836D01*
G01X126086Y95860D02*
X125786Y96110D01*
X125436Y96277D01*
X125036D01*
X124586Y96027D01*
X124236Y95610D01*
X123986Y95110D01*
X123786Y94277D01*
X123736Y93527D01*
X123836Y92777D01*
X123986Y92277D01*
X124286Y91777D01*
X124636Y91444D01*
X124986Y91277D01*
X125336D01*
X125686Y91444D01*
X125986Y91694D01*
X126236Y92027D01*
G01X128036Y95444D02*
X128336Y95944D01*
X128686Y96194D01*
X129086Y96277D01*
X129586Y96110D01*
X129936Y95694D01*
X130036Y95194D01*
X129986Y94694D01*
X129786Y94277D01*
X128786Y93444D01*
X128336Y92860D01*
X128036Y92027D01*
X127936Y91277D01*
X130036D01*
G01X138440Y21499D02*
X138140Y21749D01*
X137790Y21916D01*
X137390D01*
X136940Y21666D01*
X136590Y21249D01*
X136340Y20749D01*
X136140Y19916D01*
X136090Y19166D01*
X136190Y18416D01*
X136340Y17916D01*
X136640Y17416D01*
X136990Y17083D01*
X137340Y16916D01*
X137690D01*
X138040Y17083D01*
X138340Y17333D01*
X138590Y17666D01*
G01X140390Y18999D02*
X140740Y19583D01*
X141040Y19916D01*
X141440Y20083D01*
X141790Y19916D01*
X142040Y19583D01*
X142240Y19083D01*
X142290Y18499D01*
X142240Y17999D01*
X142040Y17499D01*
X141740Y17083D01*
X141390Y16916D01*
X140990Y17083D01*
X140640Y17583D01*
X140440Y18333D01*
X140390Y19166D01*
X140490Y20249D01*
X140640Y20833D01*
X140890Y21416D01*
X141240Y21833D01*
X141590Y21916D01*
X141940Y21749D01*
X142190Y21333D01*
G01X146712Y50488D02*
Y49288D01*
G01X147795Y49938D02*
X145628D01*
G01X157329Y114716D02*
X158529D01*
G01X157879Y115799D02*
Y113632D01*
G01X153542Y127187D02*
X153242Y127437D01*
X152892Y127604D01*
X152492D01*
X152042Y127354D01*
X151692Y126937D01*
X151442Y126437D01*
X151242Y125604D01*
X151192Y124854D01*
X151292Y124104D01*
X151442Y123604D01*
X151742Y123104D01*
X152092Y122771D01*
X152442Y122604D01*
X152792D01*
X153142Y122771D01*
X153442Y123021D01*
X153692Y123354D01*
G01X156442Y122604D02*
Y127604D01*
X155842Y126604D01*
G01Y122604D02*
X157042D01*
G01X169548Y12089D02*
Y17089D01*
X170798D01*
X171198Y16839D01*
X171448Y16506D01*
X171548Y15839D01*
X171448Y15172D01*
X171148Y14756D01*
X170798Y14506D01*
X169548D01*
G01X170798D02*
X171548Y12089D01*
G01X173598Y16256D02*
X173898Y16756D01*
X174248Y17006D01*
X174648Y17089D01*
X175148Y16922D01*
X175498Y16506D01*
X175598Y16006D01*
X175548Y15506D01*
X175348Y15089D01*
X174348Y14256D01*
X173898Y13672D01*
X173598Y12839D01*
X173498Y12089D01*
X175598D01*
G01X186696Y29892D02*
Y34892D01*
X187696D01*
X188096Y34642D01*
X188396Y34309D01*
X188646Y33809D01*
X188846Y33225D01*
X188896Y32392D01*
X188846Y31559D01*
X188646Y30975D01*
X188396Y30475D01*
X188096Y30142D01*
X187696Y29892D01*
X186696D01*
G01X190846Y34059D02*
X191146Y34559D01*
X191496Y34809D01*
X191896Y34892D01*
X192396Y34725D01*
X192746Y34309D01*
X192846Y33809D01*
X192796Y33309D01*
X192596Y32892D01*
X191596Y32059D01*
X191146Y31475D01*
X190846Y30642D01*
X190746Y29892D01*
X192846D01*
M02*
