G04*
G04 #@! TF.GenerationSoftware,Altium Limited,Altium Designer,21.4.1 (30)*
G04*
G04 Layer_Color=16711935*
%FSLAX44Y44*%
%MOMM*%
G71*
G04*
G04 #@! TF.SameCoordinates,34008E12-B950-4015-972C-27682CB53F9E*
G04*
G04*
G04 #@! TF.FilePolarity,Positive*
G04*
G01*
G75*
%ADD10C,0.2000*%
D10*
X528320Y1163320D02*
Y1347470D01*
X575357Y1326542D02*
X608320D01*
X575310Y1326589D02*
Y1347470D01*
X528320D02*
X575310D01*
X150000Y1250000D02*
Y1400000D01*
X260000Y0D02*
Y150000D01*
X510000D01*
Y0D02*
Y150000D01*
Y-0D02*
X1160000Y0D01*
X440000Y1400000D02*
X1160000D01*
X350000Y1250000D02*
Y1320000D01*
X440000D01*
Y1400000D01*
X150000Y1250000D02*
X350000Y1250000D01*
X570160Y857758D02*
X610160D01*
X570160Y692150D02*
X610160D01*
Y857758D01*
X570160Y692150D02*
Y857758D01*
Y216776D02*
Y377190D01*
X610160Y216776D02*
Y377190D01*
X570160Y216776D02*
X610160D01*
X570160Y377190D02*
X610160D01*
X608320Y1163320D02*
Y1326542D01*
X528320Y1163320D02*
X608320D01*
X0Y0D02*
X260000D01*
X0Y1400000D02*
X150000D01*
X1160000Y0D02*
Y1400000D01*
X0Y0D02*
Y1400000D01*
M02*
