G04*
G04 #@! TF.GenerationSoftware,Altium Limited,Altium Designer,21.4.1 (30)*
G04*
G04 Layer_Color=8388736*
%FSLAX44Y44*%
%MOMM*%
G71*
G04*
G04 #@! TF.SameCoordinates,34008E12-B950-4015-972C-27682CB53F9E*
G04*
G04*
G04 #@! TF.FilePolarity,Negative*
G04*
G01*
G75*
G04:AMPARAMS|DCode=27|XSize=0.9mm|YSize=0.95mm|CornerRadius=0.1125mm|HoleSize=0mm|Usage=FLASHONLY|Rotation=90.000|XOffset=0mm|YOffset=0mm|HoleType=Round|Shape=RoundedRectangle|*
%AMROUNDEDRECTD27*
21,1,0.9000,0.7250,0,0,90.0*
21,1,0.6750,0.9500,0,0,90.0*
1,1,0.2250,0.3625,0.3375*
1,1,0.2250,0.3625,-0.3375*
1,1,0.2250,-0.3625,-0.3375*
1,1,0.2250,-0.3625,0.3375*
%
%ADD27ROUNDEDRECTD27*%
G04:AMPARAMS|DCode=31|XSize=0.9mm|YSize=0.95mm|CornerRadius=0.1125mm|HoleSize=0mm|Usage=FLASHONLY|Rotation=0.000|XOffset=0mm|YOffset=0mm|HoleType=Round|Shape=RoundedRectangle|*
%AMROUNDEDRECTD31*
21,1,0.9000,0.7250,0,0,0.0*
21,1,0.6750,0.9500,0,0,0.0*
1,1,0.2250,0.3375,-0.3625*
1,1,0.2250,-0.3375,-0.3625*
1,1,0.2250,-0.3375,0.3625*
1,1,0.2250,0.3375,0.3625*
%
%ADD31ROUNDEDRECTD31*%
G04:AMPARAMS|DCode=32|XSize=1.15mm|YSize=1.8mm|CornerRadius=0.1265mm|HoleSize=0mm|Usage=FLASHONLY|Rotation=180.000|XOffset=0mm|YOffset=0mm|HoleType=Round|Shape=RoundedRectangle|*
%AMROUNDEDRECTD32*
21,1,1.1500,1.5470,0,0,180.0*
21,1,0.8970,1.8000,0,0,180.0*
1,1,0.2530,-0.4485,0.7735*
1,1,0.2530,0.4485,0.7735*
1,1,0.2530,0.4485,-0.7735*
1,1,0.2530,-0.4485,-0.7735*
%
%ADD32ROUNDEDRECTD32*%
G04:AMPARAMS|DCode=33|XSize=1.15mm|YSize=1.8mm|CornerRadius=0.1265mm|HoleSize=0mm|Usage=FLASHONLY|Rotation=90.000|XOffset=0mm|YOffset=0mm|HoleType=Round|Shape=RoundedRectangle|*
%AMROUNDEDRECTD33*
21,1,1.1500,1.5470,0,0,90.0*
21,1,0.8970,1.8000,0,0,90.0*
1,1,0.2530,0.7735,0.4485*
1,1,0.2530,0.7735,-0.4485*
1,1,0.2530,-0.7735,-0.4485*
1,1,0.2530,-0.7735,0.4485*
%
%ADD33ROUNDEDRECTD33*%
G04:AMPARAMS|DCode=47|XSize=0.875mm|YSize=0.95mm|CornerRadius=0.1094mm|HoleSize=0mm|Usage=FLASHONLY|Rotation=180.000|XOffset=0mm|YOffset=0mm|HoleType=Round|Shape=RoundedRectangle|*
%AMROUNDEDRECTD47*
21,1,0.8750,0.7313,0,0,180.0*
21,1,0.6563,0.9500,0,0,180.0*
1,1,0.2188,-0.3281,0.3656*
1,1,0.2188,0.3281,0.3656*
1,1,0.2188,0.3281,-0.3656*
1,1,0.2188,-0.3281,-0.3656*
%
%ADD47ROUNDEDRECTD47*%
%ADD57R,1.3000X1.5000*%
%ADD60R,1.3032X1.6532*%
G04:AMPARAMS|DCode=61|XSize=1.0032mm|YSize=1.1532mm|CornerRadius=0.2016mm|HoleSize=0mm|Usage=FLASHONLY|Rotation=0.000|XOffset=0mm|YOffset=0mm|HoleType=Round|Shape=RoundedRectangle|*
%AMROUNDEDRECTD61*
21,1,1.0032,0.7500,0,0,0.0*
21,1,0.6000,1.1532,0,0,0.0*
1,1,0.4032,0.3000,-0.3750*
1,1,0.4032,-0.3000,-0.3750*
1,1,0.4032,-0.3000,0.3750*
1,1,0.4032,0.3000,0.3750*
%
%ADD61ROUNDEDRECTD61*%
%ADD62R,1.8032X3.2032*%
%ADD63R,6.9032X6.9032*%
%ADD64R,7.2032X7.2032*%
%ADD65R,1.7032X2.7032*%
G04:AMPARAMS|DCode=66|XSize=1.0032mm|YSize=1.1532mm|CornerRadius=0.2016mm|HoleSize=0mm|Usage=FLASHONLY|Rotation=270.000|XOffset=0mm|YOffset=0mm|HoleType=Round|Shape=RoundedRectangle|*
%AMROUNDEDRECTD66*
21,1,1.0032,0.7500,0,0,270.0*
21,1,0.6000,1.1532,0,0,270.0*
1,1,0.4032,-0.3750,-0.3000*
1,1,0.4032,-0.3750,0.3000*
1,1,0.4032,0.3750,0.3000*
1,1,0.4032,0.3750,-0.3000*
%
%ADD66ROUNDEDRECTD66*%
G04:AMPARAMS|DCode=67|XSize=1.15mm|YSize=1.35mm|CornerRadius=0.325mm|HoleSize=0mm|Usage=FLASHONLY|Rotation=0.000|XOffset=0mm|YOffset=0mm|HoleType=Round|Shape=RoundedRectangle|*
%AMROUNDEDRECTD67*
21,1,1.1500,0.7000,0,0,0.0*
21,1,0.5000,1.3500,0,0,0.0*
1,1,0.6500,0.2500,-0.3500*
1,1,0.6500,-0.2500,-0.3500*
1,1,0.6500,-0.2500,0.3500*
1,1,0.6500,0.2500,0.3500*
%
%ADD67ROUNDEDRECTD67*%
%ADD68R,0.7032X0.6032*%
%ADD69R,2.7032X1.9032*%
%ADD70R,2.4032X3.3532*%
%ADD71R,2.7032X2.7032*%
%ADD72R,1.4032X0.9032*%
%ADD73R,1.4032X1.2032*%
%ADD74R,1.0032X1.2032*%
%ADD75R,3.0032X1.2032*%
%ADD76R,2.1032X1.5032*%
%ADD77R,2.0032X1.4032*%
%ADD78R,1.7532X0.8032*%
%ADD79R,0.9032X1.1032*%
G04:AMPARAMS|DCode=80|XSize=1.4632mm|YSize=0.7932mm|CornerRadius=0.1754mm|HoleSize=0mm|Usage=FLASHONLY|Rotation=0.000|XOffset=0mm|YOffset=0mm|HoleType=Round|Shape=RoundedRectangle|*
%AMROUNDEDRECTD80*
21,1,1.4632,0.4425,0,0,0.0*
21,1,1.1125,0.7932,0,0,0.0*
1,1,0.3507,0.5563,-0.2213*
1,1,0.3507,-0.5563,-0.2213*
1,1,0.3507,-0.5563,0.2213*
1,1,0.3507,0.5563,0.2213*
%
%ADD80ROUNDEDRECTD80*%
%ADD81O,2.2387X0.7772*%
%ADD82R,1.0732X0.6132*%
%ADD83R,1.0732X0.4632*%
%ADD84R,1.5532X0.6032*%
%ADD85R,2.1032X1.7032*%
%ADD86R,2.1032X2.0032*%
%ADD87C,1.2032*%
G04:AMPARAMS|DCode=88|XSize=1.4632mm|YSize=0.7932mm|CornerRadius=0.1754mm|HoleSize=0mm|Usage=FLASHONLY|Rotation=270.000|XOffset=0mm|YOffset=0mm|HoleType=Round|Shape=RoundedRectangle|*
%AMROUNDEDRECTD88*
21,1,1.4632,0.4425,0,0,270.0*
21,1,1.1125,0.7932,0,0,270.0*
1,1,0.3507,-0.2213,-0.5563*
1,1,0.3507,-0.2213,0.5563*
1,1,0.3507,0.2213,0.5563*
1,1,0.3507,0.2213,-0.5563*
%
%ADD88ROUNDEDRECTD88*%
%ADD89R,1.1032X0.9032*%
G04:AMPARAMS|DCode=90|XSize=1.4132mm|YSize=0.7832mm|CornerRadius=0.1741mm|HoleSize=0mm|Usage=FLASHONLY|Rotation=0.000|XOffset=0mm|YOffset=0mm|HoleType=Round|Shape=RoundedRectangle|*
%AMROUNDEDRECTD90*
21,1,1.4132,0.4350,0,0,0.0*
21,1,1.0650,0.7832,0,0,0.0*
1,1,0.3482,0.5325,-0.2175*
1,1,0.3482,-0.5325,-0.2175*
1,1,0.3482,-0.5325,0.2175*
1,1,0.3482,0.5325,0.2175*
%
%ADD90ROUNDEDRECTD90*%
%ADD91C,1.8032*%
G04:AMPARAMS|DCode=92|XSize=1.8032mm|YSize=1.8032mm|CornerRadius=0.5016mm|HoleSize=0mm|Usage=FLASHONLY|Rotation=180.000|XOffset=0mm|YOffset=0mm|HoleType=Round|Shape=RoundedRectangle|*
%AMROUNDEDRECTD92*
21,1,1.8032,0.8000,0,0,180.0*
21,1,0.8000,1.8032,0,0,180.0*
1,1,1.0032,-0.4000,0.4000*
1,1,1.0032,0.4000,0.4000*
1,1,1.0032,0.4000,-0.4000*
1,1,1.0032,-0.4000,-0.4000*
%
%ADD92ROUNDEDRECTD92*%
%ADD93R,1.7032X1.7032*%
%ADD94C,1.7032*%
%ADD95R,1.7332X1.7332*%
%ADD96C,1.7332*%
%ADD97O,1.7112X3.2192*%
%ADD98C,6.0452*%
%ADD99O,3.2192X1.7112*%
%ADD100C,1.6532*%
%ADD101O,1.8032X1.0032*%
%ADD102P,1.8695X8X22.5*%
%ADD103C,1.7832*%
%ADD104R,1.7832X1.7832*%
%ADD105C,2.7432*%
%ADD106R,1.7032X1.7032*%
%ADD107C,0.7032*%
D27*
X417000Y312500D02*
D03*
Y297000D02*
D03*
X322500Y319750D02*
D03*
Y335250D02*
D03*
X152000Y288250D02*
D03*
Y303750D02*
D03*
X51750Y287000D02*
D03*
Y302500D02*
D03*
X257836Y865000D02*
D03*
Y849500D02*
D03*
X853440Y31750D02*
D03*
Y47250D02*
D03*
X720090D02*
D03*
Y31750D02*
D03*
X444553Y479800D02*
D03*
Y495300D02*
D03*
X966470Y977320D02*
D03*
Y961820D02*
D03*
X937260Y916920D02*
D03*
Y932420D02*
D03*
Y886200D02*
D03*
Y901700D02*
D03*
Y857250D02*
D03*
Y841750D02*
D03*
Y796030D02*
D03*
Y811530D02*
D03*
Y767080D02*
D03*
Y751580D02*
D03*
Y705860D02*
D03*
Y721360D02*
D03*
X939800Y1101860D02*
D03*
Y1086360D02*
D03*
D31*
X222250Y80010D02*
D03*
X206750D02*
D03*
X108960D02*
D03*
X124460D02*
D03*
X755650Y145410D02*
D03*
X740150D02*
D03*
X841000D02*
D03*
X825500D02*
D03*
X697230D02*
D03*
X712730D02*
D03*
X611880D02*
D03*
X627380D02*
D03*
X1129290Y704850D02*
D03*
X1113790D02*
D03*
X971550Y662940D02*
D03*
X987050D02*
D03*
X1022995Y362269D02*
D03*
X1038495D02*
D03*
X144806Y793750D02*
D03*
X129306D02*
D03*
D32*
X897890Y1372870D02*
D03*
X927390D02*
D03*
D33*
X922020Y1072360D02*
D03*
Y1101860D02*
D03*
D47*
X820420Y1379220D02*
D03*
X804670D02*
D03*
X1069592Y693420D02*
D03*
X1053841D02*
D03*
X1069592Y676672D02*
D03*
X1053841D02*
D03*
X1069592Y661553D02*
D03*
X1053841D02*
D03*
X410191Y510314D02*
D03*
X425941D02*
D03*
X410191Y496570D02*
D03*
X425941D02*
D03*
X410191Y479073D02*
D03*
X425941D02*
D03*
D57*
X897806Y195580D02*
D03*
Y246380D02*
D03*
Y271780D02*
D03*
Y297180D02*
D03*
Y322580D02*
D03*
Y347980D02*
D03*
X987806D02*
D03*
Y322580D02*
D03*
Y297180D02*
D03*
Y271780D02*
D03*
Y246380D02*
D03*
Y220980D02*
D03*
Y195580D02*
D03*
Y170180D02*
D03*
X897806D02*
D03*
Y220980D02*
D03*
D60*
X188500Y149750D02*
D03*
X170500D02*
D03*
X92000Y149500D02*
D03*
X74000D02*
D03*
X862220Y1174770D02*
D03*
X880220D02*
D03*
X732481Y599618D02*
D03*
X750481D02*
D03*
X732481Y574218D02*
D03*
X750481D02*
D03*
X732481Y548818D02*
D03*
X750481D02*
D03*
Y523418D02*
D03*
X732481D02*
D03*
X880220Y1135730D02*
D03*
X862220D02*
D03*
Y1155720D02*
D03*
X880220D02*
D03*
D61*
X222000Y149750D02*
D03*
X205500D02*
D03*
X124750Y149500D02*
D03*
X108250D02*
D03*
X799470Y1224960D02*
D03*
X815970D02*
D03*
X770582Y523418D02*
D03*
X787082D02*
D03*
X787080Y548818D02*
D03*
X770580D02*
D03*
Y574218D02*
D03*
X787080D02*
D03*
X770582Y599618D02*
D03*
X787082D02*
D03*
X274336Y836930D02*
D03*
X257836D02*
D03*
X911220Y1155720D02*
D03*
X894720D02*
D03*
X845190Y228759D02*
D03*
X861690D02*
D03*
X911220Y1135730D02*
D03*
X894720D02*
D03*
X1038996Y378769D02*
D03*
X1022496D02*
D03*
X1059810Y1019810D02*
D03*
X1043310D02*
D03*
X954410Y1057860D02*
D03*
X970910D02*
D03*
X894720Y1174770D02*
D03*
X911220D02*
D03*
X784217Y730250D02*
D03*
X767717D02*
D03*
X954412Y1068860D02*
D03*
X970912D02*
D03*
X671830Y85090D02*
D03*
X688330D02*
D03*
X646430D02*
D03*
X629930D02*
D03*
X802640D02*
D03*
X819140D02*
D03*
X777240D02*
D03*
X760740D02*
D03*
X861609Y190976D02*
D03*
X845109D02*
D03*
X845190Y209867D02*
D03*
X861690D02*
D03*
X1017910Y933450D02*
D03*
X1034410D02*
D03*
X995250Y961820D02*
D03*
X978750D02*
D03*
X1017910Y946150D02*
D03*
X1034410D02*
D03*
X1063820Y933450D02*
D03*
X1047320D02*
D03*
X950464Y916920D02*
D03*
X966964D02*
D03*
Y901700D02*
D03*
X950464D02*
D03*
Y857250D02*
D03*
X966964D02*
D03*
Y811530D02*
D03*
X950464D02*
D03*
Y767080D02*
D03*
X966964D02*
D03*
Y721360D02*
D03*
X950464D02*
D03*
X971550Y675640D02*
D03*
X988050D02*
D03*
X1034410Y886460D02*
D03*
X1017910D02*
D03*
Y875030D02*
D03*
X1034410D02*
D03*
Y830580D02*
D03*
X1017910D02*
D03*
Y817880D02*
D03*
X1034410D02*
D03*
Y772160D02*
D03*
X1017910D02*
D03*
Y758190D02*
D03*
X1034410D02*
D03*
X1034412Y712470D02*
D03*
X1017912D02*
D03*
X1063820Y886460D02*
D03*
X1047320D02*
D03*
Y712470D02*
D03*
X1063820D02*
D03*
Y758190D02*
D03*
X1047320D02*
D03*
Y772160D02*
D03*
X1063820D02*
D03*
Y817880D02*
D03*
X1047320D02*
D03*
Y830580D02*
D03*
X1063820D02*
D03*
Y875030D02*
D03*
X1047320D02*
D03*
X784217Y717530D02*
D03*
X767717D02*
D03*
X767715Y302830D02*
D03*
X784215D02*
D03*
X767713Y355600D02*
D03*
X784213D02*
D03*
X765180Y1293470D02*
D03*
X781680D02*
D03*
X742800Y1209040D02*
D03*
X759300D02*
D03*
X815970Y1302360D02*
D03*
X799470D02*
D03*
X781678Y1236370D02*
D03*
X765178D02*
D03*
X767715Y285100D02*
D03*
X784215D02*
D03*
X784217Y692150D02*
D03*
X767717D02*
D03*
X767715Y239330D02*
D03*
X784215D02*
D03*
Y342200D02*
D03*
X767715D02*
D03*
X718970Y213980D02*
D03*
X735470D02*
D03*
X767715Y744220D02*
D03*
X784215D02*
D03*
X767715Y323200D02*
D03*
X784215D02*
D03*
X784217Y805840D02*
D03*
X767717D02*
D03*
X781680Y1223670D02*
D03*
X765180D02*
D03*
X767720Y252730D02*
D03*
X784220D02*
D03*
X765178Y1252830D02*
D03*
X781678D02*
D03*
X767715Y758190D02*
D03*
X784215D02*
D03*
X734200Y1162344D02*
D03*
X717700D02*
D03*
X765180Y1274470D02*
D03*
X781680D02*
D03*
X784230Y833120D02*
D03*
X800730D02*
D03*
X784213Y270510D02*
D03*
X767713D02*
D03*
X954410Y1134860D02*
D03*
X970910D02*
D03*
Y1123860D02*
D03*
X954410D02*
D03*
Y1112860D02*
D03*
X970910D02*
D03*
Y1090860D02*
D03*
X954410D02*
D03*
X784217Y785450D02*
D03*
X767717D02*
D03*
X767718Y820420D02*
D03*
X784218D02*
D03*
X828670Y792404D02*
D03*
X812170D02*
D03*
X805820Y284480D02*
D03*
X822320D02*
D03*
X824500Y314000D02*
D03*
X808000D02*
D03*
X797784Y1259840D02*
D03*
X814284D02*
D03*
X828670Y762039D02*
D03*
X812170D02*
D03*
X784217Y772800D02*
D03*
X767717D02*
D03*
X274310Y811530D02*
D03*
X257810D02*
D03*
X1014100Y195580D02*
D03*
X1030600D02*
D03*
Y220980D02*
D03*
X1014100D02*
D03*
X861690Y247650D02*
D03*
X845190D02*
D03*
X1030600Y271576D02*
D03*
X1014100D02*
D03*
Y322580D02*
D03*
X1030600D02*
D03*
X767720Y226060D02*
D03*
X784220D02*
D03*
X784216Y704850D02*
D03*
X767716D02*
D03*
X718820Y200660D02*
D03*
X735320D02*
D03*
X1060710Y306070D02*
D03*
X1077210D02*
D03*
D62*
X393000Y339500D02*
D03*
X347000D02*
D03*
D63*
X370000Y273000D02*
D03*
D64*
X103250Y342000D02*
D03*
D65*
X126250Y279500D02*
D03*
X80250D02*
D03*
D66*
X144806Y824230D02*
D03*
Y807730D02*
D03*
X1052465Y362269D02*
D03*
Y378769D02*
D03*
X777240Y128910D02*
D03*
Y145410D02*
D03*
X802640D02*
D03*
Y128910D02*
D03*
X671830D02*
D03*
Y145410D02*
D03*
X646430D02*
D03*
Y128910D02*
D03*
X996950Y468630D02*
D03*
Y485130D02*
D03*
X985520D02*
D03*
Y468630D02*
D03*
X960120D02*
D03*
Y485130D02*
D03*
X948690D02*
D03*
Y468630D02*
D03*
X909320D02*
D03*
Y485130D02*
D03*
X920750D02*
D03*
Y468630D02*
D03*
X878840D02*
D03*
Y485130D02*
D03*
X891540D02*
D03*
Y468630D02*
D03*
X1003300Y712470D02*
D03*
Y728970D02*
D03*
Y741690D02*
D03*
Y758190D02*
D03*
Y772160D02*
D03*
Y788660D02*
D03*
Y801380D02*
D03*
Y817880D02*
D03*
Y830580D02*
D03*
Y847080D02*
D03*
Y858530D02*
D03*
Y875030D02*
D03*
Y886460D02*
D03*
Y902960D02*
D03*
X763270Y1191260D02*
D03*
Y1174760D02*
D03*
D67*
X806610Y299020D02*
D03*
X826610D02*
D03*
X826500Y329250D02*
D03*
X806500D02*
D03*
X810420Y777145D02*
D03*
X830420D02*
D03*
X832750Y807750D02*
D03*
X812750D02*
D03*
X798000Y1240750D02*
D03*
X818000D02*
D03*
X817720Y1274470D02*
D03*
X797720D02*
D03*
D68*
X722020Y239499D02*
D03*
Y245999D02*
D03*
Y232999D02*
D03*
X741020D02*
D03*
Y245999D02*
D03*
X739750Y1190613D02*
D03*
Y1177613D02*
D03*
X720750D02*
D03*
Y1190613D02*
D03*
Y1184113D02*
D03*
X405790Y1247140D02*
D03*
Y1253640D02*
D03*
Y1240640D02*
D03*
X424790D02*
D03*
Y1253640D02*
D03*
X738480Y1251100D02*
D03*
Y1238100D02*
D03*
X719480D02*
D03*
Y1251100D02*
D03*
Y1244600D02*
D03*
X719330Y1283970D02*
D03*
Y1290470D02*
D03*
Y1277470D02*
D03*
X738330D02*
D03*
Y1290470D02*
D03*
X740870Y339200D02*
D03*
Y326200D02*
D03*
X721870D02*
D03*
Y339200D02*
D03*
Y332700D02*
D03*
X722020Y810260D02*
D03*
Y816760D02*
D03*
Y803760D02*
D03*
X741020D02*
D03*
Y816760D02*
D03*
X424790Y1293010D02*
D03*
Y1280010D02*
D03*
X405790D02*
D03*
Y1293010D02*
D03*
Y1286510D02*
D03*
X722020Y714499D02*
D03*
Y720999D02*
D03*
Y707999D02*
D03*
X741020D02*
D03*
Y720999D02*
D03*
Y299830D02*
D03*
Y286830D02*
D03*
X722020D02*
D03*
Y299830D02*
D03*
Y293330D02*
D03*
Y770870D02*
D03*
Y777370D02*
D03*
Y764370D02*
D03*
X741020D02*
D03*
Y777370D02*
D03*
D69*
X264480Y377190D02*
D03*
X304480D02*
D03*
D70*
X713030Y1339850D02*
D03*
X783030D02*
D03*
X725730Y877570D02*
D03*
X795730D02*
D03*
X725730Y396240D02*
D03*
X795730D02*
D03*
D71*
X360680Y474890D02*
D03*
Y431890D02*
D03*
D72*
X999670Y1134860D02*
D03*
Y1123860D02*
D03*
Y1112860D02*
D03*
Y1101860D02*
D03*
Y1090860D02*
D03*
Y1079860D02*
D03*
Y1068860D02*
D03*
Y1057860D02*
D03*
Y1048360D02*
D03*
D73*
Y1150360D02*
D03*
X1042670Y1038860D02*
D03*
D74*
X1104670D02*
D03*
D75*
X1146170D02*
D03*
D76*
X1150670Y1173860D02*
D03*
D77*
X658030Y382999D02*
D03*
Y216999D02*
D03*
X492779Y1174313D02*
D03*
Y1340313D02*
D03*
X658030Y691999D02*
D03*
Y857999D02*
D03*
Y1161613D02*
D03*
Y1327613D02*
D03*
D78*
X683280Y369999D02*
D03*
Y359999D02*
D03*
Y349999D02*
D03*
Y339999D02*
D03*
Y329999D02*
D03*
Y319999D02*
D03*
Y309999D02*
D03*
Y299999D02*
D03*
Y289999D02*
D03*
Y279999D02*
D03*
Y269999D02*
D03*
Y259999D02*
D03*
Y249999D02*
D03*
Y239999D02*
D03*
Y229999D02*
D03*
X467529Y1247313D02*
D03*
Y1257313D02*
D03*
Y1187313D02*
D03*
Y1197313D02*
D03*
Y1207313D02*
D03*
Y1217313D02*
D03*
Y1227313D02*
D03*
Y1237313D02*
D03*
Y1267313D02*
D03*
Y1277313D02*
D03*
Y1287313D02*
D03*
Y1297313D02*
D03*
Y1307313D02*
D03*
Y1317313D02*
D03*
Y1327313D02*
D03*
X683280Y704999D02*
D03*
Y714999D02*
D03*
Y724999D02*
D03*
Y734999D02*
D03*
Y744999D02*
D03*
Y754999D02*
D03*
Y764999D02*
D03*
Y774999D02*
D03*
Y784999D02*
D03*
Y794999D02*
D03*
Y804999D02*
D03*
Y814999D02*
D03*
Y824999D02*
D03*
Y834999D02*
D03*
Y844999D02*
D03*
Y1174613D02*
D03*
Y1184613D02*
D03*
Y1194613D02*
D03*
Y1204613D02*
D03*
Y1214613D02*
D03*
Y1224613D02*
D03*
Y1234613D02*
D03*
Y1244613D02*
D03*
Y1254613D02*
D03*
Y1264613D02*
D03*
Y1274613D02*
D03*
Y1284613D02*
D03*
Y1294613D02*
D03*
Y1304613D02*
D03*
Y1314613D02*
D03*
D79*
X873760Y516480D02*
D03*
X867260Y535480D02*
D03*
X880260D02*
D03*
X1017912Y684100D02*
D03*
X1024412Y665100D02*
D03*
X1011412D02*
D03*
X918210Y516480D02*
D03*
X911710Y535480D02*
D03*
X924710D02*
D03*
X960120Y516480D02*
D03*
X953620Y535480D02*
D03*
X966620D02*
D03*
X996950Y516480D02*
D03*
X990450Y535480D02*
D03*
X1003450D02*
D03*
X981710Y712470D02*
D03*
X988210Y693470D02*
D03*
X975210D02*
D03*
X989330Y913560D02*
D03*
X982830Y932560D02*
D03*
X995830D02*
D03*
X1017910Y961820D02*
D03*
X1011410Y980820D02*
D03*
X1024410D02*
D03*
D80*
X1070250Y330990D02*
D03*
X1050650Y321490D02*
D03*
Y340490D02*
D03*
X686520Y583718D02*
D03*
Y564718D02*
D03*
X706120Y574218D02*
D03*
X686520Y532918D02*
D03*
Y513918D02*
D03*
X706120Y523418D02*
D03*
X649520Y548818D02*
D03*
X629920Y539318D02*
D03*
Y558318D02*
D03*
X649520Y599618D02*
D03*
X629920Y590118D02*
D03*
Y609118D02*
D03*
D81*
X173008Y849630D02*
D03*
Y836930D02*
D03*
Y824230D02*
D03*
Y811530D02*
D03*
X228363Y849630D02*
D03*
Y836930D02*
D03*
Y824230D02*
D03*
Y811530D02*
D03*
D82*
X971550Y1205910D02*
D03*
X983150D02*
D03*
X971550Y1222410D02*
D03*
X983150D02*
D03*
X954490Y1172840D02*
D03*
Y1156340D02*
D03*
X942890Y1172840D02*
D03*
Y1156340D02*
D03*
D83*
X971550Y1211660D02*
D03*
Y1216660D02*
D03*
X983150Y1211660D02*
D03*
Y1216660D02*
D03*
X954490Y1167090D02*
D03*
Y1162090D02*
D03*
X942890D02*
D03*
Y1167090D02*
D03*
D84*
X48340Y1229660D02*
D03*
Y1223160D02*
D03*
Y1216660D02*
D03*
Y1210160D02*
D03*
Y1203660D02*
D03*
D85*
X21590Y1226660D02*
D03*
Y1206660D02*
D03*
D86*
Y1248660D02*
D03*
Y1184660D02*
D03*
D87*
X1130000Y1320000D02*
D03*
X30000D02*
D03*
Y80000D02*
D03*
D88*
X880110Y77830D02*
D03*
X870610Y97430D02*
D03*
X889610D02*
D03*
X1077210Y286300D02*
D03*
X1058210D02*
D03*
X1067710Y266700D02*
D03*
X991210Y97430D02*
D03*
X972210D02*
D03*
X981710Y77830D02*
D03*
X940410Y97430D02*
D03*
X921410D02*
D03*
X930910Y77830D02*
D03*
D89*
X1028320Y732330D02*
D03*
X1047320Y738830D02*
D03*
Y725830D02*
D03*
X1028320Y792680D02*
D03*
X1047320Y799180D02*
D03*
Y786180D02*
D03*
X1028320Y850440D02*
D03*
X1047320Y856940D02*
D03*
Y843940D02*
D03*
X1028320Y906320D02*
D03*
X1047320Y912820D02*
D03*
Y899820D02*
D03*
X982550Y744220D02*
D03*
X963550Y737720D02*
D03*
Y750720D02*
D03*
X982550Y789940D02*
D03*
X963550Y783440D02*
D03*
Y796440D02*
D03*
X982550Y834390D02*
D03*
X963550Y827890D02*
D03*
Y840890D02*
D03*
X982550Y880110D02*
D03*
X963550Y873610D02*
D03*
Y886610D02*
D03*
X623140Y114290D02*
D03*
X604140Y107790D02*
D03*
Y120790D02*
D03*
X696390Y114290D02*
D03*
X715390Y120790D02*
D03*
Y107790D02*
D03*
X824660Y114290D02*
D03*
X843660Y120790D02*
D03*
Y107790D02*
D03*
X756490Y114290D02*
D03*
X737490Y107790D02*
D03*
Y120790D02*
D03*
D90*
X92000Y1229410D02*
D03*
Y1219910D02*
D03*
Y1210410D02*
D03*
X117100Y1229410D02*
D03*
Y1219910D02*
D03*
Y1210410D02*
D03*
D91*
X236850Y214000D02*
D03*
X262250D02*
D03*
X164350Y396250D02*
D03*
X189750D02*
D03*
X496618Y378234D02*
D03*
X471218D02*
D03*
D92*
X287650Y214000D02*
D03*
X215150Y396250D02*
D03*
X445818Y378234D02*
D03*
D93*
X133370Y679320D02*
D03*
Y1119320D02*
D03*
D94*
Y699320D02*
D03*
X153370Y679320D02*
D03*
Y699320D02*
D03*
X173370Y679320D02*
D03*
Y699320D02*
D03*
X193370Y679320D02*
D03*
Y699320D02*
D03*
X213370Y679320D02*
D03*
Y699320D02*
D03*
X233370Y679320D02*
D03*
Y699320D02*
D03*
X253370Y679320D02*
D03*
Y699320D02*
D03*
X273370Y679320D02*
D03*
Y699320D02*
D03*
X293370Y679320D02*
D03*
Y699320D02*
D03*
X313370Y679320D02*
D03*
Y699320D02*
D03*
X333370Y679320D02*
D03*
Y699320D02*
D03*
X353370Y679320D02*
D03*
Y699320D02*
D03*
X373370Y679320D02*
D03*
Y699320D02*
D03*
X393370Y679320D02*
D03*
Y699320D02*
D03*
X413370Y679320D02*
D03*
Y699320D02*
D03*
X433370Y679320D02*
D03*
Y699320D02*
D03*
X453370Y679320D02*
D03*
Y699320D02*
D03*
X503080Y889320D02*
D03*
X523080D02*
D03*
X83370Y749320D02*
D03*
X63370D02*
D03*
X83370Y769320D02*
D03*
X63370D02*
D03*
X83370Y789320D02*
D03*
X63370D02*
D03*
X83370Y809320D02*
D03*
X63370D02*
D03*
X83370Y829320D02*
D03*
X63370D02*
D03*
X83370Y849320D02*
D03*
X63370D02*
D03*
X83370Y869320D02*
D03*
X63370D02*
D03*
X83370Y889320D02*
D03*
X63370D02*
D03*
X83370Y909320D02*
D03*
X63370D02*
D03*
X83370Y929320D02*
D03*
X63370D02*
D03*
X83370Y949320D02*
D03*
X63370D02*
D03*
X83370Y969320D02*
D03*
X63370D02*
D03*
X83370Y989320D02*
D03*
X63370D02*
D03*
X83370Y1009320D02*
D03*
X63370D02*
D03*
X83370Y1029320D02*
D03*
X63370D02*
D03*
X83370Y1049320D02*
D03*
X63370D02*
D03*
X83370Y1069320D02*
D03*
X133370Y1139320D02*
D03*
X153370Y1119320D02*
D03*
Y1139320D02*
D03*
X173370Y1119320D02*
D03*
Y1139320D02*
D03*
X193370Y1119320D02*
D03*
Y1139320D02*
D03*
X213370Y1119320D02*
D03*
Y1139320D02*
D03*
X233370Y1119320D02*
D03*
Y1139320D02*
D03*
X253370Y1119320D02*
D03*
Y1139320D02*
D03*
X273370Y1119320D02*
D03*
Y1139320D02*
D03*
X293370Y1119320D02*
D03*
Y1139320D02*
D03*
X313370Y1119320D02*
D03*
Y1139320D02*
D03*
X333370Y1119320D02*
D03*
Y1139320D02*
D03*
X353370Y1119320D02*
D03*
Y1139320D02*
D03*
X373370Y1119320D02*
D03*
Y1139320D02*
D03*
X393370Y1119320D02*
D03*
Y1139320D02*
D03*
X413370Y1119320D02*
D03*
Y1139320D02*
D03*
X433370Y1119320D02*
D03*
Y1139320D02*
D03*
X453370Y1119320D02*
D03*
Y1139320D02*
D03*
X523080Y749320D02*
D03*
X503080D02*
D03*
X523080Y769320D02*
D03*
X503080D02*
D03*
X523080Y789320D02*
D03*
X503080D02*
D03*
X523080Y809320D02*
D03*
X503080D02*
D03*
X523080Y829320D02*
D03*
X503080D02*
D03*
X523080Y849320D02*
D03*
X503080D02*
D03*
X523080Y869320D02*
D03*
X503080D02*
D03*
X523080Y909320D02*
D03*
X503080D02*
D03*
X523080Y929320D02*
D03*
X503080D02*
D03*
X523080Y949320D02*
D03*
X503080D02*
D03*
X523080Y969320D02*
D03*
X503080D02*
D03*
X523080Y989320D02*
D03*
X503080D02*
D03*
X523080Y1009320D02*
D03*
X503080D02*
D03*
X523080Y1029320D02*
D03*
X503080D02*
D03*
X523080Y1049320D02*
D03*
X503080D02*
D03*
X523080Y1069320D02*
D03*
D95*
X850646Y1387602D02*
D03*
D96*
Y1367536D02*
D03*
Y1347470D02*
D03*
Y1327404D02*
D03*
Y1307338D02*
D03*
Y1287272D02*
D03*
Y1267206D02*
D03*
Y1247140D02*
D03*
Y1227074D02*
D03*
Y1207008D02*
D03*
X1070610D02*
D03*
Y1227074D02*
D03*
Y1247140D02*
D03*
Y1267206D02*
D03*
Y1287272D02*
D03*
Y1307338D02*
D03*
Y1327404D02*
D03*
Y1347470D02*
D03*
Y1367536D02*
D03*
Y1387602D02*
D03*
D97*
X998220Y417830D02*
D03*
X972820D02*
D03*
X947420D02*
D03*
X922020D02*
D03*
X896620D02*
D03*
X871220D02*
D03*
X697230Y31750D02*
D03*
X671830D02*
D03*
X646430D02*
D03*
X621030D02*
D03*
X196850D02*
D03*
X222250D02*
D03*
X1057910D02*
D03*
X1032510D02*
D03*
X1007110D02*
D03*
X981710D02*
D03*
X956310D02*
D03*
X930910D02*
D03*
X905510D02*
D03*
X880110D02*
D03*
X496570Y495300D02*
D03*
X521970D02*
D03*
X547370D02*
D03*
X572770D02*
D03*
X598170D02*
D03*
X623570D02*
D03*
X648970D02*
D03*
X471170D02*
D03*
X124460Y31750D02*
D03*
X99060D02*
D03*
X828040D02*
D03*
X802640D02*
D03*
X777240D02*
D03*
X751840D02*
D03*
D98*
X1120000Y985000D02*
D03*
Y1365000D02*
D03*
X545000Y415000D02*
D03*
X40000Y700000D02*
D03*
X615000Y985000D02*
D03*
Y1365000D02*
D03*
X40000D02*
D03*
X545000Y35000D02*
D03*
X40000D02*
D03*
X1120000Y415000D02*
D03*
Y35000D02*
D03*
D99*
X1127760Y734290D02*
D03*
Y759690D02*
D03*
Y785090D02*
D03*
Y810490D02*
D03*
Y835890D02*
D03*
Y861290D02*
D03*
Y886690D02*
D03*
Y912090D02*
D03*
X1127405Y91440D02*
D03*
Y116840D02*
D03*
Y229870D02*
D03*
Y204470D02*
D03*
Y179070D02*
D03*
Y153670D02*
D03*
Y292100D02*
D03*
Y266700D02*
D03*
Y330990D02*
D03*
Y356390D02*
D03*
X1127760Y646430D02*
D03*
Y621030D02*
D03*
Y595630D02*
D03*
Y570230D02*
D03*
Y544830D02*
D03*
Y519430D02*
D03*
Y494030D02*
D03*
Y671830D02*
D03*
Y1219200D02*
D03*
Y1244600D02*
D03*
Y1270000D02*
D03*
Y1295400D02*
D03*
D100*
X48590Y1241660D02*
D03*
Y1191660D02*
D03*
D101*
X21590Y1251660D02*
D03*
Y1181660D02*
D03*
D102*
X707390Y999490D02*
D03*
X1037590Y462280D02*
D03*
X537210Y345440D02*
D03*
X435610Y537210D02*
D03*
D103*
X880110Y1026160D02*
D03*
X803910D02*
D03*
X880110Y1051560D02*
D03*
X803910D02*
D03*
X880110Y1076960D02*
D03*
X803910D02*
D03*
X880110Y1102360D02*
D03*
D104*
X803910D02*
D03*
D105*
X307340Y492760D02*
D03*
X256540D02*
D03*
X306070Y436880D02*
D03*
X255270D02*
D03*
D106*
X63370Y1069320D02*
D03*
X503080D02*
D03*
D107*
X78250Y241500D02*
D03*
M02*
