M48
;Layer_Color=9474304
;FILE_FORMAT=4:4
METRIC,LZ
;TYPE=PLATED
T1F00S00C0.3000
T2F00S00C0.5000
T4F00S00C0.8500
T5F00S00C0.9000
T6F00S00C1.0000
T7F00S00C1.0160
T8F00S00C1.0200
T9F00S00C1.1000
T10F00S00C1.6000
T11F00S00C3.0000
%
T01
X0007414Y00070765
X0018844
X0016939Y00032665
X0024559
X0053134Y00070765
X0056944
X0058849Y00032665
X0068374Y00070765
X0072184
X00731398Y00047068
X0075994Y00070765
X0083614
X0089329Y00032665
X0096949
X0104569
X0108379
X0110284Y00070765
X0114094
X0110284Y00146965
Y00223165
X0106474
X0104569Y00261265
X0100759
X0096949
X0093139
X00940105Y003048
X0094996Y00310269
X0093139Y00337465
X0096949
X0098854Y00375565
X0095044
X01038996Y0038735
X0108379Y00413665
X0110284Y00451765
X0114094
Y00375565
X0110284
X0108379Y00337465
X0104902Y0030607
X0104569Y00185065
X0100759
X0096949
X0093139
Y00108865
X0100759
X0102664Y00451765
X0091234Y00375565
X0087424
X008185Y0034575
X00797662Y00342034
X00795937Y00326037
X0079248Y003048
X00793182Y002851
X0084328Y0027305
X0085344Y0026543
X00861722Y00257632
X0088011Y00252229
X0088392Y0022098
X0091234Y00223165
X0087503Y0018542
X0087424Y00146965
X0084963Y0014541
X0085519Y00108865
X00889637Y00109249
X0091234Y00146965
X0080264Y0015621
X0077724
X0074089Y00185065
X0070279
X0066469
X0067183Y0015748
X00646485Y0015684
X00601936Y00191726
X0053134Y00146965
X0055039Y00261265
Y00337465
X0053134Y00375565
Y00451765
X0056944
X0060754
X0064564
X0068374
X0070279Y00413665
X0066469
Y00337465
X0064564Y00299365
X0066469Y00261265
X0070279
X0070866Y0029079
X00726009Y003327
X0076908Y00366791
X0081709Y00413665
X0083614Y00223165
X0081709Y00185065
X0082677Y0008509
X0075311
X00714983Y00097608
X0058849Y00413665
X0047419
X0044069Y004191
Y0046355
X0045514Y00451765
X0049324
X0037894
X0034084
X0028369Y00413665
X0024559
X0020749
X0016939
X0018844Y00451765
X0022654
Y00375565
X0027099
X0024559Y00337465
X0020749
Y00261265
X0024559
X0028369
X0034084Y00299365
X0037894Y00223165
X0039799Y00185065
X0043609
X0047419
X0043609Y00261265
X0044Y0032925
X004275
X003175Y0018161
X0031115
X0020749Y00185065
Y00108865
X0024559
X0015034Y00146965
Y00451765
X0011224
X0007414
X0003604
X0005509Y00413665
X0001699
X0003604Y00375565
X0007414
X0011224
X0013129Y00337465
X0011224Y00299365
X0003604
X0005509Y00337465
X0001699
Y00261265
X0005509
X0007825Y002415
X0003604Y00223165
X0005509Y00185065
X0001699
X0003604Y00146965
X0005509Y00108865
X0009319
X0001699
Y00489865
X0005509
X0007414Y00527965
X0011224
X0013129Y00566065
X0011224Y00604165
X0007414
X0003604
X0005509Y00642265
X0001699
Y00566065
X0005509
X0003604Y00527965
X0013129Y00489865
X0007414Y00680365
X0003604Y00756565
X0001699Y00794665
X0003604Y00832765
X0018844
X0022654Y00756565
X0026464
X0028369Y00794665
X0029337Y0079121
X0029718Y0084201
X0028956Y0085852
X0037894Y00832765
X004191Y0083439
X0043609Y00794665
X0038735Y0079629
X0034084Y00756565
X0030353Y0073787
Y00714828
X0035989Y00642265
X00465598Y0062785
X004826Y0062865
X0049657Y0063119
X0051181Y00635
X0046101Y0071247
Y007366
X0047371Y0076581
X0045514Y00527965
X0041704
X0034084
X0018844
X0015034
X0016939Y00566065
X0020574Y0055287
Y0060579
X0022654Y00604165
X0020749Y00642265
X0016939
Y00489865
X0020749
X0053134Y00527965
X0064564
X0066469Y00489865
X0066802Y0057658
X0066929Y0058547
X0066421Y00606412
X0067183Y0062357
X0067945Y0062611
X0069469Y0061722
X0072644Y0063627
X0073064Y00661089
X00718922Y00664431
X0071882Y0067945
X00716692Y0068638
X0073025Y007112
X0075565Y0070104
X0079375Y0070485
X0079248Y0069215
X0080772Y0070485
X0082042
X0082423Y0068707
X0084328Y006604
X0085217Y00655023
X0086106Y0064897
X0080772Y0065024
X00801828Y0065659
X00798733Y00663146
X0078232Y0066294
X0077851Y0065659
X0077216Y0065024
Y00637001
X0077978Y0064389
X0079883
X0081153Y00637001
X00798542Y00601286
X00778832Y00604843
X0076327Y0058674
X0072009Y0059055
X0070279Y00566065
X0071501Y0053721
X0075311Y0049911
X0081709Y00566065
X0085217Y0059817
X0086106Y0059309
X0084328Y0060706
X0091234Y00604165
X009271Y0057785
X0089329Y00566065
X0090932Y0049784
X0092583Y0063246
X0085519Y00718465
X00806868Y00717587
X0079375Y0072644
X00806906Y0074151
X0081875Y0081825
X0082931Y0082042
X0092456Y0082931
Y0085217
X0072184Y00832765
X0072898Y0081026
X0072771Y0077087
X0070612Y0074295
X0066469Y00718465
X0062659
X0064564Y00756565
X0066469Y00794665
X0062659
X0064564Y00832765
X0055039Y00794665
X00551846Y00751009
X0056261Y0062992
X0060198
X0064008
X006139Y0057979
X0093472Y0058547
X0093345Y0060198
X0093218Y0061214
X0092964Y0062103
X0093139Y00642265
X0098854Y00756565
X0108379Y00794665
Y00718465
X0112189
X0110284Y00680365
Y00604165
X0108379Y00566065
X0110284Y00527965
X0108379Y00489865
X0100759
X0096949
X0102664Y00527965
X0108379Y00870865
Y00947065
X0112189
Y01023265
X0114094Y01061365
X0110284
X0112189Y01099465
X0108379
X0110284Y01137565
X0114094
X0112189Y01175665
X0100759
X01010771Y01134884
X0097917Y0112395
X0098529Y0111286
Y0109086
X00980213Y01068887
X0098298Y0105791
X0102664Y01061365
X0106668Y0102743
X0104569Y00947065
X0100759
X0093139
X0095044Y00985165
X0092837Y0087503
X0093218Y01144362
X00933054Y01153559
X0093151Y01160643
X0093345Y01167715
X0092964Y0117475
X0096393Y0117602
X00966476Y0116463
X00962962Y01156367
X00978468Y01158829
X0094931Y01205636
X00953724Y01211387
X0095885Y0121666
X00962855Y01222704
X0096949Y01251865
X0100759
X0104569
X0103378Y0120904
X0102664Y01213765
X0093139Y01251865
X0091234Y01213765
X0087424
X0082169Y0120777
X00822845Y0122496
X00823Y012515
X00821274Y0125984
X0078867Y0124587
X0079502Y0119507
X0080518Y0118491
X00788724Y0115769
X0076327Y0116713
X0074168Y01162344
X0070612Y0114808
X0070104Y0111887
X00706226Y0106409
X00715284
X007239
X0073279
X00759491Y0109093
X0081709Y01099465
X0085519
X0085708Y0103124
X00850403Y01025909
X00844868Y01032562
X008382Y0103632
X0082931Y0103505
X0081709Y01023265
X0089329
X0091234Y00985165
X0087424
X0079804Y00908965
X0075994
X0072184
Y00985165
X0068374
X0070279Y01023265
X0066469
X0062659
X0056944Y00985165
Y00908965
X0060754
X0064564
X0077899Y00870865
X0081709
X00774856Y01202123
X0072517Y012446
X0051229Y01251865
X0049324Y01213765
X0051229Y01175665
X0037338Y0117348
X0031369Y0118237
X0027559
X0028321Y011938
X0024559Y01175665
Y01099465
X0026464Y01061365
X0022654
X0018844
X0015034
X00173205Y01091063
X0016939Y01023265
X0020749
X0022654Y00985165
X0026464
X0029337Y0101346
X00323431Y01023118
X0037338Y0101854
X0039243Y0103251
X0040132Y0105791
X0040767Y0106172
X0041275Y0106934
X0039799Y01099465
X0037338Y0108458
X0034084Y01061365
X0029337Y0108839
X0034084Y00985165
X0035687Y0098679
X0041704Y00985165
X0039799Y00947065
X0041704Y00908965
X0043688Y0089662
X00442948Y00882489
X00450428Y0088932
X0045593Y0087884
X0039799Y00870865
X0035989
X0034084Y00908965
X0026464
X0022654
X0018844
X0015034
X0016939Y00870865
X0020749
X0024559
X0018844Y00985165
X0015034
X0016939Y01175665
X0018844Y01213765
X0035989Y01251865
X0041021Y0122174
X0044008Y0125664
X0046101Y0102108
X004572Y0101219
X0047419Y01023265
X0047752Y0096266
X0048387Y009525
X0011224Y00985165
X0013129Y01023265
X0011224Y01061365
Y01137565
X0007414
X0003604
X0005509Y01175665
X0009319
X0013129
X001171Y0121991
X00092
X0009319Y01251865
X0006985Y0123825
X0005509Y01251865
X0003604Y01213765
X0013129Y01251865
X0001699Y01099465
X0003604Y01061365
X0001699Y01023265
X0003604Y00985165
X0001699Y00947065
X0003604Y00908965
X0001699Y00870865
X0013129
X00124977Y0088776
X0011224Y00908965
Y01289965
X0007414
X0003604
X0005509Y01328065
X0009319
X0013129
X0011224Y01366165
X0007414
X0001699Y01328065
X0037894Y01289965
X004413Y0129601
X0044831Y0130048
X0045339Y01327313
X0045514Y01366165
X0049324
X0051229Y01328065
X0049324Y01289965
X0053134Y01366165
X0056944
X0062659Y01328065
X0068374Y01366165
X0075994
X00795789Y01362225
X0083614Y01366165
X0087424
X0091234
X0089329Y01328065
X0086614Y013335
X00866326Y01307259
X0081597Y0131064
X0081709Y01328065
X00815602Y01337009
X00793249Y01314395
X0078994Y0129347
X0079Y0128525
X00822845Y0127447
X0091234Y01289965
X0072644Y0128397
X0074089Y01328065
X0096949
X0100759
X0104569
X0108379
X0112189
X0095044Y01366165
T02
X010306Y00186055
X0108077Y0013589
X010306Y00309783
X0081153Y0046355
X00587225Y00088362
X00521958Y00215912
X0042291Y0020574
X00174682Y00193686
X0041021Y0046863
X0040259Y0049657
X00401546Y00510314
X0020828Y0079502
X0015621Y0081153
X0086726Y0055118
X0091171
X0095362
X0099045
X01024412Y0064897
X01053841Y00652066
X01044483Y0067666
X010033Y0069347
X00945677Y0073772
Y0078344
Y0082789
Y0087361
X00967962Y0093256
X00994176Y0098082
X01013691Y0110186
X00894819Y0100214
X00678445Y00958796
X00678347Y00890003
X00635Y0116332
X00486133Y01207313
X0044135Y0121158
T04
X0004859Y0119166
Y0124166
T05
X0013337Y0067932
Y0069932
X0008337Y0074932
X0006337
Y0076932
X0008337
Y0078932
X0006337
Y0080932
X0008337
Y0082932
X0006337
Y0084932
X0008337
X0015337Y0069932
Y0067932
X0017337
Y0069932
X0019337
Y0067932
X0021337
Y0069932
X0023337
Y0067932
X0025337
Y0069932
X0027337
Y0067932
X0029337
Y0069932
X0031337
Y0067932
X0033337
Y0069932
X0035337
Y0067932
X0037337
Y0069932
X0039337
Y0067932
X0041337
Y0069932
X0043337
Y0067932
X0045337
Y0069932
X0050308Y0074932
X0052308
Y0076932
X0050308
Y0078932
X0052308
Y0080932
X0050308
Y0082932
X0052308
Y0084932
X0050308
Y0086932
X0052308
Y0088932
X0050308
Y0090932
X0052308
Y0092932
X0050308
Y0094932
X0052308
Y0096932
X0050308
Y0098932
X0052308
Y0100932
X0050308
Y0102932
X0052308
Y0104932
X0050308
Y0106932
X0052308
X0045337Y0111932
X0043337
X0041337
Y0113932
X0043337
X0045337
X0039337
X0037337
X0035337
X0033337
Y0111932
X0035337
X0037337
X0039337
X0031337
X0029337
Y0113932
X0031337
X0027337
X0025337
X0023337
X0021337
X0019337
X0017337
Y0111932
X0019337
X0021337
X0023337
X0025337
X0027337
X0015337
Y0113932
X0013337
Y0111932
X0008337Y0106932
Y0104932
X0006337
Y0106932
Y0102932
Y0100932
Y0098932
Y0096932
Y0094932
Y0092932
X0008337
Y0094932
Y0096932
Y0098932
Y0100932
Y0102932
Y0090932
Y0088932
X0006337
Y0090932
Y0086932
X0008337
T06
X0009906Y0003175
X0012446
X0019685
X0022225
X0062103
X0064643
X0067183
X0069723
X0075184
X0077724
X0080264
X0082804
X0088011
X0090551
X0093091
X0095631
X0098171
X0100711
X0103251
X0105791
X01127405Y0009144
Y0011684
Y0015367
Y0017907
Y0020447
Y0022987
Y002667
Y002921
Y0033099
Y0035639
X0099822Y0041783
X0097282
X0094742
X0092202
X0089662
X0087122
X0052197Y004953
X0049657
X0047117
X0054737
X0057277
X0059817
X0062357
X0064897
X0112776Y0049403
Y0051943
Y0054483
Y0057023
Y0059563
Y0062103
Y0064643
Y0067183
Y0073429
Y0075969
Y0078509
Y0081049
Y0083589
Y0086129
Y0088669
Y0091209
Y012192
Y012446
X0088011Y0110236
Y0107696
Y0105156
Y0102616
X0080391
Y0105156
Y0107696
Y0110236
X0112776Y0127
Y012954
T07
X0103759Y0046228
X0053721Y0034544
X0043561Y0053721
X0070739Y0099949
T08
X0107061Y01207008
Y01227074
Y0124714
X00850646
Y01227074
Y01207008
Y01267206
Y01287272
Y01307338
Y01327404
Y0134747
Y01367536
Y01387602
X0107061
Y01367536
Y0134747
Y01327404
Y01307338
Y01287272
Y01267206
T09
X0023685Y00214
X0026225
X0028765
X0021515Y0039625
X0018975
X0016435
X00445818Y00378234
X00471218
X00496618
T10
X0025527Y0043688
X0030607
X0030734Y0049276
X0025654
T11
X0004Y00035
X00545
X0112
Y00415
X00545
X0004Y007
X0112Y00985
X00615
X0004Y01365
X00615
X0112
M30
